<svg width="548" height="334" viewBox="0 0 548 334" fill="none" xmlns="http://www.w3.org/2000/svg">
<path d="M30.8791 10.6316H511.259C522.594 10.6316 531.818 19.8561 531.818 31.1914V296.045C531.818 307.38 522.594 316.605 511.259 316.605H30.8791C19.5439 316.605 10.3193 307.38 10.3193 296.045V31.1132C10.3975 19.778 19.5439 10.6316 30.8791 10.6316Z" fill="#E9E9E9"/>
<path d="M511.259 10.6316H30.8791C19.5439 10.6316 10.3975 19.8561 10.3193 31.1914V296.045C10.3193 307.38 19.5439 316.527 30.8791 316.605H511.259C522.594 316.605 531.74 307.38 531.818 296.045V31.1132C531.74 19.778 522.594 10.6316 511.259 10.6316ZM525.174 292.058C525.174 303.002 516.262 311.914 505.239 311.993H36.9767C25.9541 311.993 17.1205 303.081 17.0423 292.058V36.8199C17.0423 25.8755 25.9541 16.9637 36.8985 16.8855H505.161C516.184 16.8855 525.095 25.7974 525.095 36.8199V292.058H525.174Z" fill="#F5F5F5"/>
<path d="M299.954 43.3865H39.7129V244.45H299.954V43.3865Z" fill="white"/>
<path d="M504.067 106.629H293.622V291.746H504.067V106.629Z" fill="white"/>
<g opacity="0.7">
<path d="M328.565 173.859V174.406H320.826V166.823H328.409V167.371H321.53V173.781H328.565V173.859ZM321.921 169.325C322.39 169.481 322.937 169.794 323.171 170.107L322.781 170.576C322.546 170.341 321.999 169.95 321.53 169.794L321.921 169.325ZM323.484 171.436C323.171 172.061 322.702 172.843 322.311 173.468L321.842 173.077C322.155 172.608 322.702 171.827 323.015 171.045L323.484 171.436ZM323.25 168.856C323.015 168.621 322.468 168.231 322.077 168.074L322.468 167.683C322.859 167.918 323.406 168.231 323.64 168.465L323.25 168.856ZM326.689 169.247V170.029H327.94V170.498H326.689V171.279H327.94V171.748H326.689V172.53H328.253V173.077H324.735V173.468H324.109V169.872C323.875 170.185 323.719 170.419 323.484 170.654C323.406 170.498 323.171 170.263 323.093 170.185C323.797 169.56 324.344 168.543 324.735 167.605L325.282 167.762C325.204 168.074 325.048 168.387 324.891 168.7H326.298C326.22 168.465 326.064 168.152 325.907 167.84L326.533 167.683C326.767 167.996 326.924 168.387 327.002 168.7H328.253V169.247H326.689V169.247ZM326.064 169.247H324.735V170.029H326.064V169.247ZM326.064 170.498H324.735V171.279H326.064V170.498ZM326.064 171.827H324.735V172.608H326.064V171.827Z" fill="#333333"/>
<path d="M333.959 167.058C333.959 168.7 334.193 172.061 337.711 174.172C337.555 174.25 337.32 174.563 337.164 174.719C334.897 173.39 333.959 171.357 333.568 169.638C332.865 171.983 331.77 173.625 329.972 174.719C329.816 174.563 329.581 174.328 329.347 174.172C331.379 173.155 332.474 171.279 333.021 168.778L333.412 168.856C333.334 168.465 333.334 168.074 333.255 167.683H330.988V166.98H333.959V167.058Z" fill="#333333"/>
<path d="M338.571 168.074H342.011V168.621H338.571V168.074ZM338.962 169.247H341.698V169.794H338.962V169.247ZM338.962 170.419H341.698V170.967H338.962V170.419ZM341.698 174.25H339.588V174.641H339.04V171.592H341.776V174.25H341.698ZM339.509 172.217V173.703H341.073V172.217H339.509ZM340.213 167.996C340.057 167.683 339.822 167.136 339.509 166.745L340.057 166.511C340.291 166.902 340.604 167.371 340.76 167.683L340.213 167.996ZM346.78 167.918H345.372V173.781C345.372 174.25 345.294 174.484 344.903 174.563C344.591 174.719 344.043 174.719 343.105 174.719C343.105 174.563 342.949 174.25 342.871 174.015C343.574 174.015 344.2 174.015 344.434 174.015C344.591 174.015 344.669 173.937 344.669 173.781V167.918H342.167V167.292H346.78V167.918V167.918Z" fill="#333333"/>
<path d="M355.692 173.546H352.017V174.797H351.314V173.546H347.718V172.921H351.314V172.218H348.578V169.091H354.832V172.218H352.017V172.921H355.692V173.546ZM351.314 168.621H348.343V166.823H351.314V168.621ZM350.688 167.371H348.969V168.231H350.688V167.371ZM349.281 170.419H351.314V169.638H349.281V170.419ZM351.314 171.748V170.967H349.281V171.748H351.314ZM354.128 169.638H351.939V170.419H354.128V169.638ZM354.128 170.967H351.939V171.748H354.128V170.967ZM355.066 168.621H352.096V166.823H355.066V168.621ZM354.441 167.371H352.721V168.231H354.441V167.371Z" fill="#333333"/>
</g>
<g opacity="0.7">
<path d="M473.501 174.093H469.436V173.39L472.093 170.732C472.172 170.654 472.25 170.497 472.406 170.419C472.484 170.341 472.562 170.185 472.641 170.107C472.719 169.95 472.797 169.872 472.797 169.716C472.797 169.559 472.875 169.403 472.875 169.325C472.875 169.169 472.875 168.934 472.797 168.856C472.719 168.699 472.641 168.543 472.484 168.465C472.328 168.387 472.25 168.309 472.093 168.23C471.937 168.152 471.781 168.152 471.624 168.152C471.312 168.152 470.999 168.23 470.765 168.465C470.53 168.699 470.374 168.934 470.295 169.247L469.67 169.09C469.748 168.856 469.826 168.621 469.905 168.465C470.061 168.309 470.139 168.074 470.374 167.996C470.53 167.84 470.765 167.761 470.921 167.683C471.077 167.605 471.39 167.527 471.624 167.527C471.859 167.527 472.093 167.527 472.328 167.605C472.563 167.683 472.797 167.761 472.953 167.918C473.11 168.074 473.266 168.23 473.344 168.465C473.422 168.699 473.501 168.934 473.501 169.247C473.501 169.481 473.501 169.638 473.422 169.794C473.344 169.95 473.266 170.107 473.188 170.263C473.11 170.419 472.953 170.576 472.875 170.732C472.797 170.888 472.641 171.045 472.484 171.123L470.139 173.39H473.501V174.093V174.093Z" fill="#333333"/>
<path d="M477.488 174.093H476.862V168.465L475.69 169.481L475.299 169.012L476.94 167.683H477.488V174.093V174.093Z" fill="#333333"/>
<path d="M481.318 170.341C481.318 170.497 481.24 170.576 481.162 170.654C481.084 170.732 480.927 170.81 480.771 170.81C480.615 170.81 480.536 170.732 480.38 170.654C480.302 170.576 480.224 170.419 480.224 170.341C480.224 170.185 480.302 170.107 480.38 170.028C480.458 169.95 480.615 169.872 480.771 169.872C480.927 169.872 481.005 169.95 481.162 170.028C481.24 170.107 481.318 170.185 481.318 170.341ZM481.318 173.703C481.318 173.859 481.24 173.937 481.162 174.015C481.084 174.093 480.927 174.172 480.771 174.172C480.615 174.172 480.536 174.093 480.38 174.015C480.302 173.937 480.224 173.781 480.224 173.703C480.224 173.624 480.302 173.468 480.38 173.39C480.458 173.312 480.615 173.234 480.771 173.234C480.927 173.234 481.005 173.312 481.162 173.39C481.24 173.468 481.318 173.546 481.318 173.703Z" fill="#333333"/>
<path d="M484.836 167.527C485.227 167.527 485.54 167.605 485.853 167.84C486.087 168.074 486.322 168.309 486.478 168.621C486.634 168.934 486.791 169.325 486.791 169.716C486.869 170.107 486.869 170.497 486.869 170.967C486.869 171.357 486.869 171.826 486.791 172.217C486.712 172.608 486.634 172.999 486.478 173.312C486.322 173.624 486.087 173.859 485.853 174.093C485.618 174.25 485.227 174.406 484.836 174.406C484.445 174.406 484.133 174.328 483.82 174.093C483.585 173.937 483.351 173.624 483.195 173.312C483.038 172.999 482.882 172.608 482.882 172.217C482.882 171.826 482.804 171.436 482.804 170.967C482.804 170.576 482.804 170.107 482.882 169.716C482.96 169.325 483.038 168.934 483.195 168.621C483.351 168.309 483.585 168.074 483.82 167.84C484.055 167.683 484.367 167.527 484.836 167.527ZM484.836 168.074C484.524 168.074 484.289 168.152 484.133 168.309C483.976 168.465 483.82 168.699 483.664 169.012C483.507 169.325 483.507 169.559 483.429 169.95C483.351 170.263 483.351 170.576 483.351 170.967C483.351 171.279 483.351 171.592 483.429 171.983C483.507 172.295 483.585 172.608 483.664 172.921C483.742 173.234 483.898 173.39 484.133 173.546C484.289 173.703 484.524 173.781 484.836 173.781C485.149 173.781 485.383 173.703 485.54 173.546C485.696 173.39 485.853 173.155 486.009 172.921C486.165 172.686 486.165 172.374 486.243 171.983C486.322 171.67 486.322 171.357 486.322 170.967C486.322 170.654 486.322 170.341 486.243 169.95C486.165 169.638 486.087 169.325 486.009 169.012C485.931 168.699 485.774 168.543 485.54 168.309C485.305 168.152 485.071 168.074 484.836 168.074Z" fill="#333333"/>
<path d="M489.292 170.497C489.37 170.419 489.526 170.419 489.683 170.341C489.839 170.263 489.995 170.263 490.152 170.263C490.465 170.263 490.699 170.341 490.934 170.419C491.168 170.497 491.403 170.654 491.559 170.81C491.715 170.966 491.872 171.201 491.95 171.435C492.028 171.67 492.106 171.983 492.106 172.217C492.106 172.53 492.028 172.764 491.95 173.077C491.872 173.312 491.715 173.546 491.481 173.703C491.324 173.859 491.09 174.015 490.855 174.093C490.621 174.172 490.308 174.25 489.995 174.25C489.683 174.25 489.448 174.172 489.136 174.093C488.901 174.015 488.667 173.859 488.51 173.703C488.354 173.546 488.197 173.312 488.041 173.077C487.963 172.843 487.885 172.53 487.885 172.217C487.885 171.905 487.963 171.592 488.041 171.279C488.119 170.966 488.276 170.732 488.432 170.497L490.152 167.683H490.934L489.292 170.497ZM488.667 172.295C488.667 172.53 488.667 172.686 488.745 172.843C488.823 172.999 488.901 173.155 489.057 173.312C489.214 173.468 489.37 173.546 489.526 173.624C489.683 173.703 489.917 173.703 490.074 173.703C490.308 173.703 490.465 173.703 490.621 173.624C490.777 173.546 490.934 173.468 491.09 173.312C491.246 173.155 491.324 172.999 491.403 172.843C491.481 172.686 491.481 172.452 491.481 172.295C491.481 172.061 491.481 171.905 491.403 171.748C491.324 171.592 491.246 171.435 491.09 171.279C490.934 171.123 490.777 171.045 490.621 170.966C490.465 170.888 490.23 170.888 489.995 170.888C489.761 170.888 489.605 170.888 489.37 170.966C489.214 171.045 489.057 171.123 488.901 171.279C488.745 171.435 488.667 171.592 488.588 171.748C488.667 171.905 488.667 172.061 488.667 172.295Z" fill="#333333"/>
</g>
<g opacity="0.7">
<path d="M403.926 170.263L405.645 167.683H406.427L404.316 170.732L406.662 174.093H405.88L403.926 171.201L401.971 174.093H401.189L403.535 170.732L401.424 167.683H402.206L403.926 170.263Z" fill="#333333"/>
<path d="M409.867 170.263L411.587 167.683H412.369L410.258 170.732L412.603 174.093H411.821L409.867 171.201L407.913 174.093H407.131L409.476 170.732L407.365 167.683H408.147L409.867 170.263Z" fill="#333333"/>
<path d="M415.73 170.263L417.45 167.683H418.232L416.121 170.732L418.466 174.093H417.685L415.73 171.201L413.776 174.093H412.994L415.339 170.732L413.229 167.683H414.01L415.73 170.263Z" fill="#333333"/>
</g>
<path d="M421.593 170.263L423.312 167.683H424.094L421.983 170.732L424.329 174.093H423.547L421.593 171.201L419.638 174.093H418.856L421.202 170.732L419.091 167.683H419.873L421.593 170.263Z" fill="#333333"/>
<path d="M427.221 174.25L426.674 174.093L429.41 167.527L429.957 167.683L427.221 174.25Z" fill="#333333"/>
<path d="M435.117 170.263L436.837 167.683H437.619L435.508 170.732L437.853 174.093H437.071L435.117 171.201L433.163 174.093H432.381L434.726 170.732L432.615 167.683H433.397L435.117 170.263Z" fill="#333333"/>
<path d="M441.058 170.263L442.778 167.683H443.56L441.449 170.732L443.794 174.093H443.013L441.058 171.201L439.104 174.093H438.322L440.667 170.732L438.557 167.683H439.339L441.058 170.263Z" fill="#333333"/>
<path d="M446.687 174.25L446.14 174.093L448.876 167.527L449.423 167.683L446.687 174.25Z" fill="#333333"/>
<path d="M454.583 170.263L456.303 167.683H457.084L454.974 170.732L457.319 174.093H456.537L454.583 171.201L452.628 174.093H451.847L454.192 170.732L452.081 167.683H452.863L454.583 170.263Z" fill="#333333"/>
<path d="M460.445 170.263L462.165 167.683H462.947L460.836 170.732L463.181 174.093H462.399L460.445 171.201L458.491 174.093H457.709L460.054 170.732L457.943 167.683H458.725L460.445 170.263Z" fill="#333333"/>
<path opacity="0.5" d="M494.452 182.458H319.498V182.771H494.452V182.458Z" fill="#606060"/>
<g opacity="0.7">
<path d="M320.514 195.748H325.048V196.373H322.624C322.546 196.842 322.39 197.311 322.234 197.702H324.266H324.422L324.813 197.858C324.344 200.985 322.937 202.705 321.061 203.565C320.983 203.409 320.826 203.096 320.67 203.018C321.53 202.627 322.39 202.002 322.937 201.142C322.546 200.751 321.843 200.204 321.296 199.813C321.139 200.047 320.983 200.282 320.826 200.438C320.748 200.282 320.514 200.047 320.357 199.891C321.061 199.031 321.608 197.78 321.921 196.373H320.514V195.748ZM322.077 198.406C321.999 198.718 321.843 199.031 321.686 199.265C322.234 199.656 322.937 200.204 323.406 200.594C323.719 199.969 324.032 199.265 324.188 198.406H322.077ZM326.455 201.298H325.83V196.295H326.455V201.298ZM328.331 195.279V202.627C328.331 203.018 328.175 203.252 327.94 203.33C327.706 203.487 327.237 203.487 326.533 203.487C326.533 203.33 326.377 203.018 326.299 202.861C326.768 202.861 327.237 202.861 327.393 202.861C327.549 202.861 327.628 202.783 327.628 202.627V195.279H328.331V195.279Z" fill="#333333"/>
<path d="M330.676 201.533C331.458 201.298 332.396 201.064 333.256 200.751L333.334 201.376C332.084 201.767 330.755 202.236 329.738 202.549L329.582 201.923C329.738 201.923 329.817 201.845 329.973 201.767V196.373C330.911 196.139 332.005 195.826 332.631 195.513L333.178 196.06C332.474 196.373 331.536 196.608 330.676 196.842V198.562H333.178V199.187H330.676V201.533ZM337.321 201.22C337.321 201.611 337.243 201.845 336.93 202.002C336.618 202.158 336.149 202.158 335.523 202.158C335.523 202.002 335.367 201.611 335.289 201.454C335.836 201.454 336.305 201.454 336.461 201.454C336.618 201.454 336.618 201.376 336.618 201.298V196.608H334.351V203.565H333.803V195.982H337.399V201.22H337.321Z" fill="#333333"/>
<path d="M338.572 196.764H342.012V197.311H338.572V196.764ZM338.963 197.937H341.699V198.484H338.963V197.937ZM338.963 199.187H341.699V199.735H338.963V199.187ZM341.699 202.94H339.589V203.331H339.041V200.282H341.777V202.94H341.699ZM339.51 200.907V202.392H341.074V200.907H339.51ZM340.214 196.686C340.058 196.373 339.823 195.826 339.51 195.435L340.058 195.2C340.292 195.591 340.605 196.06 340.761 196.373L340.214 196.686ZM346.781 196.686H345.373V202.549C345.373 203.018 345.295 203.252 344.904 203.331C344.592 203.487 344.044 203.487 343.106 203.487C343.106 203.331 342.95 203.018 342.872 202.783C343.575 202.783 344.201 202.783 344.435 202.783C344.592 202.783 344.67 202.705 344.67 202.549V196.686H342.168V196.06H346.781V196.686V196.686Z" fill="#333333"/>
<path d="M355.693 202.236H352.018V203.487H351.315V202.236H347.719V201.689H351.315V200.985H348.579V197.858H354.833V200.985H352.018V201.689H355.693V202.236ZM351.315 197.389H348.344V195.669H351.315V197.389ZM350.689 196.06H348.97V196.92H350.689V196.06ZM349.282 199.109H351.315V198.327H349.282V199.109ZM351.315 200.438V199.656H349.282V200.438H351.315ZM354.129 198.327H351.94V199.109H354.129V198.327ZM354.129 199.656H351.94V200.438H354.129V199.656ZM355.067 197.389H352.097V195.669H355.067V197.389ZM354.442 196.06H352.722V196.92H354.442V196.06Z" fill="#333333"/>
</g>
<g opacity="0.7">
<path d="M473.501 202.862H469.436V202.158L472.093 199.5C472.172 199.422 472.25 199.266 472.406 199.187C472.484 199.109 472.562 198.953 472.641 198.875C472.719 198.718 472.797 198.64 472.797 198.484C472.797 198.327 472.875 198.171 472.875 198.093C472.875 197.937 472.875 197.702 472.797 197.624C472.719 197.468 472.641 197.311 472.484 197.233C472.328 197.155 472.25 197.077 472.093 196.998C471.937 196.92 471.781 196.92 471.624 196.92C471.312 196.92 470.999 196.998 470.765 197.233C470.53 197.468 470.374 197.702 470.295 198.015L469.67 197.858C469.748 197.624 469.826 197.389 469.905 197.233C470.061 197.077 470.139 196.842 470.374 196.764C470.53 196.608 470.765 196.529 470.921 196.451C471.077 196.373 471.39 196.295 471.624 196.295C471.859 196.295 472.093 196.295 472.328 196.373C472.563 196.451 472.797 196.529 472.953 196.686C473.11 196.842 473.266 196.998 473.344 197.233C473.422 197.468 473.501 197.702 473.501 198.015C473.501 198.249 473.501 198.406 473.422 198.562C473.344 198.718 473.266 198.875 473.188 199.031C473.11 199.187 472.953 199.344 472.875 199.5C472.797 199.656 472.641 199.813 472.484 199.891L470.139 202.158H473.501V202.862V202.862Z" fill="#333333"/>
<path d="M477.488 202.862H476.862V197.233L475.69 198.249L475.299 197.78L476.94 196.451H477.488V202.862V202.862Z" fill="#333333"/>
<path d="M481.318 199.031C481.318 199.187 481.24 199.266 481.162 199.344C481.084 199.422 480.927 199.5 480.771 199.5C480.615 199.5 480.536 199.422 480.38 199.344C480.302 199.266 480.224 199.109 480.224 199.031C480.224 198.875 480.302 198.797 480.38 198.718C480.458 198.64 480.615 198.562 480.771 198.562C480.927 198.562 481.005 198.64 481.162 198.718C481.24 198.797 481.318 198.875 481.318 199.031ZM481.318 202.393C481.318 202.549 481.24 202.627 481.162 202.705C481.084 202.783 480.927 202.862 480.771 202.862C480.615 202.862 480.536 202.783 480.38 202.705C480.302 202.627 480.224 202.471 480.224 202.393C480.224 202.314 480.302 202.158 480.38 202.08C480.458 202.002 480.615 201.923 480.771 201.923C480.927 201.923 481.005 202.002 481.162 202.08C481.24 202.158 481.318 202.236 481.318 202.393Z" fill="#333333"/>
<path d="M484.836 196.217C485.227 196.217 485.54 196.295 485.853 196.529C486.087 196.764 486.322 196.999 486.478 197.311C486.634 197.624 486.791 198.015 486.791 198.406C486.869 198.797 486.869 199.187 486.869 199.656C486.869 200.047 486.869 200.516 486.791 200.907C486.712 201.298 486.634 201.689 486.478 202.002C486.322 202.314 486.087 202.549 485.853 202.783C485.618 202.94 485.227 203.096 484.836 203.096C484.445 203.096 484.133 203.018 483.82 202.783C483.585 202.627 483.351 202.314 483.195 202.002C483.038 201.689 482.882 201.298 482.882 200.907C482.882 200.516 482.804 200.125 482.804 199.656C482.804 199.266 482.804 198.797 482.882 198.406C482.96 198.015 483.038 197.624 483.195 197.311C483.351 196.999 483.585 196.764 483.82 196.529C484.055 196.373 484.367 196.217 484.836 196.217ZM484.836 196.842C484.524 196.842 484.289 196.92 484.133 197.077C483.976 197.233 483.82 197.468 483.664 197.78C483.507 198.093 483.507 198.327 483.429 198.718C483.351 199.031 483.351 199.344 483.351 199.735C483.351 200.047 483.351 200.36 483.429 200.751C483.507 201.064 483.585 201.376 483.664 201.689C483.742 202.002 483.898 202.158 484.133 202.314C484.289 202.471 484.524 202.549 484.836 202.549C485.149 202.549 485.383 202.471 485.54 202.314C485.696 202.158 485.853 201.924 486.009 201.689C486.165 201.454 486.165 201.142 486.243 200.751C486.322 200.438 486.322 200.125 486.322 199.735C486.322 199.422 486.322 199.109 486.243 198.718C486.165 198.406 486.087 198.093 486.009 197.78C485.931 197.468 485.774 197.311 485.54 197.077C485.305 196.92 485.071 196.842 484.836 196.842Z" fill="#333333"/>
<path d="M491.95 196.998L489.37 202.783H488.666L491.324 196.92H488.197V196.373H492.028V196.998H491.95Z" fill="#333333"/>
</g>
<g opacity="0.7">
<path d="M403.926 199.031L405.645 196.451H406.427L404.316 199.5L406.662 202.861H405.88L403.926 199.969L401.971 202.861H401.189L403.535 199.5L401.424 196.451H402.206L403.926 199.031Z" fill="#333333"/>
<path d="M409.867 199.031L411.587 196.451H412.369L410.258 199.5L412.603 202.861H411.821L409.867 199.969L407.913 202.861H407.131L409.476 199.5L407.365 196.451H408.147L409.867 199.031Z" fill="#333333"/>
<path d="M415.73 199.031L417.45 196.451H418.232L416.121 199.5L418.466 202.861H417.685L415.73 199.969L413.776 202.861H412.994L415.339 199.5L413.229 196.451H414.01L415.73 199.031Z" fill="#333333"/>
</g>
<path d="M421.593 199.031L423.312 196.451H424.094L421.983 199.5L424.329 202.861H423.547L421.593 199.969L419.638 202.861H418.856L421.202 199.5L419.091 196.451H419.873L421.593 199.031Z" fill="#333333"/>
<path d="M427.221 203.018L426.674 202.862L429.41 196.295L429.957 196.451L427.221 203.018Z" fill="#333333"/>
<path d="M435.117 199.031L436.837 196.451H437.619L435.508 199.5L437.853 202.861H437.071L435.117 199.969L433.163 202.861H432.381L434.726 199.5L432.615 196.451H433.397L435.117 199.031Z" fill="#333333"/>
<path d="M441.058 199.031L442.778 196.451H443.56L441.449 199.5L443.794 202.861H443.013L441.058 199.969L439.104 202.861H438.322L440.667 199.5L438.557 196.451H439.339L441.058 199.031Z" fill="#333333"/>
<path d="M446.687 203.018L446.14 202.862L448.876 196.295L449.423 196.451L446.687 203.018Z" fill="#333333"/>
<path d="M454.583 199.031L456.303 196.451H457.084L454.974 199.5L457.319 202.861H456.537L454.583 199.969L452.628 202.861H451.847L454.192 199.5L452.081 196.451H452.863L454.583 199.031Z" fill="#333333"/>
<path d="M460.445 199.031L462.165 196.451H462.947L460.836 199.5L463.181 202.861H462.399L460.445 199.969L458.491 202.861H457.709L460.054 199.5L457.943 196.451H458.725L460.445 199.031Z" fill="#333333"/>
<path opacity="0.5" d="M494.452 211.148H319.498V211.461H494.452V211.148Z" fill="#606060"/>
<g opacity="0.7">
<path d="M324.813 224.203C325.673 225.454 327.237 226.705 328.644 227.252C328.488 227.408 328.253 227.643 328.175 227.877C326.768 227.252 325.361 226.079 324.423 224.829C323.484 226.001 321.921 227.252 320.67 227.955C320.592 227.799 320.436 227.565 320.279 227.408C321.374 226.861 322.781 225.845 323.641 224.829H322.077V224.203H324.813ZM324.813 231.317H328.331V231.942H320.67V231.317H324.11V229.832H321.608V229.206H324.11V227.799H321.999V227.174H327.08V227.799H324.892V229.206H327.471V229.832H324.892V231.317H324.813Z" fill="#333333"/>
<path d="M336.696 227.643C336.305 227.955 335.758 228.346 335.289 228.659C335.68 229.832 336.54 230.848 337.712 231.317C337.556 231.473 337.399 231.708 337.243 231.864C336.071 231.317 335.211 230.301 334.742 228.972C334.585 229.05 334.429 229.128 334.351 229.206C334.663 230.379 334.429 231.473 333.96 231.864C333.647 232.099 333.413 232.177 333.022 232.177C332.787 232.177 332.553 232.177 332.24 232.177C332.24 232.02 332.162 231.708 332.084 231.551C332.396 231.551 332.709 231.63 332.865 231.63C333.1 231.63 333.256 231.63 333.413 231.473C333.647 231.239 333.882 230.613 333.803 229.91C332.787 230.692 331.224 231.473 329.895 231.864C329.817 231.708 329.66 231.473 329.504 231.317C330.989 231.004 332.709 230.144 333.647 229.284C333.569 229.05 333.491 228.894 333.413 228.659C332.553 229.284 331.146 229.91 330.051 230.222C329.973 230.066 329.817 229.832 329.738 229.675C330.833 229.441 332.396 228.737 333.178 228.19C333.022 228.034 332.944 227.799 332.709 227.643C331.927 228.112 330.989 228.424 330.129 228.737C330.051 228.581 329.895 228.346 329.738 228.19C330.911 227.955 332.084 227.486 332.944 226.861H330.911V226.236H336.149V226.861H333.882C333.647 227.017 333.491 227.174 333.256 227.33C333.647 227.721 333.96 228.19 334.194 228.737C334.898 228.268 335.68 227.721 336.149 227.252L336.696 227.643ZM330.442 226.626H329.817V224.75H333.178C333.1 224.516 332.944 224.281 332.865 224.125L333.569 223.89C333.725 224.125 333.882 224.516 334.038 224.75H337.399V226.626H336.696V225.376H330.52V226.626H330.442Z" fill="#333333"/>
<path d="M343.263 224.203C343.185 224.281 343.185 224.359 343.106 224.359C343.966 225.219 345.373 226.079 346.781 226.392C346.624 226.548 346.468 226.783 346.312 226.939C345.53 226.705 344.748 226.314 343.966 225.767V226.236H341.23V225.923C340.527 226.392 339.667 226.783 338.885 227.017C338.807 226.861 338.65 226.627 338.494 226.47C340.136 226.001 341.856 225.063 342.716 223.812L343.263 224.203ZM340.527 229.363C340.37 230.301 339.979 231.395 339.041 232.099C338.963 231.942 338.65 231.708 338.494 231.63C339.745 230.613 339.901 229.128 339.901 228.112V226.861H345.139V229.363H340.527V229.363ZM340.605 229.753H345.452V232.177H344.748V231.942H341.23V232.177H340.605V229.753ZM344.514 228.815V228.268H340.605C340.605 228.425 340.605 228.659 340.605 228.815H344.514ZM340.683 227.33V227.877H344.592V227.33H340.683ZM341.23 230.301V231.395H344.748V230.301H341.23ZM343.966 225.845C343.497 225.532 343.106 225.141 342.794 224.829C342.403 225.219 342.012 225.532 341.543 225.845H343.966Z" fill="#333333"/>
<path d="M348.891 225.297V227.565C348.891 228.972 348.734 230.926 348.031 232.255C347.874 232.099 347.64 231.942 347.483 231.864C348.187 230.613 348.265 228.815 348.265 227.565V224.75H351.783C351.705 224.516 351.548 224.359 351.392 224.125L352.017 223.969C352.174 224.203 352.408 224.516 352.487 224.75H355.692V225.376H348.891V225.297ZM355.77 231.161H352.643V232.177H352.017V231.161H349.047V230.613H352.017V229.988H349.75V227.252H352.017V226.626H349.438V226.079H352.017V225.532H352.643V226.079H355.535V226.626H352.643V227.252H354.988V229.988H352.643V230.613H355.77V231.161ZM350.298 228.346H351.939V227.643H350.298V228.346ZM352.017 229.519V228.815H350.376V229.519H352.017ZM352.643 227.643V228.346H354.363V227.643H352.643ZM354.363 228.815H352.643V229.519H354.363V228.815Z" fill="#333333"/>
<path d="M356.552 231.473C356.708 230.926 356.864 230.066 356.943 229.519L357.333 229.675C357.255 230.301 357.099 231.161 356.943 231.708L356.552 231.473ZM360.07 228.737C359.991 230.926 359.913 231.708 359.757 231.942C359.601 232.099 359.522 232.177 359.288 232.177C359.132 232.177 358.819 232.177 358.584 232.177C358.584 232.02 358.506 231.786 358.428 231.63C358.662 231.63 358.975 231.63 359.053 231.63C359.131 231.63 359.21 231.63 359.288 231.551C359.444 231.395 359.444 230.77 359.522 228.972H357.021V224.281H360.07V224.828H358.975V225.688H359.913V226.236H358.975V227.017H359.913V227.565H358.975V228.424H360.148V228.737H360.07ZM357.803 229.597C357.881 230.066 357.959 230.77 357.959 231.239H357.568C357.568 230.77 357.49 230.144 357.49 229.597H357.803ZM357.568 224.907V225.767H358.35V224.907H357.568ZM358.35 226.314H357.568V227.096H358.35V226.314ZM357.568 228.503H358.35V227.643H357.568V228.503ZM358.35 229.519C358.506 229.988 358.662 230.613 358.741 231.004L358.428 231.082C358.35 230.692 358.193 230.066 358.115 229.597L358.35 229.519ZM359.053 230.613C358.975 230.301 358.741 229.832 358.506 229.441L358.819 229.363C358.975 229.753 359.21 230.222 359.366 230.535L359.053 230.613ZM361.086 226.079C360.851 226.236 360.539 226.47 360.304 226.626C360.226 226.47 359.991 226.314 359.835 226.236C360.851 225.61 361.789 224.75 362.258 223.89L362.884 224.047C362.806 224.125 362.806 224.281 362.728 224.359C363.275 224.985 364.135 225.61 364.916 226.001C364.838 226.157 364.682 226.392 364.604 226.548C364.369 226.392 364.056 226.236 363.744 226.001V226.47H361.086V226.079V226.079ZM361.633 229.675C361.555 229.91 361.477 230.144 361.399 230.379C361.789 230.613 362.18 230.926 362.415 231.161L362.024 231.63C361.868 231.395 361.477 231.161 361.164 230.926C360.929 231.473 360.617 231.864 360.226 232.255C360.148 232.177 359.913 231.942 359.757 231.864C360.382 231.317 360.773 230.535 360.93 229.597L361.633 229.675ZM360.382 227.252H362.18V229.363H360.382V227.252ZM360.851 228.815H361.633V227.643H360.851V228.815ZM363.744 226.001C363.275 225.61 362.806 225.219 362.415 224.828C362.102 225.219 361.711 225.688 361.242 226.001H363.744ZM363.9 229.675C363.822 229.988 363.744 230.379 363.666 230.692C364.135 231.004 364.604 231.395 364.838 231.63L364.447 232.099C364.213 231.864 363.822 231.473 363.431 231.161C363.197 231.551 362.962 231.942 362.649 232.255C362.571 232.177 362.258 231.942 362.18 231.864C362.806 231.317 363.197 230.535 363.353 229.597L363.9 229.675ZM362.649 227.252H364.525V229.363H362.649V227.252ZM363.118 228.815H363.978V227.643H363.118V228.815Z" fill="#333333"/>
<path d="M368.2 224.047H368.825V232.177H368.2V229.675C366.558 230.301 366.324 230.379 366.089 230.535C366.011 230.379 365.933 230.066 365.854 229.91C366.011 229.832 366.167 229.675 366.167 229.284V224.828H366.793V229.441L368.2 228.972V224.047ZM373.203 226.314C372.968 227.721 372.577 228.894 372.03 229.91C372.577 230.692 373.203 231.239 373.985 231.63C373.828 231.786 373.594 232.02 373.516 232.177C372.734 231.786 372.187 231.161 371.639 230.457C371.092 231.161 370.389 231.786 369.529 232.177C369.451 232.02 369.216 231.786 369.06 231.63C369.998 231.161 370.701 230.613 371.17 229.832C370.701 229.05 370.389 228.19 370.076 227.252C369.841 227.721 369.607 228.112 369.372 228.424C369.294 228.268 369.06 227.955 368.903 227.877C369.685 226.939 370.154 225.454 370.389 223.89L371.092 224.047C371.014 224.594 370.858 225.141 370.701 225.688H373.828V226.314H373.203ZM370.545 226.47C370.779 227.486 371.17 228.424 371.639 229.284C372.108 228.503 372.343 227.486 372.577 226.314H370.545V226.47Z" fill="#333333"/>
</g>
<g opacity="0.7">
<path d="M473.501 231.551H469.436V230.848L472.093 228.19C472.172 228.112 472.25 227.955 472.406 227.877C472.484 227.799 472.562 227.643 472.641 227.564C472.719 227.408 472.797 227.33 472.797 227.174C472.797 227.017 472.875 226.861 472.875 226.783C472.875 226.626 472.875 226.392 472.797 226.314C472.719 226.157 472.641 226.001 472.484 225.923C472.328 225.845 472.25 225.766 472.093 225.688C471.937 225.61 471.781 225.61 471.624 225.61C471.312 225.61 470.999 225.688 470.765 225.923C470.53 226.157 470.374 226.392 470.295 226.704L469.67 226.548C469.748 226.314 469.826 226.079 469.905 225.923C470.061 225.766 470.139 225.532 470.374 225.454C470.53 225.297 470.765 225.219 470.921 225.141C471.077 225.063 471.39 224.985 471.624 224.985C471.859 224.985 472.093 224.985 472.328 225.063C472.563 225.141 472.797 225.219 472.953 225.375C473.11 225.532 473.266 225.688 473.344 225.923C473.422 226.157 473.501 226.392 473.501 226.704C473.501 226.939 473.501 227.095 473.422 227.252C473.344 227.408 473.266 227.564 473.188 227.721C473.11 227.877 472.953 228.033 472.875 228.19C472.797 228.346 472.641 228.502 472.484 228.581L470.139 230.848H473.501V231.551V231.551Z" fill="#333333"/>
<path d="M478.738 231.551H474.673V230.848L477.331 228.19C477.409 228.112 477.487 227.955 477.643 227.877C477.722 227.799 477.8 227.643 477.878 227.564C477.956 227.408 478.034 227.33 478.034 227.174C478.112 227.017 478.112 226.861 478.112 226.783C478.112 226.626 478.112 226.392 478.034 226.314C477.956 226.157 477.878 226.001 477.722 225.923C477.565 225.845 477.487 225.766 477.331 225.688C477.174 225.61 477.018 225.61 476.862 225.61C476.549 225.61 476.236 225.688 476.002 225.923C475.767 226.157 475.611 226.392 475.533 226.704L474.907 226.548C474.986 226.314 475.064 226.079 475.142 225.923C475.22 225.766 475.376 225.532 475.611 225.454C475.767 225.297 476.002 225.219 476.158 225.141C476.314 225.063 476.627 224.985 476.862 224.985C477.096 224.985 477.331 224.985 477.565 225.063C477.8 225.141 478.034 225.219 478.191 225.375C478.347 225.532 478.503 225.688 478.582 225.923C478.66 226.157 478.738 226.392 478.738 226.704C478.738 226.939 478.738 227.095 478.66 227.252C478.582 227.408 478.503 227.564 478.425 227.721C478.347 227.877 478.191 228.033 478.112 228.19C477.956 228.346 477.878 228.502 477.722 228.581L475.376 230.848H478.738V231.551V231.551Z" fill="#333333"/>
<path d="M481.318 227.721C481.318 227.877 481.24 227.955 481.162 228.033C481.084 228.112 480.927 228.19 480.771 228.19C480.615 228.19 480.536 228.112 480.38 228.033C480.302 227.955 480.224 227.799 480.224 227.721C480.224 227.564 480.302 227.486 480.38 227.408C480.458 227.33 480.615 227.252 480.771 227.252C480.927 227.252 481.005 227.33 481.162 227.408C481.24 227.486 481.318 227.564 481.318 227.721ZM481.318 231.082C481.318 231.239 481.24 231.317 481.162 231.395C481.084 231.473 480.927 231.551 480.771 231.551C480.615 231.551 480.536 231.473 480.38 231.395C480.302 231.317 480.224 231.16 480.224 231.082C480.224 231.004 480.302 230.848 480.38 230.77C480.458 230.691 480.615 230.613 480.771 230.613C480.927 230.613 481.005 230.691 481.162 230.77C481.24 230.848 481.318 231.004 481.318 231.082Z" fill="#333333"/>
<path d="M484.133 227.877H484.445C484.68 227.877 484.836 227.877 484.993 227.799C485.149 227.721 485.305 227.721 485.462 227.564C485.618 227.408 485.696 227.33 485.774 227.174C485.853 227.017 485.931 226.861 485.931 226.626C485.931 226.47 485.931 226.314 485.853 226.157C485.774 226.001 485.696 225.845 485.54 225.766C485.383 225.688 485.305 225.61 485.149 225.532C484.993 225.454 484.836 225.454 484.68 225.454C484.445 225.454 484.133 225.532 483.976 225.61C483.82 225.688 483.585 225.923 483.507 226.157L482.96 225.845C483.195 225.532 483.429 225.219 483.742 225.063C484.055 224.907 484.367 224.828 484.758 224.828C484.993 224.828 485.227 224.828 485.462 224.907C485.696 224.985 485.853 225.063 486.087 225.219C486.322 225.376 486.4 225.532 486.478 225.766C486.556 226.001 486.634 226.236 486.634 226.47C486.634 226.861 486.556 227.174 486.322 227.408C486.087 227.643 485.852 227.799 485.54 227.955C485.931 228.034 486.243 228.19 486.478 228.503C486.712 228.815 486.869 229.128 486.869 229.597C486.869 229.91 486.791 230.144 486.712 230.379C486.634 230.613 486.478 230.848 486.243 231.004C486.087 231.16 485.853 231.317 485.618 231.395C485.383 231.473 485.071 231.551 484.836 231.551C484.367 231.551 483.976 231.473 483.585 231.239C483.273 231.004 482.96 230.691 482.804 230.301L483.429 230.066C483.507 230.379 483.742 230.613 483.976 230.77C484.211 230.926 484.524 231.004 484.836 231.004C484.993 231.004 485.227 231.004 485.383 230.926C485.54 230.848 485.696 230.77 485.853 230.691C486.009 230.613 486.087 230.457 486.165 230.222C486.243 230.066 486.322 229.831 486.322 229.675C486.322 229.441 486.243 229.206 486.165 229.05C486.087 228.893 485.931 228.737 485.774 228.659C485.618 228.581 485.462 228.503 485.227 228.424C484.993 228.346 484.836 228.346 484.602 228.346H484.289V227.877H484.133Z" fill="#333333"/>
<path d="M490.074 224.985C490.464 224.985 490.777 225.063 491.09 225.297C491.324 225.532 491.559 225.766 491.715 226.079C491.872 226.392 492.028 226.783 492.028 227.174C492.106 227.564 492.106 227.955 492.106 228.424C492.106 228.815 492.106 229.284 492.028 229.675C491.95 230.066 491.872 230.457 491.715 230.77C491.559 231.082 491.324 231.317 491.09 231.551C490.855 231.786 490.464 231.864 490.074 231.864C489.683 231.864 489.37 231.786 489.057 231.551C488.745 231.317 488.588 231.082 488.432 230.77C488.276 230.457 488.119 230.066 488.119 229.675C488.119 229.284 488.041 228.893 488.041 228.424C488.041 228.033 488.041 227.564 488.119 227.174C488.197 226.783 488.276 226.392 488.432 226.079C488.588 225.766 488.823 225.532 489.057 225.297C489.292 225.063 489.683 224.985 490.074 224.985ZM490.074 225.532C489.761 225.532 489.526 225.61 489.37 225.766C489.214 225.923 489.057 226.157 488.901 226.47C488.823 226.704 488.745 227.017 488.666 227.408C488.588 227.799 488.588 228.033 488.588 228.424C488.588 228.737 488.588 229.05 488.666 229.441C488.745 229.753 488.823 230.066 488.901 230.379C488.979 230.613 489.135 230.848 489.37 231.004C489.526 231.16 489.761 231.239 490.074 231.239C490.386 231.239 490.621 231.16 490.777 231.004C490.933 230.848 491.09 230.613 491.246 230.379C491.324 230.144 491.403 229.831 491.481 229.441C491.559 229.128 491.559 228.815 491.559 228.424C491.559 228.112 491.559 227.799 491.481 227.408C491.403 227.095 491.324 226.783 491.246 226.47C491.168 226.235 491.012 226.001 490.777 225.766C490.543 225.61 490.308 225.532 490.074 225.532Z" fill="#333333"/>
</g>
<g opacity="0.7">
<path d="M403.926 227.721L405.645 225.141H406.427L404.316 228.19L406.662 231.551H405.88L403.926 228.659L401.971 231.551H401.189L403.535 228.19L401.424 225.141H402.206L403.926 227.721Z" fill="#333333"/>
<path d="M409.867 227.721L411.587 225.141H412.369L410.258 228.19L412.603 231.551H411.821L409.867 228.659L407.913 231.551H407.131L409.476 228.19L407.287 225.141H408.069L409.867 227.721Z" fill="#333333"/>
<path d="M415.73 227.721L417.45 225.141H418.232L416.121 228.19L418.466 231.551H417.685L415.73 228.659L413.776 231.551H412.994L415.339 228.19L413.229 225.141H414.01L415.73 227.721Z" fill="#333333"/>
</g>
<path d="M421.593 227.721L423.312 225.141H424.094L421.983 228.19L424.329 231.551H423.547L421.593 228.659L419.638 231.551H418.856L421.202 228.19L419.013 225.141H419.795L421.593 227.721Z" fill="#333333"/>
<path d="M427.221 231.708L426.674 231.552L429.41 224.985L429.957 225.141L427.221 231.708Z" fill="#333333"/>
<path d="M435.117 227.721L436.837 225.141H437.619L435.508 228.19L437.853 231.551H437.071L435.117 228.659L433.163 231.551H432.381L434.726 228.19L432.615 225.141H433.397L435.117 227.721Z" fill="#333333"/>
<path d="M441.058 227.721L442.778 225.141H443.56L441.449 228.19L443.794 231.551H443.013L441.058 228.659L439.104 231.551H438.322L440.667 228.19L438.557 225.141H439.339L441.058 227.721Z" fill="#333333"/>
<path d="M446.687 231.708L446.14 231.552L448.876 224.985L449.423 225.141L446.687 231.708Z" fill="#333333"/>
<path d="M454.583 227.721L456.303 225.141H457.084L454.974 228.19L457.319 231.551H456.537L454.583 228.659L452.628 231.551H451.847L454.192 228.19L452.081 225.141H452.863L454.583 227.721Z" fill="#333333"/>
<path d="M460.445 227.721L462.165 225.141H462.947L460.836 228.19L463.181 231.551H462.399L460.445 228.659L458.491 231.551H457.709L460.054 228.19L457.943 225.141H458.725L460.445 227.721Z" fill="#333333"/>
<path opacity="0.5" d="M494.452 239.838H319.498V240.151H494.452V239.838Z" fill="#606060"/>
<g opacity="0.7">
<path d="M326.612 260.007C327.628 260.007 327.706 259.694 327.863 258.287C328.019 258.443 328.332 258.522 328.566 258.522C328.41 260.163 328.097 260.632 326.612 260.632H323.25C321.765 260.632 321.374 260.398 321.374 259.225V254.691H322.078V256.176H326.846V253.831H320.983V253.206H327.55V257.349H326.846V256.88H322.078V259.303C322.078 259.851 322.312 260.007 323.25 260.007H326.612V260.007Z" fill="#333333"/>
<path d="M332.319 259.381C332.944 259.225 333.57 259.147 334.195 258.99L334.273 259.616C332.632 259.929 330.99 260.241 329.739 260.476L329.583 259.85C330.13 259.772 330.834 259.616 331.694 259.46V257.974H329.896V257.349H331.694V256.411H332.319V257.427H334.117V258.052H332.319V259.381ZM329.661 253.206H334.273V253.831H331.85C331.537 254.456 331.146 255.004 330.834 255.551L333.179 255.316C332.944 255.004 332.71 254.691 332.475 254.456L332.944 254.144C333.414 254.769 334.039 255.551 334.352 256.098L333.804 256.411C333.726 256.254 333.648 256.02 333.492 255.864C330.677 256.098 330.365 256.176 330.13 256.254C330.13 256.098 329.974 255.785 329.896 255.629C330.052 255.629 330.208 255.473 330.365 255.238C330.521 255.082 330.834 254.456 331.146 253.831H329.739V253.206H329.661ZM335.446 258.912H334.821V253.44H335.446V258.912ZM337.244 252.815V259.85C337.244 260.241 337.166 260.476 336.853 260.554C336.54 260.632 336.071 260.71 335.446 260.71C335.446 260.554 335.29 260.241 335.212 260.085C335.759 260.085 336.228 260.085 336.384 260.085C336.54 260.085 336.54 260.007 336.54 259.85V252.737H337.244V252.815Z" fill="#333333"/>
<path d="M340.918 259.772C341.465 260.007 342.168 260.085 343.028 260.085C343.497 260.085 346.234 260.085 346.781 260.085C346.624 260.241 346.546 260.554 346.468 260.789H343.028C341.074 260.789 340.058 260.476 339.354 259.225C339.276 259.929 339.12 260.476 338.807 261.023C338.729 260.945 338.416 260.789 338.26 260.71C338.807 259.772 338.885 258.365 338.885 256.802H339.511C339.511 257.271 339.511 257.662 339.432 258.053C339.589 258.678 339.901 259.069 340.214 259.381V256.02H338.494V255.395H340.136V254.3H338.729V253.675H340.136V252.58H340.761V253.675H342.168V254.3H340.839V255.395H342.403V255.785C343.185 255.316 343.654 254.613 343.732 253.518H342.481V252.971H346.468C346.468 252.971 346.468 253.128 346.468 253.284C346.39 254.926 346.312 255.551 346.077 255.785C345.921 255.942 345.764 256.02 345.53 256.02C345.295 256.02 344.905 256.02 344.514 256.02C344.514 255.864 344.436 255.629 344.357 255.473C344.748 255.473 345.061 255.473 345.217 255.473C345.374 255.473 345.452 255.473 345.452 255.395C345.608 255.238 345.686 254.769 345.686 253.597H344.279C344.123 254.926 343.497 255.785 342.559 256.333C342.481 256.254 342.325 256.098 342.168 256.02H340.761V257.271H342.168V257.896H340.761V259.772H340.918ZM342.794 256.489H346.234V259.303H342.794V256.489ZM343.419 258.756H345.608V257.114H343.419V258.756Z" fill="#333333"/>
<path d="M355.614 253.597V254.144H347.719V253.597H351.471C351.393 253.362 351.237 252.971 351.158 252.737L351.784 252.58C351.94 252.893 352.097 253.284 352.175 253.597H355.614ZM355.145 260.163C355.145 260.554 355.067 260.632 354.754 260.789C354.52 260.867 354.051 260.867 353.269 260.867C353.269 260.71 353.113 260.476 353.035 260.32C353.582 260.32 354.129 260.32 354.285 260.32C354.442 260.32 354.52 260.241 354.52 260.163V256.098H352.722V256.724C352.722 256.958 352.722 256.958 352.878 256.958H353.66C353.816 256.958 354.051 256.958 354.129 256.958C354.129 257.114 354.129 257.271 354.207 257.427C354.129 257.505 353.895 257.505 353.66 257.505H352.722C352.175 257.505 352.097 257.271 352.097 256.724V256.176H351.08C350.924 257.114 350.533 257.583 349.282 257.896C349.204 257.74 349.048 257.505 348.97 257.427C350.064 257.271 350.377 256.88 350.533 256.176H348.97V261.023H348.344V255.629H352.566C352.8 255.238 353.113 254.769 353.191 254.378L353.895 254.535C353.66 254.926 353.425 255.316 353.191 255.629H355.223V260.163H355.145ZM350.22 254.222C350.455 254.535 350.689 255.004 350.768 255.238L350.22 255.473C350.064 255.238 349.829 254.769 349.673 254.456L350.22 254.222ZM350.611 259.772V260.163H349.986V257.662H353.269V259.694H350.611V259.772ZM350.611 258.209V259.225H352.8V258.209H350.611Z" fill="#333333"/>
<path d="M360.305 256.411H357.725V260.945H357.1V253.127H360.305V256.411ZM357.725 253.596V254.378H359.679V253.596H357.725ZM359.679 255.785V254.925H357.725V255.785H359.679ZM364.448 260.007C364.448 260.476 364.292 260.71 364.057 260.789C363.744 260.867 363.197 260.945 362.415 260.945C362.415 260.788 362.259 260.476 362.181 260.241C362.806 260.241 363.432 260.241 363.588 260.241C363.744 260.241 363.823 260.163 363.823 260.007V256.411H361.165V253.127H364.526V260.007H364.448ZM361.79 253.596V254.378H363.823V253.596H361.79ZM363.744 255.785V254.925H361.712V255.785H363.744Z" fill="#333333"/>
<path d="M370.077 254.613V255.864H373.048V259.069C373.048 259.46 372.969 259.694 372.657 259.772C372.344 259.85 371.875 259.929 371.093 259.929C371.093 259.694 370.937 259.46 370.859 259.225C371.484 259.225 372.031 259.225 372.188 259.225C372.344 259.225 372.422 259.147 372.422 259.069V256.567H370.155V260.945H369.452V256.567H367.341V259.929H366.637V255.942H369.452V254.691H365.777V254.066H369.608C369.452 253.675 369.217 253.206 368.982 252.893L369.608 252.658C369.842 253.049 370.155 253.675 370.311 253.987L370.155 254.066H373.751V254.691H370.077V254.613Z" fill="#333333"/>
</g>
<g opacity="0.7">
<path d="M471.546 253.675C471.937 253.675 472.25 253.753 472.562 253.987C472.797 254.222 473.032 254.456 473.188 254.769C473.344 255.082 473.501 255.473 473.501 255.863C473.579 256.254 473.579 256.645 473.579 257.114C473.579 257.505 473.579 257.974 473.501 258.365C473.422 258.756 473.344 259.147 473.188 259.459C473.032 259.772 472.797 260.007 472.562 260.241C472.328 260.398 471.937 260.554 471.546 260.554C471.155 260.554 470.843 260.476 470.53 260.241C470.295 260.085 470.061 259.772 469.905 259.459C469.748 259.147 469.592 258.756 469.592 258.365C469.592 257.974 469.514 257.583 469.514 257.114C469.514 256.723 469.514 256.254 469.592 255.863C469.67 255.473 469.748 255.082 469.905 254.769C470.061 254.456 470.295 254.222 470.53 253.987C470.843 253.753 471.155 253.675 471.546 253.675ZM471.546 254.222C471.234 254.222 470.999 254.3 470.843 254.456C470.686 254.613 470.53 254.847 470.374 255.16C470.217 255.473 470.217 255.707 470.139 256.098C470.061 256.411 470.061 256.723 470.061 257.114C470.061 257.427 470.061 257.74 470.139 258.13C470.217 258.443 470.295 258.756 470.374 259.069C470.452 259.381 470.608 259.538 470.843 259.694C470.999 259.85 471.234 259.928 471.546 259.928C471.859 259.928 472.093 259.85 472.25 259.694C472.406 259.538 472.562 259.303 472.719 259.069C472.875 258.834 472.875 258.521 472.953 258.13C473.032 257.818 473.032 257.505 473.032 257.114C473.032 256.802 473.032 256.489 472.953 256.098C472.875 255.785 472.797 255.473 472.719 255.16C472.641 254.847 472.484 254.691 472.25 254.456C472.093 254.3 471.859 254.222 471.546 254.222Z" fill="#333333"/>
<path d="M477.643 257.427C477.565 257.505 477.409 257.505 477.252 257.583C477.096 257.662 476.94 257.662 476.783 257.662C476.471 257.662 476.236 257.583 476.002 257.505C475.767 257.427 475.533 257.271 475.376 257.114C475.22 256.958 475.064 256.724 474.985 256.489C474.907 256.254 474.829 255.942 474.829 255.707C474.829 255.395 474.907 255.16 474.985 254.926C475.064 254.691 475.22 254.456 475.454 254.3C475.611 254.144 475.845 253.987 476.08 253.909C476.314 253.831 476.627 253.753 476.94 253.753C477.252 253.753 477.487 253.831 477.8 253.909C478.034 253.987 478.269 254.144 478.425 254.3C478.581 254.456 478.738 254.691 478.894 254.926C478.972 255.16 479.05 255.473 479.05 255.707C479.05 256.02 478.972 256.333 478.894 256.645C478.816 256.958 478.66 257.193 478.503 257.427L476.783 260.241H476.002L477.643 257.427ZM478.269 255.629C478.269 255.395 478.269 255.238 478.191 255.082C478.112 254.926 478.034 254.769 477.878 254.613C477.722 254.457 477.565 254.378 477.409 254.3C477.252 254.222 477.018 254.222 476.862 254.222C476.705 254.222 476.471 254.222 476.314 254.3C476.158 254.378 476.002 254.457 475.845 254.613C475.689 254.769 475.611 254.926 475.533 255.082C475.454 255.238 475.454 255.473 475.454 255.629C475.454 255.785 475.454 256.02 475.533 256.176C475.611 256.333 475.689 256.489 475.845 256.645C476.002 256.802 476.158 256.88 476.314 256.958C476.471 257.036 476.705 257.036 476.94 257.036C477.174 257.036 477.331 257.036 477.565 256.958C477.722 256.88 477.878 256.802 478.034 256.645C478.191 256.489 478.269 256.333 478.347 256.176C478.425 256.02 478.269 255.864 478.269 255.629Z" fill="#333333"/>
<path d="M481.318 256.411C481.318 256.567 481.24 256.645 481.162 256.723C481.084 256.802 480.927 256.88 480.771 256.88C480.615 256.88 480.536 256.802 480.38 256.723C480.302 256.645 480.224 256.489 480.224 256.411C480.224 256.254 480.302 256.176 480.38 256.098C480.458 256.02 480.615 255.942 480.771 255.942C480.927 255.942 481.005 256.02 481.162 256.098C481.24 256.176 481.318 256.254 481.318 256.411ZM481.318 259.772C481.318 259.929 481.24 260.007 481.162 260.085C481.084 260.163 480.927 260.241 480.771 260.241C480.615 260.241 480.536 260.163 480.38 260.085C480.302 260.007 480.224 259.85 480.224 259.772C480.224 259.694 480.302 259.538 480.38 259.459C480.458 259.381 480.615 259.303 480.771 259.303C480.927 259.303 481.005 259.381 481.162 259.459C481.24 259.538 481.318 259.694 481.318 259.772Z" fill="#333333"/>
<path d="M484.133 256.567H484.445C484.68 256.567 484.836 256.567 484.993 256.489C485.149 256.411 485.305 256.411 485.462 256.254C485.618 256.098 485.696 256.02 485.774 255.864C485.853 255.707 485.931 255.551 485.931 255.316C485.931 255.16 485.931 255.004 485.853 254.847C485.774 254.691 485.696 254.535 485.54 254.456C485.383 254.378 485.305 254.3 485.149 254.222C484.993 254.144 484.836 254.144 484.68 254.144C484.445 254.144 484.133 254.222 483.976 254.3C483.82 254.378 483.585 254.613 483.507 254.847L482.96 254.535C483.195 254.222 483.429 253.909 483.742 253.753C484.055 253.596 484.367 253.518 484.758 253.518C484.993 253.518 485.227 253.518 485.462 253.596C485.696 253.675 485.853 253.753 486.087 253.909C486.322 254.066 486.4 254.222 486.478 254.456C486.556 254.691 486.634 254.925 486.634 255.16C486.634 255.551 486.556 255.864 486.322 256.098C486.087 256.333 485.852 256.489 485.54 256.645C485.931 256.723 486.243 256.88 486.478 257.192C486.712 257.505 486.869 257.818 486.869 258.287C486.869 258.6 486.791 258.834 486.712 259.069C486.634 259.303 486.478 259.538 486.243 259.694C486.087 259.85 485.853 260.007 485.618 260.085C485.383 260.163 485.071 260.241 484.836 260.241C484.367 260.241 483.976 260.163 483.585 259.929C483.273 259.694 482.96 259.381 482.804 258.99L483.429 258.756C483.507 259.069 483.742 259.303 483.976 259.46C484.211 259.616 484.524 259.694 484.836 259.694C484.993 259.694 485.227 259.694 485.383 259.616C485.54 259.538 485.696 259.46 485.853 259.381C486.009 259.303 486.087 259.147 486.165 258.912C486.243 258.756 486.322 258.521 486.322 258.365C486.322 258.131 486.243 257.896 486.165 257.74C486.087 257.583 485.931 257.427 485.774 257.349C485.618 257.271 485.462 257.192 485.227 257.114C484.993 257.036 484.836 257.036 484.602 257.036H484.289V256.567H484.133Z" fill="#333333"/>
<path d="M491.715 254.378H489.057L488.979 256.333C489.136 256.254 489.292 256.254 489.448 256.254C489.605 256.254 489.761 256.254 489.917 256.254C490.23 256.254 490.465 256.333 490.777 256.411C491.012 256.489 491.246 256.645 491.403 256.802C491.559 256.958 491.715 257.192 491.872 257.427C491.95 257.662 492.028 257.974 492.028 258.209C492.028 258.521 491.95 258.834 491.872 259.069C491.793 259.303 491.637 259.538 491.403 259.772C491.246 259.929 491.012 260.085 490.699 260.241C490.386 260.398 490.152 260.398 489.839 260.398C489.37 260.398 488.979 260.319 488.667 260.085C488.354 259.85 488.119 259.616 487.885 259.225L488.51 258.99C488.588 259.225 488.823 259.46 489.057 259.616C489.292 259.772 489.526 259.85 489.839 259.85C490.074 259.85 490.23 259.85 490.465 259.772C490.621 259.694 490.777 259.616 490.934 259.46C491.09 259.303 491.168 259.147 491.246 258.99C491.324 258.834 491.324 258.6 491.324 258.365C491.324 258.131 491.246 257.896 491.168 257.74C491.09 257.583 491.012 257.349 490.855 257.271C490.699 257.193 490.543 257.036 490.386 256.958C490.23 256.88 489.995 256.88 489.761 256.88C489.526 256.88 489.292 256.88 489.057 256.958C488.823 257.036 488.588 257.114 488.432 257.192L488.51 253.909H491.793V254.378H491.715Z" fill="#333333"/>
</g>
<g opacity="0.7">
<path d="M403.926 256.411L405.645 253.831H406.427L404.316 256.88L406.662 260.241H405.88L403.926 257.349L401.971 260.241H401.189L403.535 256.88L401.424 253.831H402.206L403.926 256.411Z" fill="#333333"/>
<path d="M409.867 256.411L411.587 253.831H412.369L410.258 256.88L412.603 260.241H411.821L409.867 257.349L407.913 260.241H407.131L409.476 256.88L407.365 253.831H408.147L409.867 256.411Z" fill="#333333"/>
<path d="M415.73 256.411L417.45 253.831H418.232L416.121 256.88L418.466 260.241H417.685L415.73 257.349L413.776 260.241H412.994L415.339 256.88L413.229 253.831H414.01L415.73 256.411Z" fill="#333333"/>
</g>
<path d="M421.593 256.411L423.312 253.831H424.094L421.983 256.88L424.329 260.241H423.547L421.593 257.349L419.638 260.241H418.856L421.202 256.88L419.091 253.831H419.873L421.593 256.411Z" fill="#333333"/>
<path d="M427.221 260.398L426.674 260.241L429.41 253.675L429.957 253.831L427.221 260.398Z" fill="#333333"/>
<path d="M435.117 256.411L436.837 253.831H437.619L435.508 256.88L437.853 260.241H437.071L435.117 257.349L433.163 260.241H432.381L434.726 256.88L432.615 253.831H433.397L435.117 256.411Z" fill="#333333"/>
<path d="M441.058 256.411L442.778 253.831H443.56L441.449 256.88L443.794 260.241H443.013L441.058 257.349L439.104 260.241H438.322L440.667 256.88L438.557 253.831H439.339L441.058 256.411Z" fill="#333333"/>
<path d="M446.687 260.398L446.14 260.241L448.876 253.675L449.423 253.831L446.687 260.398Z" fill="#333333"/>
<path d="M454.583 256.411L456.303 253.831H457.084L454.974 256.88L457.319 260.241H456.537L454.583 257.349L452.628 260.241H451.847L454.192 256.88L452.081 253.831H452.863L454.583 256.411Z" fill="#333333"/>
<path d="M460.445 256.411L462.165 253.831H462.947L460.836 256.88L463.181 260.241H462.399L460.445 257.349L458.491 260.241H457.709L460.054 256.88L457.943 253.831H458.725L460.445 256.411Z" fill="#333333"/>
<path opacity="0.5" d="M494.452 268.606H319.498V268.919H494.452V268.606Z" fill="#606060"/>
<g opacity="0.7">
<path d="M378.831 129.456C378.44 129.691 378.128 129.925 377.737 130.082C377.502 129.847 377.112 129.378 376.799 129.143C377.971 128.596 379.222 127.815 379.926 126.955L381.098 127.424C380.786 127.815 380.473 128.205 380.082 128.518V130.785H378.831V129.456ZM384.225 135.476C385.242 135.866 386.258 136.257 386.883 136.57L385.789 137.274C385.163 136.883 383.991 136.414 382.896 135.945L383.522 135.397H380.473L381.411 135.866C380.473 136.414 379.066 136.961 377.971 137.274C377.737 137.039 377.268 136.57 377.033 136.335C378.128 136.101 379.3 135.788 380.082 135.397H378.44V130.941H385.867V135.397H384.225V135.476ZM379.691 132.27H384.46V131.801H379.691V132.27ZM379.691 133.443H384.46V132.974H379.691V133.443ZM379.691 134.694H384.46V134.225H379.691V134.694ZM383.444 130.707C382.115 130.707 381.724 130.238 381.724 129.143V127.033H383.053V127.815H386.336V128.831H383.053V129.143C383.053 129.456 383.131 129.613 383.522 129.613H385.476C385.867 129.613 386.492 129.534 386.727 129.534C386.727 129.925 386.805 130.316 386.883 130.629C386.649 130.707 386.102 130.707 385.554 130.707H383.444V130.707Z" fill="#333333"/>
<path d="M388.134 136.492C388.525 135.945 388.837 135.163 388.994 134.459L390.088 134.928C389.854 135.632 389.619 136.492 389.228 137.039L388.134 136.492ZM392.59 129.769C392.512 129.613 392.433 129.456 392.277 129.222C389.228 129.534 388.837 129.613 388.525 129.691C388.446 129.456 388.29 128.909 388.134 128.674C388.29 128.596 388.525 128.518 388.759 128.362C388.994 128.205 389.619 127.658 390.088 126.955L391.261 127.267C390.87 127.736 390.479 128.127 390.01 128.44L391.652 128.284C391.495 128.127 391.339 127.893 391.183 127.736L392.042 127.267C392.512 127.815 393.137 128.596 393.45 129.143L392.59 129.769ZM389.775 132.896C389.697 133.443 389.463 133.99 389.072 134.381C388.916 134.225 388.368 133.834 388.134 133.756C388.759 133.13 388.759 132.27 388.759 131.567V129.925H392.824V133.365C392.824 133.834 392.746 134.068 392.433 134.225C392.121 134.381 391.652 134.381 391.104 134.381C391.026 134.147 390.87 133.756 390.792 133.521C391.104 133.521 391.495 133.521 391.573 133.521C391.73 133.521 391.73 133.443 391.73 133.365V132.818C391.104 133.052 390.557 133.365 390.01 133.599L389.775 132.896ZM389.854 131.567C389.854 131.88 389.854 132.192 389.775 132.583C390.166 132.505 390.635 132.349 391.183 132.192C390.87 131.958 390.323 131.723 389.854 131.567ZM389.854 130.785V131.411L390.244 130.941C390.714 131.098 391.339 131.411 391.652 131.567V130.863H389.854V130.785ZM394.31 136.101C394.779 136.101 394.857 135.945 394.935 135.007C395.169 135.163 395.717 135.397 396.029 135.397C395.873 136.805 395.56 137.117 394.388 137.117H392.355C390.87 137.117 390.479 136.805 390.479 135.788V134.694H391.73V135.788C391.73 136.101 391.808 136.101 392.433 136.101H394.31ZM391.73 131.958V131.489L391.261 132.114L391.73 131.958ZM393.371 133.912C393.684 134.303 394.153 134.85 394.388 135.163L393.45 135.788C393.215 135.397 392.824 134.85 392.433 134.459L393.371 133.912ZM395.169 130.472C393.919 130.472 393.606 130.082 393.606 128.987V127.033H394.857V127.658H397.436V128.596H394.857V128.909C394.857 129.222 394.935 129.378 395.248 129.378H396.811C397.124 129.378 397.593 129.378 397.827 129.3C397.827 129.613 397.906 130.082 397.906 130.316C397.671 130.394 397.202 130.394 396.811 130.394H395.169V130.472ZM395.248 134.225C393.997 134.225 393.684 133.912 393.684 132.818V130.629H394.857V131.332H397.515V132.27H394.857V132.818C394.857 133.13 394.935 133.13 395.326 133.13H396.577C396.889 133.13 396.967 133.052 396.967 132.583C397.202 132.739 397.671 132.896 398.062 132.974C397.906 133.912 397.593 134.147 396.733 134.147H395.248V134.225ZM397.28 134.459C397.593 135.085 397.906 135.945 398.14 136.414L396.967 136.805C396.811 136.257 396.498 135.397 396.186 134.772L397.28 134.459Z" fill="#333333"/>
<path d="M400.72 134.459C400.642 135.476 400.407 136.492 400.173 137.195C399.938 137.039 399.391 136.883 399.156 136.805C399.391 136.179 399.547 135.163 399.625 134.303L400.72 134.459ZM402.83 133.834C402.83 133.678 402.752 133.521 402.752 133.287C400.407 133.678 399.938 133.756 399.703 133.912C399.625 133.678 399.391 133.052 399.313 132.739C399.625 132.661 399.86 132.427 400.251 132.036C400.407 131.88 400.642 131.567 400.954 131.176C400.094 131.254 399.782 131.332 399.625 131.411C399.547 131.176 399.391 130.551 399.234 130.316C399.469 130.238 399.703 130.003 399.86 129.691C400.094 129.378 400.798 128.127 401.267 126.955L402.44 127.424C402.049 128.284 401.501 129.3 400.876 130.082L401.658 130.003C401.971 129.534 402.205 128.987 402.518 128.518L403.612 129.222C402.987 130.394 402.127 131.489 401.267 132.427L402.361 132.27C402.283 131.958 402.127 131.723 402.049 131.489L402.987 131.098C403.299 131.801 403.69 132.739 403.847 133.365L402.83 133.834ZM402.049 134.147C402.205 134.928 402.361 135.945 402.361 136.648L401.267 136.961C401.267 136.257 401.111 135.241 401.032 134.459L402.049 134.147ZM403.299 133.834C403.534 134.459 403.847 135.319 403.925 135.945L402.909 136.335C402.83 135.71 402.518 134.85 402.283 134.147L403.299 133.834ZM407.599 135.945C408.068 135.945 408.146 135.632 408.224 134.147C408.537 134.381 409.084 134.616 409.475 134.694C409.319 136.57 409.006 137.195 407.755 137.195H405.957C404.628 137.195 404.159 136.805 404.159 135.397V131.02H407.521V128.909H403.925V127.58H408.85V132.896H407.521V132.27H405.567V135.319C405.567 135.788 405.645 135.866 406.114 135.866H407.599V135.945Z" fill="#333333"/>
<path d="M419.95 136.57C419.56 136.179 418.778 135.554 418.074 135.007V136.101C418.074 136.648 417.996 136.961 417.605 137.117C417.293 137.274 416.823 137.352 416.198 137.352C416.198 137.039 416.042 136.57 415.807 136.257C416.198 136.257 416.589 136.257 416.667 136.257C416.823 136.257 416.823 136.257 416.823 136.101V135.085C416.198 135.632 415.494 136.179 414.947 136.648L414.244 135.71L414.322 136.336C412.993 136.57 411.664 136.883 410.57 137.039L410.335 135.866C410.804 135.788 411.351 135.71 411.977 135.632V132.818H410.413V131.723H411.899V130.942H411.117V130.472C410.96 130.629 410.804 130.785 410.648 130.942C410.648 130.629 410.413 129.925 410.257 129.613C411.039 128.987 411.82 128.049 412.289 127.033L413.306 127.424C413.227 127.502 413.227 127.658 413.149 127.736C413.775 128.284 414.556 129.065 414.947 129.456L414.244 130.316C414.166 130.16 414.009 130.003 413.853 129.847V130.863H413.071V131.645H414.322V132.74H413.071V135.397L414.322 135.163V135.476C414.947 135.085 415.964 134.381 416.902 133.678V132.036H414.478V130.863H417.996L418.074 130.394H414.947C415.26 129.456 415.651 127.971 415.807 126.876L417.058 127.033C416.98 127.267 416.902 127.58 416.902 127.815H418.7L418.934 127.736L419.794 127.893C419.638 128.831 419.403 129.925 419.247 130.942H420.654V132.114H418.074V133.678L418.231 133.756C418.621 133.287 419.091 132.661 419.325 132.192L420.419 132.818C419.95 133.365 419.481 133.912 419.012 134.303C419.638 134.772 420.341 135.241 420.732 135.632L419.95 136.57ZM411.273 133.13C411.429 133.756 411.586 134.538 411.664 135.007L410.804 135.241C410.726 134.694 410.57 133.912 410.413 133.365L411.273 133.13ZM413.697 129.769C413.384 129.378 412.915 128.987 412.524 128.596C412.289 129.065 411.977 129.456 411.664 129.769H413.697ZM413.227 134.928C413.384 134.381 413.54 133.599 413.618 133.052L414.478 133.287C414.322 133.912 414.087 134.694 413.931 135.085L413.227 134.928ZM415.416 132.27C415.807 132.661 416.354 133.209 416.589 133.599L415.651 134.225C415.416 133.834 414.869 133.209 414.478 132.818L415.416 132.27ZM418.231 129.534L418.387 128.909H416.589L416.433 129.534H418.231Z" fill="#333333"/>
</g>
<path d="M311.993 171.123C311.993 172.843 310.586 174.25 308.866 174.25C307.146 174.25 305.739 172.843 305.739 171.123C305.739 169.403 307.146 167.996 308.866 167.996C310.586 167.996 311.993 169.403 311.993 171.123Z" fill="#17A080"/>
<path d="M311.993 199.422C311.993 201.142 310.586 202.549 308.866 202.549C307.146 202.549 305.739 201.142 305.739 199.422C305.739 197.702 307.146 196.295 308.866 196.295C310.586 196.295 311.993 197.702 311.993 199.422Z" fill="#17A080"/>
<path d="M308.866 231.942C310.593 231.942 311.993 230.542 311.993 228.815C311.993 227.088 310.593 225.688 308.866 225.688C307.139 225.688 305.739 227.088 305.739 228.815C305.739 230.542 307.139 231.942 308.866 231.942Z" fill="#17A080"/>
<path d="M311.993 257.427C311.993 259.147 310.586 260.554 308.866 260.554C307.146 260.554 305.739 259.147 305.739 257.427C305.739 255.707 307.146 254.3 308.866 254.3C310.586 254.3 311.993 255.707 311.993 257.427Z" fill="#17A080"/>
<path d="M309.178 171.123H308.475V257.661H309.178V171.123Z" fill="#17A080"/>
<g opacity="0.7">
<path d="M158.381 60.3503V61.4447H156.349C156.662 61.6792 156.896 61.9919 157.052 62.2265L156.349 62.8519H157.834V63.9463H153.925V64.5717H157.131V65.588H149.313V64.5717H152.597V63.9463H148.688V62.8519H151.424C151.189 62.5392 150.72 62.1483 150.408 61.8356L150.799 61.5229H150.017C149.704 61.9919 149.313 62.3828 149.001 62.6955C148.844 62.461 148.375 61.9919 148.141 61.8356C148.766 61.2884 149.47 60.4285 149.782 59.6467L150.955 59.9594C150.877 60.1158 150.799 60.2721 150.72 60.4285H153.144V61.5229H151.58C151.893 61.7574 152.128 61.9919 152.284 62.2265L151.502 62.93H152.518V62.3828H153.3C153.144 62.2265 152.987 62.1483 152.831 62.0701C153.456 61.5229 153.926 60.5848 154.238 59.6467L155.411 59.9594C155.333 60.1158 155.333 60.2721 155.254 60.5066H158.381V60.3503ZM156.114 66.3697H158.225V67.4641H156.114V68.7931C156.114 69.4185 155.958 69.653 155.489 69.8094C155.02 69.9657 154.316 69.9657 153.456 69.9657C153.378 69.653 153.3 69.2621 153.144 68.8713C153.691 68.8713 154.395 68.8713 154.551 68.8713C154.707 68.8713 154.785 68.7931 154.785 68.6367V67.3078H151.346C151.893 67.7768 152.44 68.2459 152.831 68.6367L151.893 69.4185C151.502 68.9494 150.799 68.2459 150.173 67.7768L150.799 67.3078H148.375V66.2133H154.785V65.6661H156.114V66.3697V66.3697ZM156.114 62.8519C155.88 62.5392 155.489 62.1483 155.254 61.8356L155.724 61.4447H154.864C154.629 61.9138 154.316 62.3828 154.004 62.6955V62.7737H156.114V62.8519Z" fill="#333333"/>
<path d="M162.915 62.6173C162.681 63.0864 162.368 63.5554 161.977 63.9463V69.9657H160.727V65.3534C160.414 65.6661 160.023 65.9788 159.71 66.2915C159.632 65.9788 159.319 65.2753 159.085 64.9626C160.023 64.259 161.117 63.1646 161.743 62.1483L162.915 62.6173ZM162.759 60.1939C162.056 61.2102 160.961 62.3046 159.867 62.93C159.71 62.6173 159.398 62.0701 159.241 61.8356C160.101 61.2884 161.039 60.4285 161.508 59.6467L162.759 60.1939ZM168.231 65.1971H169.56V66.3697H168.231V68.6367C168.231 69.2621 168.075 69.5748 167.606 69.8094C167.137 69.9657 166.511 70.0439 165.652 70.0439C165.573 69.653 165.417 69.184 165.261 68.7931C165.808 68.7931 166.433 68.7931 166.59 68.7931C166.746 68.7931 166.824 68.7149 166.824 68.6367V66.3697H162.446V65.1971H166.824V64.5717H168.153V65.1971H168.231ZM169.56 60.9757V62.1483H166.59V63.0082H169.091V64.1808H162.837V63.0082H165.261V62.1483H162.446V60.9757H165.261V59.7249H166.59V60.9757H169.56ZM164.166 66.4479C164.635 66.9951 165.261 67.7768 165.573 68.2459L164.401 68.8713C164.166 68.324 163.541 67.5423 163.072 66.9951L164.166 66.4479Z" fill="#333333"/>
<path d="M180.504 61.2885C180.27 63.7119 179.723 65.5881 178.941 67.0734C179.488 67.7769 180.114 68.4023 180.973 68.8714C180.661 69.1059 180.27 69.5749 180.035 69.9658C179.254 69.4968 178.628 68.9495 178.159 68.246C177.612 68.9495 176.908 69.4968 176.205 69.9658C176.048 69.6531 175.736 69.2622 175.501 69.0277V70.044H174.25V68.246C173 68.4805 171.671 68.6368 170.654 68.7932L170.42 67.4642C170.733 67.4642 171.045 67.3861 171.436 67.3861V61.523H170.654V60.2722H176.205V61.054H179.488H179.723L180.504 61.2885ZM172.609 61.523V62.5393H174.172V61.523H172.609ZM172.609 64.8845H174.172V63.79H172.609V64.8845ZM172.609 67.2297C173.156 67.1515 173.625 67.0734 174.172 66.9952V65.9789H172.609V67.2297ZM175.423 68.7932C176.127 68.4023 176.83 67.7769 177.299 67.0734C176.596 65.8226 176.127 64.3373 175.814 62.6956L177.065 62.4611C177.299 63.6337 177.612 64.7281 178.081 65.7444C178.55 64.8063 178.863 63.7119 179.019 62.4611H175.736V61.6012H175.345V68.7932H175.423Z" fill="#333333"/>
<path d="M183.553 62.0702C183.162 62.3047 182.849 62.5392 182.459 62.6956C182.224 62.461 181.833 61.992 181.521 61.7575C182.693 61.2103 183.944 60.4285 184.647 59.5686L185.82 60.0377C185.507 60.4285 185.195 60.8194 184.804 61.1321V63.3991H183.553V62.0702ZM188.947 68.1677C189.963 68.5586 190.98 68.9495 191.605 69.2622L190.511 69.9658C189.885 69.5749 188.713 69.1058 187.618 68.6368L188.243 68.0896H185.195L186.133 68.5586C185.195 69.1058 183.788 69.6531 182.693 69.9658C182.459 69.7312 181.99 69.2622 181.755 69.0277C182.849 68.7931 184.022 68.4804 184.804 68.0896H183.162V63.6337H190.589V68.0896H188.947V68.1677ZM184.413 64.8844H189.182V64.4154H184.413V64.8844ZM184.413 66.1352H189.182V65.6662H184.413V66.1352ZM184.413 67.386H189.182V66.917H184.413V67.386ZM188.165 63.3991C186.836 63.3991 186.445 62.9301 186.445 61.8357V59.725H187.774V60.5067H191.058V61.523H187.774V61.8357C187.774 62.1483 187.853 62.3047 188.243 62.3047H190.198C190.589 62.3047 191.214 62.2265 191.449 62.2265C191.449 62.6174 191.527 63.0083 191.605 63.321C191.37 63.3991 190.823 63.3991 190.276 63.3991H188.165Z" fill="#333333"/>
</g>
<path d="M185.195 105.144H50.6572V123.437H185.195V105.144Z" fill="#F6F6F6"/>
<path d="M59.1782 109.365H59.8036V117.495H59.1782V114.994C57.5366 115.619 57.3021 115.697 57.0675 115.854C56.9894 115.697 56.9112 115.385 56.833 115.228C56.9894 115.15 57.1457 114.994 57.1457 114.603V110.225H57.7711V114.838L59.1782 114.368V109.365ZM64.1814 111.632C63.9468 113.04 63.556 114.212 63.0088 115.228C63.556 116.01 64.1814 116.557 64.9631 116.948C64.8068 117.105 64.5722 117.339 64.4941 117.495C63.7123 117.105 63.1651 116.479 62.6179 115.776C62.0707 116.479 61.3671 117.105 60.5072 117.495C60.429 117.339 60.1945 117.105 60.0381 116.948C60.9762 116.479 61.6798 115.932 62.1488 115.15C61.6798 114.368 61.3671 113.509 61.0544 112.57C60.8199 113.04 60.5854 113.43 60.3508 113.743C60.2727 113.587 60.0381 113.274 59.8818 113.196C60.6635 112.258 61.1326 110.772 61.3671 109.209L62.0707 109.365C61.9925 109.913 61.8361 110.46 61.6798 111.007H64.8068V111.632H64.1814V111.632ZM61.5235 111.711C61.758 112.727 62.1488 113.665 62.6179 114.525C63.0869 113.743 63.3215 112.727 63.556 111.554H61.6016L61.5235 111.711Z" fill="#1E1E1E"/>
<path d="M67.3868 110.851C66.9959 111.085 66.605 111.32 66.2142 111.554C66.136 111.398 65.8233 111.163 65.7451 111.085C66.7614 110.616 67.7776 109.991 68.403 109.209L69.0284 109.444C68.7157 109.756 68.403 110.069 68.0903 110.382V112.258H67.4649V110.851H67.3868ZM69.1066 116.401C68.403 116.87 67.2304 117.261 66.3705 117.495C66.2923 117.339 65.9796 117.105 65.9015 117.026C66.8396 116.87 67.934 116.479 68.5594 116.166L69.1066 116.401ZM66.9959 112.414H72.859V116.088H66.9959V112.414ZM67.6213 113.509H72.1554V112.883H67.6213V113.509ZM67.6213 114.525H72.1554V113.899H67.6213V114.525ZM67.6213 115.619H72.1554V114.994H67.6213V115.619ZM70.7483 112.023C69.9665 112.023 69.732 111.789 69.732 111.007V109.209H70.4356V109.913H73.328V110.46H70.4356V111.007C70.4356 111.32 70.5137 111.398 70.8264 111.398H72.859C73.0935 111.398 73.5625 111.398 73.7189 111.32C73.7189 111.476 73.797 111.711 73.797 111.867C73.6407 111.945 73.2498 111.945 72.859 111.945H70.7483V112.023ZM71.1391 116.088C72.0772 116.401 73.1717 116.792 73.797 117.105L73.1717 117.495C72.6244 117.183 71.6082 116.792 70.6701 116.479L71.1391 116.088Z" fill="#1E1E1E"/>
<path d="M79.2694 109.209C79.2694 109.522 79.2694 109.991 79.1912 110.538C79.3476 111.632 79.8948 115.385 83.0999 116.792C82.9436 116.948 82.7091 117.183 82.6309 117.339C80.3638 116.245 79.4257 114.056 78.9567 112.336C78.5658 114.134 77.5496 116.167 75.3607 117.339C75.2044 117.183 75.048 116.948 74.8135 116.792C78.5658 114.916 78.4877 110.46 78.5658 109.131H79.2694V109.209Z" fill="#1E1E1E"/>
<path d="M205.442 111.554V119.059H204.817V117.339C203.566 117.574 202.393 117.73 201.455 117.886L201.299 117.183C201.533 117.183 201.924 117.105 202.237 117.105V111.633H201.455V110.929H206.146V111.633H205.442V111.554ZM204.817 111.554H202.94V112.805H204.817V111.554ZM204.817 113.509H202.94V114.838H204.817V113.509ZM202.862 116.948C203.488 116.87 204.113 116.792 204.738 116.714V115.541H202.862V116.948ZM209.976 111.711C209.742 113.743 209.194 115.385 208.413 116.636C208.96 117.417 209.585 118.043 210.367 118.434C210.211 118.59 209.976 118.825 209.82 119.059C209.038 118.59 208.413 118.043 207.865 117.339C207.318 118.043 206.615 118.668 205.911 119.059C205.833 118.903 205.598 118.59 205.442 118.512C206.224 118.121 206.927 117.496 207.475 116.714C206.771 115.541 206.38 114.134 206.067 112.571L206.771 112.414C207.006 113.743 207.396 114.994 207.944 116.01C208.491 114.994 208.882 113.821 209.116 112.414H205.833V111.711H209.273H209.429H209.976Z" fill="#1E1E1E"/>
<path d="M212.868 112.023C212.477 112.258 212.008 112.571 211.618 112.727C211.539 112.571 211.227 112.336 211.07 112.258C212.087 111.789 213.259 111.085 213.885 110.303L214.51 110.538C214.197 110.851 213.885 111.242 213.494 111.554V113.509H212.79V112.023H212.868ZM214.666 117.965C213.885 118.434 212.634 118.903 211.696 119.137C211.618 118.981 211.305 118.746 211.148 118.59C212.165 118.355 213.259 118.043 213.963 117.652L214.666 117.965ZM212.399 113.665H218.653V117.574H212.399V113.665ZM213.103 114.838H217.95V114.212H213.103V114.838ZM213.103 115.932H217.95V115.307H213.103V115.932ZM213.103 117.105H217.95V116.401H213.103V117.105ZM216.464 113.274C215.604 113.274 215.37 112.961 215.37 112.258V110.303H216.073V111.085H219.2V111.711H216.073V112.258C216.073 112.571 216.152 112.649 216.464 112.649H218.575C218.888 112.649 219.357 112.649 219.513 112.571C219.513 112.805 219.591 113.04 219.591 113.196C219.435 113.274 218.966 113.274 218.575 113.274H216.464ZM216.855 117.652C217.871 117.965 219.044 118.355 219.669 118.668L219.044 119.059C218.419 118.746 217.402 118.355 216.386 117.965L216.855 117.652Z" fill="#1E1E1E"/>
<path d="M223.892 110.538C223.579 111.242 223.266 111.945 222.875 112.649V119.059H222.172V113.743C221.859 114.212 221.546 114.603 221.234 114.916C221.156 114.759 220.921 114.369 220.765 114.212C221.781 113.274 222.641 111.789 223.188 110.303L223.892 110.538ZM229.52 113.118H228.269V118.121C228.269 118.668 228.113 118.903 227.722 118.981C227.331 119.059 226.706 119.137 225.69 119.059C225.69 118.903 225.533 118.512 225.377 118.355C226.159 118.355 227.019 118.355 227.253 118.355C227.488 118.355 227.566 118.277 227.566 118.043V113.04H223.657V112.336H227.566V110.303H228.269V112.336H229.52V113.118V113.118ZM225.69 116.87C225.377 116.245 224.752 115.228 224.282 114.447L224.908 114.134C225.377 114.916 226.08 115.854 226.393 116.479L225.69 116.87Z" fill="#1E1E1E"/>
<path d="M231.865 116.401C231.631 117.105 231.24 117.886 230.927 118.434C230.771 118.355 230.536 118.199 230.38 118.199C230.693 117.652 231.005 116.948 231.24 116.245L231.865 116.401ZM233.116 115.932V119.137H232.412V115.932H230.38V115.307H234.992V115.932H233.116ZM232.412 111.789H230.536V111.163H232.412V110.303H233.116V111.163H234.992V111.789H233.116V112.649H234.836V113.274H230.849V112.649H232.491V111.789H232.412ZM234.679 114.212C235.305 113.274 235.618 111.789 235.774 110.303L236.477 110.382C236.399 110.929 236.321 111.476 236.165 112.023H238.51H238.666L239.135 112.18C238.979 113.04 238.666 114.056 238.432 114.681L237.806 114.525C237.963 114.056 238.197 113.352 238.275 112.727H235.93C235.696 113.509 235.461 114.212 235.148 114.681C235.07 114.603 234.836 114.369 234.679 114.212V114.603H230.849V113.978H234.679V114.212ZM234.21 116.245C234.523 116.714 234.836 117.339 234.992 117.73L234.445 117.965C234.289 117.574 233.976 116.948 233.741 116.401L234.21 116.245ZM237.259 113.899C237.259 114.212 237.259 114.525 237.259 114.838C237.572 116.479 238.275 117.965 239.448 118.59C239.292 118.746 239.057 118.981 238.979 119.215C238.041 118.668 237.494 117.652 237.025 116.323C236.79 117.339 236.243 118.355 235.305 119.215C235.148 119.059 234.914 118.824 234.758 118.746C236.477 117.183 236.634 115.228 236.634 113.978V113.509H237.337V113.899H237.259Z" fill="#1E1E1E"/>
<path d="M54.0972 200.282C53.8627 200.907 53.6282 201.533 53.3937 202.158V208.412H52.7683V203.487C52.5337 203.878 52.2992 204.269 52.0647 204.581C51.9865 204.425 51.8302 204.034 51.6738 203.878C52.4556 202.94 53.081 201.611 53.4718 200.204L54.0972 200.282ZM55.9734 203.174C55.8171 203.409 55.6607 203.643 55.4262 203.878H59.4131V207.708C59.4131 208.021 59.3349 208.177 59.1785 208.256C59.0222 208.334 58.7095 208.334 58.2404 208.334C58.2404 208.177 58.0841 207.943 58.0059 207.787C58.2404 207.787 58.5531 207.787 58.6313 207.787C58.7095 207.787 58.7095 207.787 58.7095 207.63V206.927H57.3024V208.099H56.677V206.927H55.1135C55.0353 207.396 54.8008 207.943 54.4881 208.334C54.4099 208.177 54.0972 208.021 53.9409 207.943C54.4881 207.239 54.5663 206.301 54.5663 205.519V204.581C54.3317 204.816 54.0191 204.972 53.7845 205.129C53.7064 204.972 53.4718 204.738 53.3937 204.581C54.0972 204.191 54.7226 203.721 55.1917 203.096H53.9409V202.471H55.5825V201.689H54.1754V201.064H55.5825V200.125H56.2079V200.985H57.6932V200.125H58.3186V200.985H59.5694V201.611H58.3186V202.471H59.8039V203.096H55.9734V203.174ZM56.7551 206.536V205.754H55.348C55.348 205.989 55.348 206.301 55.2698 206.536H56.7551ZM55.348 205.207H56.7551V204.425H55.348V205.207ZM56.2079 202.549H57.6932V201.689H56.2079V202.549ZM58.7877 204.425H57.3805V205.207H58.7877V204.425ZM58.7877 206.536V205.754H57.3805V206.536H58.7877Z" fill="#1E1E1E"/>
<path d="M60.8203 201.533H64.1818V202.08H60.8203V201.533ZM61.133 204.112H63.9473V204.66H61.133V204.112ZM63.9473 202.862V203.409H61.2894V202.862H63.9473ZM63.9473 207.787H61.9147V208.256H61.2894V205.285H63.8691V207.787H63.9473ZM62.5401 201.533C62.462 201.22 62.2274 200.751 61.9147 200.438L62.3838 200.204C62.6183 200.516 62.931 200.985 63.0092 201.298L62.5401 201.533ZM61.9147 205.832V207.239H63.3219V205.832H61.9147ZM69.0286 207.396V208.021H64.26V207.396H66.2925V205.05H64.6508V204.425H66.2925V202.471H64.4945V201.845H68.9504V202.471H66.9961V204.347H68.7941V204.972H66.9961V207.318H69.0286V207.396ZM66.527 201.845C66.3707 201.454 65.9798 200.829 65.5889 200.438L66.1361 200.125C66.527 200.516 66.9179 201.142 67.0742 201.533L66.527 201.845Z" fill="#1E1E1E"/>
<path d="M80.2851 160.569C87.9701 160.569 94.2001 154.34 94.2001 146.654C94.2001 138.969 87.9701 132.74 80.2851 132.74C72.6001 132.74 66.3701 138.969 66.3701 146.654C66.3701 154.34 72.6001 160.569 80.2851 160.569Z" fill="#D2D2D2"/>
<path d="M117.574 160.569C125.259 160.569 131.489 154.34 131.489 146.654C131.489 138.969 125.259 132.74 117.574 132.74C109.889 132.74 103.659 138.969 103.659 146.654C103.659 154.34 109.889 160.569 117.574 160.569Z" fill="#D2D2D2"/>
<path d="M154.785 160.569C162.47 160.569 168.7 154.34 168.7 146.654C168.7 138.969 162.47 132.74 154.785 132.74C147.1 132.74 140.87 138.969 140.87 146.654C140.87 154.34 147.1 160.569 154.785 160.569Z" fill="#D2D2D2"/>
<path opacity="0.5" d="M288.15 189.885H51.5957V190.197H288.15V189.885Z" fill="#606060"/>
<path d="M185.508 169.481H50.2666V104.753H185.508V169.481ZM50.9702 168.778H184.804V105.457H50.9702V168.778Z" fill="#CBCBCB"/>
<path d="M185.507 123.046H50.6572V123.749H185.507V123.046Z" fill="#CBCBCB"/>
<path d="M214.588 84.5061H127.19C126.017 84.5061 125.079 83.568 125.079 82.3954C125.079 81.2228 126.017 80.2847 127.19 80.2847H214.588C215.761 80.2847 216.699 81.2228 216.699 82.3954C216.699 83.568 215.761 84.5061 214.588 84.5061Z" fill="#D2D2D2"/>
<path d="M141.026 221.311H53.6273C52.4547 221.311 51.5166 220.372 51.5166 219.2C51.5166 218.027 52.4547 217.089 53.6273 217.089H141.026C142.198 217.089 143.137 218.027 143.137 219.2C143.137 220.372 142.198 221.311 141.026 221.311Z" fill="#D2D2D2"/>
<path d="M276.814 232.646H53.6273C52.4547 232.646 51.5166 231.708 51.5166 230.535C51.5166 229.363 52.4547 228.425 53.6273 228.425H276.892C278.065 228.425 279.003 229.363 279.003 230.535C279.003 231.708 277.987 232.646 276.814 232.646Z" fill="#D2D2D2"/>
<path d="M246.874 114.994C246.561 114.916 246.326 114.838 246.014 114.681C245.701 114.525 245.467 114.447 245.31 114.212C245.076 114.056 244.919 113.821 244.841 113.587C244.685 113.352 244.685 113.04 244.685 112.649C244.685 112.336 244.763 112.023 244.841 111.711C244.998 111.476 245.154 111.242 245.31 111.007C245.467 110.772 245.779 110.694 246.014 110.538C246.326 110.46 246.561 110.382 246.874 110.382V109.6H247.421V110.382C247.812 110.382 248.203 110.46 248.594 110.616C248.984 110.772 249.375 111.007 249.61 111.242L248.828 111.945C248.672 111.711 248.437 111.554 248.124 111.476C247.812 111.398 247.577 111.32 247.343 111.32V114.056C247.655 114.134 247.89 114.29 248.203 114.368C248.515 114.447 248.75 114.681 248.984 114.838C249.219 114.994 249.375 115.228 249.532 115.541C249.688 115.854 249.766 116.088 249.766 116.479C249.766 116.87 249.688 117.183 249.61 117.417C249.453 117.73 249.297 117.964 249.063 118.121C248.828 118.355 248.594 118.434 248.281 118.59C247.968 118.746 247.655 118.746 247.343 118.746V119.528H246.796V118.746C246.248 118.746 245.779 118.59 245.388 118.434C244.919 118.277 244.607 117.964 244.294 117.652L245.154 116.948C245.232 117.105 245.388 117.183 245.545 117.339C245.701 117.417 245.857 117.574 246.014 117.652C246.17 117.73 246.326 117.808 246.483 117.808C246.639 117.886 246.796 117.886 246.952 117.886V114.994H246.874ZM246.874 111.32C246.561 111.32 246.248 111.476 246.014 111.711C245.779 111.945 245.701 112.258 245.701 112.57C245.701 112.961 245.779 113.196 246.014 113.43C246.248 113.587 246.561 113.743 246.874 113.899V111.32ZM247.499 117.886C247.655 117.886 247.812 117.808 247.968 117.808C248.124 117.73 248.281 117.652 248.359 117.574C248.515 117.495 248.594 117.339 248.672 117.183C248.75 117.026 248.75 116.792 248.75 116.557C248.75 116.166 248.594 115.932 248.359 115.697C248.124 115.463 247.812 115.307 247.421 115.228V117.886H247.499Z" fill="#17A080"/>
<path d="M257.818 118.668H256.724V111.945L255.161 113.196L254.535 112.414L256.802 110.538H257.818V118.668Z" fill="#17A080"/>
<path d="M261.57 120.153H260.632L261.414 117.339H262.508L261.57 120.153Z" fill="#17A080"/>
<path d="M267.825 114.369C268.059 114.447 268.216 114.525 268.45 114.603C268.606 114.759 268.763 114.916 268.919 115.072C269.075 115.228 269.154 115.463 269.232 115.697C269.31 115.932 269.388 116.167 269.388 116.401C269.388 116.792 269.31 117.105 269.154 117.417C268.997 117.73 268.841 117.965 268.528 118.199C268.294 118.434 267.981 118.59 267.668 118.668C267.356 118.746 266.965 118.824 266.652 118.824C266.339 118.824 265.949 118.746 265.636 118.668C265.323 118.59 265.01 118.434 264.776 118.199C264.541 117.965 264.307 117.73 264.151 117.417C263.994 117.105 263.916 116.792 263.916 116.401C263.916 116.167 263.994 115.854 264.072 115.697C264.151 115.463 264.229 115.307 264.385 115.072C264.541 114.916 264.698 114.759 264.854 114.603C265.01 114.447 265.245 114.369 265.479 114.369C265.089 114.212 264.854 114.056 264.62 113.743C264.385 113.43 264.307 113.04 264.307 112.571C264.307 112.258 264.385 111.945 264.463 111.632C264.541 111.32 264.776 111.163 265.01 110.929C265.245 110.773 265.479 110.616 265.792 110.46C266.105 110.303 266.418 110.303 266.73 110.303C267.043 110.303 267.356 110.382 267.668 110.46C267.981 110.538 268.216 110.694 268.45 110.929C268.685 111.085 268.841 111.32 268.997 111.632C269.154 111.867 269.154 112.18 269.154 112.571C269.154 113.04 269.075 113.43 268.841 113.743C268.45 114.056 268.137 114.29 267.825 114.369ZM265.089 116.401C265.089 116.636 265.089 116.87 265.167 117.026C265.245 117.183 265.323 117.339 265.479 117.495C265.636 117.652 265.792 117.73 265.949 117.808C266.105 117.886 266.339 117.886 266.574 117.886C266.808 117.886 267.043 117.886 267.199 117.808C267.356 117.73 267.59 117.652 267.668 117.495C267.747 117.339 267.903 117.183 267.981 117.026C268.059 116.87 268.137 116.636 268.137 116.401C268.137 116.167 268.059 116.01 267.981 115.776C267.903 115.619 267.825 115.463 267.668 115.307C267.512 115.15 267.356 115.072 267.199 114.994C267.043 114.916 266.808 114.916 266.574 114.916C266.339 114.916 266.105 114.916 265.949 114.994C265.792 115.072 265.558 115.15 265.479 115.307C265.401 115.463 265.245 115.619 265.167 115.776C265.089 115.932 265.089 116.167 265.089 116.401ZM265.323 112.571C265.323 112.727 265.323 112.961 265.401 113.118C265.479 113.274 265.558 113.43 265.714 113.509C265.87 113.665 265.949 113.743 266.105 113.821C266.261 113.899 266.418 113.899 266.652 113.899C266.808 113.899 267.043 113.899 267.199 113.821C267.356 113.743 267.512 113.665 267.59 113.509C267.747 113.352 267.825 113.274 267.903 113.118C267.981 112.961 267.981 112.805 267.981 112.571C267.981 112.414 267.981 112.18 267.903 112.023C267.825 111.867 267.747 111.711 267.59 111.632C267.434 111.476 267.356 111.398 267.199 111.32C267.043 111.242 266.887 111.242 266.652 111.242C266.496 111.242 266.261 111.242 266.105 111.32C265.949 111.398 265.792 111.476 265.714 111.632C265.558 111.789 265.479 111.867 265.401 112.023C265.323 112.258 265.323 112.414 265.323 112.571Z" fill="#17A080"/>
<path d="M274.547 114.369C274.782 114.447 274.938 114.525 275.173 114.603C275.329 114.759 275.485 114.916 275.642 115.072C275.798 115.228 275.876 115.463 275.954 115.697C276.033 115.932 276.111 116.167 276.111 116.401C276.111 116.792 276.033 117.105 275.876 117.417C275.72 117.73 275.564 117.965 275.251 118.199C275.016 118.434 274.704 118.59 274.391 118.668C274.078 118.746 273.687 118.824 273.375 118.824C273.062 118.824 272.671 118.746 272.358 118.668C272.046 118.59 271.733 118.434 271.499 118.199C271.264 117.965 271.03 117.73 270.873 117.417C270.717 117.105 270.639 116.792 270.639 116.401C270.639 116.167 270.717 115.854 270.795 115.697C270.873 115.463 270.951 115.307 271.108 115.072C271.264 114.916 271.42 114.759 271.577 114.603C271.733 114.447 271.968 114.369 272.202 114.369C271.811 114.212 271.577 114.056 271.342 113.743C271.108 113.43 271.03 113.04 271.03 112.571C271.03 112.258 271.108 111.945 271.186 111.632C271.264 111.32 271.499 111.163 271.733 110.929C271.968 110.773 272.202 110.616 272.515 110.46C272.828 110.303 273.14 110.303 273.453 110.303C273.766 110.303 274.078 110.382 274.391 110.46C274.704 110.538 274.938 110.694 275.173 110.929C275.407 111.085 275.564 111.32 275.72 111.632C275.876 111.867 275.876 112.18 275.876 112.571C275.876 113.04 275.798 113.43 275.564 113.743C275.251 114.056 274.938 114.29 274.547 114.369ZM271.811 116.401C271.811 116.636 271.811 116.87 271.889 117.026C271.968 117.183 272.046 117.339 272.202 117.495C272.359 117.652 272.515 117.73 272.671 117.808C272.828 117.886 273.062 117.886 273.297 117.886C273.531 117.886 273.766 117.886 273.922 117.808C274.078 117.73 274.313 117.652 274.391 117.495C274.469 117.339 274.626 117.183 274.704 117.026C274.782 116.87 274.86 116.636 274.86 116.401C274.86 116.167 274.782 116.01 274.704 115.776C274.626 115.619 274.547 115.463 274.391 115.307C274.235 115.15 274.078 115.072 273.922 114.994C273.766 114.916 273.531 114.916 273.297 114.916C273.062 114.916 272.828 114.916 272.671 114.994C272.515 115.072 272.28 115.15 272.202 115.307C272.124 115.463 271.968 115.619 271.889 115.776C271.889 115.932 271.811 116.167 271.811 116.401ZM272.046 112.571C272.046 112.727 272.046 112.961 272.124 113.118C272.202 113.274 272.28 113.43 272.437 113.509C272.593 113.665 272.671 113.743 272.828 113.821C272.984 113.899 273.14 113.899 273.375 113.899C273.531 113.899 273.766 113.899 273.922 113.821C274.078 113.743 274.235 113.665 274.313 113.509C274.469 113.352 274.547 113.274 274.626 113.118C274.704 112.961 274.704 112.805 274.704 112.571C274.704 112.414 274.704 112.18 274.626 112.023C274.547 111.867 274.469 111.711 274.313 111.632C274.156 111.476 274.078 111.398 273.922 111.32C273.766 111.242 273.609 111.242 273.375 111.242C273.218 111.242 272.984 111.242 272.828 111.32C272.671 111.398 272.515 111.476 272.437 111.632C272.28 111.789 272.202 111.867 272.124 112.023C272.124 112.258 272.046 112.414 272.046 112.571Z" fill="#17A080"/>
<path d="M280.176 110.382C280.645 110.382 281.035 110.46 281.426 110.694C281.739 110.929 282.052 111.242 282.286 111.632C282.521 112.023 282.677 112.492 282.755 112.961C282.833 113.509 282.912 114.056 282.912 114.603C282.912 115.228 282.833 115.776 282.755 116.245C282.677 116.792 282.521 117.183 282.286 117.574C282.052 117.964 281.739 118.277 281.426 118.512C281.114 118.746 280.645 118.824 280.176 118.824C279.707 118.824 279.316 118.746 278.925 118.512C278.534 118.277 278.299 117.964 278.065 117.574C277.83 117.183 277.674 116.714 277.596 116.245C277.518 115.776 277.439 115.15 277.439 114.603C277.439 114.056 277.518 113.43 277.596 112.961C277.674 112.492 277.83 112.023 278.065 111.632C278.299 111.242 278.612 110.929 278.925 110.694C279.316 110.46 279.707 110.382 280.176 110.382ZM280.176 111.32C279.863 111.32 279.55 111.398 279.394 111.632C279.159 111.867 279.003 112.101 278.925 112.414C278.768 112.727 278.69 113.118 278.69 113.509C278.612 113.899 278.612 114.29 278.612 114.603C278.612 114.916 278.612 115.307 278.69 115.697C278.768 116.088 278.847 116.479 278.925 116.792C279.003 117.105 279.237 117.417 279.394 117.574C279.628 117.808 279.863 117.886 280.176 117.886C280.488 117.886 280.801 117.808 280.957 117.574C281.192 117.339 281.348 117.105 281.426 116.792C281.505 116.479 281.661 116.088 281.661 115.697C281.661 115.307 281.739 114.916 281.739 114.603C281.739 114.29 281.739 113.899 281.661 113.509C281.583 113.118 281.505 112.727 281.426 112.414C281.27 112.101 281.114 111.789 280.957 111.632C280.801 111.398 280.488 111.32 280.176 111.32Z" fill="#17A080"/>
<path d="M263.759 137.742C264.463 137.977 265.323 138.055 266.339 138.055C267.277 138.055 270.717 138.055 271.811 137.977C271.577 138.368 271.342 138.993 271.264 139.462H266.339C263.994 139.462 262.43 139.15 261.492 137.742C261.336 138.524 261.18 139.228 260.945 139.775C260.711 139.619 260.085 139.228 259.772 139.15C260.398 137.899 260.476 135.866 260.554 133.677L261.883 133.756C261.883 134.303 261.883 134.928 261.805 135.475C261.961 136.023 262.196 136.492 262.509 136.804V132.974H260.085V131.645H262.196V130.55H260.32V129.221H262.196V127.971H263.603V129.221H265.401V130.55H263.603V131.723H265.636V132.036C266.495 131.489 266.964 130.707 267.121 129.691H265.792V128.44H271.42C271.42 128.44 271.42 128.752 271.42 128.987C271.342 131.098 271.186 132.036 270.873 132.348C270.639 132.661 270.326 132.739 270.013 132.817C269.701 132.817 269.153 132.896 268.606 132.817C268.606 132.427 268.45 131.879 268.215 131.567C268.684 131.645 269.075 131.645 269.232 131.645C269.388 131.645 269.466 131.645 269.622 131.489C269.701 131.332 269.857 130.863 269.857 129.691H268.528C268.215 131.254 267.512 132.427 266.417 133.13C266.261 132.974 265.948 132.661 265.636 132.505V133.052H263.838V134.459H265.479V135.788H263.838V137.742H263.759ZM266.105 133.287H271.108V137.273H266.105V133.287ZM267.512 136.023H269.544V134.459H267.512V136.023Z" fill="#4B8FD9"/>
<path d="M284.163 130.394H280.411L281.584 130.629C281.349 131.098 281.036 131.567 280.802 131.958H283.538V138.368C283.538 139.072 283.382 139.306 282.912 139.541C282.443 139.697 281.74 139.697 280.724 139.697C280.645 139.384 280.489 138.915 280.333 138.602C280.958 138.602 281.662 138.602 281.896 138.602C282.131 138.602 282.209 138.524 282.209 138.368V133.13H280.255V133.443C280.255 133.678 280.255 133.834 280.489 133.834H281.114C281.271 133.834 281.662 133.834 281.818 133.756C281.818 134.068 281.818 134.381 281.896 134.772C281.74 134.85 281.349 134.85 281.114 134.85H280.098C279.082 134.85 278.926 134.381 278.926 133.443V133.13H277.988C277.831 134.068 277.44 134.694 276.346 135.085H280.958V138.212H277.284V138.759H276.033V135.241C275.877 135.241 275.72 135.319 275.564 135.319C275.486 135.006 275.173 134.616 274.939 134.381V139.697H273.453V131.88H276.111C275.955 131.489 275.72 131.02 275.564 130.629L276.424 130.394H272.984V129.143H277.988C277.909 128.831 277.831 128.518 277.675 128.205L279.16 127.814C279.316 128.205 279.473 128.753 279.629 129.143H284.32V130.394H284.163ZM274.939 134.303C276.111 134.068 276.502 133.756 276.659 133.13H274.939V134.303ZM279.473 131.958C279.707 131.489 280.02 130.863 280.098 130.394H276.893C277.128 130.785 277.362 131.332 277.518 131.645L276.737 131.958H279.473ZM277.284 136.179V137.195H279.786V136.179H277.284Z" fill="#4B8FD9"/>
<path d="M253.675 130.003V137.274H246.092V130.003H243.747V139.697H256.02V130.003H253.675Z" fill="#4B8FD9"/>
<path d="M257.036 128.127H242.652L242.105 132.036C241.949 133.287 242.809 134.459 244.06 134.616L244.607 134.694C245.858 134.85 247.03 133.99 247.187 132.739L247.265 131.958V132.505C247.265 133.756 248.281 134.772 249.532 134.772H250.079C251.33 134.772 252.346 133.756 252.346 132.505V131.723L252.424 132.583C252.581 133.834 253.753 134.694 255.004 134.537L255.551 134.459C256.802 134.303 257.662 133.13 257.506 131.88L257.036 128.127Z" fill="#4B8FD9"/>
</svg>
