<svg width="1022" height="723" viewBox="0 0 1022 723" fill="none" xmlns="http://www.w3.org/2000/svg">
<path opacity="0.07" d="M733.362 673.908C779.267 673.908 816.48 663.891 816.48 651.536C816.48 639.18 779.267 629.164 733.362 629.164C687.457 629.164 650.244 639.18 650.244 651.536C650.244 663.891 687.457 673.908 733.362 673.908Z" fill="black"/>
<g opacity="0.15">
<path d="M935.046 404.289C903.265 353.083 813.847 310.258 835.188 265.417C868.996 194.402 826.107 142.722 816.675 132.739C769.829 83.1484 679.051 49.2259 598.385 55.2501C556.286 58.4201 515.51 72.5332 485.793 103.043C472.974 116.209 460.179 124.796 447.42 130.127C375.228 160.333 304.37 86.6464 239.449 153.253C182.952 211.211 258.447 245.583 187.407 297.639C5.82702 430.705 122.62 621.852 122.911 622.532C122.911 622.617 122.984 622.787 122.984 622.787L123.057 622.957C123.494 624.317 883.393 624.135 935.556 624.135C936.284 622.435 1015.82 534.477 935.034 404.301L935.046 404.289Z" fill="#BDA786"/>
</g>
<g style="mix-blend-mode:multiply" opacity="0.1">
<path d="M702.225 105.581H446.461C435.224 105.581 426.115 114.695 426.115 125.937V593.492C426.115 604.734 435.224 613.848 446.461 613.848H702.225C713.461 613.848 722.57 604.734 722.57 593.492V125.937C722.57 114.695 713.461 105.581 702.225 105.581Z" fill="black"/>
</g>
<path d="M692.004 113.026H436.24C425.004 113.026 415.895 122.14 415.895 133.382V600.937C415.895 612.18 425.004 621.293 436.24 621.293H692.004C703.241 621.293 712.35 612.18 712.35 600.937V133.382C712.35 122.14 703.241 113.026 692.004 113.026Z" fill="black"/>
<path d="M687.913 119.366H440.307C429.312 119.366 420.398 128.284 420.398 139.285V601.314C420.398 612.315 429.312 621.232 440.307 621.232H687.913C698.909 621.232 707.822 612.315 707.822 601.314V139.285C707.822 128.284 698.909 119.366 687.913 119.366Z" fill="white"/>
<path opacity="0.19" d="M687.913 119.366H440.307C429.312 119.366 420.398 128.284 420.398 139.285V601.314C420.398 612.315 429.312 621.232 440.307 621.232H687.913C698.909 621.232 707.822 612.315 707.822 601.314V139.285C707.822 128.284 698.909 119.366 687.913 119.366Z" fill="white"/>
<path d="M486.776 118.99H641.456C641.456 118.99 641.541 119.026 641.541 119.075V128.148C641.541 137.208 634.197 144.556 625.141 144.556H503.092C494.036 144.556 486.691 137.208 486.691 128.148V119.075C486.691 119.075 486.728 118.99 486.776 118.99Z" fill="black"/>
<path opacity="0.06" d="M686.153 162.605H450.285C441.972 162.605 435.232 169.347 435.232 177.665V288.287C435.232 296.604 441.972 303.347 450.285 303.347H686.153C694.466 303.347 701.206 296.604 701.206 288.287V177.665C701.206 169.347 694.466 162.605 686.153 162.605Z" fill="black"/>
<path opacity="0.06" d="M586.792 316.877H350.925C342.611 316.877 335.872 323.62 335.872 331.938V442.559C335.872 450.877 342.611 457.62 350.925 457.62H586.792C595.106 457.62 601.845 450.877 601.845 442.559V331.938C601.845 323.62 595.106 316.877 586.792 316.877Z" fill="black"/>
<path opacity="0.06" d="M686.153 471.15H450.285C441.972 471.15 435.232 477.893 435.232 486.21V596.832C435.232 605.15 441.972 611.893 450.285 611.893H686.153C694.466 611.893 701.206 605.15 701.206 596.832V486.21C701.206 477.893 694.466 471.15 686.153 471.15Z" fill="black"/>
<path d="M681.734 158.839H445.866C437.553 158.839 430.813 165.582 430.813 173.9V284.522C430.813 292.839 437.553 299.582 445.866 299.582H681.734C690.047 299.582 696.787 292.839 696.787 284.522V173.9C696.787 165.582 690.047 158.839 681.734 158.839Z" fill="#A5A5A5"/>
<path d="M582.373 313.112H346.506C338.192 313.112 331.453 319.855 331.453 328.173V438.794C331.453 447.112 338.192 453.855 346.506 453.855H582.373C590.687 453.855 597.426 447.112 597.426 438.794V328.173C597.426 319.855 590.687 313.112 582.373 313.112Z" fill="#A5A5A5"/>
<path d="M574.981 321.225H353.911C346.335 321.225 340.193 327.37 340.193 334.95V432.709C340.193 440.289 346.335 446.434 353.911 446.434H574.981C582.557 446.434 588.698 440.289 588.698 432.709V334.95C588.698 327.37 582.557 321.225 574.981 321.225Z" fill="white"/>
<path d="M681.734 467.385H445.866C437.553 467.385 430.813 474.128 430.813 482.445V593.067C430.813 601.385 437.553 608.127 445.866 608.127H681.734C690.047 608.127 696.787 601.385 696.787 593.067V482.445C696.787 474.128 690.047 467.385 681.734 467.385Z" fill="#A5A5A5"/>
<path d="M497.07 276.287C522.077 276.287 542.35 256.004 542.35 230.984C542.35 205.964 522.077 185.681 497.07 185.681C472.062 185.681 451.79 205.964 451.79 230.984C451.79 256.004 472.062 276.287 497.07 276.287Z" fill="#6D6D6D"/>
<path d="M564.396 208.563H667.823" stroke="#6D6D6D" stroke-width="5.4" stroke-linecap="round" stroke-linejoin="round"/>
<path d="M564.396 230.984H667.823" stroke="#6D6D6D" stroke-width="5.4" stroke-linecap="round" stroke-linejoin="round"/>
<path d="M564.396 253.417H667.823" stroke="#6D6D6D" stroke-width="5.4" stroke-linecap="round" stroke-linejoin="round"/>
<path d="M455.857 508.546H504.269" stroke="#6D6D6D" stroke-width="5.4" stroke-linecap="round" stroke-linejoin="round"/>
<path d="M455.857 530.809H664.254" stroke="#6D6D6D" stroke-width="5.4" stroke-linecap="round" stroke-linejoin="round"/>
<path d="M455.857 553.072H669.862" stroke="#6D6D6D" stroke-width="5.4" stroke-linecap="round" stroke-linejoin="round"/>
<path d="M455.857 575.334H674.451" stroke="#6D6D6D" stroke-width="5.4" stroke-linecap="round" stroke-linejoin="round"/>
<g style="mix-blend-mode:multiply" opacity="0.1">
<path d="M410.25 336.675H378.918V422.325H410.25V336.675Z" fill="black"/>
<path d="M461.211 364.998H429.879V422.313H461.211V364.998Z" fill="black"/>
<path d="M512.16 386.362H480.828V422.325H512.16V386.362Z" fill="black"/>
<path d="M563.108 336.675H531.776V422.325H563.108V336.675Z" fill="black"/>
<path d="M575.345 419.264H366.693V427.681H575.345V419.264Z" fill="black"/>
</g>
<path d="M404.908 340.5H373.576V426.151H404.908V340.5Z" fill="url(#paint0_linear_743_26352)"/>
<path d="M455.857 368.824H424.525V426.139H455.857V368.824Z" fill="url(#paint1_linear_743_26352)"/>
<path d="M506.805 390.176H475.474V426.139H506.805V390.176Z" fill="url(#paint2_linear_743_26352)"/>
<path d="M557.766 340.5H526.435V426.151H557.766V340.5Z" fill="url(#paint3_linear_743_26352)"/>
<path d="M569.991 423.078H361.34V431.495H569.991V423.078Z" fill="url(#paint4_linear_743_26352)"/>
<g style="mix-blend-mode:multiply" opacity="0.1">
<path d="M452.421 482.798H228.232C218.678 482.798 210.945 490.546 210.945 500.093V617.516C210.945 627.075 218.69 634.811 228.232 634.811H452.421C461.975 634.811 469.708 627.062 469.708 617.516V500.093C469.708 490.534 461.963 482.798 452.421 482.798V482.798Z" fill="black"/>
</g>
<path d="M459.402 506.979C459.402 497.421 451.657 489.684 442.115 489.684H217.913C208.36 489.684 200.627 497.433 200.627 506.979V523.898H459.402V506.979V506.979Z" fill="#BDA786"/>
<path d="M200.627 523.91V624.402C200.627 633.961 208.372 641.698 217.913 641.698H442.103C451.657 641.698 459.389 633.949 459.389 624.402V523.91H200.627Z" fill="url(#paint5_linear_743_26352)"/>
<path d="M200.627 523.91V624.402C200.627 633.961 208.372 641.698 217.913 641.698H442.103C451.657 641.698 459.389 633.949 459.389 624.402V523.91H200.627Z" fill="#A5A5A5"/>
<path d="M341.504 580.824C341.14 574.691 339.367 568.788 336.442 563.541L341.455 560.748C338.943 556.242 335.677 552.149 331.78 548.675L327.969 552.975C323.562 549.052 318.245 546.027 312.2 544.291L313.766 538.789L313.693 538.764C309.492 537.574 305.256 537.003 301.092 537.003C300.182 537.003 299.283 537.027 298.385 537.088L298.725 542.821C292.594 543.185 286.695 544.946 281.438 547.861L278.646 542.845C274.143 545.359 270.052 548.614 266.58 552.513L270.865 556.339C266.944 560.748 263.909 566.067 262.173 572.116L256.686 570.549L256.65 570.658C255.46 574.861 254.89 579.1 254.89 583.266C254.89 584.164 254.914 585.051 254.962 585.938L260.692 585.597C261.044 591.731 262.805 597.634 265.718 602.893L260.704 605.674C263.205 610.192 266.471 614.285 270.367 617.759L274.191 613.472C278.598 617.395 283.903 620.443 289.948 622.168L288.37 627.67L288.516 627.706C292.716 628.896 296.953 629.467 301.116 629.467C302.051 629.467 302.974 629.443 303.896 629.382L303.544 623.649C309.675 623.273 315.562 621.512 320.818 618.573L323.611 623.589C328.114 621.075 332.205 617.807 335.665 613.897L331.368 610.083C335.276 605.674 338.311 600.354 340.035 594.294L345.522 595.848V595.812C346.724 591.61 347.294 587.371 347.282 583.205C347.282 582.282 347.258 581.371 347.197 580.46L341.468 580.8L341.504 580.824ZM291.065 618.731L291.344 617.735L291.065 618.731ZM324.655 589.921C321.608 600.707 311.775 607.751 301.116 607.751C298.907 607.751 296.673 607.447 294.44 606.816C283.66 603.767 276.619 593.929 276.619 583.266C276.619 581.055 276.923 578.82 277.554 576.585C280.601 565.8 290.434 558.756 301.092 558.756C303.301 558.756 305.535 559.059 307.769 559.691C318.548 562.74 325.589 572.577 325.589 583.241C325.589 585.452 325.286 587.687 324.655 589.921V589.921Z" fill="#6D6D6D"/>
<path d="M411.827 563.371L408.016 564.112C407.433 561.148 406.413 558.306 404.956 555.695L408.343 553.813C405.891 549.379 402.407 545.517 398.11 542.602L395.949 545.809C393.521 544.169 390.802 542.857 387.84 541.995L388.908 538.303L388.738 538.254C385.788 537.416 382.802 537.015 379.864 537.015C377.789 537.015 375.749 537.21 373.746 537.598L374.475 541.412C371.513 541.983 368.672 543.003 366.05 544.448L364.18 541.048C359.749 543.489 355.877 546.962 352.951 551.262L356.144 553.436C354.493 555.865 353.194 558.586 352.32 561.549L348.618 560.468L348.545 560.723C347.707 563.675 347.307 566.663 347.307 569.602C347.307 571.642 347.501 573.658 347.877 575.638L351.689 574.909C352.247 577.885 353.267 580.727 354.7 583.351L351.3 585.209C353.728 589.654 357.188 593.541 361.473 596.468L363.646 593.286C366.062 594.937 368.781 596.249 371.743 597.124L370.651 600.828L370.99 600.925C373.94 601.763 376.927 602.164 379.864 602.164C382.001 602.164 384.101 601.957 386.153 601.545L385.4 597.731C388.362 597.148 391.19 596.103 393.812 594.646L395.706 598.034C400.125 595.569 403.985 592.071 406.874 587.759L403.657 585.597C405.296 583.156 406.607 580.448 407.457 577.472L411.147 578.529L411.172 578.444C412.009 575.492 412.41 572.505 412.41 569.565C412.41 567.464 412.204 565.387 411.815 563.359L411.827 563.371ZM379.889 588.974C378.141 588.974 376.368 588.743 374.608 588.233C366.074 585.828 360.502 578.043 360.502 569.602C360.502 567.853 360.745 566.08 361.243 564.306C363.646 555.768 371.428 550.193 379.877 550.193C381.625 550.193 383.397 550.436 385.169 550.934C393.703 553.339 399.275 561.124 399.275 569.565C399.275 571.314 399.045 573.088 398.535 574.861C396.131 583.399 388.338 588.974 379.913 588.974H379.889Z" fill="#6D6D6D"/>
<g style="mix-blend-mode:multiply" opacity="0.1">
<path d="M193.841 228.895H343.714C351.24 228.895 357.346 235.004 357.346 242.534V341.496L334.731 313.902L193.841 311.011C186.315 311.011 180.209 304.902 180.209 297.372V242.522C180.209 234.992 186.315 228.883 193.841 228.883V228.895Z" fill="black"/>
</g>
<path d="M198.661 231.786H348.533C356.06 231.786 362.166 237.895 362.166 245.425V341.508L339.55 313.914H198.661C191.134 313.914 185.028 307.805 185.028 300.274V245.425C185.028 237.895 191.134 231.786 198.661 231.786V231.786Z" fill="url(#paint6_linear_743_26352)"/>
<path d="M258.241 288.335C257.889 287.886 257.683 287.351 257.61 286.732C257.537 286.113 257.598 285.53 257.792 284.983C257.986 284.437 258.314 283.975 258.763 283.599C259.212 283.222 259.758 283.04 260.402 283.04C260.9 283.04 261.397 283.21 261.895 283.562C262.393 283.914 262.939 284.327 263.534 284.825C264.129 285.323 264.796 285.858 265.549 286.428C266.289 286.999 267.139 287.534 268.086 288.032L269.421 288.7L269.494 274.769C268.547 274.319 267.382 273.773 265.998 273.129C264.602 272.485 263.291 271.672 262.053 270.712C260.815 269.74 259.746 268.599 258.848 267.287C257.95 265.975 257.513 264.469 257.513 262.781C257.513 261.445 257.78 260.133 258.326 258.87C258.872 257.607 259.649 256.453 260.669 255.409C261.689 254.364 262.939 253.502 264.432 252.797C265.925 252.105 267.613 251.631 269.494 251.376V248.838C269.494 247.15 269.664 245.668 270.016 244.405C270.368 243.142 271.23 242.51 272.626 242.51C273.962 242.51 274.811 243.093 275.163 244.259C275.515 245.425 275.685 246.81 275.685 248.389C275.685 248.935 275.673 249.457 275.649 249.955C275.625 250.453 275.612 250.976 275.612 251.522C276.256 251.619 277.166 251.85 278.332 252.19C279.497 252.542 280.662 252.967 281.828 253.49C282.993 254.012 284.001 254.631 284.838 255.348C285.676 256.065 286.101 256.878 286.101 257.765C286.101 258.506 285.834 259.174 285.288 259.745C284.741 260.316 284.025 260.607 283.127 260.607C282.532 260.607 281.889 260.486 281.197 260.23C280.505 259.988 279.801 259.708 279.109 259.417C278.417 259.113 277.761 258.822 277.13 258.518C276.511 258.214 276.001 257.996 275.6 257.85C275.552 260.036 275.54 262.198 275.564 264.336C275.588 266.473 275.576 268.659 275.527 270.894C277.118 271.489 278.708 272.109 280.298 272.753C281.889 273.396 283.321 274.198 284.62 275.133C285.907 276.08 286.963 277.198 287.788 278.485C288.614 279.773 289.014 281.315 289.014 283.101C289.014 285.19 288.602 286.951 287.788 288.396C286.975 289.841 285.919 291.044 284.62 292.015C283.333 292.987 281.876 293.74 280.262 294.287C278.647 294.833 277.045 295.258 275.455 295.55C275.455 296.388 275.455 297.25 275.455 298.125C275.455 298.999 275.479 299.874 275.527 300.772C275.285 301.72 274.872 302.412 274.301 302.861C273.731 303.311 273.124 303.529 272.481 303.529C271.582 303.529 270.927 303.274 270.502 302.752C270.077 302.23 269.798 301.574 269.64 300.772C269.494 299.983 269.421 299.084 269.421 298.088C269.421 297.092 269.397 296.157 269.349 295.258L269.276 295.185C267.734 294.785 266.411 294.372 265.294 293.922C264.177 293.473 263.206 292.963 262.393 292.392C261.567 291.821 260.839 291.202 260.195 290.534C259.552 289.866 258.909 289.137 258.265 288.335H258.241ZM269.482 257.789C269.033 257.935 268.535 258.093 267.989 258.239C267.443 258.384 266.909 258.615 266.387 258.907C265.865 259.21 265.379 259.575 264.93 260.024C264.481 260.473 264.141 261.044 263.886 261.737C263.886 263.182 264.444 264.457 265.561 265.575C266.678 266.692 267.977 267.627 269.47 268.368V257.789H269.482ZM275.515 277.234C275.515 279.275 275.515 281.279 275.479 283.271C275.455 285.262 275.443 287.242 275.443 289.234C276.292 289.137 277.13 288.918 277.98 288.602C278.817 288.275 279.813 287.801 280.954 287.145C281.852 286.404 282.398 285.53 282.593 284.534C282.787 283.538 282.544 282.542 281.852 281.558C280.857 280.72 279.898 279.955 278.987 279.287C278.065 278.619 276.911 277.939 275.527 277.234H275.515Z" fill="white"/>
<path d="M730.777 587.274C734.079 585.403 737.587 583.934 741.095 582.5C741.811 582.209 742.734 582.5 743.171 583.132C744.955 585.707 747.056 587.954 749.508 589.897C750.248 590.48 750.345 591.695 749.726 592.399C749.156 593.055 748.597 593.735 748.063 594.427C747.966 594.95 747.662 595.448 747.08 595.751C746.582 596.468 746.109 597.209 745.647 597.95C739.213 596.48 732.78 593.48 728.288 588.768C729.114 588.233 729.939 587.735 730.764 587.274H730.777Z" fill="url(#paint7_linear_743_26352)"/>
<path d="M722.765 593.905C724.149 591.828 726.164 590.164 728.301 588.78C732.792 593.504 739.226 596.504 745.66 597.962C745.405 598.387 745.15 598.8 744.907 599.237C744.798 599.431 744.664 599.601 744.519 599.735C744.397 600.391 744.337 601.047 744.337 601.666C744.337 604.569 745.514 607.229 746.607 609.864C747.736 612.573 749.326 615.937 748.962 618.949C748.61 621.852 745.66 623.504 742.904 623.079C739.699 622.581 737.32 619.702 735.111 617.577C732.537 615.099 730.012 612.597 727.597 609.974C723.591 605.601 718.771 599.905 722.765 593.917V593.905Z" fill="#563501"/>
<path d="M719.196 596.869C719.499 596.468 719.985 596.164 720.373 595.848C720.786 595.52 721.199 595.192 721.612 594.865C722.449 594.197 723.36 594.913 723.469 595.751C723.469 595.751 723.469 595.763 723.481 595.775L727.366 602.261C727.426 602.371 727.475 602.48 727.511 602.589C728.009 603.403 728.531 604.217 729.065 605.006C731.372 607.921 736.676 614.261 736.822 614.407C739.299 616.799 741.981 619.909 745.538 620.504C745.635 620.504 745.732 620.528 745.817 620.552C746.024 620.577 746.23 620.601 746.449 620.613C746.582 620.613 746.704 620.662 746.825 620.722C748.051 621.196 747.48 622.666 746.157 623.042C744.713 623.771 743.11 623.868 741.593 623.212C740.986 622.957 740.428 622.581 739.893 622.204C739.796 622.168 739.699 622.119 739.602 622.046C738.874 621.536 738.157 621.014 737.466 620.467C737.441 620.455 737.429 620.443 737.405 620.431C737.393 620.431 737.381 620.407 737.368 620.394C736.846 619.982 736.337 619.569 735.839 619.131C735.79 619.095 735.754 619.034 735.705 618.986C735.208 618.585 734.722 618.172 734.224 617.771C733.945 617.771 733.217 616.933 732.974 616.739C731.457 615.561 730.583 614.261 729.356 612.791C726.856 610.047 724.489 607.848 722.473 604.739C721.442 603.148 720.483 601.508 719.584 599.832C719.087 598.897 718.419 597.852 719.184 596.869H719.196Z" fill="#3D3D3D"/>
<path d="M709.995 637.593C711.925 634.325 714.231 631.301 716.55 628.301C717.023 627.682 717.97 627.487 718.662 627.815C721.491 629.163 724.441 630.05 727.536 630.512C728.471 630.645 729.151 631.653 728.969 632.576C728.799 633.439 728.653 634.301 728.544 635.163C728.726 635.661 728.701 636.244 728.362 636.803C728.277 637.677 728.24 638.552 728.228 639.426C721.916 641.37 714.85 641.977 708.599 640.131C709.036 639.256 709.521 638.406 709.995 637.593V637.593Z" fill="url(#paint8_linear_743_26352)"/>
<path d="M706.365 647.333C706.523 644.843 707.445 642.39 708.599 640.131C714.85 641.977 721.915 641.37 728.228 639.427C728.228 639.924 728.204 640.41 728.216 640.908C728.216 641.139 728.192 641.346 728.131 641.528C728.349 642.159 728.628 642.754 728.932 643.289C730.377 645.803 732.732 647.515 734.99 649.252C737.32 651.038 740.367 653.151 741.569 655.957C742.71 658.653 740.974 661.556 738.376 662.564C735.354 663.742 731.858 662.43 728.883 661.689C725.424 660.827 721.976 659.928 718.577 658.847C712.92 657.062 705.916 654.536 706.377 647.345L706.365 647.333Z" fill="#563501"/>
<path d="M704.738 651.681C704.811 651.183 705.078 650.673 705.26 650.212C705.454 649.726 705.648 649.228 705.83 648.742C706.219 647.746 707.372 647.916 707.882 648.584C707.882 648.584 707.894 648.584 707.906 648.584L714.51 652.264C714.619 652.325 714.716 652.398 714.801 652.483C715.639 652.945 716.501 653.382 717.363 653.807C720.823 655.179 728.568 658.034 728.774 658.082C732.112 658.92 735.997 660.268 739.372 659.017C739.456 658.969 739.541 658.932 739.639 658.908C739.833 658.823 740.027 658.738 740.209 658.641C740.331 658.58 740.464 658.556 740.585 658.556C741.884 658.349 742.127 659.916 741.168 660.9C740.282 662.248 738.934 663.147 737.296 663.329C736.64 663.402 735.972 663.365 735.317 663.305C735.208 663.317 735.098 663.329 734.989 663.305C734.103 663.232 733.217 663.135 732.343 663.001C732.319 663.001 732.294 663.001 732.27 663.001C732.258 663.001 732.234 663.001 732.221 663.001C731.566 662.904 730.91 662.795 730.267 662.673C730.206 662.661 730.146 662.637 730.085 662.612C729.454 662.515 728.822 662.406 728.203 662.297C727.961 662.442 726.917 662.066 726.601 662.029C724.707 661.774 723.299 661.07 721.49 660.414C717.958 659.285 714.814 658.568 711.512 656.868C709.824 656.005 708.173 655.058 706.571 654.062C705.673 653.503 704.58 652.932 704.75 651.681H704.738Z" fill="#3D3D3D"/>
<path d="M793.623 516.441C787.225 488.239 771.08 463.559 762.254 436.183C761.235 433.037 757.569 432.928 755.736 434.616C755.651 434.616 755.578 434.58 755.493 434.58C749.35 434.203 743.633 436.244 737.818 437.713C738.303 441.296 738.765 444.891 739.202 448.474C742.03 471.624 743.79 494.822 742.929 518.287C745.065 522.914 746.922 527.688 748.44 532.619C748.683 533.396 749.095 533.979 749.593 534.404C745.854 541.096 742.54 547.983 739.7 555.1C739.554 555.452 739.42 555.817 739.287 556.193C739.226 556.8 739.165 557.408 739.105 558.015C738.206 567.306 737.077 576.598 737.66 585.877C740.695 588.719 743.718 591.573 746.753 594.415C749.617 597.099 754.352 590.674 754.801 590.091C764.792 577.326 774.794 564.561 784.785 551.809C788.5 547.06 792.894 542.287 794.63 536.359C796.524 529.874 795.079 522.854 793.623 516.441V516.441Z" fill="#A0A0A0"/>
<path d="M794.132 516.441C787.735 488.239 771.59 463.559 762.764 436.183C761.744 433.037 758.078 432.928 756.245 434.616C756.16 434.616 756.088 434.58 756.003 434.58C749.86 434.203 744.142 436.244 738.328 437.713C738.813 441.296 739.274 444.891 739.711 448.474C750.6 469.17 752.215 495.15 746.595 519.526C745.502 522.805 757.532 528.283 755.347 537.028C752.361 546.003 745.733 551.347 739.614 558.015C738.716 567.306 737.587 576.598 738.17 585.877C741.205 588.719 744.227 591.573 747.262 594.415C750.127 597.099 754.861 590.662 755.311 590.091C765.301 577.326 775.304 564.561 785.295 551.809C789.009 547.06 793.404 542.287 795.14 536.359C797.034 529.874 795.589 522.854 794.132 516.441V516.441Z" fill="#A0A0A0"/>
<path opacity="0.24" d="M746.594 519.526C752.215 495.15 750.6 469.183 739.711 448.474C742.54 471.624 744.3 494.822 743.438 518.287C745.575 522.914 747.432 527.688 748.949 532.619C749.192 533.396 749.605 533.979 750.103 534.404C746.364 541.096 743.05 547.983 740.209 555.1C740.063 555.452 739.93 555.817 739.796 556.193C739.736 556.8 739.675 557.408 739.614 558.015C745.732 551.347 752.348 546.003 755.347 537.028C757.532 528.271 745.502 522.805 746.594 519.526V519.526Z" fill="#1F2121"/>
<path d="M739.796 556.181C739.772 556.254 739.736 556.327 739.711 556.4C740.67 542.821 741.593 529.194 742.164 515.566C742.601 516.465 743.013 517.376 743.438 518.275C744.434 491.178 741.945 464.434 738.328 437.701C734.929 438.564 731.493 439.232 727.924 439.098C725.885 439.025 724.707 440.288 724.355 441.819C717.059 442.062 709.776 441.697 702.504 440.616C701.278 440.434 700.234 440.774 699.433 441.394C697.26 440.932 694.723 442.122 694.82 444.976C696.556 497.688 697.746 550.485 702.747 603.026C702.771 603.245 702.808 603.439 702.844 603.634C703.123 607.265 703.403 610.909 703.682 614.54C703.949 618.05 705.478 631.192 706.729 633.548C707.651 635.273 709.169 635.321 711.22 635.139C712.932 635.662 714.874 635.686 716.562 635.795C720.313 636.038 724.719 636.5 728.446 635.747C732.586 634.908 733.751 631.811 733.994 628.277C734.455 627.694 737.83 589.278 737.83 589.278C737.866 588.622 738.012 585.743 738.17 585.889C737.551 575.99 738.874 566.092 739.796 556.193V556.181Z" fill="#A0A0A0"/>
<path opacity="0.21" d="M711.608 627.815C710.516 628.908 707.238 627.815 706.146 625.629C701.776 607.034 714.898 591.719 710.516 573.124C702.613 537.538 716.136 494.797 695.402 463.486C696.871 510.052 698.328 556.643 702.747 603.039C702.771 603.257 702.807 603.451 702.844 603.646C703.123 607.277 703.402 610.921 703.681 614.552C703.948 618.063 705.587 631.155 706.728 633.56C707.7 635.613 714.874 635.698 716.561 635.807C720.312 636.05 724.719 636.512 728.446 635.759C732.294 634.981 733.569 632.249 733.921 629.018C727.875 624.84 719.73 624.427 711.596 627.828L711.608 627.815Z" fill="#1F2121"/>
<path d="M790.114 491.518C787.674 491.542 786.206 490.061 785.247 488.117C784.664 487.267 784.19 486.332 783.838 485.445C781.326 479.105 781.022 472.061 781.35 465.199C781.471 462.624 781.69 460.049 781.908 457.474C781.787 456.09 781.641 454.717 781.495 453.332C781.228 452.422 781.083 451.486 781.071 450.527C780.536 447.223 780.488 443.859 780.974 440.495C780.986 439.28 781.022 438.066 781.095 436.851C781.095 436.754 781.131 436.669 781.156 436.584C781.119 435.345 781.58 434.167 782.503 433.256C782.624 433.134 782.746 433.037 782.867 432.94C783.122 431.968 784.166 431.361 785.174 431.689C785.392 431.616 785.611 431.556 785.829 431.507C786.011 431.422 786.193 431.337 786.363 431.252C786.898 430.997 787.444 430.717 788.014 430.584C788.779 430.402 789.483 430.499 790.09 430.803C790.697 430.681 791.304 430.523 791.887 430.28C792.639 429.977 793.258 430.681 793.307 431.337C793.841 437.446 794.254 443.58 794.63 449.713C794.752 450.272 794.788 450.843 794.727 451.426C794.861 453.83 795.031 456.235 795.14 458.652C795.346 463.219 795.516 467.786 795.638 472.352C795.747 476.482 796.22 480.879 795.638 485.02C795.431 486.466 794.897 487.996 794.023 489.174C793.356 490.559 792.178 491.53 790.114 491.542V491.518Z" fill="url(#paint9_linear_743_26352)"/>
<path d="M767.219 338.205C765.034 332.739 763.942 325.076 767.219 318.517C767.231 318.493 767.256 318.468 767.268 318.456C766.418 317.934 765.556 317.448 764.67 317.011C753.38 311.533 737.939 309.833 725.254 313.598C719.645 313.088 713.94 313.562 708.538 315.165C707.069 315.602 705.624 316.124 704.216 316.707C706.486 317.205 708.61 318.505 710.371 320.715C714.741 328.367 711.463 336.031 710.371 343.683C704.908 361.184 688.508 376.5 692.878 394.002C693.97 396.188 699.433 389.629 703.815 386.35C711.463 377.593 721.308 362.277 733.338 365.569C735.523 366.662 743.183 371.034 740.986 376.512C730.704 400.815 712.653 416.179 691.19 432.284C691.166 432.479 691.081 435.054 691.081 435.26L690.936 453.503C690.936 456.15 692.659 457.681 694.662 458.118C695.718 459.563 697.552 459.175 699.712 459.952C709.485 463.45 724.416 465.247 736.749 464.482C748.901 463.729 760.895 461.409 772.476 457.693C772.925 457.547 773.313 457.365 773.677 457.134C774.248 460.025 774.916 462.867 775.741 465.624C773.58 423.102 787.395 379.633 767.231 338.229L767.219 338.205Z" fill="#BDA786"/>
<path opacity="0.08" d="M751.924 459.624C732.246 461.81 715.845 457.438 701.63 443.215C699.919 441.503 695.5 439.122 691.045 439.754L690.936 453.466C690.936 456.114 692.659 457.644 694.662 458.081C695.718 459.527 697.552 459.138 699.712 459.915C709.485 463.413 724.416 465.211 736.749 464.446C743.535 464.021 750.273 463.098 756.913 461.725C755.432 460.207 753.902 459.126 751.924 459.624Z" fill="black"/>
<path opacity="0.08" d="M708.185 373.208C703.815 357.893 719.123 345.857 714.74 330.541C714.182 329.412 713.393 328.294 712.458 327.262C713.029 332.727 711.147 338.205 710.37 343.67C704.907 361.172 688.507 376.488 692.877 393.989C693.97 396.176 699.433 389.617 703.815 386.338C711.463 377.581 721.308 362.265 733.338 365.557C734.212 365.994 735.972 366.966 737.623 368.326C737.574 367.063 737.271 365.775 736.615 364.464C728.968 349.148 718.03 369.929 708.185 373.221V373.208Z" fill="black"/>
<path d="M798.332 469.243C798.49 468.721 798.563 466.316 798.514 465.648C797.774 453.248 797.701 429.151 797.24 428.434C797.191 409.888 796.706 391.645 795.965 373.123C795.261 355.549 790.15 341.691 779.686 328.185C779.492 327.93 779.286 327.723 779.079 327.529C776.894 324.893 775.668 323.29 772.718 321.092C771.225 319.987 762.885 314.558 759.911 316.598C759.899 316.622 764.609 318.966 764.597 318.991C761.781 322.051 762.023 327.213 765.313 338.205C785.477 379.609 771.65 423.078 773.823 465.6C774.066 466.413 774.321 467.227 774.588 468.029C775.267 470.057 779.953 476.944 782.187 477.83C785.634 479.203 789.373 478.024 792.821 477.223C795.382 476.64 797.373 476.081 798.611 473.288C799.182 472 798.927 470.604 798.344 469.243H798.332Z" fill="#BDA786"/>
<path opacity="0.08" d="M798.514 468.199C796.754 469.28 797.276 470.555 795.65 469.474C784.712 458.531 780.342 442.122 783.619 427.9C789.483 395.641 791.826 362.52 767.292 342.565C784.506 382.658 771.723 424.56 773.811 465.6C774.054 466.413 774.309 467.227 774.576 468.029C775.255 470.057 779.941 476.944 782.175 477.83C785.622 479.203 789.361 478.024 792.809 477.223C795.37 476.64 797.361 476.081 798.599 473.288C799.17 472 798.915 470.604 798.332 469.243C798.429 468.927 798.49 468.563 798.514 468.199V468.199Z" fill="black"/>
<path d="M758.333 339.48H722.546C720.609 339.48 719.038 341.052 719.038 342.99V387.2C719.038 389.139 720.609 390.71 722.546 390.71H758.333C760.271 390.71 761.841 389.139 761.841 387.2V342.99C761.841 341.052 760.271 339.48 758.333 339.48Z" fill="white"/>
<path d="M747.153 355.658C748.889 357.371 748.889 359.46 748.185 361.512C747.991 362.52 747.675 363.516 747.287 364.391C744.58 370.646 739.821 375.856 734.735 380.471C732.829 382.208 730.85 383.872 728.871 385.536C727.985 386.605 727.111 387.686 726.237 388.755C725.788 389.593 725.23 390.346 724.55 391.038C722.595 393.759 720.24 396.163 717.521 398.204C716.647 399.054 715.773 399.88 714.863 400.694C714.79 400.767 714.705 400.791 714.632 400.839C713.782 401.738 712.617 402.248 711.33 402.236C711.16 402.236 711.002 402.224 710.844 402.212C709.983 402.722 708.805 402.418 708.319 401.471C708.113 401.362 707.919 401.252 707.725 401.143C707.543 401.082 707.348 401.009 707.166 400.949C706.608 400.754 706.025 400.56 705.527 400.244C704.86 399.831 704.435 399.261 704.216 398.629C703.694 398.289 703.16 397.973 702.578 397.73C701.825 397.414 701.898 396.479 702.323 395.969C706.268 391.269 710.298 386.641 714.377 382.038C714.68 381.552 715.069 381.127 715.518 380.763C717.12 378.965 718.711 377.143 720.337 375.358C723.409 371.982 726.529 368.642 729.673 365.326C732.513 362.326 735.281 358.877 738.619 356.362C739.785 355.488 741.254 354.784 742.698 354.565C744.143 354.055 745.66 354.201 747.141 355.658H747.153Z" fill="url(#paint10_linear_743_26352)"/>
<path d="M740.986 376.488C743.171 371.022 735.523 366.638 733.338 365.545C721.308 362.265 711.475 377.581 703.815 386.326C699.445 389.605 693.97 396.176 692.877 393.977C691.008 382.791 704.908 361.16 710.37 343.658C711.463 336.007 714.74 328.343 710.37 320.691C708.598 318.481 706.473 317.181 704.216 316.683C696.204 320.011 689.272 325.683 684.21 332.739C681.697 336.249 679.876 339.954 678.565 343.792C677.57 345.468 676.647 347.193 675.822 348.978C673.491 353.156 671.949 359.156 670.638 363.941C668.356 372.261 668.174 380.192 666.559 388.67C665.188 395.86 665.248 397.827 665.103 405.163C663.767 419.701 668.55 430.56 684.902 433.535C686.698 433.863 692.465 433.159 694.079 432.527C694.431 432.394 695.22 431.956 695.524 431.726C716.695 415.718 730.825 400.548 740.998 376.488H740.986Z" fill="#BDA786"/>
<path opacity="0.08" d="M725.678 385.245C716.926 399.467 712.556 415.876 697.248 424.62C688.496 428.993 679.755 422.434 677.57 416.969C668.818 394.002 681.94 371.022 680.848 348.055C680.35 345.577 680.083 343.112 679.731 340.743C679.306 341.751 678.905 342.772 678.553 343.804C677.558 345.48 676.635 347.205 675.81 348.99C673.479 353.168 671.937 359.168 670.626 363.953C668.344 372.273 668.162 380.204 666.548 388.682C665.176 395.872 665.237 397.84 665.091 405.175C663.756 419.714 668.538 430.572 684.89 433.547C686.687 433.875 692.453 433.171 694.068 432.539C694.42 432.406 695.209 431.968 695.512 431.738C716.367 415.961 730.388 400.997 740.525 377.556C735.256 376.488 728.944 381.176 725.678 385.257V385.245Z" fill="black"/>
<path d="M733.557 332.023C728.798 334.671 724.95 332.764 722.619 329.691C718.589 325.148 718.164 319.294 717.169 313.683C717.533 313.914 717.909 314.145 718.285 314.363C717.472 313.367 717.011 312.687 717.035 312.687C719.427 312.128 721.672 309.529 721.114 295.319L722.206 295.489L740.61 298.465C740.61 298.465 740.391 304.234 740.573 309.651C740.634 311.473 740.743 313.258 740.913 314.776C740.986 314.752 741.059 314.715 741.132 314.691C740.27 321.408 740.925 328.197 733.557 332.011V332.023Z" fill="url(#paint11_linear_743_26352)"/>
<path d="M756.221 302.023C756.221 302.023 720.458 318.736 710.407 296.291C700.355 273.846 688.957 260.886 711.366 249.275C733.775 237.664 742.078 244.223 747.262 250.891C752.445 257.571 765.277 297.104 756.233 302.023H756.221Z" fill="url(#paint12_linear_743_26352)"/>
<path d="M745.235 255.712C745.235 255.712 741.399 280.489 735.924 279.323C730.449 278.145 725.472 277.259 725.836 284.752C726.2 292.246 725.909 301.246 708.768 302.266C691.615 303.286 676.975 261.822 682.134 254.182C697.005 232.138 766.442 228.871 745.247 255.712H745.235Z" fill="#182420"/>
<defs>
<linearGradient id="paint0_linear_743_26352" x1="327.313" y1="342.759" x2="581.905" y2="509.338" gradientUnits="userSpaceOnUse">
<stop stop-color="#BDA786"/>
<stop offset="1" stop-color="#BDA786"/>
</linearGradient>
<linearGradient id="paint1_linear_743_26352" x1="336.114" y1="329.314" x2="590.694" y2="495.893" gradientUnits="userSpaceOnUse">
<stop stop-color="#BDA786"/>
<stop offset="1" stop-color="#BDA786"/>
</linearGradient>
<linearGradient id="paint2_linear_743_26352" x1="346.505" y1="313.428" x2="601.097" y2="480.007" gradientUnits="userSpaceOnUse">
<stop stop-color="#BDA786"/>
<stop offset="1" stop-color="#BDA786"/>
</linearGradient>
<linearGradient id="paint3_linear_743_26352" x1="373.175" y1="272.68" x2="627.755" y2="439.258" gradientUnits="userSpaceOnUse">
<stop stop-color="#BDA786"/>
<stop offset="1" stop-color="#BDA786"/>
</linearGradient>
<linearGradient id="paint4_linear_743_26352" x1="330.105" y1="338.496" x2="584.685" y2="505.075" gradientUnits="userSpaceOnUse">
<stop stop-color="#BDA786"/>
<stop offset="1" stop-color="#BDA786"/>
</linearGradient>
<linearGradient id="paint5_linear_743_26352" x1="170.752" y1="511.254" x2="583.544" y2="688.888" gradientUnits="userSpaceOnUse">
<stop stop-color="#F5E8C2"/>
<stop offset="1" stop-color="#FBE6C1"/>
</linearGradient>
<linearGradient id="paint6_linear_743_26352" x1="275.988" y1="314.072" x2="271.164" y2="231.239" gradientUnits="userSpaceOnUse">
<stop stop-color="#BDA786"/>
<stop offset="1" stop-color="#BDA786"/>
</linearGradient>
<linearGradient id="paint7_linear_743_26352" x1="750.62" y1="591.785" x2="728.962" y2="588.081" gradientUnits="userSpaceOnUse">
<stop stop-color="#E1CDB4"/>
<stop offset="1" stop-color="#E0D4AF"/>
</linearGradient>
<linearGradient id="paint8_linear_743_26352" x1="728.403" y1="632.814" x2="707.783" y2="640.409" gradientUnits="userSpaceOnUse">
<stop stop-color="#E1CDB4"/>
<stop offset="1" stop-color="#E0D4AF"/>
</linearGradient>
<linearGradient id="paint9_linear_743_26352" x1="786.692" y1="450.284" x2="791.555" y2="477.852" gradientUnits="userSpaceOnUse">
<stop offset="0.21" stop-color="#FBD3B7"/>
<stop offset="1" stop-color="#FBD2C1"/>
</linearGradient>
<linearGradient id="paint10_linear_743_26352" x1="720.265" y1="387.249" x2="736.336" y2="364.313" gradientUnits="userSpaceOnUse">
<stop offset="0.21" stop-color="#FBD3B7"/>
<stop offset="1" stop-color="#FBD2C1"/>
</linearGradient>
<linearGradient id="paint11_linear_743_26352" x1="743.004" y1="309.816" x2="717.517" y2="314.588" gradientUnits="userSpaceOnUse">
<stop stop-color="#FBD3B7"/>
<stop offset="1" stop-color="#FBD2C1"/>
</linearGradient>
<linearGradient id="paint12_linear_743_26352" x1="702.941" y1="253.97" x2="755.823" y2="292.213" gradientUnits="userSpaceOnUse">
<stop stop-color="#FBD3B7"/>
<stop offset="1" stop-color="#FBD2C1"/>
</linearGradient>
</defs>
</svg>
