<svg width="522" height="307" viewBox="0 0 522 307" fill="none" xmlns="http://www.w3.org/2000/svg">
<path d="M20.5598 1H500.939C512.274 1 521.421 10.2245 521.421 21.4816V286.101C521.421 297.436 512.196 306.582 500.939 306.582H20.5598C9.22454 306.582 0 297.358 0 286.101V21.5598C0.078174 10.2245 9.22454 1 20.5598 1Z" fill="#E9E9E9"/>
<path d="M501.259 0.928223H20.8791C9.54382 1.0064 0.397461 10.1528 0.397461 21.488V286.107C0.397461 297.442 9.622 306.589 20.9572 306.589H501.259C512.594 306.589 521.74 297.364 521.818 286.107V21.488C521.74 10.1528 512.594 1.0064 501.259 0.928223ZM515.173 282.12C515.173 293.065 506.262 301.976 495.239 301.976H26.9766C16.0323 301.976 7.12043 293.065 7.04225 282.12V27.1165C7.04225 16.1722 15.9541 7.26032 26.8985 7.26032H495.161C506.105 7.26032 515.017 16.1722 515.095 27.1165L515.173 282.12Z" fill="white"/>
<path d="M254.463 64.7964H34.1689V103.649H254.463V64.7964Z" fill="#DDDFE2"/>
<path d="M489.22 64.7964H268.926V103.649H489.22V64.7964Z" fill="#DDDFE2"/>
<path d="M129.15 81.2913C130.089 82.6202 131.73 83.9492 133.216 84.5746C133.059 84.7309 132.825 85.0436 132.747 85.2C131.261 84.4964 129.776 83.2456 128.76 81.9948C127.743 83.2456 126.102 84.5746 124.773 85.2781C124.695 85.1218 124.46 84.8873 124.304 84.7309C125.476 84.1837 126.962 83.0893 127.9 81.9948H126.18V81.2913H129.15ZM129.15 88.8741H132.903V89.4995H124.695V88.8741H128.369V87.2325H125.633V86.6071H128.369V85.1218H126.102V84.4964H131.496V85.1218H129.15V86.6071H131.887V87.2325H129.15V88.8741Z" fill="#1E1E1E"/>
<path d="M141.814 84.8872C141.345 85.2781 140.876 85.669 140.329 85.9817C140.798 87.2324 141.658 88.3269 142.909 88.7959C142.752 88.9523 142.518 89.1868 142.44 89.4213C141.189 88.8741 140.329 87.7797 139.782 86.3725C139.626 86.4507 139.469 86.5289 139.313 86.607C139.626 87.8578 139.391 89.0304 138.844 89.4213C138.531 89.6558 138.297 89.734 137.828 89.734C137.593 89.734 137.28 89.734 136.968 89.734C136.968 89.4995 136.889 89.265 136.811 89.0304C137.124 89.0304 137.515 89.1086 137.671 89.1086C137.906 89.1086 138.14 89.1086 138.297 88.8741C138.609 88.6396 138.766 88.0142 138.687 87.2324C137.593 88.0924 135.951 88.8741 134.544 89.265C134.466 89.1086 134.31 88.7959 134.153 88.6396C135.717 88.2487 137.593 87.3888 138.531 86.5289C138.453 86.2943 138.375 86.0598 138.297 85.8253C137.358 86.4507 135.873 87.1543 134.701 87.5451C134.622 87.3888 134.466 87.1543 134.31 86.9979C135.482 86.6852 137.124 86.0598 137.984 85.3563C137.828 85.1217 137.671 84.9654 137.515 84.809C136.655 85.2781 135.639 85.669 134.701 85.9817C134.622 85.8253 134.466 85.5126 134.31 85.4344C135.56 85.1217 136.811 84.6527 137.749 84.0273H135.56V83.4019H141.111V84.0273H138.687C138.453 84.1837 138.218 84.34 137.984 84.5745C138.453 85.0436 138.766 85.5126 139 86.0598C139.704 85.5908 140.564 84.9654 141.111 84.4182L141.814 84.8872ZM135.17 83.871H134.466V81.9166H138.062C137.984 81.6821 137.828 81.4476 137.671 81.213L138.375 80.9785C138.531 81.213 138.766 81.6039 138.844 81.9166H142.44V83.871H141.736V82.542H135.091L135.17 83.871Z" fill="#1E1E1E"/>
<path d="M146.348 88.5614C146.896 88.7959 147.677 88.874 148.615 88.874C149.084 88.874 152.055 88.874 152.602 88.874C152.446 89.0304 152.368 89.3431 152.29 89.5776H148.615C146.583 89.5776 145.41 89.2649 144.707 87.936C144.629 88.6395 144.394 89.3431 144.16 89.8121C144.081 89.734 143.769 89.5776 143.612 89.4994C144.16 88.5614 144.238 86.9979 144.316 85.3562H144.941C144.941 85.8253 144.941 86.2943 144.863 86.7633C145.098 87.3887 145.332 87.8578 145.723 88.1705V84.6527H143.847V84.0273H145.567V82.8546H144.003V82.2293H145.567V81.0566H146.27V82.2293H147.756V82.8546H146.27V84.0273H147.99V84.4181C148.85 83.9491 149.319 83.1673 149.475 81.9947H148.146V81.3693H152.368C152.368 81.3693 152.368 81.6039 152.368 81.682C152.29 83.4019 152.211 84.1054 151.977 84.34C151.821 84.4963 151.664 84.5745 151.43 84.5745C151.195 84.5745 150.804 84.5745 150.413 84.5745C150.413 84.4181 150.335 84.1054 150.257 83.9491C150.648 83.9491 151.039 83.9491 151.195 83.9491C151.352 83.9491 151.43 83.9491 151.508 83.8709C151.664 83.7146 151.742 83.2455 151.821 81.9947H150.335C150.179 83.4019 149.554 84.34 148.537 84.9653C148.459 84.8872 148.303 84.7308 148.146 84.6527H146.348V86.0598H147.834V86.6852H146.348V88.5614ZM148.381 85.1217H152.055V88.0923H148.381V85.1217ZM149.006 87.4669H151.273V85.6689H149.006V87.4669Z" fill="#1E1E1E"/>
<path d="M162.062 82.073V82.6983H153.619V82.073H157.606C157.528 81.7603 157.371 81.4476 157.293 81.1349L157.997 80.9785C158.153 81.2912 158.31 81.7603 158.388 82.073C158.388 82.073 162.062 82.073 162.062 82.073ZM161.515 89.0304C161.515 89.4213 161.437 89.5777 161.124 89.6558C160.811 89.734 160.342 89.734 159.56 89.734C159.56 89.5777 159.404 89.3431 159.326 89.1868C159.951 89.1868 160.498 89.1868 160.655 89.1868C160.811 89.1868 160.889 89.1086 160.889 88.9523V84.5745H158.857V85.1999C158.857 85.4344 158.857 85.5126 159.013 85.5126H159.873C160.029 85.5126 160.264 85.5126 160.42 85.5126C160.42 85.669 160.42 85.9035 160.498 86.0598C160.42 86.138 160.186 86.138 159.951 86.138H158.935C158.31 86.138 158.231 85.9035 158.231 85.2781V84.6527H157.137C156.981 85.669 156.512 86.2162 155.183 86.5289C155.104 86.3725 154.948 86.138 154.87 86.0598C155.964 85.8253 156.355 85.4344 156.512 84.7309H154.87V89.8904H154.166V84.0273H158.622C158.857 83.6364 159.169 83.0892 159.326 82.6983L160.029 82.8547C159.795 83.2456 159.56 83.6364 159.248 84.0273H161.437V89.0304H161.515ZM156.277 82.6983C156.512 83.011 156.746 83.4801 156.902 83.7928L156.277 84.0273C156.121 83.7146 155.886 83.2456 155.652 82.9329L156.277 82.6983ZM156.668 88.5614V89.0304H156.043V86.3725H159.56V88.5614H156.668ZM156.668 86.9197V88.0142H158.935V86.9197H156.668Z" fill="#1E1E1E"/>
<path d="M44.4876 213.562L43.4713 213.874V216.141C43.4713 216.689 43.3931 217.001 43.0023 217.158C42.6896 217.314 42.2205 217.392 41.5169 217.392C41.5169 217.079 41.3606 216.61 41.2043 216.298C41.5951 216.298 41.986 216.298 42.1423 216.298C42.2987 216.298 42.2987 216.22 42.2987 216.141V214.187L41.2824 214.422L40.9697 213.249C41.3606 213.171 41.8296 213.093 42.2987 212.936V211.295H41.1261V210.2H42.3769V208.324H43.5495V210.122H44.4094V211.216H43.5495V212.624C43.8622 212.545 44.0967 212.467 44.4094 212.389L44.4876 213.562ZM50.0379 215.829V216.923H44.4876V215.829H44.9566V209.966H44.4094V208.871H49.8034V209.966H46.051V210.982H49.4125V214.656H46.051V215.907H50.0379C50.0379 215.907 50.0379 215.829 50.0379 215.829ZM46.2074 211.998V213.483H48.4744V211.998H46.2074Z" fill="#1E1E1E"/>
<path d="M59.1839 211.216C58.9494 212.624 58.5585 213.874 58.0113 214.891C58.5585 215.516 59.1057 216.063 59.8875 216.454C59.653 216.689 59.2621 217.08 59.1057 217.392C58.4022 217.001 57.8549 216.454 57.3859 215.907C56.8387 216.532 56.2133 217.08 55.4316 217.47C55.2752 217.236 54.8843 216.767 54.6498 216.532C55.5097 216.141 56.1351 215.594 56.6823 214.891C56.2915 214.265 55.9788 213.562 55.7442 212.78C55.5879 213.014 55.4316 213.249 55.2752 213.484C55.1189 213.249 54.8062 212.858 54.5716 212.545V217.392H53.399V214.891C51.8355 215.438 51.5229 215.594 51.3665 215.751C51.2883 215.438 51.132 214.969 50.8975 214.734C51.0538 214.656 51.2883 214.422 51.2883 214.031V209.34H52.3828V214.031L53.399 213.718V208.402H54.5716V212.233C55.3534 211.295 55.7443 209.809 55.9788 208.246L57.1514 208.402C57.0732 208.949 56.9169 209.497 56.8387 209.966H59.8093V211.06H59.1839V211.216ZM56.4478 211.216C56.4478 211.295 56.3696 211.373 56.3696 211.451C56.6042 212.311 56.9169 213.093 57.3077 213.796C57.6986 213.093 57.9331 212.233 58.0895 211.216H56.4478Z" fill="#1E1E1E"/>
<path d="M65.516 212.155V213.171H68.5648V214.187H67.0013L67.9394 214.5C67.6267 215.047 67.2358 215.594 66.9231 216.063H69.0338V217.08H60.7474V216.141H62.7017C62.5454 215.672 62.2327 215.047 61.92 214.578L62.7017 214.265H61.2946V213.249H64.2652V212.233H62.3108V211.764C61.92 211.92 61.4509 212.155 61.0601 212.311C60.9037 211.998 60.591 211.529 60.2783 211.216C62.0763 210.669 63.8743 209.731 64.7342 208.246L65.8287 208.715C65.7505 208.871 65.6723 208.949 65.5942 209.106C66.5322 209.966 68.0957 210.747 69.581 211.138C69.3465 211.373 68.9556 211.842 68.7993 212.155C68.3302 211.998 67.9394 211.842 67.4703 211.607V212.155H65.516ZM62.8581 214.187C63.1708 214.656 63.5616 215.282 63.718 215.751L62.9362 216.063H64.2652V214.187H62.8581ZM66.6104 211.138C65.985 210.747 65.4378 210.357 64.9688 209.888C64.4997 210.357 63.9525 210.747 63.4053 211.138H66.6104ZM65.516 214.187V216.063H66.6886L66.0632 215.829C66.3759 215.36 66.6886 214.734 66.9231 214.187H65.516V214.187Z" fill="#1E1E1E"/>
<path d="M74.0377 214.343V217.314H73.0214V217.079H71.7707V217.314H70.8326V214.578C70.7544 214.656 70.598 214.656 70.5199 214.734C70.4417 214.5 70.129 214.031 69.9727 213.796C70.598 213.64 71.1453 213.405 71.6143 213.014C71.458 212.936 71.3016 212.78 71.1453 212.702L71.7707 211.998L72.3961 212.311C72.6306 212.155 72.7869 211.92 72.9433 211.685H71.7707C71.458 212.076 71.1453 212.467 70.6762 212.78C70.598 212.545 70.2854 212.155 70.129 211.998C70.9107 211.529 71.3016 210.826 71.5361 210.2L72.3961 210.357C72.3179 210.513 72.3179 210.669 72.2397 210.826H73.4905H73.6468V210.122H71.0671V210.982H70.2072V209.262H71.927C71.8488 209.028 71.7707 208.793 71.6925 208.637L72.6306 208.324C72.7087 208.637 72.8651 208.949 73.0214 209.262H74.5849V210.982H73.8032L74.194 211.295C73.9595 211.92 73.6468 212.389 73.256 212.858C73.8032 213.171 74.2722 213.483 74.5849 213.718L74.0377 214.343ZM73.725 214.343C73.4123 214.109 72.9433 213.874 72.5524 213.562C72.1615 213.874 71.7707 214.109 71.3016 214.343H73.725ZM73.0996 216.22V215.281H71.8488V216.22H73.0996ZM77.6337 215.438C78.1809 215.751 78.8063 216.22 79.1972 216.532L78.5718 217.314C78.2591 216.923 77.4774 216.376 76.9301 216.063L77.4774 215.438H76.0702L76.7738 216.141C76.2266 216.61 75.3667 217.079 74.6631 217.392C74.5849 217.158 74.3504 216.767 74.194 216.532C74.8194 216.298 75.6012 215.829 75.9921 215.438H74.9758V210.357H76.2266C76.2266 210.122 76.3048 209.887 76.3048 209.653H74.7413V208.715H79.0408V209.653H77.321C77.2428 209.887 77.1647 210.122 77.0865 210.357H78.7281V215.438H77.6337V215.438ZM75.9921 211.764H77.7119V211.216H75.9921V211.764ZM75.9921 213.171H77.7119V212.624H75.9921V213.171ZM75.9921 214.578H77.7119V214.031H75.9921V214.578Z" fill="#1E1E1E"/>
<path d="M50.0379 260.31V261.248H48.3181C48.5526 261.482 48.7871 261.717 48.9435 261.951L48.3181 262.498H49.5689V263.437H46.1292V263.984H48.9435V264.844H42.0642V263.984H44.9566V263.437H41.5951V262.498H44.0185C43.784 262.264 43.3931 261.873 43.0804 261.56L43.3931 261.248H42.6896C42.3769 261.639 42.0642 262.029 41.7515 262.264C41.5951 262.029 41.2042 261.639 40.9697 261.482C41.5169 261.013 42.1423 260.31 42.455 259.528L43.4713 259.841C43.3931 259.997 43.3149 260.075 43.3149 260.231H45.5038V261.169H44.1749C44.4094 261.404 44.6439 261.56 44.8003 261.795L44.0967 262.42H45.0348V261.951H45.7383C45.582 261.873 45.4257 261.717 45.3475 261.717C45.8947 261.169 46.2856 260.388 46.5201 259.606L47.5363 259.841C47.4582 259.997 47.4582 260.153 47.38 260.31H50.0379ZM48.0836 265.547H49.8816V266.485H48.0836V267.658C48.0836 268.205 47.9272 268.44 47.5363 268.596C47.1455 268.752 46.5201 268.752 45.7383 268.752C45.7383 268.44 45.582 268.127 45.4257 267.814C45.8947 267.814 46.5201 267.814 46.6764 267.814C46.8328 267.814 46.911 267.814 46.911 267.658V266.485H43.9403C44.4094 266.876 44.9566 267.345 45.1911 267.658L44.3312 268.361C44.0185 267.971 43.3931 267.345 42.8459 266.954L43.3931 266.563H41.2824V265.625H46.911V265.156H48.0836C48.0836 265.156 48.0836 265.547 48.0836 265.547ZM48.0836 262.498C47.849 262.264 47.5364 261.873 47.3018 261.639L47.6927 261.326H46.9891C46.7546 261.795 46.5201 262.108 46.2074 262.42V262.498H48.0836Z" fill="#1E1E1E"/>
<path d="M53.9464 262.264C53.7119 262.655 53.4774 263.046 53.1647 263.437V268.752H52.0702V264.766C51.7575 265.078 51.4448 265.313 51.2103 265.547C51.1321 265.313 50.8194 264.609 50.6631 264.375C51.523 263.749 52.4611 262.811 53.0083 261.873L53.9464 262.264ZM53.79 260.153C53.1647 261.013 52.1484 262.03 51.2885 262.577C51.2103 262.342 50.8976 261.873 50.7413 261.639C51.523 261.17 52.3047 260.388 52.6956 259.762L53.79 260.153ZM58.5587 264.531H59.7313V265.547H58.5587V267.502C58.5587 268.049 58.4805 268.362 58.0114 268.518C57.6206 268.674 57.0734 268.674 56.2916 268.674C56.2134 268.362 56.0571 267.893 55.9007 267.58C56.3698 267.58 56.917 267.58 57.0734 267.58C57.2297 267.58 57.3079 267.58 57.3079 267.424V265.469H53.4774V264.453H57.3079V263.906H58.4805L58.5587 264.531ZM59.7313 260.857V261.873H57.1515V262.655H59.3404V263.671H53.8682V262.655H55.9789V261.873H53.5555V260.857H55.9789V259.762H57.1515V260.857H59.7313ZM55.0408 265.704C55.4317 266.173 55.9789 266.876 56.2916 267.267L55.2754 267.814C55.0408 267.345 54.4936 266.642 54.1027 266.173L55.0408 265.704Z" fill="#1E1E1E"/>
<path d="M63.7187 266.876H61.7644V267.736H60.6699V260.31H63.7187V266.876ZM61.7644 261.326V263.046H62.7024V261.326H61.7644ZM62.7024 265.86V264.062H61.8425V265.86H62.7024ZM67.2365 261.795V262.733H69.1909V263.749H68.4873V264.531H69.4254V265.547H68.4873V267.658C68.4873 268.205 68.4092 268.518 68.0183 268.674C67.6274 268.83 67.0802 268.83 66.3766 268.83C66.3766 268.518 66.1421 268.049 65.9858 267.736C66.4548 267.736 67.002 267.736 67.1584 267.736C67.3147 267.736 67.3929 267.736 67.3929 267.58V265.391H64.0314V264.375H67.3929V263.593H64.2659V262.577H66.1421V261.638H63.9532V260.622H66.1421V259.606H67.2365V260.622H69.4254V261.638H67.2365V261.795V261.795ZM65.2822 265.547C65.6731 266.016 66.2203 266.642 66.4548 267.111L65.4385 267.736C65.204 267.345 64.735 266.642 64.3441 266.094L65.2822 265.547Z" fill="#1E1E1E"/>
<path d="M71.6921 263.593V268.752H70.5195V260.075H74.1937V263.593H71.6921ZM71.6921 260.935V261.482H73.1774V260.935H71.6921ZM73.1774 262.733V262.186H71.6921V262.733H73.1774ZM78.7278 267.423C78.7278 268.049 78.5715 268.361 78.1806 268.596C77.7897 268.752 77.2425 268.83 76.3826 268.83C76.3826 268.596 76.2262 268.205 76.1481 267.892H73.7247V268.361H72.7084V264.14H76.4608V267.58C76.8516 267.58 77.1643 267.58 77.3207 267.58C77.477 267.58 77.5552 267.501 77.5552 267.345V263.593H74.8973V260.075H78.7278V267.423ZM73.8028 265V265.547H75.3663V265H73.8028ZM75.3663 267.032V266.407H73.8028V267.032H75.3663ZM75.9917 260.935V261.482H77.5552V260.935H75.9917ZM77.5552 262.811V262.264H75.9917V262.811H77.5552Z" fill="#1E1E1E"/>
<path d="M365.548 81.2913C366.486 82.6202 368.128 83.9492 369.613 84.5746C369.457 84.7309 369.222 85.0436 369.144 85.2C367.659 84.4964 366.173 83.2456 365.157 81.9948C364.141 83.2456 362.499 84.5746 361.17 85.2781C361.092 85.1218 360.858 84.8873 360.701 84.7309C361.874 84.1837 363.359 83.0893 364.297 81.9948H362.577V81.2913H365.548ZM365.548 88.8741H369.3V89.4995H361.092V88.8741H364.766V87.2325H362.108V86.6071H364.844V85.1218H362.577V84.4964H367.971V85.1218H365.626V86.6071H368.362V87.2325H365.626V88.8741H365.548Z" fill="#1E1E1E"/>
<path d="M378.212 84.8872C377.743 85.2781 377.274 85.669 376.727 85.9817C377.196 87.2324 378.055 88.3269 379.306 88.7959C379.15 88.9523 378.915 89.1868 378.837 89.4213C377.586 88.8741 376.727 87.7797 376.179 86.3725C376.023 86.4507 375.867 86.5289 375.71 86.607C376.023 87.8578 375.788 89.0304 375.241 89.4213C374.929 89.6558 374.694 89.734 374.225 89.734C373.99 89.734 373.678 89.734 373.365 89.734C373.365 89.4995 373.287 89.265 373.209 89.0304C373.521 89.0304 373.912 89.1086 374.069 89.1086C374.303 89.1086 374.538 89.1086 374.694 88.8741C375.007 88.6396 375.163 88.0142 375.085 87.2324C373.99 88.0924 372.349 88.8741 370.942 89.265C370.863 89.1086 370.707 88.7959 370.551 88.6396C372.114 88.2487 373.99 87.3888 374.929 86.5289C374.85 86.2943 374.772 86.0598 374.694 85.8253C373.756 86.4507 372.271 87.1543 371.098 87.5451C371.02 87.3888 370.863 87.1543 370.707 86.9979C371.88 86.6852 373.521 86.0598 374.381 85.3563C374.225 85.1217 374.069 84.9654 373.912 84.809C373.052 85.2781 372.036 85.669 371.098 85.9817C371.02 85.8253 370.863 85.5126 370.707 85.4344C371.958 85.1217 373.209 84.6527 374.147 84.0273H371.958V83.4019H377.508V84.0273H375.085C374.85 84.1837 374.616 84.34 374.381 84.5745C374.85 85.0436 375.163 85.5126 375.398 86.0598C376.101 85.5908 376.961 84.9654 377.508 84.4182L378.212 84.8872ZM371.567 83.871H370.863V81.9166H374.459C374.381 81.6821 374.225 81.4476 374.069 81.213L374.772 80.9785C374.929 81.213 375.163 81.6039 375.241 81.9166H378.837V83.871H378.134V82.542H371.489L371.567 83.871Z" fill="#1E1E1E"/>
<path d="M382.746 88.5614C383.293 88.7959 384.075 88.874 385.013 88.874C385.482 88.874 388.453 88.874 389 88.874C388.843 89.0304 388.765 89.3431 388.687 89.5776H385.013C382.98 89.5776 381.808 89.2649 381.104 87.936C381.026 88.6395 380.792 89.3431 380.557 89.8121C380.479 89.734 380.166 89.5776 380.01 89.4994C380.557 88.5614 380.635 86.9979 380.713 85.3562H381.339C381.339 85.8253 381.339 86.2943 381.261 86.7633C381.495 87.3887 381.73 87.8578 382.12 88.1705V84.6527H380.244V84.0273H381.964V82.8546H380.401V82.2293H381.964V81.0566H382.668V82.2293H384.153V82.8546H382.668V84.0273H384.388V84.4181C385.247 83.9491 385.716 83.1673 385.873 81.9947H384.544V81.3693H388.765C388.765 81.3693 388.765 81.6039 388.765 81.682C388.687 83.4019 388.609 84.1054 388.374 84.34C388.218 84.4963 388.062 84.5745 387.827 84.5745C387.593 84.5745 387.202 84.5745 386.811 84.5745C386.811 84.4181 386.733 84.1054 386.655 83.9491C387.045 83.9491 387.436 83.9491 387.593 83.9491C387.749 83.9491 387.827 83.9491 387.905 83.8709C388.062 83.7146 388.14 83.2455 388.218 81.9947H386.733C386.576 83.4019 385.951 84.34 384.935 84.9653C384.857 84.8872 384.7 84.7308 384.544 84.6527H383.059V86.0598H384.544V86.6852H383.059V88.5614C383.059 88.5614 382.746 88.5614 382.746 88.5614ZM384.778 85.1217H388.453V88.0923H384.778V85.1217ZM385.404 87.4669H387.671V85.6689H385.404V87.4669Z" fill="#1E1E1E"/>
<path d="M398.459 82.073V82.6983H390.017V82.073H394.003C393.925 81.7603 393.769 81.4476 393.691 81.1349L394.394 80.9785C394.551 81.2912 394.707 81.7603 394.785 82.073H398.459ZM397.912 89.0304C397.912 89.4213 397.834 89.5777 397.521 89.6558C397.209 89.734 396.74 89.734 395.958 89.734C395.958 89.5777 395.801 89.3431 395.723 89.1868C396.349 89.1868 396.896 89.1868 397.052 89.1868C397.209 89.1868 397.287 89.1086 397.287 88.9523V84.5745H395.332V85.1999C395.332 85.4344 395.332 85.5126 395.489 85.5126H396.349C396.505 85.5126 396.74 85.5126 396.896 85.5126C396.896 85.669 396.896 85.9035 396.974 86.0598C396.896 86.138 396.661 86.138 396.427 86.138H395.411C394.785 86.138 394.707 85.9035 394.707 85.2781V84.6527H393.613C393.456 85.669 392.987 86.2162 391.658 86.5289C391.58 86.3725 391.424 86.138 391.346 86.0598C392.44 85.8253 392.831 85.4344 392.987 84.7309H391.346V89.8904H390.642V84.0273H395.098C395.332 83.6364 395.645 83.0892 395.801 82.6983L396.505 82.8547C396.271 83.2456 396.036 83.6364 395.723 84.0273H397.912V89.0304ZM392.674 82.6983C392.909 83.011 393.144 83.4801 393.3 83.7928L392.674 84.0273C392.518 83.7146 392.284 83.2456 392.049 82.9329L392.674 82.6983ZM393.065 88.5614V89.0304H392.44V86.3725H395.958V88.5614H393.065ZM393.065 86.9197V88.0142H395.332V86.9197H393.065Z" fill="#1E1E1E"/>
<path d="M47.2239 45.7219V56.5099H45.504V55.7282H37.6085V56.6663H35.9668V45.7219H47.2239ZM45.504 54.2429V52.7576C45.2695 52.7576 45.035 52.8358 44.8786 52.8358H43.706C42.4552 52.8358 42.2207 52.2104 42.2207 50.8032V47.2854H40.8918C40.8136 50.5687 40.5791 52.5231 38.4684 53.6175C38.312 53.2266 37.9211 52.6794 37.6085 52.3667V54.1647L45.504 54.2429ZM37.6085 47.2854V52.3667C39.1719 51.4286 39.3283 50.0215 39.4065 47.2854H37.6085ZM45.504 47.2854H43.6279V50.8032C43.6279 51.2723 43.6279 51.4286 43.9405 51.4286H44.8005C44.9568 51.4286 45.2695 51.4286 45.504 51.3505V47.2854Z" fill="#DC6D79"/>
<path d="M59.4971 55.1028C59.4971 56.0409 59.2626 56.5099 58.6372 56.8226C58.0118 57.1353 57.0738 57.1353 55.6666 57.1353C55.5884 56.6663 55.2757 55.8845 54.9631 55.4937C55.9011 55.5719 56.9956 55.5719 57.3083 55.5719C57.621 55.5719 57.6991 55.4937 57.6991 55.181V53.2266H51.9924C51.6797 54.7119 50.9762 56.1972 49.7254 57.2135C49.4909 56.9008 48.8655 56.2754 48.4746 56.0409C50.5071 54.3211 50.6635 51.7413 50.6635 49.7088V45.3311H59.3408V55.1028H59.4971ZM57.8555 51.585V49.9433H52.4615C52.4615 50.4905 52.3833 51.0378 52.3833 51.585H57.8555ZM52.4615 46.8164V48.458H57.8555V46.8164H52.4615Z" fill="#DC6D79"/>
<path d="M65.9859 48.0671H68.0966V49.3961H66.7676L67.5493 49.6306C67.3148 50.0996 67.0803 50.5687 66.8458 50.9595H67.7839V52.2885H65.9077V53.3829H68.0184V54.7119H65.9077V57.0571H64.4224V54.7119H62.0771V53.3829H64.4224V52.2885H62.468V50.9595H63.4843C63.4061 50.5687 63.1716 50.0215 63.0152 49.6306L63.797 49.3961H62.2335V48.0671H64.5005V47.129H62.5462V45.8001H64.5005V44.6274H65.9859V45.8001H67.7839V47.129H65.9859C65.9859 47.129 65.9859 48.0671 65.9859 48.0671ZM65.595 50.9595C65.8295 50.4905 66.064 49.8651 66.2204 49.3961H64.1879C64.4224 49.8651 64.6569 50.4123 64.7351 50.725L64.1097 50.9595H65.595ZM74.3505 50.0215C74.116 51.5849 73.6469 53.0702 72.9433 54.321C73.4906 54.9464 74.116 55.4155 74.7413 55.7282C74.4286 56.0409 73.9596 56.5881 73.7251 56.9789C73.0997 56.5881 72.5525 56.119 72.0834 55.5718C71.6144 56.1972 71.1453 56.6662 70.5981 57.0571C70.4418 56.8226 70.2073 56.5881 69.9727 56.3535V57.0571H68.5656V45.1747H74.116V47.6762C74.116 48.3798 73.9596 48.7707 73.4124 48.927C72.9433 49.1615 72.1616 49.1615 71.2235 49.1615C71.1453 48.7707 70.989 48.2234 70.7545 47.8326C71.3799 47.8326 72.1616 47.8326 72.318 47.8326C72.5525 47.8326 72.5525 47.7544 72.5525 47.5981V46.5036H69.9727V49.7088H73.1779L73.4124 49.6306L74.3505 50.0215ZM69.8946 55.7282C70.3636 55.3373 70.7545 54.8682 71.1453 54.3992C70.6763 53.6175 70.2072 52.6794 69.8946 51.6631V55.7282ZM71.0672 51.0377C71.3017 51.7413 71.6144 52.4448 72.0053 52.9921C72.318 52.3667 72.5525 51.6631 72.7088 51.0377H71.0672Z" fill="#DC6D79"/>
<path d="M87.405 52.2103C86.6232 52.7575 85.7633 53.3048 84.9816 53.7738C85.7633 54.4774 86.7796 55.0246 88.0304 55.4155C87.7177 55.7282 87.2486 56.3535 87.0141 56.8226C84.278 55.8845 82.5582 53.9302 81.6201 51.1941C81.151 51.7413 80.5256 52.2103 79.9003 52.6794V54.9464L82.7927 54.1647C82.8709 54.5555 82.949 55.2591 83.0272 55.5718C79.1967 56.7444 78.5713 56.9008 78.1804 57.1353C78.1023 56.7444 77.7896 56.0409 77.555 55.7282C77.8677 55.5718 78.2586 55.2591 78.2586 54.6337V53.6956C77.6332 54.0083 77.0078 54.321 76.4606 54.4774C76.2261 54.0865 75.757 53.5393 75.4443 53.2266C76.9296 52.7575 78.5713 51.9758 79.7439 51.0377H75.9134V49.6306H80.9947V48.8488H77.1642V47.5981H80.9947V46.8945H76.5388V45.5655H80.9947V44.6274H82.6363V45.5655H87.3268V46.8945H82.6363V47.5981H86.7796V48.8488H82.6363V49.6306H87.7177V50.9595H83.2617C83.4963 51.6631 83.8871 52.2103 84.278 52.7575C84.9816 52.2885 85.7633 51.6631 86.2323 51.1941L87.405 52.2103Z" fill="#DC6D79"/>
<path d="M283.153 54.8682V56.4317H271.192V54.8682H274.319C274.554 53.7738 274.788 52.523 275.023 51.1941H272.756V49.6306H275.257C275.414 48.8488 275.492 48.0671 275.57 47.3635H271.974V45.8H282.293V47.3635H277.368C277.29 48.0671 277.134 48.8488 277.055 49.6306H279.557L279.87 49.5524L281.12 49.6306C281.042 51.1941 280.886 53.0702 280.651 54.7901L283.153 54.8682ZM276.743 51.2722C276.508 52.6012 276.274 53.852 276.039 54.9464H278.853C279.01 53.6956 279.088 52.3667 279.166 51.2722H276.743Z" fill="#DC6D79"/>
<path d="M295.035 55.1028C295.035 56.0409 294.801 56.5099 294.175 56.8226C293.55 57.1353 292.612 57.1353 291.205 57.1353C291.127 56.6663 290.814 55.8845 290.501 55.4937C291.439 55.5719 292.534 55.5719 292.846 55.5719C293.159 55.5719 293.237 55.4937 293.237 55.181V53.2266H287.531C287.218 54.7119 286.514 56.1972 285.263 57.2135C285.029 56.9008 284.404 56.2754 284.013 56.0409C286.045 54.3211 286.202 51.7413 286.202 49.7088V45.3311H294.879V55.1028H295.035ZM293.315 51.585V49.9433H287.921C287.921 50.4905 287.843 51.0378 287.843 51.585H293.315ZM288 46.8164V48.458H293.394V46.8164H288Z" fill="#DC6D79"/>
<path d="M301.524 48.0671H303.635V49.3961H302.306L303.087 49.6306C302.853 50.0996 302.618 50.5687 302.384 50.9595H303.322V52.2885H301.446V53.3829H303.556V54.7119H301.446V57.0571H299.96V54.7119H297.615V53.3829H299.96V52.2885H298.006V50.9595H298.944C298.866 50.5687 298.632 50.0215 298.475 49.6306L299.257 49.3961H297.693V48.0671H299.96V47.129H298.006V45.8001H299.96V44.6274H301.446V45.8001H303.244V47.129H301.446V48.0671H301.524ZM301.133 50.9595C301.368 50.4905 301.602 49.8651 301.758 49.3961H299.726C299.96 49.8651 300.195 50.4123 300.273 50.725L299.648 50.9595H301.133ZM309.81 50.0215C309.576 51.5849 309.107 53.0702 308.403 54.321C308.95 54.9464 309.576 55.4155 310.201 55.7282C309.889 56.0409 309.42 56.5881 309.185 56.9789C308.56 56.5881 308.012 56.119 307.543 55.5718C307.074 56.1972 306.605 56.6662 305.98 57.0571C305.824 56.8226 305.589 56.5881 305.354 56.3535V57.0571H303.947V45.1747H309.498V47.6762C309.498 48.3798 309.341 48.7707 308.794 48.927C308.247 49.1615 307.543 49.1615 306.605 49.1615C306.527 48.7707 306.371 48.2234 306.136 47.8326C306.762 47.8326 307.543 47.8326 307.7 47.8326C307.934 47.8326 307.934 47.7544 307.934 47.5981V46.5036H305.354V49.7088H308.56L308.794 49.6306L309.81 50.0215ZM305.433 55.7282C305.902 55.3373 306.293 54.8682 306.683 54.3992C306.214 53.6175 305.745 52.6794 305.433 51.6631V55.7282ZM306.527 51.0377C306.762 51.7413 307.074 52.4448 307.465 52.9921C307.778 52.3667 308.012 51.6631 308.169 51.0377H306.527Z" fill="#DC6D79"/>
<path d="M322.944 52.2103C322.162 52.7575 321.302 53.3048 320.521 53.7738C321.302 54.4774 322.319 55.0246 323.569 55.4155C323.257 55.7282 322.788 56.3535 322.553 56.8226C319.817 55.8845 318.097 53.9302 317.159 51.1941C316.69 51.7413 316.065 52.2103 315.439 52.6794V54.9464L318.332 54.1647C318.41 54.5555 318.488 55.2591 318.566 55.5718C314.736 56.7444 314.11 56.9008 313.719 57.1353C313.641 56.7444 313.329 56.0409 313.094 55.7282C313.407 55.5718 313.798 55.2591 313.798 54.6337V53.6956C313.172 54.0083 312.547 54.321 312 54.4774C311.765 54.0865 311.296 53.5393 310.983 53.2266C312.469 52.7575 314.11 51.9758 315.283 51.0377H311.452V49.6306H316.534V48.8488H312.703V47.5981H316.534V46.8945H312.078V45.5655H316.534V44.6274H318.175V45.5655H322.866V46.8945H318.175V47.5981H322.319V48.8488H318.175V49.6306H323.257V50.9595H318.801C319.035 51.6631 319.426 52.2103 319.817 52.7575C320.521 52.2885 321.302 51.6631 321.771 51.1941L322.944 52.2103Z" fill="#DC6D79"/>
<path d="M48.5525 114.202H240.157C248.522 114.202 255.323 121.004 255.323 129.368V162.983C255.323 171.348 248.522 178.149 240.157 178.149H48.5525C40.1879 178.149 33.3867 171.348 33.3867 162.983V129.368C33.3867 121.004 40.1879 114.202 48.5525 114.202Z" fill="white"/>
<path d="M54.1809 145.863L53.1647 146.176V148.443C53.1647 148.99 53.0865 149.303 52.6956 149.459C52.3829 149.615 51.9139 149.693 51.2103 149.693C51.2103 149.381 51.054 148.912 50.8976 148.599C51.2885 148.599 51.6793 148.599 51.8357 148.599C51.992 148.599 51.992 148.521 51.992 148.443V146.488L50.9758 146.723L50.6631 145.55C51.054 145.472 51.523 145.394 51.992 145.237V143.596H50.8194V142.501H51.992V140.703H53.1647V142.501H54.1027V143.596H53.2428V145.003C53.5555 144.925 53.79 144.847 54.1027 144.768L54.1809 145.863ZM59.7313 148.13V149.224H54.1809V148.13H54.65V142.267H54.1027V141.094H59.4968V142.189H55.7444V143.205H59.1059V146.879H55.7444V148.13H59.7313ZM55.9007 144.299V145.785H58.1678V144.299H55.9007Z" fill="#1E1E1E"/>
<path d="M68.8773 143.518C68.6427 144.925 68.2519 146.176 67.7047 147.192C68.2519 147.817 68.7991 148.365 69.5808 148.755C69.3463 148.99 68.9554 149.381 68.7991 149.693C68.0955 149.303 67.5483 148.755 67.0793 148.208C66.532 148.834 65.9067 149.381 65.1249 149.772C64.9686 149.537 64.5777 149.068 64.3432 148.834C65.2031 148.443 65.8285 147.895 66.3757 147.192C65.9848 146.567 65.6721 145.863 65.4376 145.081C65.2813 145.316 65.1249 145.55 64.9686 145.785C64.8122 145.55 64.4995 145.159 64.265 144.847V149.693H63.0924V147.192C61.5289 147.739 61.2162 147.895 61.0599 148.052C60.9817 147.739 60.8253 147.27 60.5908 147.036C60.7472 146.957 60.9817 146.723 60.9817 146.332V141.642H62.0761V146.332L63.0924 146.019V140.703H64.265V144.534C65.0467 143.596 65.4376 142.111 65.6721 140.547L66.8447 140.703C66.7666 141.251 66.6102 141.798 66.532 142.267H69.5027V143.361H68.8773V143.518V143.518ZM66.1412 143.518C66.1412 143.596 66.063 143.674 66.063 143.752C66.2975 144.612 66.6102 145.394 67.0011 146.097C67.392 145.394 67.6265 144.534 67.7828 143.518H66.1412Z" fill="#1E1E1E"/>
<path d="M76.0701 146.332C76.0701 146.176 75.9919 146.019 75.9137 145.863C73.5685 146.097 73.2558 146.176 73.0213 146.254C72.9431 146.097 72.865 145.55 72.7086 145.316C72.0832 145.628 71.3796 146.019 70.8324 146.254L70.2852 145.316C70.9106 145.081 71.7705 144.69 72.7086 144.378L72.9431 145.238L72.7868 145.316C73.0213 145.238 73.2558 145.081 73.6467 144.847C73.803 144.769 74.0376 144.534 74.4284 144.143C73.6467 144.221 73.4903 144.221 73.334 144.299C73.2558 144.065 73.0995 143.674 73.0213 143.361C73.1776 143.361 73.334 143.205 73.4903 143.049C73.5685 142.971 73.803 142.658 74.0376 142.345H70.7543V141.329H74.3503C74.2721 141.173 74.1157 140.938 74.0376 140.782L75.2102 140.547C75.3665 140.782 75.601 141.094 75.7574 141.407H79.197V142.423H75.2102C74.9756 142.736 74.8193 143.049 74.5066 143.283H75.3665C75.601 143.049 75.8356 142.736 75.9919 142.501L76.8518 143.049C76.2264 143.83 75.4447 144.612 74.663 145.159L75.6792 145.081C75.601 144.925 75.4447 144.769 75.3665 144.612L76.2264 144.299C76.3828 144.456 76.5391 144.69 76.6955 144.925L77.3209 144.456C77.9463 144.769 78.8062 145.316 79.2752 145.707L78.4153 146.41C78.1026 146.097 77.4772 145.628 76.8518 145.316C77.0082 145.55 77.1645 145.863 77.2427 146.097L76.0701 146.332ZM79.0407 147.895H75.2102V149.693H73.9594V147.895H70.207V146.801H73.9594V146.176H75.2102V146.801H79.0407V147.895ZM71.9269 144.378C71.6142 144.065 70.9888 143.596 70.5197 143.283L71.3015 142.658C71.7705 142.892 72.4741 143.361 72.7868 143.674L71.9269 144.378ZM76.3828 143.83C76.7737 143.518 77.3209 142.971 77.6336 142.658L78.5717 143.205C78.1808 143.674 77.6336 144.065 77.2427 144.378L76.3828 143.83Z" fill="#1E1E1E"/>
<path d="M106.246 140.782C106.246 141.485 106.089 142.111 105.855 142.658C105.542 143.205 105.229 143.674 104.76 143.987C104.291 144.299 103.744 144.612 103.119 144.768C102.493 144.925 101.868 145.003 101.164 145.003C100.461 145.003 99.8354 144.925 99.21 144.768C98.5846 144.612 98.0374 144.299 97.5683 143.987C97.0993 143.674 96.7084 143.205 96.4739 142.658C96.1612 142.111 96.083 141.485 96.083 140.782C96.083 140.391 96.1612 140 96.2394 139.609C96.3957 139.218 96.5521 138.905 96.7866 138.671C97.0211 138.358 97.2556 138.124 97.5683 137.967C97.881 137.733 98.1937 137.655 98.5064 137.498C97.881 137.264 97.412 136.951 97.0211 136.404C96.6302 135.935 96.3957 135.309 96.3957 134.528C96.3957 133.902 96.5521 133.355 96.7866 132.808C97.0211 132.339 97.412 131.87 97.8028 131.557C98.1937 131.244 98.7409 131.01 99.3663 130.775C99.9917 130.541 100.539 130.541 101.164 130.541C101.79 130.541 102.415 130.619 102.962 130.775C103.51 130.932 104.057 131.166 104.448 131.479C104.917 131.792 105.229 132.182 105.542 132.651C105.777 133.121 105.933 133.668 105.933 134.293C105.933 135.075 105.777 135.7 105.386 136.247C104.995 136.795 104.526 137.107 103.9 137.342V137.42C104.213 137.498 104.604 137.655 104.838 137.889C105.151 138.124 105.386 138.358 105.62 138.593C105.855 138.827 106.011 139.218 106.167 139.531C106.324 139.843 106.246 140.391 106.246 140.782ZM102.962 140.625C102.962 140.078 102.806 139.687 102.415 139.296C102.024 138.905 101.633 138.749 101.086 138.749C100.539 138.749 100.07 138.905 99.679 139.296C99.2881 139.687 99.1318 140.078 99.1318 140.625C99.1318 141.172 99.2881 141.641 99.679 141.954C100.07 142.267 100.461 142.423 101.086 142.423C101.712 142.423 102.102 142.267 102.493 141.954C102.806 141.641 102.962 141.172 102.962 140.625ZM102.728 134.684C102.728 134.215 102.571 133.824 102.259 133.59C101.946 133.277 101.555 133.121 101.086 133.121C100.617 133.121 100.226 133.277 99.9135 133.59C99.6008 133.902 99.4445 134.293 99.4445 134.684C99.4445 135.153 99.6008 135.466 99.9135 135.857C100.226 136.169 100.617 136.326 101.086 136.326C101.555 136.326 101.946 136.169 102.259 135.857C102.571 135.544 102.728 135.153 102.728 134.684Z" fill="black"/>
<path d="M112.187 142.97C112.187 143.517 112.031 143.986 111.64 144.299C111.249 144.69 110.78 144.846 110.311 144.846C110.076 144.846 109.764 144.768 109.529 144.69C109.295 144.612 109.06 144.456 108.904 144.299C108.747 144.143 108.591 143.908 108.513 143.674C108.435 143.439 108.356 143.205 108.356 142.892C108.356 142.658 108.435 142.423 108.513 142.188C108.591 141.954 108.747 141.719 108.904 141.563C109.06 141.407 109.295 141.25 109.529 141.172C109.764 141.094 109.998 141.016 110.311 141.016C110.858 141.016 111.327 141.172 111.64 141.563C112.031 141.954 112.187 142.423 112.187 142.97Z" fill="black"/>
<path d="M123.131 142.032V144.69H120.082V142.032H113.672V139.296L119.222 131.01H123.131V139.453H125.007V142.11L123.131 142.032ZM120.082 134.293L116.799 139.374H120.082V134.293Z" fill="black"/>
<path d="M136.968 140.703C136.968 141.485 136.811 142.11 136.499 142.658C136.186 143.205 135.795 143.674 135.326 143.987C134.857 144.377 134.31 144.612 133.684 144.768C133.059 144.925 132.434 145.003 131.808 145.003C131.183 145.003 130.557 144.925 130.01 144.768C129.463 144.612 128.916 144.377 128.368 144.143C127.899 143.83 127.43 143.439 127.118 143.048C126.727 142.579 126.492 142.032 126.336 141.407L129.385 140.625C129.541 141.094 129.776 141.485 130.166 141.798C130.557 142.11 131.105 142.345 131.73 142.345C131.964 142.345 132.199 142.345 132.434 142.267C132.668 142.189 132.903 142.11 133.059 141.954C133.215 141.798 133.372 141.641 133.528 141.407C133.684 141.172 133.684 140.938 133.684 140.625C133.684 140.312 133.606 140 133.45 139.765C133.293 139.531 133.059 139.374 132.824 139.218C132.59 139.062 132.277 138.983 131.886 138.905C131.574 138.827 131.183 138.827 130.87 138.827H129.932V136.482H130.87C131.183 136.482 131.495 136.482 131.73 136.404C132.043 136.326 132.277 136.247 132.512 136.169C132.746 136.013 132.903 135.856 133.059 135.7C133.215 135.466 133.293 135.231 133.293 134.918C133.293 134.449 133.137 134.058 132.746 133.824C132.434 133.589 131.964 133.433 131.574 133.433C131.105 133.433 130.714 133.589 130.401 133.824C130.088 134.137 129.854 134.449 129.697 134.918L126.649 134.215C126.805 133.668 127.04 133.12 127.43 132.729C127.743 132.26 128.134 131.948 128.603 131.635C129.072 131.322 129.541 131.088 130.088 131.01C130.636 130.853 131.183 130.775 131.73 130.775C132.355 130.775 132.903 130.853 133.528 131.01C134.075 131.166 134.622 131.401 135.091 131.713C135.56 132.026 135.873 132.417 136.186 132.964C136.499 133.433 136.577 134.058 136.577 134.684C136.577 135.466 136.342 136.091 135.951 136.638C135.482 137.185 134.935 137.498 134.31 137.733V137.811C134.701 137.889 135.013 138.045 135.404 138.28C135.717 138.514 136.03 138.749 136.264 138.983C136.499 139.296 136.655 139.609 136.811 139.922C136.889 139.922 136.968 140.312 136.968 140.703Z" fill="black"/>
<path d="M146.114 134.371C146.114 134.84 146.036 135.387 145.801 135.778C145.645 136.247 145.332 136.638 145.02 136.951C144.707 137.264 144.316 137.576 143.847 137.733C143.378 137.889 142.909 138.045 142.44 138.045C141.971 138.045 141.424 137.967 141.033 137.733C140.564 137.576 140.173 137.264 139.86 136.951C139.547 136.638 139.235 136.247 139.078 135.778C138.922 135.309 138.766 134.84 138.766 134.371C138.766 133.824 138.844 133.355 139.078 132.964C139.235 132.495 139.547 132.104 139.86 131.791C140.173 131.479 140.564 131.166 141.033 131.01C141.502 130.853 141.971 130.697 142.44 130.697C142.909 130.697 143.456 130.775 143.847 131.01C144.316 131.166 144.707 131.479 145.02 131.791C145.332 132.104 145.645 132.495 145.801 132.964C146.036 133.433 146.114 133.902 146.114 134.371ZM143.925 134.371C143.925 133.98 143.769 133.589 143.456 133.277C143.143 132.964 142.831 132.808 142.362 132.808C141.971 132.808 141.58 132.964 141.267 133.277C140.954 133.589 140.798 133.902 140.798 134.371C140.798 134.762 140.954 135.153 141.267 135.466C141.58 135.778 141.893 135.935 142.362 135.935C142.752 135.935 143.143 135.778 143.456 135.466C143.769 135.153 143.925 134.84 143.925 134.371ZM143.925 145.316L142.205 144.456L150.179 130.306L151.977 131.166L143.925 145.316ZM155.417 141.251C155.417 141.72 155.339 142.267 155.104 142.658C154.948 143.127 154.635 143.518 154.322 143.83C154.01 144.143 153.619 144.456 153.15 144.612C152.681 144.768 152.212 144.925 151.743 144.925C151.273 144.925 150.726 144.847 150.335 144.612C149.866 144.456 149.475 144.143 149.163 143.83C148.85 143.518 148.537 143.127 148.381 142.658C148.225 142.189 148.068 141.72 148.068 141.251C148.068 140.781 148.147 140.312 148.381 139.843C148.537 139.374 148.85 138.983 149.163 138.671C149.475 138.358 149.866 138.045 150.335 137.889C150.804 137.733 151.273 137.576 151.743 137.576C152.212 137.576 152.759 137.655 153.15 137.889C153.541 138.124 154.01 138.358 154.322 138.671C154.635 138.983 154.948 139.374 155.104 139.843C155.26 140.312 155.417 140.781 155.417 141.251ZM153.228 141.251C153.228 141.016 153.15 140.86 153.071 140.625C152.993 140.469 152.915 140.312 152.759 140.156C152.602 140 152.446 139.922 152.29 139.843C152.133 139.765 151.899 139.765 151.743 139.765C151.352 139.765 150.961 139.922 150.648 140.234C150.335 140.547 150.179 140.86 150.179 141.329C150.179 141.72 150.335 142.11 150.648 142.423C150.961 142.736 151.273 142.892 151.743 142.892C151.977 142.892 152.133 142.892 152.29 142.814C152.446 142.736 152.602 142.658 152.759 142.501C152.915 142.345 152.993 142.189 153.071 142.032C153.15 141.641 153.228 141.485 153.228 141.251Z" fill="black"/>
<path d="M100.303 160.872H98.1146L101.32 154.54H97.5674V152.898H103.352V154.384L100.303 160.872Z" fill="#DC6D79"/>
<path d="M110.935 158.214C110.935 158.683 110.857 159.074 110.7 159.465C110.544 159.856 110.309 160.169 109.997 160.403C109.684 160.638 109.371 160.872 108.98 160.95C108.589 161.107 108.199 161.185 107.73 161.185C107.261 161.185 106.87 161.107 106.479 160.95C106.088 160.794 105.775 160.638 105.463 160.403C105.15 160.169 104.915 159.856 104.759 159.465C104.603 159.074 104.524 158.683 104.524 158.292C104.524 157.823 104.603 157.354 104.759 156.963C104.915 156.573 105.15 156.182 105.384 155.791L107.339 152.898H109.606L107.651 155.635V155.713C107.73 155.713 107.808 155.635 107.886 155.635C107.964 155.635 108.12 155.635 108.199 155.635C108.511 155.635 108.902 155.713 109.215 155.791C109.528 155.947 109.84 156.104 110.075 156.338C110.309 156.573 110.466 156.807 110.622 157.198C110.857 157.433 110.935 157.823 110.935 158.214ZM108.98 158.214C108.98 157.823 108.902 157.589 108.668 157.354C108.433 157.12 108.12 156.963 107.73 156.963C107.339 156.963 107.026 157.042 106.791 157.276C106.557 157.511 106.479 157.823 106.479 158.214C106.479 158.527 106.557 158.84 106.791 159.074C107.026 159.309 107.339 159.465 107.73 159.465C108.12 159.465 108.433 159.387 108.668 159.152C108.902 158.918 108.98 158.605 108.98 158.214Z" fill="#DC6D79"/>
<path d="M112.186 160.872V159.309L115.313 156.495C115.547 156.338 115.703 156.104 115.782 155.947C115.938 155.791 115.938 155.556 115.938 155.322C115.938 155.009 115.86 154.775 115.703 154.618C115.547 154.462 115.313 154.384 115 154.384C114.687 154.384 114.453 154.462 114.218 154.697C113.984 154.931 113.905 155.244 113.827 155.556L112.029 155.322C112.107 154.931 112.186 154.54 112.342 154.228C112.498 153.915 112.733 153.602 113.046 153.446C113.28 153.211 113.593 153.055 113.984 152.899C114.296 152.742 114.687 152.742 115.078 152.742C115.469 152.742 115.782 152.82 116.173 152.899C116.485 152.977 116.798 153.133 117.111 153.368C117.423 153.602 117.58 153.837 117.736 154.149C117.892 154.462 117.971 154.853 117.971 155.244C117.971 155.556 117.971 155.791 117.892 156.026C117.814 156.26 117.736 156.495 117.58 156.651C117.423 156.885 117.267 157.042 117.111 157.198C116.954 157.354 116.798 157.511 116.563 157.667L114.687 159.309H117.971V160.95H112.186V160.872Z" fill="#DC6D79"/>
<path d="M125.554 152.039C125.241 152.82 124.851 153.68 124.46 154.462V162.123H123.209V156.416C122.974 156.729 122.74 156.964 122.505 157.198C122.349 156.885 122.036 156.104 121.802 155.791C122.818 154.775 123.756 153.133 124.303 151.57L125.554 152.039ZM132.433 158.371H129.541V162.201H128.212V158.371H125.163V157.042H128.212V155.087H126.805C126.57 155.635 126.336 156.182 126.101 156.573C125.867 156.416 125.241 156.104 124.929 155.947C125.554 155.087 126.023 153.602 126.258 152.273L127.587 152.508C127.508 152.977 127.352 153.368 127.274 153.837H128.212V151.804H129.541V153.837H131.886V155.166H129.541V157.12H132.433V158.371V158.371Z" fill="#DC6D79"/>
<path d="M135.795 151.804H136.889L134.075 162.983H132.98L135.795 151.804Z" fill="black"/>
<path d="M146.583 155.556C146.583 156.026 146.505 156.495 146.349 156.885C146.192 157.276 145.958 157.667 145.723 158.058L143.769 160.951H141.502L143.456 158.214C143.378 158.214 143.3 158.293 143.143 158.293C142.987 158.293 142.909 158.293 142.831 158.293C142.44 158.293 142.127 158.214 141.814 158.136C141.502 157.98 141.189 157.824 140.955 157.589C140.72 157.355 140.486 157.12 140.407 156.729C140.251 156.416 140.173 156.026 140.173 155.635C140.173 155.166 140.251 154.775 140.407 154.384C140.564 153.993 140.798 153.68 141.111 153.446C141.424 153.211 141.736 152.977 142.127 152.899C142.518 152.742 142.909 152.664 143.378 152.664C143.847 152.664 144.238 152.742 144.629 152.899C145.02 153.055 145.332 153.211 145.645 153.446C145.958 153.68 146.114 153.993 146.349 154.384C146.505 154.697 146.583 155.087 146.583 155.556ZM144.707 155.478C144.707 155.166 144.629 154.853 144.394 154.618C144.16 154.384 143.847 154.228 143.456 154.228C143.065 154.228 142.753 154.384 142.518 154.618C142.284 154.853 142.205 155.166 142.205 155.556C142.205 155.947 142.284 156.182 142.518 156.416C142.753 156.651 143.065 156.807 143.456 156.807C143.847 156.807 144.16 156.729 144.394 156.495C144.551 156.182 144.707 155.869 144.707 155.478Z" fill="black"/>
<path d="M148.851 162.279H147.287L148.147 159.074H149.945L148.851 162.279Z" fill="black"/>
<path d="M157.215 156.885C157.215 157.433 157.137 157.98 157.058 158.527C156.98 159.074 156.746 159.465 156.511 159.856C156.277 160.247 155.964 160.56 155.573 160.794C155.182 161.029 154.713 161.107 154.166 161.107C153.619 161.107 153.15 161.029 152.759 160.794C152.368 160.56 152.055 160.247 151.821 159.856C151.586 159.465 151.352 158.996 151.274 158.527C151.195 157.98 151.117 157.511 151.117 156.885C151.117 156.26 151.195 155.791 151.274 155.244C151.352 154.697 151.586 154.306 151.821 153.915C152.055 153.524 152.368 153.211 152.759 152.977C153.15 152.742 153.619 152.664 154.166 152.664C154.713 152.664 155.182 152.742 155.573 152.977C155.964 153.211 156.277 153.524 156.511 153.915C156.746 154.306 156.902 154.775 157.058 155.244C157.215 155.713 157.215 156.26 157.215 156.885ZM155.339 156.885C155.339 156.651 155.339 156.338 155.26 156.026C155.26 155.713 155.182 155.478 155.104 155.166C155.026 154.931 154.87 154.697 154.713 154.54C154.557 154.384 154.322 154.306 154.088 154.306C153.853 154.306 153.619 154.384 153.462 154.54C153.306 154.697 153.15 154.931 153.072 155.166C152.993 155.4 152.915 155.713 152.915 156.026C152.915 156.338 152.837 156.573 152.837 156.885C152.837 157.12 152.837 157.433 152.915 157.745C152.915 158.058 152.993 158.371 153.072 158.605C153.15 158.84 153.306 159.074 153.462 159.231C153.619 159.387 153.853 159.465 154.088 159.465C154.322 159.465 154.557 159.387 154.713 159.231C154.87 159.074 154.948 158.84 155.104 158.605C155.182 158.371 155.26 158.058 155.26 157.745C155.26 157.355 155.339 157.12 155.339 156.885Z" fill="black"/>
<path d="M163.546 159.309V160.872H161.748V159.309H158.074V157.745L161.358 152.899H163.625V157.824H164.719V159.387H163.546V159.309ZM161.827 154.853L159.872 157.824H161.827V154.853Z" fill="black"/>
<path d="M165.814 160.872V159.309L168.941 156.495C169.175 156.338 169.331 156.104 169.41 155.947C169.566 155.791 169.566 155.556 169.566 155.322C169.566 155.009 169.488 154.775 169.331 154.618C169.175 154.462 168.941 154.384 168.628 154.384C168.315 154.384 168.081 154.462 167.846 154.697C167.612 154.931 167.533 155.244 167.455 155.556L165.657 155.322C165.735 154.931 165.814 154.54 165.97 154.228C166.126 153.915 166.361 153.602 166.673 153.446C166.908 153.211 167.221 153.055 167.612 152.899C167.924 152.742 168.315 152.742 168.706 152.742C169.097 152.742 169.41 152.82 169.8 152.899C170.113 152.977 170.426 153.133 170.739 153.368C171.051 153.602 171.208 153.837 171.364 154.149C171.52 154.462 171.598 154.853 171.598 155.244C171.598 155.556 171.598 155.791 171.52 156.026C171.442 156.26 171.364 156.495 171.208 156.651C171.051 156.885 170.895 157.042 170.739 157.198C170.582 157.354 170.426 157.511 170.191 157.667L168.315 159.309H171.598V160.95H165.814V160.872Z" fill="black"/>
<path d="M179.104 152.039C178.791 152.898 178.4 153.68 178.009 154.462V162.045H176.993V156.025C176.68 156.416 176.368 156.807 176.133 157.12C176.055 156.885 175.742 156.338 175.586 156.025C176.602 154.931 177.54 153.289 178.166 151.648L179.104 152.039ZM185.983 158.214H183.012V162.045H181.996V158.214H178.869V157.198H181.996V154.931H180.355C180.12 155.556 179.886 156.104 179.573 156.494C179.338 156.338 178.947 156.104 178.635 155.947C179.26 155.009 179.729 153.602 179.964 152.195L180.98 152.429C180.902 152.898 180.745 153.368 180.589 153.837H181.84V151.726H182.856V153.837H185.358V154.853H182.856V157.12H185.827V158.214H185.983V158.214Z" fill="black"/>
<path opacity="0.5" d="M250.32 240.61H42.2207V240.923H250.32V240.61Z" fill="#606060"/>
<path opacity="0.5" d="M250.32 188.624H42.2207V188.937H250.32V188.624Z" fill="#606060"/>
<path d="M100.07 209.575C100.539 209.575 100.93 209.653 101.399 209.809C101.868 209.966 102.259 210.122 102.649 210.435C102.259 210.825 101.946 211.295 101.555 211.685C101.399 211.529 101.164 211.373 100.851 211.216C100.617 211.138 100.304 211.06 100.07 211.06V212.858C100.382 212.936 100.695 213.014 100.93 213.171C101.242 213.249 101.477 213.405 101.79 213.64C102.024 213.796 102.259 214.031 102.415 214.343C102.571 214.578 102.649 214.969 102.649 215.36C102.649 215.75 102.571 216.141 102.415 216.454C102.259 216.767 102.102 217.001 101.79 217.236C101.555 217.47 101.242 217.627 100.93 217.705C100.617 217.783 100.304 217.861 99.9916 217.861V218.721H99.1317V217.861C98.6626 217.861 98.1154 217.783 97.6463 217.548C97.1773 217.392 96.7083 217.158 96.3174 216.767C96.5519 216.532 96.7083 216.376 96.9428 216.141C97.1773 215.907 97.3337 215.75 97.5682 215.516C97.6463 215.594 97.8027 215.75 97.959 215.829C98.1154 215.907 98.2717 215.985 98.3499 216.063C98.5063 216.141 98.6626 216.22 98.8189 216.22C98.9753 216.298 99.1316 216.298 99.2098 216.298V214.343C98.8971 214.265 98.5844 214.187 98.2717 214.031C97.959 213.952 97.7245 213.796 97.49 213.562C97.2555 213.327 97.0991 213.171 96.9428 212.858C96.7864 212.623 96.7083 212.311 96.7083 211.92C96.7083 211.529 96.7864 211.216 96.9428 210.904C97.0991 210.591 97.2555 210.356 97.5682 210.2C97.8027 209.966 98.1154 209.809 98.3499 209.731C98.6626 209.653 98.9753 209.575 99.2098 209.575V208.793H100.07V209.575ZM99.2098 211.06C98.9753 211.06 98.819 211.138 98.6626 211.295C98.5063 211.451 98.4281 211.607 98.4281 211.842C98.4281 212.076 98.5063 212.233 98.6626 212.389C98.819 212.545 98.9753 212.623 99.2098 212.702V211.06ZM99.9916 216.376C100.226 216.376 100.461 216.298 100.617 216.141C100.773 215.985 100.851 215.75 100.851 215.516C100.851 215.281 100.773 215.047 100.617 214.891C100.461 214.734 100.226 214.656 99.9916 214.578V216.376Z" fill="#1E1E1E"/>
<path d="M112.812 215.438C112.812 215.829 112.734 216.22 112.578 216.532C112.421 216.845 112.187 217.079 111.952 217.314C111.64 217.549 111.327 217.705 111.014 217.783C110.702 217.861 110.233 217.939 109.842 217.939C109.451 217.939 109.06 217.861 108.669 217.783C108.278 217.705 107.966 217.549 107.731 217.314C107.418 217.079 107.262 216.845 107.106 216.532C106.949 216.22 106.871 215.829 106.871 215.438C106.871 215.203 106.871 214.969 106.949 214.734C107.027 214.5 107.106 214.343 107.262 214.187C107.418 214.031 107.575 213.874 107.731 213.796C107.887 213.718 108.122 213.562 108.278 213.562C107.966 213.405 107.653 213.249 107.418 212.936C107.184 212.624 107.027 212.311 107.027 211.842C107.027 211.451 107.106 211.138 107.262 210.826C107.418 210.513 107.653 210.278 107.887 210.122C108.122 209.966 108.435 209.809 108.747 209.653C109.06 209.575 109.451 209.497 109.842 209.497C110.233 209.497 110.545 209.575 110.936 209.653C111.327 209.731 111.562 209.887 111.796 210.044C112.031 210.2 112.265 210.435 112.421 210.747C112.578 211.06 112.656 211.373 112.656 211.764C112.656 212.233 112.578 212.624 112.343 212.858C112.109 213.093 111.796 213.405 111.483 213.483C111.718 213.562 111.874 213.64 112.031 213.718C112.187 213.874 112.343 213.952 112.5 214.109C112.656 214.265 112.734 214.422 112.812 214.656C112.812 214.969 112.812 215.203 112.812 215.438ZM110.936 215.36C110.936 215.047 110.858 214.812 110.623 214.578C110.389 214.343 110.154 214.265 109.842 214.265C109.529 214.265 109.216 214.343 109.06 214.578C108.904 214.812 108.747 215.047 108.747 215.36C108.747 215.672 108.825 215.985 109.06 216.141C109.294 216.298 109.529 216.454 109.842 216.454C110.154 216.454 110.467 216.376 110.623 216.141C110.858 215.985 110.936 215.672 110.936 215.36ZM110.78 211.842C110.78 211.607 110.702 211.373 110.467 211.216C110.311 211.06 110.076 210.982 109.764 210.982C109.451 210.982 109.216 211.06 109.06 211.216C108.904 211.373 108.825 211.607 108.825 211.842C108.825 212.076 108.904 212.311 109.06 212.545C109.216 212.78 109.451 212.858 109.764 212.858C110.076 212.858 110.311 212.78 110.467 212.545C110.702 212.311 110.78 212.154 110.78 211.842Z" fill="#1E1E1E"/>
<path d="M120.317 215.047C120.317 215.516 120.238 215.907 120.082 216.298C119.926 216.688 119.691 217.001 119.378 217.236C119.066 217.47 118.753 217.705 118.362 217.783C117.971 217.939 117.58 218.017 117.111 218.017C116.642 218.017 116.251 217.939 115.861 217.783C115.47 217.627 115.157 217.47 114.844 217.236C114.532 217.001 114.297 216.688 114.141 216.298C113.984 215.907 113.906 215.516 113.906 215.125C113.906 214.656 113.984 214.187 114.141 213.796C114.297 213.405 114.532 213.014 114.766 212.623L116.721 209.731H119.066L117.111 212.467V212.545C117.19 212.545 117.268 212.467 117.346 212.467C117.424 212.467 117.58 212.467 117.659 212.467C117.971 212.467 118.362 212.545 118.675 212.623C118.988 212.78 119.3 212.936 119.535 213.171C119.769 213.405 119.926 213.718 120.082 214.031C120.238 214.265 120.317 214.656 120.317 215.047ZM118.44 215.047C118.44 214.656 118.362 214.343 118.128 214.109C117.893 213.874 117.58 213.718 117.19 213.718C116.799 213.718 116.486 213.874 116.251 214.109C116.017 214.343 115.861 214.656 115.861 215.047C115.861 215.36 115.939 215.672 116.173 215.985C116.408 216.219 116.721 216.376 117.111 216.376C117.502 216.376 117.815 216.219 118.049 215.985C118.284 215.75 118.44 215.438 118.44 215.047Z" fill="#1E1E1E"/>
<path d="M127.665 212.311C127.665 212.78 127.587 213.249 127.431 213.64C127.274 214.031 127.04 214.421 126.805 214.812L124.851 217.705H122.506L124.538 214.89C124.46 214.89 124.382 214.969 124.225 214.969C124.147 214.969 123.991 214.969 123.913 214.969C123.522 214.969 123.209 214.89 122.897 214.812C122.584 214.734 122.271 214.5 122.037 214.265C121.802 214.031 121.568 213.796 121.489 213.405C121.333 213.092 121.255 212.702 121.255 212.311C121.255 211.842 121.333 211.451 121.489 211.06C121.646 210.669 121.88 210.356 122.193 210.122C122.506 209.887 122.818 209.653 123.209 209.575C123.6 209.418 123.991 209.34 124.46 209.34C124.929 209.34 125.32 209.418 125.711 209.575C126.102 209.731 126.414 209.887 126.727 210.122C127.04 210.356 127.274 210.669 127.431 211.06C127.587 211.529 127.665 211.92 127.665 212.311ZM125.789 212.311C125.789 211.998 125.711 211.685 125.476 211.373C125.242 211.138 124.929 210.982 124.538 210.982C124.147 210.982 123.835 211.138 123.6 211.373C123.366 211.607 123.287 211.92 123.287 212.311C123.287 212.702 123.366 213.014 123.6 213.249C123.835 213.483 124.147 213.64 124.538 213.64C124.929 213.64 125.242 213.483 125.476 213.249C125.633 213.014 125.789 212.702 125.789 212.311Z" fill="#1E1E1E"/>
<path d="M129.933 219.112H128.369L129.229 215.907H131.027L129.933 219.112Z" fill="#1E1E1E"/>
<path d="M138.453 212.311C138.453 212.78 138.375 213.249 138.219 213.64C138.062 214.031 137.828 214.421 137.593 214.812L135.639 217.705H133.294L135.326 214.89C135.248 214.89 135.17 214.969 135.014 214.969C134.935 214.969 134.779 214.969 134.701 214.969C134.31 214.969 133.997 214.89 133.685 214.812C133.372 214.734 133.059 214.5 132.825 214.265C132.59 214.031 132.356 213.796 132.277 213.405C132.121 213.092 132.043 212.702 132.043 212.311C132.043 211.842 132.121 211.451 132.277 211.06C132.434 210.669 132.668 210.356 132.981 210.122C133.294 209.887 133.606 209.653 133.997 209.575C134.388 209.418 134.779 209.34 135.248 209.34C135.717 209.34 136.108 209.418 136.499 209.575C136.89 209.731 137.202 209.887 137.515 210.122C137.828 210.356 138.062 210.669 138.219 211.06C138.375 211.529 138.453 211.92 138.453 212.311ZM136.577 212.311C136.577 211.998 136.499 211.685 136.264 211.373C136.03 211.138 135.717 210.982 135.326 210.982C134.935 210.982 134.623 211.138 134.388 211.373C134.154 211.607 134.075 211.92 134.075 212.311C134.075 212.702 134.154 213.014 134.388 213.249C134.623 213.483 134.935 213.64 135.326 213.64C135.717 213.64 136.03 213.483 136.264 213.249C136.421 213.014 136.577 212.702 136.577 212.311Z" fill="#1E1E1E"/>
<path d="M145.802 212.311C145.802 212.78 145.724 213.249 145.567 213.64C145.411 214.031 145.176 214.421 144.942 214.812L142.988 217.705H140.642L142.675 214.89C142.597 214.89 142.519 214.969 142.362 214.969C142.284 214.969 142.128 214.969 142.05 214.969C141.659 214.969 141.346 214.89 141.033 214.812C140.721 214.734 140.408 214.5 140.173 214.265C139.939 214.031 139.704 213.796 139.626 213.405C139.47 213.092 139.392 212.702 139.392 212.311C139.392 211.842 139.47 211.451 139.626 211.06C139.782 210.669 140.017 210.356 140.33 210.122C140.642 209.887 140.955 209.653 141.346 209.575C141.737 209.418 142.128 209.34 142.597 209.34C143.066 209.34 143.457 209.418 143.848 209.575C144.238 209.731 144.551 209.887 144.864 210.122C145.176 210.356 145.411 210.669 145.567 211.06C145.724 211.529 145.802 211.92 145.802 212.311ZM143.926 212.311C143.926 211.998 143.848 211.685 143.613 211.373C143.378 211.138 143.066 210.982 142.675 210.982C142.284 210.982 141.971 211.138 141.737 211.373C141.502 211.607 141.424 211.92 141.424 212.311C141.424 212.702 141.502 213.014 141.737 213.249C141.971 213.483 142.284 213.64 142.675 213.64C143.066 213.64 143.378 213.483 143.613 213.249C143.769 213.014 143.926 212.702 143.926 212.311Z" fill="#1E1E1E"/>
<path d="M152.994 215.438C152.994 215.829 152.916 216.22 152.759 216.532C152.603 216.845 152.369 217.079 152.134 217.314C151.821 217.549 151.509 217.705 151.196 217.783C150.883 217.861 150.414 217.939 150.023 217.939C149.632 217.939 149.242 217.861 148.851 217.783C148.46 217.705 148.147 217.549 147.913 217.314C147.6 217.079 147.444 216.845 147.287 216.532C147.131 216.22 147.053 215.829 147.053 215.438C147.053 215.203 147.053 214.969 147.131 214.734C147.209 214.5 147.287 214.343 147.444 214.187C147.6 214.031 147.756 213.874 147.913 213.796C148.069 213.718 148.304 213.562 148.46 213.562C148.147 213.405 147.834 213.249 147.6 212.936C147.365 212.624 147.209 212.311 147.209 211.842C147.209 211.451 147.287 211.138 147.444 210.826C147.6 210.513 147.834 210.278 148.069 210.122C148.304 209.966 148.616 209.809 148.929 209.653C149.242 209.575 149.632 209.497 150.023 209.497C150.414 209.497 150.727 209.575 151.118 209.653C151.509 209.731 151.743 209.887 151.978 210.044C152.212 210.2 152.447 210.435 152.603 210.747C152.759 211.06 152.838 211.373 152.838 211.764C152.838 212.233 152.759 212.624 152.525 212.858C152.29 213.093 151.978 213.405 151.665 213.483C151.9 213.562 152.056 213.64 152.212 213.718C152.369 213.874 152.525 213.952 152.681 214.109C152.838 214.265 152.916 214.422 152.994 214.656C152.916 214.969 152.994 215.203 152.994 215.438ZM151.118 215.36C151.118 215.047 151.04 214.812 150.805 214.578C150.571 214.343 150.336 214.265 150.023 214.265C149.711 214.265 149.398 214.343 149.242 214.578C149.085 214.812 148.929 215.047 148.929 215.36C148.929 215.672 149.007 215.985 149.242 216.141C149.476 216.298 149.711 216.454 150.023 216.454C150.336 216.454 150.649 216.376 150.805 216.141C150.961 215.985 151.118 215.672 151.118 215.36ZM150.961 211.842C150.961 211.607 150.883 211.373 150.649 211.216C150.492 211.06 150.258 210.982 149.945 210.982C149.632 210.982 149.398 211.06 149.242 211.216C149.085 211.373 149.007 211.607 149.007 211.842C149.007 212.076 149.085 212.311 149.242 212.545C149.398 212.78 149.632 212.858 149.945 212.858C150.258 212.858 150.492 212.78 150.649 212.545C150.883 212.311 150.961 212.154 150.961 211.842Z" fill="#1E1E1E"/>
<path d="M99.2096 268.205V262.264L97.7243 263.437L96.708 262.108L99.3659 260.153H101.086V268.205H99.2096Z" fill="#1E1E1E"/>
<path d="M106.558 268.205V262.264L105.073 263.437L104.057 262.108L106.715 260.153H108.434V268.205H106.558Z" fill="#1E1E1E"/>
<path d="M113.515 267.189C113.515 267.502 113.437 267.736 113.202 267.971C112.968 268.205 112.733 268.283 112.421 268.283C112.264 268.283 112.108 268.283 111.952 268.205C111.795 268.127 111.717 268.049 111.561 267.971C111.404 267.893 111.404 267.736 111.326 267.658C111.248 267.502 111.248 267.345 111.248 267.189C111.248 267.033 111.248 266.876 111.326 266.72C111.404 266.564 111.483 266.485 111.561 266.329C111.639 266.173 111.795 266.173 111.952 266.095C112.108 266.016 112.264 266.016 112.421 266.016C112.733 266.016 112.968 266.095 113.202 266.329C113.437 266.564 113.515 266.876 113.515 267.189Z" fill="#1E1E1E"/>
<path d="M114.845 268.205V266.642L117.972 263.828C118.206 263.671 118.363 263.437 118.441 263.28C118.519 263.124 118.597 262.889 118.597 262.655C118.597 262.342 118.519 262.108 118.363 261.951C118.206 261.795 117.972 261.717 117.659 261.717C117.346 261.717 117.112 261.795 116.877 262.03C116.643 262.264 116.565 262.577 116.486 262.889L114.688 262.655C114.767 262.264 114.845 261.873 115.001 261.56C115.158 261.248 115.392 260.935 115.705 260.779C115.939 260.544 116.252 260.388 116.643 260.232C117.034 260.075 117.346 260.075 117.737 260.075C118.128 260.075 118.441 260.153 118.832 260.232C119.144 260.31 119.457 260.466 119.77 260.701C120.082 260.935 120.239 261.17 120.395 261.482C120.552 261.795 120.63 262.186 120.63 262.577C120.63 262.889 120.63 263.124 120.552 263.358C120.473 263.593 120.395 263.828 120.239 263.984C120.082 264.218 119.926 264.375 119.77 264.531C119.613 264.687 119.457 264.844 119.223 265L117.346 266.642H120.63V268.283H114.845V268.205Z" fill="#1E1E1E"/>
<path d="M130.401 264.297C131.183 266.251 132.668 267.736 134.935 268.362C134.701 268.596 134.388 269.065 134.232 269.378C132.043 268.674 130.558 267.189 129.698 265.156C129.15 266.72 127.9 268.283 125.164 269.378C125.007 269.143 124.694 268.674 124.46 268.44C127.274 267.345 128.369 265.782 128.76 264.297H124.773V263.202H128.994C129.072 262.811 129.072 262.42 129.072 262.108V260.857H125.242V259.762H134.154V260.857H130.167V262.108C130.167 262.42 130.167 262.811 130.088 263.202H134.623V264.297H130.401Z" fill="#1E1E1E"/>
<path d="M279.088 213.562L278.072 213.874V216.141C278.072 216.689 277.994 217.001 277.603 217.158C277.29 217.314 276.821 217.392 276.118 217.392C276.118 217.079 275.961 216.61 275.805 216.298C276.196 216.298 276.587 216.298 276.743 216.298C276.899 216.298 276.899 216.22 276.899 216.141V214.187L275.883 214.422L275.57 213.249C275.961 213.171 276.43 213.093 276.899 212.936V211.295H275.727V210.2H276.899V208.324H278.072V210.122H278.932V211.216H278.072V212.624C278.385 212.545 278.619 212.467 278.932 212.389L279.088 213.562ZM284.639 215.829V216.923H279.088V215.829H279.557V209.966H279.01V208.871H284.404V209.966H280.652V210.982H284.013V214.656H280.652V215.907H284.639V215.829ZM280.73 211.998V213.483H282.997V211.998H280.73Z" fill="#1E1E1E"/>
<path d="M293.706 211.216C293.472 212.624 293.081 213.874 292.534 214.891C293.081 215.516 293.628 216.063 294.41 216.454C294.175 216.689 293.785 217.08 293.628 217.392C292.925 217.001 292.377 216.454 291.908 215.907C291.361 216.532 290.736 217.08 289.954 217.47C289.798 217.236 289.407 216.767 289.172 216.532C290.032 216.141 290.658 215.594 291.205 214.891C290.814 214.265 290.501 213.562 290.267 212.78C290.11 213.014 289.954 213.249 289.798 213.484C289.641 213.249 289.329 212.858 289.094 212.545V217.392H287.922V214.891C286.358 215.438 286.045 215.594 285.889 215.751C285.811 215.438 285.654 214.969 285.42 214.734C285.576 214.656 285.811 214.422 285.811 214.031V209.34H286.905V214.031L287.922 213.718V208.402H289.094V212.233C289.876 211.295 290.267 209.809 290.501 208.246L291.674 208.402C291.596 208.949 291.439 209.497 291.361 209.966H294.332V211.06H293.706V211.216ZM291.048 211.216C291.048 211.295 290.97 211.373 290.97 211.451C291.205 212.311 291.518 213.093 291.908 213.796C292.299 213.093 292.534 212.233 292.69 211.216H291.048Z" fill="#1E1E1E"/>
<path d="M300.117 212.155V213.171H303.165V214.187H301.602L302.54 214.5C302.227 215.047 301.836 215.594 301.524 216.063H303.634V217.08H295.27V216.141H297.146C296.99 215.672 296.677 215.047 296.364 214.578L297.146 214.265H295.739V213.249H298.788V212.233H296.833V211.764C296.442 211.92 295.973 212.155 295.583 212.311C295.426 211.998 295.113 211.529 294.801 211.216C296.599 210.669 298.397 209.731 299.257 208.246L300.351 208.715C300.273 208.871 300.195 208.949 300.117 209.106C301.055 209.966 302.618 210.747 304.103 211.138C303.869 211.373 303.478 211.842 303.322 212.155C302.853 211.998 302.462 211.842 301.993 211.607V212.155H300.117ZM297.381 214.187C297.693 214.656 298.084 215.282 298.24 215.751L297.459 216.063H298.866V214.187H297.381ZM301.211 211.138C300.586 210.747 300.038 210.357 299.569 209.888C299.1 210.357 298.553 210.747 298.006 211.138H301.211ZM300.117 214.187V216.063H301.289L300.664 215.829C300.977 215.36 301.289 214.734 301.524 214.187H300.117V214.187Z" fill="#1E1E1E"/>
<path d="M308.638 214.343V217.314H307.622V217.079H306.371V217.314H305.433V214.578C305.355 214.656 305.199 214.656 305.12 214.734C305.042 214.5 304.73 214.031 304.573 213.796C305.199 213.64 305.746 213.405 306.215 213.014C306.059 212.936 305.902 212.78 305.746 212.702L306.371 211.998L306.997 212.311C307.231 212.155 307.388 211.92 307.544 211.685H306.371C306.059 212.076 305.746 212.467 305.277 212.78C305.199 212.545 304.886 212.155 304.73 211.998C305.511 211.529 305.902 210.826 306.137 210.2L306.997 210.357C306.918 210.513 306.918 210.669 306.84 210.826H308.091H308.247V210.122H305.668V210.982H304.808V209.262H306.528C306.449 209.028 306.371 208.793 306.293 208.637L307.231 208.324C307.309 208.637 307.466 208.949 307.622 209.262H309.186V210.982H308.404L308.795 211.295C308.56 211.92 308.247 212.389 307.857 212.858C308.404 213.171 308.873 213.483 309.186 213.718L308.638 214.343ZM308.247 214.343C307.935 214.109 307.466 213.874 307.075 213.562C306.684 213.874 306.293 214.109 305.824 214.343H308.247ZM307.622 216.22V215.281H306.371V216.22H307.622ZM312.156 215.438C312.703 215.751 313.329 216.22 313.72 216.532L313.094 217.314C312.782 216.923 312 216.376 311.453 216.063L312 215.438H310.593L311.296 216.141C310.749 216.61 309.889 217.079 309.186 217.392C309.107 217.158 308.873 216.767 308.716 216.532C309.342 216.298 310.124 215.829 310.514 215.438H309.498V210.357H310.749C310.749 210.122 310.827 209.887 310.827 209.653H309.264V208.715H313.563V209.653H311.843C311.765 209.887 311.687 210.122 311.609 210.357H313.251V215.438H312.156V215.438ZM310.593 211.764H312.312V211.216H310.593V211.764ZM310.593 213.171H312.312V212.624H310.593V213.171ZM310.593 214.578H312.312V214.031H310.593V214.578Z" fill="#1E1E1E"/>
<path d="M284.639 260.31V261.248H282.919C283.153 261.482 283.388 261.717 283.544 261.951L282.919 262.498H284.169V263.437H280.73V263.984H283.544V264.844H276.665V263.984H279.557V263.437H276.118V262.498H278.541C278.306 262.264 277.916 261.873 277.603 261.56L277.916 261.248H277.212C276.899 261.639 276.587 262.029 276.274 262.264C276.118 262.029 275.727 261.639 275.492 261.482C276.039 261.013 276.665 260.31 276.977 259.528L277.994 259.841C277.916 259.997 277.837 260.075 277.837 260.231H279.948V261.169H278.619C278.854 261.404 279.088 261.56 279.245 261.795L278.541 262.42H279.479V261.951H280.183C280.026 261.873 279.87 261.717 279.792 261.717C280.339 261.169 280.73 260.388 280.964 259.606L281.981 259.841C281.902 259.997 281.902 260.153 281.824 260.31H284.639ZM282.606 265.547H284.404V266.485H282.606V267.658C282.606 268.205 282.45 268.44 282.059 268.596C281.668 268.752 281.043 268.752 280.261 268.752C280.261 268.44 280.104 268.127 279.948 267.814C280.417 267.814 281.043 267.814 281.199 267.814C281.355 267.814 281.433 267.814 281.433 267.658V266.485H278.463C278.932 266.876 279.479 267.345 279.714 267.658L278.854 268.361C278.541 267.971 277.916 267.345 277.368 266.954L277.916 266.563H275.805V265.625H281.433V265.156H282.606V265.547ZM282.606 262.498C282.371 262.264 282.059 261.873 281.824 261.639L282.215 261.326H281.512C281.277 261.795 281.043 262.108 280.73 262.42V262.498H282.606Z" fill="#1E1E1E"/>
<path d="M288.469 262.264C288.234 262.655 288 263.046 287.687 263.437V268.752H286.593V264.766C286.28 265.078 285.967 265.313 285.733 265.547C285.655 265.313 285.342 264.609 285.186 264.375C286.045 263.749 286.984 262.811 287.531 261.873L288.469 262.264ZM288.313 260.153C287.687 261.013 286.671 262.03 285.811 262.577C285.733 262.342 285.42 261.873 285.264 261.639C286.045 261.17 286.827 260.388 287.218 259.762L288.313 260.153ZM293.081 264.531H294.254V265.547H293.081V267.502C293.081 268.049 293.003 268.362 292.534 268.518C292.143 268.674 291.596 268.674 290.814 268.674C290.736 268.362 290.58 267.893 290.423 267.58C290.892 267.58 291.439 267.58 291.596 267.58C291.752 267.58 291.83 267.58 291.83 267.424V265.469H288V264.453H291.83V263.906H293.003V264.531H293.081ZM294.332 260.857V261.873H291.752V262.655H293.941V263.671H288.469V262.655H290.58V261.873H288.156V260.857H290.58V259.762H291.752V260.857H294.332ZM289.563 265.704C289.954 266.173 290.501 266.876 290.814 267.267L289.798 267.814C289.563 267.345 289.016 266.642 288.625 266.173L289.563 265.704Z" fill="#1E1E1E"/>
<path d="M298.319 266.876H296.365V267.736H295.271V260.31H298.319V266.876ZM296.365 261.326V263.046H297.225V261.326H296.365ZM297.225 265.86V264.062H296.365V265.86H297.225ZM301.759 261.795V262.733H303.713V263.749H303.01V264.531H303.948V265.547H303.01V267.658C303.01 268.205 302.932 268.518 302.541 268.674C302.15 268.83 301.603 268.83 300.899 268.83C300.899 268.518 300.665 268.049 300.508 267.736C300.977 267.736 301.524 267.736 301.681 267.736C301.837 267.736 301.915 267.736 301.915 267.58V265.391H298.554V264.375H301.915V263.593H298.788V262.577H300.665V261.638H298.476V260.622H300.665V259.606H301.759V260.622H303.948V261.638H301.759V261.795ZM299.805 265.547C300.195 266.016 300.743 266.642 300.977 267.111L299.961 267.736C299.726 267.345 299.257 266.642 298.867 266.094L299.805 265.547Z" fill="#1E1E1E"/>
<path d="M306.215 263.593V268.752H305.042V260.075H308.716V263.593H306.215ZM306.215 260.935V261.482H307.7V260.935H306.215ZM307.7 262.733V262.186H306.215V262.733H307.7ZM313.25 267.423C313.25 268.049 313.094 268.361 312.703 268.596C312.312 268.752 311.765 268.83 310.905 268.83C310.905 268.596 310.749 268.205 310.671 267.892H308.247V268.361H307.231V264.14H310.983V267.58C311.374 267.58 311.687 267.58 311.843 267.58C311.999 267.58 312.078 267.501 312.078 267.345V263.593H309.42V260.075H313.25V267.423ZM308.325 265V265.547H309.889V265H308.325ZM309.889 267.032V266.407H308.325V267.032H309.889ZM310.592 260.935V261.482H312.156V260.935H310.592ZM312.078 262.811V262.264H310.514V262.811H312.078Z" fill="#1E1E1E"/>
<path d="M283.075 114.202H474.68C483.044 114.202 489.845 121.004 489.845 129.368V162.983C489.845 171.348 483.044 178.149 474.68 178.149H283.075C274.71 178.149 267.909 171.348 267.909 162.983V129.368C267.909 121.004 274.71 114.202 283.075 114.202Z" fill="white"/>
<path d="M288.703 145.863L287.687 146.176V148.443C287.687 148.99 287.609 149.303 287.218 149.459C286.905 149.615 286.436 149.693 285.733 149.693C285.733 149.381 285.576 148.912 285.42 148.599C285.811 148.599 286.202 148.599 286.358 148.599C286.515 148.599 286.514 148.521 286.514 148.443V146.488L285.498 146.723L285.186 145.55C285.576 145.472 286.045 145.394 286.514 145.237V143.596H285.342V142.501H286.514V140.703H287.687V142.501H288.547V143.596H287.687V145.003C288 144.925 288.234 144.847 288.547 144.768L288.703 145.863ZM294.332 148.13V149.224H288.782V148.13H289.251V142.267H288.703V141.094H294.097V142.189H290.345V143.205H293.707V146.879H290.345V148.13H294.332ZM290.423 144.299V145.785H292.69V144.299H290.423Z" fill="#1E1E1E"/>
<path d="M303.4 143.518C303.165 144.925 302.774 146.176 302.227 147.192C302.774 147.817 303.322 148.365 304.103 148.755C303.869 148.99 303.478 149.381 303.322 149.693C302.618 149.303 302.071 148.755 301.602 148.208C301.055 148.834 300.429 149.381 299.647 149.772C299.491 149.537 299.1 149.068 298.866 148.834C299.726 148.443 300.351 147.895 300.898 147.192C300.507 146.567 300.195 145.863 299.96 145.081C299.804 145.316 299.647 145.55 299.491 145.785C299.335 145.55 299.022 145.159 298.787 144.847V149.693H297.615V147.192C296.051 147.739 295.739 147.895 295.582 148.052C295.504 147.739 295.348 147.27 295.113 147.036C295.27 146.957 295.504 146.723 295.504 146.332V141.642H296.599V146.332L297.615 146.019V140.703H298.787V144.534C299.569 143.596 299.96 142.111 300.195 140.547L301.367 140.703C301.289 141.251 301.133 141.798 301.055 142.267H304.025V143.361H303.4V143.518ZM300.664 143.518C300.664 143.596 300.585 143.674 300.585 143.752C300.82 144.612 301.133 145.394 301.524 146.097C301.914 145.394 302.149 144.534 302.305 143.518H300.664Z" fill="#1E1E1E"/>
<path d="M310.593 146.332C310.593 146.176 310.514 146.019 310.436 145.863C308.091 146.097 307.778 146.176 307.544 146.254C307.466 146.097 307.387 145.55 307.231 145.316C306.606 145.628 305.902 146.019 305.355 146.254L304.808 145.316C305.433 145.081 306.293 144.69 307.231 144.378L307.466 145.238L307.309 145.316C307.544 145.238 307.778 145.081 308.169 144.847C308.325 144.769 308.56 144.534 308.951 144.143C308.169 144.221 308.013 144.221 307.856 144.299C307.778 144.065 307.622 143.674 307.544 143.361C307.7 143.361 307.856 143.205 308.013 143.049C308.091 142.971 308.325 142.658 308.56 142.345H305.042V141.329H308.638C308.56 141.173 308.404 140.938 308.326 140.782L309.498 140.547C309.654 140.782 309.889 141.094 310.045 141.407H313.485V142.423H309.498C309.264 142.736 309.107 143.049 308.795 143.283H309.654C309.889 143.049 310.124 142.736 310.28 142.501L311.14 143.049C310.514 143.83 309.733 144.612 308.951 145.159L309.967 145.081C309.889 144.925 309.733 144.769 309.654 144.612L310.514 144.299C310.671 144.456 310.827 144.69 310.983 144.925L311.609 144.456C312.234 144.769 313.094 145.316 313.563 145.707L312.703 146.41C312.391 146.097 311.765 145.628 311.14 145.316C311.296 145.55 311.452 145.863 311.531 146.097L310.593 146.332ZM313.563 147.895H309.733V149.693H308.482V147.895H304.729V146.801H308.482V146.176H309.733V146.801H313.563V147.895ZM306.449 144.378C306.137 144.065 305.511 143.596 305.042 143.283L305.824 142.658C306.293 142.892 306.997 143.361 307.309 143.674L306.449 144.378ZM310.983 143.83C311.374 143.518 311.922 142.971 312.234 142.658L313.172 143.205C312.781 143.674 312.234 144.065 311.843 144.378L310.983 143.83Z" fill="#1E1E1E"/>
<path d="M339.36 142.032V144.69H336.312V142.032H329.901V139.296L335.452 131.01H339.36V139.453H341.237V142.11L339.36 142.032ZM336.312 134.293L333.028 139.374H336.312V134.293Z" fill="black"/>
<path d="M346.787 142.97C346.787 143.517 346.63 143.986 346.239 144.299C345.849 144.69 345.379 144.846 344.91 144.846C344.676 144.846 344.363 144.768 344.129 144.69C343.894 144.612 343.66 144.456 343.503 144.299C343.347 144.143 343.191 143.908 343.112 143.674C343.034 143.439 342.956 143.205 342.956 142.892C342.956 142.658 343.034 142.423 343.112 142.188C343.191 141.954 343.347 141.719 343.503 141.563C343.66 141.407 343.894 141.25 344.129 141.172C344.363 141.094 344.598 141.016 344.91 141.016C345.458 141.016 345.927 141.172 346.239 141.563C346.552 141.954 346.787 142.423 346.787 142.97Z" fill="black"/>
<path d="M353.666 144.69H349.914L355.464 133.746H348.976V130.932H358.904V133.511L353.666 144.69Z" fill="black"/>
<path d="M365.705 144.69V134.606L363.125 136.56L361.405 134.293L365.939 131.01H368.91V144.69H365.705Z" fill="black"/>
<path d="M380.636 134.371C380.636 134.84 380.558 135.387 380.324 135.778C380.167 136.247 379.855 136.638 379.542 136.951C379.229 137.264 378.838 137.576 378.369 137.733C377.9 137.889 377.431 138.045 376.962 138.045C376.493 138.045 375.946 137.967 375.555 137.733C375.164 137.498 374.695 137.264 374.383 136.951C374.07 136.638 373.757 136.247 373.601 135.778C373.444 135.309 373.288 134.84 373.288 134.371C373.288 133.824 373.366 133.355 373.601 132.964C373.757 132.495 374.07 132.104 374.383 131.791C374.695 131.479 375.086 131.166 375.555 131.01C376.024 130.853 376.493 130.697 376.962 130.697C377.431 130.697 377.979 130.775 378.369 131.01C378.838 131.166 379.229 131.479 379.542 131.791C379.855 132.104 380.167 132.495 380.324 132.964C380.558 133.433 380.636 133.902 380.636 134.371ZM378.448 134.371C378.448 133.98 378.291 133.589 377.979 133.277C377.666 132.964 377.353 132.808 376.884 132.808C376.415 132.808 376.102 132.964 375.79 133.277C375.477 133.589 375.321 133.902 375.321 134.371C375.321 134.762 375.477 135.153 375.79 135.466C376.102 135.778 376.415 135.935 376.884 135.935C377.353 135.935 377.666 135.778 377.979 135.466C378.291 135.153 378.448 134.84 378.448 134.371ZM378.448 145.316L376.728 144.456L384.702 130.306L386.5 131.166L378.448 145.316ZM389.939 141.251C389.939 141.72 389.861 142.267 389.626 142.658C389.47 143.127 389.157 143.518 388.845 143.83C388.532 144.143 388.141 144.456 387.672 144.612C387.203 144.768 386.734 144.925 386.265 144.925C385.796 144.925 385.249 144.847 384.858 144.612C384.467 144.377 383.998 144.143 383.685 143.83C383.373 143.518 383.06 143.127 382.904 142.658C382.747 142.189 382.591 141.72 382.591 141.251C382.591 140.781 382.669 140.312 382.904 139.843C383.06 139.374 383.373 138.983 383.685 138.671C383.998 138.358 384.389 138.045 384.858 137.889C385.327 137.733 385.796 137.576 386.265 137.576C386.734 137.576 387.281 137.655 387.672 137.889C388.063 138.124 388.532 138.358 388.845 138.671C389.157 138.983 389.47 139.374 389.626 139.843C389.861 140.312 389.939 140.781 389.939 141.251ZM387.75 141.251C387.75 141.016 387.672 140.86 387.594 140.625C387.516 140.469 387.438 140.312 387.281 140.156C387.125 140 386.969 139.922 386.812 139.843C386.656 139.765 386.421 139.765 386.265 139.765C385.874 139.765 385.483 139.922 385.171 140.234C384.858 140.547 384.702 140.86 384.702 141.329C384.702 141.72 384.858 142.11 385.171 142.423C385.483 142.736 385.796 142.892 386.265 142.892C386.5 142.892 386.656 142.892 386.812 142.814C386.969 142.736 387.125 142.658 387.281 142.501C387.438 142.345 387.516 142.189 387.594 142.032C387.75 141.641 387.75 141.485 387.75 141.251Z" fill="black"/>
<path d="M332.168 160.872V159.309L335.295 156.495C335.53 156.338 335.686 156.104 335.764 155.947C335.92 155.791 335.92 155.556 335.92 155.322C335.92 155.009 335.842 154.775 335.686 154.618C335.53 154.462 335.295 154.384 334.982 154.384C334.67 154.384 334.435 154.462 334.201 154.697C333.966 154.931 333.888 155.244 333.81 155.556L332.012 155.322C332.09 154.931 332.168 154.54 332.324 154.228C332.481 153.915 332.715 153.602 333.028 153.446C333.262 153.211 333.575 153.055 333.966 152.899C334.357 152.742 334.67 152.742 335.061 152.742C335.451 152.742 335.764 152.82 336.155 152.899C336.546 152.977 336.78 153.133 337.093 153.368C337.406 153.602 337.562 153.837 337.718 154.149C337.875 154.462 337.953 154.853 337.953 155.244C337.953 155.556 337.953 155.791 337.875 156.026C337.797 156.26 337.718 156.495 337.562 156.651C337.406 156.885 337.249 157.042 337.093 157.198C336.937 157.354 336.78 157.511 336.546 157.667L334.67 159.309H337.953V160.95H332.168V160.872Z" fill="#DC6D79"/>
<path d="M341.862 160.872V155.009L340.377 156.182L339.36 154.853L342.018 152.899H343.738V160.872H341.862Z" fill="#DC6D79"/>
<path d="M352.571 158.214C352.571 158.684 352.493 159.153 352.337 159.465C352.18 159.856 351.946 160.091 351.633 160.325C351.32 160.56 351.008 160.716 350.617 160.872C350.226 160.951 349.835 161.029 349.444 161.029C349.053 161.029 348.741 160.951 348.428 160.872C348.115 160.794 347.803 160.638 347.568 160.482C347.334 160.325 347.099 160.091 346.865 159.856C346.708 159.622 346.552 159.309 346.474 158.996L348.193 158.449C348.272 158.762 348.428 158.996 348.662 159.153C348.897 159.309 349.132 159.387 349.444 159.387C349.757 159.387 350.07 159.309 350.304 159.074C350.539 158.918 350.695 158.605 350.695 158.214C350.695 157.98 350.617 157.824 350.539 157.589C350.461 157.433 350.304 157.276 350.148 157.198C349.991 157.12 349.835 157.042 349.601 156.964C349.366 156.964 349.21 156.886 348.975 156.886C348.663 156.886 348.35 156.886 348.037 156.964C347.646 157.042 347.334 157.12 347.099 157.198L347.255 152.586H352.18V154.228H348.975L348.897 155.478C349.053 155.478 349.132 155.4 349.288 155.4C349.444 155.4 349.601 155.4 349.679 155.4C350.07 155.4 350.461 155.478 350.773 155.557C351.164 155.635 351.399 155.791 351.711 156.026C352.024 156.26 352.18 156.495 352.337 156.807C352.493 157.433 352.571 157.824 352.571 158.214Z" fill="#DC6D79"/>
<path d="M360.155 152.039C359.842 152.82 359.451 153.68 359.06 154.462V162.123H357.809V156.416C357.575 156.729 357.34 156.964 357.106 157.198C356.95 156.885 356.637 156.104 356.402 155.791C357.419 154.775 358.357 153.133 358.904 151.57L360.155 152.039ZM366.956 158.371H364.063V162.201H362.734V158.371H359.686V157.042H362.734V155.087H361.327C361.093 155.635 360.858 156.182 360.624 156.573C360.389 156.416 359.764 156.104 359.451 155.947C360.077 155.087 360.546 153.602 360.78 152.273L362.109 152.508C362.031 152.977 361.875 153.368 361.796 153.837H362.734V151.804H364.063V153.837H366.409V155.166H364.063V157.12H366.956V158.371Z" fill="#DC6D79"/>
<path d="M370.317 151.804H371.412L368.597 162.983H367.581L370.317 151.804Z" fill="black"/>
<path d="M380.167 159.309V160.872H378.369V159.309H374.616V157.745L377.9 152.899H380.167V157.824H381.261V159.387H380.167V159.309V159.309ZM378.369 154.853L376.414 157.824H378.369V154.853Z" fill="black"/>
<path d="M383.372 162.28H381.809L382.668 159.074H384.467L383.372 162.28Z" fill="black"/>
<path d="M391.58 158.214C391.58 158.684 391.502 159.153 391.345 159.465C391.189 159.856 390.955 160.091 390.642 160.325C390.329 160.56 390.017 160.716 389.626 160.872C389.235 160.951 388.844 161.029 388.453 161.029C388.062 161.029 387.749 160.951 387.437 160.872C387.124 160.794 386.811 160.638 386.577 160.482C386.342 160.325 386.108 160.091 385.873 159.856C385.717 159.622 385.561 159.309 385.482 158.996L387.202 158.449C387.28 158.762 387.437 158.996 387.671 159.153C387.906 159.309 388.14 159.387 388.453 159.387C388.766 159.387 389.078 159.309 389.313 159.074C389.547 158.918 389.704 158.605 389.704 158.214C389.704 157.98 389.626 157.824 389.547 157.589C389.469 157.433 389.313 157.276 389.157 157.198C389 157.12 388.844 157.042 388.609 156.964C388.375 156.964 388.219 156.886 387.984 156.886C387.671 156.886 387.359 156.886 387.046 156.964C386.655 157.042 386.342 157.12 386.108 157.198L386.264 152.586H391.189V154.228H387.984L387.906 155.478C388.062 155.478 388.14 155.4 388.297 155.4C388.453 155.4 388.609 155.4 388.688 155.4C389.078 155.4 389.469 155.478 389.782 155.557C390.173 155.635 390.407 155.791 390.72 156.026C391.033 156.26 391.189 156.495 391.345 156.807C391.502 157.433 391.58 157.824 391.58 158.214Z" fill="black"/>
<path d="M398.929 158.605C398.929 158.996 398.85 159.387 398.694 159.7C398.538 160.012 398.303 160.247 398.069 160.481C397.756 160.716 397.443 160.872 397.131 160.951C396.74 161.029 396.349 161.107 395.958 161.107C395.567 161.107 395.176 161.029 394.785 160.951C394.394 160.872 394.082 160.716 393.847 160.481C393.535 160.247 393.378 160.012 393.222 159.7C393.065 159.387 392.987 158.996 392.987 158.605C392.987 158.371 392.987 158.136 393.065 157.902C393.144 157.667 393.222 157.511 393.378 157.355C393.535 157.198 393.691 157.042 393.847 156.964C394.004 156.885 394.238 156.729 394.394 156.729C394.082 156.573 393.769 156.416 393.535 156.104C393.3 155.791 393.222 155.478 393.222 155.009C393.222 154.618 393.3 154.306 393.456 153.993C393.613 153.68 393.847 153.446 394.082 153.289C394.316 153.133 394.629 152.977 394.942 152.82C395.254 152.664 395.645 152.664 396.036 152.664C396.427 152.664 396.74 152.742 397.131 152.82C397.443 152.899 397.756 153.055 397.99 153.211C398.225 153.368 398.459 153.602 398.616 153.915C398.772 154.228 398.85 154.54 398.85 154.853C398.85 155.322 398.772 155.635 398.538 155.947C398.303 156.26 397.99 156.495 397.678 156.573C397.912 156.651 398.069 156.729 398.225 156.807C398.381 156.885 398.538 157.042 398.694 157.198C398.85 157.355 398.929 157.511 399.007 157.745C398.929 158.136 398.929 158.371 398.929 158.605ZM397.052 158.527C397.052 158.214 396.974 157.98 396.74 157.745C396.505 157.511 396.271 157.433 395.958 157.433C395.645 157.433 395.333 157.511 395.176 157.745C394.942 157.98 394.864 158.214 394.864 158.527C394.864 158.84 394.942 159.074 395.176 159.309C395.411 159.465 395.645 159.622 395.958 159.622C396.271 159.622 396.583 159.543 396.74 159.309C396.974 159.074 397.052 158.84 397.052 158.527ZM396.896 155.009C396.896 154.775 396.818 154.54 396.583 154.384C396.427 154.228 396.192 154.149 395.88 154.149C395.567 154.149 395.333 154.228 395.176 154.384C395.02 154.54 394.942 154.775 394.942 155.009C394.942 155.244 395.02 155.478 395.176 155.713C395.333 155.947 395.567 156.026 395.88 156.026C396.192 156.026 396.349 155.947 396.583 155.713C396.818 155.478 396.896 155.322 396.896 155.009Z" fill="black"/>
<path d="M406.198 158.527C406.198 158.996 406.12 159.309 405.964 159.7C405.807 160.012 405.573 160.247 405.26 160.482C404.947 160.716 404.635 160.872 404.322 160.951C403.931 161.029 403.618 161.107 403.228 161.107C402.837 161.107 402.524 161.029 402.133 160.951C401.82 160.872 401.508 160.716 401.195 160.56C400.882 160.403 400.648 160.169 400.491 159.934C400.257 159.7 400.101 159.309 400.022 158.996L401.82 158.527C401.899 158.762 402.055 158.996 402.29 159.231C402.524 159.465 402.837 159.543 403.149 159.543C403.306 159.543 403.384 159.543 403.54 159.465C403.697 159.465 403.775 159.387 403.931 159.309C404.009 159.231 404.166 159.153 404.166 158.996C404.244 158.84 404.244 158.684 404.244 158.527C404.244 158.293 404.166 158.136 404.088 157.98C404.009 157.824 403.853 157.745 403.697 157.667C403.54 157.589 403.384 157.511 403.149 157.511C402.993 157.511 402.759 157.433 402.524 157.433H401.977V156.026H402.524C402.68 156.026 402.915 156.026 403.071 155.947C403.228 155.947 403.384 155.869 403.54 155.791C403.697 155.713 403.775 155.635 403.853 155.478C403.931 155.322 404.009 155.166 404.009 155.009C404.009 154.697 403.931 154.54 403.697 154.384C403.462 154.228 403.228 154.149 402.993 154.149C402.759 154.149 402.524 154.228 402.29 154.384C402.055 154.54 401.977 154.775 401.899 155.009L400.101 154.618C400.179 154.306 400.335 153.993 400.57 153.759C400.726 153.524 400.961 153.29 401.273 153.133C401.508 152.977 401.82 152.82 402.133 152.742C402.446 152.664 402.759 152.586 403.071 152.586C403.462 152.586 403.775 152.664 404.088 152.742C404.4 152.82 404.713 152.977 404.947 153.133C405.182 153.29 405.416 153.524 405.573 153.837C405.729 154.149 405.807 154.462 405.807 154.853C405.807 155.322 405.651 155.635 405.416 155.947C405.182 156.26 404.869 156.495 404.478 156.573C404.713 156.651 404.947 156.729 405.104 156.807C405.26 156.886 405.416 157.042 405.573 157.198C405.729 157.355 405.807 157.511 405.886 157.745C406.12 158.136 406.198 158.293 406.198 158.527Z" fill="black"/>
<path d="M413.625 152.039C413.313 152.898 412.922 153.68 412.531 154.462V162.045H411.515V156.025C411.202 156.416 410.889 156.807 410.655 157.12C410.576 156.885 410.264 156.338 410.107 156.025C411.124 154.931 412.062 153.289 412.687 151.648L413.625 152.039ZM420.505 158.214H417.534V162.045H416.518V158.214H413.391V157.198H416.518V154.931H414.876C414.641 155.556 414.407 156.104 414.094 156.494C413.86 156.338 413.469 156.104 413.156 155.947C413.782 155.009 414.251 153.602 414.485 152.195L415.501 152.429C415.423 152.898 415.267 153.368 415.111 153.837H416.361V151.726H417.378V153.837H419.879V154.853H417.378V157.12H420.348V158.214H420.505V158.214Z" fill="black"/>
<path opacity="0.5" d="M484.921 240.61H276.821V240.923H484.921V240.61Z" fill="#606060"/>
<path opacity="0.5" d="M484.921 188.624H276.821V188.937H484.921V188.624Z" fill="#606060"/>
<path d="M334.591 209.575C335.06 209.575 335.451 209.653 335.92 209.809C336.389 209.966 336.78 210.122 337.171 210.435C336.78 210.825 336.467 211.295 336.077 211.685C335.92 211.529 335.686 211.373 335.373 211.216C335.138 211.138 334.826 211.06 334.591 211.06V212.858C334.904 212.936 335.217 213.014 335.451 213.171C335.764 213.249 335.998 213.405 336.311 213.64C336.624 213.874 336.78 214.031 336.936 214.343C337.093 214.578 337.171 214.969 337.171 215.36C337.171 215.75 337.093 216.141 336.936 216.454C336.78 216.767 336.624 217.001 336.311 217.236C335.998 217.47 335.764 217.627 335.451 217.705C335.138 217.783 334.826 217.861 334.513 217.861V218.721H333.653V217.861C333.184 217.861 332.637 217.783 332.168 217.548C331.699 217.392 331.23 217.158 330.839 216.767C331.073 216.532 331.23 216.376 331.464 216.141C331.699 215.907 331.855 215.75 332.09 215.516C332.168 215.594 332.324 215.75 332.481 215.829C332.637 215.907 332.793 215.985 332.871 216.063C333.028 216.141 333.184 216.22 333.34 216.22C333.497 216.298 333.653 216.298 333.731 216.298V214.343C333.419 214.265 333.106 214.187 332.793 214.031C332.481 213.952 332.246 213.796 332.011 213.562C331.777 213.327 331.621 213.171 331.464 212.858C331.308 212.623 331.23 212.311 331.23 211.92C331.23 211.529 331.308 211.216 331.464 210.904C331.621 210.591 331.777 210.356 332.09 210.2C332.324 209.966 332.637 209.809 332.871 209.731C333.184 209.653 333.497 209.575 333.731 209.575V208.793H334.591V209.575ZM333.809 211.06C333.575 211.06 333.419 211.138 333.262 211.295C333.106 211.451 333.028 211.607 333.028 211.842C333.028 212.076 333.106 212.233 333.262 212.389C333.419 212.545 333.575 212.623 333.809 212.702V211.06ZM334.591 216.376C334.826 216.376 335.06 216.298 335.217 216.141C335.373 215.985 335.451 215.75 335.451 215.516C335.451 215.281 335.373 215.047 335.217 214.891C335.06 214.734 334.826 214.656 334.591 214.578V216.376Z" fill="#1E1E1E"/>
<path d="M343.894 217.705V211.764L342.409 212.936L341.393 211.607L344.05 209.653H345.77V217.705H343.894Z" fill="#1E1E1E"/>
<path d="M353.9 216.141V217.705H352.102V216.141H348.35V214.578L351.633 209.731H353.9V214.656H354.994V216.219L353.9 216.141ZM352.102 211.607L350.148 214.578H352.102V211.607Z" fill="#1E1E1E"/>
<path d="M362.03 215.36C362.03 215.829 361.952 216.141 361.796 216.532C361.639 216.845 361.405 217.158 361.092 217.314C360.78 217.549 360.467 217.705 360.154 217.783C359.763 217.861 359.451 217.939 359.06 217.939C358.669 217.939 358.356 217.861 357.965 217.783C357.653 217.705 357.34 217.549 357.027 217.392C356.714 217.236 356.48 217.001 356.245 216.767C356.011 216.532 355.855 216.141 355.776 215.829L357.574 215.36C357.653 215.594 357.809 215.829 358.043 216.063C358.278 216.298 358.591 216.376 358.903 216.376C359.06 216.376 359.216 216.376 359.294 216.298C359.451 216.298 359.529 216.22 359.685 216.141C359.841 216.063 359.92 215.985 359.92 215.829C359.998 215.672 359.998 215.516 359.998 215.36C359.998 215.125 359.92 214.969 359.841 214.812C359.763 214.656 359.607 214.578 359.451 214.5C359.294 214.422 359.138 214.343 358.903 214.343C358.669 214.343 358.512 214.265 358.278 214.265H357.731V212.858H358.278C358.434 212.858 358.669 212.858 358.825 212.78C358.981 212.78 359.138 212.702 359.294 212.624C359.451 212.545 359.529 212.467 359.607 212.311C359.685 212.155 359.763 211.998 359.763 211.842C359.763 211.529 359.685 211.295 359.451 211.216C359.216 211.06 358.982 210.982 358.747 210.982C358.512 210.982 358.2 211.06 358.043 211.216C357.809 211.373 357.731 211.607 357.653 211.842L355.855 211.451C355.933 211.138 356.089 210.826 356.324 210.591C356.558 210.357 356.793 210.122 357.027 209.966C357.262 209.809 357.574 209.653 357.887 209.575C358.2 209.497 358.512 209.418 358.903 209.418C359.294 209.418 359.607 209.497 359.92 209.575C360.232 209.653 360.545 209.809 360.858 209.966C361.092 210.122 361.327 210.357 361.483 210.669C361.639 210.982 361.718 211.295 361.718 211.685C361.718 212.155 361.561 212.545 361.327 212.78C361.092 213.093 360.78 213.327 360.389 213.405C360.623 213.484 360.858 213.562 361.014 213.64C361.17 213.718 361.405 213.874 361.483 214.031C361.561 214.187 361.718 214.343 361.796 214.578C361.952 214.969 362.03 215.125 362.03 215.36Z" fill="#1E1E1E"/>
<path d="M364.532 219.112H362.969L363.829 215.907H365.627L364.532 219.112Z" fill="#1E1E1E"/>
<path d="M372.975 212.311C372.975 212.78 372.897 213.249 372.74 213.64C372.584 214.031 372.349 214.421 372.115 214.812L370.16 217.705H367.815L369.848 214.89C369.77 214.89 369.691 214.969 369.535 214.969C369.457 214.969 369.301 214.969 369.222 214.969C368.831 214.969 368.519 214.89 368.206 214.812C367.893 214.656 367.581 214.5 367.346 214.265C367.112 214.031 366.877 213.796 366.799 213.405C366.643 213.092 366.564 212.702 366.564 212.311C366.564 211.842 366.643 211.451 366.799 211.06C366.955 210.669 367.19 210.356 367.503 210.122C367.815 209.887 368.128 209.653 368.519 209.575C368.91 209.496 369.301 209.34 369.77 209.34C370.239 209.34 370.629 209.418 371.02 209.575C371.411 209.731 371.724 209.887 372.037 210.122C372.349 210.356 372.584 210.669 372.74 211.06C372.897 211.529 372.975 211.92 372.975 212.311ZM371.099 212.311C371.099 211.998 371.02 211.685 370.786 211.373C370.551 211.138 370.239 210.982 369.848 210.982C369.457 210.982 369.144 211.138 368.91 211.373C368.675 211.607 368.597 211.92 368.597 212.311C368.597 212.702 368.675 213.014 368.91 213.249C369.144 213.483 369.457 213.64 369.848 213.64C370.239 213.64 370.551 213.483 370.786 213.249C370.942 213.014 371.099 212.702 371.099 212.311Z" fill="#1E1E1E"/>
<path d="M380.323 213.718C380.323 214.265 380.245 214.812 380.167 215.36C380.089 215.907 379.854 216.298 379.62 216.689C379.385 217.079 379.073 217.392 378.682 217.627C378.291 217.861 377.822 217.939 377.196 217.939C376.571 217.939 376.18 217.861 375.711 217.627C375.32 217.392 375.007 217.079 374.695 216.689C374.46 216.298 374.226 215.829 374.148 215.36C374.069 214.891 373.991 214.265 373.991 213.718C373.991 213.171 374.069 212.624 374.148 212.076C374.226 211.529 374.46 211.138 374.695 210.747C374.929 210.357 375.242 210.044 375.711 209.809C376.102 209.575 376.571 209.497 377.196 209.497C377.822 209.497 378.213 209.575 378.682 209.809C379.073 210.044 379.385 210.357 379.62 210.747C379.854 211.138 380.089 211.607 380.167 212.076C380.245 212.545 380.323 213.093 380.323 213.718ZM378.369 213.718C378.369 213.483 378.369 213.171 378.291 212.858C378.291 212.545 378.213 212.233 378.134 211.998C378.056 211.764 377.9 211.529 377.744 211.373C377.587 211.216 377.353 211.138 377.118 211.138C376.884 211.138 376.649 211.216 376.493 211.373C376.336 211.529 376.18 211.764 376.102 211.998C376.024 212.233 375.946 212.545 375.946 212.858C375.946 213.171 375.867 213.405 375.867 213.718C375.867 213.952 375.867 214.265 375.946 214.578C375.946 214.891 376.024 215.203 376.102 215.438C376.18 215.672 376.336 215.907 376.493 216.063C376.649 216.22 376.884 216.298 377.118 216.298C377.353 216.298 377.587 216.22 377.744 216.063C377.9 215.907 378.056 215.672 378.134 215.438C378.213 215.203 378.291 214.891 378.291 214.578C378.369 214.187 378.369 213.952 378.369 213.718Z" fill="#1E1E1E"/>
<path d="M386.733 216.141V217.705H384.935V216.141H381.183V214.578L384.466 209.731H386.733V214.656H387.827V216.219L386.733 216.141ZM384.935 211.607L382.981 214.578H384.935V211.607Z" fill="#1E1E1E"/>
<path d="M336.389 266.642V268.205H334.591V266.642H330.839V265L334.122 260.153H336.389V265.078H337.484V266.642H336.389ZM334.591 262.108L332.637 265.078H334.591V262.108Z" fill="#1E1E1E"/>
<path d="M340.689 267.189C340.689 267.502 340.611 267.736 340.376 267.971C340.142 268.205 339.907 268.283 339.594 268.283C339.438 268.283 339.282 268.283 339.125 268.205C338.969 268.127 338.891 268.049 338.735 267.971C338.578 267.893 338.578 267.736 338.5 267.658C338.422 267.502 338.422 267.345 338.422 267.189C338.422 267.033 338.422 266.876 338.5 266.72C338.578 266.564 338.656 266.485 338.735 266.329C338.813 266.173 338.969 266.173 339.125 266.095C339.282 266.016 339.438 266.016 339.594 266.016C339.907 266.016 340.142 266.095 340.376 266.329C340.611 266.564 340.689 266.876 340.689 267.189Z" fill="#1E1E1E"/>
<path d="M347.099 266.642V268.205H345.301V266.642H341.549V265L344.832 260.153H347.099V265.078H348.194V266.642H347.099ZM345.379 262.108L343.425 265.078H345.379V262.108Z" fill="#1E1E1E"/>
<path d="M357.966 264.297C358.747 266.251 360.233 267.736 362.5 268.362C362.265 268.596 361.953 269.065 361.796 269.378C359.607 268.674 358.122 267.189 357.262 265.156C356.715 266.72 355.464 268.283 352.728 269.378C352.572 269.143 352.259 268.674 352.024 268.44C354.839 267.345 355.933 265.782 356.324 264.297H352.337V263.202H356.558C356.637 262.811 356.637 262.42 356.637 262.108V260.857H352.806V259.762H361.718V260.857H357.653V262.108C357.653 262.42 357.653 262.811 357.575 263.202H362.109V264.297H357.966Z" fill="#1E1E1E"/>
</svg>
