<svg width="261" height="69" viewBox="0 0 261 69" fill="none" xmlns="http://www.w3.org/2000/svg">
<g clip-path="url(#clip0_847_7790)">
<path d="M85.7521 46.7156C85.2006 46.7156 84.7279 46.7936 84.3734 46.9107C83.9795 47.0278 83.6644 47.262 83.428 47.5742C83.0341 48.0425 82.4827 49.1353 81.813 50.8915L76.6135 64.1607H76.0621L70.705 51.3208C70.2717 50.3061 69.9566 49.5646 69.7202 49.0962C69.4839 48.6279 69.2475 48.2376 69.0112 47.9644C68.6961 47.5742 68.3416 47.301 67.9871 47.1058C67.6325 46.9107 67.1992 46.7936 66.7266 46.7546V46.4424H72.5563V46.7546C72.2018 46.7546 71.9655 46.7936 71.7291 46.8327C71.5322 46.9107 71.3352 46.9888 71.1383 47.1449C70.9807 47.301 70.8232 47.5351 70.705 47.8083C70.5868 48.0815 70.5474 48.3937 70.5474 48.745C70.5474 49.3304 70.8232 50.267 71.3352 51.5549L75.0773 60.7263L78.9376 50.267C79.1345 49.6816 79.2921 49.2914 79.3315 49.1353C79.3708 48.9791 79.4102 48.784 79.4102 48.5498C79.4102 48.2376 79.3315 47.9254 79.1739 47.6522C79.0163 47.379 78.78 47.1839 78.5043 47.0278C78.2285 46.8717 77.7558 46.7936 77.0862 46.7156V46.4424H85.7127L85.7521 46.7156Z" fill="black"/>
<path d="M60.8203 46.4423H69.4468V46.7546C68.7772 46.8326 68.3045 46.9107 68.0287 47.0668C67.753 47.1839 67.5561 47.379 67.3591 47.6912C67.2015 47.9644 67.1228 48.2376 67.1228 48.5888C67.1228 48.823 67.1622 49.0181 67.2015 49.1742C67.2409 49.3304 67.3591 49.7206 67.5954 50.306L71.4557 60.7653L75.2372 51.5159C75.7492 50.228 76.025 49.2913 76.025 48.7059C76.025 48.3937 75.9856 48.0815 75.8674 47.7693C75.7492 47.4961 75.6311 47.2619 75.4341 47.1058C75.2765 46.9497 75.0796 46.8716 74.8433 46.7936C74.6463 46.7546 74.3706 46.7155 74.0161 46.7155V46.4033H79.8458V46.7155C79.3731 46.7546 78.9398 46.8716 78.5853 47.0668C78.2308 47.2619 77.8763 47.5351 77.5612 47.9254C77.3248 48.1986 77.1279 48.5888 76.8916 49.0572C76.6552 49.5255 76.3401 50.267 75.9068 51.2817L70.5497 64.1216H69.9983L64.7987 50.8524C64.1291 49.0962 63.5776 48.0034 63.1837 47.5351C62.908 47.2229 62.5929 47.0278 62.2384 46.9107C61.8445 46.7546 61.4112 46.7155 60.8597 46.7155L60.8203 46.4423Z" fill="black"/>
<path d="M9.53125 55.1064L15.0853 49.6426C15.6367 49.0962 15.9913 48.745 16.1094 48.5498C16.2276 48.3547 16.3064 48.1596 16.3064 47.9254C16.3064 47.4961 16.1094 47.1839 15.6761 46.9497C15.4398 46.8327 15.0853 46.7546 14.5732 46.7156V46.4424H20.206V46.7546C19.8121 46.7936 19.497 46.8327 19.2606 46.9497C18.9849 47.0278 18.7092 47.1839 18.3941 47.4181C18.0396 47.6522 17.4881 48.1596 16.6215 48.9791L12.3673 52.9989L18.3941 60.6483L19.1425 61.5849C19.6939 62.2484 20.2454 62.7948 20.8756 63.185C21.2302 63.4192 21.5453 63.5753 21.821 63.6924C22.0967 63.7704 22.4119 63.8485 22.8452 63.9265V64.2388H14.1793V63.9265C14.8489 63.8875 15.3216 63.7704 15.5974 63.6143C15.8731 63.4582 16.0306 63.2241 16.0306 62.8728C16.0306 62.5216 15.8337 62.0923 15.4792 61.5459C15.3216 61.2727 14.9671 60.8434 14.4944 60.219C14.0217 59.5555 13.6278 59.0482 13.2733 58.6579L10.3191 55.0284L9.45247 55.8479V60.1409C9.45247 61.0385 9.49186 61.663 9.61003 62.0923C9.7282 62.5216 9.88576 62.8728 10.1615 63.146C10.3978 63.3802 10.6736 63.5753 10.9887 63.6924C11.3038 63.8095 11.6977 63.8875 12.2098 63.8875V64.1997H3.89844V63.8875C4.41051 63.8485 4.80441 63.8095 5.11954 63.6924C5.43466 63.5753 5.71039 63.3802 5.94673 63.146C6.22246 62.8728 6.41942 62.5216 6.4982 62.0923C6.57698 61.663 6.65576 60.9995 6.65576 60.1019V50.5402C6.65576 49.6426 6.61637 48.9791 6.4982 48.5498C6.41942 48.1206 6.22246 47.7693 5.94673 47.4961C5.71039 47.2229 5.43466 47.0668 5.11954 46.9497C4.80441 46.8327 4.41051 46.7546 3.89844 46.7546V46.4424H12.2886V46.7546C11.7765 46.7936 11.3826 46.8327 11.0675 46.9497C10.7523 47.0668 10.4766 47.262 10.2403 47.4961C9.96454 47.7693 9.76759 48.1206 9.68881 48.5498C9.61003 48.9791 9.53125 49.6426 9.53125 50.5012V55.1064Z" fill="black"/>
<path d="M24.2266 64.1607V63.8485C25.0931 63.8485 25.8022 63.6143 26.2749 63.107C26.5506 62.8338 26.7475 62.4825 26.8263 62.0532C26.9445 61.6239 26.9839 60.9605 26.9839 60.1019V50.5402C26.9839 49.6426 26.9445 48.9401 26.8263 48.5108C26.7081 48.0815 26.5112 47.7303 26.1961 47.4571C25.9597 47.2229 25.684 47.0668 25.3689 46.9497C25.0538 46.8327 24.6992 46.7936 24.2266 46.7546V46.4424H32.5773V46.7546C32.1046 46.7936 31.7107 46.8327 31.3956 46.9497C31.0805 47.0668 30.8047 47.2229 30.5684 47.4571C30.2533 47.7303 30.0563 48.1206 29.9775 48.5498C29.8594 48.9791 29.82 49.6426 29.82 50.5793V58.0725C29.82 59.2043 29.8594 60.0629 29.8988 60.6483C29.9775 61.1946 30.0957 61.663 30.2533 62.0142C30.5684 62.6386 31.0017 63.107 31.6319 63.3802C32.2228 63.6924 33.05 63.8095 34.0347 63.8095C35.0195 63.8095 35.9649 63.6534 36.6739 63.3802C37.3829 63.107 37.9738 62.6777 38.4071 62.1313C38.7222 61.741 38.9585 61.3117 39.1555 60.8044C39.3524 60.297 39.5494 59.6726 39.7069 58.853L40.0221 58.892L39.8645 64.1997L24.2266 64.1607Z" fill="black"/>
<path d="M42.543 55.4187C42.543 53.9747 42.8581 52.6088 43.4883 51.3599C44.1186 50.111 45.0246 49.0183 46.2457 48.1207C47.1516 47.4182 48.1364 46.9108 49.1605 46.5596C50.1847 46.2083 51.2482 46.0132 52.3118 46.0132C53.651 46.0132 54.9509 46.3254 56.2114 46.8718C57.4719 47.4572 58.5748 48.2768 59.5202 49.3305C61.0564 51.0477 61.8442 53.0381 61.8442 55.2236C61.8442 56.3163 61.6473 57.4091 61.2534 58.4238C60.8595 59.4385 60.2686 60.4142 59.4808 61.2338C58.5354 62.2875 57.4325 63.1071 56.1326 63.6925C54.8327 64.2779 53.4935 64.5511 52.1148 64.5511C50.7361 64.5511 49.3969 64.2779 48.1364 63.6925C46.8759 63.1461 45.773 62.3265 44.867 61.3118C44.158 60.4923 43.6065 59.5946 43.2126 58.5799C42.7793 57.5652 42.5824 56.5115 42.543 55.4187ZM45.7336 55.6139C45.7336 58.1116 46.4426 60.2191 47.7819 61.9753C48.4121 62.7558 49.0424 63.3022 49.7514 63.6535C50.4604 64.0047 51.2482 64.1998 52.1542 64.1998C53.0602 64.1998 53.8874 64.0047 54.557 63.6925C55.266 63.3412 55.8963 62.7949 56.5265 62.0143C57.9052 60.2971 58.5748 58.1506 58.5748 55.6139C58.5748 54.2089 58.3779 52.921 58.0234 51.6721C57.6294 50.4232 57.1174 49.3695 56.4083 48.5109C55.8569 47.8084 55.2266 47.2621 54.557 46.9498C53.8874 46.6376 53.0602 46.4815 52.1148 46.4815C51.1694 46.4815 50.3816 46.6376 49.712 46.9498C49.0424 47.2621 48.4121 47.7694 47.8213 48.5109C47.1122 49.3695 46.6002 50.4232 46.2063 51.6721C45.9305 52.8429 45.7336 54.1699 45.7336 55.6139Z" fill="black"/>
<path d="M100.957 46.4424L101.193 50.7354H100.878C100.76 49.9939 100.563 49.4084 100.326 48.9401C100.051 48.4718 99.6961 48.0425 99.1841 47.6913C98.7902 47.379 98.2781 47.1839 97.7266 47.0278C97.1752 46.9107 96.4267 46.8327 95.4814 46.8327H92.4877V54.6381H93.2755C94.0633 54.6381 94.6542 54.5991 95.0875 54.482C95.4814 54.3649 95.8359 54.2088 96.0722 53.9356C96.3086 53.6624 96.5055 53.3892 96.6237 53.038C96.7419 52.6867 96.86 52.1794 96.9388 51.5159H97.2539L97.2145 58.4627H96.8994C96.8206 57.7993 96.7025 57.2529 96.5449 56.8626C96.3873 56.4724 96.1904 56.1211 95.9147 55.8089C95.6389 55.5357 95.3238 55.3406 94.8905 55.1845C94.4572 55.0674 93.9451 54.9893 93.2755 54.9893H92.5271V57.9554C92.5271 59.1262 92.5665 59.9848 92.6059 60.5312C92.6847 61.0776 92.8028 61.5069 92.9604 61.8971C93.2755 62.5216 93.7088 62.9899 94.2997 63.2631C94.8905 63.5753 95.7177 63.6924 96.7025 63.6924C97.766 63.6924 98.6326 63.5753 99.3416 63.3021C100.051 63.0289 100.641 62.6387 101.075 62.0923C101.39 61.741 101.666 61.3117 101.863 60.8044C102.06 60.336 102.256 59.7116 102.414 58.9311H102.729L102.572 64.0827H86.9337V63.7704C87.4457 63.7314 87.8397 63.6924 88.1548 63.5753C88.4699 63.4582 88.7456 63.2631 88.982 63.0289C89.2577 62.7557 89.4153 62.4045 89.5334 61.9752C89.6122 61.5459 89.691 60.8824 89.691 60.0238V50.4622C89.691 49.5646 89.6516 48.9401 89.5334 48.5108C89.4153 48.0815 89.2577 47.7303 88.982 47.4571C88.7456 47.2229 88.4699 47.0278 88.1548 46.9107C87.8397 46.7936 87.4457 46.7156 86.9337 46.7156V46.4424C86.8943 46.4424 100.957 46.4424 100.957 46.4424Z" fill="black"/>
<path d="M110.531 55.4577V60.0629C110.531 60.9605 110.57 61.5849 110.688 62.0142C110.807 62.4435 110.964 62.7948 111.24 63.068C111.476 63.3021 111.752 63.4972 112.067 63.6143C112.382 63.7314 112.776 63.8095 113.288 63.8095V64.1217H104.938V63.8095C105.45 63.7704 105.843 63.7314 106.159 63.6143C106.474 63.4972 106.749 63.3021 106.986 63.068C107.262 62.7948 107.458 62.4435 107.537 62.0142C107.616 61.5849 107.695 60.9215 107.695 60.0238V50.4622C107.695 49.5646 107.655 48.9011 107.537 48.4718C107.458 48.0425 107.262 47.6913 106.986 47.4181C106.749 47.1449 106.474 46.9888 106.159 46.8717C105.843 46.7546 105.45 46.6765 104.938 46.6765V46.4424H111.24C112.303 46.4424 113.013 46.4424 113.328 46.4424C114.667 46.5204 115.73 46.6765 116.518 46.9888C117.385 47.34 118.054 47.8474 118.527 48.5498C119 49.2523 119.236 50.0329 119.236 50.9305C119.236 52.2574 118.724 53.3502 117.7 54.1698C117.385 54.4039 117.03 54.5991 116.676 54.7552C116.282 54.9113 115.809 55.0674 115.14 55.1845C115.652 55.4186 116.046 55.6138 116.321 55.8479C116.518 56.0431 116.715 56.2772 116.873 56.5504C117.03 56.8236 117.306 57.2919 117.621 57.9944C118.409 59.5945 119 60.7263 119.394 61.4678C119.788 62.2094 120.142 62.7167 120.378 63.068C120.615 63.3411 120.812 63.5363 121.009 63.6143C121.206 63.7314 121.481 63.7704 121.836 63.8095V64.1217H117.503C117.267 63.6534 117.148 63.3411 117.07 63.2241L116.164 61.1556C115.612 59.9067 115.061 58.814 114.509 57.8773C113.958 56.9407 113.446 56.2772 112.973 55.926C112.737 55.7699 112.5 55.6138 112.225 55.5747C111.949 55.4967 111.634 55.4577 111.24 55.4577H110.531ZM110.531 55.1845H111.043C112.107 55.1845 112.894 55.1454 113.367 54.9893C113.84 54.8722 114.273 54.6381 114.706 54.2478C115.612 53.3892 116.085 52.2965 116.085 51.0476C116.085 50.3451 115.967 49.7207 115.691 49.1353C115.415 48.5498 115.061 48.0425 114.588 47.6522C114.234 47.34 113.8 47.1449 113.288 47.0278C112.776 46.9107 112.067 46.8327 111.122 46.8327H110.57L110.531 55.1845Z" fill="black"/>
<path d="M145.351 55.4186V60.0629C145.351 60.9605 145.391 61.5849 145.509 62.0142C145.627 62.4435 145.785 62.7948 146.06 63.068C146.297 63.3021 146.572 63.4972 146.887 63.6143C147.203 63.7314 147.596 63.8095 148.109 63.8095V64.1217H139.758V63.8095C140.27 63.7704 140.664 63.7314 140.979 63.6143C141.294 63.4972 141.57 63.3021 141.806 63.068C142.082 62.7948 142.279 62.4435 142.358 62.0142C142.436 61.5849 142.515 60.9215 142.515 60.0629V50.5012C142.515 49.7597 142.476 49.1743 142.436 48.784C142.358 48.3937 142.239 48.0425 142.082 47.8083C141.846 47.4571 141.57 47.1839 141.215 47.0278C140.861 46.8717 140.427 46.7546 139.837 46.7156H139.758V46.4424H147.636C149.015 46.4424 150.039 46.5204 150.708 46.6375C151.378 46.7936 151.969 47.0668 152.481 47.4571C153.702 48.3937 154.332 49.6426 154.332 51.2037C154.332 52.7648 153.702 53.9356 152.441 54.6771C151.772 55.0674 150.984 55.3015 150.078 55.3796C149.763 55.4186 149.054 55.4186 147.912 55.4186H145.351ZM145.351 54.9893H146.651C147.518 54.9893 148.187 54.9113 148.66 54.7942C149.133 54.6771 149.527 54.443 149.921 54.0917C150.787 53.3112 151.181 52.2965 151.181 51.0086C151.181 50.3061 151.063 49.6426 150.826 49.0572C150.59 48.4718 150.236 47.9644 149.763 47.6132C149.251 47.1839 148.621 46.9107 147.872 46.8327C147.675 46.7936 147.203 46.7936 146.494 46.7936H145.351V54.9893Z" fill="black"/>
<path d="M166.583 56.4724L163.826 49.7597L161.226 56.4724L161.029 57.0188L160.359 58.814L160.044 59.6336C159.65 60.5702 159.453 61.3118 159.453 61.8972C159.453 62.2094 159.532 62.5216 159.65 62.7948C159.808 63.068 160.005 63.3021 160.241 63.4583C160.596 63.6924 161.029 63.8485 161.541 63.8876V64.1998H155.672V63.8876C156.145 63.8485 156.538 63.7705 156.893 63.5363C157.247 63.3412 157.602 63.029 157.917 62.5606C158.193 62.2094 158.469 61.7411 158.744 61.1947C159.02 60.6483 159.375 59.7897 159.808 58.6969L164.613 46.4814H165.362L171.073 60.1019C171.507 61.1166 171.861 61.8581 172.098 62.2874C172.334 62.7167 172.61 63.068 172.925 63.3021C173.122 63.4583 173.358 63.5753 173.634 63.6534C173.91 63.7314 174.303 63.8095 174.855 63.8485V64.1607H166.268V63.8485C167.056 63.7705 167.568 63.6534 167.883 63.4583C168.434 63.107 168.671 62.6387 168.671 62.0533C168.671 61.702 168.552 61.2337 168.316 60.6093L168.08 60.0629L166.819 57.0188L166.583 56.4724Z" fill="black"/>
<path d="M179.777 48.784V60.0629C179.777 60.9605 179.817 61.6239 179.935 62.0532C180.053 62.4825 180.211 62.8338 180.486 63.107C180.723 63.3411 180.998 63.5363 181.313 63.6534C181.629 63.7704 182.022 63.8485 182.535 63.8485V64.1607H176.508V63.8485C177.02 63.8095 177.414 63.7704 177.729 63.6534C178.044 63.5363 178.32 63.3411 178.556 63.107C178.832 62.8338 179.029 62.4825 179.108 62.0532C179.226 61.6239 179.265 60.9605 179.265 60.1019V50.5402C179.265 49.6816 179.226 49.0182 179.108 48.5889C179.029 48.1596 178.832 47.8083 178.556 47.5351C178.32 47.262 178.044 47.1058 177.729 46.9888C177.414 46.8717 177.02 46.7936 176.508 46.7936V46.4424H181.55L192.185 59.8677V50.5012C192.185 49.6036 192.146 48.9401 192.028 48.5108C191.949 48.0815 191.752 47.7303 191.476 47.4571C191.24 47.1839 190.964 47.0278 190.649 46.9107C190.334 46.7936 189.94 46.7156 189.428 46.7156V46.4424H195.455V46.7546C194.588 46.7546 193.879 46.9888 193.406 47.4961C193.131 47.7693 192.973 48.1206 192.855 48.5498C192.737 48.9791 192.697 49.6426 192.697 50.5012V64.1607H192.106L179.777 48.784Z" fill="black"/>
<path d="M195.453 63.8485C195.966 63.8095 196.359 63.7704 196.675 63.6534C196.99 63.5363 197.265 63.3411 197.502 63.107C197.777 62.8338 197.935 62.4825 198.053 62.0532C198.171 61.6239 198.211 60.9605 198.211 60.1019V50.5402C198.211 49.6036 198.171 48.9011 198.014 48.4328C197.896 48.0035 197.659 47.6132 197.305 47.34C196.871 46.9888 196.241 46.7936 195.414 46.7546V46.4424H202.622C204.198 46.4424 205.222 46.4814 205.695 46.4814C207.546 46.6375 209.082 47.1449 210.382 48.0425C211.603 48.9011 212.549 50.0329 213.218 51.3988C213.888 52.8038 214.243 54.2868 214.243 55.926C214.243 57.1358 214.046 58.2676 213.652 59.3213C213.258 60.3751 212.706 61.2727 212.037 61.9752C211.052 62.9509 209.87 63.5753 208.413 63.8485C207.31 64.0436 206.246 64.1607 205.104 64.1607H195.414L195.453 63.8485ZM201.086 46.8327V59.7116C201.086 60.5702 201.126 61.1946 201.244 61.663C201.323 62.0923 201.52 62.4825 201.795 62.7948C202.347 63.4582 203.253 63.8095 204.513 63.8095C205.577 63.8095 206.483 63.6143 207.271 63.3021C208.019 62.9509 208.728 62.3655 209.319 61.5849C209.91 60.8434 210.382 59.9458 210.658 58.9701C210.934 57.9944 211.131 56.9407 211.131 55.8479C211.131 54.6381 210.934 53.4673 210.579 52.3355C210.185 51.2427 209.673 50.267 208.964 49.4475C207.98 48.3157 206.837 47.5351 205.498 47.1449C204.75 46.9497 203.844 46.8327 202.701 46.8327H201.086Z" fill="black"/>
<path d="M218.105 55.4187C218.105 53.9747 218.421 52.6088 219.051 51.3599C219.681 50.111 220.587 49.0183 221.808 48.1207C222.714 47.4182 223.699 46.9108 224.723 46.5596C225.747 46.2083 226.811 46.0132 227.874 46.0132C229.214 46.0132 230.513 46.3254 231.774 46.8718C233.034 47.4572 234.137 48.2768 235.083 49.3305C236.619 51.0477 237.367 53.0381 237.367 55.2236C237.367 56.3163 237.17 57.4091 236.776 58.4238C236.383 59.4385 235.792 60.4142 235.004 61.2338C234.059 62.2875 232.956 63.1071 231.656 63.6925C230.356 64.2779 229.017 64.5511 227.599 64.5511C226.18 64.5511 224.881 64.2779 223.62 63.6925C222.36 63.1461 221.257 62.3265 220.351 61.3118C219.642 60.4923 219.09 59.5946 218.696 58.5799C218.302 57.5652 218.105 56.5115 218.105 55.4187ZM221.296 55.6139C221.296 58.1116 222.005 60.2191 223.344 61.9753C223.975 62.7558 224.605 63.3022 225.314 63.6535C226.023 64.0047 226.811 64.1998 227.717 64.1998C228.623 64.1998 229.45 64.0047 230.12 63.6925C230.829 63.3412 231.459 62.7949 232.089 62.0143C233.468 60.2971 234.137 58.1506 234.137 55.6139C234.137 54.2089 233.94 52.921 233.586 51.6721C233.192 50.4232 232.68 49.3695 231.971 48.5109C231.419 47.8084 230.789 47.2621 230.12 46.9498C229.41 46.6376 228.623 46.4815 227.677 46.4815C226.732 46.4815 225.944 46.6376 225.275 46.9498C224.605 47.2621 223.975 47.7694 223.384 48.5109C222.675 49.3695 222.163 50.4232 221.769 51.6721C221.454 52.8429 221.296 54.1699 221.296 55.6139Z" fill="black"/>
<path d="M246.191 55.4577V60.0629C246.191 60.9605 246.23 61.5849 246.349 62.0142C246.467 62.4435 246.624 62.7948 246.9 63.068C247.136 63.3021 247.412 63.4972 247.727 63.6143C248.042 63.7314 248.436 63.8095 248.948 63.8095V64.1217H240.598V63.8095C241.11 63.7704 241.504 63.7314 241.819 63.6143C242.134 63.4972 242.41 63.3021 242.646 63.068C242.922 62.7948 243.119 62.4435 243.197 62.0142C243.276 61.5849 243.355 60.9215 243.355 60.0238V50.4622C243.355 49.5646 243.316 48.9011 243.197 48.4718C243.119 48.0425 242.922 47.6913 242.646 47.4181C242.41 47.1449 242.134 46.9888 241.819 46.8717C241.504 46.7546 241.11 46.6765 240.598 46.6765V46.4424H246.9C247.964 46.4424 248.633 46.4424 248.988 46.4424C250.327 46.5204 251.391 46.6765 252.178 46.9888C253.045 47.34 253.715 47.8474 254.187 48.5498C254.66 49.2523 254.896 50.0329 254.896 50.9305C254.896 52.2574 254.384 53.3502 253.36 54.1698C253.045 54.4039 252.69 54.5991 252.297 54.7552C251.903 54.9113 251.43 55.0674 250.76 55.1845C251.272 55.4186 251.666 55.6138 251.942 55.8479C252.139 56.0431 252.336 56.2772 252.494 56.5504C252.651 56.8236 252.927 57.2919 253.242 57.9944C254.03 59.5945 254.621 60.7263 255.015 61.4678C255.408 62.2094 255.724 62.7167 255.999 63.068C256.236 63.3411 256.433 63.5363 256.63 63.6143C256.826 63.7314 257.102 63.7704 257.496 63.8095V64.1217H253.163C252.927 63.6534 252.809 63.3411 252.73 63.2241L251.824 61.1556C251.272 59.9067 250.721 58.814 250.169 57.8773C249.618 56.9407 249.106 56.2772 248.633 55.926C248.397 55.7699 248.161 55.6138 247.885 55.5747C247.609 55.4967 247.294 55.4577 246.9 55.4577H246.191ZM246.191 55.1845H246.703C247.806 55.1845 248.555 55.1454 249.027 54.9893C249.5 54.8722 249.933 54.6381 250.327 54.2478C251.233 53.3892 251.706 52.2965 251.706 51.0476C251.706 50.3451 251.588 49.7207 251.312 49.1353C251.036 48.5498 250.682 48.0425 250.209 47.6522C249.854 47.34 249.421 47.1449 248.909 47.0278C248.397 46.9107 247.688 46.8327 246.743 46.8327H246.191V55.1845Z" fill="black"/>
<path d="M120.297 0.180869C120.691 0.258924 121.046 0.297951 121.321 0.376005C121.44 0.376005 121.597 0.415032 121.755 0.415032C121.912 0.454059 122.07 0.45406 122.267 0.45406C123.015 0.532114 123.724 0.571141 124.394 0.571141C125.063 0.610168 125.851 0.610168 126.875 0.610168H126.994L127.033 0.727249C127.151 0.922385 127.112 1.15655 126.915 1.31266L126.836 1.35168H126.757C126.639 1.35168 126.442 1.31266 126.127 1.31266C125.812 1.31266 125.576 1.31266 125.339 1.31266C125.339 1.31266 125.339 1.31266 125.3 1.31266C125.221 1.31266 125.142 1.31266 125.024 1.50779C124.276 2.5225 123.488 3.65429 122.7 4.78607C121.912 5.95689 121.006 7.28381 119.982 8.72781V8.76684C121.282 8.10338 122.582 7.40089 123.842 6.6984C125.142 5.99591 126.324 5.29343 127.427 4.66899C127.624 4.55191 128.018 4.35677 128.845 3.84942L130.933 2.63958C131.642 2.21028 132.311 1.82001 132.902 1.50779C133.808 0.961412 133.926 0.961412 134.005 0.961412H134.044H134.281L134.32 1.00044C134.438 1.07849 134.557 1.15655 134.675 1.19558C134.832 1.27363 134.99 1.31266 135.147 1.39071L135.226 1.42974L135.266 1.54682C135.305 1.70293 135.266 1.82001 135.147 1.93709L135.108 1.97612H135.069C134.911 2.01515 134.635 2.0932 134.32 2.24931C133.966 2.40542 133.454 2.63958 132.784 2.9518C132.429 3.10791 132.036 3.30304 131.602 3.5372C131.642 3.5372 131.681 3.57623 131.76 3.57623C131.957 3.65429 132.233 3.69331 132.548 3.73234C132.863 3.77137 133.178 3.81039 133.454 3.81039C134.202 3.88845 134.95 3.88845 135.699 3.92748C136.447 3.92748 137.196 3.92748 137.865 3.88845C138.535 3.84942 139.165 3.84942 139.677 3.84942C140.229 3.84942 140.623 3.84942 140.938 3.88845C141.489 3.92748 142.041 4.04456 142.592 4.16164C142.789 4.20067 142.986 4.27872 143.183 4.35677V-0.131348H119.312C119.352 -0.0923205 119.391 -0.0532937 119.509 -0.0142665C119.628 0.0637878 119.903 0.102815 120.297 0.180869Z" fill="black"/>
<path d="M132.784 10.0936C133.611 8.84474 134.32 7.67392 134.951 6.69824C134.99 6.62019 135.069 6.50311 135.187 6.26895C135.305 6.07381 135.423 5.83965 135.541 5.60548C135.66 5.37132 135.738 5.17619 135.857 4.98105C135.935 4.82494 135.975 4.70786 135.975 4.66883C135.187 4.62981 134.439 4.62981 133.69 4.66883C132.942 4.70786 132.154 4.70786 131.327 4.6298C130.618 4.59078 130.5 4.23953 130.46 4.00537L130.263 4.12245C129.357 4.59078 128.215 5.17619 126.639 6.03478C125.851 6.46408 125.064 6.93241 124.197 7.40073C123.37 7.86906 122.543 8.37641 121.676 8.92279C121.637 8.92279 121.637 8.96182 121.637 8.96182C122.503 10.4058 123.567 12.045 124.749 13.8402C125.536 15.011 126.521 16.338 127.663 17.7429C127.979 17.1965 128.294 16.6892 128.648 16.1818C129.278 15.2062 129.909 14.3085 130.5 13.4499C131.209 12.5133 131.996 11.3425 132.784 10.0936Z" fill="black"/>
<path d="M120.928 4.04456C121.519 3.06888 122.07 2.0932 122.582 1.19558C121.913 1.15655 121.282 1.11752 120.613 1.15655C119.904 1.19558 119.274 1.15655 118.683 1.11752C118.525 1.11752 118.368 1.07849 118.289 1.00044C118.171 0.922385 118.092 0.805304 118.131 0.649195C118.131 0.610168 118.171 0.532114 118.249 0.376005C118.289 0.258924 118.368 0.141842 118.446 0.0247608C118.486 -0.0142664 118.525 -0.0923205 118.564 -0.131348H117.855V8.88392C118.249 8.29852 118.643 7.67408 119.037 7.08867C119.707 6.07397 120.337 5.02024 120.928 4.04456Z" fill="black"/>
<path d="M133.296 24.4949C132.469 24.2607 131.563 23.8314 130.657 23.3241C129.751 22.7777 128.806 22.0752 127.86 21.1776C126.915 20.2799 125.93 19.1481 124.945 17.8212C124.039 16.5724 123.094 15.2454 122.149 13.8014C121.203 12.3965 120.297 10.9915 119.51 9.66455C119.47 9.70358 119.47 9.7426 119.431 9.78163C118.919 10.4841 118.446 11.2256 117.895 12.0452V24.9632H135.305C134.635 24.8461 133.966 24.69 133.296 24.4949Z" fill="black"/>
<path d="M142.712 5.33228C142.161 4.942 141.452 4.66881 140.585 4.62979C139.994 4.59076 139.443 4.59076 138.97 4.70784C138.694 4.7859 138.497 4.942 138.3 5.21519L136.37 8.02515C135.661 9.07888 134.873 10.2107 134.125 11.4205C133.377 12.5913 132.628 13.7231 131.919 14.8159C131.21 15.9086 130.619 16.8843 130.147 17.7039C129.831 18.2112 129.674 18.6405 129.674 18.9918C129.635 19.4211 129.792 19.6943 130.107 19.8894C130.462 20.0845 131.013 20.2406 131.762 20.2797C131.919 20.2797 132.352 20.3187 132.352 20.6309C132.352 20.709 132.313 20.9041 131.998 20.9431C131.525 20.9822 131.013 21.0212 130.501 21.0212C130.895 21.4115 131.21 21.7237 131.486 21.9969C132.077 22.5433 132.628 22.9335 133.14 23.2457C133.692 23.558 134.243 23.7921 134.755 23.9873C135.307 24.1434 135.898 24.2604 136.528 24.2995C137.513 24.3775 138.497 24.2995 139.443 24.1434C140.388 23.9482 141.176 23.675 141.767 23.2848C141.846 23.2457 142.042 23.1287 142.239 23.2457C142.318 23.2848 142.397 23.4018 142.358 23.558C142.358 23.7141 142.2 23.8311 142.121 23.8702C141.373 24.2995 140.427 24.6117 139.285 24.8068C138.97 24.8459 138.655 24.9239 138.34 24.9629H143.224V11.8498C143.145 11.9279 143.027 12.0059 142.948 12.084C142.161 12.7084 141.215 13.1767 140.152 13.528C139.088 13.8792 137.867 13.9963 136.528 13.9182C135.898 13.8792 135.307 13.7231 134.873 13.4889C134.716 13.3719 134.637 13.2548 134.676 13.1377C134.716 12.9426 134.873 12.8255 135.07 12.8255L135.149 12.8645C135.228 12.9035 135.386 12.9816 135.779 13.0597C136.095 13.1377 136.41 13.1767 136.685 13.2158C137.591 13.2938 138.458 13.1767 139.246 12.8645C140.034 12.5523 140.782 12.123 141.373 11.5766C141.964 11.0302 142.476 10.3668 142.87 9.66429C143.027 9.35207 143.185 9.03986 143.303 8.68861V5.95671C143.027 5.60547 142.87 5.44936 142.712 5.33228Z" fill="black"/>
</g>
<defs>
<clipPath id="clip0_847_7790">
<rect width="261" height="69" fill="white"/>
</clipPath>
</defs>
</svg>
