<svg width="210" height="31" viewBox="0 0 210 31" fill="none" xmlns="http://www.w3.org/2000/svg">
<path d="M36.5608 19.0886H45.286L44.4174 30.2325H52.4846L54.7481 1.22949H46.6809L45.865 11.69H37.1398L37.9557 1.22949H29.8754L27.625 30.2325H35.6922L36.5608 19.0886Z" fill="black"/>
<path d="M12.2861 23.938C10.4568 23.938 8.93024 22.9261 9.10132 20.8629H0.849887C0.36296 27.1839 4.66634 30.9424 11.7728 30.9424C18.8793 30.9424 23.6565 27.657 24.1434 21.3229C24.6567 14.6996 19.182 13.2804 14.9839 12.1765C12.2992 11.4931 10.1541 10.9412 10.2857 9.29853C10.391 7.94497 11.8123 7.32733 13.2336 7.32733C14.8918 7.32733 16.1947 8.19466 16.0499 10.0213H24.0776C24.5382 4.12084 20.827 0.546387 13.8521 0.546387C6.87725 0.546387 2.54755 3.81858 2.1001 9.53507C1.58686 16.1452 6.85093 17.4199 10.9701 18.4712C13.6811 19.1414 15.9051 19.6671 15.7604 21.4937C15.6419 23.0707 13.9706 23.9643 12.2861 23.9643V23.938Z" fill="black"/>
<path d="M136.506 23.2938H125.53L125.872 18.9572H135.414L135.914 12.3996H126.373L126.715 8.12871H137.335L137.875 1.22949H119.279L117.016 30.2325H135.966L136.506 23.2938Z" fill="black"/>
<path d="M204.915 30.2716C207.679 30.2716 209.837 28.1033 209.837 25.3173C209.837 22.5313 207.731 20.4287 204.941 20.4287C202.151 20.4287 200.02 22.6102 200.02 25.3436C200.02 28.077 202.151 30.2584 204.915 30.2584V30.2716ZM204.941 21.3355C207.231 21.3355 208.889 23.0438 208.889 25.3173C208.889 27.5908 207.179 29.3648 204.915 29.3648C202.652 29.3648 200.98 27.6039 200.98 25.3436C200.98 23.0833 202.652 21.3355 204.941 21.3355Z" fill="black"/>
<path d="M65.8304 25.5147H76.1216L77.3587 30.2324H86.176L76.7796 1.21631H68.9625L55.2891 30.2324H63.8695L65.8435 25.5147H65.8304ZM72.1473 10.2707L74.6608 19.2594H68.265L72.1473 10.2707Z" fill="black"/>
<path d="M204.238 26.5004H205.199L206.212 28.0642H207.66L206.475 26.2507C207.133 25.9484 207.489 25.3702 207.489 24.5817C207.489 23.4121 206.607 22.6631 205.133 22.6631H202.777V28.0642H204.225V26.5004H204.238ZM204.225 23.7275H205.041C205.699 23.7275 206.067 24.0298 206.067 24.5817C206.067 25.1337 205.686 25.4228 205.041 25.4228H204.225V23.7407V23.7275Z" fill="black"/>
<path d="M36.5608 19.0886H45.286L44.4174 30.2324H52.4846L54.7481 1.21631H46.6809L45.865 11.69H37.1398L37.9557 1.21631H29.8754L27.625 30.2324H35.6922L36.5608 19.0886Z" fill="black"/>
<path d="M97.6545 21.3489H100.563L104.59 30.2325H113.526L108.577 19.68C111.578 17.9584 113.552 15.0411 113.828 11.4929C114.302 5.43473 110.091 1.22949 103.827 1.22949H91.2323L88.9688 30.2456H96.9701L97.6676 21.3621L97.6545 21.3489ZM98.6678 8.32583H102.326C104.564 8.32583 105.748 9.65311 105.603 11.4666C105.458 13.2801 104.063 14.6205 101.826 14.6205H98.1677L98.6546 8.32583H98.6678Z" fill="black"/>
<path d="M181.28 30.7318C190.545 30.7318 197.902 24.2925 198.599 15.5141C199.284 6.72251 192.927 0.296387 183.662 0.296387C174.398 0.296387 167.028 6.77508 166.344 15.5141C165.659 24.2662 171.976 30.7318 181.28 30.7318ZM183.202 6.09173C188.466 6.09173 192.124 9.91586 191.69 15.5141C191.256 21.0992 186.992 24.9364 181.728 24.9364C176.464 24.9364 172.805 21.1123 173.24 15.5141C173.674 9.92901 177.938 6.09173 183.189 6.09173H183.202Z" fill="black"/>
<path d="M12.2861 23.938C10.4568 23.938 8.93024 22.9261 9.10132 20.8629H0.849887C0.36296 27.1839 4.66634 30.9424 11.7728 30.9424C18.8793 30.9424 23.6565 27.657 24.1434 21.3229C24.6567 14.6996 19.182 13.2804 14.9839 12.1765C12.2992 11.4931 10.1541 10.9412 10.2857 9.29853C10.391 7.94497 11.8123 7.32733 13.2336 7.32733C14.8918 7.32733 16.1947 8.18152 16.0499 10.0213H24.0776C24.5382 4.12084 20.827 0.546387 13.8521 0.546387C6.87725 0.546387 2.54755 3.81858 2.1001 9.53507C1.58686 16.1452 6.85093 17.4199 10.9701 18.4712C13.6811 19.1414 15.9051 19.6671 15.7604 21.4937C15.6419 23.0707 13.9706 23.9643 12.2861 23.9643V23.938Z" fill="black"/>
<path d="M155.299 30.7317C159.668 30.7317 163.484 29.3782 166.406 26.8945C165.208 25.2781 164.327 23.4383 163.787 21.4671C161.629 23.7668 159.062 24.9364 156.128 24.9364C150.614 24.9364 146.995 21.0597 147.429 15.514C147.863 9.96839 152.074 6.09168 157.602 6.09168C160.497 6.09168 162.853 7.23499 164.642 9.41645C165.471 7.40582 166.63 5.57917 168.064 3.98907C165.537 1.59734 161.984 0.283203 157.72 0.283203C148.547 0.283203 141.23 6.63048 140.533 15.5009C139.835 24.3713 146.165 30.7186 155.299 30.7186V30.7317Z" fill="black"/>
<path d="M136.506 23.2938H125.53L125.872 18.9571H135.414L135.914 12.3996H126.373L126.715 8.12866H137.335L137.875 1.21631H119.279L117.016 30.2324H135.966L136.506 23.2938Z" fill="black"/>
</svg>
