<svg width="393" height="128" viewBox="0 0 393 128" fill="none" xmlns="http://www.w3.org/2000/svg">
<path d="M22.5476 86.813L38.1544 71.2753C39.7847 69.6522 39.7847 67.0226 38.1544 65.4023C36.5241 63.7793 33.8828 63.7793 32.2553 65.4023L16.6485 80.94C15.0182 82.5631 15.0182 85.1927 16.6485 86.813C18.2788 88.436 20.9201 88.436 22.5476 86.813Z" fill="#79488B"/>
<path d="M41.2716 86.4541C39.6413 84.8311 36.9999 84.8311 35.3725 86.4541L19.7657 101.992C18.1354 103.615 18.1354 106.245 19.7657 107.865C21.3959 109.488 24.0373 109.488 25.6647 107.865L41.2716 92.327C42.9019 90.704 42.9019 88.0743 41.2716 86.4541Z" fill="#79488B"/>
<path d="M53.4624 93.6162L37.8555 109.154C36.2252 110.777 36.2252 113.407 37.8555 115.027C39.4858 116.65 42.1272 116.65 43.7546 115.027L59.3614 99.4892C60.9917 97.8661 60.9917 95.2364 59.3614 93.6162C57.7312 91.9932 55.0898 91.9932 53.4624 93.6162Z" fill="#79488B"/>
<path d="M79.3556 94.4135H79.3158C78.6683 94.4022 78.0491 94.1335 77.6032 93.6642L34.7817 48.8155C33.8785 47.8683 33.8984 46.3753 34.8271 45.4507L63.9447 16.5073C64.4048 16.0492 65.0865 15.8004 65.6801 15.8032C66.3305 15.8117 66.9497 16.0775 67.4012 16.5469L110.575 61.4945C111.49 62.4474 111.467 63.9545 110.521 64.8763L81.054 93.7207C80.5996 94.1646 79.9918 94.4106 79.3556 94.4135ZM39.9139 47.1981L79.4124 88.5688L105.423 63.1091L65.6062 21.6564L39.9139 47.1981Z" fill="#79488B"/>
<path d="M79.3531 94.4136C78.0608 94.4136 76.9872 93.3956 76.9389 92.0978C76.8849 90.7688 77.9273 89.649 79.265 89.5981L99.4786 88.8206L120.715 62.3966L78.6373 18.6592L72.1929 24.9704C71.2443 25.9064 69.7134 25.8922 68.7733 24.945C67.8361 23.9977 67.8474 22.4708 68.8017 21.5377L76.9928 13.5101C77.453 13.0577 78.0153 12.8428 78.7254 12.8174C79.3729 12.8287 79.9921 13.0945 80.438 13.5582L125.679 60.5841C126.52 61.455 126.58 62.8123 125.821 63.7567L102.572 92.6887C102.134 93.2344 101.475 93.5624 100.774 93.5907L79.4553 94.4107C79.4241 94.4107 79.3928 94.4107 79.3587 94.4107L79.3531 94.4136Z" fill="#79488B"/>
<path d="M88.3388 60.0721C87.6685 60.0721 87.001 59.8176 86.4898 59.3087C85.4673 58.2907 85.4673 56.6422 86.4898 55.6243L101.932 40.2591C104.232 37.9716 105.627 35.0789 105.857 32.1184C106.079 29.3106 105.209 26.7771 103.414 24.99C101.617 23.2001 99.0321 22.3377 96.2544 22.5526C93.2778 22.7817 90.3723 24.17 88.0746 26.4575L73.0585 41.3986C72.0361 42.4137 70.3831 42.4165 69.3606 41.3986C68.3381 40.3807 68.3381 38.7322 69.3606 37.7142L84.3767 22.7732C87.5577 19.6063 91.6334 17.6863 95.8511 17.3611C100.208 17.0105 104.221 18.4243 107.115 21.3085C110.009 24.1898 111.415 28.1739 111.077 32.5256C110.748 36.7246 108.814 40.7794 105.633 43.9435L90.1906 59.3115C89.6793 59.8204 89.009 60.0749 88.3416 60.0749L88.3388 60.0721Z" fill="#79488B"/>
<path d="M167.024 105.227C167.024 106.126 166.791 106.934 166.326 107.65C165.863 108.365 165.178 108.928 164.284 109.332C163.386 109.737 162.321 109.94 161.094 109.94C159.617 109.94 158.404 109.663 157.447 109.109C156.768 108.71 156.215 108.179 155.789 107.511C155.365 106.847 155.152 106.199 155.152 105.569C155.152 105.204 155.28 104.89 155.533 104.63C155.789 104.37 156.115 104.24 156.507 104.24C156.828 104.24 157.095 104.342 157.317 104.545C157.538 104.746 157.726 105.048 157.882 105.447C158.072 105.922 158.279 106.315 158.498 106.635C158.72 106.951 159.029 107.214 159.433 107.421C159.833 107.627 160.358 107.729 161.009 107.729C161.906 107.729 162.636 107.52 163.196 107.107C163.755 106.691 164.036 106.171 164.036 105.552C164.036 105.057 163.886 104.655 163.585 104.35C163.281 104.042 162.889 103.807 162.415 103.646C161.935 103.485 161.296 103.309 160.492 103.128C159.418 102.88 158.521 102.586 157.799 102.252C157.078 101.915 156.501 101.46 156.078 100.883C155.655 100.307 155.442 99.5883 155.442 98.7287C155.442 97.8691 155.666 97.1849 156.115 96.5487C156.561 95.9124 157.209 95.4233 158.058 95.0811C158.907 94.739 159.907 94.5693 161.051 94.5693C161.972 94.5693 162.761 94.6824 163.431 94.9086C164.102 95.1349 164.656 95.4374 165.099 95.8106C165.539 96.1867 165.86 96.5798 166.064 96.9926C166.272 97.4054 166.371 97.8069 166.371 98.2C166.371 98.5591 166.243 98.8814 165.991 99.167C165.735 99.4554 165.417 99.5996 165.036 99.5996C164.69 99.5996 164.428 99.5148 164.247 99.3423C164.065 99.1698 163.872 98.8871 163.662 98.4969C163.389 97.9342 163.062 97.4987 162.682 97.1849C162.304 96.8682 161.69 96.7127 160.85 96.7127C160.069 96.7127 159.438 96.8823 158.961 97.2245C158.481 97.5666 158.242 97.9766 158.242 98.4573C158.242 98.757 158.322 99.0115 158.487 99.2292C158.651 99.4441 158.873 99.6307 159.16 99.7863C159.447 99.9418 159.734 100.063 160.026 100.151C160.319 100.239 160.801 100.366 161.472 100.536C162.315 100.731 163.076 100.948 163.758 101.186C164.44 101.421 165.022 101.709 165.502 102.048C165.979 102.388 166.354 102.815 166.621 103.332C166.888 103.85 167.024 104.483 167.024 105.235V105.227Z" fill="#79488B"/>
<path d="M173.155 103.544V96.393C173.155 95.7851 173.292 95.327 173.567 95.0245C173.84 94.7191 174.203 94.5664 174.652 94.5664C175.101 94.5664 175.493 94.7191 175.768 95.0245C176.041 95.327 176.18 95.7851 176.18 96.393V103.705C176.18 104.537 176.271 105.232 176.461 105.789C176.649 106.349 176.978 106.779 177.455 107.087C177.93 107.395 178.597 107.548 179.452 107.548C180.633 107.548 181.468 107.237 181.957 106.609C182.445 105.984 182.693 105.037 182.693 103.765V96.393C182.693 95.7766 182.829 95.3214 183.099 95.0188C183.371 94.7191 183.735 94.5664 184.189 94.5664C184.644 94.5664 185.013 94.7191 185.294 95.0188C185.578 95.3214 185.717 95.7766 185.717 96.393V103.544C185.717 104.706 185.604 105.676 185.377 106.454C185.149 107.231 184.718 107.913 184.087 108.504C183.542 109.004 182.908 109.369 182.19 109.598C181.471 109.827 180.628 109.943 179.665 109.943C178.515 109.943 177.529 109.819 176.7 109.573C175.87 109.327 175.194 108.945 174.669 108.427C174.146 107.91 173.763 107.248 173.519 106.44C173.272 105.634 173.152 104.667 173.152 103.544H173.155Z" fill="#79488B"/>
<path d="M198.333 103.898H195.564V108.108C195.564 108.71 195.422 109.168 195.138 109.476C194.851 109.787 194.493 109.943 194.059 109.943C193.604 109.943 193.235 109.787 192.957 109.482C192.675 109.174 192.539 108.724 192.539 108.128V96.6673C192.539 96.0057 192.692 95.5306 192.996 95.2479C193.303 94.9651 193.786 94.8237 194.453 94.8237H198.333C199.48 94.8237 200.367 94.9114 200.983 95.0867C201.591 95.2564 202.122 95.5363 202.568 95.9293C203.011 96.3224 203.349 96.8031 203.579 97.3686C203.812 97.9369 203.925 98.576 203.925 99.2857C203.925 100.798 203.457 101.946 202.519 102.727C201.582 103.507 200.185 103.898 198.333 103.898ZM197.6 97.083H195.561V101.627H197.6C198.313 101.627 198.907 101.553 199.387 101.404C199.867 101.254 200.233 101.011 200.48 100.674C200.733 100.338 200.858 99.8936 200.858 99.3451C200.858 98.6891 200.665 98.1547 200.276 97.7418C199.841 97.3035 198.947 97.083 197.597 97.083H197.6Z" fill="#79488B"/>
<path d="M219.833 97.1449H213.02V100.795H219.297C219.757 100.795 220.103 100.897 220.33 101.104C220.558 101.31 220.671 101.581 220.671 101.921C220.671 102.26 220.561 102.534 220.336 102.746C220.112 102.961 219.765 103.066 219.297 103.066H213.02V107.296H220.069C220.544 107.296 220.901 107.406 221.143 107.627C221.387 107.845 221.506 108.139 221.506 108.503C221.506 108.868 221.387 109.14 221.143 109.36C220.904 109.578 220.544 109.688 220.069 109.688H211.847C211.188 109.688 210.716 109.544 210.427 109.253C210.137 108.961 209.992 108.492 209.992 107.842V96.6642C209.992 96.2316 210.058 95.8781 210.185 95.6038C210.313 95.3296 210.518 95.1288 210.79 95.0044C211.066 94.88 211.418 94.8149 211.844 94.8149H219.828C220.311 94.8149 220.671 94.9224 220.904 95.1345C221.137 95.3465 221.254 95.6265 221.254 95.9714C221.254 96.3164 221.137 96.6048 220.904 96.8169C220.671 97.029 220.311 97.1364 219.828 97.1364L219.833 97.1449Z" fill="#79488B"/>
<path d="M231.522 103.329H230.462V108.105C230.462 108.733 230.323 109.196 230.048 109.493C229.766 109.79 229.406 109.94 228.957 109.94C228.474 109.94 228.102 109.784 227.838 109.473C227.574 109.162 227.438 108.707 227.438 108.105V96.6643C227.438 96.0139 227.585 95.5446 227.878 95.2533C228.17 94.9621 228.639 94.8179 229.292 94.8179H234.214C234.89 94.8179 235.472 94.8462 235.955 94.9027C236.438 94.9621 236.873 95.078 237.259 95.2533C237.73 95.4484 238.142 95.7284 238.5 96.096C238.858 96.4635 239.133 96.8849 239.321 97.3684C239.508 97.8519 239.602 98.3637 239.602 98.9038C239.602 100.012 239.29 100.9 238.662 101.562C238.031 102.223 237.083 102.696 235.802 102.973C236.339 103.255 236.853 103.674 237.341 104.228C237.83 104.782 238.267 105.373 238.648 105.998C239.031 106.623 239.329 107.189 239.545 107.692C239.761 108.195 239.866 108.543 239.866 108.733C239.866 108.922 239.804 109.123 239.679 109.315C239.554 109.507 239.38 109.66 239.165 109.77C238.946 109.883 238.693 109.94 238.412 109.94C238.071 109.94 237.784 109.861 237.554 109.702C237.324 109.544 237.128 109.343 236.961 109.1C236.79 108.857 236.566 108.498 236.282 108.023L235.069 106.015C234.635 105.28 234.245 104.717 233.905 104.333C233.561 103.948 233.212 103.682 232.859 103.544C232.507 103.402 232.061 103.329 231.525 103.329H231.522ZM233.251 97.0828H230.459V101.169H233.172C233.896 101.169 234.51 101.106 235.004 100.979C235.498 100.855 235.876 100.643 236.137 100.34C236.398 100.04 236.532 99.6248 236.532 99.096C236.532 98.6832 236.427 98.3213 236.214 98.0074C236.004 97.6935 235.714 97.4589 235.336 97.3033C234.987 97.1535 234.288 97.08 233.249 97.08L233.251 97.0828Z" fill="#79488B"/>
<path d="M257.736 96.3931V107.214H263.871C264.359 107.214 264.734 107.333 264.995 107.571C265.257 107.808 265.384 108.105 265.384 108.464C265.384 108.823 265.257 109.126 264.998 109.352C264.74 109.578 264.365 109.691 263.871 109.691H256.566C255.907 109.691 255.435 109.547 255.145 109.256C254.856 108.965 254.711 108.495 254.711 107.845V96.396C254.711 95.788 254.85 95.33 255.123 95.0274C255.398 94.722 255.759 94.5693 256.208 94.5693C256.656 94.5693 257.031 94.722 257.315 95.0217C257.597 95.3243 257.736 95.7795 257.736 96.396V96.3931Z" fill="#79488B"/>
<path d="M280.203 108.006L279.49 106.14H273.418L272.705 108.045C272.43 108.789 272.188 109.292 271.992 109.553C271.796 109.813 271.473 109.943 271.027 109.943C270.646 109.943 270.311 109.804 270.018 109.527C269.726 109.25 269.578 108.936 269.578 108.585C269.578 108.382 269.612 108.173 269.68 107.958C269.749 107.743 269.862 107.44 270.018 107.056L273.838 97.4023C273.946 97.1252 274.077 96.7944 274.233 96.4042C274.384 96.0168 274.546 95.6944 274.722 95.4371C274.895 95.1798 275.122 94.9706 275.403 94.8122C275.685 94.6539 276.031 94.5747 276.446 94.5747C276.86 94.5747 277.218 94.6539 277.499 94.8122C277.783 94.9706 278.011 95.177 278.181 95.4258C278.354 95.6775 278.502 95.9433 278.621 96.2317C278.738 96.5201 278.888 96.9018 279.073 97.3825L282.975 106.977C283.279 107.706 283.433 108.238 283.433 108.569C283.433 108.899 283.288 109.227 282.998 109.516C282.708 109.804 282.362 109.948 281.956 109.948C281.717 109.948 281.513 109.906 281.345 109.821C281.175 109.736 281.033 109.623 280.919 109.476C280.803 109.332 280.68 109.109 280.547 108.806C280.413 108.506 280.3 108.241 280.206 108.011L280.203 108.006ZM274.213 103.878H278.675L276.426 97.7416L274.216 103.878H274.213Z" fill="#79488B"/>
<path d="M293.138 96.3732L298.955 105.136V96.2912C298.955 95.7144 299.077 95.2846 299.327 94.999C299.577 94.7106 299.909 94.5664 300.329 94.5664C300.75 94.5664 301.107 94.7106 301.36 94.999C301.613 95.2874 301.735 95.7172 301.735 96.2912V107.983C301.735 109.287 301.193 109.94 300.105 109.94C299.835 109.94 299.588 109.901 299.372 109.821C299.153 109.745 298.952 109.621 298.761 109.454C298.571 109.284 298.395 109.086 298.233 108.86C298.071 108.634 297.907 108.402 297.745 108.164L292.07 99.5034V108.215C292.07 108.784 291.936 109.213 291.672 109.505C291.408 109.796 291.07 109.94 290.656 109.94C290.241 109.94 289.883 109.793 289.625 109.499C289.366 109.205 289.238 108.778 289.238 108.215V96.7465C289.238 96.2601 289.292 95.8784 289.4 95.6013C289.528 95.2988 289.744 95.0499 290.042 94.8548C290.34 94.6625 290.664 94.5664 291.011 94.5664C291.28 94.5664 291.516 94.6116 291.709 94.6993C291.902 94.787 292.073 94.9057 292.218 95.0556C292.365 95.2054 292.513 95.3977 292.666 95.6324C292.82 95.8699 292.976 96.1159 293.141 96.3732H293.138Z" fill="#79488B"/>
<path d="M310.47 94.8207H314.412C315.438 94.8207 316.315 94.9168 317.051 95.1063C317.784 95.2957 318.451 95.6492 319.047 96.1695C320.604 97.4956 321.382 99.5117 321.382 102.215C321.382 103.108 321.305 103.923 321.149 104.658C320.993 105.396 320.752 106.06 320.428 106.651C320.101 107.242 319.684 107.774 319.172 108.238C318.772 108.597 318.332 108.882 317.86 109.1C317.383 109.315 316.872 109.468 316.327 109.555C315.781 109.643 315.165 109.688 314.478 109.688H310.535C309.984 109.688 309.57 109.606 309.291 109.439C309.016 109.273 308.834 109.041 308.746 108.738C308.661 108.438 308.621 108.048 308.621 107.568V96.6643C308.621 96.0139 308.766 95.5446 309.058 95.2533C309.351 94.9621 309.825 94.8179 310.476 94.8179L310.47 94.8207ZM311.64 97.2044V107.296H313.932C314.438 107.296 314.83 107.282 315.114 107.257C315.401 107.228 315.696 107.16 316.003 107.053C316.307 106.945 316.571 106.793 316.795 106.598C317.806 105.744 318.315 104.279 318.315 102.195C318.315 100.728 318.09 99.6305 317.647 98.9009C317.201 98.1714 316.653 97.7049 316.003 97.5069C315.35 97.3062 314.56 97.2072 313.637 97.2072H311.64V97.2044Z" fill="#79488B"/>
<path d="M327.707 108.105V96.3901C327.707 95.7822 327.846 95.3241 328.125 95.0215C328.4 94.7162 328.761 94.5635 329.204 94.5635C329.647 94.5635 330.027 94.7162 330.309 95.0159C330.593 95.3184 330.732 95.7737 330.732 96.3901V108.105C330.732 108.721 330.59 109.182 330.309 109.485C330.027 109.79 329.661 109.943 329.204 109.943C328.747 109.943 328.411 109.787 328.127 109.482C327.846 109.174 327.707 108.716 327.707 108.105Z" fill="#79488B"/>
<path d="M341.603 96.3732L347.419 105.136V96.2912C347.419 95.7144 347.542 95.2846 347.791 94.999C348.041 94.7106 348.374 94.5664 348.794 94.5664C349.214 94.5664 349.572 94.7106 349.825 94.999C350.078 95.2874 350.2 95.7172 350.2 96.2912V107.983C350.2 109.287 349.657 109.94 348.57 109.94C348.3 109.94 348.053 109.901 347.837 109.821C347.618 109.745 347.417 109.621 347.226 109.454C347.036 109.284 346.86 109.086 346.698 108.86C346.536 108.634 346.371 108.402 346.209 108.164L340.535 99.5034V108.215C340.535 108.784 340.401 109.213 340.137 109.505C339.873 109.796 339.535 109.94 339.12 109.94C338.706 109.94 338.348 109.793 338.089 109.499C337.831 109.205 337.703 108.778 337.703 108.215V96.7465C337.703 96.2601 337.757 95.8784 337.865 95.6013C337.993 95.2988 338.209 95.0499 338.507 94.8548C338.805 94.6625 339.129 94.5664 339.475 94.5664C339.745 94.5664 339.981 94.6116 340.174 94.6993C340.367 94.787 340.538 94.9057 340.682 95.0556C340.83 95.2054 340.978 95.3977 341.131 95.6324C341.285 95.8699 341.441 96.1159 341.606 96.3732H341.603Z" fill="#79488B"/>
<path d="M370.695 103.643V106.493C370.695 106.872 370.658 107.175 370.584 107.401C370.507 107.627 370.371 107.831 370.172 108.015C369.97 108.196 369.715 108.374 369.402 108.541C368.499 109.027 367.627 109.383 366.792 109.607C365.96 109.83 365.048 109.943 364.063 109.943C362.915 109.943 361.87 109.768 360.927 109.414C359.984 109.064 359.178 108.552 358.513 107.885C357.846 107.214 357.334 106.403 356.979 105.45C356.621 104.497 356.445 103.434 356.445 102.255C356.445 101.076 356.621 100.041 356.965 99.0794C357.312 98.1208 357.823 97.3065 358.493 96.6363C359.166 95.9662 359.984 95.4544 360.95 95.1009C361.913 94.7446 363.006 94.5693 364.227 94.5693C365.233 94.5693 366.125 94.7051 366.897 94.9709C367.673 95.2395 368.303 95.5731 368.783 95.9803C369.266 96.3847 369.629 96.8144 369.874 97.2669C370.118 97.7193 370.24 98.1236 370.24 98.4743C370.24 98.8532 370.098 99.1755 369.82 99.4413C369.536 99.7099 369.198 99.8428 368.806 99.8428C368.587 99.8428 368.38 99.7919 368.178 99.6901C367.979 99.5883 367.809 99.4469 367.673 99.2632C367.301 98.6807 366.985 98.2424 366.727 97.9455C366.468 97.6486 366.122 97.3969 365.684 97.1962C365.244 96.9926 364.685 96.8908 364.009 96.8908C363.333 96.8908 362.682 97.0096 362.134 97.2499C361.583 97.4902 361.115 97.838 360.723 98.2961C360.334 98.7514 360.035 99.3112 359.828 99.9729C359.618 100.635 359.518 101.37 359.518 102.173C359.518 103.917 359.919 105.261 360.723 106.199C361.529 107.138 362.651 107.61 364.088 107.61C364.79 107.61 365.443 107.52 366.059 107.336C366.676 107.152 367.298 106.892 367.928 106.556V104.141H365.585C365.023 104.141 364.594 104.056 364.307 103.886C364.017 103.717 363.875 103.431 363.875 103.024C363.875 102.693 363.995 102.419 364.236 102.201C364.48 101.986 364.804 101.876 365.219 101.876H368.65C369.07 101.876 369.428 101.913 369.72 101.989C370.013 102.062 370.249 102.229 370.428 102.484C370.609 102.741 370.697 103.126 370.697 103.64L370.695 103.643Z" fill="#79488B"/>
<path d="M346.099 34.3608C345.9 33.3655 345.75 32.4861 345.54 31.6209C345.355 30.8631 345.372 30.1901 346.054 29.6811C346.767 29.1524 347.568 28.8611 348.4 29.2824C349.919 30.0544 350.825 31.3947 351.53 32.8933C351.777 33.4192 351.598 33.8773 351.416 34.3552C351.808 34.3806 352.237 34.4343 352.666 34.4343C358.181 34.44 363.694 34.4343 369.21 34.44C371.005 34.44 371.723 35.4721 371.05 37.1686C370.917 37.5079 370.471 37.8388 370.102 37.9434C369.607 38.0876 333.031 38.0197 332.691 38.0282C330.921 38.0763 330.586 38.4184 330.575 40.2055C330.541 45.7334 330.617 51.2614 330.45 56.7866C330.257 63.1317 329.192 69.3411 326.837 75.2847C326.53 76.0567 326.181 76.8201 325.761 77.5355C325.133 78.6072 324.36 78.8419 323.258 78.4092C322.102 77.954 321.901 77.4874 322.236 76.1754C322.824 73.8709 323.602 71.5891 323.917 69.245C324.491 64.9781 324.994 60.6802 325.139 56.3822C325.343 50.3679 325.193 44.3451 325.198 38.3251C325.198 35.4551 326.226 34.4428 329.129 34.4428C334.301 34.4428 339.473 34.4428 344.645 34.44C345.091 34.44 345.537 34.3976 346.102 34.3665L346.099 34.3608Z" fill="#79488B"/>
<path d="M157.342 54.638C154.576 54.6719 154.505 53.3118 154.962 51.0639C155.042 50.6765 155.4 50.0658 156.09 50.0488C156.442 50.0403 157.01 50.0431 157.388 50.0431C172.364 50.0403 187.343 50.0403 202.32 50.0431C204.231 50.0431 204.771 50.5153 204.802 52.1893C204.836 54.0894 204.331 54.6041 202.388 54.6041C194.822 54.6069 164.789 54.5419 157.342 54.638Z" fill="#79488B"/>
<path d="M290.502 58.899C293.2 58.899 295.901 58.8934 298.599 58.899C300.863 58.9047 302.016 60.0697 302.021 62.3431C302.027 64.7663 302.033 67.1867 302.019 69.61C302.007 71.5102 301.047 72.7062 299.184 72.7628C295.273 72.8844 291.357 72.8815 287.443 72.89C285.506 72.8929 283.566 72.8674 281.635 72.7486C280.092 72.6525 279.053 71.6798 278.993 70.1331C278.888 67.3423 278.863 64.5401 278.979 61.7493C279.053 59.9481 280.331 58.9245 282.174 58.9075C284.949 58.8821 287.724 58.9019 290.502 58.9019V58.899ZM290.49 69.5082C292.277 69.5082 294.063 69.5082 295.85 69.5082C296.926 69.5082 297.463 68.9879 297.454 67.905C297.446 66.542 297.454 65.182 297.452 63.8191C297.452 62.852 296.969 62.3204 295.995 62.3176C292.348 62.3063 288.698 62.3063 285.051 62.3176C284.015 62.3176 283.549 62.886 283.563 63.9039C283.58 65.1905 283.555 66.477 283.569 67.7636C283.586 69.1237 283.955 69.4912 285.361 69.511C287.071 69.5337 288.78 69.5167 290.49 69.511V69.5082Z" fill="#79488B"/>
<path d="M259.584 75.0927C259.238 77.4424 256.661 78.8195 254.884 77.581C252.18 75.6978 249.535 73.7298 246.874 71.79C246.173 71.2782 245.721 70.6449 246.207 69.7598C246.675 68.9002 247.465 68.6033 248.334 68.9822C251.694 70.4554 255.045 71.9512 258.351 73.5375C258.888 73.7948 259.516 74.1002 259.584 75.0927Z" fill="#79488B"/>
<path d="M233.684 38.5772L234.198 38.0513C234.022 38.2238 233.848 38.3962 233.684 38.5772Z" fill="#79488B"/>
<path d="M225.775 39.4338C225.988 39.4394 226.187 39.4338 226.372 39.4111H224.656C225.028 39.4168 225.403 39.4224 225.775 39.4338Z" fill="#79488B"/>
<path d="M248.713 59.4956C245.745 59.5097 242.777 59.5154 239.809 59.5211H249.193C249.051 59.5041 248.892 59.4956 248.713 59.4956Z" fill="#79488B"/>
<path d="M257.3 30.3432C242.776 30.3432 228.251 30.3432 213.723 30.3432C213.343 30.3432 212.911 30.3291 212.553 30.3432C211.769 30.3743 211.647 30.8409 211.579 31.1575C211.224 32.7919 211.244 34.1463 213.519 34.1181C218.841 34.053 230.256 34.1407 230.861 34.1746C229.802 35.6902 228.83 36.9513 228.009 38.3057C227.973 38.3651 227.936 38.4217 227.899 38.4754L227.308 39.4142C227.308 39.4142 220.832 39.4085 219.154 39.4198C216.918 39.4339 215.601 40.7262 215.598 42.9515C215.586 50.1817 215.584 57.4119 215.598 64.642C215.603 66.8108 216.978 68.1539 219.171 68.1963C220.028 68.2133 220.883 68.1963 221.741 68.1963C221.772 68.3066 221.804 68.4141 221.835 68.5243C221.508 68.8269 221.213 69.1775 220.846 69.4263C218.094 71.3124 215.348 73.204 212.562 75.0391C211.741 75.5792 211.156 76.1504 211.599 77.1542C212.016 78.0986 212.786 78.3107 213.777 78.0307C217.876 76.8771 221.662 75.0674 225.124 72.6102C227.032 71.2558 227.109 70.2944 225.638 68.5328C225.607 68.4961 225.649 68.3971 225.672 68.1963C226.058 68.1963 226.462 68.1963 226.865 68.1963C235.002 68.1963 243.139 68.1963 251.276 68.1963C253.912 68.1963 255.261 67.054 255.284 64.4865C255.349 57.3327 255.346 50.176 255.284 43.0222C255.264 40.5367 253.952 39.4113 251.45 39.4085C246.777 39.4085 242.105 39.4085 237.433 39.4085H237.436H232.863L233.676 38.5744C233.84 38.3934 234.014 38.2209 234.19 38.0484C235.4 36.8721 236.74 35.8231 235.868 34.1067C237.794 34.1067 252.245 34.0954 257.528 34.0926C258.368 34.0926 259.107 33.9852 259.359 32.9672C259.817 31.1151 259.232 30.3404 257.292 30.3404L257.3 30.3432ZM250.044 63.33C249.91 64.3565 249.427 64.7382 248.28 64.7523C246.189 64.7778 244.096 64.7608 242.006 64.7608C235.695 64.7608 229.381 64.7608 223.07 64.7608C221.468 64.7608 221.023 64.5487 220.917 63.3329L220.886 62.298C220.883 61.4157 220.886 60.525 220.886 59.5241H239.81C242.778 59.5212 245.746 59.5156 248.714 59.4986C248.893 59.4986 250.098 59.5241 250.098 59.5241V60.1999C250.137 60.3837 250.049 63.3329 250.049 63.3329L250.044 63.33ZM250.092 52.6926V54.604C250.092 54.604 250.092 54.6097 250.092 54.6125C250.092 54.6238 250.092 54.6351 250.092 54.6465V56.1309H229.716C229.552 56.1309 229.384 56.1309 229.219 56.1309C226.899 56.1309 224.578 56.1309 222.258 56.1309H220.96V51.095H250.092C250.092 51.095 250.098 52.6134 250.092 52.6926ZM247.607 42.7394C249.66 42.7394 250.075 43.1551 250.092 45.191C250.095 45.5557 250.092 47.7217 250.092 47.7217H220.909C220.909 46.3899 220.869 45.1768 220.963 44.1419C221.008 43.6471 221.304 43.3049 221.772 42.9656C222.031 42.779 222.846 42.7422 223.224 42.7422C231.352 42.7394 239.481 42.7394 247.61 42.7422L247.607 42.7394Z" fill="#79488B"/>
<path d="M313.448 36.6316C314.879 36.6203 315.277 36.182 315.26 34.7767C315.243 33.3798 314.851 32.9925 313.391 32.9896C307.154 32.984 293.589 32.9585 293.589 32.9585C293.654 32.7012 293.291 32.0169 293.152 31.7709C292.66 30.9255 292.013 30.1451 291.343 29.4297C290.618 28.6549 289.193 28.7256 288.17 29.3703C287.21 29.9754 287.54 30.7841 287.77 31.59C287.889 32.0084 287.997 32.4269 288.147 32.9896C287.559 32.9896 274.412 32.9698 268.252 33.0236C267.67 33.0292 266.798 33.36 266.565 33.804C265.75 35.3563 266.582 36.6118 268.323 36.6316C270.87 36.6599 277.463 36.6401 277.86 36.6401C278.988 39.1284 279.993 41.348 281.095 43.7769C278.187 43.7769 275.489 43.7289 272.796 43.7882C269.365 43.8674 268.158 45.1342 268.15 48.5471C268.138 52.7489 268.121 70.9248 268.178 75.808C268.186 76.4584 268.408 77.3774 268.865 77.694C269.831 78.3614 271.015 78.2765 272.132 77.7874C273.16 77.3349 273.086 76.4442 273.086 75.5649C273.086 67.1584 273.086 58.7519 273.086 50.3483C273.086 49.8195 273.137 49.2908 273.165 48.762C273.211 47.8459 273.77 47.3256 274.614 47.3114C277.343 47.2605 280.076 47.2916 282.904 47.2916C282.72 48.9599 282.018 50.2663 281.047 51.4539C279.584 53.2438 277.624 54.3069 275.531 55.1609C274.705 55.4974 274.341 55.93 274.605 56.8942C274.909 58.0083 275.651 58.325 276.576 58.0365C278.127 57.5559 279.729 57.0808 281.118 56.2778C284.262 54.4653 287.011 52.2541 287.872 48.5245C287.9 48.3379 288.011 47.5801 287.966 47.2096H293.708C293.708 47.2096 293.708 51.1428 293.777 52.2428C293.958 55.2118 295.538 56.9394 298.523 57.225C300.633 57.4286 302.769 57.4003 304.896 57.4343C306.384 57.4569 306.813 56.9366 306.802 55.2796C306.79 53.7131 306.359 53.2579 304.907 53.2268C303.391 53.1929 301.871 53.1504 300.354 53.0798C299.383 53.0345 298.784 52.5227 298.724 51.5302C298.653 50.3257 298.594 49.1155 298.622 47.9109V47.2916L300.343 47.2803C302.544 47.2549 304.745 47.2577 306.947 47.2803C307.799 47.2888 308.401 47.713 308.546 48.6008C308.625 49.0843 308.682 49.5764 308.682 50.0627C308.69 57.1798 308.682 72.1011 308.656 72.4404C308.563 73.5573 307.975 74.1765 306.822 74.1765C305.833 74.1765 304.845 74.1511 303.856 74.12C302.632 74.0832 302.317 74.4169 302.206 75.6016C302.093 76.809 302.823 77.301 303.777 77.4367C305.535 77.6884 307.316 77.9174 309.088 77.9316C311.636 77.9514 313.101 76.5291 313.377 74.0238C313.434 73.4979 313.473 56.8376 313.459 49.0391C313.459 48.2474 313.405 47.4472 313.269 46.6667C313.042 45.3717 312.303 44.4273 310.991 44.1021C310.187 43.9042 309.347 43.7911 308.517 43.7798C305.703 43.7402 302.888 43.7685 300.073 43.7628C299.69 43.7628 299.309 43.7147 298.784 43.678C300.11 42.4338 301.28 41.3593 302.422 40.2566C303.416 39.3008 304.496 38.3564 303.553 36.7023C304.061 36.6712 310.517 36.6457 313.445 36.6259L313.448 36.6316ZM298.256 37.4346C297.02 39.3885 295.779 41.3367 294.504 43.2651C294.345 43.5027 293.975 43.7402 293.703 43.743C290.894 43.7769 288.082 43.7656 284.873 43.7656C286.307 42.3631 285.702 41.2717 284.912 40.2226C284.075 39.1086 283.203 38.0199 282.22 36.7588H298.707C298.639 36.985 298.378 37.2423 298.256 37.4346Z" fill="#79488B"/>
<path d="M369.309 48.6034C370.849 48.6034 371.266 48.1652 371.218 46.6354C371.181 45.4252 370.766 45.0689 369.241 45.0633C364.223 45.0492 352.294 45.0576 351.175 45.0576C351.175 44.1019 351.18 43.2423 351.175 42.3827C351.16 39.9057 350.644 39.4166 348.127 39.4844C347.937 39.4901 347.747 39.5042 347.559 39.524C345.943 39.6908 345.619 40.0386 345.616 41.6815C345.611 45.9201 345.633 55.63 345.633 55.63C345.633 55.63 339.808 55.6696 337.528 55.6809C334.946 55.6923 333.063 57.5302 333.049 60.1005C333.026 64.3391 333.097 68.5805 333.02 72.8191C332.975 75.3271 335.335 77.3602 337.573 77.3347C346.735 77.2273 355.898 77.2923 365.063 77.2895C367.699 77.2895 369.539 75.5929 369.579 72.9378C369.647 68.6625 369.644 64.3815 369.585 60.1061C369.548 57.4143 367.685 55.6838 364.998 55.6809C360.777 55.6753 351.158 55.6414 351.158 55.6414L351.175 48.5808C351.175 48.5808 364.228 48.6091 369.309 48.6034ZM362.331 59.3257C363.439 59.3314 363.978 59.8941 363.987 60.9092C364.018 64.5794 364.035 68.2496 363.981 71.917C363.961 73.2149 363.45 73.6023 362.07 73.6108C358.46 73.6249 354.85 73.6164 351.237 73.6164C347.741 73.6164 344.245 73.6249 340.748 73.6164C339.115 73.6108 338.723 73.2262 338.718 71.6088C338.706 68.1281 338.706 64.6473 338.718 61.1665C338.723 59.6113 339.186 59.1448 340.785 59.1561C347.965 59.2041 355.148 59.2833 362.328 59.3286L362.331 59.3257Z" fill="#79488B"/>
</svg>
