<svg width="413" height="171" viewBox="0 0 413 171" fill="none" xmlns="http://www.w3.org/2000/svg">
<path d="M132.191 77.9335L122.458 41.7427C122.19 40.7466 121.402 39.9585 120.396 39.6889L84.0607 29.9945C83.0547 29.725 81.9811 30.0121 81.2428 30.7474L67.1505 44.7837L53.4522 58.4274C52.7139 59.1628 52.4286 60.2321 52.6963 61.2341L62.4354 97.4191C62.703 98.421 63.4913 99.2062 64.4973 99.4728L100.827 109.173C101.077 109.238 101.336 109.267 101.583 109.267C102.345 109.267 103.092 108.974 103.645 108.417L117.743 94.381L131.438 80.7373C132.177 80.0019 132.468 78.9325 132.194 77.9306M114.807 89.084L84.9843 81.1269L93.9204 72.2264L123.738 80.1894L114.804 89.087L114.807 89.084ZM81.7988 38.4145L89.7935 68.1189L80.8604 77.0165L72.8656 47.3121L81.7988 38.4145ZM125.252 74.5731L95.4293 66.616L87.4345 36.9086L117.258 44.8716L125.252 74.5761V74.5731ZM67.7034 52.4508L75.6924 82.1552L66.7593 91.0528L58.7645 61.3542L67.7005 52.4537L67.7034 52.4508ZM100.712 103.126L70.889 95.1632L79.8221 86.2715L109.645 94.2257L100.712 103.126Z" fill="#007144"/>
<path d="M33.1829 108.112L50.6668 90.7039C52.4934 88.8817 52.4934 85.9373 50.6668 84.1179C48.8401 82.2986 45.8869 82.2986 44.0603 84.1179L26.5765 101.532C24.7558 103.346 24.7558 106.299 26.5765 108.112C28.3972 109.926 31.3622 109.926 33.1829 108.112Z" fill="#007144"/>
<path d="M54.1634 107.711C52.3426 105.898 49.3777 105.898 47.5569 107.711L30.0731 125.125C28.2465 126.945 28.2465 129.886 30.0731 131.706C31.8997 133.525 34.8529 133.525 36.6854 131.706L54.1634 114.291C55.9841 112.478 55.9841 109.525 54.1634 107.711Z" fill="#007144"/>
<path d="M66.1936 116.219L48.7098 133.633C46.8832 135.453 46.8832 138.4 48.7098 140.213C50.5364 142.033 53.4896 142.033 55.3221 140.213L72.8001 122.799C74.6208 120.986 74.6208 118.038 72.8001 116.219C70.9793 114.406 68.0144 114.406 66.1936 116.219Z" fill="#007144"/>
<path d="M204.451 96.9879C198.863 93.3873 193.612 89.397 189.668 83.9741C187.818 81.434 186.12 78.7797 184.329 76.1342C184.717 75.8939 184.876 75.7738 185.05 75.7006C189.477 73.9369 193.406 71.3324 197.045 68.3177C198.795 66.8733 200.422 65.2678 201.942 63.5833C203.251 62.133 202.993 60.8703 201.422 59.675C201.086 59.4231 200.716 59.1975 200.339 59.0129C198.975 58.3391 198.051 58.5764 197.068 59.7248C195.315 61.7727 193.606 63.8733 191.744 65.8274C189.162 68.5316 186.462 71.1947 182.841 73.3011C182.176 73.4447 182.461 72.141 182.558 71.1537C182.803 65.7425 183.088 60.3342 183.314 54.923C183.379 53.5197 182.956 53.0363 181.597 52.7609C180.932 52.629 180.205 52.5675 179.535 52.6583C177.699 52.8986 177.355 53.3849 177.305 55.2218C177.173 59.757 177.052 64.2893 176.861 68.8216C176.481 77.8891 172.855 85.5444 166.151 91.6119C162.998 94.4654 159.312 96.7477 155.924 99.3522C155.406 99.7507 154.8 100.556 154.883 101.066C154.997 101.743 155.63 102.563 156.256 102.85C156.836 103.108 157.798 102.918 158.427 102.601C160.565 101.532 162.727 100.457 164.707 99.1296C172.358 93.9967 178.179 87.3931 181.076 78.5248C181.126 78.3754 181.235 78.2494 181.361 78.0297C181.973 79.4213 182.5 80.6987 183.079 81.9438C187.021 90.4019 192.612 97.4713 200.654 102.472C202.548 103.65 204.172 103.263 205.481 101.295C206.66 99.5163 206.378 98.2301 204.451 96.9938" fill="#007144"/>
<path d="M158.846 62.4493C161.32 66.9171 163.803 71.382 166.265 75.8645C166.691 76.6497 167.256 77.1184 168.065 77.0276C171.097 77.0217 172.836 74.2327 171.265 71.8654C169.377 69.0177 167.318 66.2785 165.223 63.5743C164.067 62.089 162.726 60.7442 161.4 59.4024C160.62 58.6114 159.649 58.6846 158.752 59.2999C157.811 59.9415 157.955 60.7765 158.408 61.6378C158.552 61.9132 158.699 62.1798 158.846 62.4493Z" fill="#007144"/>
<path d="M307.701 84.6863C306.663 83.8835 305.774 83.9275 304.983 84.6541C304.045 85.5213 304.565 86.365 305.098 87.1238C308.636 92.1571 312.187 97.1903 315.787 102.183C316.166 102.707 316.711 103.536 317.455 103.378C319.073 103.067 320.231 102.458 320.99 101.216C321.693 100.061 321.132 99.0771 320.464 98.1337C316.858 93.0565 312.651 88.5242 307.704 84.6863" fill="#007144"/>
<path d="M275.799 63.9438C274.749 63.9438 274.216 64.4009 274.013 65.4732C273.051 70.5181 272.045 75.5573 270.987 80.5847C270.489 82.946 271.113 83.7927 273.557 83.7663C274.781 83.7517 275.243 83.3474 275.678 81.7565C277.005 76.8815 277.405 71.8804 277.696 66.8618C277.696 66.478 277.714 66.0943 277.69 65.7163C277.599 64.3804 277.122 63.9468 275.802 63.9438" fill="#007144"/>
<path d="M284.968 70.7939C285.085 70.7792 285.203 70.7675 285.321 70.7528C285.888 72.0536 286.409 73.372 287.047 74.6347C287.289 75.1093 287.709 75.6279 288.18 75.8213C289.127 76.2138 290.777 75.5634 291.389 74.6875C292.045 73.7499 291.765 72.8242 291.145 72.0185C289.812 70.2841 288.436 68.5731 287.03 66.8915C286.786 66.5926 286.441 66.2821 286.091 66.1327C285.303 65.9745 285.103 66.2557 285.103 66.2557C284.994 66.3407 284.962 66.3963 284.962 66.3963C284.962 66.3963 284.977 58.3308 284.962 55.0613C284.956 53.3181 284.291 52.5212 282.618 52.6472C280.732 52.7966 280.067 52.6911 280.07 54.9704C280.106 70.2255 280.088 85.4864 280.088 100.747C280.088 101.055 280.088 101.371 280.12 101.664C280.17 102.098 280.303 102.558 280.823 102.681C281.915 102.939 283.026 102.871 284.103 102.631C285.124 102.397 284.965 101.319 284.965 100.475V70.7939H284.968Z" fill="#007144"/>
<path d="M298.697 59.7158L298.348 59.7246C298.474 59.7305 298.591 59.7246 298.697 59.7158Z" fill="#007144"/>
<path d="M320.451 77.7724C319.422 77.7636 318.395 77.7724 317.266 77.7724V76.2343C317.26 71.9599 317.275 67.6942 317.257 63.4285C317.248 61.1258 316.039 59.8543 313.712 59.7547C311.853 59.6814 306.071 59.7048 304.926 59.7048V55.9812C304.935 52.861 304.812 52.7409 301.676 52.7995C300.123 52.8317 299.623 53.3239 299.591 54.903C299.564 56.0984 299.514 57.2907 299.582 58.4773C299.591 58.6091 299.591 58.7292 299.582 58.8376C299.588 59.1453 299.588 59.4968 299.567 59.6961L298.694 59.7136C298.591 59.7224 298.473 59.7283 298.344 59.7224C296.326 59.6697 294.314 59.7283 292.302 59.74C291.305 59.7488 290.846 60.2761 290.766 61.2371C290.634 62.8924 291.137 63.5076 292.784 63.5896C293.328 63.6219 297.729 63.5984 299.641 63.5984C299.932 68.3915 299.858 72.8153 299.197 77.7724C298.502 77.7724 292.702 77.7197 290.225 77.8164C289.649 77.8398 288.675 78.3115 288.602 78.707C288.281 80.4854 288.366 81.7949 290.678 81.6221C291.875 81.5313 297.126 81.6045 298.852 81.6045C298.473 83.0225 298.249 84.1944 297.846 85.296C295.784 90.9064 292.346 95.5822 287.931 99.5871C287.204 100.246 286.595 100.929 287.266 101.966C287.996 103.091 288.91 103.352 290.152 102.734C290.772 102.423 291.393 102.074 291.919 101.638C297.711 96.7892 301.779 90.8653 303.615 83.5645H303.609L304.206 81.5869C304.206 81.5869 315.448 81.6104 320.489 81.6045C322.004 81.6045 322.469 81.1621 322.51 79.7353C322.554 78.2851 322.031 77.7842 320.448 77.7724M303.615 83.544C303.679 83.3125 303.729 83.0782 303.782 82.8408C303.847 82.5713 303.923 82.3486 304.023 82.1729C303.888 82.5918 303.72 83.1514 303.615 83.544ZM311.903 77.664H304.47C304.656 72.9911 304.838 68.3973 305.023 63.6453C306.935 63.6453 308.894 63.5633 310.839 63.7098C311.227 63.742 311.845 64.6209 311.859 65.1219C311.942 69.2645 311.903 73.413 311.903 77.664Z" fill="#007144"/>
<path d="M303.621 83.5435C303.724 83.1509 303.897 82.5913 304.029 82.1724C303.929 82.3481 303.853 82.5708 303.788 82.8462C303.736 83.0806 303.686 83.315 303.621 83.5464" fill="#007144"/>
<path d="M305.033 63.6421C304.848 68.4 304.666 72.9908 304.48 77.6608C304.948 72.8531 305.11 68.4791 305.033 63.6421Z" fill="#007144"/>
<path d="M343.623 94.2548C344.656 94.621 345.503 94.3485 345.938 93.3642C346.388 92.3475 346.786 91.3016 347.062 90.2235C348.359 85.1316 348.795 79.9226 348.974 74.7018C349.142 69.9791 349.147 65.2505 349.224 60.5249C349.247 59.1538 349.595 58.8286 350.924 58.7788C353.866 58.6528 361.663 58.2427 361.663 58.2427V58.4741C361.404 58.4975 361.234 58.5561 361.134 58.5737C359.992 58.9019 359.728 59.6431 359.725 60.8091C359.716 62.23 359.701 63.6568 359.751 65.0748C359.778 65.9097 359.531 66.2672 358.637 66.2174C357.428 66.1529 356.207 66.1441 355.001 66.2232C354.489 66.2584 353.989 66.3492 353.515 66.525C351.695 67.2105 350.986 68.5699 351.033 70.3219C351.233 78.0183 351.283 85.7 349.253 93.2294C348.927 94.4423 349.88 95.4325 351.104 95.1396C351.671 95.0048 352.292 94.3895 352.571 93.8358C354.221 90.5282 354.986 86.9539 355.189 83.2918C355.401 79.4245 355.383 75.5427 355.448 71.6608C355.483 69.5924 355.789 69.2877 357.91 69.2877H372.782C374.691 69.2877 374.735 69.3463 374.394 71.2653C374.267 71.9889 374.3 72.651 375.079 73.0348C375.876 73.4186 376.632 73.4919 377.344 72.862C378.465 71.8834 379.165 69.4664 378.685 68.2037C378.191 66.8824 376.959 66.2144 374.973 66.2086C371.838 66.2027 368.696 66.2086 365.566 66.2027C365.158 66.2027 364.752 66.1676 364.349 66.15V64.0728H365.664C368.531 64.0728 371.396 64.0787 374.264 64.0669C375.606 64.0611 376.117 63.648 376.159 62.5786C376.2 61.4419 375.67 60.9351 374.308 60.9234C371.67 60.9058 369.037 60.9175 366.405 60.9175H364.252C364.275 59.5728 363.91 58.6968 362.902 58.521C362.884 58.521 362.372 58.4712 362.372 58.4712V58.2456C362.372 58.2456 372.355 57.7036 375.397 57.4429C376.688 57.3286 377.276 56.7163 377.215 55.7876C377.1 54.0678 376.303 53.0073 375.017 53.06C373.908 53.1039 372.802 53.3588 371.691 53.4877C363.86 54.4252 356.03 55.351 348.197 56.2856C345.709 56.5786 344.576 57.8237 344.568 60.3257C344.553 64.0171 344.559 67.7086 344.576 71.403C344.612 78.4343 344.324 85.4451 342.718 92.3358C342.5 93.2704 342.668 93.9237 343.623 94.2636" fill="#007144"/>
<path d="M377.568 97.337C372.147 97.3722 366.72 97.4601 361.308 97.3107C356.296 97.17 351.275 96.8536 346.28 96.3907C344.092 96.1886 341.957 95.421 339.842 94.9229C340.462 93.7481 340.706 92.3829 340.806 91.1905C341.059 87.9824 341.192 84.7539 341.283 81.537C341.359 78.9677 340.074 77.6991 337.5 77.661C336.509 77.6376 335.515 77.6552 334.232 77.6552C335.45 76.161 336.547 75.0096 337.424 73.7088C338.806 71.6375 340.189 69.5428 341.286 67.3162C342.039 65.781 340.742 63.9997 339.048 63.9587C336.38 63.9001 333.706 63.9529 331.032 63.9353C329.967 63.9265 329.858 64.7058 329.817 65.4206C329.782 66.1619 329.935 66.9177 330.985 66.9177C332.035 66.9177 333.073 66.9177 334.118 66.9441C335.709 66.9763 336.115 67.4627 335.385 68.825C333.994 71.4324 332.441 73.952 330.944 76.5126C330.635 77.0399 330.229 77.5204 329.956 78.0653C329.17 79.662 330.106 81.1445 331.873 81.1562C332.762 81.165 333.653 81.1386 334.541 81.165C335.947 81.2089 336.418 81.6835 336.427 83.0605C336.441 84.8242 336.341 86.5996 336.45 88.3633C336.4 92.1455 335.556 94.2637 333.497 96.6046C332.565 97.6651 331.435 98.5675 330.356 99.4933C329.285 100.404 329.047 101.078 329.617 101.934C330.223 102.833 331.17 103.103 332.241 102.429C334.126 101.234 335.971 99.965 337.733 98.6027C338.486 98.0196 339.106 97.8585 339.936 98.2276C345.76 100.809 351.946 101.758 358.24 101.907C364.897 102.06 371.559 101.943 378.221 101.96C379.242 101.966 379.857 101.465 380.033 100.53C380.522 97.9112 379.833 97.3165 377.571 97.3311" fill="#007144"/>
<path d="M376.215 88.8115C376.097 89.2598 376.003 89.711 375.87 90.1533C375.412 91.6387 374.856 91.9756 373.314 91.8497C371.947 91.7325 371.882 90.6895 371.829 89.752C371.744 88.1816 371.788 86.6055 371.785 85.0263C371.779 82.958 371.023 82.3867 368.899 82.6738C367.708 82.832 367.205 83.3681 367.267 84.5664C367.331 85.6357 367.281 86.7139 367.281 87.7891C367.281 88.5244 367.273 89.251 367.281 89.9834C367.346 94.3429 368.649 95.6466 373.076 95.7696C378.115 95.9044 379.615 94.3575 379.288 89.333C379.282 89.2598 379.28 89.1807 379.274 89.1016C379.238 88.293 378.824 87.7891 378.009 87.7217C377.165 87.6484 376.468 87.8945 376.215 88.8145" fill="#007144"/>
<path d="M358.901 85.2018C358.719 86.5817 358.354 88.0173 357.701 89.2419C356.972 90.6042 355.772 91.7116 354.895 93.0154C354.56 93.5251 354.274 94.4509 354.516 94.8464C354.818 95.3211 355.695 95.6228 356.336 95.6551C356.883 95.6814 357.504 95.2976 358.019 94.9724C361.54 92.7078 363.334 89.4294 363.737 85.3131C363.922 83.4205 363.384 82.7672 361.457 82.7906C359.419 82.817 359.178 83.1774 358.901 85.2018Z" fill="#007144"/>
<path d="M336.186 61.1664C336.406 61.4242 336.862 61.6264 337.201 61.6176C338.407 61.5824 339.148 60.7885 339.68 59.8217C340.16 58.9457 339.839 58.1429 339.118 57.5599C337.542 56.2738 335.924 55.0316 334.297 53.804C334.039 53.6107 333.7 53.4876 333.227 53.3939C333.094 53.3675 332.968 53.3704 332.859 53.4378C332.447 53.6986 331.918 53.9388 331.712 54.3402C331.5 54.7562 331.562 55.5501 331.847 55.9193C333.224 57.7211 334.703 59.4496 336.183 61.1635" fill="#007144"/>
<path d="M365.293 72.2529L364.863 72.2793C364.922 72.2793 364.981 72.2734 365.037 72.2705C365.128 72.2646 365.21 72.2559 365.296 72.2529" fill="#007144"/>
<path d="M374.656 81.1677C375.568 81.1765 376.003 80.7429 376.141 79.905C376.432 78.194 375.9 77.57 374.106 77.5671C371.32 77.5524 368.532 77.5758 365.746 77.5495C364.255 77.5407 363.893 77.0895 364.055 75.443C364.984 75.3668 365.934 75.2702 366.89 75.2028C368.741 75.0592 370.594 74.9332 372.438 74.7838C373.232 74.7194 373.576 74.277 373.588 73.483C373.612 72.1529 373.267 71.7574 371.876 71.8307C369.679 71.9391 367.49 72.0973 365.305 72.2496H365.296C365.211 72.2555 365.123 72.2643 365.037 72.2672C364.978 72.273 364.923 72.276 364.864 72.276L363.902 72.3404L363.925 71.356C363.943 70.5064 363.331 70.1138 362.499 70.1197C361.919 70.1256 361.319 70.1197 360.778 70.1871C360.093 70.2867 359.657 70.9049 359.669 71.2711C359.669 71.3209 359.663 71.3707 359.663 71.4234L359.669 71.4176L359.643 72.6422C359.643 72.6422 358.493 72.733 357.866 72.7594C356.592 72.818 356.213 73.2164 356.248 74.3356C356.275 75.4547 356.71 75.8444 357.948 75.8649C358.41 75.8737 358.987 75.8502 359.607 75.8502C359.649 76.3688 359.554 76.7995 359.599 77.2126C359.849 79.486 361.552 81.112 363.855 81.1384C367.458 81.1882 371.055 81.1442 374.659 81.1647" fill="#007144"/>
<path d="M228.658 83.271C227.026 83.271 225.396 83.2534 223.77 83.2768C225.396 83.2534 227.029 83.271 228.658 83.271Z" fill="#007144"/>
<path d="M235.426 81.6016C235.42 81.7861 235.42 81.9678 235.432 82.1524C235.423 81.9678 235.423 81.7861 235.426 81.6016Z" fill="#007144"/>
<path d="M233.636 83.2768C231.977 83.2534 230.318 83.271 228.656 83.271C230.318 83.271 231.977 83.2534 233.636 83.2768Z" fill="#007144"/>
<path d="M261.259 69.2494C257.461 69.1996 253.667 69.2318 249.87 69.226C249.481 69.226 249.084 69.1908 248.611 69.1674C249.743 68.1478 250.799 67.3041 251.714 66.3226C252.62 65.3441 252.443 64.3773 251.346 63.5775C250.952 63.2845 250.508 63.0238 250.04 62.8421C248.872 62.3763 247.905 62.7249 247.316 63.8382C246.846 64.7171 246.46 65.6429 246.016 66.5365C245.537 67.4945 245.396 68.3676 246.755 69.1264H228.421C230.324 67.6556 230.409 66.9496 228.997 65.1683C228.668 64.7435 228.262 64.3744 227.924 63.9583C227.138 63.0091 226.212 63.0501 225.209 63.5247C224.194 63.9994 224.285 64.8783 224.488 65.7132C224.773 66.8558 225.173 67.9691 225.562 69.2201C225.153 69.2201 218.679 69.1791 215.814 69.2611C215.202 69.2758 214.29 69.5687 214.061 70.0141C213.275 71.5229 214.125 72.7504 215.814 72.8178C216.199 72.8354 216.587 72.8266 216.973 72.8266H255.429C257.441 72.8266 259.459 72.8588 261.47 72.809C263.132 72.7739 263.559 72.1908 263.415 70.5619C263.282 69.1117 262.159 69.2582 261.259 69.2435" fill="#007144"/>
<path d="M260.029 75.3585C256.685 75.1094 256.047 75.4112 256.047 78.174C256.041 84.0539 256.055 89.9309 256.038 95.8167C256.029 97.7708 255.394 98.4447 253.42 98.5619C252.499 98.6117 251.567 98.4974 250.643 98.4945C249.596 98.4945 248.84 98.8373 248.722 100.033C248.599 101.269 248.867 101.861 250.164 102.104C252.049 102.455 253.97 102.772 255.882 102.822C258.5 102.886 260.368 101.237 260.853 98.7054C261.021 97.8382 261.094 96.9505 261.103 96.0745C261.129 93.0716 261.121 87.0803 261.126 87.0803C261.126 83.7726 261.118 80.4679 261.132 77.1603C261.132 76.3253 260.991 75.4259 260.035 75.3585" fill="#007144"/>
<path d="M249.875 93.8857C249.881 89.1161 249.881 84.3523 249.881 79.5828C249.881 77.0515 249.269 76.5036 246.76 76.8112C245.192 77.0017 244.966 77.239 244.957 78.8708C244.942 81.408 244.939 91.6356 244.963 94.2079C244.971 95.705 245.266 95.9921 246.792 96.1122C247.104 96.1386 247.413 96.1562 247.716 96.1386C249.507 96.0361 249.878 95.6523 249.878 93.8857" fill="#007144"/>
<path d="M235.43 82.636C235.436 82.6184 235.436 82.5919 235.436 82.5625C235.436 82.586 235.436 82.6125 235.43 82.636Z" fill="#007144"/>
<path d="M234.65 83.2773H233.629C233.864 83.2832 234.553 83.2861 234.65 83.2773Z" fill="#007144"/>
<path d="M235.43 82.6353C235.436 82.6118 235.436 82.5855 235.436 82.562C235.444 82.4185 235.43 82.1753 235.43 82.1519V82.6353Z" fill="#007144"/>
<path d="M223.086 83.2861C223.312 83.2803 223.539 83.2803 223.762 83.2773C223.542 83.2832 223.312 83.2832 223.086 83.2861Z" fill="#007144"/>
<path d="M222.773 83.2773H222.779C222.879 83.2861 222.982 83.292 223.091 83.2861C223.318 83.2803 223.544 83.2803 223.771 83.2773H222.773Z" fill="#007144"/>
<path d="M235.43 81.4005C235.43 81.3355 235.436 81.2764 235.43 81.2173C235.436 81.2764 235.43 81.3355 235.43 81.4005Z" fill="#007144"/>
<path d="M235.43 81.4005C235.43 81.3355 235.436 81.2764 235.43 81.2173V81.4005Z" fill="#007144"/>
<path d="M235.395 80.4907C235.395 80.4907 235.401 80.5058 235.401 80.5148C235.401 80.5058 235.401 80.4967 235.395 80.4907Z" fill="#007144"/>
<path d="M235.32 80.0015C235.32 80.0015 235.326 80.0165 235.326 80.0256C235.326 80.0165 235.32 80.0105 235.32 80.0015Z" fill="#007144"/>
<path d="M233.645 78.9556C233.677 78.9556 233.713 78.9615 233.739 78.9615C233.713 78.9615 233.674 78.9556 233.645 78.9556Z" fill="#007144"/>
<path d="M235.418 80.7812C235.418 80.7812 235.424 80.7903 235.424 80.7993C235.424 80.7903 235.418 80.7843 235.418 80.7812Z" fill="#007144"/>
<path d="M233.094 78.9385C233.211 78.9385 233.328 78.9443 233.434 78.9443C233.331 78.9443 233.214 78.9385 233.094 78.9385Z" fill="#007144"/>
<path d="M235.25 79.8022C235.25 79.8022 235.256 79.8113 235.259 79.8203C235.253 79.8113 235.253 79.8053 235.25 79.8022Z" fill="#007144"/>
<path d="M234.953 79.3481C234.953 79.3481 234.959 79.3545 234.963 79.3577C234.956 79.3514 234.953 79.3513 234.953 79.3481Z" fill="#007144"/>
<path d="M234.227 79.0259C234.227 79.0259 234.244 79.0259 234.259 79.0317C234.244 79.0259 234.235 79.0259 234.227 79.0259Z" fill="#007144"/>
<path d="M234.812 79.2432C234.812 79.2432 234.821 79.2491 234.827 79.2491C234.821 79.2491 234.818 79.2432 234.812 79.2432Z" fill="#007144"/>
<path d="M234.645 79.1489C234.645 79.1489 234.66 79.1549 234.663 79.158C234.657 79.1519 234.648 79.1519 234.645 79.1489Z" fill="#007144"/>
<path d="M235.168 79.6265C235.168 79.6265 235.174 79.6355 235.177 79.6445C235.171 79.6355 235.171 79.6295 235.168 79.6265Z" fill="#007144"/>
<path d="M235.07 79.4771C235.07 79.4771 235.076 79.4859 235.079 79.4918C235.073 79.4859 235.07 79.483 235.07 79.4771Z" fill="#007144"/>
<path d="M233.957 78.9819C233.974 78.9877 233.992 78.9877 234.009 78.9877C233.992 78.9877 233.974 78.9877 233.957 78.9819Z" fill="#007144"/>
<path d="M234.449 79.0791C234.449 79.0791 234.464 79.0851 234.467 79.0851C234.461 79.0851 234.452 79.0851 234.449 79.0791Z" fill="#007144"/>
<path d="M221.736 81.1152C221.727 81.4492 221.73 81.8272 221.736 82.2695V81.1152Z" fill="#007144"/>
<path d="M240.382 78.9499C240.373 77.2067 239.309 76.07 237.597 75.7946C237.1 75.7126 236.597 75.6715 236.097 75.6686C231.14 75.6598 226.181 75.6598 221.225 75.6745C220.645 75.6745 220.066 75.7389 219.492 75.8415C218.325 76.0495 217.525 76.7497 217.198 77.8717C217.013 78.5221 216.948 79.2311 216.936 79.9108C216.792 86.9597 217.498 94.0555 215.595 100.999C215.36 101.866 215.789 102.467 216.674 102.751C217.951 103.152 219.048 102.777 219.548 101.339C220.228 99.3935 220.822 97.3925 221.142 95.3593C221.251 94.6415 221.31 94.3251 221.437 94.2225C221.487 94.1815 221.563 94.1639 221.648 94.1376C221.734 94.1141 221.834 94.1024 221.957 94.1024C226.366 94.0965 230.782 94.1024 235.376 94.1024C235.376 95.1981 235.452 96.1561 235.358 97.0995C235.223 98.4999 234.52 99.1679 233.111 99.2558C232.114 99.3232 231.102 99.2821 230.096 99.2411C229.273 99.206 228.89 99.6103 228.799 100.378C228.717 101.104 228.705 101.837 229.652 101.989C231.623 102.297 233.602 102.774 235.585 102.789C238.317 102.815 240.356 100.87 240.373 98.4413C240.418 91.9403 240.409 85.448 240.382 78.9528M221.734 81.1208V81.115C221.787 79.029 222.319 78.9352 225.322 78.9382C227.914 78.9382 230.502 78.9294 233.091 78.9382C233.214 78.9382 233.326 78.944 233.435 78.944C233.502 78.9499 233.57 78.9528 233.644 78.9587C233.67 78.9587 233.708 78.9587 233.738 78.9645C233.82 78.9704 233.888 78.9792 233.958 78.988C233.976 78.9938 233.994 78.9938 234.011 78.9938C234.085 79.0085 234.155 79.0173 234.22 79.029C234.229 79.0349 234.238 79.0348 234.246 79.0378C234.32 79.0524 234.388 79.07 234.447 79.0817C234.452 79.0876 234.461 79.0876 234.464 79.0876C234.529 79.111 234.588 79.1315 234.638 79.155C234.644 79.1608 234.652 79.1608 234.655 79.1638C234.708 79.1872 234.758 79.2165 234.805 79.2487C234.811 79.2487 234.814 79.2546 234.82 79.2546C234.864 79.281 234.911 79.319 234.952 79.3542C234.952 79.36 234.958 79.3601 234.961 79.363C234.997 79.3981 235.035 79.4391 235.07 79.4802C235.07 79.486 235.076 79.4889 235.079 79.4948C235.111 79.5358 235.144 79.5856 235.164 79.6354C235.17 79.6413 235.17 79.6442 235.173 79.6501C235.2 79.6999 235.223 79.7526 235.247 79.8112C235.252 79.8171 235.252 79.82 235.255 79.8288C235.279 79.8815 235.297 79.946 235.314 80.0104C235.314 80.0192 235.32 80.0251 235.32 80.028C235.338 80.0954 235.347 80.1687 235.361 80.236V80.2595C235.376 80.3357 235.385 80.4118 235.394 80.4997C235.394 80.5056 235.4 80.5144 235.4 80.5231C235.408 80.6052 235.414 80.6989 235.417 80.7898C235.417 80.7956 235.423 80.7985 235.423 80.8073C235.429 80.9069 235.432 81.0095 235.432 81.1237V81.156C235.432 81.1794 235.432 81.1999 235.438 81.2292C235.438 81.2878 235.432 81.3464 235.432 81.4109V82.1638C235.438 82.196 235.438 82.2312 235.438 82.2663C235.447 82.3308 235.447 82.3923 235.447 82.4509V82.4831C235.447 82.5417 235.441 82.5974 235.432 82.6501V83.2859H234.652C234.602 83.2917 234.558 83.2947 234.508 83.2947H234.502C234.449 83.3005 234.399 83.3005 234.341 83.2947C234.105 83.2888 233.87 83.2888 233.638 83.2859H223.766C223.54 83.2917 223.313 83.2917 223.087 83.2947C222.972 83.3005 222.875 83.2947 222.775 83.2859H221.737V82.2839C221.731 81.8415 221.728 81.4636 221.737 81.1296M235.444 90.6571H221.737V86.614H235.444V90.6571Z" fill="#007144"/>
<path d="M235.43 82.6366C235.439 82.5834 235.444 82.5332 235.444 82.4741C235.444 82.5066 235.438 82.5391 235.436 82.5657C235.436 82.5923 235.436 82.6189 235.43 82.6396" fill="#007144"/>
<path d="M234.828 79.2461C234.872 79.2784 234.919 79.3136 234.955 79.3459C234.919 79.3136 234.872 79.2784 234.828 79.2461Z" fill="#007144"/>
<path d="M234.66 79.1577C234.713 79.1814 234.761 79.2109 234.811 79.2434C234.761 79.2109 234.716 79.1784 234.66 79.1577Z" fill="#007144"/>
<path d="M234.504 83.2861C234.554 83.2861 234.598 83.2803 234.648 83.2773C234.598 83.2832 234.554 83.2861 234.504 83.2861Z" fill="#007144"/>
<path d="M233.095 78.938C230.507 78.9292 227.916 78.938 225.324 78.938C227.916 78.938 230.507 78.9292 233.095 78.938Z" fill="#007144"/>
<path d="M234.961 79.3569C235.002 79.3921 235.038 79.4332 235.07 79.4743C235.038 79.4332 235.002 79.3921 234.961 79.3569Z" fill="#007144"/>
<path d="M234.258 79.0317C234.326 79.0465 234.391 79.0642 234.454 79.082C234.388 79.0642 234.326 79.0465 234.258 79.0317Z" fill="#007144"/>
<path d="M233.434 78.9443C233.508 78.9502 233.57 78.9532 233.644 78.9591C233.57 78.9532 233.508 78.9502 233.434 78.9443Z" fill="#007144"/>
<path d="M235.078 79.4888C235.11 79.5298 235.142 79.5797 235.169 79.6237C235.142 79.5797 235.11 79.5298 235.078 79.4888Z" fill="#007144"/>
<path d="M234.016 78.9878C234.093 79.0026 234.161 79.0114 234.229 79.0292C234.161 79.0114 234.093 79.0026 234.016 78.9878Z" fill="#007144"/>
<path d="M233.738 78.9614C233.821 78.9673 233.889 78.9762 233.96 78.985C233.886 78.9762 233.818 78.9673 233.738 78.9614Z" fill="#007144"/>
<path d="M234.469 79.085C234.534 79.1086 234.587 79.1293 234.644 79.1529C234.59 79.1293 234.534 79.1086 234.469 79.085Z" fill="#007144"/>
<path d="M235.422 80.7983C235.428 80.8921 235.431 81.0005 235.431 81.1089C235.431 81.0005 235.425 80.8921 235.422 80.7983Z" fill="#007144"/>
<path d="M235.398 80.5112C235.407 80.5969 235.413 80.6885 235.416 80.783C235.41 80.6885 235.407 80.5969 235.398 80.5112Z" fill="#007144"/>
<path d="M233.637 83.2773C233.872 83.2832 234.107 83.2832 234.34 83.2861C234.107 83.2803 233.872 83.2803 233.637 83.2773Z" fill="#007144"/>
<path d="M223.088 83.2861C222.98 83.292 222.877 83.2861 222.777 83.2773C222.871 83.2861 222.977 83.292 223.088 83.2861Z" fill="#007144"/>
<path d="M235.32 80.022C235.338 80.0899 235.353 80.1579 235.364 80.2317C235.35 80.1579 235.338 80.0899 235.32 80.022Z" fill="#007144"/>
<path d="M235.438 82.2549C235.446 82.3228 235.446 82.3819 235.446 82.441C235.446 82.3819 235.446 82.3228 235.438 82.2549Z" fill="#007144"/>
<path d="M234.503 83.2861C234.45 83.292 234.399 83.292 234.34 83.2861C234.399 83.292 234.45 83.292 234.503 83.2861Z" fill="#007144"/>
<path d="M235.367 80.251C235.382 80.3278 235.391 80.4046 235.4 80.4932C235.391 80.4076 235.382 80.3307 235.367 80.251Z" fill="#007144"/>
<path d="M235.258 79.8198C235.281 79.8789 235.299 79.938 235.317 80.003C235.299 79.938 235.281 79.8789 235.258 79.8198Z" fill="#007144"/>
<path d="M235.18 79.644C235.206 79.6943 235.23 79.7445 235.253 79.8036C235.23 79.7445 235.209 79.6943 235.18 79.644Z" fill="#007144"/>
<path d="M233.637 83.2773C233.872 83.2832 234.107 83.2832 234.34 83.2861C234.399 83.292 234.454 83.292 234.501 83.2861H234.507C234.557 83.2861 234.607 83.2803 234.657 83.2773C234.557 83.2861 233.872 83.2832 233.637 83.2773Z" fill="#007144"/>
<path d="M235.432 82.2546C235.432 82.2193 235.432 82.1812 235.426 82.1548C235.432 82.1812 235.432 82.2193 235.432 82.2546Z" fill="#007144"/>
<path d="M235.432 82.565C235.437 82.5327 235.44 82.5005 235.44 82.4712V82.439C235.44 82.3804 235.44 82.3159 235.432 82.2544C235.432 82.2192 235.432 82.1812 235.426 82.1519C235.426 82.1782 235.44 82.4214 235.432 82.5679" fill="#007144"/>
<path d="M228.658 83.271C227.026 83.271 225.396 83.2534 223.77 83.2768H233.641C231.979 83.2534 230.32 83.271 228.661 83.271" fill="#007144"/>
<path d="M235.426 81.6016C235.42 81.7861 235.42 81.9678 235.432 82.1524V81.3994C235.432 81.4668 235.432 81.5313 235.426 81.6016Z" fill="#007144"/>
<path d="M235.432 81.3994C235.432 81.4674 235.432 81.5324 235.426 81.6033C235.432 81.5294 235.432 81.4674 235.432 81.3994Z" fill="#007144"/>
<path d="M260.93 55.395C256.889 55.3892 247.385 55.3775 247.385 55.3775C247.461 55.2456 247.476 55.2046 247.458 55.061C247.453 55.0083 247.432 54.9263 247.423 54.9028C247.094 53.7163 246.132 53.3179 245.144 52.9721C243.702 52.4624 243.146 52.77 242.487 54.1059C241.32 56.479 240.096 58.8375 238.861 61.1783C238.434 61.9869 237.94 62.7721 238.752 63.5807C239.449 64.2809 240.437 64.2984 241.358 63.4225C242.634 62.2096 243.749 60.8238 244.97 59.5406C245.261 59.23 245.664 58.8228 246.026 58.8052C247.661 58.732 249.312 58.7642 251.141 58.7701H251.759V58.8462C251.759 58.8462 251.523 58.8287 251.409 58.94C250.153 60.3082 250.135 60.5689 251.097 62.0396C251.432 62.5553 251.803 63.0475 252.179 63.5367C252.718 64.2311 253.362 64.8785 254.324 64.5328C255.462 64.1344 256.371 63.3492 256.639 62.1451C256.859 61.149 256 60.6568 255.297 60.1822C254.677 59.7662 253.244 58.9107 253.244 58.9107V58.7847H255.047C255.497 58.7671 255.941 58.7671 256.383 58.7671C257.933 58.7613 259.483 58.7906 261.027 58.7408C261.942 58.7085 262.671 58.4214 262.698 57.27C262.73 55.8023 262.407 55.4009 260.927 55.3979" fill="#007144"/>
<path d="M236.629 55.3952C233.003 55.3893 224.331 55.3776 224.331 55.3776C224.431 55.2165 224.423 55.026 224.376 54.8532C223.864 53.4762 222.714 53.0661 221.449 52.8141C220.602 52.6471 219.931 52.9313 219.59 53.7985C218.44 56.6813 216.722 59.2273 214.769 61.6296C214.181 62.3562 213.778 63.159 214.61 63.9851C215.416 64.7937 216.272 64.5213 216.993 63.8943C218.604 62.4734 220.175 60.991 221.769 59.5466C222.069 59.2712 222.39 58.8288 222.722 58.8112C224.308 58.738 227.985 58.7761 227.985 58.7761V58.8903C227.985 58.8903 227.673 58.8815 227.514 59.0808C226.476 60.3933 226.49 60.7243 227.523 62.2126C227.923 62.781 228.338 63.3406 228.796 63.8562C229.802 64.9842 230.944 64.8728 232.156 63.5662C233.32 62.2976 233.32 61.3894 232.061 60.4782C231.3 59.9245 230.367 59.3943 229.555 58.9021C229.57 58.8288 229.555 58.8581 229.564 58.779C230.002 58.779 235.171 58.7146 237.259 58.6706C237.947 58.653 238.368 58.3366 238.491 57.569C238.75 55.943 238.324 55.3923 236.632 55.3923" fill="#007144"/>
<path d="M191.883 129.971L195.183 125.178L192.406 120.912C192.148 120.496 191.953 120.145 191.821 119.846C191.689 119.547 191.621 119.263 191.621 118.987C191.621 118.712 191.753 118.454 191.997 118.234C192.25 118.015 192.559 117.895 192.921 117.895C193.333 117.895 193.659 118.021 193.886 118.261C194.121 118.51 194.439 118.961 194.848 119.62L197.063 123.186L199.425 119.62C199.616 119.321 199.783 119.066 199.919 118.85C200.06 118.639 200.189 118.463 200.319 118.322C200.445 118.182 200.589 118.073 200.745 118.006C200.904 117.938 201.087 117.897 201.292 117.897C201.669 117.897 201.978 118.015 202.213 118.237C202.448 118.457 202.566 118.73 202.566 119.031C202.566 119.482 202.313 120.089 201.801 120.851L198.892 125.178L202.013 129.971C202.298 130.396 202.501 130.741 202.631 131.017C202.757 131.292 202.822 131.559 202.822 131.802C202.822 132.045 202.763 132.25 202.648 132.444C202.54 132.637 202.372 132.792 202.172 132.903C201.963 133.018 201.728 133.07 201.466 133.07C201.184 133.07 200.945 133.018 200.751 132.895C200.557 132.78 200.401 132.637 200.283 132.467C200.157 132.291 199.933 131.951 199.604 131.45L197.013 127.387L194.257 131.57C194.048 131.904 193.889 132.136 193.804 132.274C193.712 132.405 193.604 132.531 193.477 132.66C193.345 132.786 193.195 132.886 193.024 132.959C192.851 133.035 192.645 133.068 192.406 133.068C192.048 133.068 191.75 132.959 191.509 132.739C191.268 132.52 191.156 132.203 191.156 131.778C191.156 131.286 191.4 130.683 191.886 129.968" fill="#007144"/>
<path d="M211.757 128.702H208.586C208.101 128.702 207.733 128.594 207.486 128.368C207.233 128.143 207.109 127.858 207.109 127.498C207.109 127.138 207.227 126.848 207.477 126.628C207.718 126.402 208.083 126.294 208.586 126.294H211.757C212.251 126.294 212.622 126.402 212.866 126.628C213.11 126.848 213.233 127.144 213.233 127.498C213.233 127.853 213.116 128.143 212.872 128.368C212.63 128.594 212.26 128.702 211.757 128.702Z" fill="#007144"/>
<path d="M220.519 118.152H224.411C225.417 118.152 226.287 118.246 227.011 118.434C227.731 118.618 228.387 118.97 228.979 119.48C230.514 120.789 231.282 122.778 231.282 125.45C231.282 126.329 231.208 127.135 231.049 127.861C230.896 128.588 230.655 129.247 230.338 129.824C230.017 130.41 229.602 130.935 229.099 131.395C228.705 131.746 228.27 132.03 227.802 132.247C227.331 132.455 226.828 132.608 226.287 132.695C225.749 132.786 225.14 132.821 224.461 132.821H220.572C220.034 132.821 219.619 132.745 219.342 132.581C219.072 132.42 218.892 132.183 218.807 131.887C218.725 131.594 218.684 131.204 218.684 130.735V119.975C218.684 119.33 218.825 118.87 219.113 118.58C219.398 118.296 219.866 118.152 220.51 118.152M221.666 120.505V130.466H223.928C224.422 130.466 224.811 130.451 225.093 130.422C225.375 130.396 225.669 130.331 225.967 130.223C226.27 130.12 226.528 129.971 226.752 129.775C227.752 128.931 228.246 127.486 228.246 125.427C228.246 123.982 228.028 122.896 227.593 122.172C227.149 121.454 226.611 120.994 225.967 120.795C225.328 120.596 224.549 120.502 223.637 120.502H221.666V120.505Z" fill="#007144"/>
<path d="M247.09 120.443H240.368V124.05H246.56C247.013 124.05 247.357 124.149 247.581 124.352C247.801 124.554 247.922 124.826 247.922 125.16C247.922 125.494 247.807 125.764 247.587 125.978C247.369 126.186 247.019 126.294 246.563 126.294H240.371V130.469H247.328C247.795 130.469 248.148 130.571 248.384 130.788C248.625 131.008 248.743 131.295 248.743 131.655C248.743 132.016 248.625 132.282 248.384 132.505C248.148 132.722 247.795 132.824 247.328 132.824H239.215C238.562 132.824 238.101 132.684 237.809 132.397C237.527 132.112 237.383 131.644 237.383 131.005V119.975C237.383 119.55 237.448 119.204 237.574 118.929C237.7 118.659 237.903 118.463 238.171 118.337C238.442 118.214 238.792 118.152 239.212 118.152H247.09C247.566 118.152 247.922 118.261 248.151 118.472C248.384 118.68 248.501 118.955 248.501 119.292C248.501 119.629 248.384 119.919 248.151 120.133C247.925 120.344 247.566 120.443 247.09 120.443Z" fill="#007144"/>
<path d="M257.517 119.702V130.381H263.567C264.047 130.381 264.414 130.504 264.676 130.733C264.935 130.967 265.062 131.266 265.062 131.617C265.062 131.969 264.935 132.268 264.682 132.487C264.423 132.713 264.053 132.821 263.567 132.821H256.361C255.714 132.821 255.24 132.681 254.961 132.397C254.669 132.107 254.531 131.644 254.531 131.002V119.699C254.531 119.099 254.667 118.653 254.94 118.349C255.208 118.05 255.567 117.897 256.011 117.897C256.455 117.897 256.826 118.047 257.099 118.346C257.381 118.645 257.52 119.096 257.52 119.699" fill="#007144"/>
<path d="M270.62 131.263V119.699C270.62 119.105 270.755 118.653 271.032 118.354C271.303 118.053 271.661 117.897 272.097 117.897C272.532 117.897 272.911 118.047 273.185 118.349C273.467 118.642 273.606 119.099 273.606 119.699V131.263C273.606 131.872 273.464 132.323 273.185 132.625C272.914 132.924 272.547 133.073 272.097 133.073C271.647 133.073 271.311 132.924 271.035 132.622C270.758 132.315 270.617 131.869 270.617 131.263" fill="#007144"/>
<path d="M282.602 119.852L285.937 129.695L289.29 119.778C289.464 119.26 289.59 118.899 289.679 118.694C289.764 118.492 289.905 118.308 290.108 118.144C290.308 117.982 290.585 117.895 290.932 117.895C291.185 117.895 291.42 117.962 291.638 118.088C291.855 118.22 292.026 118.387 292.149 118.595C292.276 118.806 292.335 119.014 292.335 119.23C292.335 119.38 292.317 119.538 292.276 119.705C292.235 119.878 292.185 120.045 292.126 120.206C292.067 120.367 292.002 120.534 291.944 120.713L288.373 130.299C288.246 130.665 288.123 131.023 287.993 131.351C287.867 131.679 287.723 131.969 287.555 132.218C287.387 132.47 287.167 132.675 286.884 132.836C286.608 132.994 286.267 133.076 285.864 133.076C285.461 133.076 285.125 132.994 284.843 132.842C284.566 132.684 284.34 132.476 284.172 132.218C283.999 131.966 283.846 131.673 283.722 131.342C283.596 131.017 283.463 130.665 283.337 130.299L279.834 120.792C279.769 120.619 279.707 120.449 279.648 120.282C279.581 120.115 279.525 119.934 279.481 119.74C279.445 119.55 279.422 119.383 279.422 119.248C279.422 118.908 279.557 118.604 279.834 118.319C280.104 118.038 280.451 117.895 280.866 117.895C281.375 117.895 281.737 118.056 281.946 118.363C282.154 118.674 282.372 119.172 282.593 119.849" fill="#007144"/>
<path d="M307.771 120.443H301.05V124.05H307.242C307.695 124.05 308.036 124.149 308.257 124.352C308.483 124.554 308.598 124.826 308.598 125.16C308.598 125.494 308.483 125.764 308.262 125.978C308.045 126.186 307.701 126.294 307.242 126.294H301.05V130.469H308.001C308.468 130.469 308.821 130.571 309.062 130.788C309.304 131.008 309.421 131.295 309.421 131.655C309.421 132.016 309.304 132.282 309.062 132.505C308.821 132.722 308.468 132.824 308.001 132.824H299.894C299.241 132.824 298.773 132.684 298.488 132.397C298.206 132.112 298.059 131.644 298.059 131.005V119.975C298.059 119.55 298.126 119.204 298.253 118.929C298.379 118.659 298.579 118.463 298.85 118.337C299.12 118.214 299.468 118.152 299.891 118.152H307.768C308.245 118.152 308.598 118.261 308.83 118.472C309.062 118.68 309.18 118.955 309.18 119.292C309.18 119.629 309.062 119.919 308.83 120.133C308.598 120.344 308.245 120.443 307.768 120.443" fill="#007144"/>
<path d="M319.279 126.546H318.232V131.263C318.232 131.887 318.09 132.341 317.82 132.634C317.543 132.927 317.184 133.076 316.74 133.076C316.27 133.076 315.902 132.918 315.634 132.616C315.376 132.309 315.246 131.858 315.246 131.263V119.975C315.246 119.333 315.39 118.87 315.681 118.583C315.973 118.293 316.434 118.149 317.079 118.149H321.932C322.603 118.149 323.173 118.182 323.65 118.234C324.126 118.293 324.556 118.41 324.938 118.583C325.406 118.776 325.809 119.052 326.168 119.409C326.521 119.77 326.788 120.191 326.974 120.663C327.159 121.147 327.256 121.648 327.256 122.181C327.256 123.282 326.938 124.152 326.324 124.809C325.703 125.462 324.765 125.928 323.506 126.2C324.035 126.484 324.538 126.895 325.023 127.442C325.503 127.993 325.938 128.57 326.315 129.189C326.694 129.807 326.985 130.366 327.197 130.859C327.409 131.36 327.515 131.702 327.515 131.887C327.515 132.071 327.45 132.271 327.324 132.464C327.2 132.654 327.032 132.804 326.821 132.912C326.603 133.027 326.359 133.079 326.076 133.079C325.741 133.079 325.459 132.997 325.232 132.845C325.006 132.687 324.806 132.487 324.644 132.25C324.482 132.007 324.259 131.655 323.973 131.19L322.782 129.203C322.353 128.477 321.967 127.926 321.632 127.542C321.288 127.164 320.947 126.9 320.599 126.76C320.249 126.625 319.811 126.549 319.285 126.549M320.994 120.388H318.238V124.422H320.905C321.626 124.422 322.229 124.358 322.717 124.237C323.206 124.111 323.579 123.898 323.841 123.605C324.1 123.306 324.226 122.901 324.226 122.377C324.226 121.97 324.117 121.609 323.914 121.299C323.706 120.991 323.417 120.763 323.05 120.607C322.7 120.464 322.017 120.388 320.994 120.388Z" fill="#007144"/>
<path d="M336.05 131.263V126.61L332.453 121.053C332.141 120.552 331.914 120.162 331.788 119.884C331.653 119.603 331.594 119.356 331.594 119.148C331.594 118.809 331.72 118.521 331.988 118.272C332.25 118.023 332.576 117.897 332.967 117.897C333.359 117.897 333.688 118.015 333.897 118.246C334.109 118.478 334.426 118.938 334.844 119.623L337.603 124.079L340.386 119.623C340.553 119.348 340.689 119.122 340.806 118.938C340.921 118.747 341.047 118.568 341.183 118.404C341.318 118.243 341.474 118.12 341.642 118.029C341.815 117.944 342.012 117.897 342.253 117.897C342.63 117.897 342.948 118.021 343.192 118.264C343.445 118.513 343.571 118.791 343.571 119.113C343.571 119.371 343.507 119.632 343.377 119.89C343.254 120.15 343.033 120.514 342.73 120.977L339.041 126.61V131.263C339.041 131.872 338.9 132.323 338.615 132.625C338.338 132.924 337.977 133.073 337.541 133.073C337.106 133.073 336.738 132.93 336.468 132.631C336.191 132.332 336.056 131.881 336.056 131.263" fill="#007144"/>
</svg>
