<svg width="45" height="39" viewBox="0 0 45 39" fill="none" xmlns="http://www.w3.org/2000/svg">
<path d="M44.25 4.375C39.6667 7.625 36.2917 10.75 34.125 13.75C31.9583 16.6667 30.875 19.5 30.875 22.25C30.875 23.0833 31.2083 23.5 31.875 23.5L34.625 23.25C37.2083 23.25 39.2917 23.9583 40.875 25.375C42.4583 26.7083 43.25 28.5417 43.25 30.875C43.25 33.2083 42.4167 35.125 40.75 36.625C39.1667 38.125 37.1667 38.875 34.75 38.875C31.5833 38.875 29 37.75 27 35.5C25 33.1667 24 30 24 26C24 21.3333 25.375 16.9583 28.125 12.875C30.9583 8.70833 35.2917 4.625 41.125 0.625L44.25 4.375ZM20.25 4.375C16.25 6.875 13 9.79167 10.5 13.125C8 16.4583 6.75 19.5 6.75 22.25C6.75 23.0833 7.08333 23.5 7.75 23.5L10.375 23.25C13.0417 23.25 15.1667 23.9583 16.75 25.375C18.3333 26.7083 19.125 28.5417 19.125 30.875C19.125 33.2083 18.2917 35.125 16.625 36.625C15.0417 38.125 13.0417 38.875 10.625 38.875C7.45833 38.875 4.875 37.75 2.875 35.5C0.958333 33.1667 0 30 0 26C0 21.3333 1.375 16.9583 4.125 12.875C6.875 8.70833 11.1667 4.625 17 0.625L20.25 4.375Z" fill="#D9D9D9"/>
</svg>
