<?xml version="1.0" encoding="utf-8"?>
<!-- Generator: Adobe Illustrator 24.0.3, SVG Export Plug-In . SVG Version: 6.00 Build 0)  -->
<svg version="1.1" id="圖層_1" xmlns="http://www.w3.org/2000/svg" xmlns:xlink="http://www.w3.org/1999/xlink" x="0px" y="0px"
	 viewBox="0 0 10 15" style="enable-background:new 0 0 10 15;" xml:space="preserve">
<style type="text/css">
	.st0{fill:none;stroke:#FFFFFF;stroke-width:2;stroke-linecap:round;}
</style>
<path class="st0" d="M7.6,16c-0.2,0-0.4,0-0.6-0.1c-0.2-0.1-0.3-0.2-0.4-0.3L0.4,8.7C0.2,8.5,0.1,8.3,0.1,8c0-0.3,0.1-0.5,0.3-0.7
	l6.4-6.9C7,0.2,7.3,0,7.7,0C8,0,8.3,0.1,8.6,0.3C8.9,0.5,9,0.7,9.1,1c0,0.3-0.1,0.6-0.3,0.8L3,8l5.6,6.1c0.2,0.2,0.3,0.4,0.3,0.6
	c0,0.2,0,0.4-0.1,0.6c-0.1,0.2-0.3,0.4-0.5,0.5C8.1,15.9,7.8,16,7.6,16z"/>
</svg>
