<svg width="31" height="26" viewBox="0 0 31 26" fill="none" xmlns="http://www.w3.org/2000/svg">
<path d="M30.3629 3.04129C29.3959 3.48225 28.3214 3.74972 27.2756 3.93044C27.7698 3.8437 28.5005 2.94008 28.7942 2.57141C29.2383 2.01478 29.6108 1.37864 29.8185 0.684661C29.8471 0.634058 29.8615 0.561769 29.8113 0.525624C29.7469 0.496709 29.7039 0.511167 29.6466 0.540083C28.479 1.169 27.2756 1.63165 25.9934 1.94972C25.8859 1.97864 25.8071 1.94972 25.7426 1.88466C25.6352 1.76177 25.5349 1.64611 25.4203 1.55213C24.8831 1.08948 24.3028 0.728034 23.651 0.453335C22.7914 0.0991182 21.8602 -0.0454599 20.9361 0.0123714C20.0407 0.0702028 19.1525 0.323215 18.3574 0.749721C17.5551 1.169 16.846 1.75454 16.2801 2.46297C15.6927 3.19309 15.2629 4.06056 15.0408 4.97141C14.8259 5.85333 14.8474 6.72803 14.9764 7.62442C14.9979 7.769 14.9835 7.79068 14.8474 7.769C9.82605 7.01719 5.66424 5.20273 2.28322 1.31358C2.13995 1.14731 2.05399 1.14731 1.93938 1.32803C0.463767 3.56177 1.18009 7.16177 3.02819 8.92562C3.27174 9.16418 3.52961 9.3955 3.80182 9.61237C3.70153 9.63406 2.46946 9.49671 1.38066 8.92562C1.23739 8.83165 1.1586 8.88225 1.14427 9.05574C1.12994 9.2943 1.15144 9.51839 1.18725 9.77864C1.47378 12.0485 3.02819 14.1449 5.15566 14.9618C5.40637 15.0702 5.68573 15.1642 5.95793 15.2076C5.47083 15.316 4.96941 15.3883 3.57975 15.2798C3.40784 15.2437 3.34337 15.3304 3.40784 15.5039C4.45366 18.381 6.71007 19.2413 8.40058 19.7256C8.6298 19.769 8.85186 19.769 9.08108 19.8196C9.06675 19.8413 9.05243 19.8413 9.0381 19.863C8.47937 20.7232 6.53098 21.3666 5.62842 21.6847C3.98089 22.263 2.1901 22.5304 0.449445 22.3569C0.170081 22.3136 0.112774 22.3208 0.0339791 22.3569C-0.0448159 22.4076 0.0268164 22.4726 0.112775 22.5449C0.463771 22.7835 0.829089 22.9859 1.19441 23.1883C2.29754 23.781 3.45082 24.2509 4.66139 24.5835C10.8862 26.3184 17.899 25.0461 22.5765 20.3545C26.2441 16.675 27.5334 11.6003 27.5334 6.5184C27.5334 6.31599 27.7698 6.20755 27.9059 6.10635C28.8586 5.38345 29.6322 4.51599 30.3414 3.54731C30.499 3.33044 30.5062 3.13526 30.5062 3.05574C30.5062 3.04129 30.5062 3.02683 30.5062 3.02683C30.4918 2.96177 30.4847 2.98346 30.3629 3.04129Z" fill="white"/>
</svg>
