<?xml version="1.0" encoding="utf-8"?>
<!-- Generator: Adobe Illustrator 24.0.3, SVG Export Plug-In . SVG Version: 6.00 Build 0)  -->
<svg version="1.1" id="圖層_1" xmlns="http://www.w3.org/2000/svg" xmlns:xlink="http://www.w3.org/1999/xlink" x="0px" y="0px"
	 viewBox="0 0 21 21.1" style="enable-background:new 0 0 21 21.1;" xml:space="preserve">
<g>
	<path d="M0.3,7h4.4v14.1H0.3V7z M2.5,0C3.9,0,5,1.1,5,2.5c0,1.4-1.1,2.5-2.5,2.5C1.1,5.1,0,4,0,2.5C0,1.1,1.1,0,2.5,0z"/>
	<path d="M7.4,7h4.2v1.9h0.1c0.6-1.1,2-2.3,4.1-2.3c4.4,0,5.2,2.9,5.2,6.7v7.7h-4.3v-6.9c0-1.6,0-3.7-2.3-3.7
		c-2.3,0-2.6,1.8-2.6,3.6v7H7.4V7L7.4,7z"/>
</g>
</svg>
