<svg width="46" height="46" viewBox="0 0 46 46" fill="none" xmlns="http://www.w3.org/2000/svg">
<circle cx="23" cy="23" r="23" fill="#8E7865"/>
<path d="M31.4024 31.4294C30.6185 31.4294 29.9776 30.778 29.9776 29.9701C29.9776 29.1673 30.6136 28.5109 31.4024 28.5109C33.0096 28.5109 34.316 27.1728 34.316 25.5268C34.316 24.5977 33.9019 23.7343 33.1772 23.1637C32.7285 22.8103 32.5264 22.2195 32.6645 21.659C32.7532 21.2955 32.7976 20.9572 32.7976 20.629C32.7976 18.3114 30.9538 16.4229 28.6909 16.4229C27.9909 16.4229 27.2958 16.6098 26.6845 16.9632C26.0633 17.3217 25.2794 17.1551 24.8505 16.5744C23.5983 14.8829 21.6954 13.9134 19.6248 13.9134C16.0111 13.9134 13.068 16.9279 13.068 20.629C13.068 20.8713 13.0828 21.144 13.1173 21.452C13.1814 22.0428 12.8905 22.6133 12.3778 22.8961C11.4362 23.4162 10.8495 24.426 10.8495 25.5217C10.8495 27.1678 12.1559 28.5059 13.7631 28.5059C14.5519 28.5059 15.1878 29.1572 15.1878 29.9651C15.1878 30.7679 14.5519 31.4243 13.7631 31.4243C10.5833 31.4294 8 28.7836 8 25.5318C8 23.6939 8.83316 21.9822 10.2185 20.8764C10.2185 20.7956 10.2135 20.7148 10.2135 20.634C10.2135 15.3222 14.4336 11 19.6199 11C22.2031 11 24.604 12.0503 26.3689 13.9235C27.1134 13.6559 27.8972 13.5145 28.6909 13.5145C32.5264 13.5145 35.6421 16.7107 35.6421 20.634C35.6421 20.9168 35.6224 21.1995 35.5879 21.4823C36.5985 22.5679 37.1606 24.0019 37.1606 25.5318C37.1655 28.7836 34.5773 31.4294 31.4024 31.4294Z" fill="white"/>
<path d="M27.8824 29.5864C27.7246 29.2229 27.3697 28.9856 26.9802 28.9856H24.0617V23.4667C24.0617 22.6285 23.4011 21.9519 22.5827 21.9519C21.7643 21.9519 21.1037 22.6285 21.1037 23.4667V28.9805H18.1852C17.7957 28.9805 17.4408 29.2178 17.283 29.5814C17.1253 29.9449 17.1894 30.3741 17.4507 30.672L21.8482 35.6607C22.0355 35.8728 22.3017 35.994 22.5827 35.994C22.8637 35.994 23.1299 35.8728 23.3173 35.6607L27.7148 30.672C27.9711 30.3792 28.0401 29.95 27.8824 29.5864Z" fill="white"/>
</svg>
