<svg width="29" height="29" viewBox="0 0 29 29" fill="none" xmlns="http://www.w3.org/2000/svg">
<path d="M0.461539 9.35647H6.2754V28.192H0.461539V9.35647ZM3.36847 0C5.22275 0 6.72884 1.51991 6.72884 3.39121C6.72884 5.2625 5.22275 6.79059 3.36847 6.79059C1.5061 6.79059 0 5.27068 0 3.39121C0 1.51991 1.5061 0 3.36847 0Z" fill="white"/>
<path d="M9.91797 9.35656H15.4808V11.9306H15.5537C16.331 10.4516 18.2258 8.89078 21.0517 8.89078C26.9223 8.89078 28.0073 12.7886 28.0073 17.8632V28.1921H22.2096V19.0399C22.2096 16.8499 22.1692 14.0471 19.1975 14.0471C16.1772 14.0471 15.7156 16.425 15.7156 18.8846V28.2002H9.91797V9.35656Z" fill="white"/>
</svg>
