<svg width="35" height="31" viewBox="0 0 35 31" fill="none" xmlns="http://www.w3.org/2000/svg">
<g clip-path="url(#clip0_2965_10906)">
<path d="M28.084 25.0163C27.1433 25.0163 26.3742 24.2346 26.3742 23.2651C26.3742 22.3017 27.1374 21.5139 28.084 21.5139C30.0127 21.5139 31.5805 19.9082 31.5805 17.9328C31.5805 16.8179 31.0835 15.7818 30.2138 15.0971C29.6755 14.6729 29.4329 13.9639 29.5985 13.2914C29.705 12.8551 29.7583 12.4491 29.7583 12.0552C29.7583 9.27399 27.5456 7.00778 24.8301 7.00778C23.99 7.00778 23.1558 7.23197 22.4222 7.65613C21.6768 8.08635 20.7361 7.88639 20.2214 7.18956C18.7187 5.15967 16.4351 3.99626 13.9503 3.99626C9.61376 3.99626 6.08181 7.61372 6.08181 12.0552C6.08181 12.3461 6.09956 12.6733 6.14097 13.0429C6.21788 13.7519 5.86883 14.4366 5.25355 14.7759C4.12356 15.4 3.41954 16.6119 3.41954 17.9268C3.41954 19.9021 4.98732 21.5079 6.91599 21.5079C7.86258 21.5079 8.62576 22.2895 8.62576 23.259C8.62576 24.2225 7.86258 25.0102 6.91599 25.0102C3.10007 25.0163 0 21.8411 0 17.9389C0 15.7333 0.999831 13.6792 2.66227 12.3522C2.66227 12.2552 2.65636 12.1583 2.65636 12.0613C2.65636 5.68683 7.72059 0.5 13.9444 0.5C17.0445 0.5 19.9256 1.76035 22.0436 4.00838C22.937 3.68724 23.8776 3.51757 24.8301 3.51757C29.4329 3.51757 33.1719 7.35316 33.1719 12.0613C33.1719 12.4006 33.1482 12.74 33.1068 13.0793C34.3196 14.382 34.9941 16.1029 34.9941 17.9389C35 21.8411 31.894 25.0163 28.084 25.0163Z" fill="#8E7865"/>
<path d="M23.8599 22.8046C23.6706 22.3683 23.2446 22.0835 22.7773 22.0835H19.2749V15.4606C19.2749 14.4548 18.4821 13.6428 17.5001 13.6428C16.518 13.6428 15.7252 14.4548 15.7252 15.4606V22.0775H12.2228C11.7555 22.0775 11.3295 22.3622 11.1402 22.7985C10.9509 23.2348 11.0278 23.7498 11.3413 24.1074L16.6185 30.094C16.8434 30.3485 17.1628 30.4939 17.5001 30.4939C17.8373 30.4939 18.1567 30.3485 18.3816 30.094L23.6588 24.1074C23.9664 23.7559 24.0492 23.2409 23.8599 22.8046Z" fill="#8E7865"/>
</g>
<defs>
<clipPath id="clip0_2965_10906">
<rect width="35" height="30" fill="white" transform="translate(0 0.5)"/>
</clipPath>
</defs>
</svg>
