<svg width="380" height="380" viewBox="0 0 380 380" fill="none" xmlns="http://www.w3.org/2000/svg">
<path opacity="0.5" d="M343.622 353.388H36.8125V355.724H343.622V353.388Z" fill="#757575"/>
<path d="M179.778 250.829H126.932V354.213H179.778V250.829Z" fill="#5B5B5B"/>
<path d="M171.999 250.829H119.152V354.213H171.999V250.829Z" fill="#757575"/>
<path d="M103.511 328.035H50.6641V354.213H103.511V328.035Z" fill="#5B5B5B"/>
<path d="M95.745 328.035H42.8984V354.213H95.745V328.035Z" fill="#5B5B5B"/>
<path d="M256.034 192.665H203.188V354.213H256.034V192.665Z" fill="#5B5B5B"/>
<path d="M248.255 192.665H195.408V354.213H248.255V192.665Z" fill="url(#paint0_linear_452_13195)"/>
<path d="M332.385 128.711L279.539 128.942L280.519 353.492L333.365 353.261L332.385 128.711Z" fill="#A89476"/>
<path d="M324.606 128.759L271.76 128.989L272.74 353.54L325.586 353.309L324.606 128.759Z" fill="url(#paint1_linear_452_13195)"/>
<path d="M60.3742 321.137C66.7264 319.038 69.7906 308.852 71.2597 303.382L77.9057 305.942C77.9057 305.942 74.6177 315.89 74.9955 322.256C75.3732 328.623 73.5683 328.021 73.5683 328.021H51.9512C51.9512 328.021 54.0219 323.236 60.3742 321.137Z" fill="#FFD2A7"/>
<path d="M60.3742 321.137C62.291 320.507 63.9001 319.136 65.2713 317.373C66.1527 316.128 70.4622 317.499 71.1757 319.906C71.1757 319.906 72.8967 321.165 74.9675 320.969C74.9675 321.417 74.9675 321.837 74.9955 322.256C75.3732 328.623 73.5683 328.021 73.5683 328.021H51.9512C51.9512 328.021 54.0219 323.236 60.3742 321.137Z" fill="#5B5B5B"/>
<path d="M77.5558 248.898C78.2413 246.114 78.5632 244.085 79.0249 241.244C80.9977 229.184 93.5482 239.118 93.1285 242.322C92.5968 246.337 91.3376 248.366 90.2462 262.344C89.1688 276.322 85.9927 283.737 83.1244 290.593C80.2561 297.449 78.5771 306.837 78.5771 306.837C72.043 308.265 69.8184 305.844 69.8184 305.844C69.8184 305.844 71.3155 290.957 72.029 278.952C72.7426 266.947 75.9607 255.432 77.5558 248.898Z" fill="#5B5B5B"/>
<path d="M139.062 227.813L145.694 230.597C141.595 237.691 140.14 244.449 151.683 244.449C157 244.449 147.373 250.843 147.373 250.843H130.709C130.709 250.843 127.967 249.724 131.941 243.273C136.264 236.264 139.048 227.827 139.048 227.827L139.062 227.813Z" fill="#FFD2A7"/>
<path d="M140.558 244.896C142.293 243.287 140.363 240.223 142.825 240.083C143.259 242.266 145.232 243.735 148.688 244.239C159.475 245.834 159.209 250.829 159.209 250.829H130.736C130.736 250.829 128.162 249.779 131.618 243.847C134.514 243.847 137.956 247.331 140.572 244.896H140.558Z" fill="#5B5B5B"/>
<path d="M101.089 165.913C121.027 162.583 158.105 161.646 160.413 162.415C163.142 163.339 169.83 170.209 159.546 177.177C150.955 182.983 103.775 208.854 91.8822 184.061C87.5168 174.966 95.0303 166.935 101.103 165.913H101.089Z" fill="#5B5B5B"/>
<path d="M90.5957 179.177C134.893 192.637 161.072 172.252 163.87 170.922C162.471 172.867 162.765 175.008 159.561 177.177C150.97 182.983 103.79 208.854 91.8969 184.061C91.0994 182.382 90.6936 180.745 90.6097 179.177H90.5957Z" fill="#5B5B5B"/>
<path d="M164.904 167.746C167.227 171.706 144.882 236.026 144.882 236.026C138.236 236.753 135.088 233.507 135.088 233.507C135.088 233.507 140.237 214.255 140.531 202.236C141.846 148.634 163.267 164.962 164.904 167.746Z" fill="#5B5B5B"/>
<path d="M109.302 190.567C106.966 204.265 92.9599 237.984 91.9105 248.128C91.8825 248.422 91.8405 248.702 91.7846 248.982C87.2792 246.477 81.4727 242.546 79.1641 240.517C80.4093 223.447 78.7583 192.945 81.8505 182.633C84.9146 172.405 91.2249 164.906 93.2817 162.947C96.6676 159.715 105.328 158.624 108.071 165.578C110.827 172.545 111.667 176.883 109.316 190.567H109.302Z" fill="#5B5B5B"/>
<path d="M98.9476 81.5995C102.837 81.8373 105.789 85.1814 105.552 89.0571C105.314 92.9467 101.97 95.899 98.0941 95.6611C94.2044 95.4233 91.2521 92.0793 91.49 88.2036C91.7278 84.3279 95.0719 81.3616 98.9476 81.5995Z" fill="#5B5B5B"/>
<path d="M87.9092 116.229C89.882 109.107 86.2162 103.972 91.3232 96.3327C96.4301 88.6933 100.768 88.4694 104.979 87.8677C115.655 86.3566 124.469 100.642 119.181 109.051C114.284 116.831 117.837 119.083 122.077 125.561C126.316 132.039 130.388 153.671 111.709 157.896C93.0302 162.108 87.7133 154.566 84.4253 143.275C80.4936 129.759 85.9224 123.337 87.9092 116.229Z" fill="#5B5B5B"/>
<path d="M114.814 132.823C116.717 134.292 139.999 151.544 143.749 152.551C148.142 153.727 150.059 148.2 146.967 143.876C144.001 139.735 128.274 125.827 121.516 123.505C114.24 121.014 110.728 129.661 114.828 132.823H114.814Z" fill="#FFD2A7"/>
<path d="M115.011 131.522C130.836 128.821 145.989 142.813 146.94 143.848C143.918 139.665 128.261 125.827 121.517 123.519C114.787 121.21 114.619 131.592 115.025 131.536L115.011 131.522Z" fill="#FFBC8E"/>
<path d="M95.6332 150.425C95.3814 147.444 94.4019 144.66 92.0234 134.334C91.0999 130.305 89.9526 127.142 91.002 125.393C92.3452 123.169 96.3468 122.931 99.1871 123.029C104.322 123.197 102.251 110.716 102.251 110.716C103.119 108.156 111.654 108.883 110.982 117.138C110.324 125.393 118.608 121.84 120.496 123.435C123.099 125.631 122.735 130.207 123.197 132.669C123.659 135.118 127.184 138.126 126.541 142.603C125.911 147.081 121.672 146.787 121.672 146.787C120.105 148.48 118.594 151.6 118.37 153.839C117.866 159.043 120.273 164.318 120.273 164.318C104.98 170.447 92.3312 164.234 92.3312 164.234C92.3312 164.234 96.3608 159.379 95.6192 150.439L95.6332 150.425Z" fill="#FFBC8E"/>
<path d="M99.1854 123.029C104.32 123.197 102.25 110.716 102.25 110.716C102.725 109.289 105.58 108.883 107.902 110.226C106.293 110.59 102.264 117.488 104.222 127.814C104.782 130.752 107.874 132.571 110.742 133.229C110.742 133.229 92.3714 135.859 92.0216 134.334C91.0982 130.305 96.3451 122.931 99.1854 123.029Z" fill="#FFBC8E"/>
<path d="M142.7 138.42C142.7 138.42 141.777 143.932 137.915 149.837L127.827 142.421L125.868 140.98L118.564 129.857L117.795 125.337C117.795 125.337 118.033 121.112 123.895 124.162C129.73 127.212 139.58 136.545 142.7 138.434V138.42Z" fill="url(#paint2_linear_452_13195)"/>
<path d="M127.827 142.421L125.868 140.98L118.564 129.857L118.648 125.911C118.76 125.226 118.914 123.672 118.956 122.931C120.187 122.931 121.153 123.812 121.699 124.274C124.301 126.471 123.937 131.046 124.385 133.509C124.805 135.775 127.855 138.504 127.827 142.421Z" fill="#C6C6C6"/>
<path d="M95.632 150.425C95.3801 147.444 94.4007 144.66 92.0221 134.334C91.0847 130.305 89.9374 127.142 91.0007 125.393C92.204 123.393 95.562 123.001 98.2904 123.001C101.355 130.011 107.721 134.026 112.604 131.97C115.752 130.654 117.543 127.142 117.669 122.931C118.9 122.931 119.964 122.973 120.495 123.435C123.098 125.631 122.734 130.221 123.196 132.669C123.657 135.132 127.183 138.126 126.54 142.603C125.91 147.081 121.671 146.787 121.671 146.787C120.089 148.48 118.578 151.6 118.368 153.839C117.865 159.043 120.271 164.332 120.271 164.332C104.978 170.461 92.3299 164.248 92.3299 164.248C92.3299 164.248 96.3596 159.393 95.618 150.439L95.632 150.425Z" fill="url(#paint3_linear_452_13195)"/>
<path d="M95.632 150.425C95.3801 147.444 94.4007 144.66 92.0221 134.334C91.0847 130.305 89.9374 127.142 91.0007 125.393C92.1621 123.463 95.3382 123.029 98.0106 123.015C98.0526 123.463 98.1225 123.91 98.2065 124.358C99.3398 130.305 103.453 134.922 108.7 136.965L105.692 137.538C102.25 138.196 100.081 141.932 100.823 145.248C101.369 147.682 103.257 149.403 105.51 150.005L106.867 157.155C107.889 162.569 103.006 167.285 97.6468 166.011C94.3028 165.214 92.3299 164.248 92.3299 164.248C92.3299 164.248 96.3596 159.393 95.618 150.439L95.632 150.425Z" fill="#C6C6C6"/>
<path d="M102.571 160.597C99.605 157.728 91.28 134.656 89.1113 129.633C88.3417 127.856 95.8972 122.511 99.591 126.597C101.634 128.863 111.078 155.671 110.924 159.547C110.742 164.094 106.391 164.276 102.571 160.583V160.597Z" fill="#FFD2A7"/>
<path d="M98.6263 132.753C95.744 129.647 95.6461 128.402 91.4766 127.436C94.6107 126.121 97.1432 123.91 99.6057 126.625C101.453 128.667 109.288 150.62 110.715 157.798C110.309 156.357 102.446 136.895 98.6263 132.767V132.753Z" fill="#FFBC8E"/>
<path d="M99.6615 103.371C99.6615 103.371 103.551 93.0167 107.007 92.7788C110.463 92.541 113.205 92.8768 114.828 96.6965C114.828 96.6965 116.759 100.082 115.948 104.084C115.948 104.084 120.439 108.254 115.416 114.13C110.393 120.021 102.236 115.781 99.6195 110.226C99.6195 110.226 94.9743 111.626 94.4426 107.316C93.9249 103.007 96.7512 102.839 99.6475 103.357L99.6615 103.371Z" fill="#FFD2A7"/>
<path d="M99.6612 103.371C99.6612 103.371 103.551 93.0167 107.007 92.7788C109.777 92.5829 112.086 92.7788 113.723 94.8076C111.428 94.178 103.075 103.203 102.921 108.673C102.767 114.242 108.63 117.782 113.471 115.459C114.059 115.179 114.604 114.844 115.122 114.452C110.085 119.839 102.18 115.669 99.6332 110.226C99.6332 110.226 94.9879 111.626 94.4563 107.316C93.9386 103.007 96.7649 102.839 99.6612 103.357V103.371Z" fill="#FFBC8E"/>
<path d="M148.002 142.757C140.838 144.226 141.552 153.209 146.505 153.391C153.823 153.657 173.425 146.073 177.567 147.654C181.708 149.221 182.911 152.677 186.605 149.837C190.299 146.997 190.551 145.29 189.837 142.281C189.138 139.287 184.52 139.847 179.791 141.568C175.062 143.289 153.949 141.526 148.002 142.757Z" fill="#FFD2A7"/>
<path d="M117.46 98.2356C117.46 98.2356 112.031 97.2982 108.995 94.178C105.959 91.0579 104.35 91.5616 104.35 91.5616C113.752 87.6299 117.46 98.2216 117.46 98.2216V98.2356Z" fill="#5B5B5B"/>
<path d="M107.273 92.1912C108.742 93.4225 108.994 97.0743 105.146 101.118C101.284 105.161 102.445 110.184 99.4652 107.414C96.4849 104.644 96.457 104.182 96.2331 100.46C96.0092 96.7245 104.068 89.5048 107.273 92.2052V92.1912Z" fill="#5B5B5B"/>
<path d="M108.281 146.801C108.281 146.801 101.313 128.486 99.5498 125.841C97.7869 123.183 78.6323 118.37 95.2404 148.76C95.2404 148.76 99.9975 151.39 108.281 146.815V146.801Z" fill="url(#paint4_linear_452_13195)"/>
<path d="M6.08594 183.347C6.08594 183.347 8.8423 184.802 13.9353 186.621C11.3048 185.628 8.68839 184.55 6.08594 183.347Z" fill="#5B5B5B"/>
<path d="M262.763 109.513L256.859 36.1405L197.954 78.1575L219.711 88.6793C210.98 104.91 200.738 120.244 188.635 133.872C174.056 150.327 156.622 164.15 136.95 173.777C77.6953 203.621 31.6207 192.903 13.9492 186.607C16.7056 187.642 19.4899 188.594 22.3023 189.503C27.787 191.238 33.3557 192.721 38.9943 193.967C44.633 195.198 50.3136 196.177 56.0502 196.919C61.7868 197.646 67.5653 198.108 73.3579 198.29C84.957 198.682 96.654 197.954 108.225 196.023C119.796 194.093 131.213 190.874 142.267 186.523C164.346 177.75 184.634 164.08 201.871 147.318C202.977 146.297 204.012 145.206 205.076 144.142C206.125 143.065 207.202 142.016 208.238 140.924L211.302 137.608L212.841 135.943L214.324 134.236L217.29 130.822C218.27 129.689 219.207 128.5 220.159 127.338C221.11 126.163 222.089 125.016 222.999 123.826L225.755 120.244C231.03 113.319 235.955 106.127 240.586 98.7533L262.763 109.485V109.513Z" fill="#A89476"/>
<path d="M12.5918 186.439C12.5918 186.439 15.3482 187.894 20.4411 189.713C17.8107 188.72 15.1942 187.642 12.5918 186.439Z" fill="url(#paint5_linear_452_13195)"/>
<path d="M269.269 112.591L263.365 39.2327L204.46 81.2497L226.217 91.7714C217.486 108.002 207.244 123.337 195.141 136.965C180.562 153.433 163.128 167.243 143.456 176.869C84.2012 206.713 38.1266 195.995 20.4551 189.699C23.2114 190.735 25.9958 191.686 28.8081 192.595C34.2929 194.33 39.8615 195.814 45.5002 197.059C51.1388 198.29 56.8195 199.269 62.556 200.011C68.2926 200.725 74.0712 201.2 79.8638 201.382C91.4629 201.774 103.16 201.046 114.731 199.116C126.302 197.199 137.719 193.967 148.759 189.629C170.838 180.856 191.126 167.187 208.377 150.425C209.483 149.403 210.518 148.312 211.581 147.248C212.631 146.171 213.708 145.122 214.744 144.03L217.808 140.714L219.347 139.063L220.83 137.356L223.796 133.942C224.776 132.795 225.713 131.62 226.664 130.458C227.616 129.283 228.595 128.136 229.505 126.946L232.261 123.365C237.536 116.439 242.461 109.247 247.092 101.873L269.269 112.591Z" fill="url(#paint6_linear_452_13195)"/>
<path d="M256.846 36.1405L263.352 39.2327L257.433 43.4442L256.846 36.1405Z" fill="#A89476"/>
<path d="M132.445 182.675C136.559 184.354 139.833 190.133 138.126 193.099C137.65 193.939 137.091 194.568 136.461 195.072C135.006 196.331 133.229 196.765 131.298 196.891C131.088 196.905 128.444 195.394 128.766 195.114C128.22 193.533 128.052 190.972 127.968 188.006C127.828 182.969 109.009 168.922 104.126 163.395C99.2851 157.924 106.505 153.657 110.255 156.903C115.795 161.688 128.332 180.996 132.431 182.675H132.445Z" fill="#FFD2A7"/>
<path d="M331.658 258.16C333.925 258.16 335.982 257.377 337.787 256.146C337.857 259.923 337.619 263.701 336.877 267.409C334.471 271.285 327.783 278.434 328.23 278.392C330.091 278.239 331.854 277.749 333.589 277.147C332.442 279.498 331.085 281.75 329.504 283.821C326.257 288.145 321.64 291.601 319.891 296.875C319.849 297.001 319.779 297.071 319.695 297.113C319.653 297.407 319.332 297.645 319.066 297.393C310.349 289.11 308.782 276.532 307.509 265.184C307.453 264.653 307.383 264.121 307.341 263.575C309.761 265.996 312.322 268.207 315.386 269.844C315.806 270.081 309.929 260.665 307.047 256.328C307.145 253.613 307.565 250.899 308.544 248.268C310.587 242.798 314.085 237.677 317.485 232.975C317.625 232.78 317.778 232.598 317.918 232.402C318.842 234.836 320.073 237.131 321.668 239.202C321.948 239.566 321.053 232.318 320.493 229.002C321.346 227.938 322.2 226.889 323.081 225.868C324.243 224.496 325.684 222.174 327.769 222.482C329.797 222.776 334.415 231.073 335.002 233.437C335.254 234.445 335.478 235.48 335.688 236.529C335.786 236.977 335.87 237.425 335.954 237.873C336.723 242.042 337.171 246.31 337.507 250.507C337.367 250.731 337.213 250.955 337.059 251.179C335.366 253.487 331.266 258.16 331.672 258.16H331.658Z" fill="#757575"/>
<path d="M323.712 253.977C328.021 253.319 331.309 250.605 334.471 247.807C334.947 247.387 334.36 246.589 333.884 247.009C330.918 249.64 327.839 252.27 323.824 252.942C324.733 246.533 325.811 240.153 327.056 233.801C327.182 233.171 326.202 233.031 326.076 233.647C324.411 242.07 323.054 250.535 321.991 259.056C319.514 255.53 317.612 251.724 316.296 247.611C316.1 247.009 315.191 247.373 315.387 247.975C316.786 252.326 318.829 256.356 321.501 260.063C321.599 260.203 321.725 260.259 321.851 260.259C321.627 262.12 321.417 263.981 321.221 265.842C319.416 263.603 318.003 261.155 316.996 258.44C316.772 257.839 315.863 258.216 316.086 258.804C317.206 261.812 318.815 264.555 320.886 267.003C320.942 267.073 321.011 267.115 321.081 267.143C320.452 273.271 319.976 279.428 319.654 285.584C319.626 285.64 319.598 285.71 319.598 285.794C319.472 288.047 319.388 290.299 319.36 292.552C319.318 294.021 319.277 295.49 319.249 296.959C319.249 297.113 319.305 297.225 319.388 297.295C319.64 311.175 321.697 324.915 324.621 338.501C324.943 338.417 325.265 338.347 325.573 338.277C322.271 322.928 320.074 307.383 320.368 291.643C320.424 289.978 320.494 288.327 320.578 286.662C320.704 286.704 320.858 286.704 321.011 286.606C322.816 285.374 324.328 283.821 325.517 281.988C325.853 281.457 325.097 280.841 324.747 281.373C323.642 283.066 322.271 284.493 320.62 285.654C321.165 275.048 322.187 264.471 323.656 253.949C323.656 253.949 323.684 253.949 323.698 253.949L323.712 253.977Z" fill="#5B5B5B"/>
<path d="M289.502 282.506C287.585 283.248 285.598 283.332 283.709 283.01C284.745 285.878 286.046 288.634 287.753 291.167C290.929 293.294 298.681 296.47 298.289 296.582C296.652 297.085 295.015 297.281 293.364 297.407C295.015 298.792 296.834 300.038 298.778 301.087C302.794 303.27 307.719 304.347 310.741 307.733C310.811 307.817 310.895 307.845 310.979 307.845C311.091 308.055 311.441 308.125 311.595 307.845C316.604 298.75 314.267 288.788 312.071 279.848C311.973 279.428 311.861 279.008 311.749 278.588C310.392 281.191 308.853 283.709 306.74 285.948C306.446 286.256 308.713 277.245 309.902 273.048C309.034 271.033 307.887 269.144 306.292 267.493C302.962 264.051 298.499 261.365 294.245 258.944C294.077 258.846 293.881 258.748 293.714 258.65C293.644 260.777 293.266 262.904 292.496 264.988C292.37 265.352 291.027 259.616 290.523 256.943C289.488 256.426 288.453 255.908 287.403 255.432C286.018 254.788 284.115 253.515 282.436 254.425C280.799 255.306 279.288 263.058 279.47 265.03C279.554 265.87 279.652 266.723 279.778 267.577C279.82 267.941 279.89 268.318 279.946 268.682C280.505 272.068 281.359 275.426 282.296 278.686C282.478 278.812 282.674 278.924 282.87 279.036C284.983 280.211 289.824 282.38 289.474 282.52L289.502 282.506Z" fill="url(#paint7_linear_452_13195)"/>
<path d="M318.827 340.571C317.358 329.406 315.12 318.409 311.3 307.901C311.356 307.817 311.37 307.719 311.328 307.607C310.88 306.516 310.418 305.424 309.943 304.333C309.271 302.654 308.544 300.989 307.774 299.338C307.746 299.282 307.704 299.226 307.662 299.198C305.591 294.679 303.409 290.215 301.086 285.808C301.142 285.766 301.184 285.71 301.212 285.64C302.261 283.122 302.835 280.533 302.905 277.903C302.919 277.385 302.037 277.413 302.023 277.931C301.953 280.295 301.464 282.604 300.582 284.885C299.869 283.555 299.155 282.212 298.428 280.897C298.539 280.855 298.623 280.771 298.679 280.631C299.869 276.965 300.442 273.272 300.358 269.536C300.358 269.018 299.463 269.046 299.477 269.564C299.547 273.09 299.043 276.574 297.966 280.043C294.594 273.999 290.984 268.081 287.122 262.302C286.842 261.868 286.059 262.302 286.339 262.736C289.249 267.101 292.019 271.537 294.65 276.056C291.04 276.867 287.654 275.902 284.38 274.895C283.848 274.727 283.582 275.524 284.114 275.678C287.612 276.741 291.208 277.707 295.042 276.783C295.042 276.783 295.07 276.783 295.07 276.769C299.379 284.185 303.325 291.796 306.865 299.59C305.13 299.254 303.534 298.638 302.107 297.729C301.66 297.449 301.184 298.163 301.632 298.443C303.171 299.422 304.92 300.094 306.809 300.429C306.962 300.457 307.102 300.401 307.2 300.331C307.746 301.549 308.292 302.78 308.823 303.997C313.636 315.722 316.295 328.119 317.946 340.739C318.24 340.697 318.534 340.641 318.827 340.599V340.571Z" fill="#5B5B5B"/>
<path d="M287.458 270.571C284.646 270.011 282.072 269.018 279.791 267.577C279.833 267.941 279.903 268.318 279.959 268.682C282.142 269.941 284.562 270.837 287.179 271.369C287.724 271.467 288.004 270.683 287.458 270.585V270.571Z" fill="#C9C9C9"/>
<path d="M370.654 277.959C370.598 281.513 362.398 283.22 359.796 284.185C354.031 286.326 348.393 288.48 344.125 293.112C339.102 298.582 334.765 304.893 330.427 310.923C330.148 311.301 329.77 311.427 329.406 311.357C329.336 311.357 328.846 310.335 328.217 308.768C326.72 305.089 324.439 298.345 324.999 294.497C325.39 291.796 326.328 289.222 327.615 286.829C327.909 288.047 328.399 289.194 329.252 290.075C329.462 290.285 329.91 285.234 330.204 282.94C330.581 282.478 330.973 282.016 331.379 281.583C332.302 280.575 333.324 279.638 334.415 278.784C334.653 278.602 334.877 278.42 335.115 278.239C335.996 277.581 336.92 276.965 337.885 276.406C338.137 276.252 338.389 276.112 338.655 275.958C339.55 275.468 340.473 275.006 341.411 274.587C341.705 276.336 342.152 278.015 342.936 279.652C343.09 279.987 343.482 275.65 343.538 273.733C344.433 273.397 345.343 273.118 346.266 272.852C346.532 273.971 346.868 275.076 347.399 276.112C347.525 276.364 348.743 273.425 349.19 272.138C352.129 271.55 355.109 271.299 357.977 271.453C358.229 271.453 358.481 271.481 358.719 271.495C359.502 271.55 360.286 271.634 361.055 271.76C363.882 272.194 370.542 273.985 370.681 277.819C370.681 277.861 370.681 277.889 370.681 277.931L370.654 277.959Z" fill="url(#paint8_linear_452_13195)"/>
<path d="M339.088 287.277C332.12 294.161 329.952 306.796 329.504 310.391C328.818 311.833 328.315 313.358 328.077 315.065C327.251 320.731 327.489 326.72 327.629 332.442C327.671 334.317 327.755 336.206 327.853 338.081C328.175 338.025 328.496 337.955 328.818 337.899C328.762 336.71 328.706 335.534 328.664 334.345C328.496 329.224 328.496 324.103 328.734 318.982C328.86 316.338 329.098 313.679 330.12 311.231C330.231 311.161 330.343 311.063 330.427 310.937C334.765 304.907 339.102 298.596 344.125 293.126C348.393 288.48 354.017 286.326 359.782 284.199C362.384 283.234 370.597 281.513 370.653 277.973C359.712 279.246 347.105 279.372 339.074 287.305L339.088 287.277Z" fill="#5B5B5B"/>
<path d="M338.78 283.905C338.276 281.261 338.22 278.63 338.626 275.986C338.36 276.126 338.108 276.28 337.856 276.434C337.506 278.98 337.576 281.527 338.08 284.073C338.164 284.535 338.864 284.367 338.78 283.919V283.905Z" fill="#5B5B5B"/>
<path d="M336.121 285.318C335.492 282.996 335.156 280.659 335.1 278.253C334.862 278.42 334.638 278.602 334.4 278.798C334.484 281.065 334.834 283.276 335.408 285.486C335.52 285.934 336.233 285.766 336.107 285.318H336.121Z" fill="#5B5B5B"/>
<path d="M347.777 332.722C347.777 334.569 347.581 336.36 347.218 338.095C345.874 344.377 342.223 349.806 337.2 353.458H307.173C302.15 349.806 298.499 344.377 297.155 338.095C296.792 336.36 296.596 334.569 296.596 332.722C296.596 330.875 296.806 328.93 297.211 327.139C297.547 325.6 298.023 324.131 298.624 322.718H345.776C346.378 324.131 346.854 325.6 347.19 327.139C347.595 328.93 347.805 330.805 347.805 332.722H347.777Z" fill="#C6C6C6"/>
<path d="M347.778 332.722C347.778 334.569 347.582 336.36 347.218 338.095C345.875 344.377 342.223 349.806 337.2 353.458H307.174C346.406 355.403 345.763 322.732 345.763 322.732C346.365 324.145 346.84 325.614 347.176 327.153C347.582 328.944 347.792 330.819 347.792 332.736L347.778 332.722Z" fill="#C9C9C9"/>
<defs>
<linearGradient id="paint0_linear_452_13195" x1="169.775" y1="349.246" x2="268.781" y2="205.09" gradientUnits="userSpaceOnUse">
<stop stop-color="#757575"/>
<stop offset="1" stop-color="#5B5B5B"/>
</linearGradient>
<linearGradient id="paint1_linear_452_13195" x1="234.757" y1="354.638" x2="333.298" y2="143.271" gradientUnits="userSpaceOnUse">
<stop stop-color="#BDA782"/>
<stop offset="1" stop-color="#BDA782"/>
</linearGradient>
<linearGradient id="paint2_linear_452_13195" x1="124.945" y1="140.057" x2="169.158" y2="95.843" gradientUnits="userSpaceOnUse">
<stop stop-color="white"/>
<stop offset="1" stop-color="#D3DBEB"/>
</linearGradient>
<linearGradient id="paint3_linear_452_13195" x1="127.861" y1="158.483" x2="69.2322" y2="118.549" gradientUnits="userSpaceOnUse">
<stop stop-color="white"/>
<stop offset="1" stop-color="#D3DBEB"/>
</linearGradient>
<linearGradient id="paint4_linear_452_13195" x1="88.5104" y1="136.671" x2="108.281" y2="136.671" gradientUnits="userSpaceOnUse">
<stop stop-color="white"/>
<stop offset="1" stop-color="#D3DBEB"/>
</linearGradient>
<linearGradient id="paint5_linear_452_13195" x1="12.5259" y1="186.522" x2="20.4539" y2="189.607" gradientUnits="userSpaceOnUse">
<stop stop-color="#BDA782"/>
<stop offset="1" stop-color="#BDA782"/>
</linearGradient>
<linearGradient id="paint6_linear_452_13195" x1="61.8172" y1="83.2959" x2="251.854" y2="157.235" gradientUnits="userSpaceOnUse">
<stop stop-color="#BDA782"/>
<stop offset="1" stop-color="#BDA782"/>
</linearGradient>
<linearGradient id="paint7_linear_452_13195" x1="279.47" y1="281.051" x2="314.589" y2="281.051" gradientUnits="userSpaceOnUse">
<stop stop-color="#757575"/>
<stop offset="1" stop-color="#5B5B5B"/>
</linearGradient>
<linearGradient id="paint8_linear_452_13195" x1="324.901" y1="291.419" x2="370.654" y2="291.419" gradientUnits="userSpaceOnUse">
<stop stop-color="#757575"/>
<stop offset="1" stop-color="#5B5B5B"/>
</linearGradient>
</defs>
</svg>
