<svg width="76" height="111" viewBox="0 0 76 111" fill="none" xmlns="http://www.w3.org/2000/svg">
<path d="M72.55 25.6C72.55 30.6 71.5 34.9 69.4 38.5C67.3 42.1 64.5 45.1 61 47.5C57.5 49.8 53.55 51.5 49.15 52.6V53.05C57.75 54.05 64.3 56.65 68.8 60.85C73.4 65.05 75.7 70.8 75.7 78.1C75.7 84.1 74.15 89.6 71.05 94.6C67.95 99.5 63.15 103.4 56.65 106.3C50.25 109.1 41.95 110.5 31.75 110.5C25.45 110.5 19.8 110 14.8 109C9.8 108 5 106.55 0.4 104.65V83.2C5.1 85.6 9.9 87.4 14.8 88.6C19.8 89.7 24.4 90.25 28.6 90.25C36.2 90.25 41.45 89.05 44.35 86.65C47.35 84.25 48.85 80.85 48.85 76.45C48.85 73.75 48.15 71.45 46.75 69.55C45.35 67.65 42.9 66.2 39.4 65.2C35.9 64.2 30.9 63.7 24.4 63.7H17.05V44.35H24.55C30.65 44.35 35.35 43.8 38.65 42.7C42.05 41.6 44.4 40.1 45.7 38.2C47 36.2 47.65 33.95 47.65 31.45C47.65 28.05 46.5 25.45 44.2 23.65C41.9 21.85 38.45 20.95 33.85 20.95C30.55 20.95 27.5 21.4 24.7 22.3C21.9 23.2 19.4 24.2 17.2 25.3C15 26.4 13.2 27.4 11.8 28.3L0.55 11.05C3.45 9.04999 6.6 7.25 10 5.65C13.5 3.95 17.4 2.65 21.7 1.74999C26.1 0.849995 31.15 0.399994 36.85 0.399994C47.85 0.399994 56.55 2.65 62.95 7.15C69.35 11.55 72.55 17.7 72.55 25.6Z" fill="url(#paint0_linear_743_23768)"/>
<defs>
<linearGradient id="paint0_linear_743_23768" x1="38.5" y1="-26" x2="38.5" y2="109" gradientUnits="userSpaceOnUse">
<stop stop-color="#EBDEC7"/>
<stop offset="0.533333" stop-color="#EBDEC7" stop-opacity="0.56875"/>
<stop offset="1" stop-color="#EBDEC7" stop-opacity="0"/>
</linearGradient>
</defs>
</svg>
