<svg width="78" height="109" viewBox="0 0 78 109" fill="none" xmlns="http://www.w3.org/2000/svg">
<path d="M77.45 109H1.25V91.75L27.8 64.9C33.2 59.3 37.5 54.7 40.7 51.1C43.9 47.5 46.15 44.35 47.45 41.65C48.85 38.85 49.55 35.9 49.55 32.8C49.55 29 48.45 26.25 46.25 24.55C44.05 22.75 41.2 21.85 37.7 21.85C34 21.85 30.3 22.8 26.6 24.7C22.9 26.6 18.9 29.35 14.6 32.95L0.65 16.6C3.75 13.8 7.05 11.2 10.55 8.79999C14.15 6.3 18.3 4.3 23 2.8C27.7 1.2 33.4 0.399994 40.1 0.399994C47.3 0.399994 53.45 1.7 58.55 4.3C63.75 6.8 67.75 10.25 70.55 14.65C73.45 18.95 74.9 23.9 74.9 29.5C74.9 34 74.25 38.2 72.95 42.1C71.65 45.9 69.7 49.6 67.1 53.2C64.6 56.7 61.45 60.35 57.65 64.15C53.85 67.95 49.55 72.1 44.75 76.6L33.65 86.8V87.7H77.45V109Z" fill="url(#paint0_linear_743_23762)"/>
<defs>
<linearGradient id="paint0_linear_743_23762" x1="39.5" y1="-26" x2="39.5" y2="109" gradientUnits="userSpaceOnUse">
<stop stop-color="#EBDEC7"/>
<stop offset="0.533333" stop-color="#EBDEC7" stop-opacity="0.56875"/>
<stop offset="1" stop-color="#EBDEC7" stop-opacity="0"/>
</linearGradient>
</defs>
</svg>
