<svg width="315" height="254" viewBox="0 0 315 254" fill="none" xmlns="http://www.w3.org/2000/svg">
<g opacity="0.1">
<path opacity="0.9" d="M314.296 105.231H168.072V127.459H314.296V105.231Z" fill="#724A80"/>
<path opacity="0.9" d="M250.519 134.462H168.072V156.691H250.519V134.462Z" fill="#724A80"/>
<path opacity="0.9" d="M298.733 163.708H168.072V185.937H298.733V163.708Z" fill="#724A80"/>
<path opacity="0.9" d="M275.402 192.954H168.072V215.183H275.402V192.954Z" fill="#724A80"/>
<path opacity="0.9" d="M256.733 222.186H168.072V244.414H256.733V222.186Z" fill="#724A80"/>
</g>
<path d="M150.35 0H68.9395C58.1915 0 49.4785 8.69281 49.4785 19.4159V233.493C49.4785 244.216 58.1915 252.909 68.9395 252.909H150.35C161.098 252.909 169.811 244.216 169.811 233.493V19.4159C169.811 8.69281 161.098 0 150.35 0Z" fill="#343535"/>
<path d="M149.617 3.14282H69.6877C60.6159 3.14282 53.2617 10.48 53.2617 19.5308V232.647C53.2617 241.698 60.6159 249.035 69.6877 249.035H149.617C158.689 249.035 166.043 241.698 166.043 232.647V19.5308C166.043 10.48 158.689 3.14282 149.617 3.14282Z" fill="white"/>
<path d="M151.889 205.596H69.1408C65.0179 205.596 61.6758 208.931 61.6758 213.044V220.836C61.6758 224.949 65.0179 228.284 69.1408 228.284H151.889C156.012 228.284 159.355 224.949 159.355 220.836V213.044C159.355 208.931 156.012 205.596 151.889 205.596Z" fill="#4F9883"/>
<path d="M80.2324 0.731934L80.7358 5.59668C81.0119 7.22676 81.8772 8.69938 83.168 9.73598C84.4587 10.7726 86.0855 11.3012 87.7406 11.222H131.524C133.184 11.3085 134.818 10.7831 136.115 9.74588C137.412 8.70862 138.281 7.23189 138.558 5.59668L139.061 0.731934H80.2324Z" fill="#343535"/>
<path d="M25.4023 153.419H114.825V178.647V187.013V198.292L105.548 187.013H25.4023V153.419Z" fill="#DCDCDC"/>
<path d="M206.418 89.6318H118.908V120.011V130.1V143.689L130.084 130.1H206.418V89.6318Z" fill="#DCDCDC"/>
<path d="M91.2349 17.4211H11.3486C5.08095 17.4211 0 22.4904 0 28.7435V108.445C0 114.698 5.08095 119.767 11.3486 119.767H91.2349C97.5026 119.767 102.584 114.698 102.584 108.445V28.7435C102.584 22.4904 97.5026 17.4211 91.2349 17.4211Z" fill="#DCDCDC"/>
<path d="M81.1368 68.4364C81.1368 74.2464 79.409 79.9259 76.1722 84.7557C72.9353 89.5856 68.3348 93.3488 62.9532 95.569C57.5716 97.7891 51.6508 98.3663 45.9402 97.2276C40.2297 96.0889 34.9861 93.2854 30.8733 89.172C26.7605 85.0587 23.9634 79.8204 22.836 74.1203C21.7087 68.4202 22.3017 62.5145 24.5401 57.1508C26.7786 51.7871 30.5616 47.2065 35.4106 43.989C40.2596 40.7714 45.9565 39.0616 51.7799 39.0758C59.5725 39.0947 67.0393 42.1965 72.5428 47.7006C78.0462 53.2048 81.1368 60.6619 81.1368 68.4364Z" fill="#4D5663"/>
<path d="M48.79 79.2852H48.7037C48.3999 79.2721 48.102 79.1981 47.8276 79.0674C47.5533 78.9368 47.3082 78.7521 47.1071 78.5246L39.1098 69.4696C38.7442 69.0207 38.567 68.448 38.6152 67.8717C38.6635 67.2953 38.9335 66.7598 39.3686 66.3777C39.8039 65.9954 40.3703 65.7961 40.9495 65.8215C41.5287 65.8467 42.0756 66.0947 42.4756 66.5134L48.905 73.8034L64.2955 58.836C64.5037 58.6201 64.7534 58.448 65.0296 58.3301C65.3059 58.2122 65.6031 58.1508 65.9034 58.1497C66.2039 58.1485 66.5015 58.2075 66.7786 58.3232C67.0558 58.439 67.3068 58.609 67.5168 58.8234C67.7268 59.0377 67.8916 59.292 68.0012 59.5709C68.111 59.85 68.1633 60.1482 68.1554 60.4479C68.1474 60.7475 68.0792 61.0425 67.9548 61.3153C67.8304 61.5881 67.6523 61.8332 67.4311 62.0362L50.3434 78.6538C49.926 79.0555 49.3698 79.2815 48.79 79.2852Z" fill="white"/>
<path d="M66.3809 167.367H104.483" stroke="#919090" stroke-width="1.56" stroke-miterlimit="10" stroke-linecap="round"/>
<path d="M66.3809 174.011H104.483" stroke="#919090" stroke-width="1.56" stroke-miterlimit="10" stroke-linecap="round"/>
<path d="M160.377 106.465H198.479" stroke="#919090" stroke-width="1.56" stroke-miterlimit="10" stroke-linecap="round"/>
<path d="M160.377 113.109H198.479" stroke="#919090" stroke-width="1.56" stroke-miterlimit="10" stroke-linecap="round"/>
<path d="M46.7756 175.074H35.168C35.0645 175.074 34.9634 175.042 34.8785 174.983C34.7935 174.924 34.7289 174.841 34.6934 174.743L31.8167 166.736C31.7928 166.657 31.7869 166.572 31.7993 166.491C31.8118 166.409 31.8423 166.331 31.8886 166.262C31.9353 166.195 31.9978 166.14 32.0704 166.103C32.1432 166.066 32.2239 166.047 32.3057 166.047H48.9763C49.0969 166.067 49.2065 166.13 49.2856 166.224C49.3648 166.317 49.4081 166.435 49.4081 166.557C49.4081 166.679 49.3648 166.796 49.2856 166.89C49.2065 166.983 49.0969 167.046 48.9763 167.066H32.9817L35.5276 174.055H46.4735L51.781 164.569C51.8239 164.492 51.8863 164.427 51.9621 164.383C52.0379 164.337 52.1242 164.312 52.2126 164.311H58.2105C58.2847 164.298 58.3608 164.302 58.4334 164.322C58.5059 164.342 58.5734 164.377 58.6309 164.426C58.6883 164.474 58.7345 164.535 58.7663 164.602C58.7979 164.671 58.8143 164.746 58.8143 164.82C58.8143 164.895 58.7979 164.969 58.7663 165.038C58.7345 165.106 58.6883 165.166 58.6309 165.215C58.5734 165.264 58.5059 165.298 58.4334 165.318C58.3608 165.338 58.2847 165.343 58.2105 165.33H52.4571L47.1352 174.758C47.1062 174.837 47.0582 174.906 46.9953 174.962C46.9326 175.016 46.8571 175.055 46.7756 175.074Z" fill="#919090"/>
<path d="M56.9152 168.3H52.5138C52.3931 168.28 52.2835 168.217 52.2044 168.124C52.1253 168.03 52.082 167.913 52.082 167.791C52.082 167.669 52.1253 167.551 52.2044 167.458C52.2835 167.364 52.3931 167.301 52.5138 167.281H56.9152C57.0359 167.301 57.1455 167.364 57.2246 167.458C57.3037 167.551 57.347 167.669 57.347 167.791C57.347 167.913 57.3037 168.03 57.2246 168.124C57.1455 168.217 57.0359 168.28 56.9152 168.3Z" fill="#919090"/>
<path d="M55.3619 170.768H50.9749C50.9007 170.781 50.8246 170.777 50.752 170.757C50.6795 170.737 50.612 170.702 50.5545 170.654C50.4971 170.605 50.4509 170.545 50.4191 170.476C50.3875 170.408 50.3711 170.334 50.3711 170.259C50.3711 170.184 50.3875 170.11 50.4191 170.041C50.4509 169.973 50.4971 169.913 50.5545 169.864C50.612 169.816 50.6795 169.781 50.752 169.761C50.8246 169.741 50.9007 169.737 50.9749 169.75H55.3619C55.4826 169.77 55.5922 169.833 55.6713 169.926C55.7503 170.018 55.7937 170.137 55.7937 170.259C55.7937 170.381 55.7503 170.499 55.6713 170.592C55.5922 170.685 55.4826 170.748 55.3619 170.768Z" fill="#919090"/>
<path d="M37.5274 179.149C37.1626 179.152 36.8053 179.047 36.5007 178.846C36.196 178.647 35.9577 178.36 35.8162 178.025C35.6746 177.69 35.6361 177.319 35.7056 176.962C35.7749 176.606 35.9492 176.277 36.2061 176.018C36.463 175.759 36.7909 175.584 37.1485 175.511C37.5061 175.439 37.8769 175.475 38.2142 175.614C38.5515 175.752 38.8399 175.988 39.0428 176.29C39.2458 176.593 39.3541 176.948 39.3541 177.312C39.3541 177.797 39.1621 178.262 38.8199 178.606C38.4778 178.949 38.0131 179.145 37.5274 179.149ZM37.5274 176.494C37.3099 176.494 37.1013 176.58 36.9477 176.734C36.794 176.887 36.7075 177.095 36.7075 177.312C36.7055 177.42 36.7255 177.527 36.7659 177.628C36.8065 177.727 36.8667 177.819 36.9433 177.895C37.0198 177.971 37.111 178.031 37.2114 178.071C37.3116 178.113 37.4192 178.131 37.5274 178.13C37.7449 178.13 37.9534 178.044 38.1072 177.89C38.2609 177.737 38.3472 177.529 38.3472 177.312C38.3399 177.098 38.2507 176.896 38.0981 176.747C37.9455 176.597 37.7413 176.511 37.5274 176.508V176.494Z" fill="#919090"/>
<path d="M44.5891 179.149C44.2249 179.149 43.8691 179.041 43.5663 178.839C43.2635 178.638 43.0275 178.351 42.8881 178.015C42.7489 177.679 42.7124 177.311 42.7834 176.953C42.8545 176.597 43.0298 176.27 43.2873 176.013C43.5447 175.756 43.8728 175.581 44.23 175.511C44.5871 175.439 44.9572 175.477 45.2936 175.614C45.6301 175.754 45.9176 175.989 46.12 176.292C46.3222 176.593 46.4302 176.949 46.4302 177.312C46.4302 177.8 46.2362 178.266 45.891 178.611C45.5458 178.955 45.0775 179.149 44.5891 179.149ZM44.5891 176.508C44.3728 176.513 44.1664 176.599 44.0135 176.752C43.8606 176.904 43.773 177.111 43.7693 177.326C43.7693 177.543 43.8557 177.751 44.0095 177.905C44.1631 178.058 44.3717 178.144 44.5891 178.144C44.6973 178.146 44.8049 178.127 44.9051 178.085C45.0055 178.045 45.0967 177.985 45.1732 177.909C45.2498 177.833 45.31 177.743 45.3506 177.642C45.391 177.542 45.411 177.434 45.409 177.326C45.409 177.11 45.3225 176.902 45.1689 176.748C45.0152 176.595 44.8066 176.508 44.5891 176.508Z" fill="#919090"/>
<path d="M138.082 112.09L128.33 102.361H127.266V118.146H154.594V102.361H153.372L143.548 112.09C142.817 112.802 141.836 113.2 140.815 113.2C139.794 113.2 138.813 112.802 138.082 112.09Z" stroke="#919090" stroke-miterlimit="10" stroke-linecap="round"/>
<path d="M138.083 112.09C138.816 112.819 139.809 113.229 140.845 113.229C141.88 113.229 142.873 112.819 143.606 112.09L153.358 102.361H128.273L138.083 112.09Z" stroke="#919090" stroke-miterlimit="10" stroke-linecap="round"/>
<path d="M127.209 118.089L135.667 110.225" stroke="#919090" stroke-miterlimit="10" stroke-linecap="round"/>
<path d="M154.436 118.089L145.979 110.225" stroke="#919090" stroke-miterlimit="10" stroke-linecap="round"/>
</svg>
