<svg width="73" height="110" viewBox="0 0 73 110" fill="none" xmlns="http://www.w3.org/2000/svg">
<path d="M39.65 38.7C45.95 38.7 51.6 40 56.6 42.6C61.6 45.2 65.55 49 68.45 54C71.35 58.9 72.8 64.95 72.8 72.15C72.8 80.05 71.2 86.8 68 92.4C64.8 97.9 60 102.15 53.6 105.15C47.3 108.05 39.35 109.5 29.75 109.5C23.85 109.5 18.4 109 13.4 108C8.4 107 4 105.55 0.2 103.65V82.2C3.9 84 8.35 85.6 13.55 87C18.85 88.4 23.75 89.1 28.25 89.1C32.35 89.1 35.75 88.55 38.45 87.45C41.25 86.25 43.4 84.55 44.9 82.35C46.4 80.05 47.15 77.15 47.15 73.65C47.15 68.95 45.5 65.35 42.2 62.85C39 60.25 34.05 58.95 27.35 58.95C24.65 58.95 21.9 59.25 19.1 59.85C16.3 60.35 13.9 60.85 11.9 61.35L2.15 56.4L6.2 0.899993H65.6V22.35H28.1L26.45 40.2C28.15 39.9 29.9 39.6 31.7 39.3C33.5 38.9 36.15 38.7 39.65 38.7Z" fill="url(#paint0_linear_728_23091)"/>
<defs>
<linearGradient id="paint0_linear_728_23091" x1="36.5" y1="-27" x2="36.5" y2="108" gradientUnits="userSpaceOnUse">
<stop stop-color="#EBDEC7"/>
<stop offset="0.533333" stop-color="#EBDEC7" stop-opacity="0.56875"/>
<stop offset="1" stop-color="#EBDEC7" stop-opacity="0"/>
</linearGradient>
</defs>
</svg>
