<svg width="384" height="291" viewBox="0 0 384 291" fill="none" xmlns="http://www.w3.org/2000/svg">
<g clip-path="url(#clip0_728_23245)">
<path d="M368.85 0H15.1503C6.78304 0 0 6.79778 0 15.1833V275.817C0 284.202 6.78304 291 15.1503 291H368.85C377.217 291 384 284.202 384 275.817V15.1833C384 6.79778 377.217 0 368.85 0Z" fill="#343535"/>
<path d="M4.45117 24.283H378.759V272.673C378.759 276.225 377.351 279.632 374.845 282.144C372.338 284.656 368.939 286.067 365.394 286.067H17.8544C16.0961 286.072 14.354 285.729 12.7281 285.058C11.1022 284.387 9.6243 283.401 8.37919 282.157C7.13409 280.913 6.14621 279.435 5.47217 277.807C4.79812 276.18 4.45116 274.435 4.45117 272.673V24.283Z" fill="white"/>
<g opacity="0.2">
<path d="M17.739 14.4803C17.739 15.14 17.5438 15.7849 17.1781 16.3335C16.8123 16.882 16.2925 17.3096 15.6843 17.5621C15.0761 17.8145 14.4068 17.8806 13.7612 17.7519C13.1155 17.6232 12.5224 17.3055 12.0569 16.839C11.5914 16.3725 11.2744 15.7781 11.146 15.131C11.0176 14.484 11.0835 13.8132 11.3354 13.2037C11.5873 12.5942 12.0139 12.0732 12.5613 11.7067C13.1087 11.3402 13.7522 11.1445 14.4105 11.1445C15.2933 11.1445 16.1399 11.496 16.7641 12.1215C17.3883 12.7471 17.739 13.5956 17.739 14.4803Z" fill="white"/>
<path d="M28.7566 14.4803C28.7566 15.14 28.5614 15.7849 28.1956 16.3335C27.8299 16.882 27.3101 17.3096 26.7019 17.5621C26.0937 17.8145 25.4244 17.8806 24.7787 17.7519C24.1331 17.6232 23.54 17.3055 23.0745 16.839C22.609 16.3725 22.292 15.7781 22.1636 15.131C22.0351 14.484 22.1011 13.8132 22.353 13.2037C22.6049 12.5942 23.0315 12.0732 23.5789 11.7067C24.1263 11.3402 24.7698 11.1445 25.4281 11.1445C25.8652 11.1445 26.298 11.2308 26.7019 11.3984C27.1057 11.5661 27.4726 11.8118 27.7817 12.1215C28.0908 12.4313 28.3359 12.799 28.5032 13.2037C28.6705 13.6084 28.7566 14.0422 28.7566 14.4803Z" fill="white"/>
<path d="M39.7761 14.4803C39.7761 15.14 39.5809 15.7849 39.2152 16.3335C38.8494 16.882 38.3296 17.3096 37.7214 17.5621C37.1132 17.8145 36.4439 17.8806 35.7983 17.7519C35.1526 17.6232 34.5595 17.3055 34.094 16.839C33.6285 16.3725 33.3115 15.7781 33.1831 15.131C33.0547 14.484 33.1206 13.8132 33.3725 13.2037C33.6244 12.5942 34.0511 12.0732 34.5984 11.7067C35.1458 11.3402 35.7893 11.1445 36.4476 11.1445C37.3304 11.1445 38.177 11.496 38.8012 12.1215C39.4254 12.7471 39.7761 13.5956 39.7761 14.4803Z" fill="white"/>
</g>
<path d="M128.842 49.1028H154.577" stroke="#E8E8E8" stroke-width="3.09" stroke-miterlimit="10" stroke-linecap="round"/>
<path d="M57.5527 41.9329H100.249" stroke="#E8E8E8" stroke-width="3.09" stroke-miterlimit="10" stroke-linecap="round"/>
<path d="M192.07 37.1018H234.767" stroke="#E8E8E8" stroke-width="3.09" stroke-miterlimit="10" stroke-linecap="round"/>
<path d="M192.07 45.3838H272.005" stroke="#E8E8E8" stroke-width="3.09" stroke-miterlimit="10" stroke-linecap="round"/>
<path d="M192.07 54.3557H233.657" stroke="#E8E8E8" stroke-width="3.09" stroke-miterlimit="10" stroke-linecap="round"/>
<path d="M192.07 63.3276H284.962" stroke="#E8E8E8" stroke-width="3.09" stroke-miterlimit="10" stroke-linecap="round"/>
<path d="M43.4482 39.9009H24.625V58.7649H43.4482V39.9009Z" fill="#E8E8E8"/>
<path d="M83.7598 49.269H57.5527V57.4741H83.7598V49.269Z" fill="#4C9080"/>
<path d="M335.375 46.8918L331.995 50.4832L328.603 54.0617L325.223 50.4832L321.844 46.8918" stroke="#E8E8E8" stroke-width="1.55" stroke-miterlimit="10" stroke-linecap="round"/>
<path d="M360.286 44.8368L356.197 42.0674L348.436 53.578L352.525 56.3473L360.286 44.8368Z" stroke="#E8E8E8" stroke-width="0.86" stroke-miterlimit="10" stroke-linecap="round"/>
<path d="M352.5 56.4899L350.447 57.3078L348.381 58.1385V55.9147V53.6909" stroke="#E8E8E8" stroke-width="0.86" stroke-miterlimit="10" stroke-linecap="round"/>
<path d="M363.281 41.5207L358.357 38.186L356.722 40.611L361.646 43.9457L363.281 41.5207Z" fill="#E8E8E8"/>
<path d="M32.3801 54.4452C32.2391 54.4386 32.1009 54.4036 31.9737 54.3421C31.8466 54.2806 31.7332 54.1939 31.6404 54.0873L27.8783 49.8442C27.7777 49.7427 27.6988 49.6216 27.6466 49.4885C27.5944 49.3553 27.57 49.2128 27.5748 49.0698C27.5797 48.9268 27.6137 48.7863 27.6747 48.6569C27.7358 48.5276 27.8227 48.4122 27.93 48.3178C28.0373 48.2234 28.1627 48.152 28.2986 48.108C28.4344 48.064 28.5779 48.0484 28.72 48.0621C28.8621 48.0758 28.9999 48.1185 29.125 48.1876C29.25 48.2567 29.3596 48.3507 29.4469 48.4639L32.4439 51.8635L39.6109 44.8342C39.8135 44.6688 40.0705 44.5854 40.3314 44.6004C40.5923 44.6154 40.8381 44.7277 41.0205 44.9153C41.2029 45.1028 41.3085 45.352 41.3167 45.6138C41.3249 45.8755 41.235 46.1309 41.0648 46.3295L33.158 54.1512C33.0567 54.2529 32.9349 54.3317 32.8007 54.3824C32.6666 54.433 32.5232 54.4545 32.3801 54.4452Z" fill="#4C9080"/>
<path d="M14.2969 75.0984H369.195" stroke="#E8E8E8" stroke-width="0.39" stroke-miterlimit="10" stroke-linecap="round"/>
<path d="M128.842 102.014H154.577" stroke="#E8E8E8" stroke-width="3.09" stroke-miterlimit="10" stroke-linecap="round"/>
<path d="M57.5527 94.8442H100.249" stroke="#E8E8E8" stroke-width="3.09" stroke-miterlimit="10" stroke-linecap="round"/>
<path d="M192.07 90.0132H234.767" stroke="#E8E8E8" stroke-width="3.09" stroke-miterlimit="10" stroke-linecap="round"/>
<path d="M192.07 98.2952H272.005" stroke="#E8E8E8" stroke-width="3.09" stroke-miterlimit="10" stroke-linecap="round"/>
<path d="M192.07 107.267H233.657" stroke="#E8E8E8" stroke-width="3.09" stroke-miterlimit="10" stroke-linecap="round"/>
<path d="M192.07 116.239H284.962" stroke="#E8E8E8" stroke-width="3.09" stroke-miterlimit="10" stroke-linecap="round"/>
<path d="M43.4482 92.8123H24.625V111.676H43.4482V92.8123Z" fill="#E8E8E8"/>
<path d="M83.7598 102.18H57.5527V110.386H83.7598V102.18Z" fill="#4C9080"/>
<path d="M335.375 99.8032L331.995 103.395L328.603 106.986L325.223 103.395L321.844 99.8032" stroke="#E8E8E8" stroke-width="1.55" stroke-miterlimit="10" stroke-linecap="round"/>
<path d="M360.286 97.7506L356.197 94.9812L348.436 106.492L352.525 109.261L360.286 97.7506Z" stroke="#E8E8E8" stroke-width="0.86" stroke-miterlimit="10" stroke-linecap="round"/>
<path d="M352.5 109.401L350.447 110.219L348.381 111.05V108.826V106.603" stroke="#E8E8E8" stroke-width="0.86" stroke-miterlimit="10" stroke-linecap="round"/>
<path d="M363.281 94.4346L358.357 91.0999L356.722 93.5248L361.646 96.8595L363.281 94.4346Z" fill="#E8E8E8"/>
<path d="M32.3789 107.357C32.0973 107.341 31.8324 107.218 31.6393 107.012L27.9155 102.768C27.8148 102.667 27.7359 102.546 27.6837 102.413C27.6315 102.279 27.6071 102.137 27.6119 101.994C27.6168 101.851 27.6508 101.71 27.7119 101.581C27.7729 101.452 27.8598 101.336 27.9671 101.242C28.0744 101.148 28.1998 101.076 28.3357 101.032C28.4716 100.988 28.615 100.973 28.7571 100.986C28.8992 101 29.037 101.043 29.1621 101.112C29.2871 101.181 29.3967 101.275 29.4841 101.388L32.4427 104.8L39.6098 97.7712C39.7058 97.6742 39.82 97.5972 39.9459 97.5447C40.0718 97.4921 40.2067 97.4651 40.3431 97.4651C40.4794 97.4651 40.6144 97.4921 40.7403 97.5447C40.8661 97.5972 40.9803 97.6742 41.0764 97.7712C41.1735 97.8685 41.2506 97.9841 41.3032 98.1113C41.3558 98.2384 41.3829 98.3748 41.3829 98.5124C41.3829 98.6501 41.3558 98.7865 41.3032 98.9136C41.2506 99.0408 41.1735 99.1564 41.0764 99.2537L33.1569 107.063C33.0555 107.164 32.9337 107.243 32.7996 107.294C32.6654 107.344 32.522 107.366 32.3789 107.357Z" fill="#4C9080"/>
<path d="M14.2969 128.023H369.195" stroke="#E8E8E8" stroke-width="0.39" stroke-miterlimit="10" stroke-linecap="round"/>
<path d="M128.842 153.098H154.577" stroke="#E8E8E8" stroke-width="3.09" stroke-miterlimit="10" stroke-linecap="round"/>
<path d="M57.5527 145.915H100.249" stroke="#E8E8E8" stroke-width="3.09" stroke-miterlimit="10" stroke-linecap="round"/>
<path d="M192.07 141.084H234.767" stroke="#E8E8E8" stroke-width="3.09" stroke-miterlimit="10" stroke-linecap="round"/>
<path d="M192.07 149.366H272.005" stroke="#E8E8E8" stroke-width="3.09" stroke-miterlimit="10" stroke-linecap="round"/>
<path d="M192.07 158.338H233.657" stroke="#E8E8E8" stroke-width="3.09" stroke-miterlimit="10" stroke-linecap="round"/>
<path d="M192.07 167.31H284.962" stroke="#E8E8E8" stroke-width="3.09" stroke-miterlimit="10" stroke-linecap="round"/>
<path d="M43.4482 143.896H24.625V162.76H43.4482V143.896Z" fill="#E8E8E8"/>
<path d="M83.7598 153.251H57.5527V161.457H83.7598V153.251Z" fill="#4C9080"/>
<path d="M335.375 150.887L331.995 154.466L328.603 158.057L325.223 154.466L321.844 150.887" stroke="#E8E8E8" stroke-width="1.55" stroke-miterlimit="10" stroke-linecap="round"/>
<path d="M360.281 148.82L356.191 146.051L348.43 157.561L352.519 160.331L360.281 148.82Z" stroke="#E8E8E8" stroke-width="0.86" stroke-miterlimit="10" stroke-linecap="round"/>
<path d="M352.5 160.472L350.447 161.303L348.381 162.121V159.897V157.673" stroke="#E8E8E8" stroke-width="0.86" stroke-miterlimit="10" stroke-linecap="round"/>
<path d="M363.275 145.504L358.352 142.169L356.716 144.594L361.64 147.929L363.275 145.504Z" fill="#E8E8E8"/>
<path d="M32.3793 158.479C32.2383 158.472 32.1001 158.437 31.973 158.376C31.8459 158.314 31.7325 158.227 31.6397 158.121L27.9158 153.878C27.8247 153.776 27.7546 153.656 27.7097 153.527C27.6648 153.398 27.6459 153.261 27.6543 153.124C27.6626 152.987 27.6978 152.854 27.7581 152.731C27.8183 152.608 27.9023 152.498 28.0051 152.408C28.108 152.316 28.2279 152.246 28.358 152.2C28.4881 152.155 28.6259 152.136 28.7633 152.145C28.9008 152.153 29.0352 152.188 29.159 152.249C29.2827 152.309 29.3933 152.394 29.4844 152.497L32.4431 155.923L39.6102 148.893C39.7062 148.796 39.8204 148.719 39.9463 148.667C40.0721 148.614 40.2071 148.587 40.3435 148.587C40.4798 148.587 40.6148 148.614 40.7406 148.667C40.8665 148.719 40.9807 148.796 41.0767 148.893C41.1739 148.991 41.251 149.106 41.3036 149.233C41.3562 149.361 41.3833 149.497 41.3833 149.635C41.3833 149.772 41.3562 149.909 41.3036 150.036C41.251 150.163 41.1739 150.278 41.0767 150.376L33.1573 158.134C33.06 158.244 32.9401 158.332 32.8059 158.391C32.6716 158.451 32.5261 158.481 32.3793 158.479Z" fill="#4C9080"/>
<path d="M14.2969 179.094H369.195" stroke="#E8E8E8" stroke-width="0.39" stroke-miterlimit="10" stroke-linecap="round"/>
<path d="M128.842 204.169H154.577" stroke="#E8E8E8" stroke-width="3.09" stroke-miterlimit="10" stroke-linecap="round"/>
<path d="M57.5527 196.986H100.249" stroke="#E8E8E8" stroke-width="3.09" stroke-miterlimit="10" stroke-linecap="round"/>
<path d="M192.07 192.155H234.767" stroke="#E8E8E8" stroke-width="3.09" stroke-miterlimit="10" stroke-linecap="round"/>
<path d="M192.07 200.437H272.005" stroke="#E8E8E8" stroke-width="3.09" stroke-miterlimit="10" stroke-linecap="round"/>
<path d="M192.07 209.422H233.657" stroke="#E8E8E8" stroke-width="3.09" stroke-miterlimit="10" stroke-linecap="round"/>
<path d="M192.07 218.394H284.962" stroke="#E8E8E8" stroke-width="3.09" stroke-miterlimit="10" stroke-linecap="round"/>
<path d="M43.4482 194.967H24.625V213.831H43.4482V194.967Z" fill="#E8E8E8"/>
<path d="M83.7598 204.335H57.5527V212.54H83.7598V204.335Z" fill="#4C9080"/>
<path d="M335.375 201.958L331.995 205.537L328.603 209.128L325.223 205.537L321.844 201.958" stroke="#E8E8E8" stroke-width="1.55" stroke-miterlimit="10" stroke-linecap="round"/>
<path d="M360.281 199.9L356.191 197.131L348.43 208.641L352.519 211.411L360.281 199.9Z" stroke="#E8E8E8" stroke-width="0.86" stroke-miterlimit="10" stroke-linecap="round"/>
<path d="M352.5 211.543L350.447 212.374L348.381 213.192V210.968V208.757" stroke="#E8E8E8" stroke-width="0.86" stroke-miterlimit="10" stroke-linecap="round"/>
<path d="M363.283 196.573L358.359 193.239L356.724 195.664L361.648 198.998L363.283 196.573Z" fill="#E8E8E8"/>
<path d="M32.3793 209.511C32.2383 209.505 32.1001 209.47 31.973 209.408C31.8459 209.347 31.7325 209.26 31.6397 209.153L27.9158 204.91C27.8247 204.808 27.7546 204.689 27.7097 204.56C27.6648 204.43 27.6459 204.293 27.6543 204.157C27.6626 204.02 27.6978 203.886 27.7581 203.763C27.8183 203.64 27.9023 203.531 28.0051 203.44C28.108 203.349 28.2279 203.278 28.358 203.233C28.4881 203.188 28.6259 203.169 28.7633 203.177C28.9008 203.186 29.0352 203.221 29.159 203.281C29.2827 203.342 29.3933 203.426 29.4844 203.53L32.4814 206.942L39.6484 199.913C39.7445 199.816 39.8587 199.739 39.9845 199.686C40.1104 199.634 40.2454 199.607 40.3817 199.607C40.5181 199.607 40.653 199.634 40.7789 199.686C40.9048 199.739 41.019 199.816 41.115 199.913C41.2122 200.01 41.2893 200.126 41.3419 200.253C41.3945 200.38 41.4215 200.517 41.4215 200.654C41.4215 200.792 41.3945 200.928 41.3419 201.055C41.2893 201.183 41.2122 201.298 41.115 201.396L33.1573 209.204C33.0566 209.308 32.9352 209.388 32.8011 209.441C32.667 209.494 32.5233 209.518 32.3793 209.511Z" fill="#4C9080"/>
<path d="M23.0195 230.165H377.918" stroke="#E8E8E8" stroke-width="0.39" stroke-miterlimit="10" stroke-linecap="round"/>
<path d="M371.031 230.165H14.2969V271.74H371.031V230.165Z" fill="#4D5664"/>
<path d="M57.5527 246.69H100.249" stroke="white" stroke-width="3.09" stroke-miterlimit="10" stroke-linecap="round"/>
<path d="M57.5527 256.352H71.8359" stroke="white" stroke-width="3.09" stroke-miterlimit="10" stroke-linecap="round"/>
<path d="M129.174 246.23H163.517" stroke="white" stroke-width="3.09" stroke-miterlimit="10" stroke-linecap="round"/>
<path d="M129.174 255.892H141.863" stroke="white" stroke-width="3.09" stroke-miterlimit="10" stroke-linecap="round"/>
<path d="M192.988 245.31H205.677" stroke="white" stroke-width="3.09" stroke-miterlimit="10" stroke-linecap="round"/>
</g>
<defs>
<clipPath id="clip0_728_23245">
<rect width="384" height="291" fill="white"/>
</clipPath>
</defs>
</svg>
