<svg width="77" height="111" viewBox="0 0 77 111" fill="none" xmlns="http://www.w3.org/2000/svg">
<path d="M0.25 63.55C0.25 57.45 0.7 51.4 1.6 45.4C2.5 39.3 4.05 33.6 6.25 28.3C8.55 22.9 11.75 18.15 15.85 14.05C20.05 9.85 25.3 6.55 31.6 4.14999C38 1.74999 45.8 0.549993 55 0.549993C57.1 0.549993 59.6 0.649994 62.5 0.849998C65.4 1.05 67.85 1.34999 69.85 1.74999V21.85C67.85 21.45 65.65 21.15 63.25 20.95C60.95 20.65 58.35 20.5 55.45 20.5C49.35 20.5 44.25 21.25 40.15 22.75C36.15 24.15 32.95 26.2 30.55 28.9C28.25 31.6 26.55 34.8 25.45 38.5C24.35 42.2 23.7 46.35 23.5 50.95H24.4C25.7 48.55 27.3 46.45 29.2 44.65C31.2 42.75 33.6 41.25 36.4 40.15C39.3 39.05 42.7 38.5 46.6 38.5C52.9 38.5 58.3 39.85 62.8 42.55C67.3 45.25 70.75 49.15 73.15 54.25C75.65 59.35 76.9 65.55 76.9 72.85C76.9 80.75 75.4 87.55 72.4 93.25C69.4 98.85 65.15 103.15 59.65 106.15C54.15 109.05 47.55 110.5 39.85 110.5C34.25 110.5 29.05 109.55 24.25 107.65C19.45 105.75 15.25 102.9 11.65 99.1C8.05 95.2 5.25 90.3 3.25 84.4C1.25 78.5 0.25 71.55 0.25 63.55ZM39.4 90.1C43.2 90.1 46.25 88.75 48.55 86.05C50.95 83.35 52.15 79.1 52.15 73.3C52.15 68.6 51.15 64.95 49.15 62.35C47.15 59.65 44 58.3 39.7 58.3C36.8 58.3 34.3 58.95 32.2 60.25C30.1 61.55 28.45 63.25 27.25 65.35C26.15 67.35 25.6 69.45 25.6 71.65C25.6 73.85 25.9 76.05 26.5 78.25C27.1 80.45 27.95 82.45 29.05 84.25C30.15 86.05 31.55 87.5 33.25 88.6C35.05 89.6 37.1 90.1 39.4 90.1Z" fill="url(#paint0_linear_728_23127)"/>
<defs>
<linearGradient id="paint0_linear_728_23127" x1="38.5" y1="-26" x2="38.5" y2="109" gradientUnits="userSpaceOnUse">
<stop stop-color="#EBDEC7"/>
<stop offset="0.533333" stop-color="#EBDEC7" stop-opacity="0.56875"/>
<stop offset="1" stop-color="#EBDEC7" stop-opacity="0"/>
</linearGradient>
</defs>
</svg>
