<svg width="344" height="291" viewBox="0 0 344 291" fill="none" xmlns="http://www.w3.org/2000/svg">
<g clip-path="url(#clip0_728_23345)">
<path d="M256.754 0H16.6604C7.45913 0 0 7.47572 0 16.6975V234.232C0 243.453 7.45913 250.929 16.6604 250.929H256.754C265.955 250.929 273.414 243.453 273.414 234.232V16.6975C273.414 7.47572 265.955 0 256.754 0Z" fill="#D1D1D2"/>
<path opacity="0.5" d="M332.774 182.241H110.925C104.717 182.241 99.6836 187.285 99.6836 193.507V279.749C99.6836 285.971 104.717 291.016 110.925 291.016H332.774C338.983 291.016 344.016 285.971 344.016 279.749V193.507C344.016 187.285 338.983 182.241 332.774 182.241Z" fill="white"/>
<path d="M143.873 229.517H133.035V276.388H143.873V229.517Z" fill="#C7C7C7"/>
<path d="M170.766 210.469H159.928V276.388H170.766V210.469Z" fill="#C7C7C7"/>
<path d="M197.674 200.541H186.836V276.403H197.674V200.541Z" fill="#C7C7C7"/>
<path d="M224.566 196.402H213.729V276.403H224.566V196.402Z" fill="#C7C7C7"/>
<path d="M143.873 246.977H133.035V276.388H143.873V246.977Z" fill="#4F9984"/>
<path d="M170.766 235.041H159.928V276.403H170.766V235.041Z" fill="#4F9984"/>
<path d="M197.674 228.801H186.836V276.388H197.674V228.801Z" fill="#4F9984"/>
<path d="M224.566 226.202H213.729V276.388H224.566V226.202Z" fill="#4F9984"/>
<path d="M291.798 143.306H327.991" stroke="#919191" stroke-width="3.75" stroke-linecap="round" stroke-linejoin="round"/>
<path d="M309.888 125.161V161.451" stroke="#919191" stroke-width="3.75" stroke-linecap="round" stroke-linejoin="round"/>
<path d="M142.848 76.8428C137.181 60.9532 125.449 47.9703 110.232 40.7504C95.0142 33.5304 77.5583 32.6646 61.7039 38.3436C45.8496 44.0226 32.8956 55.7811 25.6916 71.0324C18.4876 86.2837 17.6238 103.778 23.2902 119.668C23.7715 121.006 24.2839 122.345 24.8429 123.636C31.0343 139.319 43.1885 151.895 58.6316 158.597C74.0747 165.299 91.5417 165.578 107.19 159.373C122.839 153.168 135.387 140.987 142.074 125.509C148.761 110.032 149.039 92.526 142.848 76.8428ZM99.0773 143.166C87.7217 147.245 75.2433 146.844 64.1716 142.045C53.1 137.245 44.2636 128.405 39.4538 117.318C39.0346 116.338 38.6464 115.342 38.2893 114.346C36.1801 108.45 35.2508 102.196 35.5547 95.9406C35.8585 89.685 37.3895 83.5507 40.06 77.8884C42.7306 72.2262 46.4884 67.1468 51.1187 62.9409C55.749 58.7349 61.1609 55.4847 67.0452 53.376C72.9278 51.2681 79.1671 50.342 85.4068 50.6507C91.6465 50.9594 97.7644 52.4968 103.411 55.1752C109.058 57.8535 114.123 61.6203 118.318 66.2606C122.512 70.9008 125.753 76.3236 127.857 82.2193C129.96 88.1149 130.884 94.3681 130.576 100.622C130.268 106.875 128.734 113.007 126.061 118.666C123.389 124.326 119.631 129.402 115.001 133.606C110.371 137.809 104.96 141.058 99.0773 143.166Z" fill="#919191"/>
<path d="M66.4242 113.599C66.0336 113.077 65.7921 112.458 65.7255 111.809C65.6421 111.154 65.7112 110.488 65.9274 109.864C66.1472 109.259 66.5221 108.722 67.0143 108.308C67.5212 107.881 68.1691 107.659 68.8309 107.686C69.4245 107.709 69.9977 107.909 70.4768 108.261C71.0202 108.65 71.6258 109.117 72.2934 109.677C72.9611 110.238 73.6909 110.813 74.5138 111.451C75.3969 112.142 76.3371 112.757 77.3242 113.288L78.8769 114.035L78.9545 98.5665L75.0728 96.7458C73.52 96.0194 72.056 95.1161 70.7097 94.0536C69.3106 92.9881 68.0895 91.7064 67.0919 90.2566C66.0715 88.7925 65.529 87.0473 65.5392 85.2614C65.5636 83.7621 65.8967 82.2841 66.5174 80.9197C67.135 79.483 68.0143 78.1743 69.1104 77.0605C70.3188 75.8532 71.7334 74.8728 73.2872 74.1661C75.0676 73.3699 76.957 72.8454 78.8924 72.6099V69.7622C78.8715 68.105 79.0646 66.4522 79.4669 64.8447C79.6083 64.1968 79.982 63.6234 80.5172 63.2333C81.0524 62.8432 81.7118 62.6635 82.3704 62.7284C82.9915 62.6637 83.6151 62.8244 84.1279 63.1814C84.6407 63.5383 85.0088 64.0677 85.1653 64.6735C85.5883 66.1925 85.7871 67.7653 85.7553 69.342C85.7553 69.9437 85.7553 70.5195 85.7553 71.0693C85.7553 71.6295 85.7553 72.2053 85.7553 72.8122C86.7747 72.9946 87.7809 73.2441 88.7675 73.5592C90.0915 73.9565 91.3881 74.4399 92.6493 75.0064C93.8624 75.5277 94.9925 76.2251 96.0031 77.0761C96.4235 77.3902 96.7675 77.7955 97.0095 78.2617C97.2515 78.7279 97.3852 79.2429 97.4005 79.7682C97.3971 80.5847 97.0737 81.3671 96.5 81.9468C96.1918 82.2719 95.8173 82.5264 95.4019 82.6929C94.9865 82.8594 94.5401 82.934 94.0933 82.9116C93.3279 82.9023 92.5705 82.7547 91.8574 82.4759C91.0811 82.1958 90.3047 81.9001 89.5439 81.5733L87.3546 80.5774C86.8067 80.293 86.2414 80.0435 85.6622 79.8304C85.6622 82.258 85.6622 84.6545 85.6622 87.0198C85.6622 89.3852 85.6622 91.8284 85.6622 94.3026C87.4167 94.9718 89.1868 95.6565 90.9413 96.3723C92.6415 97.0564 94.2525 97.9448 95.7392 99.0178C97.0962 100.029 98.2589 101.279 99.1706 102.706C100.104 104.246 100.574 106.024 100.521 107.826C100.586 109.87 100.121 111.897 99.1706 113.708C98.2893 115.274 97.0946 116.641 95.6615 117.723C94.1938 118.812 92.5643 119.662 90.8326 120.244C89.0924 120.835 87.3127 121.303 85.5069 121.644V124.492C85.5069 125.457 85.5069 126.437 85.5069 127.433C85.3165 128.335 84.8366 129.149 84.1405 129.752C83.5681 130.215 82.8575 130.472 82.122 130.483C81.716 130.518 81.3074 130.46 80.9277 130.311C80.5481 130.163 80.2076 129.929 79.9327 129.627C79.446 128.983 79.1212 128.23 78.9856 127.433C78.8378 126.46 78.7806 125.476 78.8148 124.492C78.8148 123.387 78.8148 122.344 78.8148 121.38H78.7216C77.1951 120.955 75.6964 120.435 74.2343 119.823C73.0944 119.389 72.0103 118.819 71.0047 118.127C70.1295 117.521 69.3179 116.828 68.5825 116.058C67.8682 115.326 67.1385 114.501 66.4242 113.599ZM78.8458 79.6748C78.349 79.8304 77.8055 80.0016 77.2 80.1572C76.582 80.3336 75.9876 80.5844 75.4299 80.9042C74.8612 81.2507 74.3394 81.6691 73.8772 82.1491C73.3521 82.6835 72.9495 83.326 72.6971 84.032C72.6907 84.8381 72.85 85.6369 73.1652 86.3786C73.4805 87.1202 73.9448 87.7888 74.5293 88.3426C75.8001 89.603 77.2622 90.6535 78.8613 91.4549L78.8458 79.6748ZM85.5379 101.259C85.5379 103.531 85.5379 105.756 85.5379 107.966C85.5379 110.175 85.5379 112.385 85.5379 114.579C86.4951 114.464 87.4341 114.229 88.3328 113.879C89.4731 113.445 90.5787 112.925 91.64 112.323C92.5656 111.595 93.2082 110.565 93.4567 109.413C93.5585 108.836 93.5378 108.244 93.396 107.675C93.2542 107.107 92.9945 106.575 92.6338 106.114C91.5314 105.18 90.4755 104.324 89.5284 103.593C88.2805 102.716 86.9613 101.945 85.5845 101.29L85.5379 101.259Z" fill="#504F4F"/>
<path d="M177.085 85.5881H248.819C250.1 85.5881 251.328 85.0782 252.234 84.1706C253.139 83.263 253.648 82.032 253.648 80.7485C253.648 79.4635 253.14 78.2309 252.235 77.3209C251.33 76.4108 250.101 75.8974 248.819 75.8933H177.085C175.803 75.8974 174.574 76.4108 173.669 77.3209C172.764 78.2309 172.256 79.4635 172.256 80.7485C172.256 82.032 172.765 83.263 173.67 84.1706C174.576 85.0782 175.804 85.5881 177.085 85.5881Z" fill="#919191"/>
<path d="M177.085 102.488H248.819C250.1 102.488 251.328 101.978 252.234 101.071C253.139 100.163 253.648 98.9319 253.648 97.6484C253.648 96.3634 253.14 95.1308 252.235 94.2208C251.33 93.3107 250.101 92.7973 248.819 92.7932H177.085C175.803 92.7973 174.574 93.3107 173.669 94.2208C172.764 95.1308 172.256 96.3634 172.256 97.6484C172.256 98.9319 172.765 100.163 173.67 101.071C174.576 101.978 175.804 102.488 177.085 102.488Z" fill="#919191"/>
<path d="M177.085 119.403H248.819C250.1 119.403 251.328 118.893 252.234 117.986C253.139 117.078 253.648 115.847 253.648 114.564C253.648 113.279 253.14 112.046 252.235 111.136C251.33 110.226 250.101 109.713 248.819 109.708H177.085C175.803 109.713 174.574 110.226 173.669 111.136C172.764 112.046 172.256 113.279 172.256 114.564C172.256 115.847 172.765 117.078 173.67 117.986C174.576 118.893 175.804 119.403 177.085 119.403Z" fill="#919191"/>
<path d="M264.579 262.164C266.034 262.166 267.464 262.536 268.738 263.241C270.011 263.945 271.086 264.962 271.861 266.195H297.807C298.79 264.631 300.249 263.425 301.968 262.756V228.754H245.745V266.273H257.297C258.061 265.023 259.132 263.99 260.406 263.271C261.68 262.552 263.117 262.171 264.579 262.164Z" fill="#919191"/>
<path d="M245.745 269.447C245.746 269.627 245.785 269.805 245.86 269.969C245.935 270.133 246.044 270.278 246.18 270.396C246.475 270.646 246.849 270.784 247.236 270.785H255.977C255.978 269.648 256.199 268.523 256.63 267.471H245.761L245.745 269.447Z" fill="#919191"/>
<path d="M273.181 270.77H296.472C296.472 269.633 296.694 268.507 297.124 267.456H272.529C272.96 268.507 273.181 269.633 273.181 270.77Z" fill="#919191"/>
<path d="M320.896 243.024C318.637 240.57 315.685 238.866 312.434 238.137C309.519 237.834 306.591 237.678 303.661 237.67V262.289C304.132 262.2 304.611 262.159 305.09 262.164C307.36 262.177 309.534 263.088 311.137 264.7C312.739 266.312 313.641 268.494 313.645 270.77H320.849C321.797 270.77 322.705 270.393 323.375 269.721C324.044 269.05 324.421 268.14 324.421 267.191V251.629C324.429 248.406 323.162 245.311 320.896 243.024ZM321.952 254.601C321.952 254.791 321.911 254.979 321.83 255.151C321.75 255.324 321.632 255.476 321.486 255.597C321.342 255.715 321.175 255.799 320.995 255.845C320.815 255.89 320.628 255.896 320.446 255.862L307.698 253.31C307.414 253.249 307.157 253.096 306.968 252.874C306.787 252.643 306.689 252.358 306.689 252.065V241.172C308.841 241.173 310.992 241.288 313.133 241.514C315.516 242.05 317.682 243.298 319.343 245.093C320.177 245.925 320.839 246.915 321.289 248.005C321.739 249.094 321.97 250.263 321.967 251.442L321.952 254.601Z" fill="#919191"/>
<path d="M270.682 266.662C270.558 266.506 270.449 266.335 270.325 266.195C269.635 265.332 268.761 264.635 267.766 264.156C266.772 263.678 265.683 263.429 264.58 263.429C263.476 263.429 262.387 263.678 261.393 264.156C260.399 264.635 259.524 265.332 258.835 266.195C258.71 266.335 258.602 266.506 258.478 266.662C258.307 266.923 258.152 267.193 258.012 267.471C257.451 268.593 257.187 269.84 257.243 271.094C257.299 272.348 257.674 273.566 258.332 274.633C258.99 275.701 259.909 276.582 261.003 277.193C262.096 277.805 263.328 278.125 264.58 278.125C265.832 278.125 267.063 277.805 268.156 277.193C269.25 276.582 270.17 275.701 270.828 274.633C271.486 273.566 271.861 272.348 271.917 271.094C271.973 269.84 271.708 268.593 271.148 267.471C271.007 267.193 270.852 266.923 270.682 266.662ZM264.58 274.598C263.739 274.601 262.921 274.325 262.253 273.813C261.585 273.301 261.106 272.581 260.889 271.767C260.673 270.953 260.732 270.089 261.056 269.312C261.381 268.535 261.954 267.887 262.685 267.471C263.264 267.145 263.916 266.974 264.58 266.974C265.243 266.974 265.895 267.145 266.474 267.471C267.205 267.887 267.778 268.535 268.103 269.312C268.428 270.089 268.487 270.953 268.27 271.767C268.054 272.581 267.574 273.301 266.906 273.813C266.239 274.325 265.42 274.601 264.58 274.598Z" fill="#919191"/>
<path d="M305.089 263.425C304.61 263.424 304.131 263.471 303.661 263.565C303.073 263.671 302.504 263.86 301.968 264.125C300.765 264.686 299.735 265.563 298.987 266.662C298.179 267.885 297.747 269.319 297.745 270.785C297.745 272.241 298.176 273.664 298.983 274.875C299.79 276.085 300.937 277.029 302.279 277.586C303.621 278.143 305.098 278.289 306.522 278.005C307.947 277.721 309.255 277.02 310.283 275.99C311.31 274.961 312.009 273.649 312.293 272.221C312.576 270.794 312.43 269.314 311.875 267.969C311.319 266.624 310.377 265.474 309.17 264.665C307.962 263.857 306.542 263.425 305.089 263.425ZM305.089 274.598C304.583 274.606 304.081 274.513 303.611 274.324C303.141 274.136 302.714 273.855 302.354 273.498C301.994 273.142 301.708 272.717 301.514 272.248C301.32 271.78 301.221 271.277 301.223 270.77C301.22 269.99 301.459 269.229 301.906 268.591C302.328 267.985 302.916 267.515 303.599 267.237C304.051 267.049 304.537 266.954 305.027 266.957C306.036 266.957 307.004 267.359 307.717 268.074C308.431 268.789 308.831 269.759 308.831 270.77C308.831 271.781 308.431 272.751 307.717 273.466C307.004 274.181 306.036 274.582 305.027 274.582L305.089 274.598Z" fill="#919191"/>
<path d="M301.968 231.882H245.745V232.847H301.968V231.882Z" fill="#919191"/>
</g>
<defs>
<clipPath id="clip0_728_23345">
<rect width="344" height="291" fill="white"/>
</clipPath>
</defs>
</svg>
