<svg width="394" height="296" viewBox="0 0 394 296" fill="none" xmlns="http://www.w3.org/2000/svg">
<g clip-path="url(#clip0_714_22800)">
<path d="M331.89 0H13.6378C6.10583 0 0 6.11491 0 13.658V248.012C0 255.555 6.10583 261.67 13.6378 261.67H331.89C339.422 261.67 345.528 255.555 345.528 248.012V13.658C345.528 6.11491 339.422 0 331.89 0Z" fill="#4C4C4C"/>
<path d="M4 21.813H340.787V245.217C340.787 248.412 339.52 251.477 337.264 253.736C335.008 255.995 331.948 257.264 328.758 257.264H16.0291C12.8388 257.264 9.77915 255.995 7.52325 253.736C5.26735 251.477 4 248.412 4 245.217V21.813Z" fill="white"/>
<g opacity="0.2">
<path d="M15.9585 13.0162C15.9529 13.6105 15.7715 14.1899 15.4375 14.6811C15.1034 15.1723 14.6315 15.5534 14.0813 15.7763C13.5312 15.9992 12.9274 16.0539 12.3463 15.9335C11.7651 15.813 11.2326 15.5229 10.8159 15.0997C10.3993 14.6764 10.1171 14.139 10.0051 13.5554C9.89315 12.9717 9.9563 12.3679 10.1866 11.8201C10.417 11.2724 10.8042 10.8052 11.2994 10.4777C11.7945 10.1501 12.3755 9.97674 12.969 9.97953C13.3652 9.97948 13.7575 10.0583 14.123 10.2114C14.4885 10.3646 14.82 10.5889 15.0981 10.8715C15.3763 11.1541 15.5956 11.4892 15.7433 11.8574C15.891 12.2256 15.9641 12.6195 15.9585 13.0162Z" fill="white"/>
<path d="M25.8664 13.0164C25.8579 13.6067 25.6755 14.1813 25.3419 14.668C25.0083 15.1547 24.5386 15.5317 23.9916 15.7518C23.4447 15.9718 22.845 16.0251 22.2679 15.9048C21.6909 15.7845 21.1622 15.496 20.7484 15.0756C20.3345 14.6553 20.054 14.1218 19.9421 13.5422C19.8302 12.9626 19.8918 12.3629 20.1193 11.8183C20.3467 11.2737 20.7299 10.8086 21.2205 10.4815C21.7112 10.1544 22.2874 9.9798 22.8769 9.97974C23.2731 9.9797 23.6653 10.0585 24.0309 10.2117C24.3964 10.3648 24.7278 10.5891 25.006 10.8717C25.2842 11.1543 25.5035 11.4894 25.6512 11.8576C25.7989 12.2258 25.872 12.6197 25.8664 13.0164Z" fill="white"/>
<path d="M35.7886 13.0165C35.7829 13.6084 35.603 14.1854 35.2714 14.6754C34.9398 15.1654 34.4713 15.5465 33.9244 15.771C33.3775 15.9956 32.7767 16.0535 32.1971 15.9377C31.6175 15.8218 31.0849 15.5373 30.666 15.1198C30.2471 14.7022 29.9605 14.1702 29.8421 13.5902C29.7237 13.0103 29.7788 12.4083 30.0004 11.8596C30.2221 11.3109 30.6004 10.8399 31.0881 10.5055C31.5758 10.1711 32.1512 9.98824 32.7421 9.9798C33.1431 9.9721 33.5415 10.0453 33.9137 10.195C34.2858 10.3447 34.6241 10.5679 34.9083 10.8512C35.1926 11.1345 35.417 11.4723 35.5682 11.8442C35.7194 12.2162 35.7944 12.6149 35.7886 13.0165Z" fill="white"/>
</g>
<path d="M95.0654 71.4695H133.487" stroke="#DCDCDC" stroke-width="2.49097" stroke-miterlimit="10" stroke-linecap="round"/>
<path d="M154.399 71.4695H192.821" stroke="#DCDCDC" stroke-width="2.49097" stroke-miterlimit="10" stroke-linecap="round"/>
<path d="M213.734 75.604H252.156" stroke="#DCDCDC" stroke-width="2.49097" stroke-miterlimit="10" stroke-linecap="round"/>
<path d="M213.734 67.7341H252.156" stroke="#DCDCDC" stroke-width="2.49097" stroke-miterlimit="10" stroke-linecap="round"/>
<path d="M307.575 64.8401H276.997V77.6712H307.575V64.8401Z" fill="#DCDCDC"/>
<path d="M325.868 64.8401H312.103V77.6712H325.868V64.8401Z" fill="#DCDCDC"/>
<path d="M18.2363 112.016H332.204" stroke="#DCDCDC" stroke-width="0.207581" stroke-miterlimit="10" stroke-linecap="round"/>
<path d="M95.0654 150.908H133.487" stroke="#DCDCDC" stroke-width="2.49097" stroke-miterlimit="10" stroke-linecap="round"/>
<path d="M154.399 150.908H192.821" stroke="#DCDCDC" stroke-width="2.49097" stroke-miterlimit="10" stroke-linecap="round"/>
<path d="M213.734 155.043H252.156" stroke="#DCDCDC" stroke-width="2.49097" stroke-miterlimit="10" stroke-linecap="round"/>
<path d="M213.734 147.173H252.156" stroke="#DCDCDC" stroke-width="2.49097" stroke-miterlimit="10" stroke-linecap="round"/>
<path d="M307.575 144.279H276.997V157.11H307.575V144.279Z" fill="#DCDCDC"/>
<path d="M325.868 144.279H312.103V157.11H325.868V144.279Z" fill="#DCDCDC"/>
<path d="M18.2363 191.455H332.204" stroke="#DCDCDC" stroke-width="0.207581" stroke-miterlimit="10" stroke-linecap="round"/>
<path d="M95.0654 228.28H133.487" stroke="#DCDCDC" stroke-width="2.49097" stroke-miterlimit="10" stroke-linecap="round"/>
<path d="M154.399 228.28H192.821" stroke="#DCDCDC" stroke-width="2.49097" stroke-miterlimit="10" stroke-linecap="round"/>
<path d="M213.734 232.415H252.156" stroke="#DCDCDC" stroke-width="2.49097" stroke-miterlimit="10" stroke-linecap="round"/>
<path d="M213.734 224.545H252.156" stroke="#DCDCDC" stroke-width="2.49097" stroke-miterlimit="10" stroke-linecap="round"/>
<path d="M307.575 221.651H276.997V234.482H307.575V221.651Z" fill="#DCDCDC"/>
<path d="M325.868 226.897H312.103V239.728H325.868V226.897Z" fill="#DCDCDC"/>
<path d="M378.085 88.4207H311.519C302.729 88.4207 295.604 95.5568 295.604 104.36V280.061C295.604 288.864 302.729 296 311.519 296H378.085C386.875 296 394 288.864 394 280.061V104.36C394 95.5568 386.875 88.4207 378.085 88.4207Z" fill="#4C4C4C"/>
<path d="M377.472 91.0012H312.131C304.709 91.0012 298.692 97.0268 298.692 104.46V279.362C298.692 286.795 304.709 292.821 312.131 292.821H377.472C384.894 292.821 390.911 286.795 390.911 279.362V104.46C390.911 97.0268 384.894 91.0012 377.472 91.0012Z" fill="white"/>
<path d="M342.396 201.406H304.813V239.044H342.396V201.406Z" fill="#DCDCDC"/>
<path d="M339.078 272.604H308.329C306.309 272.604 304.671 274.245 304.671 276.268V283.026C304.671 285.05 306.309 286.69 308.329 286.69H339.078C341.099 286.69 342.737 285.05 342.737 283.026V276.268C342.737 274.245 341.099 272.604 339.078 272.604Z" fill="#DCDCDC"/>
<path d="M305.725 247.769H341.399" stroke="#DCDCDC" stroke-width="2.04581" stroke-miterlimit="10" stroke-linecap="round"/>
<path d="M305.725 255.653H341.399" stroke="#DCDCDC" stroke-width="2.04581" stroke-miterlimit="10" stroke-linecap="round"/>
<path d="M305.725 264.735H341.399" stroke="#DCDCDC" stroke-width="2.04581" stroke-miterlimit="10" stroke-linecap="round"/>
<path d="M385.031 201.406H347.449V239.044H385.031V201.406Z" fill="#DCDCDC"/>
<path d="M381.701 272.604H350.952C348.931 272.604 347.293 274.245 347.293 276.268V283.026C347.293 285.05 348.931 286.69 350.952 286.69H381.701C383.721 286.69 385.359 285.05 385.359 283.026V276.268C385.359 274.245 383.721 272.604 381.701 272.604Z" fill="#DCDCDC"/>
<path d="M348.347 247.769H384.035" stroke="#DCDCDC" stroke-width="2.04581" stroke-miterlimit="10" stroke-linecap="round"/>
<path d="M348.347 255.653H384.035" stroke="#DCDCDC" stroke-width="2.04581" stroke-miterlimit="10" stroke-linecap="round"/>
<path d="M348.347 264.735H384.035" stroke="#DCDCDC" stroke-width="2.04581" stroke-miterlimit="10" stroke-linecap="round"/>
<path d="M79.2355 43.0557H23.873V98.5004H79.2355V43.0557Z" fill="#DCDCDC"/>
<path d="M46.0527 70.7708H57.0711" stroke="#919090" stroke-width="1.24548" stroke-linecap="round" stroke-linejoin="round"/>
<path d="M51.5615 65.2534V76.2882" stroke="#919090" stroke-width="1.24548" stroke-linecap="round" stroke-linejoin="round"/>
<path d="M79.2355 124.975H23.873V180.42H79.2355V124.975Z" fill="#DCDCDC"/>
<path d="M46.0527 152.69H57.0711" stroke="#919090" stroke-width="1.24548" stroke-linecap="round" stroke-linejoin="round"/>
<path d="M51.5615 147.173V158.208" stroke="#919090" stroke-width="1.24548" stroke-linecap="round" stroke-linejoin="round"/>
<path d="M79.2355 202.76H23.873V257.321H79.2355V202.76Z" fill="#DCDCDC"/>
<path d="M46.0527 230.476H57.0711" stroke="#919090" stroke-width="1.24548" stroke-linecap="round" stroke-linejoin="round"/>
<path d="M51.5615 224.958V235.993" stroke="#919090" stroke-width="1.24548" stroke-linecap="round" stroke-linejoin="round"/>
<path d="M318.124 220.211H329.142" stroke="#919090" stroke-width="1.24548" stroke-linecap="round" stroke-linejoin="round"/>
<path d="M323.633 214.693V225.728" stroke="#919090" stroke-width="1.24548" stroke-linecap="round" stroke-linejoin="round"/>
<path d="M360.816 220.211H371.835" stroke="#919090" stroke-width="1.24548" stroke-linecap="round" stroke-linejoin="round"/>
<path d="M366.326 214.693V225.728" stroke="#919090" stroke-width="1.24548" stroke-linecap="round" stroke-linejoin="round"/>
<path d="M385.302 93.3964V197.1H305.212V93.0257C307.157 91.7951 309.368 91.0518 311.661 90.8586H378.668C378.668 90.8586 383.978 91.4289 385.302 93.3964Z" fill="#DCDCDC"/>
<path d="M320.743 89.0195L321.156 93.0257C321.383 94.3556 322.087 95.5569 323.135 96.4046C324.183 97.2523 325.504 97.6882 326.85 97.6307H362.624C363.97 97.6882 365.291 97.2523 366.339 96.4046C367.388 95.5569 368.091 94.3556 368.319 93.0257L368.732 89.0195H320.743Z" fill="#4C4C4C"/>
</g>
<defs>
<clipPath id="clip0_714_22800">
<rect width="394" height="296" fill="white"/>
</clipPath>
</defs>
</svg>
