<svg width="335" height="292" viewBox="0 0 335 292" fill="none" xmlns="http://www.w3.org/2000/svg">
<g clip-path="url(#clip0_728_23316)">
<path d="M318.362 93.3142H152.814C143.625 93.3142 136.176 100.758 136.176 109.941V275.373C136.176 284.556 143.625 292 152.814 292H318.362C327.551 292 335 284.556 335 275.373V109.941C335 100.758 327.551 93.3142 318.362 93.3142Z" fill="#E8E8E8"/>
<path d="M110.007 47.1096H13.7636C6.16215 47.1096 0 53.2675 0 60.8636V157.039C0 164.636 6.16215 170.793 13.7636 170.793H110.007C117.608 170.793 123.77 164.636 123.77 157.039V60.8636C123.77 53.2675 117.608 47.1096 110.007 47.1096Z" fill="#E8E8E8"/>
<path d="M35.5632 129.034H24.3916V117.87H26.4403V126.975H35.5632V129.034Z" fill="white"/>
<path d="M102.118 129.034H90.9463V126.975H100.058V117.87H102.118V129.034Z" fill="white"/>
<path d="M26.4403 71.4957H24.3916V60.3433H35.5632V62.4018H26.4403V71.4957Z" fill="white"/>
<path d="M102.118 71.4957H100.058V62.4018H90.9463V60.3433H102.118V71.4957Z" fill="white"/>
<path d="M86.8594 142.052H29.5527V146.034H86.8594V142.052Z" fill="#4C9080"/>
<path d="M68.7608 151.61H29.5527V155.592H68.7608V151.61Z" fill="#4C9080"/>
<path d="M218.949 0H164.642C156.859 0 150.55 6.30471 150.55 14.082V68.3512C150.55 76.1285 156.859 82.4332 164.642 82.4332H218.949C226.731 82.4332 233.041 76.1285 233.041 68.3512V14.082C233.041 6.30471 226.731 0 218.949 0Z" fill="#4D5664"/>
<path d="M207.133 82.4333V50.7631H217.761L219.368 38.4569H207.133V30.5393C207.133 26.9651 208.118 24.5333 213.245 24.5333H219.776V13.5731C216.614 13.2334 213.436 13.071 210.257 13.0867C200.828 13.0867 194.411 18.8326 194.411 29.3856V38.4343H183.76V50.7857H194.411V82.456L207.133 82.4333Z" fill="white"/>
<path d="M62.6496 96.0627C69.8196 96.0627 75.6321 90.2543 75.6321 83.0892C75.6321 75.9242 69.8196 70.1157 62.6496 70.1157C55.4795 70.1157 49.667 75.9242 49.667 83.0892C49.667 90.2543 55.4795 96.0627 62.6496 96.0627Z" fill="white"/>
<path d="M63.2261 99.5352C57.7304 99.5468 52.357 101.157 47.7622 104.17C43.1673 107.183 39.5498 111.468 37.3516 116.501H89.1234C86.9235 111.464 83.3026 107.177 78.7033 104.164C74.104 101.151 68.7257 99.5424 63.2261 99.5352Z" fill="white"/>
<path d="M141.201 17.0793H139.492" stroke="#888787" stroke-width="1.81" stroke-miterlimit="10"/>
<path d="M136.368 17.0793H106.679" stroke="#888787" stroke-width="1.81" stroke-miterlimit="10" stroke-dasharray="2.76 2.76"/>
<path d="M105.117 17.0793H103.408V18.7873" stroke="#888787" stroke-width="1.81" stroke-miterlimit="10"/>
<path d="M103.408 22.1125V33.774" stroke="#888787" stroke-width="1.81" stroke-miterlimit="10" stroke-dasharray="2.95 2.95"/>
<path d="M103.408 35.448V37.1559" stroke="#888787" stroke-width="1.81" stroke-miterlimit="10"/>
<path d="M32.1338 179.118V221.669H124.936" stroke="#888787" stroke-width="1.81" stroke-miterlimit="10" stroke-dasharray="3.02 3.02"/>
<path d="M219.164 159.98L211.592 152.096L204.02 144.213L211.592 136.329L219.164 128.446" stroke="#4D5664" stroke-width="4.28" stroke-miterlimit="10" stroke-linecap="round"/>
<path d="M250.834 128.446L258.406 136.329L265.978 144.213L258.406 152.096L250.834 159.98" stroke="#4D5664" stroke-width="4.28" stroke-miterlimit="10" stroke-linecap="round"/>
<path d="M242.571 125.641L226.046 162.785" stroke="#4D5664" stroke-width="4.28" stroke-miterlimit="10" stroke-linecap="round"/>
<path d="M149.543 199.896H228.027" stroke="#888787" stroke-width="6.4" stroke-miterlimit="10" stroke-linecap="round"/>
<path d="M149.543 264.503H271.774" stroke="#888787" stroke-width="6.4" stroke-miterlimit="10" stroke-linecap="round"/>
<path d="M149.543 215.075H296.46" stroke="#888787" stroke-width="6.4" stroke-miterlimit="10" stroke-linecap="round"/>
<path d="M149.543 231.51H225.967" stroke="#888787" stroke-width="6.4" stroke-miterlimit="10" stroke-linecap="round"/>
<path d="M149.543 247.956H320.263" stroke="#888787" stroke-width="6.4" stroke-miterlimit="10" stroke-linecap="round"/>
</g>
<defs>
<clipPath id="clip0_728_23316">
<rect width="335" height="292" fill="white"/>
</clipPath>
</defs>
</svg>
