<svg width="301" height="79" viewBox="0 0 301 79" fill="none" xmlns="http://www.w3.org/2000/svg">
<path d="M19.4798 23.209C15.9476 20.0792 12.2789 18.8575 9.65582 18.394V19.0372C9.65582 19.0372 13.17 18.9581 13.17 23.9887V50.2698C12.5161 60.144 5.95117 59.2996 5.95117 59.2996V59.9428C5.95117 59.9428 13.1485 60.7297 19.7565 54.6823L29.9038 44.711V68.3475C34.5248 68.3259 38.3049 63.1588 38.2689 56.8095V36.5615L46.6376 28.412V49.6446C46.6376 49.6446 46.555 53.2773 48.7181 54.9518C55.2399 60.7082 62.2252 59.9464 62.2252 59.9464V59.3032C62.2252 59.3032 55.6603 60.1512 55.0063 50.2734V23.9923C55.0063 18.9617 58.5241 19.0408 58.5241 19.0408V18.3976C55.5992 18.9114 51.3843 20.3703 47.5036 24.3516L38.2689 33.3419V10.0073C33.648 10.0289 29.8715 15.196 29.9038 21.5453V41.4914L21.5387 49.641V28.5306C21.5387 28.5306 21.4848 24.7792 19.4798 23.209Z" fill="black"/>
<path d="M255.002 39.8748C255.002 34.3807 256.964 29.5369 260.888 25.358C264.812 21.1754 269.634 19.0806 275.351 19.0806C280.73 19.0806 285.354 20.9598 289.231 24.7004C293.108 28.4482 295.049 33.1302 295.049 38.7465C295.049 44.3627 293.011 49.422 288.93 53.7088C284.851 57.9991 280.09 60.1479 274.653 60.1479C269.217 60.1479 264.657 58.1716 260.794 54.2262C256.932 50.27 255.002 45.491 255.002 39.8748ZM275.024 21.0533C267.316 21.0533 261.067 29.3932 261.067 39.6879C261.067 49.9826 267.316 58.3261 275.024 58.3261C282.731 58.3261 288.98 49.979 288.98 39.6879C288.98 29.3968 282.731 21.0533 275.024 21.0533Z" fill="black"/>
<path d="M215.323 20.6972C217.457 25.1744 220.386 32.8245 224.109 43.6438C226.509 50.5787 228.162 54.8332 229.067 56.407C229.969 57.9809 231.435 58.8648 233.462 59.0588C234.105 59.1271 234.425 59.3427 234.421 59.7092C234.421 59.9823 234.256 60.1189 233.922 60.1153L233.512 60.0829C231.723 59.9104 229.448 59.8134 226.685 59.7847C222.441 59.7452 219.714 59.7919 218.507 59.914C217.907 59.9068 217.605 59.7308 217.608 59.3786C217.608 59.1271 217.835 58.9726 218.284 58.9187C219.94 58.775 221.087 58.5055 221.723 58.103C222.362 57.7042 222.682 57.0646 222.693 56.1878C222.7 55.3506 222.125 53.2485 220.972 49.8888L219.743 46.2022C219.06 46.3028 212.412 47.2298 205.219 46.2022C203.472 50.8231 202.592 53.7839 202.581 55.0739C202.567 56.2669 203.063 57.1616 204.062 57.7437C205.057 58.3294 206.042 58.6528 207.019 58.7247C207.738 58.7822 208.093 59.0085 208.086 59.3858C208.086 59.5403 207.968 59.6805 207.734 59.8098C204.622 59.6445 202.747 59.5619 202.1 59.5547C198.826 59.526 196.631 59.5439 195.499 59.6086C194.874 59.6086 194.568 59.4254 194.568 59.0768C194.568 58.7678 194.849 58.5737 195.395 58.4983C197.633 58.2288 199.362 56.7268 200.576 53.9923C201.787 51.2579 203.684 46.3423 206.264 39.242C208.625 32.7778 211.191 26.5938 213.976 20.6793M205.478 45.1529C211.988 46.0405 217.993 45.347 219.459 45.1529C218.758 43.1192 217.098 38.4838 215.826 35.1206C214.267 31.1213 213.243 28.4227 212.75 27.0321C210.9 30.7152 207.953 38.1245 205.474 45.1529M215.323 20.6936L214.665 19.0767L213.972 20.6793" fill="black"/>
<path d="M113.754 54.0354C114.573 54.0426 115.285 54.3373 115.889 54.9158C116.492 55.4979 116.787 56.2237 116.78 57.0861C116.773 57.9269 116.471 58.6384 115.867 59.2313C115.263 59.8206 114.545 60.1116 113.697 60.1009C112.877 60.0937 112.173 59.7954 111.58 59.1882C110.991 58.5881 110.7 57.8694 110.707 57.025C110.718 56.2058 111.02 55.4979 111.623 54.9086C112.227 54.3193 112.939 54.0247 113.758 54.0354" fill="black"/>
<path d="M92.6627 19.3391C92.3105 19.3391 91.7967 19.3534 91.114 19.3858C89.9605 19.4361 88.6023 19.4576 87.0356 19.4397C83.4963 19.4073 80.6324 19.2888 78.4513 19.0839L77.9555 19.048C77.4596 19.0408 77.2117 19.2744 77.2081 19.7523C77.2081 20.1224 77.4991 20.338 78.0992 20.4099C80.6288 20.6794 82.0015 21.6783 82.2278 23.4102C82.447 25.1458 82.5189 30.3021 82.4398 38.8936C82.3716 45.9364 82.253 50.5214 82.0661 52.6486C81.8829 54.7794 81.3116 56.3424 80.3558 57.327C79.3964 58.3187 78.189 58.8074 76.7266 58.7894V60.101C79.0622 60.0758 81.4337 59.1272 83.8448 57.2192C86.317 55.2681 87.5674 52.0126 87.6069 47.4599L87.6788 36.2166C87.7111 32.7994 87.8154 29.6553 87.9986 26.7987C88.1783 23.9384 88.6167 22.1777 89.3137 21.5166C90.0072 20.8482 91.1715 20.5248 92.7992 20.5392C93.3346 20.5464 93.6005 20.3416 93.6077 19.9284C93.6077 19.5367 93.2951 19.3391 92.6591 19.3319" fill="black"/>
<path d="M175.962 40.2375L167.475 40.4207L160.551 40.5106L158.927 40.4495C158.273 40.4495 157.946 40.6831 157.946 41.1502C157.946 41.5347 158.24 41.7287 158.833 41.7287L159.782 41.6964C162.656 41.6964 163.167 42.2246 164.054 43.281C164.942 44.3374 165.398 49.0625 164.999 50.6939C164.5 52.7492 163.124 54.1542 162.092 55.1064C161.061 56.0622 160.109 56.6407 158.963 57.2336C157.834 57.8193 156.102 58.2397 155.028 58.2936C150.364 58.5344 147.205 56.2922 144.708 53.2846C141.736 49.4219 140.296 44.6967 140.296 39.5368C140.296 35.922 141.208 32.1922 142.8 29.0337C144.36 25.9363 146.76 23.5396 149.246 22.2964C151.345 21.2328 153.256 20.9237 155.244 21.0998C157.73 21.319 161.068 22.9 163.005 24.632C164.557 26.0226 166.638 27.6719 168.018 31.3154C168.24 31.9658 168.42 32.2784 168.628 32.2784C168.963 32.2784 169.131 32.0341 169.131 31.549C169.131 31.3873 169.117 31.204 169.085 31.0028C168.718 27.2047 168.485 24.3804 168.391 22.5335C168.327 21.3549 168.111 20.7656 167.744 20.7656C167.554 20.7656 167.338 20.9992 167.098 21.4663C166.825 22.0161 166.444 22.2892 165.948 22.2892C165.596 22.2892 164.992 22.0161 164.13 21.4663C161.068 19.5367 157.223 19.084 154.575 19.084C151.927 19.084 148.646 19.5655 145.466 21.2292L145.229 21.3549C142.132 23.0653 139.21 25.8106 137.245 28.9978C135.233 32.2569 134.227 35.9004 134.227 39.9213C134.227 45.5986 136.167 50.2196 139.89 54.0931C139.89 54.0931 140.342 54.553 140.497 54.7004C143.461 57.5498 147.593 59.9824 153.318 60.1513C156.505 60.2447 160.576 60.0687 163.892 58.1822C166.832 56.5078 168.377 55.5052 170.547 53.1049C171.007 52.5947 171.018 50.1693 171.025 46.6263C171.025 45.3255 171.115 44.4021 171.302 43.8523C171.485 43.3025 171.977 42.8175 172.771 42.3899C173.569 41.9623 174.6 41.6892 175.865 41.567C176.397 41.5275 176.663 41.2939 176.663 40.8663C176.663 40.4387 176.429 40.2267 175.959 40.2267L175.962 40.2375Z" fill="black"/>
</svg>
