<svg width="412" height="47" viewBox="0 0 412 47" fill="none" xmlns="http://www.w3.org/2000/svg">
<path d="M135.345 11.6198C134.475 11.6198 133.747 11.7252 133.144 11.9362C132.547 12.1533 132.037 12.4883 131.627 12.9598C130.98 13.6981 130.116 15.4537 129.047 18.2144L120.821 39.2949H119.95L111.482 18.8968C110.823 17.3025 110.3 16.1237 109.921 15.3607C109.542 14.5976 109.175 13.9958 108.833 13.5554C108.323 12.935 107.788 12.4821 107.235 12.1719C106.675 11.8679 106.016 11.688 105.258 11.6198V11.1421H114.46V11.6198C113.931 11.6198 113.509 11.6694 113.179 11.7625C112.85 11.8617 112.545 12.023 112.271 12.2588C111.998 12.5069 111.774 12.8605 111.612 13.3072C111.444 13.7601 111.364 14.2502 111.364 14.7713C111.364 15.7081 111.774 17.197 112.601 19.2505L118.532 33.8108L124.651 17.2094C124.986 16.285 125.198 15.6895 125.272 15.4165C125.335 15.1373 125.378 14.8271 125.378 14.4673C125.378 13.9586 125.248 13.4871 124.986 13.0591C124.725 12.6248 124.377 12.3022 123.954 12.0975C123.5 11.8741 122.754 11.719 121.722 11.626V11.1483H135.357V11.626L135.345 11.6198Z" fill="black"/>
<path d="M95.9941 11.1419H109.636V11.6196C108.604 11.7127 107.857 11.8678 107.404 12.0911C106.981 12.2959 106.633 12.6185 106.365 13.0527C106.104 13.487 105.98 13.9523 105.98 14.461C105.98 14.8208 106.017 15.1372 106.079 15.4102C106.154 15.6831 106.359 16.2787 106.701 17.2031L112.819 33.7982L118.745 19.2441C119.578 17.1907 119.982 15.7017 119.982 14.765C119.982 14.2438 119.901 13.7537 119.739 13.3009C119.578 12.848 119.348 12.4944 119.08 12.2524C118.807 12.0167 118.502 11.8554 118.172 11.7561C117.837 11.6631 117.414 11.6134 116.892 11.6134V11.1357H126.094V11.6134C125.335 11.6879 124.676 11.8616 124.11 12.1656C123.557 12.4758 123.022 12.9286 122.512 13.549C122.17 13.9895 121.81 14.5913 121.431 15.3543C121.051 16.1174 120.535 17.2961 119.876 18.8905L111.401 39.2886H110.537L102.311 18.2081C101.242 15.4474 100.371 13.6917 99.7309 12.9535C99.3206 12.4882 98.8107 12.147 98.2138 11.936C97.617 11.7189 96.8833 11.6196 96.0128 11.6196V11.1419H95.9941Z" fill="black"/>
<path d="M15.0461 24.9516L23.7881 16.291C24.6523 15.4411 25.1995 14.858 25.4109 14.5478C25.6223 14.2438 25.728 13.9026 25.728 13.5304C25.728 12.8541 25.3984 12.3454 24.7394 12.0042C24.3912 11.8367 23.8192 11.7126 23.0046 11.632V11.1605H31.9021V11.632C31.299 11.6878 30.7954 11.7871 30.3912 11.9298C29.9871 12.0787 29.5332 12.3206 29.0544 12.668C28.5197 13.0527 27.5995 13.8654 26.2876 15.1185L19.5912 21.5333L29.1166 33.6617L30.2917 35.1692C31.1622 36.2487 32.0575 37.08 33.0026 37.6818C33.5622 38.054 34.0596 38.3207 34.4886 38.4758C34.9114 38.6309 35.4524 38.755 36.1052 38.8357V39.3071H22.4388V38.8357C23.471 38.755 24.2171 38.5875 24.671 38.3207C25.1249 38.0602 25.3549 37.6755 25.3549 37.1668C25.3549 36.6147 25.0751 35.9137 24.5093 35.0637C24.2357 34.6543 23.7135 33.9347 22.9611 32.9234C22.2026 31.8998 21.5622 31.0747 21.0399 30.4419L16.3891 24.691L15.0461 26.0062V32.8304C15.0461 34.2324 15.1269 35.2747 15.2823 35.9509C15.444 36.6333 15.7362 37.1917 16.1652 37.6321C16.5383 38.0168 16.9735 38.3021 17.4585 38.4882C17.9497 38.6744 18.5963 38.786 19.3984 38.8233V39.2947H6.17969V38.8233C6.98176 38.7798 7.62218 38.6744 8.11338 38.4882C8.60457 38.2959 9.03359 38.0168 9.40665 37.6321C9.84188 37.1917 10.1403 36.6333 10.2896 35.9633C10.4388 35.2933 10.5196 34.2448 10.5196 32.8304V17.6311C10.5196 16.2104 10.4388 15.1682 10.2896 14.4919C10.1403 13.8219 9.84188 13.2636 9.40665 12.8293C9.03359 12.4261 8.59835 12.1345 8.10094 11.9546C7.60975 11.7747 6.96311 11.6692 6.17969 11.6258V11.1543H19.3922V11.6258C18.6025 11.6692 17.9684 11.7747 17.4772 11.9546C16.986 12.1345 16.5507 12.4199 16.1652 12.8293C15.7424 13.2636 15.444 13.8219 15.2823 14.5043C15.1269 15.1868 15.0461 16.229 15.0461 17.6311V24.9516Z" fill="black"/>
<path d="M38.2695 39.3011V38.8048C39.6561 38.8048 40.7255 38.4201 41.4965 37.6323C41.9193 37.1918 42.2115 36.6335 42.3732 35.951C42.5348 35.2748 42.6157 34.2326 42.6157 32.8305V17.6312C42.6157 16.1733 42.5286 15.0939 42.3545 14.399C42.1867 13.7042 41.8633 13.1397 41.3908 12.6992C41.0053 12.3456 40.5701 12.0788 40.0975 11.9175C39.6188 11.7562 39.0157 11.6569 38.2758 11.6321V11.1606H51.482V11.6321C50.7173 11.6756 50.1017 11.7748 49.6167 11.9423C49.1318 12.1036 48.709 12.3704 48.3297 12.724C47.8634 13.1769 47.5463 13.7538 47.3846 14.4363C47.2167 15.1311 47.1359 16.1919 47.1359 17.6374V29.5301C47.1359 31.3602 47.1919 32.7189 47.2789 33.6184C47.3722 34.5118 47.5649 35.2376 47.8385 35.8021C48.3235 36.7948 49.0323 37.5206 49.9898 37.9797C50.9411 38.445 52.2033 38.6745 53.7701 38.6745C55.337 38.6745 56.7919 38.4574 57.9173 38.0231C59.0365 37.5888 59.9567 36.9188 60.6717 36.0131C61.1505 35.3927 61.5546 34.6917 61.8655 33.91C62.1702 33.1283 62.4624 32.0985 62.7235 30.8143L63.2147 30.8577L62.9474 39.3073H38.2695V39.3011Z" fill="black"/>
<path d="M67.1699 25.4168C67.1699 23.1151 67.6611 20.9624 68.6622 18.9896C69.6508 17.0106 71.0995 15.2921 73.0021 13.8156C74.4259 12.73 75.9555 11.8987 77.5969 11.3093C79.2322 10.7261 80.8861 10.4346 82.5524 10.4346C84.6788 10.4346 86.7306 10.8999 88.7203 11.8242C90.6975 12.7548 92.4384 14.0638 93.9307 15.7574C96.3493 18.5119 97.568 21.6386 97.568 25.15C97.568 26.9057 97.2509 28.6117 96.6167 30.2433C95.9825 31.8873 95.0561 33.3824 93.8436 34.7225C92.3576 36.4037 90.598 37.7065 88.5648 38.6246C86.5317 39.549 84.4115 40.0143 82.1918 40.0143C79.9721 40.0143 77.9078 39.5614 75.9057 38.6619C73.9099 37.7685 72.1876 36.5029 70.7389 34.8651C69.5948 33.581 68.7181 32.1293 68.1026 30.5039C67.4932 28.8723 67.1824 27.1786 67.1824 25.4105M72.1876 25.7207C72.1876 29.7098 73.2757 33.0722 75.4456 35.8081C76.428 37.0303 77.4663 37.9298 78.5669 38.482C79.655 39.0403 80.9234 39.3195 82.3596 39.3195C83.7959 39.3195 85.0767 39.0403 86.1711 38.4944C87.2716 37.9422 88.3099 37.0489 89.3048 35.8081C91.4809 33.0598 92.569 29.6664 92.569 25.6401C92.569 23.4315 92.2706 21.3284 91.6674 19.3494C91.0706 17.3766 90.225 15.7016 89.1369 14.3244C88.254 13.1953 87.2778 12.3702 86.1897 11.8614C85.1078 11.3403 83.8208 11.086 82.3596 11.086C80.8985 11.086 79.6363 11.3403 78.5669 11.849C77.4912 12.3577 76.5088 13.1829 75.5948 14.3306C74.5067 15.6892 73.6736 17.3642 73.0705 19.3432C72.4798 21.3284 72.1876 23.4501 72.1876 25.7207Z" fill="black"/>
<path d="M159.359 11.1543L159.713 17.9599L159.24 17.9785C159.06 16.8246 158.768 15.8692 158.345 15.1061C157.929 14.3493 157.332 13.6854 156.548 13.1085C155.902 12.6246 155.137 12.2896 154.254 12.0849C153.371 11.8863 152.196 11.7871 150.735 11.7871H146.003V24.1637H147.247C148.503 24.1637 149.441 24.0768 150.082 23.9093C150.716 23.748 151.232 23.4502 151.63 23.0284C152.009 22.6251 152.308 22.1536 152.482 21.6139C152.668 21.0742 152.824 20.2677 152.948 19.213L153.421 19.2316L153.34 30.2868H152.867C152.743 29.2322 152.563 28.376 152.314 27.7309C152.078 27.0857 151.742 26.5397 151.319 26.0806C150.903 25.6402 150.368 25.3176 149.703 25.1128C149.044 24.9081 148.198 24.8089 147.184 24.8089H146.003V29.53C146.003 31.4159 146.053 32.787 146.146 33.6493C146.252 34.5054 146.432 35.225 146.712 35.802C147.178 36.7946 147.887 37.5205 148.845 37.9795C149.802 38.4448 151.064 38.6744 152.631 38.6744C154.291 38.6744 155.672 38.4634 156.791 38.0416C157.91 37.6197 158.818 36.9745 159.52 36.0936C160.018 35.5042 160.422 34.8342 160.733 34.0711C161.037 33.3143 161.33 32.3217 161.591 31.0809L162.063 31.1057L161.796 39.3133H137.137V38.8419C137.92 38.7984 138.561 38.693 139.052 38.5131C139.537 38.3332 139.972 38.0478 140.364 37.6445C140.786 37.2041 141.079 36.6457 141.24 35.9633C141.396 35.2809 141.483 34.2448 141.483 32.8428V17.6311C141.483 16.229 141.396 15.1806 141.24 14.5043C141.079 13.8219 140.793 13.2636 140.364 12.8231C139.991 12.4199 139.562 12.1345 139.07 11.9546C138.579 11.7747 137.939 11.6692 137.137 11.6258V11.1543H159.359Z" fill="black"/>
<path d="M174.499 25.5285V32.8304C174.499 34.2324 174.58 35.2685 174.735 35.9509C174.897 36.6333 175.189 37.1917 175.618 37.6321C175.991 38.0168 176.426 38.3021 176.911 38.4944C177.402 38.6806 178.049 38.7922 178.845 38.8295V39.3009H165.639V38.8295C166.441 38.786 167.081 38.6806 167.572 38.4944C168.064 38.3021 168.493 38.023 168.866 37.6321C169.307 37.1917 169.606 36.6395 169.749 35.9633C169.898 35.2871 169.979 34.2448 169.979 32.8304V17.6311C169.979 16.2104 169.898 15.1682 169.749 14.4919C169.599 13.8219 169.307 13.2636 168.866 12.8293C168.493 12.4199 168.057 12.1345 167.56 11.9546C167.069 11.7747 166.422 11.6692 165.639 11.6258V11.1543H175.599C177.272 11.1543 178.366 11.1605 178.882 11.1729C181.021 11.266 182.694 11.5575 183.906 12.0414C185.268 12.5936 186.325 13.4125 187.077 14.5043C187.823 15.5962 188.196 16.868 188.196 18.3073C188.196 20.4476 187.388 22.1722 185.759 23.4626C185.268 23.8473 184.708 24.1699 184.111 24.4118C183.514 24.66 182.712 24.8957 181.705 25.1129C182.532 25.4603 183.148 25.8139 183.546 26.1861C183.863 26.4715 184.149 26.8375 184.41 27.2718C184.677 27.706 185.069 28.4691 185.597 29.5734C186.822 32.0921 187.749 33.9285 188.377 35.0886C188.998 36.2487 189.533 37.0924 189.956 37.6135C190.304 38.0416 190.64 38.3394 190.963 38.5007C191.293 38.6682 191.734 38.7736 192.3 38.8295V39.3009H185.436C185.087 38.5441 184.87 38.0664 184.777 37.8617L183.328 34.5799C182.464 32.6132 181.587 30.87 180.704 29.3625C179.809 27.8673 179.007 26.8375 178.285 26.2854C177.906 26.0124 177.514 25.8139 177.092 25.696C176.656 25.5843 176.14 25.5223 175.519 25.5223H174.505L174.499 25.5285ZM174.499 25.0756H175.282C176.986 25.0756 178.217 24.9826 178.951 24.7903C179.691 24.5979 180.381 24.2009 181.034 23.5929C182.476 22.2219 183.197 20.5158 183.197 18.481C183.197 17.3953 182.986 16.3717 182.569 15.4163C182.153 14.4609 181.568 13.6792 180.828 13.0527C180.25 12.5874 179.56 12.2586 178.764 12.0725C177.962 11.8863 176.824 11.7933 175.357 11.7933H174.505V25.0694L174.499 25.0756Z" fill="black"/>
<path d="M229.413 25.423V32.8242C229.413 34.2262 229.494 35.2623 229.65 35.9447C229.811 36.6271 230.103 37.1854 230.532 37.6259C230.905 38.0106 231.335 38.2959 231.826 38.482C232.311 38.6682 232.957 38.7798 233.759 38.817V39.2885H220.553V38.817C221.349 38.7736 221.996 38.6682 222.481 38.482C222.972 38.2897 223.401 38.0106 223.774 37.6259C224.209 37.1854 224.508 36.6271 224.657 35.9571C224.806 35.2809 224.887 34.2386 224.887 32.8242V17.6311C224.887 16.4461 224.831 15.5342 224.731 14.8952C224.626 14.2624 224.452 13.7413 224.203 13.338C223.842 12.7859 223.388 12.3764 222.841 12.1097C222.288 11.8429 221.573 11.6816 220.69 11.6258H220.547V11.1543H233.007C235.183 11.1543 236.781 11.266 237.826 11.4831C238.858 11.7064 239.803 12.1469 240.655 12.8045C242.613 14.2872 243.589 16.2662 243.589 18.7415C243.589 21.2169 242.601 23.109 240.617 24.2691C239.585 24.8709 238.329 25.2369 236.856 25.3672C236.389 25.4044 235.258 25.4292 233.461 25.4292H229.413V25.423ZM229.413 24.7654H231.44C232.814 24.7654 233.859 24.6662 234.599 24.4677C235.339 24.2691 235.985 23.8969 236.576 23.3634C237.919 22.1412 238.597 20.5096 238.597 18.4748C238.597 17.3457 238.398 16.3097 238.012 15.3667C237.614 14.4237 237.055 13.6606 236.315 13.0713C235.482 12.364 234.487 11.9546 233.324 11.8367C233.007 11.8057 232.286 11.7933 231.154 11.7933H229.419V24.7654H229.413Z" fill="black"/>
<path d="M262.926 27.1353L258.58 16.4585L254.495 27.1353L254.165 27.9852L253.089 30.8328L252.567 32.1107C251.952 33.6245 251.647 34.8094 251.647 35.6779C251.647 36.1866 251.759 36.6581 251.983 37.0986C252.213 37.5391 252.517 37.8989 252.903 38.1719C253.444 38.5441 254.134 38.7612 254.967 38.8295V39.3009H245.709V38.8295C246.443 38.786 247.083 38.6123 247.63 38.2897C248.184 37.9733 248.718 37.4646 249.234 36.7636C249.682 36.2052 250.111 35.4732 250.534 34.5861C250.957 33.6989 251.504 32.3713 252.2 30.597L259.761 11.1543H260.942L269.927 32.8304C270.598 34.4682 271.139 35.6345 271.543 36.3355C271.941 37.0366 272.376 37.5701 272.843 37.9237C273.179 38.1719 273.552 38.358 273.981 38.4944C274.403 38.6247 275.038 38.7364 275.902 38.8295V39.3009H262.323V38.8295C263.547 38.7178 264.399 38.5131 264.884 38.2091C265.73 37.6693 266.159 36.9311 266.159 35.9819C266.159 35.4174 265.966 34.6605 265.581 33.7113L265.226 32.849L263.249 27.9852L262.919 27.1353H262.926Z" fill="black"/>
<path d="M283.785 14.8891V32.8243C283.785 34.2388 283.866 35.2872 284.021 35.9634C284.183 36.6335 284.475 37.1856 284.904 37.6261C285.29 38.0231 285.725 38.3147 286.216 38.4946C286.701 38.6683 287.342 38.78 288.125 38.8234V39.2949H278.6V38.8234C279.383 38.7862 280.023 38.6745 280.508 38.4946C280.993 38.3147 281.435 38.0231 281.82 37.6261C282.249 37.1856 282.542 36.6272 282.697 35.9448C282.859 35.2624 282.933 34.2264 282.933 32.8181V17.6126C282.933 16.2229 282.859 15.1869 282.697 14.5045C282.542 13.8283 282.249 13.2637 281.82 12.8295C281.447 12.4262 281.012 12.1346 280.527 11.9671C280.036 11.7872 279.395 11.6694 278.6 11.6321V11.1606H286.552L303.333 32.5203V17.6374C303.333 16.2167 303.259 15.1683 303.103 14.4983C302.948 13.8283 302.649 13.2637 302.227 12.8295C301.841 12.4262 301.4 12.1346 300.915 11.9671C300.43 11.7872 299.789 11.6694 299.006 11.6321V11.1606H308.538V11.6321C307.157 11.6321 306.082 12.0292 305.311 12.8295C304.888 13.2637 304.596 13.8283 304.434 14.5045C304.272 15.1869 304.191 16.2229 304.191 17.6126V39.3011H303.259L283.791 14.8891H283.785Z" fill="black"/>
<path d="M308.525 38.8295C309.321 38.786 309.968 38.6806 310.447 38.5007C310.932 38.3207 311.367 38.0354 311.752 37.6321C312.175 37.1917 312.467 36.6333 312.629 35.9509C312.791 35.2685 312.872 34.2324 312.872 32.8304V17.6311C312.872 16.1173 312.778 15.0131 312.592 14.3058C312.411 13.611 312.045 13.0278 311.504 12.575C310.826 12.0166 309.844 11.7002 308.532 11.6258V11.1543H319.897C322.416 11.1543 324.026 11.1853 324.716 11.2412C327.614 11.4583 330.088 12.2772 332.115 13.7103C334.043 15.0689 335.547 16.8556 336.623 19.0641C337.699 21.2727 338.233 23.6736 338.233 26.2668C338.233 28.1651 337.929 29.958 337.313 31.6392C336.704 33.3267 335.846 34.7225 334.758 35.8392C333.228 37.4026 331.319 38.4076 329.031 38.8233C327.321 39.1396 325.58 39.2947 323.802 39.2947H308.532V38.8233L308.525 38.8295ZM317.386 11.7933V32.2906C317.386 33.6431 317.466 34.6605 317.616 35.3677C317.765 36.0626 318.051 36.6705 318.461 37.1606C319.344 38.2401 320.78 38.7736 322.764 38.7736C324.461 38.7736 325.904 38.4944 327.116 37.9423C328.322 37.384 329.398 36.4782 330.349 35.2312C331.282 34.0215 331.997 32.6319 332.488 31.0747C332.979 29.5175 333.222 27.8549 333.222 26.0993C333.222 24.1451 332.923 22.2839 332.333 20.5282C331.736 18.7664 330.89 17.2278 329.79 15.9064C328.26 14.0825 326.438 12.8728 324.312 12.2772C323.156 11.9608 321.682 11.8057 319.891 11.8057H317.386V11.7933Z" fill="black"/>
<path d="M344.289 25.4168C344.289 23.1151 344.78 20.9624 345.781 18.9896C346.77 17.0106 348.219 15.2921 350.121 13.8156C351.545 12.73 353.075 11.8987 354.716 11.3093C356.351 10.7261 358.005 10.4346 359.672 10.4346C361.798 10.4346 363.85 10.8999 365.839 11.8242C367.823 12.7548 369.558 14.0638 371.05 15.7574C373.469 18.5119 374.687 21.6386 374.687 25.15C374.687 26.9057 374.37 28.6117 373.736 30.2433C373.102 31.8873 372.175 33.3824 370.963 34.7225C369.477 36.4037 367.717 37.7065 365.684 38.6246C363.645 39.549 361.524 40.0143 359.305 40.0143C357.085 40.0143 355.021 39.5614 353.019 38.6619C351.023 37.7685 349.301 36.5029 347.852 34.8651C346.708 33.581 345.831 32.1293 345.215 30.5039C344.606 28.8723 344.295 27.1786 344.295 25.4105M349.3 25.7207C349.3 29.7098 350.389 33.0722 352.559 35.8081C353.541 37.0303 354.579 37.9298 355.68 38.482C356.768 39.0403 358.036 39.3195 359.473 39.3195C360.909 39.3195 362.19 39.0403 363.284 38.4944C364.378 37.9422 365.423 37.0489 366.411 35.8081C368.588 33.0598 369.676 29.6664 369.676 25.6401C369.676 23.4315 369.377 21.3284 368.78 19.3494C368.177 17.3766 367.338 15.7016 366.244 14.3244C365.361 13.1953 364.385 12.3702 363.296 11.8614C362.208 11.3403 360.928 11.086 359.466 11.086C358.005 11.086 356.743 11.3403 355.674 11.849C354.598 12.3577 353.616 13.1829 352.702 14.3306C351.613 15.6892 350.78 17.3642 350.177 19.3432C349.587 21.3284 349.294 23.4501 349.294 25.7207" fill="black"/>
<path d="M388.628 25.5285V32.8304C388.628 34.2324 388.709 35.2685 388.864 35.9509C389.026 36.6333 389.318 37.1917 389.747 37.6321C390.114 38.0168 390.549 38.3021 391.041 38.4944C391.525 38.6806 392.172 38.7922 392.974 38.8295V39.3009H379.768V38.8295C380.564 38.786 381.21 38.6806 381.695 38.4944C382.187 38.3021 382.616 38.023 382.989 37.6321C383.424 37.1917 383.722 36.6395 383.872 35.9633C384.021 35.2871 384.102 34.2448 384.102 32.8304V17.6311C384.102 16.2104 384.027 15.1682 383.872 14.4919C383.722 13.8219 383.424 13.2636 382.989 12.8293C382.616 12.4199 382.18 12.1345 381.683 11.9546C381.192 11.7747 380.545 11.6692 379.762 11.6258V11.1543H389.722C391.389 11.1543 392.483 11.1605 393.012 11.1729C395.144 11.266 396.817 11.5575 398.035 12.0414C399.397 12.5936 400.454 13.4125 401.206 14.5043C401.959 15.5962 402.326 16.868 402.326 18.3073C402.326 20.4476 401.517 22.1722 399.894 23.4626C399.397 23.8473 398.844 24.1699 398.247 24.4118C397.644 24.66 396.848 24.8957 395.834 25.1129C396.661 25.4603 397.277 25.8139 397.675 26.1861C397.992 26.4715 398.284 26.8375 398.539 27.2718C398.806 27.706 399.198 28.4691 399.72 29.5734C400.945 32.0921 401.872 33.9285 402.5 35.0886C403.121 36.2487 403.65 37.0924 404.079 37.6135C404.427 38.0416 404.757 38.3394 405.086 38.5007C405.41 38.6682 405.851 38.7736 406.423 38.8295V39.3009H399.559C399.211 38.5441 398.987 38.0664 398.893 37.8617L397.451 34.5799C396.587 32.6132 395.704 30.87 394.827 29.3625C393.944 27.8673 393.13 26.8375 392.408 26.2854C392.029 26.0124 391.637 25.8139 391.215 25.696C390.779 25.5843 390.263 25.5223 389.642 25.5223H388.628V25.5285ZM388.628 25.0756H389.411C391.121 25.0756 392.346 24.9826 393.08 24.7903C393.82 24.5979 394.51 24.2009 395.157 23.5929C396.605 22.2219 397.327 20.5158 397.327 18.481C397.327 17.3953 397.115 16.3717 396.699 15.4163C396.276 14.4609 395.698 13.6792 394.951 13.0527C394.379 12.5874 393.683 12.2586 392.887 12.0725C392.091 11.8863 390.947 11.7933 389.48 11.7933H388.628V25.0694V25.0756Z" fill="black"/>
</svg>
