<svg width="301" height="74" viewBox="0 0 301 74" fill="none" xmlns="http://www.w3.org/2000/svg">
<g clip-path="url(#clip0_737_21607)">
<path d="M0 0V73.0295H38.4621V0H0ZM36.2677 3.08087V44.1403L35.8547 44.0919C29.4984 43.3903 23.7169 39.6884 20.397 34.1799L20.2918 34.0025L20.3889 33.817C22.0408 30.6151 22.8829 27.1794 22.8829 23.6066C22.8829 20.0337 22.0408 16.598 20.3889 13.3961L20.2918 13.2106L20.397 13.0332C23.7169 7.52474 29.4984 3.81479 35.8547 3.12119L36.2677 3.0728V3.08087ZM19.6278 31.2684L19.2796 32.1233L18.9314 31.2684C17.9436 28.8247 17.4415 26.2438 17.4415 23.6146C17.4415 20.9854 17.9436 18.4046 18.9314 15.9608L19.2796 15.1059L19.6278 15.9608C20.6157 18.4046 21.1177 20.9854 21.1177 23.6146C21.1177 26.2438 20.6157 28.8247 19.6278 31.2684ZM7.84626 1.75819H32.9316L30.8263 2.48405C26.2757 4.04062 22.2837 7.0731 19.5792 11.0169L19.2715 11.4686L18.9638 11.0169C16.2593 7.0731 12.2674 4.04062 7.7167 2.48405L5.61141 1.75819H7.83816H7.84626ZM2.29153 43.7209V3.08087L2.70449 3.12926C9.06085 3.83092 14.8423 7.53281 18.1622 13.0413L18.2675 13.2187L18.1703 13.4042C16.5184 16.606 15.6763 20.0418 15.6763 23.6146C15.6763 27.1875 16.5184 30.6232 18.1703 33.825L18.2675 34.0105L18.1622 34.188C14.8504 39.6803 9.06895 43.3903 2.70449 44.1L2.29153 44.1484V43.7371V43.7209ZM1.76521 71.2713V46.8179L2.15388 46.8341C17.2796 47.4873 30.0814 57.5768 34.7778 71.2713H1.76521ZM36.6968 71.2713L35.9762 69.3922C31.2474 57.0687 20.2432 47.9712 7.26326 45.6485L5.78145 45.3823L7.22277 44.9307C11.9759 43.4306 16.1541 40.3336 18.98 36.2042L19.2877 35.7526L19.5954 36.2042C23.4497 41.8176 29.5551 45.3501 36.3568 45.8824L36.6968 45.9066V71.2633V71.2713Z" fill="#3E3A39"/>
<path d="M76.2352 55.8994V69.3439H74.3647V59.319L69.644 69.3439H68.3323L63.5873 59.3029V69.3439H61.7168V55.8994H63.7249L68.9801 67.0131L74.2352 55.8994H76.2271H76.2352Z" fill="#3E3A39"/>
<path d="M85.888 57.2383V61.7629H91.1027V63.2226H85.888V67.8843H91.7181V69.3441H84.0176V55.7866H91.7181V57.2464H85.888V57.2383Z" fill="#3E3A39"/>
<path d="M101.036 57.2383V61.7629H106.251V63.2226H101.036V67.8843H106.867V69.3441H99.166V55.7866H106.867V57.2464H101.036V57.2383Z" fill="#3E3A39"/>
<path d="M123.126 55.8027V57.2383H119.223V69.344H117.353V57.2383H113.434V55.8027H123.126Z" fill="#3E3A39"/>
<path d="M150.172 55.8027L145.508 64.2388V69.344H143.637V64.2388L138.957 55.8027H141.03L144.56 62.6581L148.091 55.8027H150.164H150.172Z" fill="#3E3A39"/>
<path d="M159.613 68.5942C158.52 68.0054 157.654 67.1828 157.014 66.1262C156.374 65.0697 156.059 63.8841 156.059 62.5615C156.059 61.2388 156.374 60.0532 157.014 58.9967C157.654 57.9402 158.512 57.1175 159.613 56.5288C160.706 55.94 161.921 55.6416 163.249 55.6416C164.577 55.6416 165.808 55.94 166.909 56.5288C168.002 57.1175 168.868 57.9402 169.492 58.9886C170.124 60.0371 170.439 61.2307 170.439 62.5615C170.439 63.8922 170.124 65.0858 169.492 66.1343C168.86 67.1828 168.002 68.0054 166.909 68.5942C165.816 69.1829 164.593 69.4813 163.249 69.4813C161.905 69.4813 160.706 69.1829 159.613 68.5942ZM165.945 67.2795C166.747 66.836 167.379 66.215 167.832 65.4004C168.294 64.5858 168.52 63.6341 168.52 62.5615C168.52 61.4888 168.294 60.521 167.832 59.7145C167.37 58.908 166.747 58.2789 165.953 57.8434C165.16 57.3998 164.253 57.182 163.241 57.182C162.229 57.182 161.322 57.3998 160.528 57.8434C159.735 58.287 159.111 58.908 158.65 59.7145C158.188 60.521 157.961 61.4727 157.961 62.5615C157.961 63.6503 158.188 64.5777 158.65 65.4004C159.111 66.215 159.735 66.844 160.536 67.2795C161.338 67.7231 162.237 67.9409 163.241 67.9409C164.245 67.9409 165.136 67.7231 165.945 67.2795Z" fill="#3E3A39"/>
<path d="M179.345 55.8027V64.3679C179.345 65.5696 179.653 66.4648 180.277 67.0536C180.9 67.6342 181.766 67.9246 182.876 67.9246C183.985 67.9246 184.827 67.6342 185.451 67.0536C186.074 66.4729 186.382 65.5776 186.382 64.3679V55.8027H188.252V64.3517C188.252 65.4809 188.009 66.4245 187.532 67.1987C187.054 67.973 186.406 68.5456 185.588 68.9166C184.771 69.2956 183.856 69.4811 182.843 69.4811C181.831 69.4811 180.916 69.2956 180.098 68.9166C179.281 68.5375 178.641 67.973 178.171 67.1987C177.702 66.4325 177.467 65.4809 177.467 64.3517V55.8027H179.337H179.345Z" fill="#3E3A39"/>
<path d="M203.533 69.344L200.124 63.8033H197.865V69.344H195.994V55.8027H200.618C201.695 55.8027 202.61 55.9721 203.363 56.327C204.108 56.6738 204.666 57.1496 205.039 57.7464C205.411 58.3432 205.598 59.0207 205.598 59.7869C205.598 60.7224 205.314 61.5451 204.747 62.2548C204.18 62.9645 203.33 63.4404 202.189 63.6743L205.784 69.344H203.549H203.533ZM197.865 62.3919H200.618C201.63 62.3919 202.391 62.158 202.893 61.6822C203.395 61.2064 203.654 60.5773 203.654 59.7869C203.654 58.9965 203.403 58.3594 202.901 57.9239C202.399 57.4883 201.638 57.2625 200.61 57.2625H197.857V62.3919H197.865Z" fill="#3E3A39"/>
<path d="M234.456 69.3441H232.586L225.072 58.561V69.3441H223.201V55.7866H225.072L232.586 66.5535V55.7866H234.456V69.3441Z" fill="#3E3A39"/>
<path d="M244.124 57.2383V61.7629H249.339V63.2226H244.124V67.8843H249.954V69.3441H242.254V55.7866H249.954V57.2464H244.124V57.2383Z" fill="#3E3A39"/>
<path d="M259.275 57.2383V61.7629H264.489V63.2226H259.275V67.8843H265.105V69.3441H257.404V55.7866H265.105V57.2464H259.275V57.2383Z" fill="#3E3A39"/>
<path d="M281.073 56.6254C282.214 57.1738 283.089 57.9642 283.696 58.9884C284.304 60.0127 284.611 61.2144 284.611 62.6016C284.611 63.9888 284.304 65.1905 283.696 66.2067C283.089 67.2229 282.214 68.0052 281.073 68.5375C279.931 69.0779 278.579 69.344 277.016 69.344H272.562V55.8027H277.016C278.579 55.8027 279.931 56.0769 281.073 56.6254ZM281.243 66.4971C282.214 65.5696 282.7 64.2711 282.7 62.6016C282.7 60.9321 282.206 59.6014 281.235 58.6578C280.255 57.7142 278.846 57.2383 277.016 57.2383H274.425V67.8843H277.016C278.862 67.8843 280.271 67.4245 281.243 66.4971Z" fill="#3E3A39"/>
<path d="M293.696 68.9972C292.951 68.6826 292.368 68.2391 291.939 67.6745C291.518 67.1099 291.299 66.4567 291.283 65.7227H293.275C293.34 66.3599 293.615 66.8922 294.109 67.3277C294.595 67.7632 295.308 67.981 296.239 67.981C297.17 67.981 297.834 67.7713 298.344 67.3519C298.854 66.9325 299.113 66.3921 299.113 65.7308C299.113 65.2146 298.959 64.7872 298.66 64.4646C298.36 64.142 297.98 63.892 297.526 63.7307C297.073 63.5613 296.465 63.3839 295.696 63.1903C294.749 62.9564 293.996 62.7225 293.429 62.4886C292.862 62.2548 292.376 61.8918 291.971 61.3918C291.567 60.8917 291.364 60.2223 291.364 59.3836C291.364 58.6496 291.567 57.9883 291.963 57.4237C292.36 56.8511 292.919 56.4156 293.64 56.1011C294.36 55.7865 295.186 55.6333 296.117 55.6333C297.461 55.6333 298.555 55.9478 299.413 56.585C300.271 57.2221 300.749 58.0609 300.862 59.1094H298.806C298.741 58.5932 298.449 58.1335 297.947 57.7383C297.437 57.3431 296.765 57.1495 295.931 57.1495C295.154 57.1495 294.514 57.335 294.02 57.7222C293.526 58.1012 293.283 58.6416 293.283 59.3271C293.283 59.8191 293.429 60.2223 293.72 60.5288C294.012 60.8434 294.376 61.0772 294.805 61.2385C295.235 61.3998 295.842 61.5853 296.619 61.795C297.567 62.0451 298.328 62.287 298.895 62.5209C299.47 62.7628 299.963 63.1338 300.376 63.6258C300.789 64.1259 300.992 64.8033 300.992 65.6582C300.992 66.3196 300.806 66.9406 300.441 67.5213C300.077 68.1019 299.526 68.5778 298.797 68.9407C298.077 69.3037 297.218 69.4811 296.231 69.4811C295.243 69.4811 294.441 69.3198 293.696 69.0052V68.9972Z" fill="#3E3A39"/>
<path d="M120.942 7.16201L121.168 7.19427C123.193 7.48462 123.703 9.94447 123.703 12.2592V27.0909C123.703 30.454 122.051 33.8736 119.006 35.5673C115.848 37.3255 111.047 36.9626 108.496 34.2608C106.496 32.1558 106.188 28.9297 106.188 26.1715V9.55735C106.188 7.97659 106.504 7.48462 107.039 7.16201L107.168 7.08943V6.32324H101.111V7.08943L101.249 7.16201C101.824 7.48462 102.14 7.96046 102.14 9.55735V26.1715C102.14 35.0431 108.585 38.2046 114.618 38.2046C120.974 38.2046 125.581 33.5914 125.581 27.2441V11.9124C125.581 11.0171 125.703 8.01691 127.314 7.17008L127.452 7.09749V6.32324H120.933V7.16201H120.942Z" fill="#3E3A39"/>
<path d="M285.55 31.9622C284.351 33.5107 280.942 37.0997 275.056 37.0997H269.161V9.55735C269.161 7.97659 269.476 7.48462 270.019 7.16201L270.149 7.08943V6.32324H264.092V7.08943L264.229 7.16201C264.804 7.48462 265.12 7.96046 265.12 9.55735V34.7366C265.12 36.3093 264.78 36.8174 264.229 37.1319L264.092 37.2045V37.9304H285.266L286.319 32.1719L285.703 31.7606L285.558 31.9541L285.55 31.9622Z" fill="#3E3A39"/>
<path d="M299.712 7.16201L299.85 7.08943V6.32324H293.793V7.08943L293.923 7.16201C294.449 7.47655 294.773 7.98465 294.773 9.55735V34.7366C294.773 36.3093 294.449 36.8174 293.923 37.1319L293.793 37.2045V37.9223H299.85V37.1965L299.712 37.1239C299.161 36.8174 298.821 36.3093 298.821 34.7285V9.55735C298.821 7.97659 299.161 7.47655 299.712 7.16201Z" fill="#3E3A39"/>
<path d="M171.006 6.32301V7.08919L171.135 7.16178C171.662 7.47632 171.986 7.98442 171.986 9.55711V34.7364C171.986 36.3091 171.662 36.8172 171.135 37.1317L171.006 37.2043V37.9221H177.014V37.2043L176.884 37.1317C176.358 36.8172 176.034 36.3091 176.034 34.7364V23.4049H184.706C186.504 23.4049 188.796 24.6711 189.516 26.0583L189.589 26.2035H190.326V19.7353H189.589L189.516 19.8804C188.796 21.2676 186.504 22.5339 184.706 22.5339H176.034V7.19404H183.014C187.67 7.19404 190.391 9.83133 192.585 12.2992L192.731 12.4605L193.306 12.1138L191.775 6.31494H171.006V6.32301Z" fill="#3E3A39"/>
<path d="M223.137 31.962C221.939 33.5105 218.53 37.0994 212.643 37.0994H206.497V23.4049H214.675C216.473 23.4049 218.765 24.6711 219.485 26.0583L219.558 26.2035H220.295V19.7353H219.558L219.485 19.8804C218.765 21.2676 216.473 22.5339 214.675 22.5339H206.497V7.19404H212.149C216.935 7.19404 219.671 9.54905 221.72 11.8557L221.882 12.0412L222.424 11.6137L221.42 6.31494H201.469V7.08113L201.598 7.15371C202.125 7.46825 202.449 7.97635 202.449 9.54905V34.7283C202.449 36.301 202.125 36.8091 201.598 37.1236L201.469 37.1962V37.914H222.846L223.898 32.1555L223.283 31.7442L223.137 31.9378V31.962Z" fill="#3E3A39"/>
<path d="M254.449 31.962C253.251 33.5105 249.842 37.0994 243.955 37.0994H237.809V23.4049H245.988C247.785 23.4049 250.077 24.6711 250.789 26.0583L250.862 26.2035H251.599V19.7353H250.862L250.789 19.8804C250.069 21.2676 247.785 22.5339 245.988 22.5339H237.809V7.19404H243.461C248.239 7.19404 250.984 9.54905 253.032 11.8557L253.202 12.0412L253.745 11.6137L252.741 6.31494H232.789V7.08113L232.919 7.15371C233.445 7.46825 233.769 7.97635 233.769 9.54905V34.7283C233.769 36.301 233.445 36.8091 232.919 37.1236L232.789 37.1962V37.914H254.166L255.219 32.1555L254.603 31.7442L254.457 31.9378L254.449 31.962Z" fill="#3E3A39"/>
<path d="M76.4867 31.4055L65.7173 6.47624L65.6525 6.31494H60.4865L62.5108 10.8233V32.341C62.5108 34.1315 61.3205 36.4139 60.0087 37.1317L59.8711 37.2043V37.9301H66.0088V37.2043L65.8712 37.1317C64.5594 36.4139 63.3691 34.1315 63.3691 32.341V12.7348L74.2438 36.8897L74.3166 37.043H75.0373L86.4868 10.1781V34.7364C86.4868 36.2849 86.1467 36.8172 85.6447 37.1398L85.5233 37.2204V37.9382H91.5152V37.2204L91.3857 37.1478C90.8675 36.8414 90.5517 36.3333 90.5517 34.7525V9.55711C90.5517 7.96022 90.8432 7.48438 91.3857 7.16178L91.5152 7.08919V6.32301H87.1832L76.4867 31.4135V31.4055Z" fill="#3E3A39"/>
<path d="M156.714 30.7603C154.932 27.6955 153.086 24.5421 151.653 23.413C156.722 22.1387 159.394 19.2352 159.394 14.9688C159.394 8.58123 152.171 6.31494 145.977 6.31494H136.365V7.08113L136.495 7.15371C137.037 7.47632 137.353 7.96829 137.353 9.54905V34.7283C137.353 36.301 137.029 36.8091 136.495 37.1236L136.365 37.1962V37.914H142.373V37.1962L142.244 37.1236C141.718 36.8091 141.394 36.301 141.394 34.7283V7.19404H145.977C150.001 7.19404 155.345 8.00055 155.345 14.9688C155.345 18.9852 154.212 22.7032 145.977 22.7032H144.6V23.5823H145.977C147.151 23.5823 148.244 24.2114 148.827 25.2276L152.633 31.8491C152.819 32.1797 153.005 32.4943 153.175 32.7846C154.511 35.0912 155.119 36.1397 154.09 37.164L154.017 37.2365V37.914H161.41V37.1317L161.208 37.0833C160.301 36.8736 158.398 33.6153 156.722 30.7441L156.714 30.7603Z" fill="#3E3A39"/>
</g>
<defs>
<clipPath id="clip0_737_21607">
<rect width="301" height="73.0295" fill="white"/>
</clipPath>
</defs>
</svg>
