<svg width="302" height="45" viewBox="0 0 302 45" fill="none" xmlns="http://www.w3.org/2000/svg">
<path d="M51.4891 27.081H64.0539L62.8031 43.1288H74.4204L77.68 1.36279H66.0628L64.8878 16.4266H52.323L53.498 1.36279H41.8618L38.6211 43.1288H50.2383L51.4891 27.081Z" fill="black"/>
<path d="M16.5226 34.0642C13.8884 34.0642 11.69 32.6071 11.9364 29.6359H0.0538389C-0.647365 38.7386 5.54976 44.1509 15.7835 44.1509C26.0173 44.1509 32.8967 39.4198 33.5979 30.2983C34.337 20.7604 26.4532 18.7166 20.4077 17.127C16.5416 16.1429 13.4525 15.3481 13.642 12.9825C13.7936 11.0333 15.8404 10.1439 17.8871 10.1439C20.275 10.1439 22.1512 11.3929 21.9428 14.0234H33.5031C34.1664 5.52633 28.8221 0.378906 18.7779 0.378906C8.7336 0.378906 2.49858 5.09106 1.85423 13.3232C1.11512 22.8421 8.6957 24.6778 14.6275 26.1917C18.5315 27.1569 21.7343 27.9138 21.5258 30.5443C21.3553 32.8152 18.9484 34.1021 16.5226 34.1021V34.0642Z" fill="black"/>
<path d="M195.407 33.1368H179.601L180.094 26.8917H193.834L194.554 17.4485H180.814L181.307 11.2981H196.601L197.378 1.36279H170.599L167.34 43.1288H194.63L195.407 33.1368Z" fill="black"/>
<path d="M293.913 43.1856C297.893 43.1856 301.001 40.0631 301.001 36.0511C301.001 32.0391 297.969 29.0112 293.951 29.0112C289.933 29.0112 286.863 32.1527 286.863 36.0889C286.863 40.0252 289.933 43.1666 293.913 43.1666V43.1856ZM293.951 30.317C297.249 30.317 299.637 32.7772 299.637 36.0511C299.637 39.325 297.173 41.8798 293.913 41.8798C290.654 41.8798 288.247 39.3439 288.247 36.0889C288.247 32.834 290.654 30.317 293.951 30.317Z" fill="black"/>
<path d="M93.6215 36.3349H108.442L110.223 43.1287H122.92L109.389 1.34375H98.132L78.4414 43.1287H90.7977L93.6405 36.3349H93.6215ZM102.718 14.3826L106.338 27.3269H97.1275L102.718 14.3826Z" fill="black"/>
<path d="M292.951 37.7539H294.335L295.794 40.0059H297.879L296.173 37.3944C297.121 36.9591 297.632 36.1264 297.632 34.991C297.632 33.3067 296.363 32.228 294.24 32.228H290.848V40.0059H292.932V37.7539H292.951ZM292.932 33.7609H294.107C295.055 33.7609 295.586 34.1962 295.586 34.991C295.586 35.7858 295.036 36.2021 294.107 36.2021H292.932V33.7798V33.7609Z" fill="black"/>
<path d="M51.4891 27.0809H64.0539L62.8031 43.1287H74.4204L77.68 1.34375H66.0628L64.8878 16.4265H52.323L53.498 1.34375H41.8618L38.6211 43.1287H50.2383L51.4891 27.0809Z" fill="black"/>
<path d="M139.457 30.336H143.645L149.445 43.1288H162.313L155.187 27.9326C159.508 25.4535 162.351 21.2523 162.748 16.1427C163.431 7.41859 157.366 1.36279 148.345 1.36279H130.209L126.949 43.1478H138.472L139.476 30.3549L139.457 30.336ZM140.916 11.5819H146.185C149.407 11.5819 151.112 13.4933 150.904 16.1049C150.695 18.7164 148.687 20.6467 145.465 20.6467H140.196L140.897 11.5819H140.916Z" fill="black"/>
<path d="M259.882 43.8473C273.223 43.8473 283.817 34.5744 284.822 21.9329C285.807 9.27256 276.654 0.0185547 263.312 0.0185547C249.97 0.0185547 239.357 9.34826 238.372 21.9329C237.386 34.5366 246.483 43.8473 259.882 43.8473ZM262.649 8.36419C270.229 8.36419 275.498 13.8712 274.872 21.9329C274.247 29.9758 268.107 35.5017 260.526 35.5017C252.945 35.5017 247.677 29.9947 248.302 21.9329C248.928 13.8901 255.068 8.36419 262.63 8.36419H262.649Z" fill="black"/>
<path d="M16.5226 34.0642C13.8884 34.0642 11.69 32.6071 11.9364 29.6359H0.0538389C-0.647365 38.7386 5.54976 44.1509 15.7835 44.1509C26.0173 44.1509 32.8967 39.4198 33.5979 30.2983C34.337 20.7604 26.4532 18.7166 20.4077 17.127C16.5416 16.1429 13.4525 15.3481 13.642 12.9825C13.7936 11.0333 15.8404 10.1439 17.8871 10.1439C20.275 10.1439 22.1512 11.374 21.9428 14.0234H33.5031C34.1664 5.52633 28.8221 0.378906 18.7779 0.378906C8.7336 0.378906 2.49858 5.09106 1.85423 13.3232C1.11512 22.8421 8.6957 24.6778 14.6275 26.1917C18.5315 27.1569 21.7343 27.9138 21.5258 30.5443C21.3553 32.8152 18.9484 34.1021 16.5226 34.1021V34.0642Z" fill="black"/>
<path d="M222.47 43.8477C228.762 43.8477 234.258 41.8985 238.465 38.3218C236.74 35.9941 235.471 33.3447 234.694 30.506C231.586 33.8178 227.89 35.5021 223.664 35.5021C215.723 35.5021 210.512 29.9194 211.137 21.9333C211.762 13.9472 217.827 8.36456 225.786 8.36456C229.956 8.36456 233.348 10.011 235.925 13.1524C237.119 10.257 238.787 7.62651 240.853 5.33667C237.214 1.89244 232.097 0 225.957 0C212.748 0 202.211 9.14046 201.206 21.9144C200.202 34.6883 209.318 43.8288 222.47 43.8288V43.8477Z" fill="black"/>
<path d="M195.407 33.1367H179.601L180.094 26.8916H193.834L194.554 17.4484H180.814L181.307 11.298H196.601L197.378 1.34375H170.599L167.34 43.1287H194.63L195.407 33.1367Z" fill="black"/>
</svg>
