<svg width="1193" height="601" viewBox="0 0 1193 601" fill="none" xmlns="http://www.w3.org/2000/svg">
<path d="M350.551 228.313H423.017C424.044 228.313 424.882 229.152 424.882 230.178V570.646H350.551V228.313Z" fill="white"/>
<path d="M366.844 228.313H415.733C420.791 228.313 424.889 232.411 424.889 237.47V319.365" stroke="#BDA782" stroke-width="5.06" stroke-miterlimit="10"/>
<path d="M223.559 179.146H278.797V570.646H221.449V181.256C221.449 180.088 222.391 179.146 223.559 179.146Z" fill="white"/>
<path d="M250.125 179.146H230.965C225.709 179.146 221.441 183.404 221.441 188.67V570.656" stroke="#BDA782" stroke-width="5.06" stroke-miterlimit="10"/>
<path d="M334.395 130.808H280.938V163.545H334.395V130.808Z" fill="white"/>
<path d="M334.395 130.808H280.938V163.545H334.395V130.808Z" stroke="#BDA782" stroke-width="5.06" stroke-miterlimit="10"/>
<path d="M267.005 149.348H349.249C349.974 149.348 350.558 149.932 350.558 150.657V570.646H265.695V150.657C265.695 149.932 266.279 149.348 267.005 149.348Z" fill="white"/>
<path d="M265.695 570.646V155.396C265.695 152.061 268.399 149.357 271.733 149.357H344.511C347.845 149.357 350.549 152.061 350.549 155.396V319.365" stroke="#BDA782" stroke-width="5.06" stroke-miterlimit="10"/>
<path d="M308.121 101.905V128.669" stroke="#BDA782" stroke-width="5.06" stroke-miterlimit="10"/>
<path d="M285.504 171.242V510.419" stroke="#BDA782" stroke-width="5.06" stroke-miterlimit="10"/>
<path d="M308.121 171.242V513.377" stroke="#BDA782" stroke-width="5.06" stroke-miterlimit="10"/>
<path d="M330.738 171.242V503.024" stroke="#BDA782" stroke-width="5.06" stroke-miterlimit="10"/>
<path d="M235.789 205.769H254.026" stroke="#BDA782" stroke-width="5.06" stroke-miterlimit="10"/>
<path d="M235.789 221.361H254.026" stroke="#BDA782" stroke-width="5.06" stroke-miterlimit="10"/>
<path d="M235.789 236.961H254.026" stroke="#BDA782" stroke-width="5.06" stroke-miterlimit="10"/>
<path d="M235.789 252.553H254.026" stroke="#BDA782" stroke-width="5.06" stroke-miterlimit="10"/>
<path d="M235.789 268.144H254.026" stroke="#BDA782" stroke-width="5.06" stroke-miterlimit="10"/>
<path d="M235.789 283.736H254.026" stroke="#BDA782" stroke-width="5.06" stroke-miterlimit="10"/>
<path d="M235.789 299.327H254.026" stroke="#BDA782" stroke-width="5.06" stroke-miterlimit="10"/>
<path d="M235.789 314.928H254.026" stroke="#BDA782" stroke-width="5.06" stroke-miterlimit="10"/>
<path d="M235.789 331.396H254.026" stroke="#BDA782" stroke-width="5.06" stroke-miterlimit="10"/>
<path d="M235.789 347.872H254.026" stroke="#BDA782" stroke-width="5.06" stroke-miterlimit="10"/>
<path d="M235.789 364.349H254.026" stroke="#BDA782" stroke-width="5.06" stroke-miterlimit="10"/>
<path d="M235.789 380.826H254.026" stroke="#BDA782" stroke-width="5.06" stroke-miterlimit="10"/>
<path d="M235.789 397.294H254.026" stroke="#BDA782" stroke-width="5.06" stroke-miterlimit="10"/>
<path d="M235.789 413.771H254.026" stroke="#BDA782" stroke-width="5.06" stroke-miterlimit="10"/>
<path d="M235.789 430.248H254.026" stroke="#BDA782" stroke-width="5.06" stroke-miterlimit="10"/>
<path d="M235.789 446.725H254.026" stroke="#BDA782" stroke-width="5.06" stroke-miterlimit="10"/>
<path d="M235.789 463.202H254.026" stroke="#BDA782" stroke-width="5.06" stroke-miterlimit="10"/>
<path d="M235.789 479.669H254.026" stroke="#BDA782" stroke-width="5.06" stroke-miterlimit="10"/>
<path d="M235.789 496.146H254.026" stroke="#BDA782" stroke-width="5.06" stroke-miterlimit="10"/>
<path d="M235.789 512.623H254.026" stroke="#BDA782" stroke-width="5.06" stroke-miterlimit="10"/>
<path d="M235.789 529.1H254.026" stroke="#BDA782" stroke-width="5.06" stroke-miterlimit="10"/>
<path d="M235.789 545.568H254.026" stroke="#BDA782" stroke-width="5.06" stroke-miterlimit="10"/>
<path d="M361.129 252.553H372.565" stroke="#BDA782" stroke-width="5.06" stroke-miterlimit="10"/>
<path d="M382.004 252.553H393.44" stroke="#BDA782" stroke-width="5.06" stroke-miterlimit="10"/>
<path d="M402.879 252.553H414.315" stroke="#BDA782" stroke-width="5.06" stroke-miterlimit="10"/>
<path d="M361.129 270.17H372.565" stroke="#BDA782" stroke-width="5.06" stroke-miterlimit="10"/>
<path d="M382.004 270.17H393.44" stroke="#BDA782" stroke-width="5.06" stroke-miterlimit="10"/>
<path d="M402.879 270.17H414.315" stroke="#BDA782" stroke-width="5.06" stroke-miterlimit="10"/>
<path d="M361.129 287.796H372.565" stroke="#BDA782" stroke-width="5.06" stroke-miterlimit="10"/>
<path d="M382.004 287.796H393.44" stroke="#BDA782" stroke-width="5.06" stroke-miterlimit="10"/>
<path d="M402.879 287.796H414.315" stroke="#BDA782" stroke-width="5.06" stroke-miterlimit="10"/>
<path d="M361.129 305.422H372.565" stroke="#BDA782" stroke-width="5.06" stroke-miterlimit="10"/>
<path d="M382.004 305.422H393.44" stroke="#BDA782" stroke-width="5.06" stroke-miterlimit="10"/>
<path d="M402.879 305.422H414.315" stroke="#BDA782" stroke-width="5.06" stroke-miterlimit="10"/>
<path d="M361.129 323.039H372.565" stroke="#BDA782" stroke-width="5.06" stroke-miterlimit="10"/>
<path d="M382.004 323.039H393.44" stroke="#BDA782" stroke-width="5.06" stroke-miterlimit="10"/>
<path d="M402.879 323.039H414.315" stroke="#BDA782" stroke-width="5.06" stroke-miterlimit="10"/>
<path d="M361.129 339.676H372.565" stroke="#BDA782" stroke-width="5.06" stroke-miterlimit="10"/>
<path d="M382.004 339.676H393.44" stroke="#BDA782" stroke-width="5.06" stroke-miterlimit="10"/>
<path d="M402.879 339.676H414.315" stroke="#BDA782" stroke-width="5.06" stroke-miterlimit="10"/>
<path d="M361.129 356.314H372.565" stroke="#BDA782" stroke-width="5.06" stroke-miterlimit="10"/>
<path d="M382.004 356.314H393.44" stroke="#BDA782" stroke-width="5.06" stroke-miterlimit="10"/>
<path d="M402.879 356.314H414.315" stroke="#BDA782" stroke-width="5.06" stroke-miterlimit="10"/>
<path d="M361.129 372.951H372.565" stroke="#BDA782" stroke-width="5.06" stroke-miterlimit="10"/>
<path d="M382.004 372.951H393.44" stroke="#BDA782" stroke-width="5.06" stroke-miterlimit="10"/>
<path d="M402.879 372.951H414.315" stroke="#BDA782" stroke-width="5.06" stroke-miterlimit="10"/>
<path d="M361.129 389.588H372.565" stroke="#BDA782" stroke-width="5.06" stroke-miterlimit="10"/>
<path d="M382.004 389.588H393.44" stroke="#BDA782" stroke-width="5.06" stroke-miterlimit="10"/>
<path d="M402.879 389.588H414.315" stroke="#BDA782" stroke-width="5.06" stroke-miterlimit="10"/>
<path d="M361.129 406.225H372.565" stroke="#BDA782" stroke-width="5.06" stroke-miterlimit="10"/>
<path d="M382.004 406.225H393.44" stroke="#BDA782" stroke-width="5.06" stroke-miterlimit="10"/>
<path d="M402.879 406.225H414.315" stroke="#BDA782" stroke-width="5.06" stroke-miterlimit="10"/>
<path d="M361.129 422.862H372.565" stroke="#BDA782" stroke-width="5.06" stroke-miterlimit="10"/>
<path d="M382.004 422.862H393.44" stroke="#BDA782" stroke-width="5.06" stroke-miterlimit="10"/>
<path d="M402.879 422.862H414.315" stroke="#BDA782" stroke-width="5.06" stroke-miterlimit="10"/>
<path d="M145.742 489.505V331.198C145.742 330.188 144.924 329.37 143.915 329.37H62.3486C61.3393 329.37 60.5212 330.188 60.5212 331.198L60.5212 489.505C60.5212 490.514 61.3393 491.332 62.3486 491.332H143.915C144.924 491.332 145.742 490.514 145.742 489.505Z" fill="white"/>
<path d="M69.5736 491.332C64.5717 491.332 60.5117 487.272 60.5117 482.27V478.793" stroke="#BDA782" stroke-width="5.06" stroke-miterlimit="10"/>
<path d="M60.5117 458.671V338.423C60.5117 333.421 64.5622 329.361 69.5736 329.361H136.68C141.682 329.361 145.742 333.412 145.742 338.423V393.318" stroke="#BDA782" stroke-width="5.06" stroke-miterlimit="10"/>
<path d="M74.8299 410.078C75.1501 394.232 88.2437 381.646 104.088 381.957C119.932 382.277 132.517 395.372 132.206 411.218C131.886 427.064 118.792 439.65 102.948 439.339C87.1039 439.019 74.519 425.924 74.8299 410.078Z" fill="white"/>
<path d="M109.852 382.654C122.87 385.593 132.469 397.351 132.195 411.218C131.875 427.064 118.782 439.65 102.938 439.339" stroke="#BDA782" stroke-width="5.06" stroke-miterlimit="10"/>
<path d="M98.869 439.056C85.8508 436.117 76.252 424.36 76.5252 410.493C76.8455 394.647 89.939 382.061 105.783 382.371" stroke="#BDA782" stroke-width="5.06" stroke-miterlimit="10"/>
<path d="M96.5992 455.26C96.684 450.993 100.216 447.601 104.484 447.686C108.751 447.771 112.142 451.303 112.057 455.571C111.972 459.839 108.44 463.23 104.173 463.145C99.9056 463.061 96.5144 459.528 96.5992 455.26Z" fill="white"/>
<path d="M96.5992 363.991C96.684 359.724 100.216 356.332 104.484 356.417C108.751 356.502 112.142 360.035 112.057 364.302C111.972 368.57 108.44 371.961 104.173 371.877C99.9056 371.792 96.5144 368.259 96.5992 363.991Z" fill="white"/>
<path d="M114.382 422.137V407.93C114.382 404.925 111.951 402.494 108.946 402.494C105.941 402.494 103.511 404.925 103.511 407.93V413.78C103.511 416.786 101.081 419.216 98.0759 419.216C95.0804 419.216 92.6406 416.786 92.6406 413.78V399.15" stroke="#BDA782" stroke-width="5.06" stroke-miterlimit="10"/>
<path d="M123.359 410.643H83.6641" stroke="#BDA782" stroke-width="5.06" stroke-miterlimit="10"/>
<path d="M88.6016 346.026C89.1102 344.698 89.4305 343.285 89.553 341.815C89.6095 341.099 90.1558 340.534 90.8717 340.534H116.155C116.87 340.534 117.417 341.099 117.473 341.815C118.086 349.323 124.095 355.305 131.612 355.89C132.281 355.946 132.818 356.464 132.818 357.143V369.512" stroke="#BDA782" stroke-width="5.06" stroke-miterlimit="10"/>
<path d="M79.3984 464.295C82.686 465.472 85.4554 467.733 87.2734 470.644C88.5357 472.67 89.3458 475.006 89.553 477.512C89.6095 478.228 90.1559 478.793 90.8718 478.793H116.155C116.87 478.793 117.417 478.228 117.473 477.512C118.086 470.004 124.095 464.022 131.612 463.437C132.281 463.381 132.818 462.863 132.818 462.184V449.815" stroke="#BDA782" stroke-width="5.06" stroke-miterlimit="10"/>
<path d="M127.646 355.296C124.359 354.118 121.589 351.857 119.771 348.946C118.509 346.921 117.699 344.585 117.492 342.079C117.435 341.363 116.889 340.797 116.173 340.797H90.8902C90.1743 340.797 89.6279 341.363 89.5714 342.079C88.9591 349.587 82.9493 355.569 75.4323 356.153C74.7635 356.21 74.2266 356.728 74.2266 357.406V369.776" stroke="#BDA782" stroke-width="5.06" stroke-miterlimit="10"/>
<path d="M143.563 479.538H28.293L37.5997 465.774C39.0692 462.608 42.2343 460.592 45.7196 460.592H126.146C129.631 460.592 132.796 462.618 134.266 465.774L143.573 479.538H143.563Z" fill="white"/>
<path d="M28.293 479.538L37.5997 465.774C39.0692 462.608 42.2343 460.592 45.7196 460.592H126.146C129.631 460.592 132.796 462.618 134.266 465.774L143.573 479.538" stroke="#BDA782" stroke-width="4" stroke-miterlimit="10"/>
<path d="M142.443 476.099H29.4905C28.2315 476.099 27.2109 477.12 27.2109 478.379V566.784C27.2109 568.043 28.2315 569.063 29.4905 569.063H142.443C143.702 569.063 144.723 568.043 144.723 566.784V478.379C144.723 477.12 143.702 476.099 142.443 476.099Z" fill="white"/>
<path d="M27.2109 567.537V483.739C27.2109 479.528 30.6303 476.108 34.841 476.108H137.093C141.304 476.108 144.723 479.528 144.723 483.739V494.536" stroke="#BDA782" stroke-width="4" stroke-miterlimit="10"/>
<path d="M96.1155 475.609H90.4259H78.5664L81.6844 460.592H92.9128L96.1155 475.609Z" fill="white"/>
<path d="M96.1155 475.609H90.4259H78.5664L81.6844 460.592H92.9128L96.1155 475.609Z" stroke="#BDA782" stroke-width="5.06" stroke-miterlimit="10"/>
<path d="M96.1155 507.084H90.4259L85.9233 503.937L78.5664 507.084V476.099H96.1155V507.084Z" fill="white"/>
<path d="M96.1155 507.084H90.4259L85.9233 503.937L78.5664 507.084V476.099H96.1155V507.084Z" stroke="#BDA782" stroke-width="5.06" stroke-miterlimit="10"/>
<path d="M40.4365 485.925C40.0409 485.963 39.8901 486.094 39.5133 486.669L38.5243 488.186V489.467C38.5243 489.985 38.6467 490.051 39.2119 490.079V490.202H37.1678V490.079C37.7613 490.042 37.846 489.976 37.846 489.382V488.242L36.97 486.961C36.3577 486.057 36.207 485.925 35.8867 485.915V485.793H37.7518V485.915H37.5917C37.375 485.925 37.2809 485.991 37.2809 486.094C37.2809 486.179 37.328 486.302 37.4033 486.405L38.3736 487.875L39.3438 486.396C39.4097 486.292 39.438 486.189 39.438 486.113C39.438 485.963 39.3344 485.915 38.9858 485.906V485.784H40.4365V485.906V485.925Z" fill="#BDA782"/>
<path d="M42.6307 490.306C41.3402 490.306 40.4453 489.373 40.4453 487.988C40.4453 486.603 41.3214 485.708 42.6307 485.708C43.9401 485.708 44.8161 486.688 44.8161 488.007C44.8161 489.326 43.9118 490.306 42.6307 490.306ZM43.4408 486.255C43.2053 486.057 42.9321 485.944 42.6213 485.944C42.2633 485.944 41.9242 486.094 41.6699 486.386C41.3873 486.716 41.2083 487.357 41.2083 487.997C41.2083 488.789 41.4061 489.392 41.8112 489.769C42.0373 489.976 42.3293 490.07 42.6401 490.07C42.9698 490.07 43.2713 489.966 43.4973 489.75C43.8647 489.392 44.0531 488.77 44.0531 487.969C44.0531 487.168 43.827 486.584 43.4502 486.264L43.4408 486.255Z" fill="#BDA782"/>
<path d="M49.7352 485.925C49.1794 485.981 49.1041 486.142 49.1041 486.773V488.478C49.1041 489.128 49.0475 489.486 48.7461 489.825C48.4635 490.145 48.0114 490.315 47.3991 490.315C46.9093 490.315 46.5419 490.211 46.2687 490.004C45.9013 489.731 45.7318 489.26 45.7318 488.553V486.49C45.7318 486.047 45.6564 485.972 45.1289 485.934V485.812H47.0129V485.934C46.4759 485.981 46.41 486.057 46.41 486.565V488.647C46.41 489.166 46.4383 489.467 46.702 489.731C46.8998 489.919 47.173 490.032 47.5592 490.032C47.9831 490.032 48.3599 489.882 48.5766 489.637C48.7932 489.373 48.8215 489.1 48.8215 488.563V486.81C48.8215 486.123 48.7367 485.981 48.1903 485.944V485.821H49.7352V485.944V485.925Z" fill="#BDA782"/>
<path d="M54.5658 485.925C54.3115 485.953 54.2079 485.972 54.1231 486.047C54.0007 486.16 53.9253 486.311 53.9253 486.839V490.296H53.8028L50.8639 486.631V489.222C50.8639 489.91 50.9675 490.023 51.4856 490.098V490.221H49.9219V490.098C50.4682 490.042 50.5718 489.938 50.5718 489.222V486.283C50.3552 486.01 50.2516 485.925 49.9219 485.925V485.802H51.0523L53.6239 489.024V486.754C53.6239 486.415 53.5956 486.217 53.5014 486.104C53.3884 485.981 53.2659 485.963 52.9739 485.934V485.812H54.5564V485.934L54.5658 485.925Z" fill="#BDA782"/>
<path d="M59.3223 487.969C58.9361 488.007 58.8513 488.073 58.8513 488.506V489.844C58.4839 490.145 57.8434 490.315 57.1557 490.315C56.4681 490.315 55.7993 490.061 55.3566 489.599C54.9798 489.203 54.8008 488.695 54.8008 488.035C54.8008 487.3 55.0645 486.688 55.5167 486.283C55.9123 485.915 56.4681 485.708 57.1086 485.708C57.4666 485.708 57.6927 485.765 57.9941 485.859C58.1166 485.906 58.2202 485.925 58.2861 485.925C58.4274 485.925 58.5499 485.831 58.5875 485.708H58.7383L58.7948 487.112H58.6441C58.4745 486.707 58.3709 486.528 58.1731 486.339C57.9187 486.104 57.5702 485.972 57.2028 485.972C56.7413 485.972 56.3739 486.142 56.0913 486.434C55.7333 486.792 55.5732 487.395 55.5732 488.054C55.5732 489.298 56.2797 490.042 57.3253 490.042C57.8434 490.042 58.2108 489.853 58.2108 489.637V488.591C58.2108 488.073 58.1448 488.016 57.6173 487.979V487.856H59.3223V487.979V487.969Z" fill="#BDA782"/>
<path d="M38.5629 494.931C39.0056 495.007 39.1846 495.129 39.373 495.299C39.5896 495.496 39.7027 495.77 39.7027 496.062C39.7027 496.806 39.0715 497.249 38.1107 497.249H35.8594V497.126C36.3869 497.117 36.4999 497.004 36.4999 496.495V493.584C36.4999 493.056 36.3963 493 35.8594 492.962V492.84H37.7245C38.8737 492.84 39.4672 493.245 39.4672 493.951C39.4672 494.225 39.3635 494.498 39.194 494.649C39.0339 494.79 38.902 494.846 38.5534 494.931H38.5629ZM37.7999 494.818C38.4781 494.818 38.7984 494.545 38.7984 493.989C38.7984 493.433 38.4121 493.085 37.6209 493.085H37.3477C37.2347 493.085 37.1876 493.141 37.1876 493.301V494.818H37.7999ZM37.1876 496.712C37.1876 496.938 37.2912 497.013 37.602 497.013C38.1578 497.013 38.3933 496.985 38.6853 496.731C38.8549 496.58 38.9397 496.354 38.9397 496.071C38.9397 495.751 38.8455 495.506 38.6288 495.355C38.2332 495.091 37.9788 495.12 37.1876 495.091V496.721V496.712Z" fill="#BDA782"/>
<path d="M42.4901 497.352C41.1996 497.352 40.3047 496.42 40.3047 495.035C40.3047 493.65 41.1807 492.755 42.4901 492.755C43.7994 492.755 44.6755 493.735 44.6755 495.054C44.6755 496.373 43.7712 497.352 42.4901 497.352ZM43.3002 493.301C43.0647 493.104 42.7915 492.99 42.4807 492.99C42.1227 492.99 41.7836 493.141 41.5293 493.433C41.2467 493.763 41.0677 494.404 41.0677 495.044C41.0677 495.836 41.2655 496.438 41.6706 496.815C41.8966 497.023 42.1886 497.117 42.4995 497.117C42.8292 497.117 43.1306 497.013 43.3567 496.797C43.7241 496.439 43.9125 495.817 43.9125 495.016C43.9125 494.215 43.6864 493.631 43.3096 493.311L43.3002 493.301Z" fill="#BDA782"/>
<path d="M47.8604 494.168C47.7851 493.876 47.7097 493.697 47.5873 493.537C47.3518 493.235 47.0221 493.019 46.617 493.019C46.212 493.019 45.9388 493.283 45.9388 493.65C45.9388 494.102 46.4286 494.385 47.1351 494.79C47.8416 495.204 48.1713 495.591 48.1713 496.099C48.1713 496.844 47.5873 497.343 46.8148 497.343C46.5322 497.343 46.2779 497.296 46.0236 497.192C45.9011 497.136 45.7786 497.117 45.7127 497.117C45.6091 497.117 45.5243 497.192 45.5243 497.333H45.3736L45.1758 495.92H45.3265C45.6374 496.731 46.0707 497.098 46.7018 497.098C47.1728 497.098 47.4931 496.787 47.4931 496.354C47.4931 496.118 47.4271 495.967 47.2952 495.826C47.0597 495.572 46.5982 495.28 46.1743 495.054C45.5714 494.733 45.3642 494.319 45.3642 493.904C45.3642 493.179 45.8634 492.736 46.5228 492.736C46.796 492.736 46.9655 492.774 47.2199 492.887C47.3423 492.943 47.446 492.962 47.5119 492.962C47.6249 492.962 47.7003 492.887 47.7285 492.736H47.8698L48.0206 494.159H47.851L47.8604 494.168Z" fill="#BDA782"/>
<path d="M51.5636 494.168C51.4882 493.876 51.4128 493.697 51.2904 493.537C51.0549 493.235 50.7252 493.019 50.3201 493.019C49.9151 493.019 49.6419 493.283 49.6419 493.65C49.6419 494.102 50.1317 494.385 50.8382 494.79C51.5447 495.204 51.8744 495.591 51.8744 496.099C51.8744 496.844 51.2904 497.343 50.518 497.343C50.2354 497.343 49.981 497.296 49.7267 497.192C49.6042 497.136 49.4818 497.117 49.4158 497.117C49.3122 497.117 49.2274 497.192 49.2274 497.333H49.0767L48.8789 495.92H49.0296C49.3405 496.731 49.7738 497.098 50.4049 497.098C50.8759 497.098 51.1962 496.787 51.1962 496.354C51.1962 496.118 51.1302 495.967 50.9984 495.826C50.7629 495.572 50.3013 495.28 49.8774 495.054C49.2745 494.733 49.0673 494.319 49.0673 493.904C49.0673 493.179 49.5666 492.736 50.2259 492.736C50.4991 492.736 50.6687 492.774 50.923 492.887C51.0455 492.943 51.1491 492.962 51.215 492.962C51.3281 492.962 51.4034 492.887 51.4317 492.736H51.573L51.7237 494.159H51.5541L51.5636 494.168Z" fill="#BDA782"/>
<path d="M40.4746 502.053C40.0884 502.091 40.0036 502.157 40.0036 502.59V503.928C39.6363 504.229 38.9957 504.399 38.3081 504.399C37.6204 504.399 36.9516 504.145 36.5089 503.683C36.1321 503.287 35.9531 502.779 35.9531 502.119C35.9531 501.384 36.2169 500.772 36.669 500.367C37.0647 500 37.6204 499.792 38.261 499.792C38.6189 499.792 38.845 499.849 39.1464 499.943C39.2689 499.99 39.3725 500.009 39.4385 500.009C39.5798 500.009 39.7022 499.915 39.7399 499.792H39.8906L39.9471 501.196H39.7964C39.6269 500.791 39.5232 500.612 39.3254 500.424C39.0711 500.188 38.7226 500.056 38.3552 500.056C37.8936 500.056 37.5262 500.226 37.2436 500.518C36.8857 500.876 36.7256 501.479 36.7256 502.138C36.7256 503.382 37.432 504.126 38.4776 504.126C38.9957 504.126 39.3631 503.937 39.3631 503.721V502.675C39.3631 502.157 39.2972 502.1 38.7696 502.063V501.94H40.4746V502.063V502.053Z" fill="#BDA782"/>
<path d="M43.884 504.295L42.2921 502.242H41.9153V503.551C41.9153 504.06 42.0001 504.135 42.5087 504.173V504.295H40.6719V504.173C41.1711 504.135 41.2371 504.06 41.2371 503.476V500.631C41.2371 500.141 41.1805 500.056 40.6719 500.018V499.896H42.4899C43.121 499.896 43.6014 500.056 43.884 500.292C44.1007 500.471 44.2137 500.8 44.2137 501.092C44.2137 501.676 43.8369 502.063 43.008 502.185L44.3456 503.871C44.5434 504.116 44.6753 504.154 44.9767 504.182V504.305H43.8934L43.884 504.295ZM41.9247 502.006C42.5653 501.997 42.8008 501.95 43.1022 501.78C43.3377 501.648 43.479 501.356 43.479 501.017C43.479 500.414 43.0833 500.122 42.2544 500.122C42.0283 500.122 41.9153 500.169 41.9153 500.405V502.006H41.9247Z" fill="#BDA782"/>
<path d="M47.2479 504.39C45.9574 504.39 45.0625 503.457 45.0625 502.072C45.0625 500.687 45.9385 499.792 47.2479 499.792C48.5572 499.792 49.4333 500.772 49.4333 502.091C49.4333 503.41 48.529 504.39 47.2479 504.39ZM48.058 500.339C47.8225 500.141 47.5493 500.028 47.2385 500.028C46.8805 500.028 46.5414 500.179 46.2871 500.471C46.0045 500.8 45.8255 501.441 45.8255 502.082C45.8255 502.873 46.0233 503.476 46.4284 503.853C46.6544 504.06 46.9465 504.154 47.2573 504.154C47.587 504.154 47.8884 504.051 48.1145 503.834C48.4819 503.476 48.6703 502.854 48.6703 502.053C48.6703 501.253 48.4442 500.668 48.0674 500.348L48.058 500.339Z" fill="#BDA782"/>
<path d="M54.3485 500.009C53.7927 500.066 53.7173 500.226 53.7173 500.857V502.562C53.7173 503.212 53.6608 503.57 53.3594 503.909C53.0768 504.23 52.6246 504.399 52.0124 504.399C51.5225 504.399 51.1552 504.295 50.882 504.088C50.5146 503.815 50.3451 503.344 50.3451 502.637V500.574C50.3451 500.131 50.2697 500.056 49.7422 500.018V499.896H51.6261V500.018C51.0892 500.066 51.0233 500.141 51.0233 500.65V502.732C51.0233 503.25 51.0515 503.551 51.3153 503.815C51.5131 504.003 51.7863 504.116 52.1725 504.116C52.5964 504.116 52.9732 503.966 53.1898 503.721C53.4065 503.457 53.4348 503.184 53.4348 502.647V500.895C53.4348 500.207 53.35 500.066 52.8036 500.028V499.905H54.3485V500.028V500.009Z" fill="#BDA782"/>
<path d="M56.298 499.877C56.9669 499.877 57.4473 500.047 57.7487 500.301C57.9654 500.489 58.0784 500.763 58.0784 501.092C58.0784 501.45 57.9465 501.742 57.7016 501.969C57.3154 502.317 56.9857 502.374 56.2698 502.374C56.1002 502.374 55.9872 502.374 55.8082 502.355V503.551C55.8082 504.06 55.893 504.145 56.4393 504.173V504.295H54.5742V504.173C55.0923 504.135 55.13 504.06 55.13 503.485V500.621C55.13 500.131 55.064 500.047 54.5742 500.009V499.887H56.298V499.877ZM55.8082 502.082C55.9589 502.091 56.0814 502.1 56.2133 502.1C56.948 502.1 57.3436 501.724 57.3436 501.121C57.3436 500.386 56.948 500.122 56.0343 500.122C55.8365 500.122 55.7988 500.179 55.7988 500.358V502.082H55.8082Z" fill="#BDA782"/>
<path d="M36 508.036H36.6876C36.763 508.036 36.8384 508.045 36.8949 508.073C36.9608 508.092 37.0079 508.13 37.055 508.167C37.1021 508.205 37.1304 508.252 37.1586 508.299C37.1869 508.346 37.1963 508.403 37.1963 508.459C37.1963 508.544 37.1681 508.62 37.121 508.695C37.0739 508.77 37.0079 508.827 36.9137 508.874C36.9797 508.893 37.0362 508.921 37.0833 508.949C37.1304 508.978 37.1681 509.015 37.1963 509.053C37.2246 509.091 37.2434 509.138 37.2623 509.175C37.2811 509.213 37.2811 509.27 37.2811 509.317C37.2811 509.383 37.2623 509.449 37.2434 509.515C37.2246 509.581 37.1775 509.628 37.1304 509.675C37.0833 509.722 37.0268 509.76 36.9702 509.778C36.9043 509.807 36.8478 509.816 36.7724 509.816H36V508.036ZM36.1884 508.78H36.65C36.7065 508.78 36.7536 508.78 36.8007 508.752C36.8478 508.733 36.8855 508.714 36.9137 508.686C36.942 508.657 36.9702 508.629 36.9891 508.591C37.0079 508.554 37.0173 508.516 37.0173 508.469C37.0173 508.431 37.0173 508.393 36.9985 508.365C36.9891 508.337 36.9702 508.309 36.942 508.28C36.9137 508.252 36.8855 508.233 36.8384 508.224C36.7913 508.214 36.7442 508.205 36.6876 508.205H36.1978V508.78H36.1884ZM36.1884 509.637H36.6876C36.7347 509.637 36.7818 509.637 36.8289 509.618C36.876 509.609 36.9231 509.581 36.9608 509.552C36.9985 509.524 37.0268 509.486 37.055 509.449C37.0833 509.402 37.0927 509.354 37.0927 509.298C37.0927 509.251 37.0833 509.204 37.0644 509.166C37.0456 509.119 37.0079 509.081 36.9702 509.053C36.9326 509.025 36.876 508.996 36.8195 508.978C36.763 508.959 36.6971 508.949 36.6217 508.949H36.1884V509.637Z" fill="#BDA782"/>
<path d="M39.4849 508.544C39.4849 508.544 39.4849 508.629 39.4661 508.676C39.4567 508.723 39.4378 508.761 39.419 508.799C39.4001 508.836 39.3719 508.874 39.3436 508.902C39.3154 508.93 39.2777 508.959 39.2306 508.987C39.2777 508.996 39.3154 509.015 39.3436 509.044C39.3719 509.072 39.4001 509.1 39.4096 509.128C39.4284 509.157 39.4378 509.194 39.4472 509.232C39.4567 509.27 39.4566 509.307 39.4566 509.345V509.618C39.4566 509.618 39.4566 509.694 39.4755 509.731C39.4849 509.769 39.5037 509.797 39.5132 509.835H39.3059C39.3059 509.835 39.2871 509.807 39.2871 509.788C39.2871 509.769 39.2871 509.75 39.2777 509.731C39.2683 509.712 39.2777 509.694 39.2777 509.675C39.2777 509.656 39.2777 509.646 39.2777 509.628V509.345C39.2777 509.345 39.2777 509.279 39.2588 509.241C39.24 509.204 39.2306 509.175 39.2023 509.147C39.1741 509.119 39.1458 509.1 39.0987 509.081C39.061 509.062 39.0045 509.053 38.948 509.053H38.411V509.816H38.2227V508.036H38.948C39.0328 508.036 39.1081 508.054 39.1741 508.083C39.24 508.111 39.2965 508.149 39.3436 508.196C39.3907 508.243 39.419 508.299 39.4472 508.356C39.4755 508.412 39.4849 508.478 39.4849 508.535V508.544ZM38.411 508.883H38.948C38.948 508.883 39.0422 508.883 39.0799 508.855C39.1175 508.836 39.1552 508.808 39.1929 508.78C39.2306 508.751 39.2494 508.714 39.2683 508.667C39.2871 508.629 39.2965 508.582 39.2965 508.535C39.2965 508.488 39.2965 508.441 39.2683 508.403C39.2494 508.365 39.2306 508.328 39.1929 508.299C39.1646 508.271 39.127 508.243 39.0799 508.233C39.0328 508.214 38.9951 508.205 38.9386 508.205H38.4016V508.883H38.411Z" fill="#BDA782"/>
<path d="M41.3239 508.036L41.9738 509.816H41.776L41.5688 509.251H40.8152L40.608 509.816H40.4102L41.0601 508.036H41.3239ZM41.192 508.215L40.8623 509.109H41.5123L41.1826 508.215H41.192Z" fill="#BDA782"/>
<path d="M43.1606 508.036L44.0649 509.571V508.036H44.2533V509.816H43.9989L43.0946 508.28V509.816H42.9062V508.036H43.1606Z" fill="#BDA782"/>
<path d="M45.2868 508.036H45.9461C46.0215 508.036 46.0969 508.045 46.1628 508.064C46.2287 508.083 46.2947 508.111 46.3512 508.158C46.4077 508.196 46.4548 508.243 46.5019 508.299C46.549 508.356 46.5867 508.412 46.615 508.478C46.6432 508.544 46.6715 508.61 46.6809 508.686C46.6997 508.761 46.7092 508.836 46.7092 508.921C46.7092 509.044 46.6903 509.166 46.6526 509.27C46.615 509.383 46.5584 509.477 46.4925 509.552C46.4266 509.637 46.3418 509.694 46.2476 509.741C46.1534 509.788 46.0498 509.807 45.9367 509.807H45.2773V508.026L45.2868 508.036ZM45.4752 509.646H45.8708C45.965 509.646 46.0498 509.628 46.1345 509.599C46.2099 509.571 46.2853 509.524 46.3418 509.458C46.3983 509.392 46.4454 509.326 46.4737 509.232C46.5019 509.147 46.5208 509.044 46.5208 508.93C46.5208 508.808 46.5019 508.704 46.4737 508.61C46.436 508.516 46.3983 508.441 46.3324 508.384C46.2758 508.328 46.2005 508.28 46.1251 508.252C46.0498 508.224 45.9556 508.205 45.8708 508.205H45.4752V509.637V509.646Z" fill="#BDA782"/>
<path d="M49.4801 508.036L50.1301 509.816H49.9323L49.725 509.251H48.9715L48.7642 509.816H48.5664L49.2164 508.036H49.4801ZM49.3482 508.215L49.0186 509.109H49.6685L49.3388 508.215H49.3482Z" fill="#BDA782"/>
<path d="M51.1454 508.921C51.1454 509.044 51.1643 509.157 51.1925 509.251C51.2208 509.345 51.2679 509.43 51.3244 509.496C51.3809 509.562 51.4469 509.609 51.5222 509.646C51.5976 509.684 51.6729 509.694 51.7577 509.694C51.8048 509.694 51.8519 509.694 51.899 509.665C51.9461 509.646 51.9932 509.628 52.0309 509.599C52.0686 509.571 52.1157 509.533 52.1533 509.496C52.191 509.458 52.2193 509.411 52.2475 509.364C52.2758 509.317 52.2946 509.27 52.3135 509.213C52.3323 509.157 52.3417 509.109 52.3417 509.053H51.786V508.883H52.5207V509.816H52.4077L52.3512 509.496C52.3512 509.496 52.2852 509.59 52.2381 509.628C52.191 509.665 52.1439 509.712 52.0968 509.741C52.0497 509.769 51.9932 509.797 51.9367 509.825C51.8802 509.844 51.8237 509.854 51.7671 509.854C51.6447 509.854 51.5316 509.825 51.428 509.778C51.3244 509.731 51.2396 509.665 51.1737 509.58C51.1078 509.496 51.0512 509.402 51.0136 509.279C50.9759 509.166 50.957 509.044 50.957 508.912C50.957 508.836 50.957 508.761 50.9853 508.686C51.0136 508.61 51.023 508.535 51.0512 508.469C51.0795 508.403 51.1172 508.337 51.1643 508.28C51.2114 508.224 51.2585 508.167 51.3244 508.13C51.3809 508.083 51.4469 508.054 51.5222 508.026C51.5976 507.998 51.6729 507.988 51.7577 507.988C51.8613 507.988 51.9555 507.998 52.0403 508.026C52.1251 508.054 52.2004 508.092 52.257 508.139C52.3229 508.186 52.37 508.243 52.4077 508.318C52.4454 508.384 52.483 508.459 52.5019 508.544H52.3041C52.257 508.412 52.191 508.309 52.0968 508.252C52.0026 508.186 51.8896 508.158 51.7483 508.158C51.6635 508.158 51.5787 508.177 51.5034 508.215C51.428 508.252 51.3621 508.309 51.315 508.384C51.2585 508.45 51.2208 508.535 51.1925 508.629C51.1643 508.723 51.1454 508.817 51.1454 508.921Z" fill="#BDA782"/>
<path d="M54.7455 508.036V508.205H53.747V508.808H54.689V508.978H53.747V509.637H54.7926V509.807H53.5586V508.026H54.7455V508.036Z" fill="#BDA782"/>
<path d="M56.0082 508.036L56.9125 509.571V508.036H57.1009V509.816H56.8466L55.9423 508.28V509.816H55.7539V508.036H56.0082Z" fill="#BDA782"/>
<path d="M59.3815 508.036V508.205H58.788V509.816H58.5997V508.205H58.0156V508.036H59.3815Z" fill="#BDA782"/>
<path d="M59.4181 506.133H35.7461V506.264H59.4181V506.133Z" fill="#BDA782"/>
<path d="M268.011 540.942H121.477V387.28C121.477 386.969 121.731 386.714 122.042 386.714H274.04C274.351 386.714 274.605 386.969 274.605 387.28V528.893" fill="white"/>
<path d="M274.606 540.942H121.478L117.738 565.86H278.346L274.606 540.942Z" fill="white"/>
<path d="M230.313 540.942H121.477V387.28C121.477 386.969 121.731 386.714 122.042 386.714H274.04C274.351 386.714 274.605 386.969 274.605 387.28V525.935" stroke="#BDA782" stroke-width="4.84" stroke-miterlimit="10"/>
<path d="M229.947 540.942H121.478L117.738 565.86H254.749L251.01 540.942" stroke="#BDA782" stroke-width="4.84" stroke-miterlimit="10"/>
<path d="M158.468 411.84C158.468 416.503 154.69 420.281 150.018 420.281C145.346 420.281 141.578 416.503 141.578 411.84C141.578 407.176 145.355 403.389 150.018 403.389C154.681 403.389 158.468 407.167 158.468 411.84Z" stroke="#BDA782" stroke-width="4.84" stroke-miterlimit="10"/>
<path d="M254.513 411.84C254.513 416.503 250.736 420.281 246.073 420.281C241.41 420.281 237.633 416.503 237.633 411.84C237.633 407.176 241.41 403.389 246.073 403.389C250.736 403.389 254.513 407.167 254.513 411.84Z" stroke="#BDA782" stroke-width="4.84" stroke-miterlimit="10"/>
<path d="M150.02 413.064V391.406C150.02 364.99 171.629 343.379 198.042 343.379C224.455 343.379 246.064 364.99 246.064 391.406V413.064" stroke="#BDA782" stroke-width="4.84" stroke-miterlimit="10"/>
<path d="M208.582 479.133C209.354 476.824 211.963 474.959 214.394 474.959H251.103V532.756C240.317 532.756 231.576 541.498 231.576 552.285H196.977V513.622L208.572 479.133H208.582Z" fill="#BDA782"/>
<path d="M238.058 509.354H206.257C205.042 509.354 203.111 509.646 201.943 510.014L196.762 511.625L208.584 479.133C208.584 479.133 209.827 473.301 219.793 474.959H242.457V504.936C242.457 507.376 240.479 509.345 238.049 509.345L238.058 509.354Z" fill="white"/>
<path d="M319.113 555.356C319.113 562.902 325.236 569.016 332.772 569.016C340.308 569.016 346.431 562.902 346.431 555.356C346.431 547.81 340.317 541.696 332.772 541.696C325.227 541.696 319.113 547.81 319.113 555.356Z" fill="white"/>
<path d="M319.113 555.356C319.113 562.902 325.236 569.016 332.772 569.016C340.308 569.016 346.431 562.902 346.431 555.356C346.431 547.81 340.317 541.696 332.772 541.696C325.227 541.696 319.113 547.81 319.113 555.356Z" stroke="#BDA782" stroke-width="4.74" stroke-miterlimit="10"/>
<path d="M327.383 555.356C327.383 558.333 329.794 560.745 332.771 560.745C335.748 560.745 338.169 558.333 338.169 555.356C338.169 552.379 335.757 549.968 332.771 549.968C329.785 549.968 327.383 552.379 327.383 555.356Z" fill="#BDA782"/>
<path d="M240.262 555.356C240.262 562.902 246.385 569.016 253.92 569.016C261.456 569.016 267.579 562.902 267.579 555.356C267.579 547.81 261.466 541.696 253.92 541.696C246.375 541.696 240.262 547.81 240.262 555.356Z" fill="white"/>
<path d="M240.262 555.356C240.262 562.902 246.385 569.016 253.92 569.016C261.456 569.016 267.579 562.902 267.579 555.356C267.579 547.81 261.466 541.696 253.92 541.696C246.375 541.696 240.262 547.81 240.262 555.356Z" stroke="#BDA782" stroke-width="4.74" stroke-miterlimit="10"/>
<path d="M248.523 555.356C248.523 558.333 250.935 560.745 253.912 560.745C256.888 560.745 259.309 558.333 259.309 555.356C259.309 552.379 256.898 549.968 253.912 549.968C250.925 549.968 248.523 552.379 248.523 555.356Z" fill="#BDA782"/>
<path d="M355.238 555.356C355.238 562.902 361.361 569.016 368.897 569.016C376.433 569.016 382.556 562.902 382.556 555.356C382.556 547.81 376.442 541.696 368.897 541.696C361.352 541.696 355.238 547.81 355.238 555.356Z" fill="white"/>
<path d="M355.238 555.356C355.238 562.902 361.361 569.016 368.897 569.016C376.433 569.016 382.556 562.902 382.556 555.356C382.556 547.81 376.442 541.696 368.897 541.696C361.352 541.696 355.238 547.81 355.238 555.356Z" stroke="#BDA782" stroke-width="4.74" stroke-miterlimit="10"/>
<path d="M363.508 555.356C363.508 558.343 365.919 560.745 368.896 560.745C371.873 560.745 374.294 558.333 374.294 555.356C374.294 552.379 371.882 549.968 368.896 549.968C365.91 549.968 363.508 552.379 363.508 555.356Z" fill="#BDA782"/>
<path d="M262.848 544.089H311.492" stroke="#BDA782" stroke-width="4.74" stroke-miterlimit="10"/>
<path d="M390.442 550.099C390.442 540.895 382.972 533.425 373.769 533.425H327.904C318.691 533.425 311.23 540.895 311.23 550.099V553.604" stroke="#BDA782" stroke-width="4.74" stroke-miterlimit="10"/>
<path d="M489.762 437.945H267.963C265.023 437.945 262.641 440.328 262.641 443.268V520.235C262.641 523.175 265.023 525.558 267.963 525.558H489.762C492.701 525.558 495.084 523.175 495.084 520.235V443.268C495.084 440.328 492.701 437.945 489.762 437.945Z" fill="white"/>
<path d="M431.039 437.945H267.963C265.024 437.945 262.641 440.328 262.641 443.268V520.226C262.641 523.165 265.024 525.549 267.963 525.549H431.039" stroke="#BDA782" stroke-width="4.74" stroke-miterlimit="10"/>
<path d="M208.582 479.133C209.354 476.824 211.963 474.959 214.394 474.959H251.103V532.756C240.317 532.756 231.576 541.498 231.576 552.285H196.977V513.622L208.572 479.133H208.582Z" stroke="#BDA782" stroke-width="4.74" stroke-miterlimit="10"/>
<path d="M193.312 551.974C193.312 552.879 194.047 553.613 194.942 553.613H210.419C211.323 553.613 212.058 552.879 212.058 551.974V543.128C212.058 542.224 211.314 541.489 210.419 541.489H194.942C194.038 541.489 193.312 542.224 193.312 543.128V551.974Z" fill="white"/>
<path d="M193.312 551.974C193.312 552.879 194.047 553.613 194.942 553.613H210.419C211.323 553.613 212.058 552.879 212.058 551.974V543.128C212.058 542.224 211.314 541.489 210.419 541.489H194.942C194.038 541.489 193.312 542.224 193.312 543.128V551.974Z" stroke="#BDA782" stroke-width="4.74" stroke-miterlimit="10"/>
<path d="M416.28 453.593H281.426" stroke="#BDA782" stroke-width="3" stroke-linecap="round" stroke-linejoin="round"/>
<path d="M476.388 509.411H281.426" stroke="#BDA782" stroke-width="3" stroke-linecap="round" stroke-linejoin="round"/>
<path d="M316.507 480.018L313.851 470.089C313.775 469.815 313.559 469.599 313.286 469.523L303.357 466.867C303.084 466.791 302.792 466.867 302.585 467.074L298.732 470.927L294.992 474.667C294.794 474.865 294.71 475.166 294.785 475.44L297.451 485.369C297.526 485.642 297.743 485.859 298.016 485.934L307.945 488.6C308.01 488.619 308.086 488.629 308.152 488.629C308.359 488.629 308.566 488.544 308.717 488.393L312.57 484.54L316.309 480.8C316.507 480.602 316.592 480.301 316.517 480.027M311.769 483.089L303.621 480.904L306.061 478.464L314.209 480.649L311.769 483.089ZM302.745 469.184L304.93 477.333L302.49 479.773L300.305 471.624L302.745 469.184ZM314.623 479.104L306.475 476.919L304.29 468.77L312.438 470.955L314.623 479.104ZM298.902 473.037L301.087 481.186L298.647 483.626L296.462 475.477L298.902 473.037ZM307.926 486.942L299.778 484.757L302.217 482.317L310.365 484.502L307.926 486.942Z" fill="#BDA782"/>
<path d="M289.453 488.299L294.228 483.523C294.728 483.023 294.728 482.213 294.228 481.714C293.729 481.215 292.919 481.215 292.42 481.714L287.644 486.49C287.145 486.99 287.145 487.8 287.644 488.299C288.143 488.798 288.953 488.798 289.453 488.299Z" fill="#BDA782"/>
<path d="M295.189 488.186C294.69 487.687 293.88 487.687 293.381 488.186L288.605 492.962C288.106 493.462 288.106 494.272 288.605 494.771C289.104 495.27 289.914 495.27 290.413 494.771L295.189 489.995C295.689 489.495 295.689 488.685 295.189 488.186Z" fill="#BDA782"/>
<path d="M298.478 490.522L293.703 495.299C293.203 495.798 293.203 496.608 293.703 497.107C294.202 497.607 295.012 497.607 295.511 497.107L300.287 492.331C300.786 491.832 300.786 491.022 300.287 490.522C299.788 490.023 298.978 490.023 298.478 490.522Z" fill="#BDA782"/>
<path d="M327.887 486.763L330.412 483.07L328.283 479.792C328.085 479.472 327.934 479.198 327.831 478.972C327.727 478.746 327.68 478.52 327.68 478.313C327.68 478.106 327.784 477.898 327.972 477.729C328.17 477.559 328.405 477.465 328.678 477.465C328.999 477.465 329.244 477.559 329.423 477.748C329.602 477.936 329.846 478.285 330.157 478.793L331.853 481.535L333.661 478.793C333.803 478.567 333.935 478.369 334.038 478.2C334.142 478.04 334.245 477.898 334.34 477.795C334.434 477.691 334.547 477.606 334.669 477.55C334.792 477.493 334.933 477.465 335.093 477.465C335.385 477.465 335.621 477.559 335.8 477.729C335.979 477.898 336.073 478.106 336.073 478.341C336.073 478.69 335.875 479.151 335.489 479.745L333.256 483.08L335.649 486.773C335.866 487.103 336.026 487.366 336.12 487.583C336.214 487.8 336.261 487.998 336.261 488.186C336.261 488.374 336.214 488.534 336.129 488.676C336.045 488.827 335.922 488.94 335.762 489.034C335.602 489.119 335.423 489.166 335.216 489.166C334.999 489.166 334.82 489.128 334.669 489.034C334.519 488.949 334.406 488.836 334.311 488.704C334.217 488.572 334.048 488.308 333.793 487.922L331.806 484.794L329.696 488.016C329.536 488.271 329.413 488.45 329.347 488.563C329.281 488.666 329.196 488.761 329.093 488.864C328.989 488.958 328.876 489.034 328.744 489.09C328.612 489.147 328.452 489.175 328.273 489.175C328 489.175 327.774 489.09 327.586 488.921C327.397 488.751 327.312 488.506 327.312 488.177C327.312 487.8 327.501 487.329 327.868 486.782" fill="#BDA782"/>
<path d="M343.109 485.784H340.679C340.311 485.784 340.029 485.699 339.831 485.529C339.633 485.36 339.539 485.134 339.539 484.86C339.539 484.587 339.633 484.361 339.822 484.192C340.01 484.022 340.283 483.937 340.669 483.937H343.1C343.477 483.937 343.759 484.022 343.948 484.192C344.136 484.361 344.23 484.587 344.23 484.86C344.23 485.134 344.136 485.36 343.957 485.529C343.769 485.699 343.486 485.784 343.1 485.784" fill="#BDA782"/>
<path d="M349.833 477.663H352.819C353.592 477.663 354.261 477.738 354.816 477.88C355.372 478.021 355.871 478.294 356.323 478.69C357.501 479.698 358.085 481.233 358.085 483.287C358.085 483.965 358.028 484.587 357.906 485.143C357.784 485.699 357.605 486.208 357.36 486.65C357.115 487.103 356.794 487.508 356.408 487.856C356.107 488.129 355.777 488.346 355.419 488.516C355.061 488.676 354.675 488.789 354.261 488.864C353.846 488.93 353.384 488.958 352.857 488.958H349.88C349.466 488.958 349.155 488.902 348.938 488.77C348.731 488.648 348.59 488.469 348.524 488.233C348.458 488.007 348.43 487.705 348.43 487.347V479.067C348.43 478.567 348.533 478.219 348.759 477.993C348.985 477.767 349.334 477.663 349.833 477.663ZM350.719 479.472V487.14H352.452C352.829 487.14 353.13 487.131 353.347 487.103C353.563 487.084 353.79 487.037 354.016 486.952C354.251 486.876 354.449 486.754 354.618 486.603C355.381 485.953 355.768 484.841 355.768 483.259C355.768 482.147 355.598 481.309 355.268 480.753C354.929 480.197 354.515 479.849 354.025 479.698C353.535 479.547 352.942 479.472 352.235 479.472H350.728H350.719Z" fill="#BDA782"/>
<path d="M370.198 479.425H365.045V482.204H369.793C370.141 482.204 370.405 482.279 370.575 482.439C370.744 482.599 370.838 482.807 370.838 483.061C370.838 483.315 370.754 483.523 370.584 483.692C370.415 483.852 370.151 483.937 369.802 483.937H365.055V487.15H370.386C370.744 487.15 371.017 487.225 371.196 487.395C371.385 487.564 371.47 487.781 371.47 488.063C371.47 488.346 371.375 488.544 371.196 488.713C371.017 488.883 370.744 488.958 370.386 488.958H364.169C363.67 488.958 363.312 488.855 363.095 488.629C362.879 488.412 362.766 488.045 362.766 487.555V479.067C362.766 478.737 362.813 478.473 362.907 478.256C363.001 478.049 363.161 477.898 363.369 477.804C363.576 477.71 363.849 477.663 364.169 477.663H370.207C370.575 477.663 370.848 477.748 371.017 477.908C371.196 478.068 371.281 478.275 371.281 478.539C371.281 478.803 371.187 479.019 371.017 479.189C370.848 479.349 370.565 479.425 370.207 479.425" fill="#BDA782"/>
<path d="M378.189 478.859V487.074H382.824C383.191 487.074 383.474 487.168 383.671 487.347C383.869 487.526 383.963 487.762 383.963 488.026C383.963 488.29 383.869 488.525 383.671 488.695C383.474 488.864 383.191 488.949 382.814 488.949H377.294C376.795 488.949 376.437 488.845 376.22 488.619C375.994 488.393 375.891 488.035 375.891 487.545V478.85C375.891 478.388 375.994 478.04 376.201 477.814C376.409 477.588 376.682 477.465 377.021 477.465C377.36 477.465 377.643 477.578 377.85 477.814C378.067 478.04 378.17 478.388 378.17 478.859" fill="#BDA782"/>
<path d="M388.23 487.753V478.85C388.23 478.388 388.334 478.04 388.551 477.814C388.758 477.578 389.031 477.465 389.37 477.465C389.709 477.465 389.992 477.578 390.199 477.814C390.416 478.04 390.519 478.388 390.519 478.85V487.753C390.519 488.224 390.416 488.572 390.199 488.798C389.992 489.024 389.709 489.147 389.37 489.147C389.031 489.147 388.767 489.034 388.56 488.798C388.353 488.563 388.24 488.214 388.24 487.753" fill="#BDA782"/>
<path d="M397.414 478.972L399.967 486.547L402.538 478.916C402.67 478.52 402.764 478.238 402.84 478.087C402.906 477.927 403.009 477.785 403.169 477.663C403.32 477.54 403.537 477.474 403.801 477.474C403.998 477.474 404.177 477.531 404.347 477.625C404.517 477.729 404.648 477.851 404.743 478.011C404.837 478.172 404.884 478.332 404.884 478.501C404.884 478.614 404.874 478.737 404.837 478.869C404.809 479.001 404.771 479.133 404.724 479.255C404.677 479.377 404.63 479.509 404.582 479.641L401.841 487.018C401.747 487.3 401.653 487.574 401.549 487.828C401.455 488.082 401.342 488.308 401.21 488.497C401.078 488.695 400.909 488.845 400.692 488.977C400.485 489.1 400.221 489.166 399.91 489.166C399.599 489.166 399.345 489.1 399.128 488.987C398.921 488.864 398.742 488.704 398.61 488.506C398.478 488.308 398.356 488.082 398.262 487.828C398.168 487.574 398.064 487.31 397.97 487.027L395.285 479.707C395.238 479.575 395.191 479.443 395.144 479.312C395.087 479.18 395.05 479.048 395.012 478.897C394.984 478.756 394.965 478.624 394.965 478.52C394.965 478.256 395.068 478.021 395.285 477.804C395.492 477.588 395.756 477.474 396.076 477.474C396.463 477.474 396.745 477.597 396.905 477.832C397.065 478.068 397.235 478.454 397.405 478.972" fill="#BDA782"/>
<path d="M416.706 479.425H411.553V482.204H416.301C416.649 482.204 416.913 482.279 417.082 482.439C417.252 482.599 417.346 482.807 417.346 483.061C417.346 483.315 417.261 483.523 417.092 483.692C416.922 483.852 416.659 483.937 416.31 483.937H411.562V487.15H416.894C417.252 487.15 417.525 487.225 417.704 487.395C417.893 487.564 417.977 487.781 417.977 488.063C417.977 488.346 417.883 488.544 417.704 488.713C417.516 488.883 417.252 488.958 416.894 488.958H410.677C410.178 488.958 409.82 488.855 409.603 488.629C409.386 488.412 409.273 488.045 409.273 487.555V479.067C409.273 478.737 409.33 478.473 409.424 478.256C409.518 478.049 409.678 477.898 409.886 477.804C410.093 477.71 410.357 477.663 410.686 477.663H416.725C417.092 477.663 417.356 477.748 417.535 477.908C417.714 478.068 417.798 478.275 417.798 478.539C417.798 478.803 417.704 479.019 417.535 479.189C417.365 479.359 417.082 479.425 416.725 479.425" fill="#BDA782"/>
<path d="M425.521 484.126H424.72V487.753C424.72 488.233 424.617 488.582 424.4 488.808C424.193 489.034 423.91 489.147 423.571 489.147C423.213 489.147 422.931 489.024 422.723 488.789C422.525 488.553 422.422 488.205 422.422 487.743V479.057C422.422 478.567 422.535 478.209 422.752 477.983C422.978 477.757 423.326 477.653 423.825 477.653H427.546C428.064 477.653 428.498 477.682 428.865 477.719C429.232 477.766 429.562 477.851 429.854 477.983C430.212 478.134 430.523 478.341 430.796 478.614C431.069 478.888 431.276 479.217 431.418 479.585C431.559 479.952 431.634 480.338 431.634 480.753C431.634 481.601 431.39 482.27 430.919 482.778C430.438 483.278 429.722 483.636 428.761 483.852C429.166 484.069 429.553 484.389 429.929 484.804C430.297 485.228 430.627 485.671 430.919 486.151C431.211 486.631 431.437 487.055 431.597 487.432C431.757 487.819 431.842 488.082 431.842 488.224C431.842 488.365 431.795 488.516 431.7 488.666C431.606 488.808 431.474 488.93 431.314 489.015C431.145 489.1 430.956 489.147 430.749 489.147C430.495 489.147 430.278 489.081 430.099 488.968C429.929 488.845 429.769 488.695 429.647 488.506C429.524 488.318 429.355 488.045 429.129 487.687L428.215 486.16C427.885 485.605 427.593 485.181 427.33 484.879C427.066 484.587 426.802 484.389 426.538 484.276C426.275 484.173 425.935 484.116 425.53 484.116M426.84 479.377H424.73V482.486H426.774C427.33 482.486 427.791 482.439 428.159 482.345C428.535 482.251 428.818 482.081 429.016 481.855C429.214 481.629 429.308 481.309 429.308 480.913C429.308 480.602 429.223 480.32 429.072 480.084C428.912 479.849 428.686 479.67 428.413 479.556C428.149 479.443 427.622 479.387 426.84 479.387" fill="#BDA782"/>
<path d="M438.38 487.753V484.173L435.62 479.896C435.385 479.509 435.206 479.208 435.112 479.001C435.008 478.784 434.961 478.596 434.961 478.435C434.961 478.172 435.055 477.955 435.262 477.757C435.46 477.569 435.715 477.465 436.016 477.465C436.317 477.465 436.572 477.559 436.732 477.729C436.892 477.908 437.137 478.256 437.457 478.784L439.577 482.213L441.706 478.784C441.837 478.577 441.941 478.398 442.026 478.256C442.111 478.115 442.214 477.974 442.318 477.842C442.421 477.71 442.544 477.625 442.666 477.55C442.798 477.484 442.949 477.446 443.137 477.446C443.429 477.446 443.665 477.54 443.853 477.729C444.051 477.917 444.145 478.134 444.145 478.379C444.145 478.577 444.098 478.775 443.995 478.972C443.9 479.17 443.731 479.453 443.495 479.811L440.669 484.144V487.724C440.669 488.195 440.566 488.544 440.34 488.77C440.132 488.996 439.85 489.119 439.52 489.119C439.19 489.119 438.908 489.006 438.701 488.779C438.493 488.553 438.38 488.205 438.38 487.724" fill="#BDA782"/>
<path d="M547.948 207.672H546.95C542.551 192.523 528.6 181.435 512.03 181.435C504.796 181.435 498.08 183.574 492.418 187.21C488.745 163.338 468.172 145.043 443.285 145.043C420.941 145.043 402.035 159.767 395.733 180.05C392.898 179.287 389.931 178.844 386.851 178.844C369.801 178.844 355.699 191.346 353.118 207.672H347.551C333.506 207.672 322.023 219.156 322.023 233.202V235.087C322.023 249.133 333.516 260.617 347.551 260.617H547.948C561.993 260.617 573.476 249.124 573.476 235.087V233.202C573.476 219.156 561.984 207.672 547.948 207.672Z" fill="white"/>
<path d="M524.465 213.937H523.589C519.718 200.578 507.416 190.809 492.805 190.809C486.428 190.809 480.503 192.693 475.511 195.896C472.27 174.85 454.137 158.731 432.189 158.731C412.492 158.731 395.819 171.713 390.271 189.584C387.775 188.915 385.156 188.52 382.443 188.52C367.409 188.52 354.984 199.533 352.705 213.928H347.797C335.419 213.928 325.293 224.055 325.293 236.434V238.092C325.293 250.471 335.419 260.598 347.797 260.598H524.456C536.834 260.598 546.96 250.471 546.96 238.092V236.434C546.96 224.055 536.834 213.928 524.456 213.928L524.465 213.937Z" fill="white"/>
<path d="M475.7 183.178C468.314 171.798 455.513 164.27 440.931 164.27C433.216 164.27 425.991 166.381 419.793 170.045" stroke="#BDA782" stroke-width="4.25" stroke-miterlimit="10"/>
<path d="M517.382 260.608H547.94C561.985 260.608 573.468 249.114 573.468 235.077V233.193C573.468 219.147 561.976 207.663 547.94 207.663H546.942C542.543 192.514 528.592 181.426 512.023 181.426C504.788 181.426 498.072 183.564 492.411 187.201C488.737 163.328 468.164 145.033 443.277 145.033C427.998 145.033 414.33 151.92 405.193 162.754C403.167 165.156 401.359 167.756 399.814 170.516C398.137 173.512 396.762 176.697 395.726 180.032C392.89 179.268 389.923 178.826 386.843 178.826C369.793 178.826 355.691 191.327 353.11 207.653H347.543C333.498 207.653 322.016 219.137 322.016 233.184V235.068C322.016 249.114 333.508 260.598 347.543 260.598H502.32" stroke="#BDA782" stroke-width="4.25" stroke-miterlimit="10"/>
<path d="M387.492 178.694C397.279 178.694 405.211 186.626 405.211 196.414" stroke="#BDA782" stroke-width="4.25" stroke-miterlimit="10"/>
<path d="M232.837 211.808H232.13C229.003 201.021 219.065 193.136 207.281 193.136C202.138 193.136 197.352 194.653 193.321 197.243C190.702 180.258 176.064 167.229 158.345 167.229C142.435 167.229 128.983 177.714 124.5 192.147C122.484 191.6 120.364 191.289 118.179 191.289C106.037 191.289 96.0047 200.183 94.1678 211.808H90.2021C80.2076 211.808 72.0312 219.985 72.0312 229.981V231.318C72.0312 241.314 80.2076 249.491 90.2021 249.491H232.837C242.831 249.491 251.008 241.314 251.008 231.318V229.981C251.008 219.985 242.831 211.808 232.837 211.808Z" fill="white"/>
<path d="M216.129 216.273H215.498C212.738 206.768 203.987 199.815 193.588 199.815C189.047 199.815 184.837 201.153 181.276 203.442C178.968 188.463 166.063 176.989 150.445 176.989C136.419 176.989 124.559 186.23 120.612 198.948C118.832 198.468 116.967 198.195 115.036 198.195C104.335 198.195 95.4896 206.033 93.8694 216.283H90.3747C81.5671 216.283 74.3516 223.49 74.3516 232.308V233.485C74.3516 242.294 81.5577 249.51 90.3747 249.51H216.129C224.937 249.51 232.152 242.303 232.152 233.485V232.308C232.152 223.499 224.946 216.283 216.129 216.283V216.273Z" fill="white"/>
<path d="M181.406 194.37C176.15 186.268 167.032 180.908 156.661 180.908C151.169 180.908 146.026 182.406 141.617 185.025" stroke="#BDA782" stroke-width="4.25" stroke-miterlimit="10"/>
<path d="M211.079 249.491H232.829C242.823 249.491 251 241.314 251 231.318V229.981C251 219.985 242.823 211.808 232.829 211.808H232.123C228.995 201.021 219.057 193.136 207.273 193.136C202.13 193.136 197.345 194.653 193.313 197.243C190.694 180.258 176.056 167.229 158.337 167.229C147.467 167.229 137.736 172.127 131.227 179.843C129.786 181.558 128.505 183.404 127.402 185.373C126.206 187.502 125.227 189.773 124.492 192.147C122.476 191.6 120.356 191.289 118.171 191.289C106.029 191.289 95.9969 200.183 94.16 211.808H90.1943C80.1998 211.808 72.0234 219.985 72.0234 229.981V231.318C72.0234 241.314 80.1998 249.491 90.1943 249.491H197.797" stroke="#BDA782" stroke-width="4.25" stroke-miterlimit="10"/>
<path d="M118.625 191.186C125.586 191.186 131.238 196.838 131.238 203.8" stroke="#BDA782" stroke-width="4.25" stroke-miterlimit="10"/>
<path opacity="0.3" d="M448.919 568.753C449.748 568.281 450.436 567.594 450.907 566.765C452.574 564.664 453.62 562.045 453.62 559.162V396.446C453.62 393.563 452.584 390.944 450.916 388.844C450.445 388.015 449.758 387.327 448.929 386.856C446.828 385.188 444.21 384.143 441.318 384.143V386.14H420.669V539.991H404.43L407.124 556.43C408.075 562.252 411.739 566.944 416.685 569.459H441.318V571.456C444.2 571.456 446.828 570.42 448.929 568.743L448.919 568.753Z" fill="#684200"/>
<path d="M754.572 320.401H426.122C425.601 320.401 425.18 320.823 425.18 321.344V556.92C425.18 557.44 425.601 557.862 426.122 557.862H754.572C755.092 557.862 755.514 557.44 755.514 556.92V321.344C755.514 320.823 755.092 320.401 754.572 320.401Z" fill="white"/>
<path d="M433.384 557.872C428.872 557.872 425.18 554.179 425.18 549.666V405.226" stroke="#BDA782" stroke-width="4.82" stroke-miterlimit="10"/>
<path d="M475.84 320.401H742.92C749.843 320.401 755.514 324.094 755.514 328.607V401.194" stroke="#BDA782" stroke-width="5.98" stroke-miterlimit="10"/>
<path d="M737.683 339.092H441.223V531.795H737.683V339.092Z" fill="#BAA581" stroke="#B8A380" stroke-width="5" stroke-linecap="round" stroke-linejoin="round"/>
<path d="M749.738 571.051H427.308C419.565 571.051 412.961 565.446 411.709 557.806L409.41 543.797H558.855L564.573 552.002H605.87L612.049 543.797H769.482L767.485 555.978C766.063 564.673 758.546 571.051 749.738 571.051Z" fill="white"/>
<path d="M749.738 571.051H427.308C419.565 571.051 412.961 565.446 411.709 557.806L409.41 543.797H558.855L564.573 552.002H605.87L612.049 543.797H769.482L767.485 555.978C766.063 564.673 758.546 571.051 749.738 571.051Z" stroke="#BDA782" stroke-width="4.82" stroke-miterlimit="10"/>
<path opacity="0.3" d="M357.254 337.312C355.794 337.312 354.598 338.508 354.598 339.968V409.927H470.838C477.62 409.927 483.122 404.426 483.122 397.643V337.312H357.245H357.254Z" fill="#684200"/>
<path d="M473.463 298.875H336.264C333.855 298.875 331.902 300.828 331.902 303.237V400.262C331.902 402.671 333.855 404.623 336.264 404.623H473.463C475.872 404.623 477.825 402.671 477.825 400.262V303.237C477.825 300.828 475.872 298.875 473.463 298.875Z" fill="white"/>
<path d="M331.904 321.419V306.185C331.904 302.144 335.182 298.875 339.214 298.875H470.507C474.548 298.875 477.817 302.153 477.817 306.185V321.419H331.895H331.904Z" fill="white"/>
<path d="M383.937 298.875H470.505C474.547 298.875 477.815 302.153 477.815 306.185V397.303C477.815 401.345 474.537 404.614 470.505 404.614H339.212C335.171 404.614 331.902 401.336 331.902 397.303V306.185C331.902 302.144 335.18 298.875 339.212 298.875H358.589" stroke="#BDA782" stroke-width="4.23" stroke-miterlimit="10"/>
<path d="M364.148 298.875H375.688" stroke="#BDA782" stroke-width="4.23" stroke-miterlimit="10"/>
<path d="M331.902 321.815H477.815" stroke="#BDA782" stroke-width="4.23" stroke-miterlimit="10"/>
<path d="M343.68 311.386H346.204" stroke="#BDA782" stroke-width="4.23" stroke-miterlimit="10"/>
<path d="M353.051 311.386H355.566" stroke="#BDA782" stroke-width="4.23" stroke-miterlimit="10"/>
<path d="M362.414 311.386H364.939" stroke="#BDA782" stroke-width="4.23" stroke-miterlimit="10"/>
<path d="M396.551 354.524L385.803 358.461L396.551 362.371V366.403L381.188 360.562V356.37L396.551 350.529V354.533V354.524Z" fill="#BDA782"/>
<path d="M408.109 342.578H412.593L401.949 372.979H397.465L408.109 342.578Z" fill="#BDA782"/>
<path d="M428.539 356.361V360.553L413.176 366.394V362.362L423.924 358.452L413.176 354.514V350.51L428.539 356.351V356.361Z" fill="#BDA782"/>
<path d="M514.109 237.894H559.372V139.296L542.67 161.896C537.866 168.397 532.214 174.181 526.412 179.815C518.64 187.361 514.109 197.809 514.109 208.887V237.894Z" fill="white"/>
<path d="M672.586 237.894H627.324V139.296L644.035 161.896C648.839 168.397 654.491 174.181 660.294 179.815C668.065 187.361 672.596 197.809 672.596 208.887V237.894H672.586Z" fill="white"/>
<path d="M672.586 237.894H627.324V139.296L644.035 161.896C648.839 168.397 654.491 174.181 660.294 179.815C668.065 187.361 672.596 197.809 672.596 208.887V237.894H672.586Z" stroke="#BDA782" stroke-width="4.9" stroke-miterlimit="10"/>
<path d="M514.109 237.894H559.372V139.296L542.67 161.896C537.866 168.397 532.214 174.181 526.412 179.815C518.64 187.361 514.109 197.809 514.109 208.887V237.894Z" stroke="#BDA782" stroke-width="4.9" stroke-miterlimit="10"/>
<path d="M631.188 237.894H556.668V83.44C556.668 65.418 565.014 48.4135 579.276 37.4006L585.926 32.2568C590.636 28.6204 597.211 28.6204 601.921 32.2568L609.183 37.8622C623.059 48.5831 631.188 65.1354 631.188 82.6769V237.894Z" fill="white"/>
<path opacity="0.31" d="M595.655 37.4006L602.117 32.4075L601.929 32.2568C597.219 28.6204 590.644 28.6204 585.934 32.2568L579.283 37.4006C565.022 48.4229 556.676 65.418 556.676 83.44V237.894H573.057V83.44C573.057 65.418 581.403 48.4135 595.664 37.4006H595.655Z" fill="white"/>
<path d="M625.433 57.806C629.172 65.4557 631.188 73.9439 631.188 82.6769V237.894H556.668V83.44C556.668 65.418 565.014 48.4135 579.276 37.4006L585.926 32.2568C590.636 28.6204 597.211 28.6204 601.921 32.2568L609.183 37.8622" stroke="#BDA782" stroke-width="4.9" stroke-miterlimit="10"/>
<path d="M617.246 45.4648C618.405 46.8025 619.507 48.1874 620.534 49.6099" stroke="#BDA782" stroke-width="4.9" stroke-miterlimit="10"/>
<path d="M607.026 101.792C607.026 109.027 601.158 114.896 593.923 114.896C586.689 114.896 580.82 109.027 580.82 101.792C580.82 94.5566 586.689 88.6874 593.923 88.6874C601.158 88.6874 607.026 94.5566 607.026 101.792Z" fill="white"/>
<path d="M607.026 147.37C607.026 154.605 601.158 160.474 593.923 160.474C586.689 160.474 580.82 154.605 580.82 147.37C580.82 140.134 586.689 134.265 593.923 134.265C601.158 134.265 607.026 140.134 607.026 147.37Z" fill="white"/>
<path d="M607.026 192.947C607.026 200.183 601.158 206.052 593.923 206.052C586.689 206.052 580.82 200.183 580.82 192.947C580.82 185.712 586.689 179.843 593.923 179.843C601.158 179.843 607.026 185.712 607.026 192.947Z" fill="white"/>
<path d="M607.026 101.792C607.026 109.027 601.158 114.896 593.923 114.896C586.689 114.896 580.82 109.027 580.82 101.792C580.82 94.5566 586.689 88.6874 593.923 88.6874C601.158 88.6874 607.026 94.5566 607.026 101.792Z" stroke="#BDA782" stroke-width="4.9" stroke-miterlimit="10"/>
<path d="M607.026 147.37C607.026 154.605 601.158 160.474 593.923 160.474C586.689 160.474 580.82 154.605 580.82 147.37C580.82 140.134 586.689 134.265 593.923 134.265C601.158 134.265 607.026 140.134 607.026 147.37Z" stroke="#BDA782" stroke-width="4.9" stroke-miterlimit="10"/>
<path d="M607.026 192.947C607.026 200.183 601.158 206.052 593.923 206.052C586.689 206.052 580.82 200.183 580.82 192.947C580.82 185.712 586.689 179.843 593.923 179.843C601.158 179.843 607.026 185.712 607.026 192.947Z" stroke="#BDA782" stroke-width="4.9" stroke-miterlimit="10"/>
<path d="M745.622 450.832C745.622 457.493 740.224 462.9 733.555 462.9C726.886 462.9 721.488 457.502 721.488 450.832C721.488 444.162 726.886 438.764 733.555 438.764C740.224 438.764 745.622 444.162 745.622 450.832Z" fill="white"/>
<path d="M697.939 417.407C702.506 417.407 706.209 413.704 706.209 409.136C706.209 404.568 702.506 400.864 697.939 400.864C693.371 400.864 689.668 404.568 689.668 409.136C689.668 413.704 693.371 417.407 697.939 417.407Z" fill="white"/>
<path d="M445.6 472.613C451.614 472.613 456.49 467.737 456.49 461.723C456.49 455.708 451.614 450.832 445.6 450.832C439.586 450.832 434.711 455.708 434.711 461.723C434.711 467.737 439.586 472.613 445.6 472.613Z" fill="white"/>
<path d="M727.358 508.045C730.758 503.504 732.849 497.936 732.849 491.822C732.849 476.824 720.688 464.662 705.692 464.662C690.696 464.662 678.535 476.824 678.535 491.822C678.535 492.331 678.657 492.802 678.686 493.301C672.487 494.008 667.212 497.569 664.179 502.694C660.081 499.66 655.061 497.814 649.569 497.814C642.24 497.814 635.722 501.074 631.2 506.151C627.79 503.231 623.42 501.403 618.578 501.403C617.56 501.403 616.59 501.554 615.62 501.705C615.78 500.763 615.912 499.802 615.912 498.813C615.912 489.354 608.244 481.686 598.787 481.686C589.329 481.686 581.662 489.354 581.662 498.813C581.662 499.651 581.793 500.452 581.906 501.253C579.429 500.245 576.735 499.66 573.9 499.66C565.761 499.66 558.771 504.295 555.211 511.012C552.809 508.799 549.634 507.423 546.111 507.423C541.882 507.423 538.151 509.411 535.674 512.463C534.026 503.363 526.104 496.439 516.524 496.439C515.544 496.439 514.602 496.589 513.65 496.731C514.602 493.904 515.242 490.937 515.242 487.79C515.242 472.255 502.648 459.66 487.115 459.66C471.582 459.66 458.987 472.255 458.987 487.79C458.987 493.707 460.834 499.189 463.961 503.721C452.403 507.141 443.906 517.711 443.906 530.382H738.69C738.69 521.206 734.206 513.132 727.367 508.045H727.358Z" fill="white"/>
<path d="M745.622 450.832C745.622 457.493 740.224 462.9 733.555 462.9C726.886 462.9 721.488 457.502 721.488 450.832C721.488 444.162 726.886 438.764 733.555 438.764C740.224 438.764 745.622 444.162 745.622 450.832Z" stroke="#BDA782" stroke-width="4.9" stroke-miterlimit="10"/>
<path d="M697.939 417.407C702.506 417.407 706.209 413.704 706.209 409.136C706.209 404.568 702.506 400.864 697.939 400.864C693.371 400.864 689.668 404.568 689.668 409.136C689.668 413.704 693.371 417.407 697.939 417.407Z" stroke="#BDA782" stroke-width="4.9" stroke-miterlimit="10"/>
<path d="M445.6 472.613C451.614 472.613 456.49 467.737 456.49 461.723C456.49 455.708 451.614 450.832 445.6 450.832C439.586 450.832 434.711 455.708 434.711 461.723C434.711 467.737 439.586 472.613 445.6 472.613Z" stroke="#BDA782" stroke-width="4.9" stroke-miterlimit="10"/>
<path d="M738.679 530.382C738.679 521.206 734.195 513.132 727.356 508.045C730.757 503.504 732.848 497.936 732.848 491.822C732.848 476.824 720.687 464.662 705.691 464.662C690.694 464.662 678.533 476.824 678.533 491.822C678.533 492.331 678.656 492.802 678.684 493.301C672.486 494.008 667.211 497.569 664.177 502.694C660.08 499.66 655.059 497.814 649.567 497.814C642.239 497.814 635.72 501.074 631.199 506.151C627.789 503.231 623.418 501.403 618.576 501.403C617.559 501.403 616.589 501.554 615.618 501.705C615.778 500.763 615.91 499.802 615.91 498.813C615.91 489.354 608.243 481.686 598.785 481.686C589.328 481.686 581.66 489.354 581.66 498.813C581.66 499.651 581.792 500.452 581.905 501.253C579.427 500.245 576.733 499.66 573.898 499.66C565.759 499.66 558.77 504.295 555.209 511.012C552.807 508.799 549.633 507.423 546.11 507.423C541.88 507.423 538.15 509.411 535.672 512.463C534.024 503.363 526.102 496.439 516.522 496.439C515.542 496.439 514.6 496.589 513.649 496.731C514.6 493.904 515.241 490.937 515.241 487.79C515.241 472.255 502.647 459.66 487.113 459.66C471.58 459.66 458.986 472.255 458.986 487.79C458.986 493.707 460.832 499.189 463.959 503.721C452.401 507.141 443.914 517.711 443.914 530.382" stroke="#BDA782" stroke-width="4.9" stroke-miterlimit="10"/>
<path d="M1172.94 264.404C1183.24 250.951 1180.68 231.705 1167.23 221.408C1153.78 211.111 1134.53 213.673 1124.23 227.126C1115.34 238.742 1116.05 254.673 1125.06 265.44L1118.79 284.47C1118.63 284.97 1119.19 285.384 1119.62 285.092L1136.21 273.825C1148.87 279.43 1164.17 275.888 1172.95 264.404H1172.94Z" fill="white"/>
<path d="M1172.94 264.404C1183.24 250.951 1180.68 231.705 1167.23 221.408C1153.78 211.111 1134.53 213.673 1124.23 227.126C1115.34 238.742 1116.05 254.673 1125.06 265.44L1118.79 284.47C1118.63 284.97 1119.19 285.384 1119.62 285.092L1136.21 273.825C1148.87 279.43 1164.17 275.888 1172.95 264.404H1172.94Z" stroke="#BDA782" stroke-width="2.85" stroke-miterlimit="10"/>
<path d="M1163.59 265.94C1174.66 257.581 1176.87 241.826 1168.51 230.75C1160.15 219.674 1144.4 217.471 1133.32 225.829C1122.25 234.188 1120.04 249.943 1128.4 261.02C1136.76 272.096 1152.51 274.299 1163.59 265.94Z" fill="#BDA782"/>
<path d="M1151.8 244.922C1152.29 246.787 1151.18 248.69 1149.31 249.18C1147.45 249.67 1145.54 248.558 1145.05 246.693C1144.56 244.828 1145.67 242.925 1147.54 242.435C1149.41 241.945 1151.31 243.057 1151.8 244.922Z" fill="white" stroke="white" stroke-width="2.85" stroke-miterlimit="10"/>
<path d="M1165.65 241.276C1166.14 243.141 1165.02 245.044 1163.16 245.534C1161.29 246.024 1159.39 244.913 1158.9 243.047C1158.41 241.182 1159.52 239.279 1161.39 238.789C1163.25 238.299 1165.16 239.411 1165.65 241.276Z" fill="white" stroke="white" stroke-width="2.85" stroke-miterlimit="10"/>
<path d="M1137.95 248.568C1138.44 250.433 1137.33 252.336 1135.46 252.826C1133.6 253.316 1131.7 252.204 1131.21 250.339C1130.72 248.474 1131.83 246.571 1133.69 246.081C1135.56 245.591 1137.46 246.703 1137.95 248.568Z" fill="white" stroke="white" stroke-width="2.85" stroke-miterlimit="10"/>
<path d="M13.7422 569.469H1158.69" stroke="#BDA782" stroke-width="4.17" stroke-miterlimit="10"/>
<path d="M833.944 159.513H833.077C829.272 146.39 817.177 136.781 802.821 136.781C796.557 136.781 790.726 138.627 785.827 141.783C782.643 121.095 764.821 105.249 743.25 105.249C723.883 105.249 707.502 118.014 702.048 135.584C699.589 134.925 697.017 134.538 694.352 134.538C679.572 134.538 667.354 145.372 665.122 159.522H660.299C648.129 159.522 638.172 169.48 638.172 181.642V183.272C638.172 195.444 648.129 205.392 660.299 205.392H833.953C846.124 205.392 856.071 195.434 856.071 183.272V181.642C856.071 169.471 846.114 159.522 833.953 159.522L833.944 159.513Z" fill="white"/>
<path d="M800.428 205.392H833.944C846.114 205.392 856.061 195.435 856.061 183.272V181.642C856.061 169.471 846.105 159.522 833.944 159.522H833.077C829.272 146.399 817.177 136.79 802.821 136.79C796.557 136.79 790.726 138.636 785.827 141.792C782.643 121.104 764.821 105.259 743.25 105.259C723.883 105.259 707.502 118.024 702.048 135.594C699.589 134.934 697.017 134.548 694.352 134.548C679.572 134.548 667.354 145.382 665.122 159.532H660.299C648.129 159.532 638.172 169.49 638.172 181.652V183.282C638.172 195.453 648.129 205.402 660.299 205.402H783.218" stroke="#BDA782" stroke-width="4.25" stroke-miterlimit="10"/>
<path d="M771.341 138.288C764.935 128.424 753.848 121.896 741.207 121.896C734.519 121.896 728.254 123.723 722.895 126.908" stroke="#BDA782" stroke-width="4.25" stroke-miterlimit="10"/>
<path d="M694.898 134.407C703.376 134.407 710.253 141.284 710.253 149.762" stroke="#BDA782" stroke-width="4.25" stroke-miterlimit="10"/>
<path d="M1017.03 217.752H1016.43C1013.8 208.708 1005.47 202.086 995.577 202.086C991.254 202.086 987.241 203.357 983.859 205.534C981.664 191.28 969.381 180.352 954.507 180.352C941.159 180.352 929.865 189.151 926.106 201.257C924.411 200.804 922.64 200.541 920.803 200.541C910.62 200.541 902.199 208.002 900.654 217.762H897.329C888.945 217.762 882.078 224.62 882.078 233.014V234.135C882.078 242.52 888.936 249.387 897.329 249.387H1017.03C1025.41 249.387 1032.28 242.529 1032.28 234.135V233.014C1032.28 224.63 1025.42 217.762 1017.03 217.762V217.752Z" fill="white"/>
<path d="M993.929 249.378H1017.03C1025.41 249.378 1032.28 242.52 1032.28 234.126V233.005C1032.28 224.62 1025.42 217.752 1017.03 217.752H1016.43C1013.8 208.708 1005.47 202.086 995.577 202.086C991.254 202.086 987.241 203.357 983.859 205.534C981.664 191.28 969.381 180.352 954.507 180.352C941.159 180.352 929.865 189.151 926.106 201.257C924.411 200.804 922.64 200.541 920.803 200.541C910.62 200.541 902.199 208.002 900.654 217.762H897.329C888.945 217.762 882.078 224.62 882.078 233.014V234.135C882.078 242.52 888.936 249.387 897.329 249.387H982.051" stroke="#BDA782" stroke-width="4" stroke-miterlimit="10"/>
<path d="M973.874 203.122C969.465 196.32 961.816 191.826 953.103 191.826C948.497 191.826 944.173 193.089 940.48 195.274" stroke="#BDA782" stroke-width="4" stroke-miterlimit="10"/>
<path d="M921.188 200.446C927.037 200.446 931.775 205.185 931.775 211.035" stroke="#BDA782" stroke-width="4" stroke-miterlimit="10"/>
<path d="M1041.95 364.425L1029.61 369.437L1022.64 352.3L1034.52 347.477L1043.56 356.756C1045.89 359.159 1045.05 363.162 1041.96 364.425H1041.95Z" fill="white"/>
<path d="M1041.95 364.425L1029.61 369.437L1022.64 352.3L1034.52 347.477L1043.56 356.756C1045.89 359.159 1045.05 363.162 1041.96 364.425H1041.95Z" stroke="#BDA782" stroke-width="6" stroke-miterlimit="10"/>
<path d="M1053.27 397.332L1038.56 403.314C1036.69 404.077 1034.53 403.474 1033.32 401.854L1004.37 363.049L1027.6 353.61L1055.17 390.558C1056.91 392.894 1055.98 396.248 1053.27 397.341V397.332Z" fill="white"/>
<path d="M1053.27 397.332L1038.56 403.314C1036.69 404.077 1034.53 403.474 1033.32 401.854L1004.37 363.049L1027.6 353.61L1055.17 390.558C1056.91 392.894 1055.98 396.248 1053.27 397.341V397.332Z" stroke="#BDA782" stroke-width="6" stroke-miterlimit="10"/>
<path d="M1121.9 337.576L1044.48 348.042L1024.28 298.338L1087.05 251.818C1089.92 249.698 1094.02 250.848 1095.36 254.145L1126.23 330.105C1127.58 333.412 1125.44 337.095 1121.91 337.566L1121.9 337.576Z" fill="white"/>
<path d="M1038.82 334.109L1123.22 322.71L1120.39 315.738L1035.99 327.147L1038.82 334.109Z" fill="white"/>
<path d="M998.199 337.896C1001.76 346.657 997.539 356.653 988.779 360.214C980.018 363.775 970.024 359.554 966.463 350.793C962.903 342.032 967.123 332.036 975.883 328.475C984.643 324.914 994.638 329.135 998.199 337.896Z" fill="white"/>
<path d="M998.199 337.896C1001.76 346.657 997.539 356.653 988.779 360.214C980.018 363.775 970.024 359.554 966.463 350.793C962.903 342.032 967.123 332.036 975.883 328.475C984.643 324.914 994.638 329.135 998.199 337.896Z" stroke="#BDA782" stroke-width="6" stroke-miterlimit="10"/>
<path d="M1075.35 260.495L1088 251.121C1090.39 249.35 1093.8 250.311 1094.92 253.062L1126.67 331.188C1127.79 333.939 1126.01 337.01 1123.06 337.406L1044.48 348.023L1024.28 298.319L1052.21 277.622" stroke="#BDA782" stroke-width="6" stroke-miterlimit="10"/>
<path d="M1058.5 272.987L1067.28 266.486" stroke="#BDA782" stroke-width="6" stroke-miterlimit="10"/>
<path d="M1026.14 297.518L971.734 319.632L991.935 369.335L1046.34 347.221L1026.14 297.518Z" fill="white"/>
<path d="M1038.04 326.782L983.637 348.896L991.94 369.327L1046.34 347.213L1038.04 326.782Z" fill="white"/>
<path d="M973.305 318.994L1026.13 297.518L1046.34 347.221L993.505 368.697C992.641 369.048 991.65 368.637 991.296 367.764L972.369 321.195C972.018 320.331 972.429 319.34 973.301 318.985L973.305 318.994Z" stroke="#BDA782" stroke-width="6" stroke-miterlimit="10"/>
<path d="M1086.63 566.171H957.937C957.362 566.171 956.891 565.7 956.891 565.126V407.516C956.891 406.941 957.362 406.47 957.937 406.47H1086.63C1087.2 406.47 1087.68 406.941 1087.68 407.516V565.126C1087.68 565.7 1087.2 566.171 1086.63 566.171Z" fill="white"/>
<path d="M1087.68 566.181V411.011C1087.68 408.505 1085.66 406.479 1083.15 406.479H961.429C958.924 406.479 956.898 408.505 956.898 411.011V426.847" stroke="#BDA782" stroke-width="6.14" stroke-miterlimit="10"/>
<path d="M981.664 458.802H1062.91V431.331H981.664V458.802Z" fill="#BAA581" stroke="#B8A380" stroke-width="8" stroke-linecap="round" stroke-linejoin="round"/>
<path d="M1008.26 431.331H1047.11L1062.91 447.139V458.802H1035.73L1008.26 431.331Z" fill="white"/>
<path d="M1028.59 458.802H1010.03L982.559 431.331H1001.13L1028.59 458.802Z" fill="white"/>
<path d="M1062.91 487.234H1050.68" stroke="#BDA782" stroke-width="6.14" stroke-miterlimit="10"/>
<path d="M1039.91 487.234H1027.68" stroke="#BDA782" stroke-width="6.14" stroke-miterlimit="10"/>
<path d="M1016.89 487.234H1004.68" stroke="#BDA782" stroke-width="6.14" stroke-miterlimit="10"/>
<path d="M993.891 487.234H981.664" stroke="#BDA782" stroke-width="6.14" stroke-miterlimit="10"/>
<path d="M1062.91 508.968H1050.68" stroke="#BDA782" stroke-width="6.14" stroke-miterlimit="10"/>
<path d="M1039.91 508.968H1027.68" stroke="#BDA782" stroke-width="6.14" stroke-miterlimit="10"/>
<path d="M1016.89 508.968H1004.68" stroke="#BDA782" stroke-width="6.14" stroke-miterlimit="10"/>
<path d="M993.891 508.968H981.664" stroke="#BDA782" stroke-width="6.14" stroke-miterlimit="10"/>
<path d="M1062.91 530.693H1050.68" stroke="#BDA782" stroke-width="6.14" stroke-miterlimit="10"/>
<path d="M1039.91 530.693H1027.68" stroke="#BDA782" stroke-width="6.14" stroke-miterlimit="10"/>
<path d="M1016.89 530.693H1004.68" stroke="#BDA782" stroke-width="6.14" stroke-miterlimit="10"/>
<path d="M993.891 530.693H981.664" stroke="#BDA782" stroke-width="6.14" stroke-miterlimit="10"/>
<path d="M968.439 390.172H742.844C736.534 390.172 731.418 395.288 731.418 401.599V557.561C731.418 563.872 736.534 568.988 742.844 568.988H968.439C974.75 568.988 979.865 563.872 979.865 557.561V401.599C979.865 395.288 974.75 390.172 968.439 390.172Z" fill="white"/>
<path d="M731.418 557.57V401.722C731.418 395.344 736.589 390.172 742.967 390.172H777.66" stroke="#BDA782" stroke-width="5.06" stroke-miterlimit="10"/>
<path d="M911.289 390.172H968.317C974.694 390.172 979.865 395.344 979.865 401.722V557.448C979.865 563.825 974.694 568.997 968.317 568.997H742.967C736.589 568.997 731.418 563.825 731.418 557.448" stroke="#BDA782" stroke-width="5.06" stroke-miterlimit="10"/>
<path d="M750.719 456.626V502.543" stroke="#BDA782" stroke-width="5.06" stroke-miterlimit="10"/>
<path d="M945.285 405.471H763.586V553.708H945.285V405.471Z" fill="white" stroke="#B6A17F" stroke-width="5" stroke-miterlimit="10"/>
<path d="M963.401 479.585C963.401 483.146 960.509 486.038 956.949 486.038C953.388 486.038 950.496 483.146 950.496 479.585C950.496 476.024 953.388 473.131 956.949 473.131C960.509 473.131 963.401 476.024 963.401 479.585V479.585Z" stroke="#BDA782" stroke-width="5.06" stroke-miterlimit="10"/>
<path d="M806.87 365.734H778.375V421.336H806.87V365.734Z" fill="white"/>
<path d="M792.627 365.734H778.375V553.698H792.627V365.734Z" fill="#BDA782"/>
<path d="M806.87 553.698V365.734H778.375V553.698" stroke="#BDA782" stroke-width="5.06" stroke-miterlimit="10"/>
<path d="M843.909 337.236H815.414V422.353H843.909V337.236Z" fill="white"/>
<path d="M829.666 337.236H815.414V553.698H829.666V337.236Z" fill="#BDA782"/>
<path d="M843.909 553.698V337.236H815.414V553.698" stroke="#BDA782" stroke-width="5.06" stroke-miterlimit="10"/>
<path d="M882.397 314.73H853.902V424.765H882.397V314.73Z" fill="white"/>
<path d="M868.155 314.73H853.902V553.708H868.155V314.73Z" fill="#BDA782"/>
<path d="M882.397 553.698V314.73H853.902V553.698" stroke="#BDA782" stroke-width="5.06" stroke-miterlimit="10"/>
<path d="M954.835 541.856H939.001C938.48 541.856 938.059 542.278 938.059 542.798V568.055C938.059 568.576 938.48 568.998 939.001 568.998H954.835C955.356 568.998 955.777 568.576 955.777 568.055V542.798C955.777 542.278 955.356 541.856 954.835 541.856Z" fill="white"/>
<path d="M954.835 541.856H939.001C938.48 541.856 938.059 542.278 938.059 542.798V568.055C938.059 568.576 938.48 568.998 939.001 568.998H954.835C955.356 568.998 955.777 568.576 955.777 568.055V542.798C955.777 542.278 955.356 541.856 954.835 541.856Z" stroke="#BDA782" stroke-width="5.06" stroke-miterlimit="10"/>
<path d="M1006.56 431.623C1006.56 398.924 980.052 372.414 947.356 372.414C914.66 372.414 888.152 398.924 888.152 431.623C888.152 453.564 900.116 472.679 917.844 482.901V541.282L926.237 557.193H966.911L976.868 541.282V482.901C994.596 472.67 1006.56 453.564 1006.56 431.623Z" fill="white"/>
<path d="M917.836 503.41V545.681L926.229 557.193H966.904L976.86 545.681V503.41H917.836Z" fill="white"/>
<path d="M976.86 541.291L966.904 557.193H926.229L917.836 541.291H976.86Z" fill="white"/>
<path d="M902.058 393.488C893.373 403.794 888.145 417.097 888.145 431.623C888.145 453.564 900.108 472.679 917.836 482.901V541.282L926.229 557.193H966.904L976.86 541.282V482.901C994.588 472.67 1006.55 453.564 1006.55 431.623C1006.55 398.924 980.044 372.414 947.348 372.414C939.483 372.414 931.975 373.949 925.108 376.728" stroke="#BDA782" stroke-width="5.06" stroke-miterlimit="10"/>
<path d="M917.836 380.28C913.22 382.937 911.666 383.672 907.945 387.43" stroke="#BDA782" stroke-width="5.06" stroke-miterlimit="10"/>
<path d="M908.934 501.008H985.762" stroke="#BDA782" stroke-width="5.06" stroke-miterlimit="10"/>
<path d="M908.934 514.432H985.762" stroke="#BDA782" stroke-width="5.06" stroke-miterlimit="10"/>
<path d="M908.934 527.866H985.762" stroke="#BDA782" stroke-width="5.06" stroke-miterlimit="10"/>
<path d="M908.934 541.291H985.762" stroke="#BDA782" stroke-width="5.06" stroke-miterlimit="10"/>
<path d="M950.24 393.413V431.897L950.259 431.915L977.407 459.142C984.368 452.198 988.682 442.608 988.71 432.01C988.71 431.972 988.71 431.934 988.71 431.897C988.71 410.643 971.482 393.413 950.23 393.413H950.24Z" fill="white"/>
<path d="M921.21 404.652C914.239 411.604 909.925 421.204 909.906 431.821L948.377 431.915V393.413C937.77 393.413 928.171 397.709 921.21 404.652Z" fill="white"/>
<path d="M948.396 433.79H948.377L909.906 433.696C909.906 433.724 909.906 433.743 909.906 433.771C909.906 455.025 927.135 472.255 948.386 472.255C958.993 472.255 968.592 467.959 975.553 461.016L948.405 433.79H948.396Z" fill="white"/>
<path d="M989.643 431.256C989.643 453.894 971.293 472.246 948.657 472.246C926.022 472.246 907.672 453.894 907.672 431.256C907.672 408.618 926.022 390.266 948.657 390.266C971.293 390.266 989.643 408.618 989.643 431.256Z" stroke="#BDA782" stroke-width="5.06" stroke-miterlimit="10"/>
<path d="M907.699 432.688H948.657L975.541 459.142" stroke="#BDA782" stroke-width="5.06" stroke-miterlimit="10"/>
<path d="M947.039 389.484V431.915" stroke="#BDA782" stroke-width="5.06" stroke-miterlimit="10"/>
<path d="M1104.86 571.108C1127.71 571.108 1146.24 552.579 1146.24 529.722C1146.24 506.866 1127.71 488.337 1104.86 488.337C1082 488.337 1063.48 506.866 1063.48 529.722C1063.48 552.579 1082 571.108 1104.86 571.108Z" fill="white"/>
<path d="M1104.86 559.84C1121.49 559.84 1134.97 546.356 1134.97 529.722C1134.97 513.088 1121.49 499.604 1104.86 499.604C1088.23 499.604 1074.74 513.088 1074.74 529.722C1074.74 546.356 1088.23 559.84 1104.86 559.84Z" fill="#BDA782"/>
<path d="M1104.86 571.108C1127.71 571.108 1146.24 552.579 1146.24 529.722C1146.24 506.866 1127.71 488.337 1104.86 488.337C1082 488.337 1063.48 506.866 1063.48 529.722C1063.48 552.579 1082 571.108 1104.86 571.108Z" stroke="#BDA782" stroke-width="3.95" stroke-miterlimit="10"/>
<path d="M1119.07 515.516L1090.65 543.938" stroke="white" stroke-width="3.95" stroke-miterlimit="10"/>
<path d="M1096.72 526.745C1099.57 526.745 1101.88 524.434 1101.88 521.583C1101.88 518.731 1099.57 516.42 1096.72 516.42C1093.87 516.42 1091.56 518.731 1091.56 521.583C1091.56 524.434 1093.87 526.745 1096.72 526.745Z" stroke="white" stroke-width="3.95" stroke-miterlimit="10"/>
<path d="M1117.3 542.167C1115.28 544.183 1112.02 544.183 1110 542.167C1107.98 540.151 1107.98 536.882 1110 534.866C1112.02 532.85 1115.28 532.85 1117.3 534.866C1119.32 536.882 1119.32 540.151 1117.3 542.167Z" stroke="white" stroke-width="3.95" stroke-miterlimit="10"/>
<path d="M524.769 448.025H489.953V434.261L522.913 382.786H538.644V435.533H550.56V448.025H538.644V464.681H524.769V448.025ZM524.769 402.447H524.533L504.064 435.533H524.769V402.447Z" fill="white"/>
<path d="M559.121 423.729C559.121 417.247 559.639 411.717 560.685 407.129C561.721 402.541 563.096 398.688 564.792 395.561C566.487 392.442 568.4 389.936 570.519 388.043C572.638 386.159 574.796 384.727 577 383.766C579.195 382.805 581.314 382.164 583.358 381.853C585.402 381.542 587.192 381.392 588.737 381.392C590.282 381.392 592.072 381.552 594.116 381.853C596.16 382.164 598.279 382.795 600.474 383.766C602.669 384.727 604.826 386.159 606.955 388.043C609.074 389.936 610.987 392.442 612.682 395.561C614.378 398.688 615.744 402.541 616.789 407.129C617.835 411.717 618.353 417.247 618.353 423.729C618.353 430.21 617.835 435.74 616.789 440.328C615.753 444.916 614.378 448.769 612.682 451.897C610.987 455.015 609.074 457.531 606.955 459.415C604.835 461.308 602.678 462.731 600.474 463.692C598.279 464.653 596.16 465.293 594.116 465.604C592.072 465.915 590.282 466.066 588.737 466.066C587.192 466.066 585.402 465.906 583.358 465.604C581.314 465.293 579.195 464.662 577 463.692C574.805 462.731 572.638 461.299 570.519 459.415C568.4 457.531 566.487 455.015 564.792 451.897C563.096 448.769 561.73 444.916 560.685 440.328C559.639 435.74 559.121 430.21 559.121 423.729ZM572.996 423.729C572.996 426.272 573.166 429.221 573.515 432.575C573.863 435.929 574.57 439.113 575.653 442.118C576.736 445.123 578.309 447.667 580.391 449.749C582.473 451.831 585.252 452.877 588.718 452.877C592.185 452.877 594.963 451.84 597.045 449.749C599.127 447.667 600.71 445.123 601.783 442.118C602.867 439.113 603.573 435.929 603.922 432.575C604.27 429.221 604.44 426.272 604.44 423.729C604.44 421.185 604.27 418.236 603.922 414.883C603.573 411.529 602.857 408.345 601.783 405.339C600.7 402.334 599.127 399.791 597.045 397.709C594.963 395.627 592.185 394.59 588.718 394.59C585.252 394.59 582.473 395.627 580.391 397.709C578.309 399.791 576.727 402.334 575.653 405.339C574.57 408.345 573.863 411.529 573.515 414.883C573.166 418.236 572.996 421.185 572.996 423.729Z" fill="white"/>
<path d="M661.714 448.025H626.898V434.261L659.858 382.786H675.589V435.533H687.505V448.025H675.589V464.681H661.714V448.025ZM661.714 402.447H661.479L641.009 435.533H661.714V402.447Z" fill="white"/>
</svg>
