<?xml version="1.0" encoding="utf-8"?>
<!-- Generator: Adobe Illustrator 25.0.0, SVG Export Plug-In . SVG Version: 6.00 Build 0)  -->
<svg version="1.1" id="圖層_1" xmlns="http://www.w3.org/2000/svg" xmlns:xlink="http://www.w3.org/1999/xlink" x="0px" y="0px"
	 viewBox="0 0 390.1 61.4" style="enable-background:new 0 0 390.1 61.4;" xml:space="preserve">
<g>
	<path d="M22.5,39.6c-0.4-0.4-0.9-0.6-1.5-0.5c-0.6,0-1.1,0.3-1.4,0.7l-7.2,7.9c-0.8,0.8-0.7,2.2,0.1,3c0.4,0.4,0.9,0.6,1.4,0.6
		c0.6,0,1.1-0.2,1.5-0.7l7.2-7.9C23.4,41.7,23.3,40.3,22.5,39.6L22.5,39.6z"/>
	<path d="M26.4,49.8c-0.8-0.8-2.2-0.7-2.9,0.1l-7.2,7.9c-0.8,0.8-0.7,2.2,0.1,3c0.4,0.4,0.9,0.6,1.4,0.6c0.6,0,1.1-0.2,1.5-0.7
		l7.2-7.9C27.3,51.9,27.3,50.6,26.4,49.8z"/>
	<path d="M10.7,36.6c-0.4-0.3-0.9-0.5-1.5-0.5s-1.1,0.3-1.4,0.7l-7.2,7.9c-0.4,0.4-0.6,1-0.6,1.5c0,0.6,0.3,1.1,0.7,1.4
		c0.4,0.4,0.9,0.6,1.4,0.6c0.6,0,1.1-0.2,1.5-0.7l7.2-7.9c0.4-0.4,0.6-0.9,0.5-1.5C11.4,37.5,11.1,37,10.7,36.6L10.7,36.6z"/>
	<path d="M60.3,4.5V4.2c-0.1-0.9-0.2-1.9-1.2-2.9L59,1.2l-0.1-0.1c-1-0.9-2-1.1-2.9-1.1h-0.3h-0.1c-5.2,0.2-11.4,1.9-17.4,4.8
		c-2.4,1.1-4.3,2.5-6.2,3.9c-0.4,0.3-0.7,0.5-1.1,0.8l-0.3,0.2c-0.1,0.1-0.3,0.2-0.4,0.3c-1.1,0.8-3.1,2.4-4.7,3.9
		c-0.7,0.6-1.4,1.2-1.9,1.7c-4.6,4.8-7.2,8.3-9.5,12.8l0,0c-0.9,1.7-0.5,3.9,0.9,5.2c1.2,1.2,3,1.6,4.7,0.9c0.1,0,0.2-0.1,0.3-0.1
		c0.7-0.4,1.6-0.9,2.8-1.6c0.5,1.3,1.3,2.5,2.2,3.5l0,0l0.1,0.1l0.1,0.1c1,0.9,2.2,1.6,3.5,2.1c-0.7,1.2-1.2,2.2-1.5,2.9
		c0,0.1-0.1,0.2-0.1,0.3c-0.5,1.8-0.1,3.5,1.1,4.7c0.8,0.8,2,1.2,3.1,1.2c0.7,0,1.5-0.2,2.1-0.5h0.1c4.4-2.4,7.8-5.1,12.4-10
		c0.5-0.5,1.1-1.2,1.7-1.9c1.4-1.7,2.9-3.8,3.7-4.9c0.1-0.1,0.2-0.3,0.3-0.4l0.2-0.3c0.2-0.4,0.5-0.7,0.7-1.1v-0.1
		c1.3-1.9,2.6-3.9,3.6-6.4C58.7,16,60.2,9.7,60.3,4.5C60.3,4.6,60.3,4.6,60.3,4.5L60.3,4.5z M22.1,29.9c-1.5,0.9-2.7,1.6-3.5,2
		c-0.8,0.3-1.3,0-1.5-0.3c-0.4-0.4-0.5-1.1-0.3-1.6c0,0,0,0,0-0.1c1.8-3.6,3.9-6.5,7.2-10.1C22.5,23.5,21.9,26.9,22.1,29.9
		L22.1,29.9z M27.2,34.3L27.2,34.3c-0.8-0.8-1.4-1.8-1.7-2.9c2.3-1.4,4.2-2.7,4.3-2.7c2.2-1.5,2.8-1.3,3.4-0.7l0.1,0.1
		c0.6,0.6,0.9,1.2-0.5,3.5c-0.1,0.2-1.3,2.1-2.5,4.4C29.1,35.6,28.1,35.1,27.2,34.3L27.2,34.3L27.2,34.3z M30,42.9
		c0.4-0.8,1-2,1.9-3.6c3,0.1,6.3-0.6,10-2.2c-3.5,3.4-6.3,5.6-9.8,7.5H32c-0.5,0.3-1.2,0.2-1.6-0.2C30.1,44.1,29.7,43.7,30,42.9
		L30,42.9z M57.2,4.7c0,4.8-1.4,10.7-3.9,16.4c-0.5,1.2-1.2,2.4-2.1,3.9c-0.4,0.7-1.1,2-2.1,3.3v0.1c-0.1,0.1-0.2,0.3-0.4,0.5
		c-0.6,0.7-1.1,1.2-1.7,1.7l-0.1,0.1c-0.2,0.2-2.1,1.9-5.8,3.4c-2.7,1.3-5.2,2-7.5,2.2c0.8-1.4,1.5-2.5,1.7-3
		c0.9-1.5,2.8-4.5,0.1-7.3l-0.1-0.1l-0.1-0.1c-2.8-2.6-5.8-0.6-7.2,0.4c0,0-1.3,0.8-2.9,1.9c0.1-2.2,0.7-4.8,1.9-7.6
		c1.3-3.6,2.9-5.5,3.2-5.9l0.1-0.1c0.4-0.6,1-1.2,1.7-1.8c0.2-0.2,0.3-0.3,0.5-0.4h0.1c1.3-1.1,2.5-1.9,3.2-2.3
		c1.5-1,2.6-1.7,3.8-2.3C45.2,5,50.9,3.4,55.7,3.2H56c0.6,0,0.8,0.1,1,0.3l0,0c0.2,0.2,0.3,0.3,0.3,1L57.2,4.7L57.2,4.7z"/>
	<path d="M101.1,31.4V32c0,0.4,0,0.8,0,1.4c0,0.5-0.1,1-0.2,1.4c-0.2,0.7-0.6,1.2-1.2,1.6c-0.6,0.4-1.3,0.6-2,0.6
		c-0.2,0-0.5,0-0.9,0h-1.2c-0.4,0-0.9,0-1.3,0c-0.5,0-0.8,0-1.2,0c-1.7,0-2.8-0.5-3.5-1.3s-1-1.9-1-3.3v-9.9H84
		c0.1,0.2,0.2,0.4,0.2,0.6c0,2-0.3,3.8-1,5.4c-0.6,1.6-1.5,2.9-2.5,4.1c-1,1.2-2.1,2.1-3.3,2.8c-1.2,0.7-2.3,1.3-3.4,1.7
		c-0.3,0.1-0.5,0.1-0.7,0.1s-0.4-0.1-0.4-0.2c-0.3-0.2-0.5-0.5-0.5-0.9s0.1-0.7,0.5-0.9c1-0.6,1.9-1.2,2.9-2
		c0.9-0.7,1.8-1.6,2.6-2.6c0.8-1,1.4-2.2,1.8-3.5c0.5-1.3,0.7-2.9,0.7-4.6h-7.5c-0.6,0-0.9-0.2-1-0.5c0-0.2-0.1-0.4,0-0.7
		c0-0.3,0-0.5,0.1-0.7c0-0.2,0.2-0.3,0.3-0.3c0.2-0.1,0.4-0.1,0.6-0.1h11.9V9.5c0-0.3,0.1-0.6,0.3-0.7c0.2-0.1,0.3-0.2,0.5-0.3
		c0.3,0,0.6-0.1,0.8-0.1c0.2,0,0.5,0,0.7,0.1c0.2,0,0.3,0.1,0.5,0.3s0.2,0.4,0.2,0.6v10.8h11.8c0.2,0,0.4,0,0.6,0.1s0.3,0.2,0.3,0.4
		c0,0.2,0.1,0.4,0.1,0.7c0,0.3,0,0.5-0.1,0.7c0,0.2-0.1,0.3-0.3,0.4c-0.2,0.1-0.4,0.1-0.6,0.1h-8.4v9.9c0,0.6,0.1,1,0.4,1.3
		s0.8,0.5,1.6,0.5c0.6,0,1.2,0.1,1.7,0c0.6,0,1.3,0,2-0.1c0.3,0,0.6-0.2,0.8-0.4c0.2-0.2,0.3-0.4,0.3-0.5c0.1-0.4,0.2-0.7,0.3-1
		c0.1-0.3,0.1-0.6,0.2-1c0-0.2,0.1-0.3,0.2-0.5s0.3-0.2,0.4-0.3c0.2,0,0.4-0.1,0.5,0c0.1,0,0.2,0,0.3,0c0.2,0,0.3,0.1,0.4,0.3
		C101,31,101.1,31.2,101.1,31.4L101.1,31.4z M78.6,18.4c-0.2-0.6-0.4-1.1-0.6-1.7c-0.2-0.5-0.5-1.1-0.7-1.7s-0.6-1.2-0.9-1.9
		c-0.4-0.7-0.7-1.4-1.2-2.3c-0.2-0.4-0.2-0.7,0.1-1c0.1-0.1,0.2-0.2,0.3-0.2c0.1-0.1,0.2-0.1,0.3-0.1c0.2-0.1,0.3-0.1,0.5-0.1
		s0.4,0.1,0.5,0.3c0.4,0.4,0.9,1,1.4,1.6s1,1.3,1.4,2s0.9,1.4,1.2,2.1c0.4,0.7,0.6,1.3,0.8,1.9c0.1,0.3,0.1,0.6,0,0.9
		c-0.1,0.2-0.3,0.5-0.5,0.6c-0.4,0.2-0.8,0.4-1.2,0.4C79.3,19.2,78.8,19,78.6,18.4L78.6,18.4z M92.3,19.1c-0.1,0-0.2-0.1-0.3-0.2
		c-0.1-0.1-0.2-0.2-0.3-0.4c-0.2-0.3-0.1-0.6,0.1-0.9c0.3-0.4,0.7-0.9,1.1-1.5s0.8-1.2,1.3-1.9c0.4-0.7,0.8-1.3,1.2-2
		c0.4-0.7,0.7-1.3,1-1.9c0.3-0.6,0.8-0.8,1.4-0.6c0.3,0.1,0.5,0.2,0.7,0.3s0.4,0.3,0.5,0.5c0.4,0.4,0.4,0.8,0.2,1.3
		c-0.3,0.5-0.6,1.1-1,1.7c-0.4,0.7-0.9,1.3-1.4,2s-1.1,1.3-1.7,1.9s-1.2,1.1-1.8,1.5c-0.2,0.2-0.4,0.3-0.6,0.3
		C92.6,19.2,92.4,19.2,92.3,19.1L92.3,19.1z"/>
	<path d="M133.4,34.5c0.1,0.2,0.1,0.5,0,0.9c0,0.4-0.1,0.6-0.2,0.8c-0.1,0.2-0.2,0.3-0.5,0.4c-0.2,0.1-0.5,0.1-0.7,0.2h-7
		c-0.6,0-1.2,0-2,0s-1.6-0.1-2.4-0.1c-0.8-0.1-1.7-0.2-2.6-0.3s-1.8-0.3-2.7-0.5c-0.4-0.1-1-0.3-1.7-0.6s-1.4-0.6-1.9-1
		c-0.2-0.1-0.4-0.2-0.6-0.2s-0.3,0-0.5,0.2s-0.4,0.4-0.8,0.7s-0.8,0.6-1.2,0.9c-0.4,0.3-0.9,0.6-1.3,0.8c-0.4,0.3-0.8,0.4-1,0.5
		s-0.4,0.2-0.6,0.2s-0.4,0-0.5-0.1s-0.2-0.2-0.3-0.2c-0.1-0.1-0.1-0.2-0.2-0.3s-0.1-0.3-0.1-0.5s0.1-0.3,0.3-0.5
		c0.4-0.3,0.9-0.7,1.5-1c0.5-0.4,1-0.8,1.5-1.3s0.8-1.1,1.1-1.8c0.3-0.7,0.4-1.5,0.4-2.5v-3.1c0-0.2-0.1-0.4-0.3-0.6
		c-0.2-0.1-0.4-0.2-0.6-0.2H106c-0.3,0-0.6-0.1-0.8-0.2c-0.2-0.1-0.3-0.3-0.3-0.5c-0.1-0.2-0.1-0.4,0-0.6c0-0.2,0.1-0.4,0.2-0.5
		s0.3-0.3,0.6-0.7c0.3-0.4,0.7-0.8,1.2-1.3c0.4-0.5,0.8-1.1,1.2-1.7c0.4-0.6,0.6-1.2,0.8-1.8c0-0.2,0-0.3-0.2-0.4s-0.3-0.2-0.4-0.2
		h-2.6c-0.4,0-0.6-0.1-0.7-0.4c-0.1-0.4-0.1-0.7,0-1c0.1-0.2,0.1-0.3,0.2-0.3c0.1-0.1,0.3-0.1,0.5-0.1h0.9c0.5,0,1,0,1.6,0
		s1.1,0,1.6,0h0.9c0.3,0,0.5,0.1,0.8,0.2c0.2,0.1,0.4,0.3,0.6,0.5s0.3,0.4,0.3,0.6c0.1,0.2,0.1,0.4,0,0.6c-0.2,0.7-0.6,1.4-1,2
		c-0.5,0.6-0.9,1.2-1.4,1.7s-1,1-1.4,1.3c-0.4,0.4-0.7,0.6-0.9,0.7h2.4c0.7,0,1.3,0.2,1.7,0.6c0.2,0.2,0.3,0.4,0.4,0.7
		c0.1,0.3,0.1,0.5,0.2,0.8V26c0,0.3,0,0.5,0,0.7l-0.1,2.5c0,0.3-0.1,0.7-0.1,1c-0.1,0.3-0.1,0.7-0.2,1c0,0.2-0.1,0.3-0.1,0.5
		s-0.1,0.3-0.1,0.5c0.2,0,0.4,0.1,0.5,0.1c0.1,0.1,0.3,0.1,0.4,0.1c0.6,0.2,1.2,0.4,1.8,0.6c0.6,0.2,1.1,0.3,1.8,0.4
		c0.6,0.1,1.3,0.2,2,0.2c0.7,0.1,1.6,0.1,2.5,0.1l5.8,0.1c0.7,0,1.4,0,2.2,0c0.7,0,1.4,0,1.9,0h2.1c0.2,0,0.5,0.1,0.6,0.2
		C133.3,34.1,133.4,34.3,133.4,34.5L133.4,34.5z M108.9,14c-0.4-0.5-0.9-1-1.4-1.6s-0.9-1.1-1.3-1.6c-0.3-0.3-0.3-0.6-0.2-0.8
		c0.1-0.2,0.2-0.3,0.3-0.4c0.1-0.1,0.2-0.2,0.3-0.2c0.1-0.1,0.3-0.1,0.5,0s0.4,0.1,0.6,0.3c0.6,0.5,1.3,0.9,1.9,1.4s1,0.9,1.3,1.2
		c0.1,0.1,0.2,0.3,0.2,0.5s0,0.3-0.1,0.4c-0.2,0.3-0.3,0.5-0.5,0.7s-0.4,0.3-0.5,0.5c-0.1,0.1-0.3,0.1-0.5,0.1S109,14.2,108.9,14
		L108.9,14z M113.4,13c-0.3,0-0.5,0-0.6-0.1c-0.2-0.1-0.3-0.2-0.3-0.4s-0.1-0.4-0.1-0.6c0-0.2,0-0.3,0.1-0.5c0-0.2,0.2-0.3,0.3-0.4
		c0.2-0.1,0.4-0.1,0.6-0.1h8V9.7c0-0.4,0.1-0.6,0.2-0.8c0.2-0.1,0.3-0.2,0.5-0.3c0.4,0,0.6-0.1,0.8-0.1c0.2,0,0.4,0,0.7,0.1
		c0.2,0,0.4,0.2,0.5,0.3c0.1,0.2,0.2,0.4,0.2,0.7v1.2h8c0.5,0,0.8,0.1,0.9,0.4c0.1,0.3,0.1,0.7,0,1.2c-0.1,0.3-0.4,0.5-0.9,0.5h-8
		v2.2h5.6c1.5,0,2.3,0.7,2.3,2.1v3.9c0,1.5-0.8,2.3-2.3,2.3h-5.6v8.7c0,0.3-0.1,0.6-0.2,0.8s-0.3,0.3-0.5,0.4
		c-0.3,0-0.5,0.1-0.7,0.1s-0.5,0-0.8-0.1c-0.2,0-0.3-0.1-0.5-0.3c-0.1-0.2-0.2-0.4-0.2-0.8v-5c-0.3,0.3-0.6,0.7-0.9,1
		s-0.6,0.6-0.9,0.8c-0.4,0.4-0.9,0.7-1.5,1.1c-0.5,0.3-1.1,0.7-1.6,1s-1,0.5-1.5,0.7s-0.9,0.4-1.2,0.4c-0.4,0.1-0.8,0.1-1-0.2
		c-0.2-0.2-0.3-0.4-0.3-0.7c0-0.2,0-0.3,0-0.5c0.1-0.2,0.2-0.3,0.4-0.4c1.6-0.8,3.1-1.8,4.5-3s2.5-2.5,3.4-3.9h-5
		c-1.5,0-2.3-0.8-2.3-2.3v-3.8c0-1.4,0.8-2.1,2.3-2.1h5.6v-2.1L113.4,13L113.4,13z M121.4,17h-4c-0.6,0-0.9,0.3-0.9,1v2.4
		c0,0.7,0.3,1.1,0.9,1.1h4V17z M124.4,21.5h4c0.6,0,1-0.4,1-1.1V18c0-0.7-0.3-1-1-1h-4C124.4,17,124.4,21.5,124.4,21.5z M126.7,24.8
		c0.2,0.1,0.6,0.3,1.2,0.7c0.6,0.4,1.2,0.8,1.8,1.4c0.6,0.5,1.3,1,1.8,1.5c0.6,0.5,1,0.9,1.2,1.1s0.3,0.4,0.3,0.6s0,0.5-0.1,0.6
		c-0.1,0.2-0.3,0.4-0.5,0.6s-0.4,0.4-0.6,0.5c-0.2,0.1-0.4,0.2-0.6,0.1c-0.2,0-0.4-0.1-0.6-0.3c-0.3-0.4-0.7-0.8-1.2-1.4
		c-0.5-0.5-1-1.1-1.5-1.6s-1-1-1.4-1.5s-0.8-0.8-1-1s-0.3-0.3-0.3-0.5s0-0.3,0.1-0.5c0.1-0.1,0.2-0.3,0.5-0.5
		C126,24.7,126.4,24.7,126.7,24.8L126.7,24.8z"/>
	<path d="M165.3,34.4c0.2,0.2,0.4,0.4,0.4,0.7s0,0.6-0.1,0.8c-0.1,0.3-0.3,0.6-0.5,0.8s-0.4,0.4-0.6,0.6c-0.2,0.1-0.4,0.2-0.7,0.2
		s-0.6,0-0.9-0.2c-2.1-1.2-4.1-2.9-6-5.1s-3.4-4.7-4.7-7.8c-0.3-0.7-0.5-1.2-0.6-1.7c-0.5,1.8-1.2,3.4-2.2,4.9
		c-0.9,1.5-2,2.9-3.2,4.1c-1.2,1.2-2.5,2.3-3.9,3.2s-2.7,1.7-4,2.3c-0.3,0.1-0.5,0.2-0.7,0.1c-0.2,0-0.3,0-0.4-0.1
		c-0.2-0.1-0.3-0.2-0.4-0.4c-0.1-0.2-0.2-0.3-0.2-0.4c-0.1-0.2-0.1-0.4,0-0.6c0.1-0.2,0.2-0.4,0.5-0.6c1.2-0.7,2.4-1.6,3.7-2.5
		c1.3-1,2.5-2.1,3.6-3.3c1.1-1.2,2.1-2.7,2.9-4.2c0.8-1.6,1.4-3.3,1.6-5.3c0.1-0.9,0.2-1.7,0.3-2.6c0.1-0.8,0.1-1.7,0.1-2.5
		s0.1-1.7,0.1-2.6c0-0.9,0-1.8,0-2.8c0-0.4,0.1-0.6,0.3-0.8s0.4-0.2,0.7-0.3s0.6-0.1,0.9-0.1c0.3,0,0.5,0,0.7,0.1
		c0.3,0,0.5,0.2,0.7,0.3c0.2,0.2,0.3,0.4,0.3,0.8c0,1.4,0,2.7,0,3.7s-0.1,1.9-0.1,2.7s-0.1,1.4-0.2,2c-0.1,0.6-0.1,1.1-0.2,1.7
		l0.3,0.6c0.9-0.5,1.7-1.1,2.5-1.8c0.8-0.7,1.6-1.4,2.3-2.2c0.7-0.7,1.4-1.5,2-2.1c0.6-0.7,1.1-1.3,1.4-1.7c0.2-0.3,0.4-0.4,0.7-0.4
		s0.5,0,0.7,0.1c0.5,0.2,0.9,0.5,1.3,0.9c0.2,0.2,0.3,0.4,0.3,0.7s0,0.6-0.1,0.7c-0.3,0.5-0.9,1.1-1.6,1.9c-0.8,0.7-1.6,1.4-2.6,2.2
		c-1,0.7-2,1.4-3.1,2s-2.1,1.1-3,1.5c1.2,2.2,2.5,4.1,3.9,5.8c0.7,0.9,1.5,1.7,2.2,2.3s1.4,1.3,2.2,1.8c0.7,0.5,1.4,1,2,1.4
		C164.2,33.6,164.8,34,165.3,34.4L165.3,34.4z M140.7,17.5c-0.5-1-1-1.8-1.4-2.4c-0.4-0.7-0.7-1.2-1-1.7c-0.2-0.4-0.2-0.7,0-0.9
		c0.1-0.1,0.2-0.2,0.3-0.3s0.2-0.1,0.3-0.2c0.4-0.2,0.7-0.1,1.1,0.2c0.4,0.3,0.9,0.9,1.5,1.6c0.6,0.7,1.2,1.4,1.8,2.2
		c0.6,0.8,1.2,1.5,1.7,2.3c0.5,0.7,0.9,1.3,1.1,1.8c0.1,0.3,0.2,0.6,0.1,0.8c-0.1,0.3-0.2,0.5-0.4,0.7c-0.1,0.2-0.3,0.3-0.6,0.5
		s-0.6,0.3-0.9,0.4c-0.2,0-0.5,0-0.7,0c-0.2-0.1-0.4-0.2-0.6-0.6c-0.2-0.5-0.5-1.2-0.9-1.9C141.6,19.2,141.2,18.4,140.7,17.5
		L140.7,17.5z"/>
	<path d="M196.3,18c0.2,0,0.5,0,0.7,0.1s0.3,0.2,0.4,0.4c0.1,0.4,0.1,0.8,0,1.1c0,0.2-0.2,0.3-0.4,0.4s-0.4,0.1-0.7,0.1h-25.9
		c-0.3,0-0.5,0-0.7-0.1s-0.3-0.2-0.4-0.3c-0.1-0.3-0.1-0.7,0-1.2c0-0.2,0.2-0.3,0.4-0.4s0.5-0.1,0.8-0.1H196.3L196.3,18z
		 M169.9,15.1c-0.3-0.1-0.4-0.3-0.6-0.6c-0.1-0.1-0.1-0.2,0-0.4s0.1-0.3,0.2-0.5c0.5-0.6,1-1.3,1.5-2.1s1-1.6,1.3-2.6
		c0.1-0.3,0.3-0.5,0.6-0.6c0.2-0.1,0.5,0,0.8,0.1s0.5,0.2,0.6,0.2c0.1,0.1,0.2,0.1,0.4,0.2c0.1,0.1,0.2,0.2,0.3,0.4s0.1,0.3,0.1,0.5
		h7.1c0.2,0,0.4,0,0.6,0.1c0.2,0,0.3,0.2,0.3,0.3c0.1,0.4,0.1,0.8,0,1.1c0,0.2-0.2,0.3-0.3,0.3c-0.2,0.1-0.4,0.1-0.6,0.1H174
		c-0.9,1.2-2,2.2-3.2,3.1c-0.2,0.2-0.4,0.2-0.5,0.2C170.1,15.2,170,15.2,169.9,15.1L169.9,15.1z M182.2,21.7c0.7,0,1.2,0.2,1.5,0.6
		c0.4,0.4,0.5,0.9,0.5,1.5v10.8c0,0.8-0.3,1.4-0.9,2c-0.6,0.5-1.3,0.8-2.2,0.7c-0.7,0-1.3,0-1.8-0.1s-1-0.2-1.4-0.3
		c-0.3-0.1-0.4-0.3-0.4-0.6c0-0.2,0-0.3,0-0.4c0-0.1,0-0.2,0.1-0.3c0.1-0.2,0.3-0.3,0.7-0.3s0.8,0.1,1,0.1s0.5,0,0.8,0
		s0.6-0.2,0.8-0.4s0.3-0.5,0.3-0.9v-1.7h-8c0,0.2,0,0.4-0.1,0.5c0,0.2,0,0.3-0.1,0.4c0,0.3-0.1,0.6-0.2,1c-0.1,0.4-0.2,0.7-0.3,1
		s-0.2,0.7-0.4,1c-0.1,0.3-0.3,0.6-0.4,0.7c-0.2,0.2-0.5,0.4-0.7,0.4s-0.3,0-0.4-0.1c-0.1,0-0.3-0.1-0.4-0.2c-0.1,0-0.2-0.1-0.3-0.3
		c-0.1-0.1-0.1-0.3,0-0.6c0-0.1,0.1-0.4,0.2-0.7s0.2-0.8,0.3-1.4c0.1-0.6,0.2-1.2,0.2-1.9c0.1-0.7,0.1-1.5,0.1-2.3v-6.2
		c0-0.6,0.2-1.1,0.5-1.4c0.4-0.4,0.8-0.6,1.5-0.6L182.2,21.7L182.2,21.7z M181.4,30.3v-2.4h-7.7c0,0.5,0,0.9,0,1.3s0,0.8-0.1,1.1
		H181.4L181.4,30.3z M174.6,23.6c-0.5,0-0.8,0.3-0.8,0.8v1.7h7.7v-1.7c0-0.5-0.3-0.7-0.8-0.7L174.6,23.6L174.6,23.6z M175.9,17.5
		c-0.1-0.2-0.2-0.5-0.4-0.9s-0.3-0.7-0.3-1c-0.1-0.4,0-0.7,0.2-0.9c0.1-0.1,0.2-0.1,0.3-0.2c0.1-0.1,0.2-0.1,0.4-0.1
		c0.1,0,0.3,0,0.4,0c0.1,0,0.3,0.1,0.4,0.2c0.2,0.2,0.5,0.5,0.7,0.8c0.3,0.3,0.5,0.6,0.6,0.9c0.2,0.4,0.1,0.8-0.3,1.1
		c-0.1,0.1-0.3,0.2-0.5,0.3c-0.2,0.1-0.4,0.2-0.5,0.2C176.5,18,176.1,17.9,175.9,17.5L175.9,17.5z M177.3,12c0.1,0,0.3,0,0.5,0
		s0.3,0.1,0.5,0.2c0.3,0.2,0.6,0.3,0.9,0.5c0.3,0.1,0.5,0.3,0.7,0.6c0.2,0.2,0.2,0.3,0.2,0.5s-0.1,0.4-0.2,0.5
		c-0.2,0.4-0.6,0.8-1.1,1c-0.2,0.1-0.4,0.1-0.6,0c-0.2-0.1-0.4-0.2-0.5-0.4c-0.2-0.3-0.4-0.6-0.6-0.7c-0.2-0.2-0.3-0.4-0.5-0.7
		c-0.1-0.2-0.2-0.3-0.1-0.5c0-0.2,0.1-0.3,0.1-0.4C176.7,12.3,176.9,12.1,177.3,12L177.3,12z M183.1,14.4c-0.2-0.3-0.1-0.5,0.1-0.8
		c0.4-0.6,0.8-1.3,1.2-2s0.7-1.5,1.1-2.4c0.1-0.3,0.3-0.5,0.5-0.6s0.5,0,0.8,0.1s0.5,0.2,0.6,0.3s0.2,0.2,0.4,0.3
		c0.3,0.3,0.4,0.6,0.3,0.9h7.8c0.2,0,0.4,0,0.6,0.1c0.2,0,0.3,0.2,0.3,0.3c0.1,0.4,0.1,0.8,0,1.1c0,0.2-0.2,0.3-0.3,0.3
		c-0.2,0.1-0.4,0.1-0.6,0.1h-8.8c-0.4,0.6-0.8,1.1-1.3,1.6s-0.9,0.9-1.2,1.2s-0.6,0.3-0.9,0.2C183.5,14.8,183.3,14.7,183.1,14.4
		L183.1,14.4z M189.6,32.5c0,0.3-0.1,0.5-0.2,0.6c-0.1,0.1-0.3,0.2-0.4,0.3c-0.4,0.1-1,0.1-1.5,0c-0.2,0-0.3-0.1-0.4-0.2
		c-0.1-0.1-0.2-0.3-0.2-0.7v-9.2c0-0.3,0.1-0.5,0.2-0.7c0.1-0.1,0.3-0.2,0.4-0.2c0.3,0,0.6-0.1,0.8-0.1s0.5,0,0.7,0s0.3,0.2,0.4,0.3
		c0.1,0.2,0.2,0.4,0.2,0.6V32.5L189.6,32.5z M188.4,14.6c0.1-0.2,0.3-0.3,0.5-0.4c0.2-0.1,0.4-0.1,0.6,0c0.3,0.1,0.5,0.2,0.7,0.3
		s0.4,0.2,0.5,0.4c0.2,0.2,0.3,0.4,0.3,0.6c0,0.2,0,0.5-0.2,0.6c-0.2,0.3-0.4,0.5-0.7,0.7s-0.6,0.5-1.1,0.8
		c-0.2,0.2-0.4,0.2-0.6,0.2s-0.3,0-0.5-0.1c-0.1,0-0.3-0.1-0.4-0.2c-0.1-0.1-0.2-0.2-0.3-0.2c-0.2-0.2-0.1-0.4,0.1-0.9
		c0.1-0.2,0.2-0.5,0.4-0.8C187.9,15.4,188.1,15,188.4,14.6L188.4,14.6z M195.4,21.4c0.2,0,0.3,0.1,0.4,0.3c0.1,0.2,0.2,0.4,0.2,0.6
		v11.3c0,1.3-0.3,2.2-0.9,2.8c-0.6,0.6-1.4,0.9-2.5,0.9c-0.3,0-0.8,0-1.3-0.1s-1.1-0.2-1.6-0.4c-0.6-0.2-0.8-0.5-0.8-0.8
		c0-0.2,0-0.3,0.1-0.5c0-0.1,0.1-0.3,0.1-0.4c0.2-0.3,0.5-0.4,0.9-0.4c0.3,0,0.6,0,0.9,0c0.3,0,0.6,0,0.9,0c0.9,0,1.4-0.5,1.4-1.4
		V22.4c0-0.3,0.1-0.6,0.2-0.7c0.1-0.1,0.3-0.2,0.4-0.2C194.4,21.4,194.9,21.4,195.4,21.4L195.4,21.4z M192.3,15.2
		c-0.2,0.1-0.4,0.1-0.6,0c-0.2-0.1-0.4-0.2-0.5-0.4c-0.2-0.3-0.4-0.6-0.6-0.7c-0.1-0.2-0.3-0.4-0.5-0.7s-0.2-0.6,0-0.9
		c0.1-0.1,0.2-0.2,0.3-0.3s0.2-0.2,0.4-0.2c0.1,0,0.3,0,0.4,0c0.2,0,0.4,0.1,0.5,0.2c0.3,0.2,0.6,0.3,0.8,0.5
		c0.3,0.1,0.5,0.3,0.7,0.6c0.2,0.2,0.2,0.3,0.2,0.5s-0.1,0.4-0.2,0.5c-0.1,0.2-0.3,0.4-0.5,0.6C192.7,15,192.5,15.1,192.3,15.2
		L192.3,15.2z"/>
	<path d="M210.3,9c0.7,0,1.3,0.2,1.6,0.7c0.4,0.4,0.6,1,0.6,1.6v23.4c0,0.5-0.1,0.9-0.3,1.3c-0.2,0.3-0.4,0.6-0.7,0.9
		c-0.3,0.2-0.6,0.4-1,0.5s-0.7,0.1-1,0.1c-0.7,0-1.3-0.1-1.8-0.2c-0.5-0.1-1-0.2-1.3-0.4c-0.4-0.2-0.6-0.4-0.6-0.7
		c0-0.2,0.1-0.4,0.1-0.5s0.1-0.2,0.1-0.3c0.1-0.2,0.4-0.3,0.7-0.3c0.5,0.1,0.9,0.1,1.1,0.1c0.3,0,0.5,0,0.8,0c0.2,0,0.4-0.2,0.6-0.4
		s0.3-0.5,0.3-0.8v-8.5c-0.6,0.6-1.2,1-1.8,1.4s-1.1,0.6-1.6,0.7c-0.2,0-0.3,0-0.5,0s-0.3-0.1-0.4-0.2c0,0.5-0.1,1-0.1,1.5
		c-0.1,0.5-0.1,0.9-0.2,1.2c-0.4,2.1-0.8,3.7-1.1,4.7c-0.4,1-0.7,1.7-0.9,2s-0.5,0.5-0.7,0.5c-0.3,0-0.6-0.1-0.9-0.2
		c-0.1,0-0.2-0.1-0.2-0.3c-0.1-0.2,0-0.3,0-0.5c0-0.1,0.1-0.4,0.3-1s0.3-1.3,0.5-2.2s0.3-2,0.5-3.2s0.2-2.6,0.2-4V11.2
		c0-0.6,0.2-1.1,0.6-1.6c0.4-0.4,0.9-0.6,1.6-0.6H210.3L210.3,9z M205.5,11.8v4c0.2-0.1,0.4-0.1,0.6,0c0.6,0.2,1.3,0.5,2,0.7
		c0.7,0.3,1.2,0.5,1.6,0.7v-5.5c0-0.5-0.3-0.7-0.8-0.7h-2.7C205.7,11,205.5,11.3,205.5,11.8L205.5,11.8z M209.7,18.8l-0.3,0.5
		c-0.1,0.1-0.2,0.2-0.4,0.2s-0.3,0-0.5-0.1c-0.4-0.3-1-0.6-1.5-1c-0.5-0.3-1-0.7-1.5-1V25c0.3-0.1,0.6-0.2,0.9-0.3
		c0.3-0.1,0.6-0.2,1-0.4c0.3-0.1,0.7-0.3,1.1-0.5c0.4-0.2,0.8-0.4,1.3-0.6L209.7,18.8L209.7,18.8z M229.7,34.5
		c0.4,0.2,0.6,0.6,0.5,1.1c-0.1,0.3-0.2,0.6-0.4,0.9c-0.2,0.3-0.4,0.5-0.6,0.7c-0.2,0.1-0.3,0.2-0.5,0.2s-0.5,0-0.8-0.1
		c-0.9-0.4-2-0.9-3.1-1.6c-1.1-0.7-2.3-1.5-3.4-2.5c-1.1,0.8-2.2,1.5-3.4,2.2s-2.5,1.3-3.9,1.8c-0.4,0.2-0.7,0.1-1-0.2
		c-0.2-0.2-0.3-0.4-0.3-0.8c0-0.2,0-0.3,0.1-0.5s0.2-0.3,0.5-0.4c1.4-0.6,2.5-1.2,3.6-1.9c1-0.7,2-1.3,2.8-2c-1-1.1-1.8-2.3-2.6-3.6
		c-0.8-1.3-1.4-2.9-1.8-4.6c-0.4,0-0.6-0.2-0.7-0.5c-0.1-0.4-0.1-0.7,0-1.1c0.1-0.3,0.4-0.4,0.8-0.4h10.4c0.9,0,1.6,0.3,2.1,0.9
		s0.5,1.5,0.1,2.6c-0.5,1.2-1.1,2.4-1.8,3.4c-0.7,1.1-1.6,2.1-2.5,3.1c1,0.7,2.1,1.3,3.1,1.7C227.7,33.6,228.7,34.1,229.7,34.5
		L229.7,34.5z M213.8,20.5c-0.1-0.1-0.2-0.2-0.3-0.2c-0.1-0.1-0.1-0.2-0.2-0.3c-0.2-0.3-0.1-0.6,0.1-0.9c0.4-0.5,0.8-0.9,1-1.2
		c0.3-0.4,0.5-0.7,0.7-1s0.3-0.7,0.4-1s0.1-0.7,0.1-1.1v-3.3c0-0.8,0.2-1.4,0.7-1.8c0.5-0.4,1-0.6,1.6-0.6h6c1.6,0,2.4,0.8,2.4,2.4
		v5.3c0,0.3,0.1,0.6,0.2,0.7c0.2,0.1,0.4,0.1,0.7,0.1h1.8c0.5,0,0.7,0.2,0.8,0.6c0,0.1,0.1,0.3,0.1,0.5s0,0.4-0.1,0.6
		c0,0.2-0.1,0.3-0.2,0.5c-0.1,0.2-0.3,0.2-0.6,0.2h-2.9c-0.9,0-1.6-0.2-2.1-0.7c-0.5-0.4-0.8-1.1-0.8-1.9v-5.5
		c0-0.4-0.1-0.6-0.2-0.7c-0.2-0.1-0.3-0.2-0.5-0.2h-2.9c-0.2,0-0.4,0.1-0.6,0.2c-0.2,0.1-0.3,0.4-0.3,0.8v2.1c0,0.6-0.1,1.3-0.3,1.9
		c-0.2,0.6-0.5,1.2-0.8,1.8s-0.7,1.1-1.2,1.5c-0.4,0.5-0.9,0.8-1.3,1c-0.3,0.2-0.5,0.2-0.7,0.2C214.1,20.6,213.9,20.6,213.8,20.5
		L213.8,20.5z M217.2,23.3c0.6,1.4,1.2,2.6,1.9,3.7c0.7,1,1.5,1.9,2.3,2.7c0.8-1,1.5-1.9,2-2.9s0.9-1.9,1.2-2.8c0-0.2,0-0.3-0.1-0.5
		c-0.1-0.1-0.3-0.2-0.4-0.2L217.2,23.3L217.2,23.3z"/>
	<path d="M241.2,10c-0.1,0.6-0.3,1.3-0.5,2c-0.2,0.8-0.5,1.5-0.8,2.2c-0.1,0.3-0.2,0.6-0.4,1s-0.3,0.7-0.4,1l-0.5,1.1
		c0.2,0,0.4,0,0.6,0.1c0.2,0,0.3,0.1,0.4,0.2c0.1,0.1,0.2,0.3,0.2,0.4v18.4c0,0.2-0.1,0.4-0.2,0.5c-0.1,0.1-0.3,0.3-0.4,0.3
		c-0.2,0.1-0.5,0.1-0.9,0.1s-0.6,0-0.9-0.1c-0.4-0.2-0.6-0.5-0.6-0.9V20.6c-0.1,0.2-0.3,0.4-0.4,0.7c-0.2,0.3-0.4,0.5-0.6,0.8
		c-0.2,0.3-0.5,0.5-0.7,0.8s-0.4,0.4-0.6,0.6c-0.3,0.2-0.5,0.2-0.8,0.1c-0.2,0-0.3-0.1-0.4-0.2c-0.1-0.1-0.2-0.1-0.2-0.2
		c-0.1-0.1-0.2-0.3-0.2-0.5s0-0.4,0.1-0.6c0.7-1.2,1.4-2.5,2-3.7s1.1-2.5,1.5-3.7c0.2-0.6,0.4-1.1,0.5-1.7c0.2-0.6,0.3-1.1,0.4-1.6
		c0.1-0.5,0.2-0.9,0.3-1.3c0.1-0.4,0.2-0.7,0.2-1c0-0.2,0.2-0.4,0.4-0.6c0.2-0.2,0.4-0.2,0.7-0.2s0.7,0.1,1,0.1
		c0.3,0.1,0.5,0.1,0.6,0.2c0.2,0.1,0.4,0.3,0.5,0.4C241.3,9.4,241.3,9.7,241.2,10L241.2,10z M241,21.5c-0.3-0.1-0.5-0.3-0.6-0.6
		c-0.2-0.3-0.1-0.6,0.2-0.9c0.7-0.8,1.3-1.6,1.8-2.5s1-1.8,1.4-2.7s0.8-1.8,1-2.6c0.3-0.8,0.5-1.6,0.7-2.3c0.1-0.5,0.5-0.8,1.1-0.8
		c0.2,0,0.5,0.1,0.8,0.2c0.3,0.1,0.5,0.2,0.7,0.3s0.3,0.3,0.4,0.5c0.1,0.2,0.1,0.5,0,0.7c-0.2,0.9-0.6,1.8-1,2.8c-0.5,1-1,2.1-1.6,3
		c-0.6,1-1.3,1.9-2,2.7c-0.7,0.8-1.4,1.5-2,1.9c-0.1,0.1-0.2,0.1-0.4,0.1C241.2,21.6,241.1,21.5,241,21.5L241,21.5z M256.8,20.4
		c0.9,0,1.6,0.2,1.9,0.6s0.5,0.9,0.5,1.5s0,1.4-0.1,2.5s-0.1,2.3-0.2,3.5s-0.2,2.3-0.3,3.4c-0.1,1.1-0.2,1.9-0.3,2.3
		c-0.3,1.2-0.7,2-1.3,2.5c-0.6,0.5-1.6,0.6-2.8,0.6c-0.3,0-0.8-0.1-1.3-0.1c-0.5-0.1-1-0.2-1.4-0.4c-0.2-0.1-0.4-0.2-0.5-0.4
		c-0.1-0.1-0.1-0.3-0.1-0.4c0-0.1,0-0.2,0.1-0.4c0-0.1,0.1-0.2,0.1-0.3c0.1-0.1,0.2-0.2,0.3-0.3s0.3-0.1,0.5-0.1
		c0.3,0,0.6,0.1,1,0.1s0.6,0,0.8,0c0.5,0,0.8-0.1,1-0.3s0.4-0.5,0.4-0.8c0-0.2,0.1-0.5,0.2-1s0.1-1.1,0.2-1.8
		c0.1-0.7,0.1-1.4,0.2-2.2c0.1-0.8,0.1-1.6,0.2-2.3c0-0.7,0.1-1.4,0.1-2s0-1.1,0-1.4c0-0.4-0.2-0.6-0.6-0.6h-4.8
		c0.1,0.2,0.1,0.4,0.1,0.7c-0.1,1.7-0.3,3.3-0.8,4.8s-1.1,2.8-1.9,4c-0.8,1.2-1.7,2.2-2.6,3.1c-1,0.9-2,1.6-3.1,2.1
		c-0.2,0.1-0.4,0.1-0.6,0.1c-0.2,0-0.4,0-0.5-0.1c-0.2-0.1-0.3-0.2-0.4-0.4s-0.2-0.3-0.2-0.4c-0.1-0.4,0.1-0.7,0.4-1
		c0.9-0.7,1.7-1.4,2.5-2.2s1.5-1.7,2.1-2.7s1.1-2.2,1.4-3.5c0.3-1.3,0.5-2.8,0.5-4.6h-3.4c-0.4,0-0.7-0.2-0.8-0.7
		c0-0.2-0.1-0.4,0-0.6c0-0.2,0.1-0.3,0.1-0.5c0.1-0.3,0.4-0.5,0.9-0.5L256.8,20.4L256.8,20.4z M262.3,18.9c0.2,0.2,0.2,0.4,0.2,0.7
		c-0.1,0.3-0.2,0.6-0.3,0.7c-0.2,0.2-0.4,0.4-0.6,0.5s-0.5,0.2-0.7,0.4c-0.2,0-0.3,0-0.6,0c-0.2,0-0.4-0.1-0.6-0.3
		c-0.6-0.5-1.1-1.1-1.6-1.8c-0.5-0.8-1-1.6-1.4-2.4c-0.4-0.8-0.8-1.7-1.1-2.6c-0.3-0.9-0.6-1.7-0.9-2.5c-0.1-0.6-0.4-0.9-0.8-0.9
		h-0.3c-0.3,0-0.6-0.1-0.8-0.3c-0.1-0.1-0.2-0.3-0.2-0.5s0-0.5,0.1-0.6c0.1-0.3,0.4-0.5,0.9-0.5h0.9c1.1,0,1.9,0.6,2.4,1.9
		c0.4,1,0.7,1.9,1.1,2.6c0.3,0.7,0.7,1.4,1.1,2s0.8,1.2,1.4,1.8C260.8,17.6,261.5,18.2,262.3,18.9L262.3,18.9z"/>
	<path d="M294.4,12.1c0.1,0.4,0.1,0.8,0,1.1s-0.4,0.5-0.9,0.5H279c-0.4,0.6-0.9,1.2-1.3,1.8c-0.4,0.6-0.9,1.1-1.4,1.6h13.8
		c1.7,0,2.5,0.8,2.5,2.5v14c0,1.2-0.4,2.1-1.2,2.8c-0.8,0.7-1.9,1-3.4,1c-0.6,0-1.2-0.1-1.7-0.2c-0.5-0.1-1.1-0.3-1.7-0.5
		c-0.3-0.1-0.5-0.3-0.6-0.5s-0.1-0.4-0.1-0.5c0.1-0.3,0.2-0.6,0.3-0.8c0.1-0.2,0.2-0.3,0.4-0.3c0.2-0.1,0.3-0.1,0.5,0
		c0.5,0,0.9,0.1,1.4,0.2c0.4,0.1,0.8,0.1,1.1,0.1c0.7,0,1.2-0.2,1.4-0.4c0.3-0.2,0.4-0.6,0.4-1.1v-2.7h-15c-0.1,1.7-0.3,3-0.5,4
		c-0.3,1-0.4,1.7-0.6,2.1c-0.1,0.3-0.2,0.5-0.4,0.6s-0.3,0.2-0.5,0.2s-0.4,0-0.5,0s-0.3-0.1-0.5-0.1c-0.4-0.1-0.5-0.5-0.4-1
		c0-0.3,0.1-0.8,0.2-1.5s0.1-1.5,0.2-2.3c0.1-0.8,0.1-1.7,0.2-2.5c0.1-0.9,0.1-1.6,0.1-2.3v-6.6c-0.8,0.6-1.6,1-2.3,1.4
		c-0.7,0.4-1.4,0.7-2,1c-0.5,0.2-0.8,0.2-1.1,0c-0.2-0.1-0.3-0.2-0.4-0.4c-0.1-0.2-0.2-0.3-0.2-0.5c-0.1-0.3,0.1-0.6,0.4-0.8
		c1.1-0.7,2.1-1.4,3-2.1s1.7-1.3,2.5-2c0.7-0.7,1.4-1.3,2-2c0.6-0.7,1.1-1.3,1.5-2h-8.4c-0.6,0-0.9-0.2-1-0.5s-0.1-0.7,0-1.1
		c0.1-0.4,0.4-0.6,1-0.6h9.6c0.2-0.4,0.4-0.7,0.5-1.1c0.2-0.4,0.3-0.8,0.5-1.2s0.4-0.6,0.7-0.7c0.3-0.1,0.6-0.2,0.9-0.1
		c0.3,0,0.6,0.1,0.9,0.3c0.3,0.1,0.5,0.2,0.6,0.3c0.2,0.2,0.4,0.4,0.5,0.7s0.1,0.6,0,0.9l-0.5,1h13.2
		C294.1,11.6,294.4,11.8,294.4,12.1L294.4,12.1z M289.5,24.7h-14.7v1.4c0,0.2,0,0.4,0,0.6c0,0.3,0,0.5,0,0.8c0,0.2,0,0.3,0,0.5v0.6
		h14.8L289.5,24.7L289.5,24.7z M289.5,20.2c0-0.7-0.3-1.1-1-1.1h-12.9c-0.6,0-0.8,0.4-0.8,1.1v2.5h14.7L289.5,20.2L289.5,20.2z"/>
	<path d="M308.2,25.1c0,0.8-0.1,1.6-0.3,2.3c-0.2,0.7-0.6,1.2-1,1.6s-1.1,0.7-1.8,0.8c-0.7,0.1-1.6,0.1-2.6-0.1l-0.5-0.1l-0.4-0.1
		v6.9c0,0.2-0.1,0.4-0.2,0.5c-0.1,0.2-0.3,0.2-0.4,0.3c-0.2,0.1-0.5,0.1-0.9,0.1s-0.6,0-0.8-0.1c-0.3-0.1-0.4-0.4-0.4-0.8v-25
		c0-1.4,0.7-2.1,2.2-2.1h6c0.6,0,1.1,0.2,1.3,0.6c0.2,0.4,0.3,0.9,0.1,1.5c-0.1,0.4-0.3,0.9-0.6,1.5c-0.3,0.7-0.6,1.3-0.9,2
		l-1.2,2.5c-0.1,0.3-0.1,0.5-0.1,0.7s0.1,0.3,0.2,0.5c0.8,1.1,1.3,2.1,1.8,3.2C307.9,22.8,308.1,23.9,308.2,25.1L308.2,25.1z
		 M305.2,26.6c0.2-0.8,0.2-1.9,0-3.2c-0.2-1.3-0.7-2.8-1.4-4.7c-0.2-0.4-0.3-0.9-0.1-1.5c0-0.2,0.1-0.6,0.3-1.1
		c0.2-0.6,0.3-1.2,0.5-1.9s0.4-1.6,0.7-2.6c0-0.4-0.1-0.6-0.5-0.6h-2.4c-0.3,0-0.4,0.1-0.5,0.2c-0.1,0.1-0.1,0.3-0.1,0.6v16.1
		c0.2-0.1,0.4-0.2,0.7-0.1c0.2,0,0.4,0,0.8,0s0.7,0,0.9-0.1C304.7,27.7,305.1,27.3,305.2,26.6L305.2,26.6z M326.5,34.3
		c0.3,0.2,0.4,0.4,0.5,0.7s0,0.5-0.1,0.7c-0.2,0.3-0.3,0.5-0.5,0.6c-0.2,0.2-0.4,0.4-0.7,0.6c-0.2,0.1-0.5,0.2-0.8,0.2
		s-0.7-0.1-1.2-0.4c-1.3-0.8-2.5-1.7-3.4-2.7c-1-1-1.8-2-2.5-3c-0.7-1.1-1.3-2.1-1.8-3.2s-0.9-2.2-1.2-3.3c-0.1-0.2-0.1-0.4,0-0.6
		c0-0.2,0.2-0.4,0.4-0.5h0.1h-2.4v10c0.4-0.1,0.7-0.2,0.9-0.2s0.5-0.1,0.7-0.2c0.2-0.1,0.5-0.1,0.7-0.2c0.2-0.1,0.5-0.1,0.8-0.2
		c0.5-0.2,0.9-0.1,1.1,0.1c0.2,0.2,0.3,0.5,0.4,0.8c0,0.2,0,0.4-0.1,0.6c-0.1,0.2-0.3,0.4-0.5,0.5c-0.4,0.2-0.9,0.5-1.6,0.8
		c-0.6,0.3-1.3,0.5-2,0.8c-0.7,0.2-1.4,0.5-2.1,0.7s-1.3,0.4-1.8,0.5c-0.2,0-0.4,0-0.7-0.1c-0.2-0.1-0.4-0.3-0.5-0.5
		c-0.1-0.1-0.1-0.4-0.2-0.7s-0.1-0.7-0.1-0.9s0.1-0.3,0.2-0.5c0.1-0.1,0.3-0.2,0.5-0.3l1.2-0.2V11.4c0-1.4,0.7-2,2.2-2h11.1
		c1.5,0,2.2,0.7,2.2,2v9.7c0,1.5-0.7,2.2-2.2,2.2h-6.7c0.1,0.1,0.2,0.3,0.3,0.5c0.4,1,0.8,1.9,1.2,2.7c0.4,0.7,0.8,1.4,1.2,2
		c1-0.7,1.9-1.4,2.7-2c0.9-0.7,1.6-1.2,2.3-1.8c0.2-0.2,0.5-0.2,0.7-0.2c0.3,0,0.5,0.1,0.6,0.3c0.2,0.2,0.3,0.3,0.5,0.5
		c0.1,0.2,0.3,0.5,0.4,0.8c0.1,0.2,0.1,0.5,0,0.7c-0.1,0.3-0.2,0.5-0.4,0.6c-0.4,0.2-0.8,0.5-1.3,0.7c-0.5,0.3-1,0.5-1.5,0.7
		s-1,0.5-1.5,0.7s-1,0.4-1.3,0.5c0.7,0.8,1.6,1.5,2.6,2.2C323.9,32.8,325.1,33.5,326.5,34.3L326.5,34.3z M312.8,15.2h9.7v-3.1
		c0-0.5-0.2-0.7-0.7-0.7h-8.4c-0.2,0-0.4,0.1-0.5,0.2c-0.1,0.1-0.1,0.3-0.1,0.6V15.2L312.8,15.2z M321.7,21.3c0.5,0,0.7-0.3,0.7-0.8
		v-3.3h-9.7v3.3v0.8H321.7L321.7,21.3z"/>
	<path d="M337.2,17.5c-1,1.6-1.9,2.9-2.7,4c-0.9,1.1-1.6,1.8-2.1,2.2c-0.2,0.2-0.4,0.3-0.6,0.3c-0.2,0.1-0.4,0.1-0.6,0
		s-0.3-0.1-0.4-0.2s-0.2-0.2-0.3-0.3c-0.1-0.2-0.1-0.3-0.1-0.5s0.1-0.3,0.2-0.5c1.4-1.9,2.6-3.8,3.6-5.8s1.8-4,2.4-6.2
		c0.2-0.6,0.6-0.9,1.2-0.9c0.1,0,0.3,0,0.4,0.1c0.2,0,0.3,0.1,0.5,0.1c0.2,0.1,0.3,0.1,0.5,0.2c0.1,0.1,0.2,0.1,0.3,0.2
		c0.2,0.1,0.3,0.3,0.4,0.5s0.1,0.5,0,0.8c-0.3,1.1-0.7,2.1-1.2,3C338.4,15.5,337.8,16.5,337.2,17.5L337.2,17.5z M350.7,25.3
		c0.5,0.5,1,1.1,1.6,1.9c0.6,0.7,1.2,1.5,1.8,2.4c0.6,0.9,1.2,1.8,1.7,2.7c0.5,0.9,1,1.8,1.4,2.7c0.1,0.3,0.1,0.6,0,0.8
		c-0.1,0.3-0.3,0.5-0.4,0.6c-0.5,0.4-1,0.6-1.7,0.7c-0.2,0-0.5,0-0.7-0.1s-0.4-0.3-0.6-0.6c-0.2-0.4-0.4-0.9-0.6-1.3
		c-0.2-0.4-0.4-0.8-0.6-1.2c-0.4,0.1-1.1,0.3-2,0.5c-0.8,0.2-1.8,0.4-2.9,0.6c-1.1,0.2-2.3,0.4-3.5,0.6c-1.3,0.2-2.5,0.4-3.8,0.5
		c-1.3,0.2-2.5,0.3-3.7,0.4c-1.2,0.1-2.2,0.2-3.2,0.2c-0.3,0-0.5-0.1-0.8-0.2c-0.3-0.1-0.4-0.3-0.4-0.6c-0.1-0.3-0.1-0.5-0.1-0.8
		c0-0.2,0-0.5,0-0.7c0-0.3,0.1-0.5,0.3-0.7c0.2-0.2,0.4-0.3,0.7-0.3c0,0,0.2,0,0.4,0c0.2,0,0.5,0,0.9,0c0.3-0.4,0.6-1.1,1.1-2
		s1-1.9,1.6-3.1s1.2-2.4,1.9-3.8c0.6-1.3,1.2-2.7,1.8-4c0.1-0.2,0.3-0.4,0.5-0.6s0.5-0.2,0.8-0.2s0.6,0.1,1,0.2s0.6,0.2,0.8,0.3
		c0.2,0.1,0.3,0.3,0.4,0.6c0.1,0.3,0.1,0.6-0.1,0.9c-0.5,1.1-1,2.1-1.6,3.2c-0.6,1-1.2,2-1.8,3c-0.6,1-1.2,1.9-1.9,2.8
		c-0.6,0.9-1.2,1.7-1.9,2.5c0.8,0,1.5-0.1,2.4-0.1c0.8,0,1.7-0.1,2.5-0.2c1.9-0.1,3.7-0.3,5.3-0.5c1.7-0.2,3-0.3,4-0.5
		c-0.5-0.9-1-1.8-1.4-2.7c-0.5-0.9-1-1.8-1.5-2.7c-0.1-0.2-0.2-0.4-0.2-0.6s0.1-0.4,0.2-0.5c0.2-0.2,0.3-0.3,0.4-0.4
		s0.3-0.1,0.4-0.2C349.9,24.8,350.4,24.9,350.7,25.3L350.7,25.3z M358.5,21c0.2,0.2,0.3,0.4,0.4,0.7c0.1,0.3,0.1,0.6-0.1,0.8
		c-0.2,0.3-0.5,0.6-0.8,0.8c-0.3,0.2-0.6,0.4-0.8,0.5c-0.2,0.1-0.4,0.1-0.7,0.1c-0.3,0-0.6-0.1-0.8-0.3c-0.6-0.4-1.4-1.2-2.2-2.3
		c-0.9-1.1-1.7-2.4-2.5-3.9c-0.4-0.7-0.8-1.6-1-2.5c-0.3-1-0.5-1.9-0.8-2.8c-0.2-0.7-0.5-1-1-1h-2c-0.2,0-0.4,0-0.5-0.1
		s-0.2-0.1-0.3-0.2c-0.1-0.1-0.2-0.3-0.2-0.6s0-0.6,0-0.7c0.1-0.3,0.5-0.5,1-0.5h2.7c1.3,0,2.2,0.7,2.7,2.1c0.4,1.1,0.9,2.1,1.3,3
		s0.9,1.7,1.4,2.5c0.5,0.8,1.1,1.5,1.8,2.2C356.7,19.5,357.5,20.2,358.5,21L358.5,21z"/>
	<path d="M383.6,14.8c0.1,0.4,0.1,0.8,0,1.3c0,0.2-0.2,0.3-0.4,0.3c-0.2,0.1-0.4,0.1-0.6,0.1h-18c-0.5,0-0.8-0.2-1-0.6
		c-0.2-0.3-0.1-0.7,0-1.1c0.1-0.3,0.4-0.5,0.9-0.5h18c0.3,0,0.5,0,0.7,0.1C383.4,14.5,383.5,14.6,383.6,14.8L383.6,14.8z M386.9,9.3
		c1.8,0,2.7,0.9,2.7,2.7v20.7c0,1.5-0.4,2.6-1.2,3.3c-0.8,0.7-2,1-3.7,1c-0.9,0-1.7-0.1-2.5-0.2c-0.8-0.2-1.4-0.3-2-0.6
		c-0.3-0.1-0.5-0.2-0.6-0.4s-0.2-0.4-0.2-0.7c0-0.2,0.1-0.4,0.2-0.7c0.2-0.3,0.4-0.5,0.9-0.5c1.4,0.1,2.7,0.2,3.7,0.2
		c1.4,0,2.1-0.7,2.1-1.9V12.9c0-0.9-0.4-1.3-1.2-1.3h-19.8c-0.3,0-0.5,0-0.6-0.1c-0.2-0.1-0.3-0.2-0.4-0.4c-0.1-0.1-0.1-0.3-0.1-0.6
		s0-0.5,0-0.6c0.1-0.4,0.5-0.6,1.1-0.6L386.9,9.3L386.9,9.3z M379.4,19.3c1.8,0,2.7,0.8,2.7,2.6v6.5c0,1.8-0.9,2.7-2.7,2.7h-11.9
		c-1.8,0-2.7-0.9-2.7-2.7v-6.5c0-1.7,0.9-2.6,2.7-2.6H379.4L379.4,19.3z M379,27.7v-5.2c0-0.8-0.4-1.1-1.1-1.1H369
		c-0.7,0-1.1,0.4-1.1,1.1v5.2c0,0.8,0.4,1.2,1.1,1.2h8.9C378.6,28.9,379,28.5,379,27.7L379,27.7z"/>
	<path d="M78.7,50.8c0,0.5-0.1,1-0.4,1.4s-0.7,0.8-1.2,1s-1.2,0.4-1.9,0.4c-0.9,0-1.6-0.2-2.2-0.5c-0.4-0.2-0.7-0.6-1-0.9
		c-0.3-0.4-0.4-0.8-0.4-1.2c0-0.2,0.1-0.4,0.2-0.6c0.2-0.2,0.3-0.2,0.6-0.2c0.2,0,0.3,0.1,0.5,0.2c0.1,0.1,0.2,0.3,0.3,0.5
		c0.1,0.3,0.2,0.5,0.4,0.7c0.1,0.2,0.3,0.3,0.5,0.5c0.2,0.1,0.5,0.2,0.9,0.2c0.5,0,1-0.1,1.3-0.4c0.3-0.2,0.5-0.6,0.5-0.9
		c0-0.3-0.1-0.5-0.3-0.7c-0.2-0.2-0.4-0.3-0.7-0.4c-0.3-0.1-0.7-0.2-1.1-0.3c-0.6-0.1-1.2-0.3-1.6-0.5s-0.8-0.5-1-0.8
		c-0.3-0.3-0.4-0.8-0.4-1.3s0.1-0.9,0.4-1.3c0.3-0.4,0.6-0.7,1.1-0.9s1.1-0.3,1.8-0.3c0.5,0,1,0.1,1.4,0.2c0.4,0.1,0.7,0.3,1,0.5
		s0.4,0.5,0.6,0.7s0.2,0.5,0.2,0.7S78.1,47,78,47.2c-0.2,0.2-0.3,0.3-0.6,0.3c-0.2,0-0.4-0.1-0.5-0.2c-0.1-0.1-0.2-0.3-0.3-0.5
		c-0.2-0.3-0.4-0.6-0.6-0.8s-0.6-0.3-1.1-0.3s-0.8,0.1-1.1,0.3c-0.3,0.2-0.4,0.4-0.4,0.7c0,0.2,0,0.3,0.1,0.5
		c0.1,0.1,0.2,0.2,0.4,0.3c0.2,0.1,0.3,0.2,0.5,0.2s0.5,0.1,0.9,0.2c0.5,0.1,0.9,0.2,1.3,0.4s0.7,0.3,1,0.5s0.5,0.5,0.7,0.8
		C78.7,50,78.8,50.3,78.7,50.8L78.7,50.8z"/>
	<path d="M86.3,50h-1.6v2.5c0,0.4-0.1,0.6-0.3,0.8c-0.2,0.2-0.4,0.3-0.6,0.3c-0.3,0-0.5-0.1-0.6-0.3C83,53.1,83,52.8,83,52.5v-6.8
		c0-0.4,0.1-0.7,0.3-0.8c0.2-0.2,0.5-0.3,0.9-0.3h2.3c0.7,0,1.2,0.1,1.6,0.2c0.4,0.1,0.7,0.3,0.9,0.5c0.3,0.2,0.5,0.5,0.6,0.9
		c0.1,0.3,0.2,0.7,0.2,1.1c0,0.9-0.3,1.6-0.8,2C88.3,49.7,87.4,50,86.3,50L86.3,50z M85.9,45.9h-1.2v2.7h1.2c0.4,0,0.8,0,1.1-0.1
		c0.3-0.1,0.5-0.2,0.6-0.4s0.2-0.5,0.2-0.8c0-0.4-0.1-0.7-0.3-0.9C87.2,46.1,86.7,45.9,85.9,45.9z"/>
	<path d="M99.6,46h-4v2.1h3.7c0.3,0,0.5,0.1,0.6,0.2c0.1,0.1,0.2,0.3,0.2,0.5s-0.1,0.4-0.2,0.5s-0.3,0.2-0.6,0.2h-3.7V52h4.1
		c0.3,0,0.5,0.1,0.6,0.2c0.1,0.1,0.2,0.3,0.2,0.5s-0.1,0.4-0.2,0.5s-0.4,0.2-0.6,0.2h-4.8c-0.4,0-0.7-0.1-0.8-0.3
		c-0.2-0.2-0.3-0.5-0.3-0.8v-6.6c0-0.3,0-0.5,0.1-0.6c0.1-0.2,0.2-0.3,0.4-0.4c0.2-0.1,0.4-0.1,0.6-0.1h4.7c0.3,0,0.5,0.1,0.6,0.2
		c0.1,0.1,0.2,0.3,0.2,0.5s-0.1,0.4-0.2,0.5C100.1,45.9,99.9,46,99.6,46L99.6,46z"/>
	<path d="M110.5,46h-4v2.1h3.7c0.3,0,0.5,0.1,0.6,0.2c0.1,0.1,0.2,0.3,0.2,0.5s-0.1,0.4-0.2,0.5s-0.3,0.2-0.6,0.2h-3.7V52h4.1
		c0.3,0,0.5,0.1,0.6,0.2c0.1,0.1,0.2,0.3,0.2,0.5s-0.1,0.4-0.2,0.5s-0.3,0.2-0.6,0.2h-4.8c-0.4,0-0.7-0.1-0.8-0.3
		c-0.2-0.2-0.3-0.5-0.3-0.8v-6.6c0-0.3,0-0.5,0.1-0.6c0.1-0.2,0.2-0.3,0.4-0.4c0.2-0.1,0.4-0.1,0.6-0.1h4.7c0.3,0,0.5,0.1,0.6,0.2
		c0.1,0.1,0.2,0.3,0.2,0.5s-0.1,0.4-0.2,0.5C111,45.9,110.8,46,110.5,46L110.5,46z"/>
	<path d="M116.7,44.6h2.3c0.6,0,1.1,0.1,1.6,0.2c0.4,0.1,0.8,0.3,1.2,0.6c0.9,0.8,1.4,2,1.4,3.6c0,0.5,0,1-0.1,1.4s-0.2,0.8-0.4,1.2
		c-0.2,0.4-0.4,0.7-0.7,0.9c-0.2,0.2-0.5,0.4-0.8,0.5s-0.6,0.2-0.9,0.3s-0.7,0.1-1.1,0.1h-2.3c-0.3,0-0.6,0-0.7-0.1
		c-0.2-0.1-0.3-0.2-0.3-0.4s-0.1-0.4-0.1-0.7v-6.5c0-0.4,0.1-0.7,0.3-0.8C116,44.7,116.3,44.6,116.7,44.6L116.7,44.6z M117.4,46v6
		h1.4c0.3,0,0.5,0,0.7,0s0.3-0.1,0.5-0.1c0.2-0.1,0.3-0.2,0.5-0.3c0.6-0.5,0.9-1.4,0.9-2.6c0-0.9-0.1-1.5-0.4-2
		c-0.3-0.4-0.6-0.7-1-0.8s-0.8-0.2-1.4-0.2L117.4,46L117.4,46z"/>
	<path d="M127.4,52.5v-6.9c0-0.4,0.1-0.6,0.2-0.8c0.2-0.2,0.4-0.3,0.6-0.3c0.3,0,0.5,0.1,0.6,0.3c0.2,0.2,0.3,0.5,0.3,0.8v6.9
		c0,0.4-0.1,0.6-0.3,0.8s-0.4,0.3-0.6,0.3s-0.5-0.1-0.6-0.3S127.4,52.9,127.4,52.5L127.4,52.5z"/>
	<path d="M136.2,45.5l3.4,5.2v-5.2c0-0.3,0.1-0.6,0.2-0.8c0.1-0.2,0.3-0.3,0.6-0.3c0.2,0,0.5,0.1,0.6,0.3s0.2,0.4,0.2,0.8v6.9
		c0,0.8-0.3,1.2-1,1.2c-0.2,0-0.3,0-0.4-0.1c-0.1,0-0.3-0.1-0.4-0.2c-0.1-0.1-0.2-0.2-0.3-0.4c-0.1-0.1-0.2-0.3-0.3-0.4l-3.3-5.1
		v5.2c0,0.3-0.1,0.6-0.2,0.8c-0.2,0.2-0.4,0.3-0.6,0.3s-0.4-0.1-0.6-0.3c-0.2-0.2-0.2-0.4-0.2-0.8v-6.8c0-0.3,0-0.5,0.1-0.7
		s0.2-0.3,0.4-0.4c0.2-0.1,0.4-0.2,0.6-0.2c0.2,0,0.3,0,0.4,0.1c0.1,0.1,0.2,0.1,0.3,0.2c0.1,0.1,0.2,0.2,0.3,0.3
		C136,45.2,136.1,45.4,136.2,45.5L136.2,45.5z"/>
	<path d="M153.9,49.8v1.7c0,0.2,0,0.4-0.1,0.5c0,0.1-0.1,0.3-0.2,0.4c-0.1,0.1-0.3,0.2-0.4,0.3c-0.5,0.3-1,0.5-1.5,0.6
		s-1,0.2-1.6,0.2c-0.7,0-1.3-0.1-1.8-0.3c-0.6-0.2-1-0.5-1.4-0.9s-0.7-0.9-0.9-1.4c-0.2-0.6-0.3-1.2-0.3-1.9s0.1-1.3,0.3-1.9
		c0.2-0.6,0.5-1.1,0.9-1.5s0.9-0.7,1.4-0.9c0.6-0.2,1.2-0.3,1.9-0.3c0.6,0,1.1,0.1,1.6,0.2c0.5,0.2,0.8,0.4,1.1,0.6
		c0.3,0.2,0.5,0.5,0.6,0.8s0.2,0.5,0.2,0.7s-0.1,0.4-0.3,0.6c-0.2,0.2-0.4,0.2-0.6,0.2c-0.1,0-0.3,0-0.4-0.1
		c-0.1-0.1-0.2-0.1-0.3-0.3c-0.2-0.3-0.4-0.6-0.6-0.8c-0.2-0.2-0.4-0.3-0.6-0.4c-0.3-0.1-0.6-0.2-1-0.2s-0.8,0.1-1.1,0.2
		c-0.3,0.1-0.6,0.4-0.8,0.6c-0.2,0.3-0.4,0.6-0.5,1s-0.2,0.8-0.2,1.3c0,1,0.2,1.8,0.7,2.4c0.5,0.6,1.1,0.8,2,0.8
		c0.4,0,0.8-0.1,1.2-0.2c0.4-0.1,0.7-0.3,1.1-0.5v-1.2h-1.4c-0.3,0-0.6-0.1-0.8-0.2c-0.2-0.1-0.3-0.3-0.3-0.5s0.1-0.4,0.2-0.5
		c0.1-0.1,0.3-0.2,0.6-0.2h2c0.3,0,0.5,0,0.6,0.1c0.2,0,0.3,0.1,0.4,0.3C153.9,49.3,153.9,49.5,153.9,49.8L153.9,49.8z"/>
	<path d="M166.5,49.7h-0.6v2.8c0,0.4-0.1,0.7-0.2,0.8c-0.2,0.2-0.4,0.3-0.6,0.3c-0.3,0-0.5-0.1-0.7-0.3s-0.2-0.5-0.2-0.8v-6.8
		c0-0.4,0.1-0.7,0.3-0.8c0.2-0.2,0.4-0.3,0.8-0.3h2.9c0.4,0,0.7,0,1,0.1c0.3,0,0.5,0.1,0.8,0.2c0.3,0.1,0.5,0.3,0.7,0.5
		s0.4,0.5,0.5,0.8s0.2,0.6,0.2,0.9c0,0.7-0.2,1.2-0.6,1.6c-0.4,0.4-0.9,0.7-1.7,0.8c0.3,0.2,0.6,0.4,0.9,0.7c0.3,0.3,0.5,0.7,0.8,1
		c0.2,0.4,0.4,0.7,0.5,1s0.2,0.5,0.2,0.6s0,0.2-0.1,0.3s-0.2,0.2-0.3,0.3s-0.3,0.1-0.4,0.1c-0.2,0-0.4,0-0.5-0.1s-0.3-0.2-0.4-0.4
		c-0.1-0.1-0.2-0.4-0.4-0.6l-0.7-1.2c-0.3-0.4-0.5-0.8-0.7-1s-0.4-0.4-0.6-0.5C167,49.7,166.8,49.6,166.5,49.7L166.5,49.7z
		 M167.5,46h-1.6v2.4h1.6c0.4,0,0.8,0,1.1-0.1s0.5-0.2,0.7-0.4s0.2-0.4,0.2-0.7c0-0.2-0.1-0.5-0.2-0.7c-0.1-0.2-0.3-0.3-0.5-0.4
		C168.5,46,168.1,46,167.5,46L167.5,46z"/>
	<path d="M179.5,44.5c0.9,0,1.7,0.2,2.3,0.6c0.7,0.4,1.2,0.9,1.5,1.6c0.3,0.7,0.5,1.5,0.5,2.4c0,0.7-0.1,1.3-0.3,1.9
		c-0.2,0.6-0.5,1-0.8,1.4c-0.4,0.4-0.8,0.7-1.4,0.9c-0.5,0.2-1.2,0.3-1.8,0.3s-1.3-0.1-1.8-0.3s-1-0.5-1.4-0.9s-0.6-0.9-0.8-1.5
		s-0.3-1.2-0.3-1.8c0-0.7,0.1-1.3,0.3-1.9c0.2-0.6,0.5-1,0.8-1.4s0.8-0.7,1.3-0.9C178.2,44.6,178.8,44.5,179.5,44.5L179.5,44.5z
		 M182,49c0-0.6-0.1-1.2-0.3-1.7s-0.5-0.8-0.9-1.1c-0.4-0.2-0.8-0.4-1.3-0.4c-0.4,0-0.7,0.1-1,0.2c-0.3,0.1-0.6,0.3-0.8,0.6
		s-0.4,0.6-0.5,1s-0.2,0.8-0.2,1.3s0.1,1,0.2,1.4c0.1,0.4,0.3,0.7,0.5,1s0.5,0.5,0.8,0.6s0.6,0.2,1,0.2c0.5,0,0.9-0.1,1.3-0.3
		s0.7-0.6,0.9-1.1C181.9,50.3,182,49.7,182,49L182,49z"/>
	<path d="M195.5,50.6c0,0.3-0.1,0.6-0.2,0.9c-0.1,0.3-0.4,0.7-0.6,1c-0.3,0.3-0.7,0.6-1.1,0.8c-0.5,0.2-1,0.3-1.6,0.3
		c-0.5,0-0.9,0-1.3-0.1c-0.4-0.1-0.7-0.2-1-0.4s-0.6-0.4-0.9-0.7c-0.2-0.3-0.4-0.6-0.6-0.9c-0.2-0.3-0.3-0.7-0.4-1.1
		c-0.1-0.4-0.1-0.8-0.1-1.2c0-0.7,0.1-1.3,0.3-1.9c0.2-0.6,0.5-1,0.9-1.4s0.8-0.7,1.4-0.9c0.5-0.2,1.1-0.3,1.6-0.3
		c0.7,0,1.3,0.1,1.9,0.4c0.6,0.3,1,0.6,1.3,1.1c0.3,0.4,0.4,0.8,0.4,1.2c0,0.2-0.1,0.4-0.2,0.5c-0.1,0.2-0.3,0.2-0.5,0.2
		s-0.4-0.1-0.5-0.2s-0.2-0.3-0.4-0.6c-0.2-0.4-0.5-0.8-0.8-1s-0.7-0.3-1.2-0.3c-0.7,0-1.3,0.3-1.7,0.8c-0.4,0.6-0.6,1.3-0.6,2.4
		c0,0.7,0.1,1.3,0.3,1.7c0.2,0.5,0.5,0.8,0.8,1c0.4,0.2,0.8,0.3,1.2,0.3c0.5,0,0.9-0.1,1.3-0.4c0.4-0.3,0.6-0.6,0.8-1.1
		c0.1-0.2,0.2-0.4,0.3-0.6c0.1-0.1,0.3-0.2,0.5-0.2s0.4,0.1,0.5,0.2C195.4,50.2,195.5,50.4,195.5,50.6L195.5,50.6z"/>
	<path d="M201.6,45.5v3.1l3.5-3.7c0.2-0.2,0.3-0.3,0.4-0.4c0.1-0.1,0.3-0.1,0.5-0.1c0.3,0,0.5,0.1,0.6,0.2c0.2,0.2,0.2,0.3,0.2,0.6
		s-0.1,0.5-0.4,0.8l-2.2,2.1l2.5,3.6c0.2,0.3,0.3,0.5,0.4,0.7c0.1,0.2,0.1,0.4,0.1,0.5c0,0.2-0.1,0.4-0.2,0.5
		c-0.2,0.1-0.4,0.2-0.6,0.2c-0.3,0-0.4-0.1-0.6-0.2c-0.2-0.1-0.3-0.2-0.4-0.4c-0.1-0.2-0.2-0.3-0.3-0.5l-2.1-3.3l-1.5,1.4v1.8
		c0,0.4-0.1,0.6-0.3,0.8s-0.4,0.3-0.6,0.3c-0.2,0-0.3,0-0.4-0.1c-0.1-0.1-0.3-0.2-0.3-0.3c-0.1-0.1-0.1-0.2-0.1-0.4
		c0-0.1,0-0.4,0-0.6v-6.6c0-0.4,0.1-0.6,0.2-0.8c0.2-0.2,0.4-0.3,0.6-0.3c0.3,0,0.5,0.1,0.6,0.3C201.5,44.9,201.6,45.2,201.6,45.5
		L201.6,45.5z"/>
	<path d="M217.4,46h-4v2.1h3.7c0.3,0,0.5,0.1,0.6,0.2c0.1,0.1,0.2,0.3,0.2,0.5s-0.1,0.4-0.2,0.5c-0.1,0.1-0.3,0.2-0.6,0.2h-3.7V52
		h4.1c0.3,0,0.5,0.1,0.6,0.2c0.1,0.1,0.2,0.3,0.2,0.5s-0.1,0.4-0.2,0.5c-0.1,0.1-0.4,0.2-0.6,0.2h-4.8c-0.4,0-0.7-0.1-0.8-0.3
		c-0.2-0.2-0.3-0.5-0.3-0.8v-6.6c0-0.3,0-0.5,0.1-0.6c0.1-0.2,0.2-0.3,0.4-0.4c0.2-0.1,0.4-0.1,0.6-0.1h4.7c0.3,0,0.5,0.1,0.6,0.2
		c0.1,0.1,0.2,0.3,0.2,0.5s-0.1,0.4-0.2,0.5C217.8,45.9,217.6,46,217.4,46L217.4,46z"/>
	<path d="M228.1,46.1h-1.9v6.4c0,0.4-0.1,0.6-0.2,0.8c-0.2,0.2-0.4,0.3-0.6,0.3c-0.3,0-0.5-0.1-0.6-0.3c-0.2-0.2-0.3-0.5-0.3-0.8
		v-6.4h-1.9c-0.3,0-0.5-0.1-0.7-0.2c-0.1-0.1-0.2-0.3-0.2-0.5s0.1-0.4,0.2-0.5c0.2-0.1,0.4-0.2,0.7-0.2h5.7c0.3,0,0.5,0.1,0.7,0.2
		c0.2,0.1,0.2,0.3,0.2,0.5s-0.1,0.4-0.2,0.5C228.7,46,228.4,46.1,228.1,46.1L228.1,46.1z"/>
	<path d="M246.1,50.6c0,0.3-0.1,0.6-0.2,0.9c-0.1,0.3-0.4,0.7-0.6,1c-0.3,0.3-0.7,0.6-1.1,0.8c-0.5,0.2-1,0.3-1.6,0.3
		c-0.5,0-0.9,0-1.3-0.1c-0.4-0.1-0.7-0.2-1-0.4s-0.6-0.4-0.9-0.7c-0.2-0.3-0.4-0.6-0.6-0.9c-0.2-0.3-0.3-0.7-0.4-1.1
		c-0.1-0.4-0.1-0.8-0.1-1.2c0-0.7,0.1-1.3,0.3-1.9c0.2-0.6,0.5-1,0.9-1.4s0.8-0.7,1.3-0.9s1.1-0.3,1.6-0.3c0.7,0,1.4,0.1,1.9,0.4
		c0.6,0.3,1,0.6,1.3,1.1c0.3,0.4,0.4,0.8,0.4,1.2c0,0.2-0.1,0.4-0.2,0.5c-0.1,0.2-0.3,0.2-0.5,0.2s-0.4-0.1-0.5-0.2
		c-0.1-0.1-0.2-0.3-0.4-0.6c-0.2-0.4-0.5-0.8-0.8-1s-0.7-0.3-1.2-0.3c-0.7,0-1.3,0.3-1.7,0.8c-0.4,0.6-0.6,1.3-0.6,2.4
		c0,0.7,0.1,1.3,0.3,1.7c0.2,0.5,0.5,0.8,0.8,1c0.4,0.2,0.8,0.3,1.2,0.3c0.5,0,0.9-0.1,1.3-0.4c0.4-0.3,0.6-0.6,0.8-1.1
		c0.1-0.2,0.2-0.4,0.3-0.6c0.1-0.1,0.3-0.2,0.5-0.2s0.4,0.1,0.5,0.2C246,50.2,246.1,50.4,246.1,50.6L246.1,50.6z"/>
	<path d="M254.2,44.5c0.9,0,1.7,0.2,2.3,0.6c0.7,0.4,1.2,0.9,1.5,1.6c0.3,0.7,0.5,1.5,0.5,2.4c0,0.7-0.1,1.3-0.3,1.9
		c-0.2,0.6-0.5,1-0.8,1.4c-0.4,0.4-0.8,0.7-1.4,0.9c-0.5,0.2-1.2,0.3-1.8,0.3s-1.3-0.1-1.8-0.3s-1-0.5-1.4-0.9s-0.6-0.9-0.8-1.5
		s-0.3-1.2-0.3-1.8c0-0.7,0.1-1.3,0.3-1.9c0.2-0.6,0.5-1,0.8-1.4s0.8-0.7,1.3-0.9C252.9,44.6,253.5,44.5,254.2,44.5L254.2,44.5z
		 M256.7,49c0-0.6-0.1-1.2-0.3-1.7c-0.2-0.5-0.5-0.8-0.9-1.1c-0.4-0.2-0.8-0.4-1.3-0.4c-0.4,0-0.7,0.1-1,0.2
		c-0.3,0.1-0.6,0.3-0.8,0.6s-0.4,0.6-0.5,1s-0.2,0.8-0.2,1.3s0.1,1,0.2,1.4c0.1,0.4,0.3,0.7,0.5,1s0.5,0.5,0.8,0.6s0.6,0.2,1,0.2
		c0.5,0,0.9-0.1,1.3-0.3c0.4-0.2,0.7-0.6,0.9-1.1C256.6,50.3,256.7,49.7,256.7,49L256.7,49z"/>
	<path d="M265.7,52.1l-1.4-5.6v6.1c0,0.3-0.1,0.6-0.2,0.8c-0.2,0.2-0.4,0.3-0.6,0.3s-0.4-0.1-0.6-0.3s-0.2-0.4-0.2-0.8v-7
		c0-0.4,0.1-0.6,0.3-0.8c0.2-0.1,0.5-0.2,0.8-0.2h0.5c0.3,0,0.6,0,0.7,0.1c0.2,0.1,0.3,0.2,0.3,0.3c0.1,0.2,0.2,0.4,0.2,0.8l1.3,4.8
		l1.3-4.8c0.1-0.4,0.2-0.6,0.2-0.8c0.1-0.2,0.2-0.3,0.3-0.3c0.2-0.1,0.4-0.1,0.7-0.1h0.5c0.3,0,0.6,0.1,0.8,0.2
		c0.2,0.1,0.3,0.4,0.3,0.8v7c0,0.3-0.1,0.6-0.2,0.8c-0.2,0.2-0.4,0.3-0.6,0.3s-0.4-0.1-0.6-0.3s-0.2-0.4-0.2-0.8v-6.1l-1.4,5.6
		c-0.1,0.4-0.2,0.6-0.2,0.8c-0.1,0.2-0.2,0.3-0.3,0.5c-0.2,0.1-0.4,0.2-0.6,0.2s-0.4,0-0.5-0.1s-0.3-0.2-0.3-0.3
		c-0.1-0.1-0.1-0.3-0.2-0.5C265.8,52.4,265.8,52.3,265.7,52.1L265.7,52.1z"/>
	<path d="M279.1,50h-1.6v2.5c0,0.4-0.1,0.6-0.3,0.8c-0.2,0.2-0.4,0.3-0.6,0.3c-0.3,0-0.5-0.1-0.6-0.3c-0.2-0.2-0.2-0.5-0.2-0.8v-6.8
		c0-0.4,0.1-0.7,0.3-0.8c0.2-0.2,0.5-0.3,0.9-0.3h2.3c0.7,0,1.2,0.1,1.6,0.2c0.4,0.1,0.7,0.3,0.9,0.5c0.3,0.2,0.5,0.5,0.6,0.9
		c0.1,0.3,0.2,0.7,0.2,1.1c0,0.9-0.3,1.6-0.8,2C281,49.7,280.2,50,279.1,50L279.1,50z M278.7,45.9h-1.2v2.7h1.2c0.4,0,0.8,0,1.1-0.1
		c0.3-0.1,0.5-0.2,0.6-0.4s0.2-0.5,0.2-0.8c0-0.4-0.1-0.7-0.3-0.9C280,46.1,279.5,45.9,278.7,45.9L278.7,45.9z"/>
	<path d="M291.1,52.4l-0.4-1.1h-3.6l-0.4,1.1c-0.2,0.4-0.3,0.7-0.4,0.9s-0.3,0.2-0.6,0.2c-0.2,0-0.4-0.1-0.6-0.2
		c-0.2-0.2-0.3-0.4-0.3-0.6c0-0.1,0-0.2,0.1-0.4c0-0.1,0.1-0.3,0.2-0.5l2.2-5.7c0.1-0.2,0.1-0.4,0.2-0.6c0.1-0.2,0.2-0.4,0.3-0.6
		c0.1-0.2,0.2-0.3,0.4-0.4c0.2-0.1,0.4-0.1,0.6-0.1s0.5,0,0.6,0.1s0.3,0.2,0.4,0.4c0.1,0.1,0.2,0.3,0.3,0.5c0.1,0.2,0.2,0.4,0.3,0.7
		l2.3,5.7c0.2,0.4,0.3,0.7,0.3,0.9s-0.1,0.4-0.3,0.6c-0.2,0.2-0.4,0.3-0.6,0.3c-0.1,0-0.3,0-0.4-0.1s-0.2-0.1-0.3-0.2
		c-0.1-0.1-0.1-0.2-0.2-0.4C291.2,52.7,291.2,52.6,291.1,52.4L291.1,52.4z M287.6,50h2.6l-1.3-3.6L287.6,50L287.6,50z"/>
	<path d="M299.3,45.5l3.4,5.2v-5.2c0-0.3,0.1-0.6,0.2-0.8s0.3-0.3,0.6-0.3c0.2,0,0.5,0.1,0.6,0.3s0.2,0.4,0.2,0.8v6.9
		c0,0.8-0.3,1.2-1,1.2c-0.2,0-0.3,0-0.4-0.1c-0.1,0-0.3-0.1-0.4-0.2c-0.1-0.1-0.2-0.2-0.3-0.4c-0.1-0.1-0.2-0.3-0.3-0.4l-3.3-5.1
		v5.2c0,0.3-0.1,0.6-0.2,0.8c-0.2,0.2-0.4,0.3-0.6,0.3s-0.4-0.1-0.6-0.3S297,53,297,52.6v-6.8c0-0.3,0-0.5,0.1-0.7s0.2-0.3,0.4-0.4
		c0.2-0.1,0.4-0.2,0.6-0.2s0.3,0,0.4,0.1s0.2,0.1,0.3,0.2c0.1,0.1,0.2,0.2,0.3,0.3C299.1,45.2,299.2,45.4,299.3,45.5L299.3,45.5z"/>
	<path d="M311,52.5v-2.8l-2.2-3.3c-0.2-0.3-0.3-0.5-0.4-0.7s-0.1-0.3-0.1-0.4c0-0.2,0.1-0.4,0.2-0.5c0.2-0.1,0.4-0.2,0.6-0.2
		s0.4,0.1,0.6,0.2c0.1,0.1,0.3,0.4,0.6,0.8l1.6,2.7l1.7-2.7c0.1-0.2,0.2-0.3,0.3-0.4c0.1-0.1,0.1-0.2,0.2-0.3s0.2-0.2,0.3-0.2
		c0.1-0.1,0.2-0.1,0.4-0.1c0.2,0,0.4,0.1,0.6,0.2c0.2,0.1,0.2,0.3,0.2,0.5s0,0.3-0.1,0.5s-0.2,0.4-0.4,0.7l-2.2,3.4v2.8
		c0,0.4-0.1,0.6-0.3,0.8c-0.2,0.2-0.4,0.3-0.6,0.3c-0.3,0-0.5-0.1-0.6-0.3C311.1,53.1,311,52.9,311,52.5L311,52.5z"/>
	<path d="M326.9,45.5v6.4h3.6c0.3,0,0.5,0.1,0.7,0.2c0.2,0.1,0.2,0.3,0.2,0.5s-0.1,0.4-0.2,0.5c-0.2,0.1-0.4,0.2-0.7,0.2h-4.3
		c-0.4,0-0.7-0.1-0.8-0.3c-0.2-0.2-0.3-0.5-0.3-0.8v-6.8c0-0.4,0.1-0.6,0.2-0.8c0.2-0.2,0.4-0.3,0.6-0.3c0.3,0,0.5,0.1,0.6,0.3
		C326.8,44.9,326.9,45.2,326.9,45.5L326.9,45.5z"/>
	<path d="M335.3,52.5v-6.9c0-0.4,0.1-0.6,0.2-0.8c0.2-0.2,0.4-0.3,0.6-0.3c0.3,0,0.5,0.1,0.6,0.3c0.2,0.2,0.3,0.5,0.3,0.8v6.9
		c0,0.4-0.1,0.6-0.3,0.8c-0.2,0.2-0.4,0.3-0.6,0.3c-0.3,0-0.5-0.1-0.6-0.3S335.3,52.9,335.3,52.5L335.3,52.5z"/>
	<path d="M344.7,52.1l-1.4-5.6v6.1c0,0.3-0.1,0.6-0.2,0.8c-0.2,0.2-0.4,0.3-0.6,0.3s-0.4-0.1-0.6-0.3s-0.2-0.4-0.2-0.8v-7
		c0-0.4,0.1-0.6,0.3-0.8s0.5-0.2,0.8-0.2h0.5c0.3,0,0.6,0,0.7,0.1c0.2,0.1,0.3,0.2,0.3,0.3c0.1,0.2,0.2,0.4,0.2,0.8l1.3,4.8l1.3-4.8
		c0.1-0.4,0.2-0.6,0.2-0.8c0.1-0.2,0.2-0.3,0.3-0.3c0.2-0.1,0.4-0.1,0.7-0.1h0.5c0.3,0,0.6,0.1,0.8,0.2c0.2,0.1,0.3,0.4,0.3,0.8v7
		c0,0.3-0.1,0.6-0.2,0.8c-0.2,0.2-0.4,0.3-0.6,0.3s-0.4-0.1-0.6-0.3s-0.2-0.4-0.2-0.8v-6.1l-1.4,5.6c-0.1,0.4-0.2,0.6-0.2,0.8
		c-0.1,0.2-0.2,0.3-0.3,0.5c-0.2,0.1-0.4,0.2-0.6,0.2s-0.4,0-0.5-0.1s-0.3-0.2-0.3-0.3c-0.1-0.1-0.1-0.3-0.2-0.5
		C344.8,52.4,344.8,52.3,344.7,52.1L344.7,52.1z"/>
	<path d="M354.8,52.5v-6.9c0-0.4,0.1-0.6,0.2-0.8c0.2-0.2,0.4-0.3,0.6-0.3c0.3,0,0.5,0.1,0.6,0.3c0.2,0.2,0.3,0.5,0.3,0.8v6.9
		c0,0.4-0.1,0.6-0.3,0.8c-0.2,0.2-0.4,0.3-0.6,0.3s-0.5-0.1-0.6-0.3S354.8,52.9,354.8,52.5L354.8,52.5z"/>
	<path d="M366.9,46.1H365v6.4c0,0.4-0.1,0.6-0.2,0.8c-0.2,0.2-0.4,0.3-0.6,0.3c-0.3,0-0.5-0.1-0.6-0.3c-0.2-0.2-0.3-0.5-0.3-0.8
		v-6.4h-1.9c-0.3,0-0.5-0.1-0.7-0.2c-0.1-0.1-0.2-0.3-0.2-0.5s0.1-0.4,0.2-0.5c0.2-0.1,0.4-0.2,0.7-0.2h5.7c0.3,0,0.5,0.1,0.7,0.2
		c0.2,0.1,0.2,0.3,0.2,0.5s-0.1,0.4-0.2,0.5C367.5,46,367.2,46.1,366.9,46.1L366.9,46.1z"/>
	<path d="M377.4,46h-4v2.1h3.7c0.3,0,0.5,0.1,0.6,0.2c0.1,0.1,0.2,0.3,0.2,0.5s-0.1,0.4-0.2,0.5s-0.3,0.2-0.6,0.2h-3.7V52h4.1
		c0.3,0,0.5,0.1,0.6,0.2c0.1,0.1,0.2,0.3,0.2,0.5s-0.1,0.4-0.2,0.5s-0.4,0.2-0.6,0.2h-4.8c-0.4,0-0.7-0.1-0.8-0.3
		c-0.2-0.2-0.3-0.5-0.3-0.8v-6.6c0-0.3,0-0.5,0.1-0.6c0.1-0.2,0.2-0.3,0.4-0.4c0.2-0.1,0.4-0.1,0.6-0.1h4.7c0.3,0,0.5,0.1,0.6,0.2
		c0.1,0.1,0.2,0.3,0.2,0.5s-0.1,0.4-0.2,0.5C377.9,45.9,377.7,46,377.4,46L377.4,46z"/>
	<path d="M383.6,44.6h2.3c0.6,0,1.1,0.1,1.6,0.2c0.4,0.1,0.8,0.3,1.2,0.6c0.9,0.8,1.4,2,1.4,3.6c0,0.5,0,1-0.1,1.4s-0.2,0.8-0.4,1.2
		c-0.2,0.4-0.4,0.7-0.7,0.9c-0.2,0.2-0.5,0.4-0.8,0.5s-0.6,0.2-0.9,0.3s-0.7,0.1-1.1,0.1h-2.3c-0.3,0-0.6,0-0.7-0.1
		c-0.2-0.1-0.3-0.2-0.3-0.4s-0.1-0.4-0.1-0.7v-6.5c0-0.4,0.1-0.7,0.3-0.8C382.9,44.7,383.2,44.6,383.6,44.6L383.6,44.6z M384.3,46v6
		h1.4c0.3,0,0.5,0,0.7,0s0.3-0.1,0.5-0.1c0.2-0.1,0.3-0.2,0.5-0.3c0.6-0.5,0.9-1.4,0.9-2.6c0-0.9-0.1-1.5-0.4-2
		c-0.3-0.4-0.6-0.7-1-0.8s-0.8-0.2-1.4-0.2L384.3,46L384.3,46z"/>
</g>
</svg>
