<?xml version="1.0" encoding="utf-8"?>
<!-- Generator: Adobe Illustrator 25.0.0, SVG Export Plug-In . SVG Version: 6.00 Build 0)  -->
<svg version="1.1" id="圖層_1" xmlns="http://www.w3.org/2000/svg" xmlns:xlink="http://www.w3.org/1999/xlink" x="0px" y="0px"
	 viewBox="0 0 390 61.2" style="enable-background:new 0 0 390 61.2;" xml:space="preserve">
<style type="text/css">
	.st0{fill:#FFFFFF;}
</style>
<g>
	<path class="st0" d="M22.5,39.5c-0.4-0.4-0.9-0.6-1.5-0.5c-0.6,0-1.1,0.3-1.4,0.7l-7.2,7.9c-0.8,0.8-0.7,2.2,0.1,3
		c0.4,0.4,0.9,0.6,1.4,0.6c0.6,0,1.1-0.2,1.5-0.7l7.2-7.9C23.4,41.6,23.3,40.2,22.5,39.5L22.5,39.5z"/>
	<path class="st0" d="M26.4,49.7c-0.8-0.8-2.2-0.7-2.9,0.1l-7.2,7.9c-0.8,0.8-0.7,2.2,0.1,3c0.4,0.4,0.9,0.6,1.4,0.6
		c0.6,0,1.1-0.2,1.5-0.7l7.2-7.9C27.3,51.8,27.3,50.5,26.4,49.7z"/>
	<path class="st0" d="M10.7,36.5C10.3,36.2,9.8,36,9.2,36c-0.6,0-1.1,0.3-1.4,0.7l-7.2,7.9C0.2,45,0,45.6,0,46.1
		c0,0.6,0.3,1.1,0.7,1.4c0.4,0.4,0.9,0.6,1.4,0.6c0.6,0,1.1-0.2,1.5-0.7l7.2-7.9c0.4-0.4,0.6-0.9,0.5-1.5
		C11.4,37.4,11.1,36.9,10.7,36.5L10.7,36.5z"/>
	<path class="st0" d="M60.3,4.4l0-0.3c-0.1-0.9-0.2-1.9-1.2-2.9L59,1.1l-0.1-0.1c-1-0.9-2-1.1-2.9-1.1h-0.3c0,0-0.1,0-0.1,0
		c-5.2,0.2-11.4,1.9-17.4,4.8c-2.4,1.1-4.3,2.5-6.2,3.9c-0.4,0.3-0.7,0.5-1.1,0.8l-0.3,0.2c-0.1,0.1-0.3,0.2-0.4,0.3
		c-1.1,0.8-3.1,2.4-4.7,3.9c-0.7,0.6-1.4,1.2-1.9,1.7c-4.6,4.8-7.2,8.3-9.5,12.8c0,0,0,0,0,0c-0.9,1.7-0.5,3.9,0.9,5.2
		c1.2,1.2,3,1.6,4.7,0.9c0.1,0,0.2-0.1,0.3-0.1c0.7-0.4,1.6-0.9,2.8-1.6c0.5,1.3,1.3,2.5,2.2,3.5l0,0l0.1,0.1l0.1,0.1
		c1,0.9,2.2,1.6,3.5,2.1c-0.7,1.2-1.2,2.2-1.5,2.9c0,0.1-0.1,0.2-0.1,0.3c-0.5,1.8-0.1,3.5,1.1,4.7c0.8,0.8,2,1.2,3.1,1.2
		c0.7,0,1.5-0.2,2.1-0.5l0.1,0c4.4-2.4,7.8-5.1,12.4-10c0.5-0.5,1.1-1.2,1.7-1.9c1.4-1.7,2.9-3.8,3.7-4.9c0.1-0.1,0.2-0.3,0.3-0.4
		l0.2-0.3c0.2-0.4,0.5-0.7,0.7-1.1l0-0.1c1.3-1.9,2.6-3.9,3.6-6.4c2.6-6.1,4.1-12.4,4.1-17.6C60.3,4.5,60.3,4.5,60.3,4.4L60.3,4.4z
		 M22.1,29.8c-1.5,0.9-2.7,1.6-3.5,2c-0.8,0.3-1.3,0-1.5-0.3c-0.4-0.4-0.5-1.1-0.3-1.6c0,0,0,0,0-0.1c1.8-3.6,3.9-6.5,7.2-10.1
		C22.5,23.4,21.9,26.8,22.1,29.8L22.1,29.8z M27.2,34.2L27.2,34.2c-0.8-0.8-1.4-1.8-1.7-2.9c2.3-1.4,4.2-2.7,4.3-2.7
		c2.2-1.5,2.8-1.3,3.4-0.7l0.1,0.1c0.6,0.6,0.9,1.2-0.5,3.5c-0.1,0.2-1.3,2.1-2.5,4.4C29.1,35.5,28.1,35,27.2,34.2L27.2,34.2
		L27.2,34.2z M30,42.8c0.4-0.8,1-2,1.9-3.6c3,0.1,6.3-0.6,10-2.2c-3.5,3.4-6.3,5.6-9.8,7.5c0,0-0.1,0-0.1,0
		c-0.5,0.3-1.2,0.2-1.6-0.2C30.1,44,29.7,43.6,30,42.8L30,42.8z M57.2,4.6c0,4.8-1.4,10.7-3.9,16.4c-0.5,1.2-1.2,2.4-2.1,3.9
		c-0.4,0.7-1.1,2-2.1,3.3l0,0.1c-0.1,0.1-0.2,0.3-0.4,0.5c-0.6,0.7-1.1,1.2-1.7,1.7l-0.1,0.1c-0.2,0.2-2.1,1.9-5.8,3.4
		c-2.7,1.3-5.2,2-7.5,2.2c0.8-1.4,1.5-2.5,1.7-3c0.9-1.5,2.8-4.5,0.1-7.3l-0.1-0.1l-0.1-0.1c-2.8-2.6-5.8-0.6-7.2,0.4
		c0,0-1.3,0.8-2.9,1.9c0.1-2.2,0.7-4.8,1.9-7.6c1.3-3.6,2.9-5.5,3.2-5.9l0.1-0.1c0.4-0.6,1-1.2,1.7-1.8c0.2-0.2,0.3-0.3,0.5-0.4
		l0.1,0c1.3-1.1,2.5-1.9,3.2-2.3c1.5-1,2.6-1.7,3.8-2.3c5.6-2.7,11.3-4.3,16.1-4.5h0.3c0.6,0,0.8,0.1,1,0.3h0c0.2,0.2,0.3,0.3,0.3,1
		L57.2,4.6L57.2,4.6z"/>
	<path class="st0" d="M101.1,31.3v0.6c0,0.4,0,0.8,0,1.4c0,0.5-0.1,1-0.2,1.4c-0.2,0.7-0.6,1.2-1.2,1.6c-0.6,0.4-1.3,0.6-2,0.6
		c-0.2,0-0.5,0-0.9,0h-1.2c-0.4,0-0.9,0-1.3,0c-0.5,0-0.8,0-1.2,0c-1.7,0-2.8-0.5-3.5-1.3c-0.7-0.8-1-1.9-1-3.3v-9.9H84
		c0.1,0.2,0.2,0.4,0.2,0.6c0,2-0.3,3.8-1,5.4c-0.6,1.6-1.5,2.9-2.5,4.1c-1,1.2-2.1,2.1-3.3,2.8c-1.2,0.7-2.3,1.3-3.4,1.7
		c-0.3,0.1-0.5,0.1-0.7,0.1c-0.2,0-0.4-0.1-0.4-0.2c-0.3-0.2-0.5-0.5-0.5-0.9c0-0.4,0.1-0.7,0.5-0.9c1-0.6,1.9-1.2,2.9-2
		c0.9-0.7,1.8-1.6,2.6-2.6c0.8-1,1.4-2.2,1.8-3.5c0.5-1.3,0.7-2.9,0.7-4.6h-7.5c-0.6,0-0.9-0.2-1-0.5c0-0.2-0.1-0.4,0-0.7
		c0-0.3,0-0.5,0.1-0.7c0-0.2,0.2-0.3,0.3-0.3c0.2-0.1,0.4-0.1,0.6-0.1h11.9V9.4c0-0.3,0.1-0.6,0.3-0.7c0.2-0.1,0.3-0.2,0.5-0.3
		c0.3,0,0.6-0.1,0.8-0.1c0.2,0,0.5,0,0.7,0.1c0.2,0,0.3,0.1,0.5,0.3c0.2,0.2,0.2,0.4,0.2,0.6v10.8h11.8c0.2,0,0.4,0,0.6,0.1
		c0.2,0.1,0.3,0.2,0.3,0.4c0,0.2,0.1,0.4,0.1,0.7c0,0.3,0,0.5-0.1,0.7c0,0.2-0.1,0.3-0.3,0.4c-0.2,0.1-0.4,0.1-0.6,0.1h-8.4v9.9
		c0,0.6,0.1,1,0.4,1.3c0.3,0.3,0.8,0.5,1.6,0.5c0.6,0,1.2,0.1,1.7,0c0.6,0,1.3,0,2-0.1c0.3,0,0.6-0.2,0.8-0.4
		c0.2-0.2,0.3-0.4,0.3-0.5c0.1-0.4,0.2-0.7,0.3-1c0.1-0.3,0.1-0.6,0.2-1c0-0.2,0.1-0.3,0.2-0.5c0.1-0.2,0.3-0.2,0.4-0.3
		c0.2,0,0.4-0.1,0.5,0c0.1,0,0.2,0,0.3,0c0.2,0,0.3,0.1,0.4,0.3C101,30.9,101.1,31.1,101.1,31.3L101.1,31.3z M78.6,18.3
		c-0.2-0.6-0.4-1.1-0.6-1.7c-0.2-0.5-0.5-1.1-0.7-1.7s-0.6-1.2-0.9-1.9c-0.4-0.7-0.7-1.4-1.2-2.3c-0.2-0.4-0.2-0.7,0.1-1
		c0.1-0.1,0.2-0.2,0.3-0.2c0.1-0.1,0.2-0.1,0.3-0.1c0.2-0.1,0.3-0.1,0.5-0.1c0.2,0,0.4,0.1,0.5,0.3c0.4,0.4,0.9,1,1.4,1.6
		c0.5,0.6,1,1.3,1.4,2c0.4,0.7,0.9,1.4,1.2,2.1c0.4,0.7,0.6,1.3,0.8,1.9c0.1,0.3,0.1,0.6,0,0.9c-0.1,0.2-0.3,0.5-0.5,0.6
		c-0.4,0.2-0.8,0.4-1.2,0.4C79.3,19.1,78.8,18.9,78.6,18.3L78.6,18.3z M92.3,19c-0.1,0-0.2-0.1-0.3-0.2c-0.1-0.1-0.2-0.2-0.3-0.4
		c-0.2-0.3-0.1-0.6,0.1-0.9c0.3-0.4,0.7-0.9,1.1-1.5s0.8-1.2,1.3-1.9c0.4-0.7,0.8-1.3,1.2-2c0.4-0.7,0.7-1.3,1-1.9
		c0.3-0.6,0.8-0.8,1.4-0.6c0.3,0.1,0.5,0.2,0.7,0.3c0.2,0.1,0.4,0.3,0.5,0.5c0.4,0.4,0.4,0.8,0.2,1.3c-0.3,0.5-0.6,1.1-1,1.7
		c-0.4,0.7-0.9,1.3-1.4,2c-0.5,0.7-1.1,1.3-1.7,1.9c-0.6,0.6-1.2,1.1-1.8,1.5c-0.2,0.2-0.4,0.3-0.6,0.3C92.6,19.1,92.4,19.1,92.3,19
		L92.3,19z"/>
	<path class="st0" d="M133.4,34.4c0.1,0.2,0.1,0.5,0,0.9c0,0.4-0.1,0.6-0.2,0.8c-0.1,0.2-0.2,0.3-0.5,0.4c-0.2,0.1-0.5,0.1-0.7,0.2
		h-7c-0.6,0-1.2,0-2,0c-0.8,0-1.6-0.1-2.4-0.1c-0.8-0.1-1.7-0.2-2.6-0.3c-0.9-0.1-1.8-0.3-2.7-0.5c-0.4-0.1-1-0.3-1.7-0.6
		c-0.7-0.3-1.4-0.6-1.9-1c-0.2-0.1-0.4-0.2-0.6-0.2c-0.2,0-0.3,0-0.5,0.2c-0.2,0.2-0.4,0.4-0.8,0.7c-0.4,0.3-0.8,0.6-1.2,0.9
		c-0.4,0.3-0.9,0.6-1.3,0.8c-0.4,0.3-0.8,0.4-1,0.5c-0.2,0.1-0.4,0.2-0.6,0.2c-0.2,0-0.4,0-0.5-0.1c-0.1-0.1-0.2-0.2-0.3-0.2
		c-0.1-0.1-0.1-0.2-0.2-0.3c-0.1-0.1-0.1-0.3-0.1-0.5c0-0.2,0.1-0.3,0.3-0.5c0.4-0.3,0.9-0.7,1.5-1c0.5-0.4,1-0.8,1.5-1.3
		c0.5-0.5,0.8-1.1,1.1-1.8c0.3-0.7,0.4-1.5,0.4-2.5V26c0-0.2-0.1-0.4-0.3-0.6c-0.2-0.1-0.4-0.2-0.6-0.2h-2.5c-0.3,0-0.6-0.1-0.8-0.2
		c-0.2-0.1-0.3-0.3-0.3-0.5c-0.1-0.2-0.1-0.4,0-0.6c0-0.2,0.1-0.4,0.2-0.5c0.1-0.1,0.3-0.3,0.6-0.7c0.3-0.4,0.7-0.8,1.2-1.3
		c0.4-0.5,0.8-1.1,1.2-1.7c0.4-0.6,0.6-1.2,0.8-1.8c0-0.2,0-0.3-0.2-0.4c-0.2-0.1-0.3-0.2-0.4-0.2h-2.6c-0.4,0-0.6-0.1-0.7-0.4
		c-0.1-0.4-0.1-0.7,0-1c0.1-0.2,0.1-0.3,0.2-0.3c0.1-0.1,0.3-0.1,0.5-0.1h0.9c0.5,0,1,0,1.6,0c0.6,0,1.1,0,1.6,0h0.9
		c0.3,0,0.5,0.1,0.8,0.2c0.2,0.1,0.4,0.3,0.6,0.5c0.2,0.2,0.3,0.4,0.3,0.6c0.1,0.2,0.1,0.4,0,0.6c-0.2,0.7-0.6,1.4-1,2
		c-0.5,0.6-0.9,1.2-1.4,1.7c-0.5,0.5-1,1-1.4,1.3c-0.4,0.4-0.7,0.6-0.9,0.7h2.4c0.7,0,1.3,0.2,1.7,0.6c0.2,0.2,0.3,0.4,0.4,0.7
		c0.1,0.3,0.1,0.5,0.2,0.8v0.7c0,0.3,0,0.5,0,0.7l-0.1,2.5c0,0.3-0.1,0.7-0.1,1c-0.1,0.3-0.1,0.7-0.2,1c0,0.2-0.1,0.3-0.1,0.5
		c0,0.2-0.1,0.3-0.1,0.5c0.2,0,0.4,0.1,0.5,0.1c0.1,0.1,0.3,0.1,0.4,0.1c0.6,0.2,1.2,0.4,1.8,0.6c0.6,0.2,1.1,0.3,1.8,0.4
		c0.6,0.1,1.3,0.2,2,0.2c0.7,0.1,1.6,0.1,2.5,0.1l5.8,0.1c0.7,0,1.4,0,2.2,0c0.7,0,1.4,0,1.9,0h2.1c0.2,0,0.5,0.1,0.6,0.2
		C133.3,34,133.4,34.2,133.4,34.4L133.4,34.4z M108.9,13.9c-0.4-0.5-0.9-1-1.4-1.6c-0.5-0.6-0.9-1.1-1.3-1.6
		c-0.3-0.3-0.3-0.6-0.2-0.8c0.1-0.2,0.2-0.3,0.3-0.4c0.1-0.1,0.2-0.2,0.3-0.2c0.1-0.1,0.3-0.1,0.5,0c0.2,0.1,0.4,0.1,0.6,0.3
		c0.6,0.5,1.3,0.9,1.9,1.4c0.6,0.5,1,0.9,1.3,1.2c0.1,0.1,0.2,0.3,0.2,0.5c0,0.2,0,0.3-0.1,0.4c-0.2,0.3-0.3,0.5-0.5,0.7
		c-0.2,0.2-0.4,0.3-0.5,0.5c-0.1,0.1-0.3,0.1-0.5,0.1S109,14.1,108.9,13.9L108.9,13.9z M113.4,12.9c-0.3,0-0.5,0-0.6-0.1
		c-0.2-0.1-0.3-0.2-0.3-0.4c0-0.2-0.1-0.4-0.1-0.6c0-0.2,0-0.3,0.1-0.5c0-0.2,0.2-0.3,0.3-0.4c0.2-0.1,0.4-0.1,0.6-0.1h8V9.6
		c0-0.4,0.1-0.6,0.2-0.8c0.2-0.1,0.3-0.2,0.5-0.3c0.4,0,0.6-0.1,0.8-0.1c0.2,0,0.4,0,0.7,0.1c0.2,0,0.4,0.2,0.5,0.3
		c0.1,0.2,0.2,0.4,0.2,0.7v1.2h8c0.5,0,0.8,0.1,0.9,0.4c0.1,0.3,0.1,0.7,0,1.2c-0.1,0.3-0.4,0.5-0.9,0.5h-8V15h5.6
		c1.5,0,2.3,0.7,2.3,2.1V21c0,1.5-0.8,2.3-2.3,2.3h-5.6V32c0,0.3-0.1,0.6-0.2,0.8c-0.1,0.2-0.3,0.3-0.5,0.4c-0.3,0-0.5,0.1-0.7,0.1
		c-0.2,0-0.5,0-0.8-0.1c-0.2,0-0.3-0.1-0.5-0.3c-0.1-0.2-0.2-0.4-0.2-0.8v-5c-0.3,0.3-0.6,0.7-0.9,1c-0.3,0.3-0.6,0.6-0.9,0.8
		c-0.4,0.4-0.9,0.7-1.5,1.1c-0.5,0.3-1.1,0.7-1.6,1c-0.5,0.3-1,0.5-1.5,0.7c-0.5,0.2-0.9,0.4-1.2,0.4c-0.4,0.1-0.8,0.1-1-0.2
		c-0.2-0.2-0.3-0.4-0.3-0.7c0-0.2,0-0.3,0-0.5c0.1-0.2,0.2-0.3,0.4-0.4c1.6-0.8,3.1-1.8,4.5-3c1.4-1.2,2.5-2.5,3.4-3.9h-5
		c-1.5,0-2.3-0.8-2.3-2.3v-3.8c0-1.4,0.8-2.1,2.3-2.1h5.6v-2.1L113.4,12.9L113.4,12.9z M121.4,16.9h-4c-0.6,0-0.9,0.3-0.9,1v2.4
		c0,0.7,0.3,1.1,0.9,1.1h4V16.9z M124.4,21.4h4c0.6,0,1-0.4,1-1.1v-2.4c0-0.7-0.3-1-1-1h-4V21.4z M126.7,24.7
		c0.2,0.1,0.6,0.3,1.2,0.7c0.6,0.4,1.2,0.8,1.8,1.4c0.6,0.5,1.3,1,1.8,1.5c0.6,0.5,1,0.9,1.2,1.1c0.2,0.2,0.3,0.4,0.3,0.6
		c0,0.2,0,0.5-0.1,0.6c-0.1,0.2-0.3,0.4-0.5,0.6c-0.2,0.2-0.4,0.4-0.6,0.5c-0.2,0.1-0.4,0.2-0.6,0.1c-0.2,0-0.4-0.1-0.6-0.3
		c-0.3-0.4-0.7-0.8-1.2-1.4c-0.5-0.5-1-1.1-1.5-1.6c-0.5-0.5-1-1-1.4-1.5c-0.4-0.5-0.8-0.8-1-1c-0.2-0.2-0.3-0.3-0.3-0.5
		c0-0.2,0-0.3,0.1-0.5c0.1-0.1,0.2-0.3,0.5-0.5C126,24.6,126.4,24.6,126.7,24.7L126.7,24.7z"/>
	<path class="st0" d="M165.3,34.3c0.2,0.2,0.4,0.4,0.4,0.7c0,0.3,0,0.6-0.1,0.8c-0.1,0.3-0.3,0.6-0.5,0.8c-0.2,0.2-0.4,0.4-0.6,0.6
		c-0.2,0.1-0.4,0.2-0.7,0.2c-0.3,0-0.6,0-0.9-0.2c-2.1-1.2-4.1-2.9-6-5.1c-1.9-2.2-3.4-4.7-4.7-7.8c-0.3-0.7-0.5-1.2-0.6-1.7
		c-0.5,1.8-1.2,3.4-2.2,4.9c-0.9,1.5-2,2.9-3.2,4.1c-1.2,1.2-2.5,2.3-3.9,3.2c-1.4,0.9-2.7,1.7-4,2.3c-0.3,0.1-0.5,0.2-0.7,0.1
		c-0.2,0-0.3,0-0.4-0.1c-0.2-0.1-0.3-0.2-0.4-0.4c-0.1-0.2-0.2-0.3-0.2-0.4c-0.1-0.2-0.1-0.4,0-0.6c0.1-0.2,0.2-0.4,0.5-0.6
		c1.2-0.7,2.4-1.6,3.7-2.5c1.3-1,2.5-2.1,3.6-3.3c1.1-1.2,2.1-2.7,2.9-4.2c0.8-1.6,1.4-3.3,1.6-5.3c0.1-0.9,0.2-1.7,0.3-2.6
		c0.1-0.8,0.1-1.7,0.1-2.5c0-0.8,0.1-1.7,0.1-2.6c0-0.9,0-1.8,0-2.8c0-0.4,0.1-0.6,0.3-0.8s0.4-0.2,0.7-0.3c0.3-0.1,0.6-0.1,0.9-0.1
		c0.3,0,0.5,0,0.7,0.1c0.3,0,0.5,0.2,0.7,0.3c0.2,0.2,0.3,0.4,0.3,0.8c0,1.4,0,2.7,0,3.7c0,1-0.1,1.9-0.1,2.7c0,0.8-0.1,1.4-0.2,2
		c-0.1,0.6-0.1,1.1-0.2,1.7l0.3,0.6c0.9-0.5,1.7-1.1,2.5-1.8c0.8-0.7,1.6-1.4,2.3-2.2c0.7-0.7,1.4-1.5,2-2.1
		c0.6-0.7,1.1-1.3,1.4-1.7c0.2-0.3,0.4-0.4,0.7-0.4c0.3,0,0.5,0,0.7,0.1c0.5,0.2,0.9,0.5,1.3,0.9c0.2,0.2,0.3,0.4,0.3,0.7
		c0,0.3,0,0.6-0.1,0.7c-0.3,0.5-0.9,1.1-1.6,1.9c-0.8,0.7-1.6,1.4-2.6,2.2c-1,0.7-2,1.4-3.1,2c-1.1,0.6-2.1,1.1-3,1.5
		c1.2,2.2,2.5,4.1,3.9,5.8c0.7,0.9,1.5,1.7,2.2,2.3s1.4,1.3,2.2,1.8c0.7,0.5,1.4,1,2,1.4C164.2,33.5,164.8,33.9,165.3,34.3
		L165.3,34.3z M140.7,17.4c-0.5-1-1-1.8-1.4-2.4c-0.4-0.7-0.7-1.2-1-1.7c-0.2-0.4-0.2-0.7,0-0.9c0.1-0.1,0.2-0.2,0.3-0.3
		c0.1-0.1,0.2-0.1,0.3-0.2c0.4-0.2,0.7-0.1,1.1,0.2c0.4,0.3,0.9,0.9,1.5,1.6c0.6,0.7,1.2,1.4,1.8,2.2c0.6,0.8,1.2,1.5,1.7,2.3
		c0.5,0.7,0.9,1.3,1.1,1.8c0.1,0.3,0.2,0.6,0.1,0.8c-0.1,0.3-0.2,0.5-0.4,0.7c-0.1,0.2-0.3,0.3-0.6,0.5c-0.3,0.2-0.6,0.3-0.9,0.4
		c-0.2,0-0.5,0-0.7,0c-0.2-0.1-0.4-0.2-0.6-0.6c-0.2-0.5-0.5-1.2-0.9-1.9C141.6,19.1,141.2,18.3,140.7,17.4L140.7,17.4z"/>
	<path class="st0" d="M196.3,17.9c0.2,0,0.5,0,0.7,0.1c0.2,0.1,0.3,0.2,0.4,0.4c0.1,0.4,0.1,0.8,0,1.1c0,0.2-0.2,0.3-0.4,0.4
		c-0.2,0.1-0.4,0.1-0.7,0.1h-25.9c-0.3,0-0.5,0-0.7-0.1c-0.2-0.1-0.3-0.2-0.4-0.3c-0.1-0.3-0.1-0.7,0-1.2c0-0.2,0.2-0.3,0.4-0.4
		c0.2-0.1,0.5-0.1,0.8-0.1H196.3L196.3,17.9z M169.9,15c-0.3-0.1-0.4-0.3-0.6-0.6c-0.1-0.1-0.1-0.2,0-0.4s0.1-0.3,0.2-0.5
		c0.5-0.6,1-1.3,1.5-2.1c0.5-0.8,1-1.6,1.3-2.6c0.1-0.3,0.3-0.5,0.6-0.6c0.2-0.1,0.5,0,0.8,0.1c0.3,0.1,0.5,0.2,0.6,0.2
		c0.1,0.1,0.2,0.1,0.4,0.2c0.1,0.1,0.2,0.2,0.3,0.4s0.1,0.3,0.1,0.5h7.1c0.2,0,0.4,0,0.6,0.1c0.2,0,0.3,0.2,0.3,0.3
		c0.1,0.4,0.1,0.8,0,1.1c0,0.2-0.2,0.3-0.3,0.3c-0.2,0.1-0.4,0.1-0.6,0.1H174c-0.9,1.2-2,2.2-3.2,3.1c-0.2,0.2-0.4,0.2-0.5,0.2
		C170.1,15.1,170,15.1,169.9,15L169.9,15z M182.2,21.6c0.7,0,1.2,0.2,1.5,0.6c0.4,0.4,0.5,0.9,0.5,1.5v10.8c0,0.8-0.3,1.4-0.9,2
		c-0.6,0.5-1.3,0.8-2.2,0.7c-0.7,0-1.3,0-1.8-0.1c-0.5-0.1-1-0.2-1.4-0.3c-0.3-0.1-0.4-0.3-0.4-0.6c0-0.2,0-0.3,0-0.4
		c0-0.1,0-0.2,0.1-0.3c0.1-0.2,0.3-0.3,0.7-0.3c0.4,0,0.8,0.1,1,0.1c0.2,0,0.5,0,0.8,0c0.3,0,0.6-0.2,0.8-0.4
		c0.2-0.2,0.3-0.5,0.3-0.9v-1.7h-8c0,0.2,0,0.4-0.1,0.5c0,0.2,0,0.3-0.1,0.4c0,0.3-0.1,0.6-0.2,1c-0.1,0.4-0.2,0.7-0.3,1
		s-0.2,0.7-0.4,1c-0.1,0.3-0.3,0.6-0.4,0.7c-0.2,0.2-0.5,0.4-0.7,0.4c-0.2,0-0.3,0-0.4-0.1c-0.1,0-0.3-0.1-0.4-0.2
		c-0.1,0-0.2-0.1-0.3-0.3c-0.1-0.1-0.1-0.3,0-0.6c0-0.1,0.1-0.4,0.2-0.7s0.2-0.8,0.3-1.4c0.1-0.6,0.2-1.2,0.2-1.9
		c0.1-0.7,0.1-1.5,0.1-2.3v-6.2c0-0.6,0.2-1.1,0.5-1.4c0.4-0.4,0.8-0.6,1.5-0.6L182.2,21.6L182.2,21.6z M181.4,30.2v-2.4h-7.7
		c0,0.5,0,0.9,0,1.3c0,0.4,0,0.8-0.1,1.1H181.4L181.4,30.2z M174.6,23.5c-0.5,0-0.8,0.3-0.8,0.8v1.7h7.7v-1.7c0-0.5-0.3-0.7-0.8-0.7
		L174.6,23.5L174.6,23.5z M175.9,17.4c-0.1-0.2-0.2-0.5-0.4-0.9s-0.3-0.7-0.3-1c-0.1-0.4,0-0.7,0.2-0.9c0.1-0.1,0.2-0.1,0.3-0.2
		c0.1-0.1,0.2-0.1,0.4-0.1c0.1,0,0.3,0,0.4,0c0.1,0,0.3,0.1,0.4,0.2c0.2,0.2,0.5,0.5,0.7,0.8c0.3,0.3,0.5,0.6,0.6,0.9
		c0.2,0.4,0.1,0.8-0.3,1.1c-0.1,0.1-0.3,0.2-0.5,0.3c-0.2,0.1-0.4,0.2-0.5,0.2C176.5,17.9,176.1,17.8,175.9,17.4L175.9,17.4z
		 M177.3,11.9c0.1,0,0.3,0,0.5,0s0.3,0.1,0.5,0.2c0.3,0.2,0.6,0.3,0.9,0.5c0.3,0.1,0.5,0.3,0.7,0.6c0.2,0.2,0.2,0.3,0.2,0.5
		s-0.1,0.4-0.2,0.5c-0.2,0.4-0.6,0.8-1.1,1c-0.2,0.1-0.4,0.1-0.6,0c-0.2-0.1-0.4-0.2-0.5-0.4c-0.2-0.3-0.4-0.6-0.6-0.7
		c-0.2-0.2-0.3-0.4-0.5-0.7c-0.1-0.2-0.2-0.3-0.1-0.5c0-0.2,0.1-0.3,0.1-0.4C176.7,12.2,176.9,12,177.3,11.9L177.3,11.9z
		 M183.1,14.3c-0.2-0.3-0.1-0.5,0.1-0.8c0.4-0.6,0.8-1.3,1.2-2c0.4-0.7,0.7-1.5,1.1-2.4c0.1-0.3,0.3-0.5,0.5-0.6
		c0.2-0.1,0.5,0,0.8,0.1c0.3,0.1,0.5,0.2,0.6,0.3s0.2,0.2,0.4,0.3c0.3,0.3,0.4,0.6,0.3,0.9h7.8c0.2,0,0.4,0,0.6,0.1
		c0.2,0,0.3,0.2,0.3,0.3c0.1,0.4,0.1,0.8,0,1.1c0,0.2-0.2,0.3-0.3,0.3c-0.2,0.1-0.4,0.1-0.6,0.1h-8.8c-0.4,0.6-0.8,1.1-1.3,1.6
		c-0.5,0.5-0.9,0.9-1.2,1.2c-0.3,0.3-0.6,0.3-0.9,0.2C183.5,14.7,183.3,14.6,183.1,14.3L183.1,14.3z M189.6,32.4
		c0,0.3-0.1,0.5-0.2,0.6c-0.1,0.1-0.3,0.2-0.4,0.3c-0.4,0.1-1,0.1-1.5,0c-0.2,0-0.3-0.1-0.4-0.2c-0.1-0.1-0.2-0.3-0.2-0.7v-9.2
		c0-0.3,0.1-0.5,0.2-0.7c0.1-0.1,0.3-0.2,0.4-0.2c0.3,0,0.6-0.1,0.8-0.1c0.2,0,0.5,0,0.7,0c0.2,0,0.3,0.2,0.4,0.3
		c0.1,0.2,0.2,0.4,0.2,0.6V32.4L189.6,32.4z M188.4,14.5c0.1-0.2,0.3-0.3,0.5-0.4c0.2-0.1,0.4-0.1,0.6,0c0.3,0.1,0.5,0.2,0.7,0.3
		c0.2,0.1,0.4,0.2,0.5,0.4c0.2,0.2,0.3,0.4,0.3,0.6c0,0.2,0,0.5-0.2,0.6c-0.2,0.3-0.4,0.5-0.7,0.7c-0.3,0.2-0.6,0.5-1.1,0.8
		c-0.2,0.2-0.4,0.2-0.6,0.2s-0.3,0-0.5-0.1c-0.1,0-0.3-0.1-0.4-0.2c-0.1-0.1-0.2-0.2-0.3-0.2c-0.2-0.2-0.1-0.4,0.1-0.9
		c0.1-0.2,0.2-0.5,0.4-0.8C187.9,15.3,188.1,14.9,188.4,14.5L188.4,14.5z M195.4,21.3c0.2,0,0.3,0.1,0.4,0.3
		c0.1,0.2,0.2,0.4,0.2,0.6l0,11.3c0,1.3-0.3,2.2-0.9,2.8c-0.6,0.6-1.4,0.9-2.5,0.9c-0.3,0-0.8,0-1.3-0.1c-0.5-0.1-1.1-0.2-1.6-0.4
		c-0.6-0.2-0.8-0.5-0.8-0.8c0-0.2,0-0.3,0.1-0.5c0-0.1,0.1-0.3,0.1-0.4c0.2-0.3,0.5-0.4,0.9-0.4c0.3,0,0.6,0,0.9,0
		c0.3,0,0.6,0,0.9,0c0.9,0,1.4-0.5,1.4-1.4V22.3c0-0.3,0.1-0.6,0.2-0.7c0.1-0.1,0.3-0.2,0.4-0.2C194.4,21.3,194.9,21.3,195.4,21.3
		L195.4,21.3z M192.3,15.1c-0.2,0.1-0.4,0.1-0.6,0c-0.2-0.1-0.4-0.2-0.5-0.4c-0.2-0.3-0.4-0.6-0.6-0.7c-0.1-0.2-0.3-0.4-0.5-0.7
		c-0.2-0.3-0.2-0.6,0-0.9c0.1-0.1,0.2-0.2,0.3-0.3c0.1-0.1,0.2-0.2,0.4-0.2c0.1,0,0.3,0,0.4,0c0.2,0,0.4,0.1,0.5,0.2
		c0.3,0.2,0.6,0.3,0.8,0.5c0.3,0.1,0.5,0.3,0.7,0.6c0.2,0.2,0.2,0.3,0.2,0.5s-0.1,0.4-0.2,0.5c-0.1,0.2-0.3,0.4-0.5,0.6
		C192.7,14.9,192.5,15,192.3,15.1L192.3,15.1z"/>
	<path class="st0" d="M210.3,8.9c0.7,0,1.3,0.2,1.6,0.7c0.4,0.4,0.6,1,0.6,1.6v23.4c0,0.5-0.1,0.9-0.3,1.3c-0.2,0.3-0.4,0.6-0.7,0.9
		c-0.3,0.2-0.6,0.4-1,0.5c-0.4,0.1-0.7,0.1-1,0.1c-0.7,0-1.3-0.1-1.8-0.2c-0.5-0.1-1-0.2-1.3-0.4c-0.4-0.2-0.6-0.4-0.6-0.7
		c0-0.2,0.1-0.4,0.1-0.5c0-0.1,0.1-0.2,0.1-0.3c0.1-0.2,0.4-0.3,0.7-0.3c0.5,0.1,0.9,0.1,1.1,0.1c0.3,0,0.5,0,0.8,0
		c0.2,0,0.4-0.2,0.6-0.4s0.3-0.5,0.3-0.8v-8.5c-0.6,0.6-1.2,1-1.8,1.4c-0.6,0.4-1.1,0.6-1.6,0.7c-0.2,0-0.3,0-0.5,0
		c-0.2,0-0.3-0.1-0.4-0.2c0,0.5-0.1,1-0.1,1.5c-0.1,0.5-0.1,0.9-0.2,1.2c-0.4,2.1-0.8,3.7-1.1,4.7c-0.4,1-0.7,1.7-0.9,2
		c-0.2,0.3-0.5,0.5-0.7,0.5c-0.3,0-0.6-0.1-0.9-0.2c-0.1,0-0.2-0.1-0.2-0.3c-0.1-0.2,0-0.3,0-0.5c0-0.1,0.1-0.4,0.3-1
		c0.2-0.6,0.3-1.3,0.5-2.2c0.2-0.9,0.3-2,0.5-3.2c0.2-1.2,0.2-2.6,0.2-4V11.1c0-0.6,0.2-1.1,0.6-1.6c0.4-0.4,0.9-0.6,1.6-0.6
		L210.3,8.9L210.3,8.9z M205.5,11.7v4c0.2-0.1,0.4-0.1,0.6,0c0.6,0.2,1.3,0.5,2,0.7c0.7,0.3,1.2,0.5,1.6,0.7v-5.5
		c0-0.5-0.3-0.7-0.8-0.7h-2.7C205.7,10.9,205.5,11.2,205.5,11.7L205.5,11.7z M209.7,18.7l-0.3,0.5c-0.1,0.1-0.2,0.2-0.4,0.2
		c-0.2,0-0.3,0-0.5-0.1c-0.4-0.3-1-0.6-1.5-1c-0.5-0.3-1-0.7-1.5-1v7.6c0.3-0.1,0.6-0.2,0.9-0.3c0.3-0.1,0.6-0.2,1-0.4
		c0.3-0.1,0.7-0.3,1.1-0.5c0.4-0.2,0.8-0.4,1.3-0.6L209.7,18.7L209.7,18.7z M229.7,34.4c0.4,0.2,0.6,0.6,0.5,1.1
		c-0.1,0.3-0.2,0.6-0.4,0.9c-0.2,0.3-0.4,0.5-0.6,0.7c-0.2,0.1-0.3,0.2-0.5,0.2c-0.2,0-0.5,0-0.8-0.1c-0.9-0.4-2-0.9-3.1-1.6
		c-1.1-0.7-2.3-1.5-3.4-2.5c-1.1,0.8-2.2,1.5-3.4,2.2c-1.2,0.7-2.5,1.3-3.9,1.8c-0.4,0.2-0.7,0.1-1-0.2c-0.2-0.2-0.3-0.4-0.3-0.8
		c0-0.2,0-0.3,0.1-0.5c0.1-0.2,0.2-0.3,0.5-0.4c1.4-0.6,2.5-1.2,3.6-1.9c1-0.7,2-1.3,2.8-2c-1-1.1-1.8-2.3-2.6-3.6
		c-0.8-1.3-1.4-2.9-1.8-4.6c-0.4,0-0.6-0.2-0.7-0.5c-0.1-0.4-0.1-0.7,0-1.1c0.1-0.3,0.4-0.4,0.8-0.4h10.4c0.9,0,1.6,0.3,2.1,0.9
		c0.5,0.6,0.5,1.5,0.1,2.6c-0.5,1.2-1.1,2.4-1.8,3.4c-0.7,1.1-1.6,2.1-2.5,3.1c1,0.7,2.1,1.3,3.1,1.7
		C227.7,33.5,228.7,34,229.7,34.4L229.7,34.4z M213.8,20.4c-0.1-0.1-0.2-0.2-0.3-0.2c-0.1-0.1-0.1-0.2-0.2-0.3
		c-0.2-0.3-0.1-0.6,0.1-0.9c0.4-0.5,0.8-0.9,1-1.2c0.3-0.4,0.5-0.7,0.7-1c0.2-0.3,0.3-0.7,0.4-1s0.1-0.7,0.1-1.1v-3.3
		c0-0.8,0.2-1.4,0.7-1.8c0.5-0.4,1-0.6,1.6-0.6h6c1.6,0,2.4,0.8,2.4,2.4l0,5.3c0,0.3,0.1,0.6,0.2,0.7c0.2,0.1,0.4,0.1,0.7,0.1h1.8
		c0.5,0,0.7,0.2,0.8,0.6c0,0.1,0.1,0.3,0.1,0.5c0,0.2,0,0.4-0.1,0.6c0,0.2-0.1,0.3-0.2,0.5c-0.1,0.2-0.3,0.2-0.6,0.2h-2.9
		c-0.9,0-1.6-0.2-2.1-0.7c-0.5-0.4-0.8-1.1-0.8-1.9v-5.5c0-0.4-0.1-0.6-0.2-0.7c-0.2-0.1-0.3-0.2-0.5-0.2h-2.9
		c-0.2,0-0.4,0.1-0.6,0.2c-0.2,0.1-0.3,0.4-0.3,0.8V14c0,0.6-0.1,1.3-0.3,1.9c-0.2,0.6-0.5,1.2-0.8,1.8s-0.7,1.1-1.2,1.5
		c-0.4,0.5-0.9,0.8-1.3,1c-0.3,0.2-0.5,0.2-0.7,0.2C214.1,20.5,213.9,20.5,213.8,20.4L213.8,20.4z M217.2,23.2
		c0.6,1.4,1.2,2.6,1.9,3.7c0.7,1,1.5,1.9,2.3,2.7c0.8-1,1.5-1.9,2-2.9c0.5-1,0.9-1.9,1.2-2.8c0-0.2,0-0.3-0.1-0.5
		c-0.1-0.1-0.3-0.2-0.4-0.2H217.2L217.2,23.2z"/>
	<path class="st0" d="M241.2,9.9c-0.1,0.6-0.3,1.3-0.5,2c-0.2,0.8-0.5,1.5-0.8,2.2c-0.1,0.3-0.2,0.6-0.4,1c-0.2,0.4-0.3,0.7-0.4,1
		l-0.5,1.1c0.2,0,0.4,0,0.6,0.1c0.2,0,0.3,0.1,0.4,0.2c0.1,0.1,0.2,0.3,0.2,0.4v18.4c0,0.2-0.1,0.4-0.2,0.5
		c-0.1,0.1-0.3,0.3-0.4,0.3c-0.2,0.1-0.5,0.1-0.9,0.1c-0.4,0-0.6,0-0.9-0.1c-0.4-0.2-0.6-0.5-0.6-0.9V20.5c-0.1,0.2-0.3,0.4-0.4,0.7
		c-0.2,0.3-0.4,0.5-0.6,0.8c-0.2,0.3-0.5,0.5-0.7,0.8c-0.2,0.3-0.4,0.4-0.6,0.6c-0.3,0.2-0.5,0.2-0.8,0.1c-0.2,0-0.3-0.1-0.4-0.2
		c-0.1-0.1-0.2-0.1-0.2-0.2c-0.1-0.1-0.2-0.3-0.2-0.5c0-0.2,0-0.4,0.1-0.6c0.7-1.2,1.4-2.5,2-3.7c0.6-1.2,1.1-2.5,1.5-3.7
		c0.2-0.6,0.4-1.1,0.5-1.7c0.2-0.6,0.3-1.1,0.4-1.6c0.1-0.5,0.2-0.9,0.3-1.3c0.1-0.4,0.2-0.7,0.2-1c0-0.2,0.2-0.4,0.4-0.6
		c0.2-0.2,0.4-0.2,0.7-0.2c0.3,0,0.7,0.1,1,0.1c0.3,0.1,0.5,0.1,0.6,0.2c0.2,0.1,0.4,0.3,0.5,0.4C241.3,9.3,241.3,9.6,241.2,9.9
		L241.2,9.9z M241,21.4c-0.3-0.1-0.5-0.3-0.6-0.6c-0.2-0.3-0.1-0.6,0.2-0.9c0.7-0.8,1.3-1.6,1.8-2.5c0.5-0.9,1-1.8,1.4-2.7
		c0.4-0.9,0.8-1.8,1-2.6c0.3-0.8,0.5-1.6,0.7-2.3c0.1-0.5,0.5-0.8,1.1-0.8c0.2,0,0.5,0.1,0.8,0.2c0.3,0.1,0.5,0.2,0.7,0.3
		c0.2,0.1,0.3,0.3,0.4,0.5c0.1,0.2,0.1,0.5,0,0.7c-0.2,0.9-0.6,1.8-1,2.8c-0.5,1-1,2.1-1.6,3c-0.6,1-1.3,1.9-2,2.7
		c-0.7,0.8-1.4,1.5-2,1.9c-0.1,0.1-0.2,0.1-0.4,0.1C241.2,21.5,241.1,21.4,241,21.4L241,21.4z M256.8,20.3c0.9,0,1.6,0.2,1.9,0.6
		c0.3,0.4,0.5,0.9,0.5,1.5c0,0.6,0,1.4-0.1,2.5c-0.1,1.1-0.1,2.3-0.2,3.5c-0.1,1.2-0.2,2.3-0.3,3.4c-0.1,1.1-0.2,1.9-0.3,2.3
		c-0.3,1.2-0.7,2-1.3,2.5c-0.6,0.5-1.6,0.6-2.8,0.6c-0.3,0-0.8-0.1-1.3-0.1c-0.5-0.1-1-0.2-1.4-0.4c-0.2-0.1-0.4-0.2-0.5-0.4
		c-0.1-0.1-0.1-0.3-0.1-0.4c0-0.1,0-0.2,0.1-0.4c0-0.1,0.1-0.2,0.1-0.3c0.1-0.1,0.2-0.2,0.3-0.3c0.1-0.1,0.3-0.1,0.5-0.1
		c0.3,0,0.6,0.1,1,0.1c0.4,0,0.6,0,0.8,0c0.5,0,0.8-0.1,1-0.3c0.2-0.2,0.4-0.5,0.4-0.8c0-0.2,0.1-0.5,0.2-1s0.1-1.1,0.2-1.8
		c0.1-0.7,0.1-1.4,0.2-2.2c0.1-0.8,0.1-1.6,0.2-2.3c0-0.7,0.1-1.4,0.1-2c0-0.6,0-1.1,0-1.4c0-0.4-0.2-0.6-0.6-0.6h-4.8
		c0.1,0.2,0.1,0.4,0.1,0.7c-0.1,1.7-0.3,3.3-0.8,4.8c-0.5,1.5-1.1,2.8-1.9,4c-0.8,1.2-1.7,2.2-2.6,3.1c-1,0.9-2,1.6-3.1,2.1
		c-0.2,0.1-0.4,0.1-0.6,0.1c-0.2,0-0.4,0-0.5-0.1c-0.2-0.1-0.3-0.2-0.4-0.4s-0.2-0.3-0.2-0.4c-0.1-0.4,0.1-0.7,0.4-1
		c0.9-0.7,1.7-1.4,2.5-2.2c0.8-0.8,1.5-1.7,2.1-2.7c0.6-1,1.1-2.2,1.4-3.5c0.3-1.3,0.5-2.8,0.5-4.6h-3.4c-0.4,0-0.7-0.2-0.8-0.7
		c0-0.2-0.1-0.4,0-0.6c0-0.2,0.1-0.3,0.1-0.5c0.1-0.3,0.4-0.5,0.9-0.5L256.8,20.3L256.8,20.3z M262.3,18.8c0.2,0.2,0.2,0.4,0.2,0.7
		c-0.1,0.3-0.2,0.6-0.3,0.7c-0.2,0.2-0.4,0.4-0.6,0.5c-0.2,0.1-0.5,0.2-0.7,0.4c-0.2,0-0.3,0-0.6,0c-0.2,0-0.4-0.1-0.6-0.3
		c-0.6-0.5-1.1-1.1-1.6-1.8c-0.5-0.8-1-1.6-1.4-2.4c-0.4-0.8-0.8-1.7-1.1-2.6c-0.3-0.9-0.6-1.7-0.9-2.5c-0.1-0.6-0.4-0.9-0.8-0.9
		h-0.3c-0.3,0-0.6-0.1-0.8-0.3c-0.1-0.1-0.2-0.3-0.2-0.5c0-0.2,0-0.5,0.1-0.6c0.1-0.3,0.4-0.5,0.9-0.5h0.9c1.1,0,1.9,0.6,2.4,1.9
		c0.4,1,0.7,1.9,1.1,2.6c0.3,0.7,0.7,1.4,1.1,2c0.4,0.6,0.8,1.2,1.4,1.8C260.8,17.5,261.5,18.1,262.3,18.8L262.3,18.8z"/>
	<path class="st0" d="M294.4,12c0.1,0.4,0.1,0.8,0,1.1c-0.1,0.3-0.4,0.5-0.9,0.5h-14.5c-0.4,0.6-0.9,1.2-1.3,1.8
		c-0.4,0.6-0.9,1.1-1.4,1.6h13.8c1.7,0,2.5,0.8,2.5,2.5v14c0,1.2-0.4,2.1-1.2,2.8c-0.8,0.7-1.9,1-3.4,1c-0.6,0-1.2-0.1-1.7-0.2
		c-0.5-0.1-1.1-0.3-1.7-0.5c-0.3-0.1-0.5-0.3-0.6-0.5c-0.1-0.2-0.1-0.4-0.1-0.5c0.1-0.3,0.2-0.6,0.3-0.8c0.1-0.2,0.2-0.3,0.4-0.3
		c0.2-0.1,0.3-0.1,0.5,0c0.5,0,0.9,0.1,1.4,0.2c0.4,0.1,0.8,0.1,1.1,0.1c0.7,0,1.2-0.2,1.4-0.4c0.3-0.2,0.4-0.6,0.4-1.1v-2.7h-15
		c-0.1,1.7-0.3,3-0.5,4c-0.3,1-0.4,1.7-0.6,2.1c-0.1,0.3-0.2,0.5-0.4,0.6s-0.3,0.2-0.5,0.2c-0.2,0-0.4,0-0.5,0
		c-0.1,0-0.3-0.1-0.5-0.1c-0.4-0.1-0.5-0.5-0.4-1c0-0.3,0.1-0.8,0.2-1.5c0.1-0.7,0.1-1.5,0.2-2.3c0.1-0.8,0.1-1.7,0.2-2.5
		c0.1-0.9,0.1-1.6,0.1-2.3v-6.6c-0.8,0.6-1.6,1-2.3,1.4c-0.7,0.4-1.4,0.7-2,1c-0.5,0.2-0.8,0.2-1.1,0c-0.2-0.1-0.3-0.2-0.4-0.4
		c-0.1-0.2-0.2-0.3-0.2-0.5c-0.1-0.3,0.1-0.6,0.4-0.8c1.1-0.7,2.1-1.4,3-2.1c0.9-0.7,1.7-1.3,2.5-2c0.7-0.7,1.4-1.3,2-2
		c0.6-0.7,1.1-1.3,1.5-2h-8.4c-0.6,0-0.9-0.2-1-0.5c-0.1-0.3-0.1-0.7,0-1.1c0.1-0.4,0.4-0.6,1-0.6h9.6c0.2-0.4,0.4-0.7,0.5-1.1
		c0.2-0.4,0.3-0.8,0.5-1.2c0.2-0.4,0.4-0.6,0.7-0.7c0.3-0.1,0.6-0.2,0.9-0.1c0.3,0,0.6,0.1,0.9,0.3c0.3,0.1,0.5,0.2,0.6,0.3
		c0.2,0.2,0.4,0.4,0.5,0.7c0.1,0.3,0.1,0.6,0,0.9l-0.5,1h13.2C294.1,11.5,294.4,11.7,294.4,12L294.4,12z M289.5,24.6h-14.7V26
		c0,0.2,0,0.4,0,0.6c0,0.3,0,0.5,0,0.8c0,0.2,0,0.3,0,0.5v0.6h14.8V24.6L289.5,24.6z M289.5,20.1c0-0.7-0.3-1.1-1-1.1h-12.9
		c-0.6,0-0.8,0.4-0.8,1.1v2.5h14.7V20.1z"/>
	<path class="st0" d="M308.2,25c0,0.8-0.1,1.6-0.3,2.3c-0.2,0.7-0.6,1.2-1,1.6s-1.1,0.7-1.8,0.8c-0.7,0.1-1.6,0.1-2.6-0.1l-0.5-0.1
		l-0.4-0.1l0,6.9c0,0.2-0.1,0.4-0.2,0.5c-0.1,0.2-0.3,0.2-0.4,0.3c-0.2,0.1-0.5,0.1-0.9,0.1c-0.4,0-0.6,0-0.8-0.1
		c-0.3-0.1-0.4-0.4-0.4-0.8v-25c0-1.4,0.7-2.1,2.2-2.1h6c0.6,0,1.1,0.2,1.3,0.6c0.2,0.4,0.3,0.9,0.1,1.5c-0.1,0.4-0.3,0.9-0.6,1.5
		c-0.3,0.7-0.6,1.3-0.9,2l-1.2,2.5c-0.1,0.3-0.1,0.5-0.1,0.7c0,0.2,0.1,0.3,0.2,0.5c0.8,1.1,1.3,2.1,1.8,3.2
		C307.9,22.7,308.1,23.8,308.2,25L308.2,25z M305.2,26.5c0.2-0.8,0.2-1.9,0-3.2c-0.2-1.3-0.7-2.8-1.4-4.7c-0.2-0.4-0.3-0.9-0.1-1.5
		c0-0.2,0.1-0.6,0.3-1.1c0.2-0.6,0.3-1.2,0.5-1.9c0.2-0.7,0.4-1.6,0.7-2.6c0-0.4-0.1-0.6-0.5-0.6h-2.4c-0.3,0-0.4,0.1-0.5,0.2
		c-0.1,0.1-0.1,0.3-0.1,0.6l0,16.1c0.2-0.1,0.4-0.2,0.7-0.1c0.2,0,0.4,0,0.8,0s0.7,0,0.9-0.1C304.7,27.6,305.1,27.2,305.2,26.5
		L305.2,26.5z M326.5,34.2c0.3,0.2,0.4,0.4,0.5,0.7c0.1,0.3,0,0.5-0.1,0.7c-0.2,0.3-0.3,0.5-0.5,0.6c-0.2,0.2-0.4,0.4-0.7,0.6
		c-0.2,0.1-0.5,0.2-0.8,0.2c-0.3,0-0.7-0.1-1.2-0.4c-1.3-0.8-2.5-1.7-3.4-2.7c-1-1-1.8-2-2.5-3c-0.7-1.1-1.3-2.1-1.8-3.2
		c-0.5-1.1-0.9-2.2-1.2-3.3c-0.1-0.2-0.1-0.4,0-0.6c0-0.2,0.2-0.4,0.4-0.5l0.1,0h-2.4v10c0.4-0.1,0.7-0.2,0.9-0.2s0.5-0.1,0.7-0.2
		c0.2-0.1,0.5-0.1,0.7-0.2c0.2-0.1,0.5-0.1,0.8-0.2c0.5-0.2,0.9-0.1,1.1,0.1c0.2,0.2,0.3,0.5,0.4,0.8c0,0.2,0,0.4-0.1,0.6
		c-0.1,0.2-0.3,0.4-0.5,0.5c-0.4,0.2-0.9,0.5-1.6,0.8c-0.6,0.3-1.3,0.5-2,0.8c-0.7,0.2-1.4,0.5-2.1,0.7c-0.7,0.2-1.3,0.4-1.8,0.5
		c-0.2,0-0.4,0-0.7-0.1c-0.2-0.1-0.4-0.3-0.5-0.5c-0.1-0.1-0.1-0.4-0.2-0.7s-0.1-0.7-0.1-0.9c0-0.2,0.1-0.3,0.2-0.5
		c0.1-0.1,0.3-0.2,0.5-0.3l1.2-0.2V11.3c0-1.4,0.7-2,2.2-2h11.1c1.5,0,2.2,0.7,2.2,2V21c0,1.5-0.7,2.2-2.2,2.2h-6.7
		c0.1,0.1,0.2,0.3,0.3,0.5c0.4,1,0.8,1.9,1.2,2.7c0.4,0.7,0.8,1.4,1.2,2c1-0.7,1.9-1.4,2.7-2c0.9-0.7,1.6-1.2,2.3-1.8
		c0.2-0.2,0.5-0.2,0.7-0.2c0.3,0,0.5,0.1,0.6,0.3c0.2,0.2,0.3,0.3,0.5,0.5c0.1,0.2,0.3,0.5,0.4,0.8c0.1,0.2,0.1,0.5,0,0.7
		c-0.1,0.3-0.2,0.5-0.4,0.6c-0.4,0.2-0.8,0.5-1.3,0.7c-0.5,0.3-1,0.5-1.5,0.7c-0.5,0.2-1,0.5-1.5,0.7c-0.5,0.2-1,0.4-1.3,0.5
		c0.7,0.8,1.6,1.5,2.6,2.2C323.9,32.7,325.1,33.4,326.5,34.2L326.5,34.2z M312.8,15.1h9.7V12c0-0.5-0.2-0.7-0.7-0.7h-8.4
		c-0.2,0-0.4,0.1-0.5,0.2c-0.1,0.1-0.1,0.3-0.1,0.6L312.8,15.1L312.8,15.1z M321.7,21.2c0.5,0,0.7-0.3,0.7-0.8v-3.3h-9.7v3.3l0,0.8
		H321.7L321.7,21.2z"/>
	<path class="st0" d="M337.2,17.4c-1,1.6-1.9,2.9-2.7,4c-0.9,1.1-1.6,1.8-2.1,2.2c-0.2,0.2-0.4,0.3-0.6,0.3c-0.2,0.1-0.4,0.1-0.6,0
		c-0.2-0.1-0.3-0.1-0.4-0.2c-0.1-0.1-0.2-0.2-0.3-0.3c-0.1-0.2-0.1-0.3-0.1-0.5c0-0.2,0.1-0.3,0.2-0.5c1.4-1.9,2.6-3.8,3.6-5.8
		c1-2,1.8-4,2.4-6.2c0.2-0.6,0.6-0.9,1.2-0.9c0.1,0,0.3,0,0.4,0.1c0.2,0,0.3,0.1,0.5,0.1c0.2,0.1,0.3,0.1,0.5,0.2
		c0.1,0.1,0.2,0.1,0.3,0.2c0.2,0.1,0.3,0.3,0.4,0.5c0.1,0.2,0.1,0.5,0,0.8c-0.3,1.1-0.7,2.1-1.2,3C338.4,15.4,337.8,16.4,337.2,17.4
		L337.2,17.4z M350.7,25.2c0.5,0.5,1,1.1,1.6,1.9c0.6,0.7,1.2,1.5,1.8,2.4c0.6,0.9,1.2,1.8,1.7,2.7c0.5,0.9,1,1.8,1.4,2.7
		c0.1,0.3,0.1,0.6,0,0.8c-0.1,0.3-0.3,0.5-0.4,0.6c-0.5,0.4-1,0.6-1.7,0.7c-0.2,0-0.5,0-0.7-0.1c-0.2-0.1-0.4-0.3-0.6-0.6
		c-0.2-0.4-0.4-0.9-0.6-1.3c-0.2-0.4-0.4-0.8-0.6-1.2c-0.4,0.1-1.1,0.3-2,0.5c-0.8,0.2-1.8,0.4-2.9,0.6c-1.1,0.2-2.3,0.4-3.5,0.6
		c-1.3,0.2-2.5,0.4-3.8,0.5c-1.3,0.2-2.5,0.3-3.7,0.4c-1.2,0.1-2.2,0.2-3.2,0.2c-0.3,0-0.5-0.1-0.8-0.2c-0.3-0.1-0.4-0.3-0.4-0.6
		c-0.1-0.3-0.1-0.5-0.1-0.8c0-0.2,0-0.5,0-0.7c0-0.3,0.1-0.5,0.3-0.7c0.2-0.2,0.4-0.3,0.7-0.3c0,0,0.2,0,0.4,0c0.2,0,0.5,0,0.9,0
		c0.3-0.4,0.6-1.1,1.1-2c0.5-0.9,1-1.9,1.6-3.1c0.6-1.2,1.2-2.4,1.9-3.8c0.6-1.3,1.2-2.7,1.8-4c0.1-0.2,0.3-0.4,0.5-0.6
		c0.2-0.2,0.5-0.2,0.8-0.2c0.3,0,0.6,0.1,1,0.2c0.4,0.1,0.6,0.2,0.8,0.3c0.2,0.1,0.3,0.3,0.4,0.6c0.1,0.3,0.1,0.6-0.1,0.9
		c-0.5,1.1-1,2.1-1.6,3.2c-0.6,1-1.2,2-1.8,3c-0.6,1-1.2,1.9-1.9,2.8c-0.6,0.9-1.2,1.7-1.9,2.5c0.8,0,1.5-0.1,2.4-0.1
		c0.8,0,1.7-0.1,2.5-0.2c1.9-0.1,3.7-0.3,5.3-0.5c1.7-0.2,3-0.3,4-0.5c-0.5-0.9-1-1.8-1.4-2.7c-0.5-0.9-1-1.8-1.5-2.7
		c-0.1-0.2-0.2-0.4-0.2-0.6c0-0.2,0.1-0.4,0.2-0.5c0.2-0.2,0.3-0.3,0.4-0.4c0.1-0.1,0.3-0.1,0.4-0.2
		C349.9,24.7,350.4,24.8,350.7,25.2L350.7,25.2z M358.5,20.9c0.2,0.2,0.3,0.4,0.4,0.7c0.1,0.3,0.1,0.6-0.1,0.8
		c-0.2,0.3-0.5,0.6-0.8,0.8c-0.3,0.2-0.6,0.4-0.8,0.5c-0.2,0.1-0.4,0.1-0.7,0.1c-0.3,0-0.6-0.1-0.8-0.3c-0.6-0.4-1.4-1.2-2.2-2.3
		c-0.9-1.1-1.7-2.4-2.5-3.9c-0.4-0.7-0.8-1.6-1-2.5c-0.3-1-0.5-1.9-0.8-2.8c-0.2-0.7-0.5-1-1-1h-2c-0.2,0-0.4,0-0.5-0.1
		c-0.1-0.1-0.2-0.1-0.3-0.2c-0.1-0.1-0.2-0.3-0.2-0.6c0-0.3,0-0.6,0-0.7c0.1-0.3,0.5-0.5,1-0.5h2.7c1.3,0,2.2,0.7,2.7,2.1
		c0.4,1.1,0.9,2.1,1.3,3c0.4,0.9,0.9,1.7,1.4,2.5c0.5,0.8,1.1,1.5,1.8,2.2C356.7,19.4,357.5,20.1,358.5,20.9L358.5,20.9z"/>
	<path class="st0" d="M383.6,14.7c0.1,0.4,0.1,0.8,0,1.3c0,0.2-0.2,0.3-0.4,0.3c-0.2,0.1-0.4,0.1-0.6,0.1h-18c-0.5,0-0.8-0.2-1-0.6
		c-0.2-0.3-0.1-0.7,0-1.1c0.1-0.3,0.4-0.5,0.9-0.5h18c0.3,0,0.5,0,0.7,0.1C383.4,14.4,383.5,14.5,383.6,14.7L383.6,14.7z M386.9,9.2
		c1.8,0,2.7,0.9,2.7,2.7v20.7c0,1.5-0.4,2.6-1.2,3.3c-0.8,0.7-2,1-3.7,1c-0.9,0-1.7-0.1-2.5-0.2c-0.8-0.2-1.4-0.3-2-0.6
		c-0.3-0.1-0.5-0.2-0.6-0.4c-0.1-0.2-0.2-0.4-0.2-0.7c0-0.2,0.1-0.4,0.2-0.7c0.2-0.3,0.4-0.5,0.9-0.5c1.4,0.1,2.7,0.2,3.7,0.2
		c1.4,0,2.1-0.7,2.1-1.9V12.8c0-0.9-0.4-1.3-1.2-1.3h-19.8c-0.3,0-0.5,0-0.6-0.1c-0.2-0.1-0.3-0.2-0.4-0.4c-0.1-0.1-0.1-0.3-0.1-0.6
		c0-0.3,0-0.5,0-0.6c0.1-0.4,0.5-0.6,1.1-0.6L386.9,9.2L386.9,9.2z M379.4,19.2c1.8,0,2.7,0.8,2.7,2.6v6.5c0,1.8-0.9,2.7-2.7,2.7
		h-11.9c-1.8,0-2.7-0.9-2.7-2.7v-6.5c0-1.7,0.9-2.6,2.7-2.6H379.4L379.4,19.2z M379,27.6v-5.2c0-0.8-0.4-1.1-1.1-1.1h-8.9
		c-0.7,0-1.1,0.4-1.1,1.1v5.2c0,0.8,0.4,1.2,1.1,1.2h8.9C378.6,28.8,379,28.4,379,27.6L379,27.6z"/>
	<path class="st0" d="M78.7,50.7c0,0.5-0.1,1-0.4,1.4c-0.3,0.4-0.7,0.8-1.2,1c-0.5,0.2-1.2,0.4-1.9,0.4c-0.9,0-1.6-0.2-2.2-0.5
		c-0.4-0.2-0.7-0.6-1-0.9c-0.3-0.4-0.4-0.8-0.4-1.2c0-0.2,0.1-0.4,0.2-0.6c0.2-0.2,0.3-0.2,0.6-0.2c0.2,0,0.3,0.1,0.5,0.2
		c0.1,0.1,0.2,0.3,0.3,0.5c0.1,0.3,0.2,0.5,0.4,0.7c0.1,0.2,0.3,0.3,0.5,0.5c0.2,0.1,0.5,0.2,0.9,0.2c0.5,0,1-0.1,1.3-0.4
		c0.3-0.2,0.5-0.6,0.5-0.9c0-0.3-0.1-0.5-0.3-0.7c-0.2-0.2-0.4-0.3-0.7-0.4c-0.3-0.1-0.7-0.2-1.1-0.3c-0.6-0.1-1.2-0.3-1.6-0.5
		c-0.4-0.2-0.8-0.5-1-0.8c-0.3-0.3-0.4-0.8-0.4-1.3s0.1-0.9,0.4-1.3c0.3-0.4,0.6-0.7,1.1-0.9c0.5-0.2,1.1-0.3,1.8-0.3
		c0.5,0,1,0.1,1.4,0.2c0.4,0.1,0.7,0.3,1,0.5c0.3,0.2,0.4,0.5,0.6,0.7s0.2,0.5,0.2,0.7c0,0.2-0.1,0.4-0.2,0.6
		c-0.2,0.2-0.3,0.3-0.6,0.3c-0.2,0-0.4-0.1-0.5-0.2c-0.1-0.1-0.2-0.3-0.3-0.5c-0.2-0.3-0.4-0.6-0.6-0.8c-0.2-0.2-0.6-0.3-1.1-0.3
		c-0.5,0-0.8,0.1-1.1,0.3c-0.3,0.2-0.4,0.4-0.4,0.7c0,0.2,0,0.3,0.1,0.5c0.1,0.1,0.2,0.2,0.4,0.3c0.2,0.1,0.3,0.2,0.5,0.2
		c0.2,0,0.5,0.1,0.9,0.2c0.5,0.1,0.9,0.2,1.3,0.4s0.7,0.3,1,0.5c0.3,0.2,0.5,0.5,0.7,0.8C78.7,49.9,78.8,50.2,78.7,50.7L78.7,50.7z"
		/>
	<path class="st0" d="M86.3,49.9h-1.6v2.5c0,0.4-0.1,0.6-0.3,0.8c-0.2,0.2-0.4,0.3-0.6,0.3c-0.3,0-0.5-0.1-0.6-0.3
		c-0.2-0.2-0.2-0.5-0.2-0.8v-6.8c0-0.4,0.1-0.7,0.3-0.8c0.2-0.2,0.5-0.3,0.9-0.3h2.3c0.7,0,1.2,0.1,1.6,0.2c0.4,0.1,0.7,0.3,0.9,0.5
		c0.3,0.2,0.5,0.5,0.6,0.9c0.1,0.3,0.2,0.7,0.2,1.1c0,0.9-0.3,1.6-0.8,2C88.3,49.6,87.4,49.9,86.3,49.9L86.3,49.9z M85.9,45.8h-1.2
		v2.7h1.2c0.4,0,0.8,0,1.1-0.1c0.3-0.1,0.5-0.2,0.6-0.4c0.1-0.2,0.2-0.5,0.2-0.8c0-0.4-0.1-0.7-0.3-0.9C87.2,46,86.7,45.8,85.9,45.8
		z"/>
	<path class="st0" d="M99.6,45.9h-4V48h3.7c0.3,0,0.5,0.1,0.6,0.2c0.1,0.1,0.2,0.3,0.2,0.5c0,0.2-0.1,0.4-0.2,0.5
		c-0.1,0.1-0.3,0.2-0.6,0.2h-3.7v2.5h4.1c0.3,0,0.5,0.1,0.6,0.2c0.1,0.1,0.2,0.3,0.2,0.5s-0.1,0.4-0.2,0.5c-0.1,0.1-0.4,0.2-0.6,0.2
		h-4.8c-0.4,0-0.7-0.1-0.8-0.3c-0.2-0.2-0.3-0.5-0.3-0.8v-6.6c0-0.3,0-0.5,0.1-0.6c0.1-0.2,0.2-0.3,0.4-0.4c0.2-0.1,0.4-0.1,0.6-0.1
		h4.7c0.3,0,0.5,0.1,0.6,0.2c0.1,0.1,0.2,0.3,0.2,0.5c0,0.2-0.1,0.4-0.2,0.5C100.1,45.8,99.9,45.9,99.6,45.9L99.6,45.9z"/>
	<path class="st0" d="M110.5,45.9h-4V48h3.7c0.3,0,0.5,0.1,0.6,0.2c0.1,0.1,0.2,0.3,0.2,0.5c0,0.2-0.1,0.4-0.2,0.5
		c-0.1,0.1-0.3,0.2-0.6,0.2h-3.7v2.5h4.1c0.3,0,0.5,0.1,0.6,0.2c0.1,0.1,0.2,0.3,0.2,0.5s-0.1,0.4-0.2,0.5c-0.1,0.1-0.3,0.2-0.6,0.2
		h-4.8c-0.4,0-0.7-0.1-0.8-0.3c-0.2-0.2-0.3-0.5-0.3-0.8v-6.6c0-0.3,0-0.5,0.1-0.6c0.1-0.2,0.2-0.3,0.4-0.4c0.2-0.1,0.4-0.1,0.6-0.1
		h4.7c0.3,0,0.5,0.1,0.6,0.2c0.1,0.1,0.2,0.3,0.2,0.5c0,0.2-0.1,0.4-0.2,0.5C111,45.8,110.8,45.9,110.5,45.9L110.5,45.9z"/>
	<path class="st0" d="M116.7,44.5h2.3c0.6,0,1.1,0.1,1.6,0.2c0.4,0.1,0.8,0.3,1.2,0.6c0.9,0.8,1.4,2,1.4,3.6c0,0.5,0,1-0.1,1.4
		c-0.1,0.4-0.2,0.8-0.4,1.2c-0.2,0.4-0.4,0.7-0.7,0.9c-0.2,0.2-0.5,0.4-0.8,0.5c-0.3,0.1-0.6,0.2-0.9,0.3c-0.3,0.1-0.7,0.1-1.1,0.1
		h-2.3c-0.3,0-0.6,0-0.7-0.1c-0.2-0.1-0.3-0.2-0.3-0.4c0-0.2-0.1-0.4-0.1-0.7v-6.5c0-0.4,0.1-0.7,0.3-0.8
		C116,44.6,116.3,44.5,116.7,44.5L116.7,44.5z M117.4,45.9v6h1.4c0.3,0,0.5,0,0.7,0c0.2,0,0.3-0.1,0.5-0.1c0.2-0.1,0.3-0.2,0.5-0.3
		c0.6-0.5,0.9-1.4,0.9-2.6c0-0.9-0.1-1.5-0.4-2c-0.3-0.4-0.6-0.7-1-0.8c-0.4-0.1-0.8-0.2-1.4-0.2H117.4L117.4,45.9z"/>
	<path class="st0" d="M127.4,52.4v-6.9c0-0.4,0.1-0.6,0.2-0.8c0.2-0.2,0.4-0.3,0.6-0.3c0.3,0,0.5,0.1,0.6,0.3
		c0.2,0.2,0.3,0.5,0.3,0.8v6.9c0,0.4-0.1,0.6-0.3,0.8c-0.2,0.2-0.4,0.3-0.6,0.3s-0.5-0.1-0.6-0.3C127.5,53,127.4,52.8,127.4,52.4
		L127.4,52.4z"/>
	<path class="st0" d="M136.2,45.4l3.4,5.2v-5.2c0-0.3,0.1-0.6,0.2-0.8c0.1-0.2,0.3-0.3,0.6-0.3c0.2,0,0.5,0.1,0.6,0.3
		c0.1,0.2,0.2,0.4,0.2,0.8v6.9c0,0.8-0.3,1.2-1,1.2c-0.2,0-0.3,0-0.4-0.1c-0.1,0-0.3-0.1-0.4-0.2c-0.1-0.1-0.2-0.2-0.3-0.4
		c-0.1-0.1-0.2-0.3-0.3-0.4l-3.3-5.1v5.2c0,0.3-0.1,0.6-0.2,0.8c-0.2,0.2-0.4,0.3-0.6,0.3s-0.4-0.1-0.6-0.3
		c-0.2-0.2-0.2-0.4-0.2-0.8v-6.8c0-0.3,0-0.5,0.1-0.7c0.1-0.2,0.2-0.3,0.4-0.4c0.2-0.1,0.4-0.2,0.6-0.2c0.2,0,0.3,0,0.4,0.1
		c0.1,0.1,0.2,0.1,0.3,0.2c0.1,0.1,0.2,0.2,0.3,0.3C136,45.1,136.1,45.3,136.2,45.4L136.2,45.4z"/>
	<path class="st0" d="M153.9,49.7v1.7c0,0.2,0,0.4-0.1,0.5c0,0.1-0.1,0.3-0.2,0.4c-0.1,0.1-0.3,0.2-0.4,0.3c-0.5,0.3-1,0.5-1.5,0.6
		c-0.5,0.1-1,0.2-1.6,0.2c-0.7,0-1.3-0.1-1.8-0.3c-0.6-0.2-1-0.5-1.4-0.9c-0.4-0.4-0.7-0.9-0.9-1.4c-0.2-0.6-0.3-1.2-0.3-1.9
		c0-0.7,0.1-1.3,0.3-1.9c0.2-0.6,0.5-1.1,0.9-1.5c0.4-0.4,0.9-0.7,1.4-0.9c0.6-0.2,1.2-0.3,1.9-0.3c0.6,0,1.1,0.1,1.6,0.2
		c0.5,0.2,0.8,0.4,1.1,0.6c0.3,0.2,0.5,0.5,0.6,0.8c0.1,0.3,0.2,0.5,0.2,0.7c0,0.2-0.1,0.4-0.3,0.6c-0.2,0.2-0.4,0.2-0.6,0.2
		c-0.1,0-0.3,0-0.4-0.1c-0.1-0.1-0.2-0.1-0.3-0.3c-0.2-0.3-0.4-0.6-0.6-0.8c-0.2-0.2-0.4-0.3-0.6-0.4c-0.3-0.1-0.6-0.2-1-0.2
		c-0.4,0-0.8,0.1-1.1,0.2c-0.3,0.1-0.6,0.4-0.8,0.6c-0.2,0.3-0.4,0.6-0.5,1c-0.1,0.4-0.2,0.8-0.2,1.3c0,1,0.2,1.8,0.7,2.4
		c0.5,0.6,1.1,0.8,2,0.8c0.4,0,0.8-0.1,1.2-0.2c0.4-0.1,0.7-0.3,1.1-0.5V50h-1.4c-0.3,0-0.6-0.1-0.8-0.2c-0.2-0.1-0.3-0.3-0.3-0.5
		c0-0.2,0.1-0.4,0.2-0.5c0.1-0.1,0.3-0.2,0.6-0.2h2c0.3,0,0.5,0,0.6,0.1c0.2,0,0.3,0.1,0.4,0.3C153.9,49.2,153.9,49.4,153.9,49.7
		L153.9,49.7z"/>
	<path class="st0" d="M166.5,49.6h-0.6v2.8c0,0.4-0.1,0.7-0.2,0.8c-0.2,0.2-0.4,0.3-0.6,0.3c-0.3,0-0.5-0.1-0.7-0.3
		c-0.2-0.2-0.2-0.5-0.2-0.8v-6.8c0-0.4,0.1-0.7,0.3-0.8c0.2-0.2,0.4-0.3,0.8-0.3h2.9c0.4,0,0.7,0,1,0.1c0.3,0,0.5,0.1,0.8,0.2
		c0.3,0.1,0.5,0.3,0.7,0.5c0.2,0.2,0.4,0.5,0.5,0.8c0.1,0.3,0.2,0.6,0.2,0.9c0,0.7-0.2,1.2-0.6,1.6c-0.4,0.4-0.9,0.7-1.7,0.8
		c0.3,0.2,0.6,0.4,0.9,0.7c0.3,0.3,0.5,0.7,0.8,1c0.2,0.4,0.4,0.7,0.5,1c0.1,0.3,0.2,0.5,0.2,0.6c0,0.1,0,0.2-0.1,0.3
		c-0.1,0.1-0.2,0.2-0.3,0.3c-0.1,0.1-0.3,0.1-0.4,0.1c-0.2,0-0.4,0-0.5-0.1c-0.1-0.1-0.3-0.2-0.4-0.4c-0.1-0.1-0.2-0.4-0.4-0.6
		l-0.7-1.2c-0.3-0.4-0.5-0.8-0.7-1c-0.2-0.2-0.4-0.4-0.6-0.5C167,49.6,166.8,49.5,166.5,49.6L166.5,49.6z M167.5,45.9h-1.6v2.4h1.6
		c0.4,0,0.8,0,1.1-0.1c0.3-0.1,0.5-0.2,0.7-0.4c0.2-0.2,0.2-0.4,0.2-0.7c0-0.2-0.1-0.5-0.2-0.7c-0.1-0.2-0.3-0.3-0.5-0.4
		C168.5,45.9,168.1,45.9,167.5,45.9L167.5,45.9z"/>
	<path class="st0" d="M179.5,44.4c0.9,0,1.7,0.2,2.3,0.6c0.7,0.4,1.2,0.9,1.5,1.6c0.3,0.7,0.5,1.5,0.5,2.4c0,0.7-0.1,1.3-0.3,1.9
		c-0.2,0.6-0.5,1-0.8,1.4c-0.4,0.4-0.8,0.7-1.4,0.9c-0.5,0.2-1.2,0.3-1.8,0.3s-1.3-0.1-1.8-0.3c-0.5-0.2-1-0.5-1.4-0.9
		c-0.4-0.4-0.6-0.9-0.8-1.5c-0.2-0.6-0.3-1.2-0.3-1.8c0-0.7,0.1-1.3,0.3-1.9c0.2-0.6,0.5-1,0.8-1.4s0.8-0.7,1.3-0.9
		C178.2,44.5,178.8,44.4,179.5,44.4L179.5,44.4z M182,48.9c0-0.6-0.1-1.2-0.3-1.7c-0.2-0.5-0.5-0.8-0.9-1.1
		c-0.4-0.2-0.8-0.4-1.3-0.4c-0.4,0-0.7,0.1-1,0.2c-0.3,0.1-0.6,0.3-0.8,0.6c-0.2,0.3-0.4,0.6-0.5,1c-0.1,0.4-0.2,0.8-0.2,1.3
		c0,0.5,0.1,1,0.2,1.4c0.1,0.4,0.3,0.7,0.5,1c0.2,0.3,0.5,0.5,0.8,0.6c0.3,0.1,0.6,0.2,1,0.2c0.5,0,0.9-0.1,1.3-0.3s0.7-0.6,0.9-1.1
		C181.9,50.2,182,49.6,182,48.9L182,48.9z"/>
	<path class="st0" d="M195.5,50.5c0,0.3-0.1,0.6-0.2,0.9c-0.1,0.3-0.4,0.7-0.6,1c-0.3,0.3-0.7,0.6-1.1,0.8c-0.5,0.2-1,0.3-1.6,0.3
		c-0.5,0-0.9,0-1.3-0.1c-0.4-0.1-0.7-0.2-1-0.4c-0.3-0.2-0.6-0.4-0.9-0.7c-0.2-0.3-0.4-0.6-0.6-0.9c-0.2-0.3-0.3-0.7-0.4-1.1
		c-0.1-0.4-0.1-0.8-0.1-1.2c0-0.7,0.1-1.3,0.3-1.9c0.2-0.6,0.5-1,0.9-1.4c0.4-0.4,0.8-0.7,1.4-0.9c0.5-0.2,1.1-0.3,1.6-0.3
		c0.7,0,1.3,0.1,1.9,0.4c0.6,0.3,1,0.6,1.3,1.1c0.3,0.4,0.4,0.8,0.4,1.2c0,0.2-0.1,0.4-0.2,0.5c-0.1,0.2-0.3,0.2-0.5,0.2
		c-0.2,0-0.4-0.1-0.5-0.2s-0.2-0.3-0.4-0.6c-0.2-0.4-0.5-0.8-0.8-1c-0.3-0.2-0.7-0.3-1.2-0.3c-0.7,0-1.3,0.3-1.7,0.8
		c-0.4,0.6-0.6,1.3-0.6,2.4c0,0.7,0.1,1.3,0.3,1.7c0.2,0.5,0.5,0.8,0.8,1c0.4,0.2,0.8,0.3,1.2,0.3c0.5,0,0.9-0.1,1.3-0.4
		c0.4-0.3,0.6-0.6,0.8-1.1c0.1-0.2,0.2-0.4,0.3-0.6c0.1-0.1,0.3-0.2,0.5-0.2c0.2,0,0.4,0.1,0.5,0.2
		C195.4,50.1,195.5,50.3,195.5,50.5L195.5,50.5z"/>
	<path class="st0" d="M201.6,45.4v3.1l3.5-3.7c0.2-0.2,0.3-0.3,0.4-0.4c0.1-0.1,0.3-0.1,0.5-0.1c0.3,0,0.5,0.1,0.6,0.2
		c0.2,0.2,0.2,0.3,0.2,0.6c0,0.3-0.1,0.5-0.4,0.8l-2.2,2.1l2.5,3.6c0.2,0.3,0.3,0.5,0.4,0.7c0.1,0.2,0.1,0.4,0.1,0.5
		c0,0.2-0.1,0.4-0.2,0.5c-0.2,0.1-0.4,0.2-0.6,0.2c-0.3,0-0.4-0.1-0.6-0.2c-0.2-0.1-0.3-0.2-0.4-0.4c-0.1-0.2-0.2-0.3-0.3-0.5
		l-2.1-3.3l-1.5,1.4v1.8c0,0.4-0.1,0.6-0.3,0.8c-0.2,0.2-0.4,0.3-0.6,0.3c-0.2,0-0.3,0-0.4-0.1c-0.1-0.1-0.3-0.2-0.3-0.3
		c-0.1-0.1-0.1-0.2-0.1-0.4c0-0.1,0-0.4,0-0.6v-6.6c0-0.4,0.1-0.6,0.2-0.8c0.2-0.2,0.4-0.3,0.6-0.3c0.3,0,0.5,0.1,0.6,0.3
		C201.5,44.8,201.6,45.1,201.6,45.4L201.6,45.4z"/>
	<path class="st0" d="M217.4,45.9h-4V48h3.7c0.3,0,0.5,0.1,0.6,0.2c0.1,0.1,0.2,0.3,0.2,0.5c0,0.2-0.1,0.4-0.2,0.5
		c-0.1,0.1-0.3,0.2-0.6,0.2h-3.7v2.5h4.1c0.3,0,0.5,0.1,0.6,0.2c0.1,0.1,0.2,0.3,0.2,0.5s-0.1,0.4-0.2,0.5c-0.1,0.1-0.4,0.2-0.6,0.2
		h-4.8c-0.4,0-0.7-0.1-0.8-0.3c-0.2-0.2-0.3-0.5-0.3-0.8v-6.6c0-0.3,0-0.5,0.1-0.6c0.1-0.2,0.2-0.3,0.4-0.4c0.2-0.1,0.4-0.1,0.6-0.1
		h4.7c0.3,0,0.5,0.1,0.6,0.2c0.1,0.1,0.2,0.3,0.2,0.5c0,0.2-0.1,0.4-0.2,0.5C217.8,45.8,217.6,45.9,217.4,45.9L217.4,45.9z"/>
	<path class="st0" d="M228.1,46h-1.9v6.4c0,0.4-0.1,0.6-0.2,0.8c-0.2,0.2-0.4,0.3-0.6,0.3c-0.3,0-0.5-0.1-0.6-0.3
		c-0.2-0.2-0.3-0.5-0.3-0.8V46h-1.9c-0.3,0-0.5-0.1-0.7-0.2c-0.1-0.1-0.2-0.3-0.2-0.5c0-0.2,0.1-0.4,0.2-0.5
		c0.2-0.1,0.4-0.2,0.7-0.2h5.7c0.3,0,0.5,0.1,0.7,0.2c0.2,0.1,0.2,0.3,0.2,0.5c0,0.2-0.1,0.4-0.2,0.5C228.7,45.9,228.4,46,228.1,46
		L228.1,46z"/>
	<path class="st0" d="M246.1,50.5c0,0.3-0.1,0.6-0.2,0.9c-0.1,0.3-0.4,0.7-0.6,1c-0.3,0.3-0.7,0.6-1.1,0.8c-0.5,0.2-1,0.3-1.6,0.3
		c-0.5,0-0.9,0-1.3-0.1c-0.4-0.1-0.7-0.2-1-0.4c-0.3-0.2-0.6-0.4-0.9-0.7c-0.2-0.3-0.4-0.6-0.6-0.9c-0.2-0.3-0.3-0.7-0.4-1.1
		c-0.1-0.4-0.1-0.8-0.1-1.2c0-0.7,0.1-1.3,0.3-1.9c0.2-0.6,0.5-1,0.9-1.4c0.4-0.4,0.8-0.7,1.3-0.9c0.5-0.2,1.1-0.3,1.6-0.3
		c0.7,0,1.4,0.1,1.9,0.4c0.6,0.3,1,0.6,1.3,1.1c0.3,0.4,0.4,0.8,0.4,1.2c0,0.2-0.1,0.4-0.2,0.5c-0.1,0.2-0.3,0.2-0.5,0.2
		c-0.2,0-0.4-0.1-0.5-0.2c-0.1-0.1-0.2-0.3-0.4-0.6c-0.2-0.4-0.5-0.8-0.8-1c-0.3-0.2-0.7-0.3-1.2-0.3c-0.7,0-1.3,0.3-1.7,0.8
		c-0.4,0.6-0.6,1.3-0.6,2.4c0,0.7,0.1,1.3,0.3,1.7c0.2,0.5,0.5,0.8,0.8,1c0.4,0.2,0.8,0.3,1.2,0.3c0.5,0,0.9-0.1,1.3-0.4
		c0.4-0.3,0.6-0.6,0.8-1.1c0.1-0.2,0.2-0.4,0.3-0.6c0.1-0.1,0.3-0.2,0.5-0.2c0.2,0,0.4,0.1,0.5,0.2C246,50.1,246.1,50.3,246.1,50.5
		L246.1,50.5z"/>
	<path class="st0" d="M254.2,44.4c0.9,0,1.7,0.2,2.3,0.6c0.7,0.4,1.2,0.9,1.5,1.6c0.3,0.7,0.5,1.5,0.5,2.4c0,0.7-0.1,1.3-0.3,1.9
		c-0.2,0.6-0.5,1-0.8,1.4c-0.4,0.4-0.8,0.7-1.4,0.9c-0.5,0.2-1.2,0.3-1.8,0.3s-1.3-0.1-1.8-0.3c-0.5-0.2-1-0.5-1.4-0.9
		s-0.6-0.9-0.8-1.5c-0.2-0.6-0.3-1.2-0.3-1.8c0-0.7,0.1-1.3,0.3-1.9c0.2-0.6,0.5-1,0.8-1.4s0.8-0.7,1.3-0.9
		C252.9,44.5,253.5,44.4,254.2,44.4L254.2,44.4z M256.7,48.9c0-0.6-0.1-1.2-0.3-1.7c-0.2-0.5-0.5-0.8-0.9-1.1
		c-0.4-0.2-0.8-0.4-1.3-0.4c-0.4,0-0.7,0.1-1,0.2c-0.3,0.1-0.6,0.3-0.8,0.6c-0.2,0.3-0.4,0.6-0.5,1c-0.1,0.4-0.2,0.8-0.2,1.3
		c0,0.5,0.1,1,0.2,1.4c0.1,0.4,0.3,0.7,0.5,1c0.2,0.3,0.5,0.5,0.8,0.6c0.3,0.1,0.6,0.2,1,0.2c0.5,0,0.9-0.1,1.3-0.3
		c0.4-0.2,0.7-0.6,0.9-1.1C256.6,50.2,256.7,49.6,256.7,48.9L256.7,48.9z"/>
	<path class="st0" d="M265.7,52l-1.4-5.6v6.1c0,0.3-0.1,0.6-0.2,0.8c-0.2,0.2-0.4,0.3-0.6,0.3c-0.2,0-0.4-0.1-0.6-0.3
		c-0.2-0.2-0.2-0.4-0.2-0.8v-7c0-0.4,0.1-0.6,0.3-0.8c0.2-0.1,0.5-0.2,0.8-0.2h0.5c0.3,0,0.6,0,0.7,0.1c0.2,0.1,0.3,0.2,0.3,0.3
		c0.1,0.2,0.2,0.4,0.2,0.8l1.3,4.8l1.3-4.8c0.1-0.4,0.2-0.6,0.2-0.8c0.1-0.2,0.2-0.3,0.3-0.3c0.2-0.1,0.4-0.1,0.7-0.1h0.5
		c0.3,0,0.6,0.1,0.8,0.2c0.2,0.1,0.3,0.4,0.3,0.8v7c0,0.3-0.1,0.6-0.2,0.8c-0.2,0.2-0.4,0.3-0.6,0.3c-0.2,0-0.4-0.1-0.6-0.3
		c-0.2-0.2-0.2-0.4-0.2-0.8v-6.1l-1.4,5.6c-0.1,0.4-0.2,0.6-0.2,0.8c-0.1,0.2-0.2,0.3-0.3,0.5c-0.2,0.1-0.4,0.2-0.6,0.2
		c-0.2,0-0.4,0-0.5-0.1c-0.1-0.1-0.3-0.2-0.3-0.3c-0.1-0.1-0.1-0.3-0.2-0.5C265.8,52.3,265.8,52.2,265.7,52L265.7,52z"/>
	<path class="st0" d="M279.1,49.9h-1.6v2.5c0,0.4-0.1,0.6-0.3,0.8c-0.2,0.2-0.4,0.3-0.6,0.3c-0.3,0-0.5-0.1-0.6-0.3
		c-0.2-0.2-0.2-0.5-0.2-0.8v-6.8c0-0.4,0.1-0.7,0.3-0.8c0.2-0.2,0.5-0.3,0.9-0.3h2.3c0.7,0,1.2,0.1,1.6,0.2c0.4,0.1,0.7,0.3,0.9,0.5
		c0.3,0.2,0.5,0.5,0.6,0.9c0.1,0.3,0.2,0.7,0.2,1.1c0,0.9-0.3,1.6-0.8,2C281,49.6,280.2,49.9,279.1,49.9L279.1,49.9z M278.7,45.8
		h-1.2v2.7h1.2c0.4,0,0.8,0,1.1-0.1c0.3-0.1,0.5-0.2,0.6-0.4c0.1-0.2,0.2-0.5,0.2-0.8c0-0.4-0.1-0.7-0.3-0.9
		C280,46,279.5,45.8,278.7,45.8L278.7,45.8z"/>
	<path class="st0" d="M291.1,52.3l-0.4-1.1h-3.6l-0.4,1.1c-0.2,0.4-0.3,0.7-0.4,0.9c-0.1,0.2-0.3,0.2-0.6,0.2
		c-0.2,0-0.4-0.1-0.6-0.2c-0.2-0.2-0.3-0.4-0.3-0.6c0-0.1,0-0.2,0.1-0.4c0-0.1,0.1-0.3,0.2-0.5l2.2-5.7c0.1-0.2,0.1-0.4,0.2-0.6
		c0.1-0.2,0.2-0.4,0.3-0.6c0.1-0.2,0.2-0.3,0.4-0.4c0.2-0.1,0.4-0.1,0.6-0.1c0.2,0,0.5,0,0.6,0.1s0.3,0.2,0.4,0.4
		c0.1,0.1,0.2,0.3,0.3,0.5c0.1,0.2,0.2,0.4,0.3,0.7l2.3,5.7c0.2,0.4,0.3,0.7,0.3,0.9c0,0.2-0.1,0.4-0.3,0.6
		c-0.2,0.2-0.4,0.3-0.6,0.3c-0.1,0-0.3,0-0.4-0.1c-0.1-0.1-0.2-0.1-0.3-0.2c-0.1-0.1-0.1-0.2-0.2-0.4
		C291.2,52.6,291.2,52.5,291.1,52.3L291.1,52.3z M287.6,49.9h2.6l-1.3-3.6L287.6,49.9L287.6,49.9z"/>
	<path class="st0" d="M299.3,45.4l3.4,5.2v-5.2c0-0.3,0.1-0.6,0.2-0.8c0.1-0.2,0.3-0.3,0.6-0.3c0.2,0,0.5,0.1,0.6,0.3
		c0.1,0.2,0.2,0.4,0.2,0.8v6.9c0,0.8-0.3,1.2-1,1.2c-0.2,0-0.3,0-0.4-0.1c-0.1,0-0.3-0.1-0.4-0.2c-0.1-0.1-0.2-0.2-0.3-0.4
		c-0.1-0.1-0.2-0.3-0.3-0.4l-3.3-5.1v5.2c0,0.3-0.1,0.6-0.2,0.8c-0.2,0.2-0.4,0.3-0.6,0.3s-0.4-0.1-0.6-0.3
		c-0.2-0.2-0.2-0.4-0.2-0.8v-6.8c0-0.3,0-0.5,0.1-0.7c0.1-0.2,0.2-0.3,0.4-0.4c0.2-0.1,0.4-0.2,0.6-0.2c0.2,0,0.3,0,0.4,0.1
		c0.1,0.1,0.2,0.1,0.3,0.2c0.1,0.1,0.2,0.2,0.3,0.3C299.1,45.1,299.2,45.3,299.3,45.4L299.3,45.4z"/>
	<path class="st0" d="M311,52.4v-2.8l-2.2-3.3c-0.2-0.3-0.3-0.5-0.4-0.7c-0.1-0.2-0.1-0.3-0.1-0.4c0-0.2,0.1-0.4,0.2-0.5
		c0.2-0.1,0.4-0.2,0.6-0.2c0.2,0,0.4,0.1,0.6,0.2c0.1,0.1,0.3,0.4,0.6,0.8l1.6,2.7l1.7-2.7c0.1-0.2,0.2-0.3,0.3-0.4
		c0.1-0.1,0.1-0.2,0.2-0.3c0.1-0.1,0.2-0.2,0.3-0.2c0.1-0.1,0.2-0.1,0.4-0.1c0.2,0,0.4,0.1,0.6,0.2c0.2,0.1,0.2,0.3,0.2,0.5
		c0,0.2,0,0.3-0.1,0.5c-0.1,0.2-0.2,0.4-0.4,0.7l-2.2,3.4v2.8c0,0.4-0.1,0.6-0.3,0.8c-0.2,0.2-0.4,0.3-0.6,0.3
		c-0.3,0-0.5-0.1-0.6-0.3C311.1,53,311,52.8,311,52.4L311,52.4z"/>
	<path class="st0" d="M326.9,45.4v6.4h3.6c0.3,0,0.5,0.1,0.7,0.2c0.2,0.1,0.2,0.3,0.2,0.5s-0.1,0.4-0.2,0.5
		c-0.2,0.1-0.4,0.2-0.7,0.2h-4.3c-0.4,0-0.7-0.1-0.8-0.3c-0.2-0.2-0.3-0.5-0.3-0.8v-6.8c0-0.4,0.1-0.6,0.2-0.8
		c0.2-0.2,0.4-0.3,0.6-0.3c0.3,0,0.5,0.1,0.6,0.3C326.8,44.8,326.9,45.1,326.9,45.4L326.9,45.4z"/>
	<path class="st0" d="M335.3,52.4v-6.9c0-0.4,0.1-0.6,0.2-0.8c0.2-0.2,0.4-0.3,0.6-0.3c0.3,0,0.5,0.1,0.6,0.3
		c0.2,0.2,0.3,0.5,0.3,0.8v6.9c0,0.4-0.1,0.6-0.3,0.8c-0.2,0.2-0.4,0.3-0.6,0.3c-0.3,0-0.5-0.1-0.6-0.3
		C335.4,53,335.3,52.8,335.3,52.4L335.3,52.4z"/>
	<path class="st0" d="M344.7,52l-1.4-5.6v6.1c0,0.3-0.1,0.6-0.2,0.8c-0.2,0.2-0.4,0.3-0.6,0.3s-0.4-0.1-0.6-0.3
		c-0.2-0.2-0.2-0.4-0.2-0.8v-7c0-0.4,0.1-0.6,0.3-0.8s0.5-0.2,0.8-0.2h0.5c0.3,0,0.6,0,0.7,0.1c0.2,0.1,0.3,0.2,0.3,0.3
		c0.1,0.2,0.2,0.4,0.2,0.8l1.3,4.8l1.3-4.8c0.1-0.4,0.2-0.6,0.2-0.8c0.1-0.2,0.2-0.3,0.3-0.3c0.2-0.1,0.4-0.1,0.7-0.1h0.5
		c0.3,0,0.6,0.1,0.8,0.2c0.2,0.1,0.3,0.4,0.3,0.8v7c0,0.3-0.1,0.6-0.2,0.8c-0.2,0.2-0.4,0.3-0.6,0.3c-0.2,0-0.4-0.1-0.6-0.3
		c-0.2-0.2-0.2-0.4-0.2-0.8v-6.1l-1.4,5.6c-0.1,0.4-0.2,0.6-0.2,0.8c-0.1,0.2-0.2,0.3-0.3,0.5c-0.2,0.1-0.4,0.2-0.6,0.2
		c-0.2,0-0.4,0-0.5-0.1c-0.1-0.1-0.3-0.2-0.3-0.3c-0.1-0.1-0.1-0.3-0.2-0.5C344.8,52.3,344.8,52.2,344.7,52L344.7,52z"/>
	<path class="st0" d="M354.8,52.4v-6.9c0-0.4,0.1-0.6,0.2-0.8c0.2-0.2,0.4-0.3,0.6-0.3c0.3,0,0.5,0.1,0.6,0.3
		c0.2,0.2,0.3,0.5,0.3,0.8v6.9c0,0.4-0.1,0.6-0.3,0.8c-0.2,0.2-0.4,0.3-0.6,0.3s-0.5-0.1-0.6-0.3C354.9,53,354.8,52.8,354.8,52.4
		L354.8,52.4z"/>
	<path class="st0" d="M366.9,46H365v6.4c0,0.4-0.1,0.6-0.2,0.8c-0.2,0.2-0.4,0.3-0.6,0.3c-0.3,0-0.5-0.1-0.6-0.3
		c-0.2-0.2-0.3-0.5-0.3-0.8V46h-1.9c-0.3,0-0.5-0.1-0.7-0.2c-0.1-0.1-0.2-0.3-0.2-0.5c0-0.2,0.1-0.4,0.2-0.5
		c0.2-0.1,0.4-0.2,0.7-0.2h5.7c0.3,0,0.5,0.1,0.7,0.2c0.2,0.1,0.2,0.3,0.2,0.5c0,0.2-0.1,0.4-0.2,0.5C367.5,45.9,367.2,46,366.9,46
		L366.9,46z"/>
	<path class="st0" d="M377.4,45.9h-4V48h3.7c0.3,0,0.5,0.1,0.6,0.2c0.1,0.1,0.2,0.3,0.2,0.5c0,0.2-0.1,0.4-0.2,0.5
		c-0.1,0.1-0.3,0.2-0.6,0.2h-3.7v2.5h4.1c0.3,0,0.5,0.1,0.6,0.2c0.1,0.1,0.2,0.3,0.2,0.5s-0.1,0.4-0.2,0.5c-0.1,0.1-0.4,0.2-0.6,0.2
		h-4.8c-0.4,0-0.7-0.1-0.8-0.3c-0.2-0.2-0.3-0.5-0.3-0.8v-6.6c0-0.3,0-0.5,0.1-0.6c0.1-0.2,0.2-0.3,0.4-0.4c0.2-0.1,0.4-0.1,0.6-0.1
		h4.7c0.3,0,0.5,0.1,0.6,0.2c0.1,0.1,0.2,0.3,0.2,0.5c0,0.2-0.1,0.4-0.2,0.5C377.9,45.8,377.7,45.9,377.4,45.9L377.4,45.9z"/>
	<path class="st0" d="M383.6,44.5h2.3c0.6,0,1.1,0.1,1.6,0.2c0.4,0.1,0.8,0.3,1.2,0.6c0.9,0.8,1.4,2,1.4,3.6c0,0.5,0,1-0.1,1.4
		c-0.1,0.4-0.2,0.8-0.4,1.2c-0.2,0.4-0.4,0.7-0.7,0.9c-0.2,0.2-0.5,0.4-0.8,0.5c-0.3,0.1-0.6,0.2-0.9,0.3c-0.3,0.1-0.7,0.1-1.1,0.1
		h-2.3c-0.3,0-0.6,0-0.7-0.1c-0.2-0.1-0.3-0.2-0.3-0.4c0-0.2-0.1-0.4-0.1-0.7v-6.5c0-0.4,0.1-0.7,0.3-0.8
		C382.9,44.6,383.2,44.5,383.6,44.5L383.6,44.5z M384.3,45.9v6h1.4c0.3,0,0.5,0,0.7,0c0.2,0,0.3-0.1,0.5-0.1
		c0.2-0.1,0.3-0.2,0.5-0.3c0.6-0.5,0.9-1.4,0.9-2.6c0-0.9-0.1-1.5-0.4-2c-0.3-0.4-0.6-0.7-1-0.8c-0.4-0.1-0.8-0.2-1.4-0.2H384.3
		L384.3,45.9z"/>
</g>
</svg>
