<svg width="867" height="658" viewBox="0 0 867 658" fill="none" xmlns="http://www.w3.org/2000/svg">
<path d="M287.274 348.343L282.725 345.722V361.832L281.352 364.248L279.129 366.29C279.129 366.29 277.211 367.482 275.963 368.298L275.532 373.097L272.719 379.995L287.637 370.749C296.021 365.553 295.828 353.278 287.274 348.343Z" fill="#DDDDDD"/>
<path d="M277.245 351.1L278.13 350.816L277.824 342.886L251.583 327.752C247.772 325.551 243.029 325.778 239.433 328.319L238.469 329L277.245 351.088V351.1Z" fill="#DDDDDD"/>
<path d="M274.183 363.817L277.042 361.832L278.12 359.903L277.848 358.088L277.042 356.432L268.012 351.088L250.121 340.946L239.491 334.559L233.614 332.46L204.129 353.369L213.171 362.184L216.517 371.362L217.902 381.901V386.371L222.78 387.131L225.741 389.332L251.357 375.945L253.014 371.611L256.1 365.156C256.1 365.156 261.795 360.323 261.999 360.21C262.203 360.096 267.07 358.678 267.07 358.678L272.742 361.424L274.161 363.817H274.183Z" fill="#DDDDDD"/>
<path d="M253.399 382.445L251.879 380.925L230.21 392.361L229.757 394.289V401.471L226.296 407.71L223.676 410.399L261.624 386.87L257.325 385.35L253.399 382.445Z" fill="#DDDDDD"/>
<path d="M377.932 522.645L353.938 537.223L526.935 640.427C540.299 648.402 556.953 648.459 570.374 640.574L609.956 617.635C618.136 612.893 618.272 601.14 610.206 596.216L605.475 593.323L558.644 620.426L554.798 619.087L548.445 621.447L544.36 619.893L524.779 631.181L519.334 632.054C519.334 632.054 510.156 628.821 510.122 628.299C510.088 627.777 500.955 617.386 500.955 617.386L496.826 608.378L495.305 599.268L495.997 594.049L498.539 589.455L500.524 587.9L502.124 586.289L496.894 587.673L493.649 590.578L492.231 593.04L491.074 592.586L492.73 589.398L449.529 564.11L434.803 572.846L428.915 576.124L422.778 576.363L416.674 573.651L410.957 568.818L404.944 560.559L401.041 550.814L400.145 543.066L401.813 536.315L404.989 532.821L410.196 530.643H404.059L399.339 533.309L396.832 537.019L395.891 536.474L397.002 533.956L377.92 522.634L377.932 522.645Z" fill="#DDDDDD"/>
<path d="M308.296 489.325L319.732 496.053L248.929 536.747L245.287 532.787L243.336 531.301L293.639 502.553L305.619 494.691L308.296 489.325Z" fill="#DDDDDD"/>
<path d="M154.969 514.908L159.155 518.459L161.549 517.109L161.345 511.028L154.969 514.908Z" fill="#DDDDDD"/>
<path d="M111.181 506.41L101.254 512.559L122.73 526.116L116.717 519.877L112.009 511.028L111.181 506.41Z" fill="#DDDDDD"/>
<path d="M93.8455 483.142L87.8555 486.988L111.18 501.373V477.946L97.4872 485.366L96.0918 484.776L93.8455 483.142Z" fill="#DDDDDD"/>
<path d="M764.153 520.989L778.89 527.58L673.224 590.43L621.242 559.776L617.827 548.477L614.832 540.853L670.989 573.039L673.224 573.901L764.153 520.989Z" fill="#DDDDDD"/>
<path d="M724.82 367.141L737.708 374.459L713.407 388.47L710.945 378.929L709.992 376.319L724.82 367.141Z" fill="#DDDDDD"/>
<path d="M370.567 329.84L356.852 338.133L576.442 466.102V450.004L371.486 330.838L370.567 329.84Z" fill="#DDDDDD"/>
<path d="M649.005 323.18C647.859 323.18 646.77 322.942 645.93 322.465L553.118 268.884C552.222 268.362 551.723 267.613 551.723 266.774C551.723 265.809 552.403 264.856 553.583 264.176L558.881 260.999L559.483 262.009L554.173 265.185C553.368 265.65 552.891 266.24 552.891 266.774C552.891 267.307 553.334 267.658 553.708 267.863L646.52 321.444C647.972 322.284 650.627 322.159 652.317 321.183L657.615 318.007L658.217 319.016L652.907 322.193C651.773 322.851 650.355 323.18 648.993 323.18H649.005Z" fill="#333333"/>
<path d="M725.583 357.793L724.607 356.103L731.187 352.336C731.55 352.109 731.799 351.667 731.799 351.19V195.392C731.799 189.731 727.659 182.55 722.746 179.713L527.23 66.8323C525.097 65.6071 522.987 65.2554 521.966 65.9588C520.366 67.0366 514.07 71.2909 514.07 71.2909L512.98 69.6686C512.98 69.6686 519.277 65.4142 520.865 64.3478C522.533 63.1907 525.346 63.4856 528.205 65.142L723.722 178.023C729.247 181.211 733.751 189.005 733.751 195.392V351.19C733.751 352.336 733.172 353.391 732.197 354.004L725.583 357.793Z" fill="#333333"/>
<path d="M516.534 219.93L515.949 220.941L718.939 338.279L719.524 337.268L516.534 219.93Z" fill="#333333"/>
<path d="M515.477 81.7172L514.895 82.73L718.935 200.153L719.518 199.141L515.477 81.7172Z" fill="#333333"/>
<path d="M725.13 357.929C724.96 357.929 724.79 357.884 724.643 357.793L510.679 234.259C510.373 234.089 510.191 233.76 510.191 233.408V199.487H512.143V232.852L724.155 355.263V199.873C724.155 194.28 720.071 187.201 715.226 184.41L520.095 71.7446C517.906 70.4853 515.887 70.2471 514.423 71.0979C512.96 71.9488 512.143 73.8093 512.143 76.3392V104.747H510.191V76.3392C510.191 73.0833 511.349 70.6214 513.447 69.4076C515.546 68.1937 518.258 68.4206 521.071 70.0542L716.202 182.72C721.659 185.874 726.106 193.565 726.106 199.873V356.954C726.106 357.305 725.925 357.623 725.618 357.804C725.471 357.895 725.301 357.941 725.13 357.941V357.929Z" fill="#333333"/>
<path d="M713.456 375.31L712.48 373.619L720.626 368.9C722.793 367.64 724.154 365.303 724.154 362.785V356.908H726.117V362.785C726.094 365.984 724.37 368.979 721.602 370.579L713.456 375.298V375.31Z" fill="#333333"/>
<path d="M570.272 447.429L373.383 333.754C370.921 332.336 369.571 330.293 369.582 328.036V320.752H371.533V328.047C371.533 329.613 372.498 330.997 374.358 332.075L571.248 445.75L570.272 447.44V447.429Z" fill="#333333"/>
<path d="M724.321 356.438L709.5 365.029L710.479 366.717L725.299 358.126L724.321 356.438Z" fill="#333333"/>
<path d="M569.637 437.479L372.429 323.623C369.979 322.205 368.629 320.196 368.629 317.973C368.629 315.364 370.512 312.766 373.814 310.871L509.793 232.308L510.768 233.998L374.789 312.561C372.123 314.104 370.592 316.078 370.592 317.973C370.592 319.47 371.601 320.877 373.416 321.932L570.624 435.789L569.648 437.479H569.637Z" fill="#333333"/>
<path d="M512.72 389.06C511.574 389.06 510.485 388.821 509.645 388.345L454.419 356.466C453.523 355.944 453.023 355.195 453.023 354.356C453.023 353.391 453.704 352.438 454.884 351.758L485.765 333.935C487.852 332.732 490.915 332.619 492.742 333.674L547.968 365.553C548.865 366.075 549.364 366.824 549.364 367.663C549.364 368.628 548.683 369.58 547.503 370.261L516.623 388.084C515.488 388.731 514.081 389.071 512.72 389.071V389.06ZM489.667 334.117C488.51 334.117 487.273 334.4 486.343 334.933L455.463 352.756C454.668 353.21 454.192 353.811 454.192 354.333C454.192 354.855 454.634 355.218 455.009 355.422L510.235 387.301C511.688 388.141 514.342 388.016 516.033 387.04L546.913 369.217C547.707 368.752 548.184 368.162 548.184 367.641C548.184 367.119 547.741 366.756 547.367 366.551L492.14 334.672C491.494 334.298 490.609 334.117 489.667 334.117Z" fill="#333333"/>
<path d="M618.954 395.594C617.809 395.594 616.719 395.356 615.88 394.879L443.087 295.124C442.191 294.602 441.691 293.854 441.691 293.014C441.691 292.05 442.372 291.097 443.552 290.416L504.655 255.134C506.743 253.931 509.794 253.818 511.632 254.873L642.858 330.634L642.268 331.643L511.042 255.883C509.59 255.043 506.936 255.168 505.245 256.143L444.142 291.426C443.348 291.88 442.871 292.47 442.871 293.003C442.871 293.525 443.314 293.888 443.688 294.092L616.481 393.847C617.933 394.686 620.588 394.562 622.278 393.586L632.625 387.619L633.215 388.628L622.868 394.596C621.734 395.242 620.327 395.583 618.966 395.583L618.954 395.594Z" fill="#BDA782"/>
<path d="M581.54 311.62C581.438 311.62 581.336 311.597 581.245 311.54L502.33 265.979C502.149 265.877 502.035 265.684 502.035 265.469C502.035 265.253 502.149 265.06 502.33 264.958L508.695 261.283C508.876 261.181 509.103 261.181 509.285 261.283L588.199 306.843C588.381 306.946 588.494 307.138 588.494 307.354C588.494 307.57 588.381 307.762 588.199 307.864L581.835 311.54C581.744 311.597 581.642 311.62 581.54 311.62ZM503.794 265.469L581.54 310.36L586.736 307.354L508.99 262.463L503.794 265.469Z" fill="#333333"/>
<path d="M490.588 287.716C490.486 287.716 490.384 287.693 490.293 287.637L477.553 280.285C477.371 280.183 477.258 279.99 477.258 279.775C477.258 279.559 477.371 279.366 477.553 279.264L483.917 275.589C484.099 275.486 484.326 275.486 484.507 275.589L497.247 282.94C497.429 283.042 497.542 283.235 497.542 283.451C497.542 283.666 497.429 283.859 497.247 283.961L490.872 287.637C490.781 287.693 490.679 287.716 490.577 287.716H490.588ZM479.016 279.775L490.588 286.457L495.784 283.451L484.212 276.768L479.016 279.775Z" fill="#333333"/>
<path d="M626.057 366.018L499.857 293.15C499.676 293.048 499.562 292.855 499.562 292.64C499.562 292.424 499.676 292.231 499.857 292.129L506.222 288.454C506.403 288.351 506.63 288.351 506.812 288.454L626.432 357.521L625.842 358.531L506.517 289.633L501.321 292.64L626.647 364.997L626.057 366.007V366.018Z" fill="#333333"/>
<path d="M610.115 371.021C610.013 371.021 609.911 370.998 609.82 370.942L465.162 287.421C464.981 287.319 464.867 287.126 464.867 286.911C464.867 286.695 464.981 286.502 465.162 286.4L471.538 282.724C471.719 282.622 471.946 282.622 472.128 282.724L616.786 366.245C616.967 366.347 617.081 366.54 617.081 366.755C617.081 366.971 616.967 367.164 616.786 367.266L610.41 370.942C610.319 370.998 610.217 371.021 610.115 371.021ZM466.637 286.922L610.115 369.762L615.311 366.755L471.833 283.915L466.637 286.922Z" fill="#333333"/>
<path d="M628.121 381.515L619.635 376.614C619.453 376.512 619.34 376.319 619.34 376.104C619.34 375.888 619.453 375.695 619.635 375.593L626.011 371.917L626.601 372.927L621.11 376.092L628.711 380.483L628.121 381.493V381.515Z" fill="#333333"/>
<path d="M464.461 301.33L452.787 294.591C452.606 294.489 452.492 294.296 452.492 294.08C452.492 293.865 452.606 293.672 452.787 293.57L459.152 289.894C459.333 289.792 459.56 289.792 459.742 289.894L471.415 296.633L470.825 297.643L459.435 291.074L454.239 294.08L465.04 300.32L464.45 301.33H464.461Z" fill="#333333"/>
<path d="M481.772 311.234C481.669 311.234 481.567 311.211 481.477 311.154L469.803 304.416C469.621 304.314 469.508 304.121 469.508 303.905C469.508 303.69 469.621 303.497 469.803 303.395L476.167 299.719C476.349 299.617 476.576 299.617 476.757 299.719L488.431 306.458C488.612 306.56 488.726 306.753 488.726 306.968C488.726 307.184 488.612 307.377 488.431 307.479L482.055 311.154C481.964 311.211 481.862 311.234 481.76 311.234H481.772ZM471.266 303.905L481.772 309.975L486.967 306.968L476.462 300.899L471.266 303.905Z" fill="#333333"/>
<path d="M581.382 368.741C581.28 368.741 581.178 368.718 581.087 368.661L488.502 315.205C488.32 315.102 488.207 314.91 488.207 314.694C488.207 314.479 488.32 314.286 488.502 314.184L494.878 310.508L495.468 311.517L489.977 314.683L581.393 367.459L587.474 363.953L588.064 364.963L581.688 368.639C581.598 368.695 581.496 368.718 581.393 368.718L581.382 368.741Z" fill="#333333"/>
<path d="M625.716 336.873L625.126 335.864L630.617 332.698L596.753 313.151L590.672 316.657L590.082 315.647L596.458 311.971C596.639 311.869 596.866 311.869 597.048 311.971L632.081 332.199C632.262 332.301 632.376 332.494 632.376 332.71C632.376 332.925 632.262 333.118 632.081 333.22L625.705 336.896L625.716 336.873Z" fill="#333333"/>
<path d="M619.758 390.897C619.656 390.897 619.554 390.875 619.464 390.818L589.377 373.449C589.195 373.347 589.082 373.154 589.082 372.938C589.082 372.723 589.195 372.53 589.377 372.428L595.753 368.752C595.934 368.65 596.161 368.65 596.343 368.752L626.429 386.121C626.611 386.223 626.724 386.416 626.724 386.632C626.724 386.847 626.611 387.04 626.429 387.142L620.065 390.818C619.974 390.875 619.872 390.897 619.77 390.897H619.758ZM590.852 372.938L619.758 389.627L624.954 386.62L596.048 369.932L590.852 372.938Z" fill="#333333"/>
<path d="M625.839 351.588L599.666 336.476C599.485 336.374 599.371 336.181 599.371 335.966C599.371 335.75 599.485 335.557 599.666 335.455L606.042 331.779C606.223 331.677 606.45 331.677 606.632 331.779L628.72 344.531L628.13 345.541L606.337 332.959L601.141 335.966L626.428 350.566L625.839 351.576V351.588Z" fill="#333333"/>
<path d="M591.067 331.428C590.965 331.428 590.863 331.405 590.772 331.348L490.109 273.229L490.699 272.219L591.067 330.169L596.263 327.162L496.485 269.553L497.075 268.543L597.738 326.663C597.919 326.765 598.033 326.958 598.033 327.174C598.033 327.389 597.919 327.582 597.738 327.684L591.362 331.36C591.271 331.416 591.169 331.439 591.067 331.439V331.428Z" fill="#333333"/>
<path d="M652.477 274.171L651.887 273.15C651.887 273.15 655.562 271.028 656.084 270.71C658.206 269.383 659.59 265.946 659.59 261.941V248.384H660.758V261.941C660.758 266.399 659.204 270.143 656.708 271.697C656.175 272.038 652.624 274.068 652.477 274.159V274.171Z" fill="#BDA782"/>
<path d="M549.206 117.419L493.355 149.56L493.938 150.573L549.789 118.431L549.206 117.419Z" fill="#BDA782"/>
<path d="M521.956 101.655L466.105 133.796L466.688 134.809L522.539 102.667L521.956 101.655Z" fill="#BDA782"/>
<path d="M576.436 133.097L520.586 165.238L521.169 166.251L577.019 134.109L576.436 133.097Z" fill="#BDA782"/>
<path d="M603.69 148.811L547.84 180.953L548.423 181.965L604.273 149.824L603.69 148.811Z" fill="#BDA782"/>
<path d="M630.936 164.607L575.086 196.748L575.669 197.761L631.519 165.619L630.936 164.607Z" fill="#BDA782"/>
<path d="M656.494 244.889L466.672 135.332V154.074C466.672 162.526 472.651 172.85 480.003 177.093C483.61 179.18 487.093 179.566 489.532 178.148C491.801 176.832 493.06 174.052 493.06 170.32H494.229C494.229 174.483 492.766 177.626 490.111 179.158C487.297 180.78 483.395 180.394 479.413 178.102C471.744 173.678 465.504 162.889 465.504 154.074V134.311C465.504 134.107 465.617 133.903 465.799 133.801C465.98 133.699 466.207 133.699 466.389 133.801L657.084 243.868L656.494 244.878V244.889Z" fill="#BDA782"/>
<path d="M513.516 195.993C511.519 195.993 509.329 195.335 507.061 194.019C499.312 189.55 493.016 178.67 493.016 169.764V149.06H494.184V169.764C494.184 178.295 500.22 188.721 507.65 193.01C511.145 195.029 514.401 195.369 516.817 193.985C519.211 192.601 520.527 189.64 520.527 185.647V165.873H521.695V185.647C521.695 190.071 520.164 193.395 517.396 194.995C516.238 195.664 514.934 195.993 513.516 195.993Z" fill="#BDA782"/>
<path d="M541.027 211.694C539.031 211.694 536.841 211.036 534.572 209.72C526.824 205.251 520.527 194.371 520.527 185.465H521.696C521.696 193.997 527.731 204.422 535.162 208.711C538.656 210.73 541.912 211.07 544.329 209.686C546.723 208.302 548.039 205.341 548.039 201.348V181.143H549.207V201.348C549.207 205.772 547.676 209.096 544.907 210.696C543.75 211.365 542.446 211.694 541.027 211.694Z" fill="#BDA782"/>
<path d="M568.539 227.453C566.542 227.453 564.353 226.795 562.084 225.479C554.335 221.009 548.039 210.118 548.039 201.223H549.208C549.208 209.755 555.243 220.181 562.674 224.469C566.168 226.488 569.424 226.829 571.84 225.445C574.234 224.06 575.55 221.099 575.55 217.106V196.436H576.719V217.106C576.719 221.531 575.187 224.855 572.419 226.454C571.262 227.124 569.957 227.453 568.539 227.453Z" fill="#BDA782"/>
<path d="M658.171 180.304L602.32 212.446L602.903 213.458L658.754 181.317L658.171 180.304Z" fill="#BDA782"/>
<path d="M685.417 196.009L629.566 228.15L630.149 229.163L686 197.022L685.417 196.009Z" fill="#BDA782"/>
<path d="M657.392 244.89L656.813 243.869L712.493 212.001L521.957 102.682L522.536 101.661L713.957 211.49C714.138 211.593 714.252 211.785 714.252 212.001C714.252 212.216 714.138 212.409 713.957 212.511L657.38 244.89H657.392Z" fill="#BDA782"/>
<path d="M594.516 243.177C592.519 243.177 590.33 242.519 588.061 241.203C582.774 238.151 577.987 232.047 575.57 225.263L576.671 224.866C578.996 231.401 583.591 237.266 588.64 240.182C592.134 242.201 595.39 242.541 597.806 241.157C600.2 239.773 601.516 236.812 601.516 232.819V213.238H602.684V232.819C602.684 237.243 601.153 240.567 598.385 242.167C597.228 242.836 595.923 243.165 594.505 243.165L594.516 243.177Z" fill="#BDA782"/>
<path d="M622.027 258.9C620.031 258.9 617.841 258.242 615.572 256.926C607.824 252.456 601.527 241.577 601.527 232.671H602.696C602.696 241.202 608.731 251.628 616.162 255.917C619.656 257.936 622.912 258.276 625.329 256.892C627.723 255.508 629.039 252.547 629.039 248.554V228.519H630.207V248.554C630.207 252.978 628.676 256.302 625.907 257.902C624.75 258.571 623.446 258.9 622.027 258.9Z" fill="#BDA782"/>
<path d="M649.539 274.613C647.542 274.613 645.353 273.955 643.084 272.639C635.335 268.169 629.039 257.289 629.039 248.384H630.208C630.208 256.915 636.243 267.341 643.674 271.629C647.168 273.649 650.424 273.989 652.841 272.605C655.234 271.221 656.55 268.26 656.55 264.266V243.812H657.719V264.266C657.719 268.691 656.187 272.015 653.419 273.615C652.262 274.284 650.957 274.613 649.539 274.613Z" fill="#BDA782"/>
<path d="M657.129 251.435C657.027 251.435 656.925 251.413 656.834 251.356C656.652 251.254 656.539 251.061 656.539 250.846V244.549C656.539 244.345 656.652 244.141 656.834 244.039L713.377 211.502C713.558 211.4 713.785 211.4 713.967 211.502C714.148 211.604 714.262 211.797 714.262 212.012V218.309C714.262 218.513 714.148 218.717 713.967 218.819L657.424 251.356C657.333 251.413 657.231 251.435 657.129 251.435ZM657.719 244.889V249.836L713.093 217.968V213.022L657.719 244.889Z" fill="#BDA782"/>
<path d="M229.429 393.325L228.884 392.293L252.096 380.108L252.64 381.141L229.429 393.325ZM226.037 389.854L225.492 388.821L251.914 374.946L252.459 375.979L226.037 389.854ZM276.26 368.854L275.682 367.833C280.163 365.315 282.091 363.102 282.148 360.436L283.317 360.459C283.249 363.59 281.138 366.097 276.249 368.854H276.26ZM275.114 364.089L274.593 363.046C277.19 361.741 277.61 360.187 277.633 359.37C277.656 358.133 276.544 356.738 274.638 355.649L237.937 334.457C235.498 333.05 232.197 332.279 228.646 332.279C224.8 332.279 221.204 333.209 218.787 334.82L198.503 347.98L197.867 346.993L218.141 333.844C220.75 332.108 224.585 331.11 228.646 331.11C232.401 331.11 235.907 331.938 238.527 333.447L275.228 354.639C277.542 355.978 278.847 357.714 278.813 359.404C278.79 360.482 278.28 362.524 275.126 364.101L275.114 364.089ZM165.682 363.76L165.047 362.773L215.588 329.93C222.293 325.46 233.638 325.222 240.864 329.397L277.565 350.589C277.792 350.725 278.019 350.861 278.234 350.997L277.599 351.984C277.395 351.86 277.19 351.735 276.975 351.61L240.274 330.418C233.399 326.447 222.611 326.674 216.235 330.917L165.694 363.772L165.682 363.76Z" fill="#333333"/>
<path d="M205.366 234.384C205.218 234.384 205.082 234.327 204.98 234.237C204.855 234.123 204.787 233.976 204.776 233.806L204.753 231.968C204.595 221.383 210.119 211.4 219.195 205.931L226.592 201.473C231.051 198.784 236.462 198.092 241.454 199.59C241.669 199.658 241.828 199.828 241.862 200.055C241.896 200.282 241.806 200.497 241.635 200.622C241.204 200.94 240.887 201.325 240.671 201.802C240.297 202.619 240.058 203.504 239.968 204.422C239.956 204.593 239.866 204.751 239.718 204.842C239.582 204.944 239.4 204.978 239.242 204.933C235.929 204.105 232.491 204.627 229.564 206.385L222.134 210.866C214.839 215.268 210.38 223.3 210.505 231.832L210.528 233.681C210.528 233.84 210.46 233.998 210.346 234.112C210.233 234.225 210.074 234.282 209.915 234.271C208.191 234.191 206.761 234.214 205.434 234.373C205.411 234.373 205.389 234.373 205.366 234.373V234.384ZM236.156 199.987C233.025 199.987 229.928 200.826 227.193 202.471L219.797 206.93C211.084 212.182 205.774 221.769 205.922 231.945L205.945 233.148C206.988 233.057 208.1 233.034 209.348 233.079L209.325 231.854C209.189 222.914 213.863 214.497 221.51 209.868L228.941 205.387C231.947 203.572 235.441 202.97 238.867 203.651C239.003 202.834 239.242 202.04 239.582 201.303C239.729 200.985 239.9 200.701 240.115 200.44C238.811 200.134 237.472 199.975 236.144 199.975L236.156 199.987Z" fill="#333333"/>
<path d="M279.88 276.371L278.723 276.178L280.073 267.999C281.264 260.035 284.679 254.181 290.238 250.607L294.9 247.612C297.578 245.888 299.143 242.961 299.098 239.784C299.064 237.821 298.429 235.961 297.249 234.407L298.179 233.692C299.506 235.439 300.232 237.538 300.267 239.761C300.323 243.346 298.553 246.659 295.524 248.599L290.862 251.594C285.598 254.975 282.353 260.556 281.219 268.18L279.868 276.371H279.88Z" fill="#333333"/>
<path d="M276.622 267.454L275.465 267.284C276.86 257.947 280.978 251.016 287.717 246.693L292.38 243.698C293.696 242.859 294.467 241.418 294.445 239.852C294.445 239.342 294.343 238.843 294.161 238.366L295.262 237.958C295.488 238.559 295.602 239.194 295.613 239.841C295.647 241.815 294.672 243.619 293.015 244.685L288.353 247.68C281.909 251.821 277.961 258.481 276.622 267.466V267.454Z" fill="#333333"/>
<path d="M278.474 280.83C278.156 280.421 277.85 280.002 277.532 279.593C277.271 280.558 276.863 281.454 276.205 282.237C275.331 283.28 274.265 284.063 273.085 284.698L272.461 288.646C271.667 287.784 270.657 286.979 269.455 286.275C268.502 286.627 267.549 286.956 266.607 287.319L268.139 288.204C270.033 289.293 271.315 290.609 271.928 292.016L271.134 297.064C270.317 298.108 269.126 299.061 267.583 299.866L262.069 302.759L250.18 295.896C250.1 295.953 250.021 296.009 249.953 296.055C249.329 296.497 248.705 296.928 248.081 297.371L259.63 304.041L245.029 311.71L240.015 308.818L240.332 302.408C239.516 302.884 238.687 303.349 237.859 303.78L237.564 307.399L234.286 305.505C232.414 306.322 230.496 307.014 228.511 307.547L237.496 312.732L237.349 315.749L200.353 335.172L201.023 321.807C200.206 322.352 199.4 322.885 198.606 323.452L197.96 336.42L175.395 348.264C172.581 349.727 169.098 350.487 166.194 350.567V337.146C164.799 337.146 164.027 337.146 163.426 337.112V350.532C159.852 350.317 156.562 349.455 153.976 347.957L138.093 338.791L147.237 332.857C145.524 332.449 143.947 331.507 142.665 330.271L135.064 335.194L134.519 325.994C134.519 325.994 134.463 325.948 134.428 325.926C133.691 325.222 132.897 324.621 132.069 324.065L132.761 335.716L120.928 328.887L130.197 322.874C129.482 322.42 128.756 321.978 128.053 321.501L118.671 327.593L113.69 324.723C112.442 324.008 111.467 323.191 110.763 322.307L109.935 317.088C110.48 315.908 111.501 314.796 112.953 313.832L114.099 313.095C113.441 312.675 112.771 312.266 112.113 311.847C112.056 311.813 111.988 311.767 111.932 311.722L111.682 311.881C110.797 312.471 110.048 313.117 109.413 313.798L108.732 309.51C106.214 307.57 104.024 305.267 102.867 302.283L111.501 356.613L111.625 356.591C112.147 359.211 114.042 361.582 117.094 363.341L142.982 378.361L147.849 375.627L137.299 369.535L136.55 357.078L154.134 367.232C154.509 367.448 158.23 369.388 158.638 369.58L161.236 368.004C160.419 367.697 156.018 365.632 155.303 365.224L136.391 354.299L135.574 340.56L136.085 340.231L153 349.999C155.916 351.678 159.625 352.643 163.437 352.858V366.88C164.016 366.585 165.173 365.893 165.831 365.542L166.058 353.267C169.96 353.187 173.058 351.962 176.177 350.34L197.528 339.131L196.927 351.088L199.525 351.905L200.229 337.872L237.224 318.449L236.464 333.606L200.648 352.404L203.031 353.788L236.328 336.306L235.67 349.568L211.505 362.342C212.481 363.579 213.411 364.611 214.183 365.905L264.123 339.88C266.766 338.496 268.649 336.635 269.625 334.548L270.725 329.601L275.751 297.802L278.542 280.921C278.542 280.921 278.508 280.864 278.485 280.841L278.474 280.83ZM133.135 341.978L133.782 352.858L124.559 347.537L133.124 341.978H133.135ZM111.342 325.948C111.716 326.209 112.102 326.459 112.522 326.708L116.47 328.989L114.291 330.395C113.531 330.906 112.873 331.45 112.306 332.029L111.342 325.948ZM113.69 340.697L112.817 335.217C113.361 334.185 114.291 333.198 115.585 332.347L118.739 330.293L131.365 337.588L120.043 344.928L116.288 342.761C115.21 342.137 114.348 341.434 113.69 340.697ZM114.246 344.225C114.53 344.418 114.813 344.61 115.12 344.781L117.842 346.358L116.22 347.413C115.744 347.73 115.312 348.059 114.904 348.411L114.235 344.225H114.246ZM119.408 359.291C117.366 358.111 116.163 356.613 116.118 355.184C116.073 353.845 117.026 352.461 118.773 351.304L122.369 348.967L133.952 355.649L134.701 368.106L119.408 359.279V359.291ZM239.754 314.036L240.151 314.263L239.731 314.479L239.754 314.025V314.036ZM239.595 317.19L242.533 315.647L255.932 323.384L238.846 332.358L239.606 317.201L239.595 317.19ZM261.956 335.761L238.052 348.309L238.71 335.047L258.314 324.757L262.421 327.128C264.157 328.138 265.268 329.352 265.597 330.577L265.665 331.723C265.45 333.175 264.134 334.627 261.956 335.761ZM266.618 324.394C266.051 323.929 265.439 323.498 264.747 323.101L263.192 322.204L266.085 320.684C266.528 320.446 266.959 320.208 267.356 319.947L266.618 324.394ZM267.923 316.487C267.174 317.269 266.199 317.996 265.007 318.619L260.81 320.82L247.412 313.083L262.012 305.414L265.541 307.445C267.106 308.352 268.241 309.407 268.899 310.542L267.923 316.464V316.487ZM269.409 307.49C268.66 306.753 267.764 306.061 266.709 305.448L264.463 304.143L268.672 301.931C269.353 301.58 269.954 301.182 270.532 300.774L269.421 307.479L269.409 307.49Z" fill="#BDA782"/>
<path d="M283.317 360.448H282.149V339.04L271.02 330.872L271.712 329.93L283.079 338.269C283.227 338.382 283.317 338.552 283.317 338.745V360.448Z" fill="#333333"/>
<path d="M278.712 358.689H277.543V341.434L269.852 335.864L270.544 334.911L278.474 340.651C278.621 340.765 278.712 340.935 278.712 341.128V358.689Z" fill="#333333"/>
<path d="M118.045 310.984L141.847 295.51L143.083 312.187L132.533 319.039C133.043 319.311 133.565 319.618 134.143 319.913C134.404 320.049 134.575 320.219 134.722 320.389L143.287 314.819L143.991 324.28C144.116 324.348 144.229 324.428 144.343 324.519C145.057 325.12 145.761 325.721 146.464 326.323L145.5 313.378L174.111 294.784L174.758 309.873L147.746 327.4C149.005 328.444 150.287 329.465 151.592 330.452L196.903 301.035C199.535 299.276 203.302 298.392 207.079 298.392C210.551 298.392 214.034 299.14 216.654 300.66L225.311 305.664C225.447 305.153 225.821 304.722 226.445 304.529C226.513 304.506 226.558 304.484 226.615 304.472C227.954 304.166 229.259 303.769 230.541 303.315L218.98 296.633C216.496 295.192 213.501 294.307 210.381 293.933V293.638V277.438C212.684 277.733 215.441 278.515 217.653 279.786L238.788 291.993L238.346 297.382C239.163 297.064 239.968 296.713 240.762 296.349L241.012 293.286L243.78 294.886C244.619 294.466 245.459 294.058 246.298 293.649L241.216 290.711L242.623 273.478L262.624 285.027C263.486 284.585 264.371 284.211 265.267 283.87L242.827 270.914L244.075 255.633C243.893 255.542 243.723 255.429 243.553 255.27C243.008 254.725 242.453 254.203 241.897 253.682L240.592 269.621L219.604 257.505C216.734 255.848 209.439 254.669 209.439 254.669L209.201 237.674C207.737 237.595 206.285 237.572 204.833 237.787L205.094 254.918C201.271 255.27 197.606 256.37 194.85 258.22L175.371 270.892L174.701 255.27C174.009 255.894 173.249 256.438 172.557 257.108C172.523 257.142 172.489 257.164 172.455 257.187L173.113 272.355L143.832 291.392L142.629 275.135C142.629 275.135 142.595 275.169 142.573 275.18C142.096 275.509 141.608 275.827 141.109 276.133C141.018 276.371 140.871 276.587 140.655 276.746C140.576 276.802 140.497 276.848 140.429 276.904L141.608 292.821L115.742 309.646C116.525 310.099 117.285 310.53 118 310.95L118.045 310.984ZM218.197 259.536L240.138 272.208L238.731 289.44L218.549 277.789C215.974 276.303 212.797 275.418 209.484 275.101L209.212 257.017C212.502 257.255 215.69 258.083 218.197 259.524V259.536ZM205.139 293.593C200.931 293.797 196.835 294.92 193.749 296.973L176.392 308.228L175.745 293.128L195.61 280.228C198.06 278.595 201.407 277.653 204.89 277.381L205.139 293.581V293.593ZM195.871 259.989C198.276 258.39 201.486 257.425 204.89 257.096L205.173 275.067C201.248 275.35 197.47 276.428 194.645 278.311L175.949 290.45L175.212 273.422L195.871 260.001V259.989ZM172.863 274.885L173.601 291.914L144.876 310.553L143.639 293.876L172.863 274.885Z" fill="#BDA782"/>
<path d="M258.812 386.915C258.812 386.915 256.01 385.248 254.252 384.147C252.221 382.876 251.098 380.392 251.098 377.147C251.098 370.669 255.681 362.739 261.319 359.483C264.36 357.725 267.332 357.589 269.68 359.109C271.291 360.141 273.855 361.855 273.855 361.855L272.778 363.477C272.778 363.477 270.225 361.775 268.625 360.743C266.901 359.631 264.723 359.778 262.306 361.174C257.201 364.112 253.06 371.282 253.06 377.136C253.06 379.677 253.854 381.572 255.295 382.479C257.042 383.569 259.788 385.202 259.822 385.225L258.823 386.904L258.812 386.915Z" fill="#333333"/>
<path d="M261.808 387.687C260.719 387.687 259.698 387.426 258.801 386.904C256.669 385.679 255.5 383.171 255.5 379.847C255.5 373.403 260.061 365.542 265.665 362.308C268.569 360.629 271.36 360.391 273.504 361.628C275.637 362.853 276.806 365.36 276.806 368.684C276.806 375.128 272.245 382.99 266.641 386.223C264.962 387.199 263.317 387.687 261.819 387.687H261.808ZM270.475 362.807C269.318 362.807 268.013 363.204 266.629 364.01C261.569 366.937 257.44 374.039 257.44 379.859C257.44 382.457 258.268 384.363 259.766 385.225C261.275 386.098 263.373 385.86 265.642 384.544C270.702 381.617 274.832 374.515 274.832 368.695C274.832 366.097 274.003 364.192 272.506 363.329C271.905 362.989 271.224 362.807 270.464 362.807H270.475Z" fill="#333333"/>
<path d="M264.089 380.381C263.555 380.381 263.056 380.256 262.614 379.995C261.547 379.382 260.969 378.134 260.969 376.489C260.969 373.302 263.124 369.546 265.87 367.947C267.288 367.119 268.649 367.005 269.704 367.606C270.771 368.219 271.349 369.467 271.349 371.112C271.349 374.3 269.194 378.055 266.448 379.655C265.631 380.131 264.826 380.381 264.089 380.381ZM268.218 368.401C267.696 368.401 267.084 368.593 266.448 368.956C264.066 370.341 262.137 373.721 262.137 376.489C262.137 377.703 262.512 378.588 263.192 378.985C263.873 379.371 264.815 379.258 265.858 378.656C268.241 377.272 270.169 373.891 270.169 371.123C270.169 369.909 269.795 369.025 269.114 368.627C268.853 368.48 268.547 368.401 268.218 368.401Z" fill="#BDA782"/>
<path d="M226.4 390.92C226.4 390.92 224.256 389.434 222.668 388.685C221.965 388.345 221.261 388.152 220.535 388.095L220.705 386.155C221.647 386.235 222.589 386.496 223.496 386.927C225.232 387.744 227.41 389.252 227.501 389.32L226.389 390.931L226.4 390.92Z" fill="#333333"/>
<path d="M220.569 413.859L219.594 412.169C224.654 409.242 228.783 402.14 228.783 396.32C228.783 393.722 227.955 391.816 226.457 390.954C224.949 390.081 222.85 390.319 220.581 391.635L219.605 389.944C222.509 388.265 225.3 388.027 227.444 389.264C229.577 390.489 230.746 392.996 230.746 396.32C230.746 402.753 226.185 410.626 220.581 413.859H220.569Z" fill="#333333"/>
<path d="M220.375 408.221L219.785 407.211C222.168 405.827 224.096 402.447 224.096 399.678C224.096 398.465 223.722 397.58 223.041 397.183C222.36 396.797 221.419 396.91 220.375 397.512L219.785 396.502C221.203 395.674 222.565 395.549 223.62 396.162C224.686 396.774 225.265 398.022 225.265 399.667C225.265 402.855 223.109 406.61 220.364 408.21L220.375 408.221Z" fill="#BDA782"/>
<path d="M289.487 236.642C288.466 236.642 287.468 236.358 286.594 235.836L241.612 208.847C240.318 208.075 239.411 206.839 239.048 205.387C238.685 203.923 238.912 202.414 239.683 201.121C240.455 199.828 241.691 198.92 243.143 198.557C244.607 198.194 246.116 198.421 247.409 199.192L292.391 226.182C294.172 227.248 295.216 229.211 295.125 231.287L293.174 231.196C293.242 229.835 292.561 228.564 291.393 227.861L246.411 200.871C245.571 200.361 244.584 200.225 243.631 200.452C242.678 200.69 241.873 201.291 241.362 202.131C240.852 202.97 240.704 203.957 240.942 204.91C241.181 205.863 241.782 206.669 242.621 207.179L287.604 234.168C288.613 234.77 289.907 234.849 290.973 234.384L291.756 236.177C291.053 236.483 290.27 236.653 289.487 236.653V236.642Z" fill="#333333"/>
<path d="M293.216 236.154C292.694 236.154 292.173 236.006 291.719 235.734L292.32 234.724C293.126 235.212 294.237 234.929 294.714 234.123C294.952 233.726 295.02 233.25 294.907 232.807C294.793 232.353 294.51 231.979 294.112 231.741L294.714 230.731C296.086 231.559 296.54 233.352 295.712 234.724C295.19 235.598 294.226 236.142 293.205 236.142L293.216 236.154Z" fill="#333333"/>
<path d="M291.721 235.745L288.737 233.953C287.364 233.125 286.91 231.332 287.739 229.959C288.136 229.29 288.771 228.825 289.531 228.632C290.28 228.439 291.074 228.564 291.743 228.961L294.727 230.754L294.126 231.763L291.142 229.971C290.745 229.733 290.28 229.664 289.826 229.778C289.372 229.891 288.998 230.175 288.76 230.572C288.26 231.4 288.533 232.467 289.361 232.966L292.345 234.758L291.743 235.768L291.721 235.745Z" fill="#333333"/>
<path d="M164.082 338.915C158.977 338.915 154.11 337.724 150.366 335.569L108.367 311.325C104.204 308.92 101.844 305.528 101.719 301.784C101.606 298.165 103.603 294.795 107.358 292.288L193.261 236.438C200.794 231.412 213.545 231.14 221.668 235.836L273.446 265.73C277.814 268.26 280.174 271.811 280.094 275.747C280.003 279.729 277.315 283.382 272.697 285.799L177.049 335.988C173.407 337.883 168.801 338.927 164.071 338.927L164.082 338.915ZM207.941 234.396C202.961 234.396 197.992 235.621 194.35 238.049L108.447 293.91C105.282 296.021 103.591 298.789 103.682 301.704C103.784 304.756 105.792 307.558 109.354 309.612L151.353 333.856C154.802 335.852 159.328 336.941 164.093 336.941C168.518 336.941 172.806 335.977 176.164 334.219L271.812 284.029C275.783 281.964 278.097 278.913 278.166 275.668C278.234 272.48 276.226 269.53 272.493 267.386L220.715 237.493C217.108 235.405 212.524 234.384 207.952 234.384L207.941 234.396ZM164.093 334.207C159.93 334.207 155.778 333.311 152.692 331.53L110.693 307.286C108.016 305.743 106.439 303.678 106.371 301.625C106.303 299.674 107.562 297.734 109.91 296.168L195.813 240.306C198.831 238.298 203.256 237.141 207.941 237.141C212.263 237.141 216.314 238.105 219.331 239.841L271.109 269.735C273.9 271.346 275.477 273.49 275.431 275.623C275.386 277.846 273.594 280.047 270.53 281.647L174.882 331.836C171.853 333.413 167.962 334.196 164.082 334.196L164.093 334.207ZM207.964 239.104C203.653 239.104 199.614 240.136 196.903 241.951L110.999 297.802C109.264 298.959 108.288 300.332 108.333 301.557C108.379 302.896 109.627 304.404 111.68 305.584L153.679 329.828C159.136 332.982 168.257 333.107 173.997 330.1L269.646 279.911C272.028 278.674 273.469 277.052 273.491 275.577C273.525 274.205 272.266 272.65 270.145 271.425L218.367 241.531C215.633 239.954 211.946 239.092 207.952 239.092L207.964 239.104Z" fill="#333333"/>
<path d="M632.325 404.782L631.742 405.795L656.73 420.169L657.313 419.156L632.325 404.782Z" fill="#BDA782"/>
<path d="M729.867 415.565L689.531 438.061L690.1 439.082L730.436 416.585L729.867 415.565Z" fill="#BDA782"/>
<path d="M633.688 500.522H632.52V470.402C632.52 470.186 632.633 469.993 632.826 469.891L672.953 447.474L673.52 448.495L633.688 470.742V500.511V500.522Z" fill="#BDA782"/>
<path d="M615.946 490.675H614.777V460.634C614.777 460.418 614.891 460.226 615.084 460.123L655.562 437.82L656.129 438.841L615.946 460.974V490.675Z" fill="#BDA782"/>
<path d="M672.998 493.625H671.047V522.202H672.998V493.625Z" fill="#333333"/>
<path d="M634.665 505.458H633.496V551.767H634.665V505.458Z" fill="#BDA782"/>
<path d="M618.895 496.586H617.727V542.895H618.895V496.586Z" fill="#BDA782"/>
<path d="M725.903 496.572L724.734 496.583L725.138 542.89L726.307 542.88L725.903 496.572Z" fill="#BDA782"/>
<path d="M709.547 506.426L708.379 506.436L708.782 551.768L709.951 551.758L709.547 506.426Z" fill="#BDA782"/>
<path d="M711.523 500.522H710.355V470.731L615.41 415.368L616 414.358L711.24 469.891C711.421 469.993 711.535 470.186 711.535 470.402V500.522H711.523Z" fill="#BDA782"/>
<path d="M729.265 491.662H728.096V460.963L678.168 432.238L678.758 431.217L728.981 460.101C729.163 460.203 729.276 460.396 729.276 460.611V491.651L729.265 491.662Z" fill="#BDA782"/>
<path d="M672.089 524.573C671.907 524.573 671.748 524.494 671.601 524.346L576.35 469.358C576.055 469.188 575.862 468.87 575.862 468.53L575.465 437.49L577.416 437.468L577.802 467.951L672.214 522.463C679.213 518.424 759.603 472.013 766.625 467.951L767.011 437.468L768.962 437.49L768.565 468.53C768.565 468.87 768.372 469.188 768.077 469.358L673.768 523.813C672.906 524.312 672.429 524.585 672.077 524.585L672.089 524.573Z" fill="#333333"/>
<path d="M672.511 574.876C672.341 574.876 672.17 574.831 672.023 574.74C671.717 574.57 671.535 574.241 671.535 573.889V526.139H673.487V572.199L763.167 520.421V473.919H765.119V520.988C765.119 521.34 764.937 521.658 764.631 521.839L672.987 574.752C672.84 574.842 672.67 574.888 672.5 574.888L672.511 574.876Z" fill="#333333"/>
<path d="M672.022 494.079C671.852 494.079 671.682 494.033 671.534 493.942L575.636 438.568C575.33 438.398 575.148 438.069 575.148 437.717C575.148 437.366 575.33 437.048 575.636 436.867L638.714 400.45L639.689 402.14L578.075 437.706L672.022 491.946L765.968 437.706L715.643 408.652L716.618 406.962L768.408 436.867C768.714 437.037 768.895 437.366 768.895 437.717C768.895 438.069 768.714 438.387 768.408 438.568L672.51 493.931C672.362 494.022 672.192 494.067 672.022 494.067V494.079Z" fill="#333333"/>
<path d="M618.809 542.07L617.84 543.764L672.031 574.762L673 573.068L618.809 542.07Z" fill="#333333"/>
<path d="M580.865 470.266H578.914V478.627H580.865V470.266Z" fill="#333333"/>
<path d="M694.532 429.935L693.942 428.925C697.187 427.042 703.415 423.423 703.744 423.207C710.301 419.032 713.92 410.637 713.92 399.587C713.92 375.582 696.926 346.244 676.04 334.184C666.056 328.421 656.697 327.446 649.674 331.428C642.845 335.308 640.928 336.521 640.905 336.544L640.27 335.557C640.349 335.512 642.221 334.321 649.096 330.418C656.481 326.22 666.261 327.196 676.618 333.175C697.822 345.416 715.077 375.219 715.077 399.587C715.077 411.057 711.265 419.804 704.356 424.194C703.925 424.467 694.895 429.708 694.509 429.935H694.532Z" fill="#333333"/>
<path d="M667.621 438.545C667.417 438.545 667.224 438.443 667.111 438.25L655.289 417.83C639.486 402.73 628.867 379.734 628.867 360.572C628.867 348.672 632.917 339.777 640.28 335.534C647.688 331.257 657.502 332.222 667.916 338.234C689.12 350.476 706.375 380.278 706.375 404.647C706.375 414.971 703.21 423.241 697.469 427.938C692.739 431.807 686.556 433.134 679.579 431.773L667.905 438.455C667.814 438.511 667.712 438.534 667.61 438.534L667.621 438.545ZM650.513 334.082C646.974 334.082 643.729 334.899 640.859 336.555C633.882 340.583 630.036 349.114 630.036 360.584C630.036 379.462 640.53 402.151 656.163 417.047C656.208 417.081 656.242 417.126 656.265 417.183L667.837 437.161L679.193 430.661C679.318 430.593 679.454 430.57 679.601 430.593C686.317 431.943 692.239 430.717 696.732 427.042C702.189 422.572 705.207 414.619 705.207 404.658C705.207 380.653 688.212 351.315 667.326 339.255C661.381 335.818 655.652 334.082 650.513 334.082Z" fill="#333333"/>
<path d="M690.65 420.215C702.806 412.977 702.552 390.133 690.083 369.191C677.614 348.249 657.651 337.14 645.495 344.377C633.339 351.615 633.593 374.46 646.062 395.402C658.531 416.344 678.493 427.453 690.65 420.215Z" fill="#BDA782"/>
<path d="M647.383 363.148C647.383 355.49 650.718 353.017 655.483 355.774C660.259 358.531 663.629 364.884 663.629 372.541C663.629 380.199 660.248 382.809 655.483 380.052C650.707 377.295 647.383 370.874 647.383 363.159V363.148ZM658.955 369.83C658.955 364.192 657.423 361.185 655.483 360.062C653.543 358.939 652.057 360.21 652.057 365.848C652.057 371.486 653.543 374.629 655.483 375.741C657.423 376.864 658.955 375.468 658.955 369.819V369.83ZM674.712 366.869L678.626 369.127L660.52 398.43L656.606 396.173L674.712 366.869ZM671.604 392.61C671.604 384.896 674.985 382.445 679.704 385.18C684.435 387.914 687.85 394.289 687.85 401.993C687.85 409.696 684.424 412.237 679.704 409.503C674.985 406.769 671.604 400.268 671.604 392.61ZM683.176 399.293C683.176 393.654 681.644 390.591 679.704 389.479C677.764 388.356 676.278 389.672 676.278 395.322C676.278 400.972 677.764 404.046 679.704 405.169C681.644 406.292 683.176 404.942 683.176 399.304V399.293Z" fill="white"/>
<path d="M476.233 552.913L377.488 495.712C377.182 495.542 377 495.213 377 494.861C377 494.51 377.182 494.192 377.488 494.022L384.136 490.187L385.112 491.878L379.938 494.861L477.22 551.222L476.245 552.913H476.233Z" fill="#333333"/>
<path d="M476.289 547.796C476.187 547.796 476.085 547.774 475.994 547.717C475.813 547.615 475.699 547.422 475.699 547.206V491.844C475.699 491.639 475.813 491.447 475.994 491.333L542.566 452.851C542.747 452.749 542.974 452.749 543.156 452.851C543.337 452.954 543.451 453.146 543.451 453.362V471.003H542.282V454.383L476.879 492.195V546.197L479.148 544.881L479.738 545.89L476.595 547.706C476.505 547.762 476.403 547.785 476.3 547.785L476.289 547.796Z" fill="#333333"/>
<path d="M475.992 547.717L386.572 495.372C386.391 495.27 386.277 495.077 386.277 494.861V439.714C386.277 439.51 386.391 439.306 386.572 439.204C386.754 439.101 386.981 439.101 387.162 439.204L477.229 491.378L476.639 492.388L387.457 440.724V494.521L476.594 546.696L476.004 547.705L475.992 547.717Z" fill="#333333"/>
<path d="M542.76 454.054L452.988 402.049L386.961 440.225L386.371 439.215L452.693 400.881C452.874 400.779 453.101 400.779 453.283 400.881L543.349 453.056L542.76 454.065V454.054Z" fill="#333333"/>
<path d="M396.207 466.374L399.316 468.167C402.776 470.164 404.92 473.476 404.92 477.867C404.92 482.257 402.776 483.187 399.44 481.259L396.207 479.398V466.363V466.374ZM399.179 479.024C401.29 480.238 402.606 479.705 402.606 476.539C402.606 473.374 401.29 471.4 399.179 470.186L398.476 469.778V478.627L399.179 479.035V479.024Z" fill="#BDA782"/>
<path d="M407.145 472.682L414.088 476.687V478.865L409.402 476.165V479.171L413.384 481.463V483.641L409.402 481.35V484.833L414.258 487.635V489.813L407.145 485.706V472.671V472.682Z" fill="#BDA782"/>
<path d="M416.559 478.116L418.828 479.421V490.266L423.434 492.921V495.099L416.559 491.129V478.094V478.116Z" fill="#BDA782"/>
<path d="M425.41 483.233L427.679 484.538V497.573L425.41 496.268V483.233Z" fill="#BDA782"/>
<path d="M428.992 485.298L431.363 486.67L432.86 493.886C433.212 495.531 433.462 496.971 433.813 498.639L433.893 498.685C434.256 497.437 434.505 496.279 434.857 495.043L436.321 489.541L438.612 490.868L435.152 501.906L432.441 500.341L428.98 485.309L428.992 485.298Z" fill="#BDA782"/>
<path d="M439.918 491.605L446.861 495.61V497.788L442.176 495.088V498.095L446.158 500.386V502.564L442.176 500.273V503.756L447.031 506.558V508.736L439.918 504.629V491.594V491.605Z" fill="#BDA782"/>
<path d="M449.336 497.04L453.284 499.32C455.655 500.693 457.538 502.746 457.538 505.73C457.538 507.681 456.687 508.396 455.383 508.226L458.026 515.078L455.508 513.626L453.182 507.363L451.605 506.456V511.379L449.336 510.075V497.04ZM453.068 505.242C454.52 506.081 455.337 505.843 455.337 504.459C455.337 503.075 454.532 502.111 453.068 501.271L451.605 500.42V504.391L453.068 505.242Z" fill="#BDA782"/>
<path d="M461.509 512.332L458.117 502.111L460.522 503.495L461.657 507.329C461.974 508.486 462.281 509.576 462.632 510.778L462.689 510.812C463.041 510.018 463.381 509.292 463.699 508.509L464.833 505.979L467.193 507.341L463.778 513.637V518.402L461.509 517.097V512.332Z" fill="#BDA782"/>
<path d="M447.068 564.67L429.609 574.75L430.585 576.439L448.044 566.36L447.068 564.67Z" fill="#333333"/>
<path d="M544.553 618.652L525.168 629.844L526.144 631.534L545.528 620.342L544.553 618.652Z" fill="#333333"/>
<path d="M439.307 557.06L438.328 558.749L490.789 589.159L491.768 587.471L439.307 557.06Z" fill="#333333"/>
<path d="M394.821 533.57L377.441 523.496C377.135 523.325 376.953 522.996 376.953 522.656V494.873H378.904V522.1L395.808 531.891L394.833 533.581L394.821 533.57Z" fill="#333333"/>
<path d="M438.499 558.619C436.798 551.744 433.303 544.711 428.641 538.834L430.172 537.62C434.994 543.712 438.624 551.007 440.394 558.154L438.499 558.619Z" fill="#333333"/>
<path d="M425.598 577.701C423.011 577.701 420.175 576.85 417.248 575.16C407.276 569.408 399.176 555.397 399.176 543.939C399.176 536.315 402.817 531.187 408.683 530.563L408.887 532.503C404.02 533.014 401.127 537.291 401.127 543.939C401.127 554.773 408.796 568.024 418.224 573.47C422.614 575.999 426.687 576.442 429.705 574.695C432.7 572.97 434.345 569.261 434.345 564.258C434.345 557.235 431.009 548.761 425.643 542.147L427.163 540.921C432.802 547.864 436.296 556.804 436.296 564.258C436.296 569.987 434.299 574.298 430.68 576.397C429.16 577.27 427.447 577.713 425.598 577.713V577.701Z" fill="#333333"/>
<path d="M422.217 567.593C420.742 567.593 419.109 567.105 417.441 566.141C411.746 562.851 407.117 554.853 407.117 548.307C407.117 545.028 408.263 542.555 410.339 541.364C412.427 540.161 415.161 540.411 418.031 542.067C423.726 545.357 428.355 553.355 428.355 559.901C428.355 563.18 427.209 565.653 425.133 566.844C424.259 567.343 423.272 567.593 422.217 567.593ZM418.031 565.12C420.527 566.561 422.841 566.81 424.554 565.823C426.256 564.847 427.186 562.737 427.186 559.89C427.186 553.718 422.818 546.174 417.441 543.065C414.945 541.625 412.631 541.375 410.918 542.362C409.216 543.338 408.286 545.448 408.286 548.295C408.286 554.467 412.653 562.011 418.031 565.12Z" fill="#333333"/>
<path d="M419.553 559.901C418.895 559.901 418.18 559.686 417.443 559.266C415.049 557.882 413.098 554.512 413.098 551.756C413.098 550.304 413.62 549.192 414.572 548.647C415.537 548.091 416.762 548.193 418.033 548.931C420.426 550.315 422.378 553.684 422.378 556.441C422.378 557.893 421.856 559.005 420.903 559.55C420.494 559.788 420.041 559.901 419.553 559.901ZM415.934 549.464C415.65 549.464 415.389 549.532 415.162 549.657C414.584 549.986 414.266 550.735 414.266 551.756C414.266 554.104 415.991 557.076 418.033 558.256C418.929 558.778 419.734 558.869 420.324 558.54C420.903 558.211 421.221 557.462 421.221 556.441C421.221 554.093 419.496 551.12 417.454 549.94C416.91 549.623 416.388 549.464 415.934 549.464Z" fill="#333333"/>
<path d="M425.723 540.933C425.564 540.933 425.416 540.876 425.303 540.762C422.898 538.312 418.598 535.124 416.102 533.672C411.496 531.006 407.163 530.223 403.578 531.392C400.832 532.288 398.688 534.319 397.372 537.28C397.304 537.427 397.179 537.552 397.02 537.597C396.861 537.654 396.691 537.631 396.544 537.552L395.602 537.007C395.353 536.871 395.25 536.565 395.341 536.304C396.419 533.264 397.905 531.187 400.004 529.769C400.027 529.758 408.796 524.415 408.796 524.415C413.107 522.112 418.689 522.724 424.531 526.094C428.468 528.363 431.474 530.745 433.993 533.581C434.084 533.683 434.141 533.831 434.141 533.967V535.816C434.141 536.02 434.027 536.213 433.846 536.327L426.006 540.853C425.916 540.91 425.813 540.933 425.711 540.933H425.723ZM406.992 529.69C409.999 529.69 413.289 530.688 416.692 532.651C419.154 534.069 423.306 537.143 425.825 539.605L432.983 535.464V534.171C430.578 531.505 427.697 529.247 423.953 527.092C418.473 523.927 413.289 523.325 409.375 525.413L400.639 530.722C398.949 531.857 397.701 533.502 396.748 535.839C398.223 533.071 400.446 531.153 403.215 530.257C404.406 529.871 405.676 529.679 406.992 529.679V529.69Z" fill="#333333"/>
<path fill-rule="evenodd" clip-rule="evenodd" d="M610.8 532.197C609.972 530.246 609.075 528.329 608.043 526.468C608.009 526.411 607.964 526.366 607.93 526.309V520.841C607.93 520.228 608.508 519.786 608.939 519.525C609.37 519.264 610.902 518.345 610.902 518.345C611.413 518.209 611.912 518.595 611.912 519.117V530.813C611.912 531.426 611.435 531.721 610.902 532.129C610.868 532.152 610.834 532.175 610.8 532.197Z" fill="#BDA782"/>
<path d="M610.812 532.765C610.812 532.765 610.71 532.765 610.665 532.742C610.494 532.696 610.336 532.583 610.268 532.424C609.315 530.189 608.441 528.385 607.545 526.752L607.465 526.638C607.397 526.536 607.363 526.423 607.363 526.309V520.841C607.363 520.149 607.794 519.536 608.657 519.026L610.619 517.846C610.619 517.846 610.721 517.801 610.767 517.778C611.186 517.665 611.629 517.755 611.969 518.016C612.31 518.277 612.514 518.686 612.514 519.117V530.813C612.514 531.675 611.924 532.118 611.402 532.504L611.277 532.594C611.277 532.594 611.209 532.651 611.198 532.651C611.096 532.719 610.96 532.765 610.823 532.765H610.812ZM608.532 526.128C608.532 526.128 608.554 526.173 608.566 526.196C609.394 527.693 610.188 529.327 611.05 531.29C611.255 531.12 611.334 530.995 611.334 530.825V519.128C611.334 519.037 611.277 518.981 611.255 518.958C611.232 518.935 611.186 518.912 611.13 518.912L609.258 520.047C608.793 520.331 608.532 520.614 608.532 520.864V526.15V526.128Z" fill="#BDA782"/>
<path d="M622.329 572.857H620.378V561.285C620.378 548.556 587.421 487.147 576.019 482.575C575.974 482.564 575.94 482.541 575.906 482.518L551.696 468.734C550.55 468.065 549.495 467.963 548.814 468.428C547.952 469.018 489.334 502.587 482.651 506.41L481.676 504.72C504.059 491.912 546.659 467.498 547.714 466.817C549.03 465.909 550.845 465.989 552.672 467.044L576.825 480.794C589.077 485.888 622.352 547.819 622.352 561.297V572.868L622.329 572.857Z" fill="#333333"/>
<path d="M555.757 607.13H553.806V599.291C553.806 586.153 521.564 527.319 511.217 521.567L485.079 506.683C483.99 506.059 482.98 505.923 482.299 506.308C481.63 506.694 481.244 507.624 481.244 508.861V577.645H479.293V508.861C479.293 506.887 480.019 505.378 481.324 504.618C482.64 503.858 484.319 503.983 486.054 504.981L512.182 519.854C518.262 523.235 529.97 541.92 538.139 556.884C546.273 571.779 555.768 591.814 555.768 599.279V607.119L555.757 607.13Z" fill="#333333"/>
<path d="M539.875 578.234C539.444 578.234 539.047 578.121 538.74 577.905L485.147 547.24C484.852 547.07 484.637 546.707 484.637 546.367V512.525C484.637 512.253 484.773 512.015 484.988 511.879C485.215 511.754 485.488 511.754 485.726 511.89C486.917 512.559 514.893 528.385 515.404 528.703C522.131 532.084 541.826 570.815 542.813 574.23C543.21 575.603 542.768 576.896 541.622 577.667C541.066 578.042 540.442 578.234 539.875 578.234ZM485.817 546.265L539.353 576.896C539.353 576.896 539.398 576.93 539.421 576.941C539.682 577.145 540.385 577.089 540.964 576.692C541.384 576.408 542.03 575.75 541.69 574.547C540.635 570.928 520.838 532.73 514.825 529.713C514.292 529.384 495.993 519.037 485.805 513.274V546.265H485.817Z" fill="#333333"/>
<path d="M558.288 621.413C557.846 621.413 557.369 621.299 556.927 621.004L546.728 615.116C545.707 614.527 544.867 613.88 544.867 611.804V607.289C544.867 606.494 545.196 605.848 545.775 605.507C546.353 605.167 547.091 605.212 547.783 605.61L557.834 611.441C557.925 611.486 558.027 611.497 558.118 611.441L623.544 574.615C623.895 574.411 624.349 574.457 624.655 574.729C624.814 574.865 625.313 575.387 625.313 576.51V581.32C625.313 581.887 625.336 582.943 624.428 583.476C624.156 583.635 562.191 619.564 559.559 621.095C559.309 621.265 558.833 621.424 558.299 621.424L558.288 621.413ZM546.818 607.311V611.804C546.818 612.916 547.023 613.029 547.703 613.426L557.97 619.359C558.209 619.518 558.481 619.45 558.538 619.416C559.196 619.03 620.628 583.419 623.339 581.842C623.362 581.717 623.362 581.49 623.351 581.343V576.964L559.06 613.154C558.368 613.54 557.517 613.528 556.836 613.142L546.796 607.323L546.818 607.311Z" fill="#333333"/>
<path fill-rule="evenodd" clip-rule="evenodd" d="M531.444 576.499L529.425 577.043C528.926 577.179 528.449 576.805 528.449 576.295V565.165C528.449 564.564 528.846 564.042 529.425 563.883L531.444 563.339C531.943 563.203 532.42 563.577 532.42 564.087V575.217C532.42 575.818 532.023 576.34 531.444 576.499Z" fill="#BDA782"/>
<path d="M529.221 577.667C528.926 577.667 528.642 577.565 528.393 577.384C528.052 577.123 527.859 576.726 527.859 576.306V565.177C527.859 564.314 528.438 563.554 529.266 563.327L531.286 562.783C531.705 562.669 532.136 562.76 532.465 563.021C532.806 563.282 532.999 563.679 532.999 564.099V575.228C532.999 576.09 532.42 576.85 531.592 577.077L529.572 577.622C529.459 577.656 529.334 577.667 529.209 577.667H529.221ZM531.649 563.906C531.649 563.906 531.614 563.906 531.592 563.906L529.572 564.451C529.255 564.541 529.028 564.836 529.028 565.165V576.295C529.028 576.374 529.073 576.419 529.107 576.442C529.13 576.465 529.198 576.499 529.277 576.476L531.297 575.932C531.615 575.841 531.841 575.557 531.841 575.217V564.088C531.841 564.008 531.796 563.963 531.762 563.94C531.739 563.929 531.705 563.895 531.649 563.895V563.906Z" fill="#BDA782"/>
<path d="M577.231 597.203H576.062V590.6C576.062 588.241 577.333 586.04 579.375 584.86L597.584 574.377C598.31 573.958 599.183 573.958 599.921 574.377C600.647 574.797 601.089 575.557 601.089 576.397V583.294H599.921V576.397C599.921 575.977 599.705 575.603 599.342 575.387C598.979 575.183 598.548 575.183 598.185 575.387L579.976 585.87C578.297 586.845 577.254 588.649 577.254 590.589V597.192L577.231 597.203Z" fill="#333333"/>
<path d="M561.734 601.673C561.632 601.673 561.53 601.65 561.44 601.594C561.258 601.492 561.145 601.299 561.145 601.083V593.028C561.145 592.824 561.258 592.62 561.44 592.518L569.562 587.821C570.13 587.492 570.799 587.492 571.355 587.821C571.922 588.15 572.251 588.729 572.251 589.375V594.639C572.251 595.275 571.911 595.876 571.355 596.193L562.018 601.582C561.927 601.639 561.825 601.662 561.723 601.662L561.734 601.673ZM562.324 593.369V600.073L570.776 595.195C570.969 595.082 571.083 594.877 571.083 594.662V589.398C571.083 589.069 570.867 588.91 570.776 588.865C570.686 588.808 570.436 588.706 570.152 588.865L562.324 593.391V593.369Z" fill="#BDA782"/>
<path d="M559.377 602.989C559.172 602.989 558.957 602.955 558.753 602.887C558.106 602.671 557.539 602.127 557.232 601.435C557.198 601.355 557.176 601.276 557.176 601.196V595.683C557.176 595.535 557.232 595.399 557.335 595.286C557.448 595.161 557.55 595.036 557.652 594.923C557.913 594.605 558.163 594.31 558.537 594.106L561.464 592.484L562.031 593.505L559.104 595.138C558.923 595.24 558.764 595.433 558.56 595.672C558.492 595.751 558.424 595.83 558.356 595.91V601.06C558.537 601.401 558.821 601.673 559.127 601.775C559.331 601.843 559.513 601.832 559.683 601.741L561.453 600.731L562.031 601.752L560.25 602.762C559.978 602.91 559.683 602.989 559.377 602.989Z" fill="#BDA782"/>
<path d="M606.614 576.499C606.319 576.499 606.013 576.419 605.741 576.26C605.196 575.943 604.867 575.375 604.867 574.751V569.374C604.867 568.75 605.196 568.171 605.741 567.865L615.1 562.465C615.282 562.363 615.509 562.363 615.69 562.465C615.872 562.567 615.985 562.76 615.985 562.976V571.03C615.985 571.235 615.872 571.439 615.69 571.541L607.499 576.272C607.227 576.43 606.921 576.51 606.626 576.51L606.614 576.499ZM614.805 563.985L606.331 568.875C606.149 568.977 606.047 569.17 606.047 569.374V574.751C606.047 575.046 606.251 575.194 606.331 575.251C606.421 575.296 606.648 575.398 606.909 575.251L614.817 570.69V563.985H614.805Z" fill="#BDA782"/>
<path d="M615.692 571.564L615.102 570.554L617.972 568.864C618.097 568.796 618.21 568.671 618.358 568.512C618.471 568.387 618.607 568.24 618.789 568.092V562.953C618.426 562.42 617.836 562.034 617.405 562.284L615.703 563.293L615.102 562.284L616.815 561.263C617.824 560.684 619.14 561.206 619.889 562.476C619.946 562.567 619.968 562.669 619.968 562.771V568.353C619.968 568.535 619.889 568.705 619.742 568.818C619.526 568.988 619.367 569.159 619.208 569.317C619.004 569.522 618.823 569.726 618.562 569.873L615.703 571.552L615.692 571.564Z" fill="#BDA782"/>
<path d="M551.785 572.29C551.456 572.29 551.127 572.244 550.809 572.142C549.936 571.87 549.198 571.246 548.801 570.418C542.369 557.076 533.849 542.192 527.099 532.492C526.622 531.811 526.452 530.949 526.634 530.132C526.815 529.316 527.337 528.601 528.063 528.192L581.486 497.437C583.517 496.404 584.912 497.743 587.419 500.829C592.694 507.352 606.444 532.798 608.146 537.473C609.065 540.002 607.012 541.057 606.252 541.455C606.172 541.5 606.104 541.534 606.047 541.557L553.441 571.836C552.931 572.131 552.352 572.278 551.785 572.278V572.29ZM582.779 498.265C582.53 498.265 582.303 498.344 582.053 498.469L528.653 529.202C528.199 529.463 527.893 529.883 527.779 530.393C527.666 530.893 527.768 531.403 528.063 531.823C534.961 541.715 543.31 556.316 549.856 569.907C550.117 570.452 550.583 570.849 551.15 571.019C551.728 571.201 552.33 571.133 552.851 570.826L605.457 540.547C605.526 540.513 605.605 540.468 605.707 540.411C606.671 539.912 607.568 539.299 607.046 537.87C605.367 533.241 591.742 508.021 586.512 501.566C584.481 499.059 583.562 498.253 582.779 498.253V498.265Z" fill="#333333"/>
<path d="M548.432 622.434C548.261 622.434 548.091 622.388 547.944 622.298L534.035 614.266C533.808 614.129 533.638 613.914 533.581 613.664C531.959 607.288 528.76 600.708 524.551 595.138L526.105 593.958C530.371 599.619 533.649 606.29 535.362 612.779L548.522 620.38L554.966 617.987L555.647 619.813L548.772 622.366C548.659 622.411 548.545 622.422 548.432 622.422V622.434Z" fill="#333333"/>
<path d="M520.773 633.041C518.186 633.041 515.339 632.19 512.4 630.489C502.428 624.737 494.328 610.726 494.328 599.268C494.328 593.005 496.745 588.399 500.965 586.607L501.725 588.411C498.265 589.874 496.279 593.834 496.279 599.268C496.279 610.102 503.949 623.353 513.376 628.798C517.778 631.34 521.851 631.782 524.868 630.046C527.852 628.322 529.508 624.601 529.508 619.586C529.508 612.643 526.252 604.259 521.011 597.702L522.543 596.477C528.045 603.363 531.471 612.212 531.471 619.575C531.471 625.315 529.474 629.638 525.855 631.725C524.347 632.599 522.633 633.03 520.784 633.03L520.773 633.041Z" fill="#333333"/>
<path d="M517.369 622.922C515.895 622.922 514.261 622.434 512.593 621.47C506.898 618.18 502.27 610.182 502.27 603.636C502.27 600.357 503.415 597.884 505.491 596.693C507.579 595.49 510.313 595.74 513.183 597.396C518.878 600.686 523.507 608.684 523.507 615.23C523.507 618.509 522.361 620.982 520.285 622.173C519.412 622.672 518.425 622.922 517.369 622.922ZM513.183 620.449C515.679 621.889 517.993 622.139 519.707 621.152C521.408 620.176 522.339 618.066 522.339 615.219C522.339 609.047 517.971 601.503 512.593 598.394C510.097 596.953 507.783 596.704 506.07 597.691C504.368 598.667 503.438 600.777 503.438 603.624C503.438 609.796 507.806 617.34 513.183 620.449Z" fill="#333333"/>
<path d="M514.693 615.241C514.035 615.241 513.321 615.026 512.583 614.606C510.19 613.222 508.238 609.853 508.238 607.096C508.238 605.644 508.76 604.532 509.713 603.987C510.666 603.431 511.903 603.533 513.173 604.271C515.567 605.655 517.518 609.024 517.518 611.781C517.518 613.233 516.996 614.345 516.044 614.89C515.635 615.128 515.181 615.241 514.693 615.241ZM511.074 604.804C510.791 604.804 510.53 604.872 510.303 604.997C509.724 605.326 509.407 606.075 509.407 607.096C509.407 609.444 511.131 612.416 513.173 613.596C514.07 614.118 514.875 614.209 515.465 613.88C516.044 613.551 516.361 612.802 516.361 611.781C516.361 609.433 514.637 606.46 512.595 605.281C512.05 604.963 511.528 604.804 511.074 604.804Z" fill="#333333"/>
<path d="M521.113 596.942C520.954 596.942 520.807 596.885 520.694 596.772C518.288 594.321 513.989 591.134 511.493 589.681C506.887 587.027 502.553 586.233 498.968 587.401C496.223 588.297 494.079 590.328 492.763 593.289C492.695 593.437 492.57 593.561 492.411 593.607C492.252 593.663 492.082 593.641 491.934 593.561L490.993 593.017C490.743 592.881 490.641 592.574 490.732 592.313C491.81 589.273 493.296 587.197 495.395 585.79C495.417 585.779 504.187 580.435 504.187 580.435C508.498 578.132 514.08 578.745 519.922 582.114C523.859 584.383 526.865 586.766 529.395 589.602C529.486 589.704 529.543 589.852 529.543 589.988V591.837C529.543 592.041 529.429 592.234 529.248 592.347L521.408 596.874C521.318 596.931 521.215 596.953 521.113 596.953V596.942ZM502.383 585.699C505.389 585.699 508.679 586.698 512.083 588.66C514.545 590.078 518.697 593.153 521.215 595.615L528.374 591.474V590.18C525.969 587.514 523.087 585.257 519.344 583.101C513.864 579.936 508.691 579.335 504.765 581.422L496.03 586.732C494.34 587.866 493.092 589.511 492.139 591.848C493.613 589.08 495.837 587.163 498.605 586.255C499.796 585.869 501.067 585.677 502.383 585.677V585.699Z" fill="#333333"/>
<path d="M611.011 86.4251C611.011 90.1462 608.402 91.6551 605.191 89.7945C601.981 87.934 599.383 83.4187 599.383 79.6976C599.383 75.9765 601.992 74.4677 605.203 76.3169C608.413 78.1774 611.011 82.6927 611.011 86.4138V86.4251Z" fill="#BDA782"/>
<path d="M627.129 69.8388C614.117 50.3937 596.283 40.0926 583.27 44.4944C581.966 44.9369 582.204 47.6256 583.27 49.4748C584.541 51.687 586.277 52.4018 587.57 51.9593C597.758 48.5105 612.642 57.1099 622.83 72.3346C624.123 74.2746 625.859 75.5566 627.129 74.8191C628.196 74.1952 628.434 71.7787 627.129 69.8388Z" fill="#BDA782"/>
<path d="M634.676 64.3253C626.28 51.5396 616.081 41.2499 605.213 34.8741C594.424 28.5323 584.055 27.239 575.751 30.2794C574.457 30.7559 574.661 33.3879 575.751 35.2598C577.01 37.4494 578.768 38.2208 580.05 37.7443C594.538 32.4463 615.9 44.7895 630.376 66.8211C631.658 68.7724 633.416 70.0431 634.676 69.3056C635.753 68.6817 635.969 66.2766 634.676 64.3253Z" fill="#BDA782"/>
<path d="M618.984 74.4448C610.884 62.805 599.516 56.2477 591.416 58.5053C590.089 58.8797 589.42 60.3772 590.327 62.6915C591.099 64.6542 593.152 66.7303 594.491 66.3673C601.048 64.5294 609.364 69.3396 615.921 78.7558C617.26 80.6731 619.313 80.9794 620.085 79.9017C620.992 78.631 620.323 76.3621 618.996 74.4448H618.984Z" fill="#BDA782"/>
<path d="M254.736 198.273H252.785V155.038C252.785 154.687 252.967 154.369 253.273 154.187L254.294 153.598C257.437 151.782 260.363 149.831 263.256 147.619L264.448 149.173C261.487 151.431 258.492 153.439 255.281 155.288L254.748 155.594V198.262L254.736 198.273ZM268.679 145.69L267.397 144.215C273.331 139.065 278.175 133.529 282.872 128.162C290.541 119.393 297.79 111.111 309.112 104.577C320.65 97.9171 328.376 97.8604 335.852 97.7923C343.374 97.7356 351.145 97.6675 363.964 90.2594L364.985 89.6694L365.961 91.3598L364.94 91.9498C351.678 99.6075 343.635 99.6756 335.863 99.7436C328.637 99.8004 321.172 99.8684 310.077 106.267C299.038 112.643 291.891 120.8 284.335 129.444C279.604 134.856 274.703 140.449 268.668 145.679L268.679 145.69ZM379.269 97.2818L368.775 91.1896L369.75 89.4993L380.244 95.5914L379.269 97.2818Z" fill="#333333"/>
<path d="M291.403 222.188L290.427 220.498L379.053 169.333V98.0419L377.442 98.9722C364.157 106.641 356.114 106.709 348.331 106.777C341.093 106.834 333.617 106.902 322.51 113.312C311.46 119.688 304.302 127.867 296.735 136.524C288.862 145.52 280.716 154.834 267.59 162.412L267.057 162.719V206.555H265.105V162.152C265.105 161.8 265.287 161.482 265.593 161.301L266.614 160.711C279.468 153.291 287.5 144.113 295.271 135.23C302.963 126.449 310.213 118.156 321.546 111.61C333.095 104.94 340.832 104.883 348.32 104.815C355.853 104.758 363.635 104.69 376.466 97.2818L379.552 95.5007C379.858 95.3305 380.221 95.3305 380.528 95.5007C380.834 95.6708 381.016 95.9998 381.016 96.3515V169.9C381.016 170.252 380.834 170.569 380.528 170.751L291.414 222.2L291.403 222.188Z" fill="#333333"/>
<path d="M287.52 219.001L286.93 217.991L374.921 167.189V104.338C363.088 110.362 355.385 110.419 347.943 110.487C340.875 110.544 334.204 110.601 323.948 116.523C313.432 122.592 306.477 130.545 299.114 138.963C291.298 147.891 283.232 157.115 270.333 164.852V207.327H269.164V164.523C269.164 164.318 269.278 164.126 269.448 164.024C282.347 156.343 290.413 147.12 298.218 138.203C305.66 129.705 312.671 121.685 323.358 115.513C333.875 109.444 340.705 109.387 347.92 109.319C355.407 109.262 363.156 109.194 375.227 102.864C375.408 102.773 375.624 102.773 375.805 102.886C375.976 102.988 376.089 103.181 376.089 103.385V167.54C376.089 167.745 375.976 167.949 375.794 168.051L287.509 219.023L287.52 219.001Z" fill="#BDA782"/>
<path d="M254.211 154.214L253.23 155.902L265.464 163.007L266.444 161.32L254.211 154.214Z" fill="#333333"/>
<path d="M282.371 198.863L285.048 193.622C286.716 194.428 288.928 194.36 290.97 193.168C293.398 191.773 294.691 189.822 294.691 187.938C294.691 185.942 293.273 186.146 291.197 186.339L288.077 186.622C285.717 186.861 283.346 186.055 283.346 182.141C283.346 177.762 286.682 172.464 291.413 169.73C294.124 168.164 296.835 167.835 298.719 168.947L296.359 173.678C294.873 173.122 293.33 173.213 291.413 174.325C289.359 175.504 288.077 177.308 288.077 179.078C288.077 180.995 289.711 180.734 291.696 180.496L294.748 180.213C297.584 179.918 299.445 180.905 299.445 184.785C299.445 189.164 296.257 194.734 290.868 197.842C287.748 199.646 284.628 200.032 282.359 198.841L282.371 198.863Z" fill="#BDA782"/>
<path d="M285.321 200.134C284.153 200.134 283.052 199.884 282.099 199.385C281.816 199.238 281.702 198.886 281.85 198.602L284.527 193.361C284.675 193.078 285.015 192.964 285.31 193.1C286.887 193.86 288.895 193.701 290.688 192.669C292.866 191.41 294.114 189.697 294.114 187.95C294.114 187.496 294.034 187.201 293.864 187.042C293.512 186.724 292.571 186.804 291.47 186.906L288.135 187.201C286.467 187.371 285.151 187.031 284.221 186.191C283.257 185.329 282.769 183.956 282.769 182.141C282.769 177.456 286.286 172.022 291.13 169.219C294.091 167.506 296.973 167.223 299.037 168.448C299.298 168.607 299.4 168.936 299.264 169.219L296.904 173.95C296.768 174.222 296.451 174.347 296.178 174.234C294.76 173.701 293.388 173.882 291.731 174.835C289.848 175.924 288.679 177.546 288.679 179.078C288.679 179.464 288.759 179.725 288.906 179.861C289.292 180.212 290.404 180.076 291.47 179.94L291.64 179.918L294.715 179.634C296.451 179.452 297.744 179.747 298.629 180.553C299.582 181.415 300.047 182.799 300.047 184.784C300.047 189.765 296.405 195.346 291.187 198.353C289.167 199.521 287.148 200.111 285.333 200.111L285.321 200.134ZM283.177 198.591C285.197 199.374 287.863 198.943 290.597 197.366C296.031 194.223 298.878 188.676 298.878 184.807C298.878 183.196 298.527 182.062 297.846 181.449C297.211 180.882 296.224 180.678 294.828 180.825L291.606 181.12C290.166 181.302 288.906 181.449 288.124 180.757C287.704 180.394 287.5 179.827 287.5 179.101C287.5 177.115 288.861 175.153 291.13 173.837C292.9 172.816 294.488 172.543 296.076 172.986L297.948 169.231C296.303 168.561 294.023 168.924 291.72 170.252C287.284 172.816 283.949 177.932 283.949 182.152C283.949 183.627 284.3 184.694 285.015 185.329C285.696 185.942 286.705 186.18 288.033 186.044L291.38 185.749C292.809 185.624 293.932 185.522 294.67 186.191C295.089 186.577 295.294 187.156 295.294 187.961C295.294 190.128 293.83 192.227 291.277 193.69C289.337 194.813 287.159 195.052 285.333 194.382L283.177 198.591Z" fill="#BDA782"/>
<path d="M303.562 162.39L308.486 159.554V170.74L317.505 165.532V154.902L321.601 152.849V179.691L317.505 181.744V170.206L308.486 175.414V187.87L303.562 190.707V162.401V162.39Z" fill="#BDA782"/>
<path d="M303.563 191.285C303.46 191.285 303.358 191.262 303.268 191.206C303.086 191.104 302.973 190.911 302.973 190.695V162.39C302.973 162.186 303.086 161.981 303.268 161.879L308.191 159.043C308.373 158.941 308.6 158.941 308.781 159.043C308.963 159.145 309.076 159.338 309.076 159.554V169.719L316.927 165.192V154.902C316.927 154.675 317.052 154.483 317.244 154.38L321.34 152.316C321.521 152.225 321.737 152.236 321.907 152.338C322.077 152.44 322.191 152.633 322.191 152.838V179.679C322.191 179.906 322.066 180.099 321.873 180.201L317.778 182.255C317.596 182.345 317.381 182.334 317.21 182.232C317.04 182.13 316.927 181.937 316.927 181.733V171.216L309.076 175.743V187.859C309.076 188.063 308.963 188.267 308.781 188.37L303.858 191.206C303.767 191.262 303.665 191.285 303.563 191.285ZM304.153 162.73V189.686L307.896 187.519V175.402C307.896 175.198 308.01 174.994 308.191 174.892L317.21 169.685C317.392 169.583 317.619 169.583 317.8 169.685C317.982 169.787 318.095 169.98 318.095 170.195V180.78L321.022 179.305V153.779L318.095 155.254V165.521C318.095 165.725 317.982 165.929 317.8 166.032L308.781 171.239C308.6 171.341 308.373 171.341 308.191 171.239C308.01 171.137 307.896 170.944 307.896 170.728V160.563L304.153 162.73Z" fill="#BDA782"/>
<path d="M326.266 163.411C326.266 154.675 330.52 147.154 336.692 143.591C342.863 140.029 347.117 142.672 347.117 151.374C347.117 160.075 342.863 167.847 336.692 171.409C330.52 174.971 326.266 172.101 326.266 163.411ZM342.364 154.108C342.364 148.345 340.163 146.178 336.692 148.186C333.22 150.183 331.019 154.902 331.019 160.665C331.019 166.429 333.22 168.777 336.692 166.769C340.163 164.772 342.364 159.837 342.364 154.108Z" fill="#BDA782"/>
<path d="M331.995 173.485C331.008 173.485 330.1 173.258 329.295 172.793C326.924 171.42 325.676 168.176 325.676 163.411C325.676 154.687 329.783 146.904 336.397 143.081C339.471 141.311 342.148 140.982 344.168 142.151C346.482 143.489 347.707 146.677 347.707 151.374C347.707 160.098 343.499 168.164 336.987 171.919C335.171 172.963 333.492 173.496 331.995 173.496V173.485ZM341.49 142.627C340.186 142.627 338.666 143.115 336.987 144.091C330.736 147.698 326.844 155.106 326.844 163.411C326.844 167.676 327.922 170.649 329.885 171.783C331.518 172.725 333.776 172.419 336.397 170.898C342.557 167.347 346.539 159.678 346.539 151.363C346.539 147.108 345.518 144.272 343.589 143.16C342.977 142.809 342.273 142.627 341.502 142.627H341.49ZM334.468 168.04C333.81 168.04 333.288 167.858 332.902 167.631C331.28 166.701 330.429 164.284 330.429 160.654C330.429 154.766 332.71 149.797 336.397 147.676C338.393 146.518 339.755 146.813 340.538 147.279C342.114 148.186 342.943 150.546 342.943 154.119C342.943 160.019 340.606 165.192 336.975 167.279C335.988 167.858 335.149 168.051 334.457 168.051L334.468 168.04ZM338.983 148.027C338.405 148.027 337.735 148.243 336.987 148.674C333.674 150.591 331.609 155.174 331.609 160.643C331.609 163.74 332.301 165.918 333.504 166.61C334.252 167.041 335.228 166.916 336.408 166.247C339.675 164.364 341.785 159.588 341.785 154.097C341.785 151.022 341.139 148.958 339.959 148.277C339.675 148.107 339.346 148.027 338.983 148.027Z" fill="#BDA782"/>
<path d="M351.938 134.311L360.015 129.649C365.461 126.506 369.658 126.302 369.658 132.984C369.658 139.666 365.438 144.783 360.151 147.834L356.861 149.729V159.78L351.938 162.617V134.311ZM358.846 144.533C362.057 142.672 363.6 140.233 363.6 137.148C363.6 134.062 361.898 133.96 358.688 135.82L356.044 137.352V146.155L358.846 144.533Z" fill="#BDA782"/>
<path d="M351.938 163.207C351.835 163.207 351.733 163.184 351.643 163.127C351.461 163.025 351.348 162.832 351.348 162.617V134.311C351.348 134.107 351.461 133.903 351.643 133.801L359.72 129.138C363.498 126.96 366.221 126.404 368.036 127.448C369.499 128.287 370.237 130.148 370.237 132.973C370.237 139.042 366.572 144.783 360.435 148.334L357.44 150.069V159.78C357.44 159.985 357.326 160.189 357.145 160.291L352.221 163.127C352.13 163.184 352.028 163.207 351.926 163.207H351.938ZM352.527 134.652V161.607L356.271 159.44V149.729C356.271 149.525 356.385 149.321 356.566 149.218L359.856 147.324C365.619 143.988 369.068 138.634 369.068 132.984C369.068 130.613 368.524 129.093 367.446 128.469C366.062 127.675 363.6 128.253 360.31 130.159L352.527 134.652ZM356.044 146.745C355.942 146.745 355.84 146.723 355.749 146.666C355.568 146.564 355.454 146.371 355.454 146.155V137.352C355.454 137.148 355.568 136.943 355.749 136.841L358.393 135.31C360.628 134.016 362.069 133.699 363.044 134.255C363.816 134.697 364.19 135.65 364.19 137.136C364.19 140.438 362.488 143.092 359.142 145.032L356.339 146.655C356.249 146.711 356.147 146.734 356.044 146.734V146.745ZM356.634 137.692V145.146L358.563 144.034C361.569 142.298 363.033 140.052 363.033 137.159C363.033 136.456 362.931 135.559 362.466 135.287C362.091 135.071 361.184 135.071 358.994 136.342L356.646 137.703L356.634 137.692Z" fill="#BDA782"/>
<path d="M266.057 156.173C265.717 156.173 265.365 156.116 265.025 155.991C264.061 155.64 263.414 154.675 263.414 153.586V110.827H264.583V153.586C264.583 154.187 264.923 154.709 265.422 154.891C265.955 155.084 266.511 155.027 266.942 154.732C267.305 154.482 267.51 154.108 267.51 153.7V108.615H268.678V153.7C268.678 154.482 268.281 155.231 267.612 155.696C267.147 156.025 266.602 156.184 266.046 156.184L266.057 156.173Z" fill="#333333"/>
<path d="M367.729 98.0193C367.389 98.0193 367.037 97.9626 366.697 97.8378C365.733 97.4861 365.086 96.5218 365.086 95.4327V52.0387H366.254V95.4327C366.254 96.034 366.595 96.5558 367.094 96.7373C367.627 96.9302 368.183 96.8735 368.614 96.5785C368.977 96.3289 369.181 95.9546 369.181 95.5461V49.5769H370.35V95.5461C370.35 96.3289 369.953 97.0777 369.284 97.5428C368.818 97.8718 368.274 98.0307 367.718 98.0307L367.729 98.0193Z" fill="#333333"/>
<path d="M258.581 114.639L257.991 113.63C262.744 110.884 374.321 46.2982 375.308 45.765C376.181 45.2885 376.669 44.1994 376.669 42.7019C376.669 39.4005 374.332 35.3618 371.45 33.7054C370.168 32.968 368.989 32.8205 368.138 33.3083C367.151 33.8756 252.466 100.277 251.309 100.946L250.719 99.9365C251.876 99.2672 366.561 32.8545 367.548 32.2873C368.773 31.5839 370.373 31.7201 372.029 32.6844C375.228 34.5336 377.826 39.0261 377.826 42.7019C377.826 44.6418 377.123 46.094 375.852 46.786C374.842 47.3306 259.727 113.959 258.569 114.639H258.581Z" fill="#BDA782"/>
<path d="M257.401 114.889C256.448 114.889 255.359 114.48 254.236 113.675C251.422 111.667 248.518 107.537 248.666 103.816C248.734 102.058 249.426 100.719 250.628 100.027C251.819 99.3465 253.317 99.4146 254.86 100.22C258.207 101.978 260.26 106.596 260.498 110.056C260.646 112.257 260.044 113.845 258.808 114.537C258.388 114.775 257.923 114.889 257.412 114.889H257.401ZM249.834 103.862C249.698 107.163 252.353 110.884 254.917 112.711C256.244 113.652 257.446 113.947 258.229 113.505C259.035 113.051 259.443 111.814 259.318 110.124C259.103 106.948 257.163 102.75 254.304 101.252C253.124 100.64 252.035 100.56 251.207 101.037C250.379 101.513 249.891 102.523 249.834 103.862Z" fill="#BDA782"/>
<path d="M108.775 478.557L97.2383 484.722L97.789 485.753L109.326 479.588L108.775 478.557Z" fill="#333333"/>
<path d="M133.086 398.545L97.8086 418.716L98.3886 419.73L133.666 399.559L133.086 398.545Z" fill="#333333"/>
<path d="M133.346 528.26L132.711 527.273L135.899 525.243L158.112 512.412L158.702 513.433L136.511 526.241L133.346 528.26Z" fill="#333333"/>
<path d="M218.499 442.959H217.331V380.834C217.331 370.806 210.24 358.564 201.516 353.527C197.648 351.292 193.983 350.805 191.181 352.143C188.027 353.652 137.792 382.139 137.282 382.434L136.703 381.413C138.779 380.233 187.483 352.608 190.67 351.088C193.836 349.579 197.886 350.09 202.095 352.518C211.137 357.736 218.499 370.443 218.499 380.846V442.97V442.959Z" fill="#333333"/>
<path d="M129.659 529.236C127.798 529.236 125.756 528.624 123.646 527.41C116.442 523.246 110.577 513.127 110.577 504.845V436.753C110.577 432.601 107.638 427.53 104.031 425.442C102.386 424.501 100.877 424.319 99.7651 424.966C98.6646 425.601 98.0634 426.985 98.0634 428.857V485.252C98.0634 485.456 97.9499 485.661 97.7684 485.763C97.5869 485.865 97.36 485.865 97.1785 485.763L93.5254 483.653C93.3439 483.551 93.2305 483.358 93.2305 483.142V426.588C93.2305 423.026 94.4671 420.349 96.7133 419.055C98.971 417.751 101.932 418.023 105.052 419.827C111.246 423.4 116.295 432.113 116.295 439.238V507.329C116.295 512.639 120.05 519.117 124.667 521.783C126.8 523.008 128.762 523.223 130.226 522.395C131.667 521.567 132.461 519.763 132.461 517.335V391.691C132.461 386.598 134.219 382.774 137.407 380.937C140.618 379.087 144.838 379.484 149.308 382.06C158.27 387.233 165.565 399.826 165.565 410.138V511.901H164.397V410.138C164.397 400.211 157.363 388.061 148.729 383.081C144.645 380.721 140.845 380.324 138.009 381.958C135.195 383.58 133.652 387.04 133.652 391.703V517.347C133.652 520.217 132.654 522.373 130.827 523.416C129.001 524.471 126.607 524.256 124.1 522.804C119.165 519.956 115.137 513.013 115.137 507.329V439.238C115.137 432.487 110.361 424.228 104.485 420.836C101.739 419.259 99.1978 418.987 97.3146 420.065C95.4427 421.143 94.4103 423.457 94.4103 426.588V482.802L96.8835 484.231V428.846C96.8835 426.531 97.7003 424.796 99.1752 423.945C100.661 423.083 102.59 423.253 104.609 424.421C108.546 426.69 111.745 432.215 111.745 436.742V504.833C111.745 512.741 117.338 522.407 124.225 526.377C127.458 528.238 130.453 528.555 132.688 527.273C134.9 525.992 136.114 523.257 136.114 519.582V393.87C136.114 389.888 137.498 386.904 139.994 385.452C142.512 384 145.825 384.306 149.308 386.314C156.262 390.33 161.912 400.098 161.912 408.085V513.773H160.744V408.085C160.744 400.461 155.355 391.147 148.718 387.324C145.61 385.531 142.717 385.225 140.584 386.462C138.451 387.687 137.282 390.319 137.282 393.858V519.57C137.282 523.689 135.853 526.786 133.266 528.283C132.177 528.907 130.963 529.214 129.636 529.214L129.659 529.236Z" fill="#333333"/>
<path d="M210.936 435.414L171.672 457.938L172.253 458.951L211.518 436.428L210.936 435.414Z" fill="#333333"/>
<path d="M210.948 420.918L171.684 443.441L172.265 444.455L211.529 421.931L210.948 420.918Z" fill="#333333"/>
<path d="M172.883 429.64L172.305 428.619L174.335 427.45L174.914 428.471L172.883 429.64ZM176.945 427.303L176.366 426.282L178.397 425.113L178.975 426.134L176.945 427.303ZM181.006 424.966L180.428 423.945L182.458 422.776L183.037 423.797L181.006 424.966ZM185.068 422.629L184.489 421.608L186.52 420.439L187.098 421.46L185.068 422.629ZM189.129 420.292L188.55 419.271L190.581 418.102L191.16 419.123L189.129 420.292ZM193.191 417.955L192.612 416.934L194.643 415.765L195.221 416.786L193.191 417.955ZM197.252 415.618L196.673 414.597L198.704 413.428L199.283 414.449L197.252 415.618ZM201.313 413.281L200.735 412.26L202.766 411.091L203.344 412.112L201.313 413.281ZM205.375 410.944L204.796 409.923L206.827 408.754L207.406 409.775L205.375 410.944ZM209.436 408.607L208.858 407.586L210.888 406.417L211.467 407.438L209.436 408.607Z" fill="#333333"/>
<path d="M210.936 391.97L171.672 414.493L172.253 415.507L211.518 392.983L210.936 391.97Z" fill="#333333"/>
<path d="M179.201 505.31H177.25V480.329C177.25 479.478 177.341 478.559 177.534 477.572C178.373 473.17 181.13 468.53 184.556 465.739C185.18 465.229 185.815 464.786 186.451 464.423L294.884 401.811C297.528 400.291 300.058 400.064 302.02 401.187C303.597 402.095 307.477 404.318 307.477 404.318L306.502 406.009C306.502 406.009 302.622 403.785 301.045 402.877C299.717 402.117 297.868 402.333 295.849 403.501L187.415 466.114C186.87 466.431 186.315 466.817 185.77 467.259C182.684 469.778 180.188 473.976 179.428 477.946C179.258 478.808 179.179 479.603 179.179 480.329V505.31H179.201Z" fill="#333333"/>
<path d="M247.702 530.2L246.726 528.51L300.387 497.527C304.925 494.907 308.624 488.531 308.624 483.312V410.819C308.624 408.516 307.898 406.825 306.57 406.054C305.232 405.283 303.382 405.498 301.363 406.667L192.906 469.279C188.368 471.899 184.67 478.275 184.67 483.494V502.383H182.719V483.494C182.719 477.651 186.848 470.515 191.931 467.588L300.387 404.976C303.042 403.445 305.583 403.229 307.546 404.364C309.497 405.487 310.575 407.778 310.575 410.819V483.312C310.575 489.155 306.445 496.291 301.363 499.218L247.702 530.2Z" fill="#333333"/>
<path d="M219.459 490.955L200.656 501.611L201.618 503.308L220.421 492.653L219.459 490.955Z" fill="#333333"/>
<path d="M240.049 465.018L200.656 487.478L201.623 489.173L241.015 466.713L240.049 465.018Z" fill="#333333"/>
<path d="M234.956 481.701L224.961 487.532L225.944 489.218L235.939 483.387L234.956 481.701Z" fill="#333333"/>
<path d="M284.707 433.906L270.946 441.847C267.1 444.071 263.98 449.448 263.98 453.873V469.71C263.98 474.134 268.382 476.834 272.228 474.611L286.205 466.59C290.051 464.366 293.171 458.989 293.171 454.565V438.773C293.171 434.348 288.542 431.682 284.696 433.906H284.707ZM265.807 458.887L272.194 455.2V460.679L265.807 464.367V458.887ZM290.437 454.576C290.437 458.308 287.805 462.846 284.56 464.718L271.672 472.16C268.428 474.032 265.796 472.523 265.796 468.802V466.851L272.183 463.164V466.023L278.116 466.794L284.049 459.182V456.334L290.437 452.647V454.599V454.576ZM282.223 447.474V458.966L278.57 463.652L274.917 463.175V450.072L278.57 445.387L282.223 445.863V447.474ZM290.437 450.151L284.049 453.839V448.359L290.437 444.672V450.151ZM290.437 442.187L284.049 445.874V443.016L278.116 442.244L272.183 449.856V452.704L265.796 456.391V453.839C265.796 450.106 268.428 445.568 271.672 443.696L284.56 436.254C287.805 434.382 290.437 435.891 290.437 439.612V442.165V442.187Z" fill="#BDA782"/>
<path d="M248.926 513.16C248.824 513.16 248.722 513.138 248.631 513.081C248.449 512.979 248.336 512.786 248.336 512.571V501.282C248.336 501.067 248.449 500.874 248.631 500.772L269.619 488.803C269.8 488.701 270.027 488.701 270.209 488.803C270.39 488.905 270.504 489.098 270.504 489.314V500.602C270.504 500.817 270.39 501.01 270.209 501.112L249.221 513.081C249.13 513.138 249.028 513.16 248.926 513.16ZM249.516 501.634V511.572L269.324 500.273V490.335L249.516 501.634Z" fill="#333333"/>
<path d="M272.649 499.603C272.546 499.603 272.444 499.581 272.354 499.524C272.172 499.422 272.059 499.229 272.059 499.013V487.725C272.059 487.51 272.172 487.317 272.354 487.215L293.342 475.246C293.523 475.144 293.75 475.144 293.931 475.246C294.113 475.348 294.226 475.541 294.226 475.757V487.045C294.226 487.26 294.113 487.453 293.931 487.555L272.943 499.524C272.853 499.581 272.751 499.603 272.649 499.603ZM273.238 488.077V498.015L293.047 486.716V476.778L273.238 488.077Z" fill="#333333"/>
<path d="M233.837 521.374L233.258 520.353L244.705 513.83V503.892L224.602 515.361L224.023 514.34L245.011 502.371C245.193 502.269 245.42 502.269 245.601 502.371C245.783 502.474 245.896 502.666 245.896 502.882V514.17C245.896 514.386 245.783 514.579 245.601 514.681L233.859 521.374H233.837Z" fill="#333333"/>
<path d="M239.717 595.966C238.219 607.3 220.261 616.251 198.297 616.251C176.333 616.251 159.361 607.788 157.036 596.897C156.593 598.167 156.344 599.472 156.344 600.799C156.344 612.848 175.244 622.615 198.558 622.615C221.871 622.615 240.772 612.848 240.772 600.799C240.772 599.132 240.398 597.521 239.717 595.955V595.966Z" fill="#DDDDDD"/>
<path d="M198.523 617.056C189.107 617.056 179.623 615.264 171.772 611.577C163.059 607.493 157.534 601.65 156.207 595.138L157.353 594.9C158.601 601.037 163.899 606.585 172.26 610.51C190.105 618.883 216.414 617.329 230.901 607.028C237.652 602.229 240.953 596.363 240.181 590.509L240.057 585.404L241.225 585.382L241.339 590.419C242.155 596.67 238.684 602.921 231.559 607.98C223.153 613.948 210.878 617.045 198.489 617.045L198.523 617.056Z" fill="#333333"/>
<path d="M198.523 610.284C189.107 610.284 179.623 608.491 171.772 604.804C168.278 603.159 164.534 600.72 162.016 598.417L162.81 597.555C165.249 599.778 168.879 602.149 172.271 603.749C190.117 612.121 216.425 610.567 230.913 600.266C239.716 594.004 242.382 585.711 238.037 578.076L239.058 577.497C243.732 585.711 240.942 594.582 231.593 601.219C223.187 607.186 210.912 610.284 198.535 610.284H198.523Z" fill="#333333"/>
<path d="M210.086 577.815C200.67 577.815 191.186 576.022 183.335 572.335C177.89 569.782 173.59 566.458 170.867 562.726L171.82 562.034C174.418 565.608 178.57 568.807 183.834 571.269C201.68 579.641 227.988 578.087 242.476 567.786C249.09 563.089 252.3 557.201 251.518 551.188V544.642H252.686V551.109C253.526 557.485 250.145 563.77 243.156 568.739C234.75 574.706 222.475 577.803 210.098 577.803L210.086 577.815Z" fill="#BDA782"/>
<path d="M210.087 571.053C200.671 571.053 191.187 569.261 183.336 565.573L183.835 564.518C201.681 572.891 227.989 571.337 242.477 561.036C248.875 556.486 252.108 550.791 251.586 544.994C250.985 538.335 245.472 532.084 236.441 527.852C234.467 526.922 232.346 526.105 230.122 525.401L230.474 524.278C232.743 524.993 234.921 525.833 236.94 526.786C246.356 531.199 252.12 537.801 252.755 544.881C253.311 551.12 249.907 557.19 243.157 561.989C234.751 567.956 222.476 571.053 210.087 571.053Z" fill="#BDA782"/>
<path d="M188.587 603.84C179.171 603.84 169.687 602.047 161.825 598.36C152.522 593.992 146.793 587.503 146.044 580.503C145.987 580.424 145.953 580.322 145.953 580.22V570.679H147.122V579.981C147.156 580.038 147.178 580.106 147.178 580.174C147.78 586.822 153.305 593.073 162.312 597.294C180.158 605.666 206.466 604.112 220.954 593.822C223.79 591.803 226.014 589.568 227.556 587.163L228.543 587.798C226.91 590.328 224.584 592.676 221.634 594.775C213.228 600.743 200.953 603.84 188.576 603.84H188.587Z" fill="#BDA782"/>
<path d="M188.666 597.078C179.068 597.078 169.539 595.218 161.836 591.599C152.635 587.287 147.053 581.105 146.1 574.196C145.329 568.546 147.87 562.885 153.259 558.233L154.019 559.118C148.937 563.497 146.531 568.784 147.258 574.025C148.142 580.526 153.497 586.391 162.323 590.532C174.973 596.466 192.614 597.589 207.26 593.391L207.589 594.514C201.599 596.227 195.121 597.078 188.666 597.078Z" fill="#BDA782"/>
<path d="M198.524 595.013C189.108 595.013 179.624 593.221 171.762 589.534C162.459 585.166 156.73 578.677 155.981 571.688C155.925 571.609 155.891 571.507 155.891 571.405V561.864H157.059V571.167C157.093 571.223 157.116 571.291 157.116 571.359C157.717 578.007 163.242 584.258 172.25 588.479C190.095 596.851 216.404 595.297 230.891 584.996C236.972 580.674 240.228 575.251 240.035 569.714L241.204 569.68C241.397 575.614 237.982 581.4 231.561 585.949C223.154 591.916 210.879 595.013 198.502 595.013H198.524Z" fill="#333333"/>
<path d="M198.525 588.241C189.109 588.241 179.625 586.448 171.774 582.761C163.946 579.085 158.58 573.878 156.686 568.103C155.336 564.008 155.755 559.754 157.888 555.806L158.921 556.362C156.947 560.015 156.55 563.951 157.797 567.729C159.601 573.197 164.741 578.155 172.274 581.683C190.119 590.056 216.428 588.501 230.915 578.2C234.239 575.841 236.712 573.186 238.255 570.316L239.287 570.872C237.654 573.901 235.067 576.68 231.596 579.153C223.189 585.121 210.914 588.218 198.537 588.218L198.525 588.241Z" fill="#333333"/>
<path d="M191.421 559.096C182.005 559.096 172.521 557.303 164.67 553.616C155.254 549.203 149.502 542.6 148.856 535.521C148.3 529.282 151.703 523.212 158.453 518.413C173.247 507.908 200.089 506.297 218.275 514.828C227.691 519.241 233.454 525.844 234.089 532.923C234.645 539.163 231.242 545.232 224.492 550.031C216.085 555.999 203.81 559.096 191.421 559.096ZM165.158 552.55C183.004 560.922 209.312 559.368 223.8 549.067C230.198 544.518 233.431 538.822 232.909 533.025C232.308 526.366 226.795 520.115 217.764 515.883C199.919 507.511 173.61 509.065 159.123 519.366C152.724 523.915 149.491 529.611 150.013 535.408C150.614 542.067 156.128 548.318 165.147 552.55H165.158ZM191.421 556.021C183.185 556.021 174.903 554.456 168.028 551.222C159.781 547.354 154.732 541.568 154.176 535.351C153.689 529.883 156.672 524.551 162.594 520.342C175.539 511.152 199 509.746 214.905 517.199C223.153 521.068 228.201 526.854 228.757 533.071C229.245 538.55 226.261 543.871 220.339 548.08C212.988 553.298 202.244 556.01 191.421 556.01V556.021ZM191.489 513.58C180.916 513.58 170.433 516.224 163.275 521.306C157.716 525.254 154.891 530.212 155.345 535.249C155.867 541.035 160.666 546.469 168.528 550.156C184.093 557.462 207.032 556.101 219.67 547.127C225.229 543.179 228.054 538.221 227.6 533.184C227.078 527.398 222.279 521.964 214.417 518.277C207.679 515.112 199.567 513.58 191.501 513.58H191.489Z" fill="#BDA782"/>
<path d="M191.423 565.869C182.007 565.869 172.522 564.076 164.66 560.389C155.256 555.976 149.504 549.385 148.857 542.305L148.789 532.708H149.958L150.014 542.249C150.616 548.851 156.129 555.091 165.148 559.323C182.994 567.695 209.302 566.141 223.79 555.84C230.404 551.143 233.614 545.244 232.832 539.242V532.696H234V539.163C234.84 545.539 231.459 551.824 224.47 556.793C216.064 562.76 203.789 565.857 191.412 565.857L191.423 565.869Z" fill="#BDA782"/>
<path d="M211.514 532.265C211.514 532.799 211.401 533.32 211.185 533.854L210.992 534.33L205.535 533.139L205.569 532.81C205.762 531.233 204.174 529.134 201.724 527.727C197.696 525.402 194.032 524.857 191.638 526.241C190.175 527.081 190.277 528.068 191.23 529.191C191.956 530.042 193.17 530.983 194.565 532.004C198.604 534.977 202.03 537.892 200.668 540.683C200.249 541.534 199.375 542.385 197.934 543.224C192.818 546.174 185.75 545.096 181.008 542.737L180.781 542.623L177.037 544.779L172.613 542.226L174.19 541.318L176.164 540.184L175.982 540.059C174.167 538.811 171.569 536.554 171.41 533.842V533.445C171.433 532.764 171.603 532.061 171.977 531.346L172.216 530.881L178.036 532.277L177.888 532.628C177.57 533.4 177.65 534.228 178.001 535.045C178.648 536.565 180.248 538.017 181.95 539.004C186.192 541.455 190.469 542.022 193.136 540.479C193.362 540.354 193.544 540.218 193.703 540.059C195.098 538.8 193.952 536.894 190.186 534.149C186.862 531.755 184.094 529.497 184.094 527.296C184.094 527.262 184.094 527.217 184.094 527.183C184.139 525.992 185.013 524.812 187.066 523.632C193.033 520.183 200.963 523.303 203.244 524.347L203.471 524.449L206.715 522.577L211.14 525.141L208.814 526.479L207.906 527.001L208.065 527.126C208.712 527.637 209.279 528.124 209.733 528.624C210.902 529.849 211.48 531.017 211.514 532.186C211.514 532.22 211.514 532.254 211.514 532.288V532.265Z" fill="#BDA782"/>
<path d="M326.856 313.979H325.688V311.631H326.856V313.979ZM326.856 309.294H325.688V306.946H326.856V309.294ZM326.856 304.609H325.688V302.26H326.856V304.609ZM326.856 299.923H325.688V297.575H326.856V299.923ZM326.856 295.238H325.688V292.889H326.856V295.238ZM326.856 290.552H325.688V288.204H326.856V290.552ZM326.856 285.867H325.688V283.519H326.856V285.867ZM326.856 281.182H325.688V278.833H326.856V281.182ZM326.856 276.496H325.688V274.148H326.856V276.496ZM326.856 271.811H325.688V269.462H326.856V271.811ZM326.856 267.125H325.688V264.777H326.856V267.125ZM326.856 262.44H325.688V260.092H326.856V262.44ZM326.856 257.755H325.688V255.406H326.856V257.755ZM326.856 253.069H325.688V250.721H326.856V253.069ZM326.856 248.384H325.688V246.035H326.856V248.384ZM326.856 243.698H325.688V241.35H326.856V243.698ZM326.856 239.013H325.688V236.664H326.856V239.013ZM326.856 234.327H325.688V231.979H326.856V234.327ZM326.856 229.642H325.688V227.294H326.856V229.642ZM326.856 224.957H325.688V222.608H326.856V224.957ZM326.856 220.271H325.688V217.923H326.856V220.271ZM326.856 215.586H325.688V213.237H326.856V215.586ZM326.856 210.9H325.688V208.552H326.856V210.9Z" fill="#BDA782"/>
<path d="M364.704 286.604H363.535V284.256H364.704V286.604ZM364.704 281.919H363.535V279.571H364.704V281.919ZM364.704 277.234H363.535V274.885H364.704V277.234ZM364.704 272.548H363.535V270.2H364.704V272.548ZM364.704 267.863H363.535V265.514H364.704V267.863ZM364.704 263.177H363.535V260.829H364.704V263.177ZM364.704 258.492H363.535V256.143H364.704V258.492ZM364.704 253.806H363.535V251.458H364.704V253.806ZM364.704 249.121H363.535V246.773H364.704V249.121ZM364.704 244.436H363.535V242.087H364.704V244.436ZM364.704 239.75H363.535V237.402H364.704V239.75ZM364.704 235.065H363.535V232.716H364.704V235.065ZM364.704 230.379H363.535V228.031H364.704V230.379Z" fill="#333333"/>
<path d="M361.777 225.07C361.175 225.07 360.619 224.923 360.132 224.639C358.963 223.97 358.316 222.597 358.316 220.782C358.316 217.287 360.79 213.022 363.83 211.263C365.418 210.344 366.938 210.22 368.118 210.9C369.287 211.57 369.933 212.942 369.933 214.758C369.933 218.252 367.46 222.517 364.42 224.276C363.501 224.809 362.605 225.07 361.788 225.07H361.777ZM366.451 211.638C365.838 211.638 365.146 211.853 364.409 212.273C361.697 213.839 359.485 217.65 359.485 220.77C359.485 222.154 359.916 223.164 360.71 223.618C361.504 224.083 362.616 223.947 363.819 223.255C366.53 221.689 368.742 217.877 368.742 214.758C368.742 213.385 368.311 212.364 367.517 211.91C367.199 211.728 366.848 211.638 366.451 211.638Z" fill="#333333"/>
<path fill-rule="evenodd" clip-rule="evenodd" d="M392.555 237.061L398.102 240.238L403.65 230.652L398.102 227.475L392.555 237.061Z" fill="#BDA782"/>
<path d="M398.68 271.277H397.512V271.13H398.68V271.277ZM398.68 268.782H397.512V266.433H398.68V268.782ZM398.68 264.096H397.512V261.748H398.68V264.096ZM398.68 259.411H397.512V257.062H398.68V259.411ZM398.68 254.725H397.512V252.377H398.68V254.725ZM398.68 250.04H397.512V247.692H398.68V250.04ZM398.68 245.354H397.512V243.006H398.68V245.354Z" fill="#BDA782"/>
<path d="M333.663 447.576L333.04 446.578L335.025 445.341L335.649 446.34L333.663 447.576ZM337.646 445.092L337.022 444.093L339.007 442.857L339.631 443.855L337.646 445.092ZM341.616 442.607L340.992 441.609L342.978 440.372L343.602 441.371L341.616 442.607ZM345.598 440.123L344.974 439.124L346.96 437.888L347.584 438.886L345.598 440.123ZM349.569 437.638L348.945 436.64L350.93 435.403L351.554 436.402L349.569 437.638ZM353.551 435.154L352.927 434.155L354.912 432.919L355.536 433.917L353.551 435.154ZM357.522 432.669L356.898 431.671L358.883 430.434L359.507 431.433L357.522 432.669ZM361.504 430.185L360.88 429.186L362.865 427.95L363.489 428.948L361.504 430.185ZM365.474 427.7L364.85 426.702L366.836 425.465L367.46 426.464L365.474 427.7ZM369.456 425.216L368.832 424.217L370.818 422.981L371.442 423.979L369.456 425.216ZM373.427 422.731L372.803 421.733L374.788 420.496L375.412 421.494L373.427 422.731ZM377.409 420.247L376.785 419.248L377.545 418.772C377.942 418.522 378.339 418.261 378.714 417.978L379.406 418.919C379.009 419.214 378.589 419.498 378.169 419.759L377.409 420.235V420.247ZM381.255 417.388L380.45 416.537C380.994 416.015 381.516 415.459 381.992 414.88L382.9 415.629C382.39 416.253 381.834 416.843 381.255 417.399V417.388ZM384.307 413.655L383.308 413.031C383.706 412.396 384.069 411.727 384.386 411.035L385.453 411.522C385.112 412.26 384.727 412.975 384.307 413.644V413.655ZM386.326 409.276L385.203 408.924C385.43 408.21 385.611 407.461 385.748 406.724L386.905 406.928C386.757 407.722 386.564 408.505 386.326 409.276ZM387.188 404.534L386.02 404.466C386.043 404.126 386.054 403.785 386.043 403.445C386.043 403.025 386.031 402.617 385.997 402.197L387.166 402.118C387.2 402.56 387.211 403.002 387.211 403.445C387.211 403.808 387.211 404.171 387.177 404.534H387.188ZM385.714 399.951C385.566 399.213 385.373 398.476 385.146 397.75L386.258 397.387C386.508 398.147 386.712 398.941 386.859 399.724L385.714 399.951ZM384.307 395.651C383.978 394.97 383.615 394.301 383.206 393.666L384.193 393.03C384.624 393.711 385.022 394.414 385.362 395.14L384.307 395.64V395.651ZM381.868 391.839C381.38 391.261 380.858 390.716 380.302 390.194L381.096 389.332C381.686 389.876 382.253 390.466 382.764 391.079L381.868 391.828V391.839ZM378.544 388.765C378.113 388.458 377.647 388.152 377.182 387.88L376.604 387.539L377.205 386.53L377.784 386.87C378.283 387.165 378.771 387.483 379.236 387.812L378.555 388.765H378.544ZM374.596 386.348L372.576 385.157L373.178 384.147L375.197 385.339L374.596 386.348ZM370.557 383.966L368.537 382.775L369.139 381.765L371.158 382.956L370.557 383.966ZM366.518 381.583L364.499 380.392L365.1 379.383L367.119 380.574L366.518 381.583ZM362.479 379.201L360.46 378.01L361.061 377L363.081 378.191L362.479 379.201ZM358.441 376.819L356.421 375.627L357.023 374.618L359.042 375.809L358.441 376.819ZM354.402 374.436L352.382 373.245L352.984 372.235L355.003 373.426L354.402 374.436ZM350.363 372.054L348.344 370.863L348.945 369.853L350.964 371.044L350.363 372.054ZM346.324 369.671L344.305 368.48L344.906 367.47L346.926 368.662L346.324 369.671ZM342.286 367.289L340.266 366.098L340.867 365.088L342.887 366.279L342.286 367.289ZM338.247 364.906L336.227 363.715L336.829 362.706L338.848 363.897L338.247 364.906ZM334.197 362.513C333.482 362.059 332.835 361.514 332.291 360.879L333.176 360.108C333.641 360.652 334.197 361.129 334.821 361.514L334.197 362.501V362.513ZM330.963 358.746C330.634 357.975 330.419 357.158 330.328 356.318L331.497 356.194C331.576 356.92 331.758 357.623 332.053 358.281L330.975 358.746H330.963ZM331.565 354.027L330.408 353.811C330.566 352.983 330.839 352.178 331.224 351.44L332.257 351.985C331.916 352.62 331.689 353.312 331.553 354.027H331.565ZM333.55 350.249L332.722 349.421C333.176 348.967 333.686 348.57 334.242 348.218L334.866 349.217C334.39 349.512 333.947 349.863 333.55 350.249Z" fill="#BDA782"/>
<path d="M379.269 593.391V592.223C380.029 592.223 380.801 592.189 381.561 592.121L381.652 593.289C380.857 593.357 380.052 593.391 379.269 593.391ZM376.887 593.312C376.093 593.255 375.298 593.164 374.516 593.039L374.697 591.882C375.457 591.996 376.217 592.086 376.977 592.143L376.887 593.312ZM384.034 592.994L383.841 591.837C384.59 591.712 385.35 591.565 386.087 591.383L386.36 592.518C385.588 592.71 384.805 592.869 384.023 592.994H384.034ZM372.167 592.586C371.396 592.404 370.624 592.189 369.864 591.95L370.216 590.839C370.942 591.065 371.691 591.27 372.428 591.451L372.156 592.597L372.167 592.586ZM388.674 591.86L388.311 590.748C389.037 590.51 389.763 590.237 390.466 589.942L390.92 591.02C390.183 591.326 389.434 591.61 388.685 591.848L388.674 591.86ZM367.618 591.134C366.881 590.839 366.154 590.498 365.44 590.147L365.962 589.103C366.642 589.443 367.346 589.761 368.049 590.056L367.607 591.145L367.618 591.134ZM393.076 590.022L392.543 588.978L392.758 588.865L393.303 589.897L393.064 590.022H393.076ZM363.352 589.001L361.344 587.787L361.946 586.777L363.954 587.991L363.352 589.001ZM359.336 586.584L357.328 585.37L357.929 584.361L359.938 585.575L359.336 586.584ZM355.32 584.168L353.312 582.954L353.913 581.944L355.921 583.158L355.32 584.168ZM272.9 581.967L272.355 580.935L274.432 579.834L274.976 580.866L272.9 581.967ZM351.304 581.751L349.296 580.537L349.897 579.528L351.905 580.742L351.304 581.751ZM277.041 579.777L276.496 578.745L278.572 577.645L279.117 578.677L277.041 579.777ZM347.288 579.335L345.28 578.121L345.881 577.111L347.889 578.325L347.288 579.335ZM281.182 577.576L280.637 576.544L282.713 575.444L283.258 576.476L281.182 577.576ZM343.272 576.918L341.264 575.705L341.865 574.695L343.873 575.909L343.272 576.918ZM285.323 575.387L284.778 574.355L286.854 573.254L287.399 574.286L285.323 575.387ZM339.256 574.502L337.248 573.288L337.849 572.278L339.857 573.492L339.256 574.502ZM289.463 573.186L288.919 572.154L290.995 571.053L291.54 572.086L289.463 573.186ZM335.24 572.086L333.232 570.883L333.833 569.873L335.841 571.087L335.24 572.097V572.086ZM293.604 570.996L293.06 569.964L295.136 568.864L295.68 569.896L293.604 570.996ZM331.212 569.771C330.532 569.42 329.828 569.091 329.125 568.773L329.601 567.706C330.328 568.024 331.042 568.376 331.746 568.727L331.212 569.771ZM297.745 568.898L297.269 567.831C297.995 567.502 298.732 567.196 299.47 566.924L299.889 568.024C299.175 568.296 298.46 568.591 297.757 568.909L297.745 568.898ZM326.992 567.911C326.277 567.638 325.54 567.4 324.803 567.173L325.143 566.05C325.892 566.277 326.652 566.538 327.401 566.81L326.992 567.911ZM302.056 567.253L301.705 566.13C302.465 565.891 303.236 565.676 303.996 565.483L304.28 566.617C303.542 566.799 302.794 567.014 302.056 567.241V567.253ZM322.579 566.561C321.842 566.379 321.082 566.22 320.321 566.084L320.526 564.927C321.308 565.063 322.091 565.233 322.851 565.415L322.579 566.549V566.561ZM306.537 566.141L306.322 564.984C307.093 564.836 307.887 564.723 308.67 564.621L308.818 565.778C308.058 565.869 307.286 565.993 306.537 566.13V566.141ZM318.03 565.755C317.27 565.664 316.498 565.596 315.727 565.562L315.795 564.394C316.578 564.439 317.383 564.507 318.166 564.598L318.03 565.766V565.755ZM311.121 565.574L311.041 564.405C311.835 564.36 312.63 564.326 313.424 564.326V565.494C312.664 565.494 311.892 565.528 311.121 565.574Z" fill="#BDA782"/>
<path d="M423.137 41.4653H421.969V48.6353H423.137V41.4653Z" fill="#333333"/>
<path d="M423.137 56.2136H421.969V63.3836H423.137V56.2136Z" fill="#333333"/>
<path d="M418.76 51.8459H411.59V53.0145H418.76V51.8459Z" fill="#333333"/>
<path d="M433.51 51.8459H426.34V53.0145H433.51V51.8459Z" fill="#333333"/>
<path d="M666.653 114.957H665.484V122.127H666.653V114.957Z" fill="#333333"/>
<path d="M666.653 129.705H665.484V136.875H666.653V129.705Z" fill="#333333"/>
<path d="M662.275 125.326H655.105V126.495H662.275V125.326Z" fill="#333333"/>
<path d="M677.033 125.326H669.863V126.495H677.033V125.326Z" fill="#333333"/>
<path d="M605.79 145.078H604.621V143.955H605.79V145.078ZM605.79 141.606H604.621V139.258H605.79V141.606ZM605.79 136.921H604.621V134.572H605.79V136.921ZM605.79 132.235H604.621V129.887H605.79V132.235ZM605.79 127.55H604.621V125.202H605.79V127.55ZM605.79 122.865H604.621V120.516H605.79V122.865ZM605.79 118.179H604.621V115.831H605.79V118.179ZM605.79 113.494H604.621V111.145H605.79V113.494ZM605.79 108.808H604.621V106.46H605.79V108.808ZM605.79 104.123H604.621V101.775H605.79V104.123ZM605.79 99.4375H604.621V97.0891H605.79V99.4375Z" fill="#BDA782"/>
</svg>
