<svg width="161" height="77" viewBox="0 0 161 77" fill="none" xmlns="http://www.w3.org/2000/svg">
<path d="M52.8902 63.4501C52.55 63.4501 52.2658 63.4905 52.0301 63.5713C51.7968 63.6544 51.5976 63.7827 51.4372 63.9633C51.1845 64.246 50.8468 64.9184 50.4289 65.9757L47.2144 74.0491H46.8742L43.565 66.2371C43.3074 65.6264 43.1033 65.175 42.9551 64.8828C42.8069 64.5905 42.6635 64.3601 42.5299 64.1914C42.3307 63.9538 42.1217 63.7804 41.9055 63.6616C41.6868 63.5451 41.4292 63.4762 41.1328 63.4501V63.2672H44.7288V63.4501C44.5223 63.4501 44.357 63.4691 44.2283 63.5047C44.0995 63.5428 43.9804 63.6045 43.8735 63.6948C43.7666 63.7899 43.6792 63.9253 43.616 64.0963C43.5504 64.2698 43.5188 64.4575 43.5188 64.6571C43.5188 65.0158 43.6792 65.5861 44.0023 66.3725L46.3202 71.9488L48.7111 65.5908C48.8423 65.2368 48.9249 65.0087 48.9541 64.9042C48.9784 64.7972 48.9954 64.6784 48.9954 64.5406C48.9954 64.3458 48.9443 64.1653 48.8423 64.0013C48.7402 63.835 48.6042 63.7114 48.439 63.633C48.2616 63.5475 47.97 63.4881 47.5667 63.4525V63.2695H52.895V63.4525L52.8902 63.4501Z" fill="black"/>
<path d="M37.5117 63.2671H42.8425V63.4501C42.4392 63.4857 42.1476 63.5451 41.9702 63.6307C41.805 63.7091 41.669 63.8326 41.5645 63.9989C41.4624 64.1652 41.4138 64.3434 41.4138 64.5383C41.4138 64.6761 41.4284 64.7972 41.4527 64.9018C41.4819 65.0063 41.562 65.2344 41.6957 65.5884L44.0865 71.944L46.402 66.3701C46.7276 65.5837 46.8855 65.0135 46.8855 64.6547C46.8855 64.4551 46.854 64.2674 46.7908 64.094C46.7276 63.9205 46.6377 63.7851 46.5332 63.6924C46.4263 63.6022 46.3073 63.5404 46.1785 63.5024C46.0473 63.4667 45.8821 63.4477 45.678 63.4477V63.2648H49.274V63.4477C48.9775 63.4762 48.72 63.5428 48.4989 63.6592C48.2826 63.778 48.0737 63.9514 47.8744 64.189C47.7408 64.3577 47.5999 64.5882 47.4517 64.8804C47.3035 65.1726 47.1018 65.6241 46.8442 66.2347L43.5325 74.0467H43.1948L39.9803 65.9733C39.5624 64.916 39.2222 64.2437 38.972 63.9609C38.8116 63.7827 38.6124 63.652 38.3791 63.5713C38.1459 63.4881 37.8592 63.4501 37.519 63.4501V63.2671H37.5117Z" fill="black"/>
<path d="M5.87883 68.556L9.29501 65.2392C9.63274 64.9137 9.84655 64.6903 9.92916 64.5715C10.0118 64.4551 10.0531 64.3244 10.0531 64.1819C10.0531 63.9229 9.9243 63.7281 9.66675 63.5974C9.53069 63.5333 9.30716 63.4857 8.98886 63.4549V63.2743H12.4658V63.4549C12.2301 63.4762 12.0333 63.5143 11.8754 63.5689C11.7174 63.6259 11.5401 63.7186 11.353 63.8516C11.144 63.9989 10.7844 64.3102 10.2718 64.7901L7.65495 67.2468L11.3773 71.8918L11.8365 72.4691C12.1766 72.8825 12.5265 73.2009 12.8958 73.4314C13.1145 73.5739 13.3089 73.6761 13.4765 73.7355C13.6418 73.7949 13.8531 73.8424 14.1083 73.8733V74.0539H8.76776V73.8733C9.17109 73.8424 9.46266 73.7782 9.64003 73.6761C9.81739 73.5763 9.90729 73.429 9.90729 73.2342C9.90729 73.0227 9.79796 72.7542 9.57685 72.4287C9.46995 72.2719 9.26585 71.9963 8.97186 71.609C8.67543 71.217 8.42517 70.901 8.22107 70.6587L6.40365 68.4562L5.87883 68.9599V71.5734C5.87883 72.1103 5.91042 72.5095 5.97116 72.7685C6.03433 73.0298 6.14853 73.2437 6.31618 73.4124C6.46196 73.5597 6.63204 73.669 6.82156 73.7402C7.01351 73.8115 7.2662 73.8543 7.57963 73.8685V74.0491H2.41406V73.8685C2.7275 73.8519 2.97776 73.8115 3.1697 73.7402C3.36165 73.6666 3.5293 73.5597 3.67508 73.4124C3.84516 73.2437 3.96179 73.0298 4.0201 72.7732C4.07842 72.5166 4.11 72.1151 4.11 71.5734V65.7524C4.11 65.2083 4.07842 64.8091 4.0201 64.5502C3.96179 64.2936 3.84516 64.0797 3.67508 63.9134C3.5293 63.759 3.35922 63.6473 3.16484 63.5784C2.9729 63.5095 2.72021 63.4691 2.41406 63.4525V63.2719H7.5772V63.4525C7.26863 63.4691 7.0208 63.5095 6.82885 63.5784C6.6369 63.6473 6.46682 63.7566 6.31618 63.9134C6.15096 64.0797 6.03433 64.2936 5.97116 64.5549C5.91042 64.8163 5.87883 65.2154 5.87883 65.7524V68.556Z" fill="black"/>
<path d="M14.9531 74.0515V73.8614C15.495 73.8614 15.9129 73.7141 16.2141 73.4124C16.3794 73.2437 16.4936 73.0298 16.5567 72.7685C16.6199 72.5095 16.6515 72.1104 16.6515 71.5734V65.7524C16.6515 65.194 16.6175 64.7806 16.5494 64.5145C16.4838 64.2484 16.3575 64.0322 16.1728 63.8635C16.0222 63.7281 15.8521 63.6259 15.6675 63.5642C15.4804 63.5024 15.2447 63.4644 14.9556 63.4549V63.2743H20.1163V63.4549C19.8174 63.4715 19.5769 63.5095 19.3874 63.5737C19.1978 63.6354 19.0326 63.7376 18.8844 63.873C18.7022 64.0465 18.5783 64.2674 18.5151 64.5288C18.4495 64.7949 18.4179 65.2012 18.4179 65.7548V70.3094C18.4179 71.0103 18.4398 71.5306 18.4738 71.8751C18.5102 72.2173 18.5855 72.4953 18.6925 72.7115C18.882 73.0916 19.159 73.3696 19.5331 73.5454C19.9049 73.7236 20.3981 73.8115 21.0104 73.8115C21.6227 73.8115 22.1912 73.7284 22.631 73.562C23.0684 73.3957 23.428 73.1391 23.7074 72.7922C23.8945 72.5547 24.0524 72.2862 24.1739 71.9868C24.2929 71.6874 24.4071 71.293 24.5092 70.8012L24.7011 70.8179L24.5967 74.0539H14.9531V74.0515Z" fill="black"/>
<path d="M26.25 68.7341C26.25 67.8527 26.4419 67.0282 26.8331 66.2727C27.2195 65.5148 27.7856 64.8566 28.5291 64.2912C29.0855 63.8754 29.6832 63.557 30.3246 63.3313C30.9636 63.1079 31.6099 62.9963 32.2611 62.9963C33.0921 62.9963 33.8939 63.1745 34.6714 63.5285C35.444 63.8849 36.1244 64.3862 36.7075 65.0348C37.6526 66.0897 38.1289 67.2872 38.1289 68.632C38.1289 69.3044 38.0049 69.9577 37.7571 70.5826C37.5093 71.2122 37.1473 71.7848 36.6735 72.298C36.0928 72.9419 35.4052 73.4408 34.6106 73.7925C33.8161 74.1465 32.9876 74.3247 32.1202 74.3247C31.2528 74.3247 30.4461 74.1512 29.6637 73.8067C28.8838 73.4646 28.2108 72.9799 27.6447 72.3527C27.1976 71.8608 26.855 71.3049 26.6145 70.6824C26.3763 70.0575 26.2549 69.4089 26.2549 68.7318M28.2108 68.8506C28.2108 70.3783 28.636 71.666 29.4839 72.7138C29.8678 73.1819 30.2736 73.5264 30.7037 73.7378C31.1289 73.9517 31.6245 74.0586 32.1858 74.0586C32.7471 74.0586 33.2476 73.9517 33.6752 73.7426C34.1053 73.5311 34.511 73.189 34.8998 72.7138C35.7502 71.6613 36.1754 70.3616 36.1754 68.8197C36.1754 67.9738 36.0587 67.1684 35.8231 66.4105C35.5898 65.6549 35.2594 65.0134 34.8342 64.486C34.4892 64.0536 34.1077 63.7376 33.6825 63.5427C33.2597 63.3432 32.7568 63.2457 32.1858 63.2457C31.6148 63.2457 31.1216 63.3432 30.7037 63.538C30.2833 63.7328 29.8994 64.0488 29.5423 64.4884C29.1171 65.0087 28.7915 65.6502 28.5558 66.4081C28.325 67.1684 28.2108 67.981 28.2108 68.8506Z" fill="black"/>
<path d="M62.2736 63.2719L62.4121 65.8783L62.2275 65.8854C62.157 65.4435 62.0428 65.0776 61.8776 64.7854C61.7148 64.4955 61.4815 64.2413 61.1754 64.0203C60.9227 63.835 60.6239 63.7067 60.2788 63.6283C59.9338 63.5523 59.4746 63.5143 58.9036 63.5143H57.0546V68.2542H57.5406C58.0314 68.2542 58.3982 68.221 58.6485 68.1568C58.8963 68.095 59.098 67.981 59.2535 67.8194C59.4017 67.665 59.5183 67.4844 59.5864 67.2777C59.6593 67.071 59.72 66.7621 59.7686 66.3582L59.9533 66.3654L59.9217 70.5993H59.737C59.6884 70.1954 59.618 69.8675 59.5208 69.6204C59.4284 69.3733 59.2972 69.1642 59.132 68.9884C58.9692 68.8197 58.7603 68.6961 58.5003 68.6177C58.2427 68.5393 57.9123 68.5013 57.5163 68.5013H57.0546V70.3094C57.0546 71.0317 57.0741 71.5568 57.1105 71.887C57.1518 72.2149 57.2223 72.4905 57.3316 72.7115C57.5138 73.0916 57.7908 73.3696 58.165 73.5454C58.5392 73.7236 59.0324 73.8115 59.6447 73.8115C60.2934 73.8115 60.8328 73.7307 61.2702 73.5692C61.7075 73.4076 62.0622 73.1605 62.3368 72.8231C62.5312 72.5974 62.6891 72.3408 62.8106 72.0486C62.9297 71.7587 63.0439 71.3786 63.1459 70.9034L63.3306 70.9129L63.2261 74.0562H53.5898V73.8757C53.896 73.859 54.1462 73.8186 54.3382 73.7497C54.5277 73.6808 54.6978 73.5715 54.8509 73.4171C55.0161 73.2484 55.1303 73.0346 55.1935 72.7732C55.2542 72.5119 55.2882 72.1151 55.2882 71.5781V65.7524C55.2882 65.2154 55.2542 64.8139 55.1935 64.5549C55.1303 64.2936 55.0185 64.0797 54.8509 63.911C54.7051 63.7566 54.5374 63.6473 54.3455 63.5784C54.1535 63.5095 53.9033 63.4691 53.5898 63.4525V63.2719H62.2736Z" fill="black"/>
<path d="M68.1889 68.7769V71.5734C68.1889 72.1103 68.2205 72.5071 68.2812 72.7685C68.3444 73.0298 68.4586 73.2437 68.6263 73.4124C68.772 73.5597 68.9421 73.669 69.1316 73.7426C69.3236 73.8139 69.5763 73.8567 69.8873 73.8709V74.0515H64.7266V73.8709C65.04 73.8543 65.2903 73.8139 65.4822 73.7426C65.6742 73.669 65.8418 73.562 65.9876 73.4124C66.1601 73.2437 66.2767 73.0322 66.3326 72.7732C66.3909 72.5143 66.4225 72.1151 66.4225 71.5734V65.7524C66.4225 65.2083 66.3909 64.8091 66.3326 64.5502C66.2743 64.2936 66.1601 64.0797 65.9876 63.9134C65.8418 63.7566 65.6717 63.6473 65.4773 63.5784C65.2854 63.5095 65.0327 63.4691 64.7266 63.4525V63.2719H68.619C69.2726 63.2719 69.7002 63.2743 69.9019 63.279C70.7377 63.3147 71.3913 63.4263 71.8651 63.6117C72.3972 63.8231 72.8102 64.1367 73.1042 64.5549C73.3958 64.9731 73.5416 65.4601 73.5416 66.0114C73.5416 66.831 73.2257 67.4916 72.5891 67.9857C72.3972 68.1331 72.1785 68.2566 71.9452 68.3493C71.712 68.4443 71.3986 68.5346 71.0049 68.6177C71.3281 68.7508 71.5686 68.8862 71.7241 69.0288C71.8481 69.1381 71.9598 69.2782 72.0619 69.4446C72.1663 69.6109 72.3194 69.9031 72.5259 70.326C73.0046 71.2907 73.3666 71.9939 73.612 72.4382C73.855 72.8825 74.0639 73.2057 74.2292 73.4052C74.3652 73.5692 74.4964 73.6832 74.6228 73.745C74.7516 73.8091 74.9241 73.8495 75.1452 73.8709V74.0515H72.4628C72.3267 73.7616 72.2417 73.5787 72.2052 73.5003L71.6391 72.2434C71.3014 71.4902 70.9588 70.8226 70.6138 70.2452C70.2639 69.6727 69.9504 69.2782 69.6686 69.0668C69.5204 68.9622 69.3673 68.8862 69.2021 68.8411C69.032 68.7983 68.8303 68.7746 68.5874 68.7746H68.1913L68.1889 68.7769ZM68.1889 68.6035H68.495C69.1608 68.6035 69.6419 68.5678 69.9286 68.4942C70.2177 68.4205 70.4874 68.2685 70.7425 68.0356C71.3062 67.5106 71.5881 66.8572 71.5881 66.0779C71.5881 65.6621 71.5055 65.2701 71.3427 64.9042C71.1799 64.5383 70.9515 64.2389 70.6623 63.9989C70.4364 63.8208 70.1667 63.6948 69.8557 63.6235C69.5423 63.5523 69.0976 63.5166 68.5242 63.5166H68.1913V68.6011L68.1889 68.6035Z" fill="black"/>
<path d="M89.6484 68.7365V71.571C89.6484 72.108 89.68 72.5048 89.7407 72.7661C89.8039 73.0275 89.9181 73.2413 90.0857 73.41C90.2315 73.5573 90.3991 73.6666 90.5911 73.7379C90.7806 73.8091 91.0333 73.8519 91.3467 73.8662V74.0467H86.186V73.8662C86.497 73.8495 86.7497 73.8091 86.9392 73.7379C87.1312 73.6642 87.2988 73.5573 87.4446 73.41C87.6147 73.2413 87.7313 73.0275 87.7896 72.7709C87.848 72.5119 87.8795 72.1127 87.8795 71.571V65.7524C87.8795 65.2986 87.8577 64.9493 87.8188 64.7046C87.7775 64.4622 87.7095 64.2627 87.6123 64.1082C87.4713 63.8968 87.294 63.74 87.0802 63.6378C86.8639 63.5356 86.5845 63.4739 86.2395 63.4525H86.1836V63.2719H91.0527C91.9031 63.2719 92.5276 63.3147 92.9358 63.3978C93.3391 63.4834 93.7084 63.6521 94.0413 63.9039C94.8066 64.4718 95.1881 65.2297 95.1881 66.1777C95.1881 67.1257 94.8018 67.8503 94.0267 68.2946C93.6234 68.5251 93.1326 68.6653 92.5567 68.7152C92.3745 68.7294 91.9323 68.7389 91.2301 68.7389H89.6484V68.7365ZM89.6484 68.4847H90.4405C90.9774 68.4847 91.3856 68.4467 91.6747 68.3706C91.9639 68.2946 92.2166 68.1521 92.4474 67.9477C92.9722 67.4797 93.237 66.8548 93.237 66.0755C93.237 65.6431 93.1593 65.2463 93.0087 64.8852C92.8532 64.524 92.6345 64.2318 92.3453 64.0061C92.0198 63.7352 91.631 63.5784 91.1767 63.5333C91.0527 63.5214 90.7709 63.5166 90.3287 63.5166H89.6508V68.4847H89.6484Z" fill="black"/>
<path d="M102.743 69.3923L101.045 65.3033L99.4488 69.3923L99.32 69.7178L98.8997 70.8083L98.6956 71.2978C98.4551 71.8775 98.336 72.3313 98.336 72.6639C98.336 72.8588 98.3797 73.0393 98.4672 73.208C98.5571 73.3767 98.6762 73.5145 98.8268 73.6191C99.0382 73.7616 99.3079 73.8448 99.6335 73.8709V74.0515H96.0156V73.8709C96.3023 73.8543 96.5526 73.7878 96.7664 73.6642C96.9826 73.543 97.1916 73.3482 97.3933 73.0797C97.5682 72.8659 97.7359 72.5855 97.9011 72.2458C98.0663 71.906 98.2801 71.3976 98.5522 70.7181L101.507 63.2719H101.968L105.479 71.5734C105.742 72.2006 105.953 72.6473 106.111 72.9158C106.267 73.1843 106.437 73.3886 106.619 73.524C106.75 73.6191 106.896 73.6903 107.064 73.7426C107.229 73.7925 107.477 73.8353 107.814 73.8709V74.0515H102.508V73.8709C102.986 73.8281 103.319 73.7497 103.509 73.6333C103.839 73.4266 104.007 73.1439 104.007 72.7804C104.007 72.5642 103.932 72.2743 103.781 71.9108L103.642 71.5805L102.87 69.7178L102.741 69.3923H102.743Z" fill="black"/>
<path d="M110.897 64.7022V71.571C110.897 72.1127 110.929 72.5143 110.99 72.7732C111.053 73.0298 111.167 73.2413 111.335 73.41C111.485 73.562 111.656 73.6737 111.847 73.7426C112.037 73.8091 112.287 73.8519 112.593 73.8685V74.0491H108.871V73.8685C109.177 73.8543 109.427 73.8115 109.617 73.7426C109.807 73.6737 109.979 73.562 110.13 73.41C110.297 73.2413 110.412 73.0275 110.472 72.7661C110.535 72.5048 110.565 72.108 110.565 71.5686V65.7453C110.565 65.213 110.535 64.8163 110.472 64.5549C110.412 64.2959 110.297 64.0797 110.13 63.9134C109.984 63.759 109.814 63.6473 109.624 63.5832C109.432 63.5143 109.182 63.4691 108.871 63.4549V63.2743H111.979L118.536 71.4546V65.7548C118.536 65.2107 118.507 64.8091 118.447 64.5525C118.386 64.2959 118.269 64.0797 118.104 63.9134C117.953 63.759 117.781 63.6473 117.591 63.5832C117.402 63.5143 117.152 63.4691 116.845 63.4549V63.2743H120.57V63.4549C120.031 63.4549 119.61 63.6069 119.309 63.9134C119.144 64.0797 119.03 64.2959 118.967 64.5549C118.903 64.8163 118.872 65.213 118.872 65.7453V74.0515H118.507L110.9 64.7022H110.897Z" fill="black"/>
<path d="M120.566 73.8709C120.877 73.8543 121.13 73.8139 121.317 73.745C121.507 73.6761 121.677 73.5668 121.827 73.4124C121.993 73.2437 122.107 73.0298 122.17 72.7685C122.233 72.5071 122.265 72.1103 122.265 71.5734V65.7524C122.265 65.1727 122.228 64.7497 122.155 64.4789C122.085 64.2128 121.942 63.9894 121.73 63.816C121.465 63.6022 121.082 63.481 120.569 63.4525V63.2719H125.01C125.994 63.2719 126.624 63.2838 126.893 63.3052C128.026 63.3883 128.993 63.702 129.785 64.2508C130.538 64.7711 131.126 65.4554 131.546 66.3012C131.967 67.147 132.176 68.0665 132.176 69.0597C132.176 69.7867 132.057 70.4733 131.816 71.1172C131.578 71.7635 131.243 72.298 130.817 72.7257C130.22 73.3244 129.474 73.7093 128.58 73.8685C127.911 73.9897 127.231 74.0491 126.536 74.0491H120.569V73.8685L120.566 73.8709ZM124.029 63.5166V71.3667C124.029 71.8846 124.06 72.2743 124.119 72.5451C124.177 72.8112 124.289 73.0441 124.449 73.2318C124.794 73.6452 125.355 73.8495 126.13 73.8495C126.794 73.8495 127.357 73.7426 127.831 73.5312C128.303 73.3173 128.723 72.9704 129.095 72.4929C129.459 72.0296 129.739 71.4974 129.931 70.901C130.122 70.3046 130.217 69.6679 130.217 68.9955C130.217 68.2471 130.101 67.5343 129.87 66.8619C129.637 66.1872 129.306 65.5979 128.876 65.0919C128.278 64.3933 127.566 63.93 126.735 63.702C126.284 63.5808 125.708 63.5214 125.008 63.5214H124.029V63.5166Z" fill="black"/>
<path d="M134.539 68.7341C134.539 67.8527 134.731 67.0282 135.122 66.2727C135.509 65.5148 136.075 64.8566 136.818 64.2912C137.375 63.8754 137.972 63.557 138.614 63.3313C139.253 63.1079 139.899 62.9963 140.55 62.9963C141.381 62.9963 142.183 63.1745 142.96 63.5285C143.736 63.8849 144.413 64.3862 144.997 65.0348C145.942 66.0897 146.418 67.2872 146.418 68.632C146.418 69.3044 146.294 69.9577 146.046 70.5826C145.798 71.2122 145.436 71.7848 144.963 72.298C144.382 72.9419 143.694 73.4408 142.9 73.7925C142.103 74.1465 141.274 74.3247 140.407 74.3247C139.539 74.3247 138.733 74.1512 137.95 73.8067C137.17 73.4646 136.497 72.9799 135.931 72.3527C135.484 71.8608 135.142 71.3049 134.901 70.6824C134.663 70.0575 134.541 69.4089 134.541 68.7318M136.497 68.8506C136.497 70.3783 136.923 71.666 137.771 72.7138C138.154 73.1819 138.56 73.5264 138.99 73.7378C139.415 73.9517 139.911 74.0586 140.472 74.0586C141.034 74.0586 141.534 73.9517 141.962 73.7426C142.389 73.5311 142.798 73.189 143.184 72.7138C144.034 71.6613 144.46 70.3616 144.46 68.8197C144.46 67.9738 144.343 67.1684 144.11 66.4105C143.874 65.6549 143.546 65.0134 143.118 64.486C142.773 64.0536 142.392 63.7376 141.967 63.5427C141.541 63.3432 141.041 63.2457 140.47 63.2457C139.899 63.2457 139.406 63.3432 138.988 63.538C138.568 63.7328 138.184 64.0488 137.826 64.4884C137.401 65.0087 137.076 65.6502 136.84 66.4081C136.609 67.1684 136.495 67.981 136.495 68.8506" fill="black"/>
<path d="M151.867 68.7769V71.5734C151.867 72.1103 151.899 72.5071 151.959 72.7685C152.023 73.0298 152.137 73.2437 152.304 73.4124C152.448 73.5597 152.618 73.669 152.81 73.7426C152.999 73.8139 153.252 73.8567 153.565 73.8709V74.0515H148.405V73.8709C148.716 73.8543 148.968 73.8139 149.158 73.7426C149.35 73.669 149.518 73.562 149.663 73.4124C149.833 73.2437 149.95 73.0322 150.008 72.7732C150.067 72.5143 150.098 72.1151 150.098 71.5734V65.7524C150.098 65.2083 150.069 64.8091 150.008 64.5502C149.95 64.2936 149.833 64.0797 149.663 63.9134C149.518 63.7566 149.347 63.6473 149.153 63.5784C148.961 63.5095 148.708 63.4691 148.402 63.4525V63.2719H152.295C152.946 63.2719 153.374 63.2743 153.58 63.279C154.413 63.3147 155.067 63.4263 155.543 63.6117C156.075 63.8231 156.488 64.1367 156.782 64.5549C157.076 64.9731 157.22 65.4601 157.22 66.0114C157.22 66.831 156.904 67.4916 156.27 67.9857C156.075 68.1331 155.859 68.2566 155.626 68.3493C155.39 68.4443 155.079 68.5346 154.683 68.6177C155.006 68.7508 155.247 68.8862 155.402 69.0288C155.526 69.1381 155.64 69.2782 155.74 69.4446C155.845 69.6109 155.998 69.9031 156.202 70.326C156.68 71.2907 157.042 71.9939 157.288 72.4382C157.531 72.8825 157.737 73.2057 157.905 73.4052C158.041 73.5692 158.17 73.6832 158.299 73.745C158.425 73.8091 158.597 73.8495 158.821 73.8709V74.0515H156.139C156.002 73.7616 155.915 73.5787 155.879 73.5003L155.315 72.2434C154.977 71.4902 154.632 70.8226 154.29 70.2452C153.945 69.6727 153.626 69.2782 153.344 69.0668C153.196 68.9622 153.043 68.8862 152.878 68.8411C152.708 68.7983 152.506 68.7746 152.263 68.7746H151.867V68.7769ZM151.867 68.6035H152.173C152.841 68.6035 153.32 68.5678 153.607 68.4942C153.896 68.4205 154.166 68.2685 154.418 68.0356C154.984 67.5106 155.266 66.8572 155.266 66.0779C155.266 65.6621 155.184 65.2701 155.021 64.9042C154.856 64.5383 154.63 64.2389 154.338 63.9989C154.115 63.8208 153.842 63.6948 153.531 63.6235C153.22 63.5523 152.773 63.5166 152.2 63.5166H151.867V68.6011V68.6035Z" fill="black"/>
<path d="M63.1561 0.555435C63.8205 0.678865 64.4076 0.771444 64.902 0.864017C65.0875 0.864017 65.3347 0.89487 65.6282 0.956585C65.8909 1.00287 66.1845 1.03372 66.5089 1.04915C67.7759 1.15715 68.9965 1.21887 70.1553 1.28059C71.2678 1.32687 72.6584 1.3423 74.3888 1.3423H74.6052L74.6824 1.54287C74.8524 1.91316 74.7906 2.26803 74.497 2.51489L74.3888 2.60746H74.2498C74.0489 2.5766 73.6781 2.56117 73.1682 2.54574C72.6429 2.53031 72.2103 2.53031 71.824 2.54574C71.824 2.54574 71.7931 2.54574 71.7777 2.54574C71.6695 2.54574 71.4995 2.5766 71.2987 2.86974C70.0317 4.62862 68.7029 6.54179 67.3433 8.53209C65.9681 10.5378 64.4231 12.8058 62.708 15.3207L62.6771 15.367C64.8866 14.2099 67.0806 13.0373 69.2283 11.8493C71.4223 10.6304 73.4772 9.45781 75.3159 8.3778C75.6558 8.19265 76.3356 7.82236 77.7108 7.00464L81.2645 4.89091C82.4851 4.16576 83.5975 3.51775 84.5864 2.93146C86.1315 2.02117 86.3478 1.99031 86.4559 1.95945H86.5023L86.8886 1.99031L86.9658 2.05202C87.1358 2.17545 87.3521 2.29888 87.5838 2.39146C87.8465 2.49946 88.1246 2.60746 88.4182 2.71546L88.5881 2.77718L88.6345 2.96232C88.6809 3.20918 88.619 3.44061 88.4336 3.5949L88.3718 3.65661H88.2791C88.001 3.73376 87.5684 3.90347 86.9813 4.15033C86.3787 4.41262 85.5134 4.81377 84.401 5.33835C83.8138 5.61607 83.1186 5.95549 82.3615 6.34121C82.4233 6.37206 82.516 6.40293 82.6241 6.43379C82.9795 6.55722 83.4276 6.63436 83.9529 6.69607C84.4937 6.75779 85.0036 6.8195 85.5134 6.85036C86.7649 6.95836 88.0628 7.00465 89.3452 7.02007C90.6586 7.02007 91.9101 7.02008 93.038 6.97379C94.1968 6.9275 95.2474 6.91208 96.1436 6.88122C97.0861 6.86579 97.7814 6.88122 98.2913 6.91207C99.2492 6.98922 100.207 7.15893 101.134 7.40579C101.474 7.49836 101.799 7.60637 102.139 7.74523V0H61.4102C61.4102 0 61.5492 0.15429 61.7346 0.231433C62.0282 0.339434 62.5072 0.447434 63.1715 0.555435" fill="black"/>
<path d="M84.4461 17.5888C85.8367 15.4287 87.0727 13.4539 88.1388 11.7413C88.2315 11.6178 88.3706 11.3864 88.5715 11.0315C88.7723 10.6613 88.9577 10.3064 89.174 9.92068C89.3594 9.55039 89.5449 9.19554 89.6839 8.8561C89.8075 8.56296 89.8693 8.40867 89.8848 8.33152C88.5251 8.26981 87.2272 8.28524 85.9912 8.34695C84.6933 8.4241 83.3491 8.40867 81.9894 8.30067C80.7842 8.2081 80.5525 7.63723 80.537 7.23608L80.1817 7.42123C78.652 8.2081 76.6898 9.24181 74.0322 10.6921C72.7189 11.4327 71.3129 12.2196 69.8605 13.0527C68.4699 13.855 67.0176 14.719 65.5497 15.6602C65.5034 15.691 65.4879 15.7065 65.457 15.7219C66.9558 18.2059 68.7326 21.0448 70.7721 24.1151C72.1163 26.1517 73.785 28.4043 75.7318 30.7957C76.2881 29.8546 76.8288 28.9906 77.4005 28.142C78.4975 26.5066 79.5482 24.9483 80.5525 23.4671C81.7422 21.6928 83.0555 19.7179 84.4306 17.5733" fill="black"/>
<path d="M64.2533 7.15893C65.2576 5.46177 66.2001 3.82633 67.0653 2.29889C65.9374 2.20632 64.825 2.19089 63.7125 2.23717C62.5228 2.28346 61.4258 2.2526 60.4524 2.17546C60.1588 2.16003 59.9425 2.08288 59.7725 1.99031C59.5717 1.85145 59.4635 1.62002 59.479 1.37316C59.479 1.28058 59.5253 1.18801 59.6644 0.894869C59.7571 0.694295 59.8807 0.493723 60.0043 0.29315C60.0661 0.200577 60.1434 0.0925723 60.2052 0H59V15.5213C59.6798 14.503 60.3442 13.4693 61.0241 12.4201C62.152 10.6458 63.2335 8.88695 64.2533 7.17436" fill="black"/>
<path d="M85.282 42.2749C83.8605 41.8429 82.3464 41.1641 80.8013 40.2383C79.2716 39.328 77.6648 38.0783 76.027 36.5354C74.4046 35.008 72.736 33.064 71.0518 30.7497C69.5222 28.6359 67.8998 26.3216 66.2621 23.853C64.6397 21.4307 63.1101 19.0239 61.7504 16.725C61.7504 16.725 61.6577 16.833 61.5959 16.9101C60.7461 18.1444 59.8963 19.425 59.0156 20.7827V42.9847H88.6503C87.5687 42.8458 86.4408 42.6144 85.282 42.2595" fill="black"/>
<path d="M101.321 9.36534C100.348 8.67105 99.1429 8.25449 97.6906 8.14648C96.6863 8.06934 95.7438 8.1002 94.9249 8.25449C94.4613 8.36249 94.0905 8.65563 93.797 9.11849L90.5368 13.9477C89.3162 15.7528 88.0183 17.6969 86.6896 19.7489C85.3917 21.7392 84.1402 23.6986 82.935 25.5809C81.7453 27.4632 80.7101 29.1141 79.8912 30.5181C79.3813 31.3976 79.1032 32.1381 79.0569 32.6936C79.0105 33.4033 79.2268 33.8816 79.7676 34.2056C80.3702 34.5605 81.3281 34.7764 82.6106 34.8844C82.8887 34.8999 83.6303 34.9616 83.5994 35.5016C83.5994 35.6405 83.5067 35.9799 82.9814 36.0416C82.1779 36.1187 81.3127 36.1496 80.4011 36.165C81.05 36.8593 81.5754 37.3993 82.0543 37.8468C83.0277 38.7571 83.9857 39.4822 84.8973 40.0222C85.8243 40.5622 86.7514 40.9942 87.6475 41.2719C88.5591 41.5497 89.5634 41.7502 90.6604 41.8274C92.3446 41.9662 94.0133 41.8582 95.6201 41.5342C97.2425 41.2102 98.5713 40.7011 99.591 40.0685C99.7301 39.9914 100.07 39.7908 100.364 39.9914C100.487 40.0531 100.611 40.2228 100.595 40.5468C100.58 40.8091 100.348 40.9942 100.163 41.1177C98.8803 41.8428 97.2579 42.3828 95.3266 42.7531C94.8013 42.8457 94.2605 42.9382 93.7351 43H102.094V20.5975C101.955 20.7363 101.785 20.8597 101.615 20.9986C100.286 22.0478 98.6794 22.8809 96.8562 23.4826C95.033 24.0843 92.9472 24.3004 90.6913 24.1152C89.6098 24.0226 88.6364 23.7912 87.8484 23.4055C87.5703 23.2049 87.4776 23.0043 87.4776 22.8038C87.5239 22.4489 87.7866 22.2483 88.1111 22.2483L88.2501 22.2946C88.3583 22.3563 88.6518 22.4643 89.3162 22.6186C89.857 22.7421 90.3823 22.8346 90.8613 22.8655C92.3909 22.9889 93.8588 22.7883 95.2339 22.2483C96.609 21.7083 97.8296 20.9523 98.8648 20.0112C99.9 19.0546 100.765 17.9437 101.399 16.7249C101.677 16.1848 101.909 15.6294 102.109 15.0277V10.3219C101.893 9.90535 101.646 9.59678 101.352 9.38078" fill="black"/>
</svg>
