<svg width="109" height="108" viewBox="0 0 109 108" fill="none" xmlns="http://www.w3.org/2000/svg">
<path d="M98.2182 48.0476C97.5432 46.8307 96.2308 46.0257 94.7497 46.0257C93.3998 46.0257 92.1999 46.6997 91.4687 47.7294C87.2503 53.3272 83.8943 53.6829 83.0881 53.6829C82.9569 53.6829 82.9006 53.6829 82.9006 53.6829C82.7131 53.6829 82.5444 53.7016 82.3944 53.7578C82.1507 53.8326 81.9257 53.9637 81.7382 54.1322C81.382 54.4505 81.1758 54.8998 81.1758 55.4053C81.1758 55.9108 81.4007 56.3601 81.7382 56.6783C81.9257 56.8468 82.1507 56.9779 82.3944 57.0528C82.4694 57.0715 82.5632 57.0902 82.6382 57.1089C82.6382 57.1089 89.4626 58.5318 96.5121 53.6454V53.5893C96.5121 53.5893 96.4558 53.4957 96.4371 53.4582C96.2871 52.9902 96.2121 52.5034 96.2121 52.0166C96.2121 50.4253 96.962 48.9837 98.2182 48.0664" fill="black"/>
<path d="M94.4333 68.2109H94.7332C96.9268 68.2109 98.7267 66.4324 98.7267 64.2419C98.7267 62.0515 96.9456 60.2542 94.7332 60.2542C94.1145 60.2542 93.5334 60.3853 93.0084 60.6474C86.4652 62.9127 83.4842 61.2277 83.1654 61.0218C82.9217 60.8907 82.6592 60.8159 82.378 60.8159H82.3217C82.1155 60.8159 81.9092 60.8533 81.7218 60.9282C81.0656 61.1716 80.5781 61.8081 80.5781 62.557C80.5781 63.3059 81.0468 63.9424 81.7218 64.1858C81.7218 64.1858 81.9468 64.3543 82.378 64.6538C83.8966 65.6461 88.0775 67.9676 94.4145 68.2297" fill="black"/>
<path d="M92.6156 31.9847C90.497 31.9847 88.7721 33.6322 88.6409 35.7103C87.9847 42.057 83.1476 43.8543 83.1476 43.8543C82.8663 43.9105 82.6038 44.0228 82.3789 44.21C81.9851 44.5283 81.7227 45.015 81.7227 45.558C81.7227 46.0073 81.8914 46.4379 82.1914 46.7374C82.2476 46.7936 82.3039 46.8498 82.3789 46.9059C82.6788 47.1493 83.0538 47.2804 83.4663 47.2804C83.6351 47.2804 83.8037 47.2616 83.9537 47.2055C84.2537 47.1306 90.8532 45.0525 95.6716 38.5186C96.2528 37.8259 96.609 36.9273 96.609 35.9537C96.609 33.7633 94.8279 31.966 92.6156 31.966" fill="black"/>
<path d="M78.4571 74.6327L79.4883 75.0072C79.9945 75.2318 80.5382 75.3629 81.1382 75.3629C83.3317 75.3629 85.1316 73.5843 85.1316 71.3752C85.1316 69.166 83.3505 67.3874 81.1382 67.3874C80.5382 67.3874 79.9758 67.5185 79.4696 67.7619L78.4571 68.1363C77.3322 68.5482 76.1698 68.8477 75.0074 69.0724C75.4386 68.5669 75.9074 68.0053 76.3761 67.4062C77.3135 66.208 78.2509 64.8787 78.9071 63.5495C79.1508 63.0814 79.3571 62.5947 79.5258 62.1454C79.7133 61.5463 79.807 60.9284 79.807 60.2732C79.807 56.9594 77.3323 54.2261 74.145 53.7955C74.145 53.5708 74.1637 53.3462 74.1637 53.1215C74.1637 51.5114 73.7138 49.995 72.9451 48.7032H76.5635C78.0259 48.7032 79.3008 47.9169 79.9945 46.7374C80.3508 46.1383 80.557 45.4456 80.557 44.7154C80.557 42.525 78.7758 40.7277 76.5635 40.7277C75.9636 40.7277 75.4011 40.8588 74.8949 41.1022L73.8825 41.4579C72.2326 42.057 70.5265 42.4501 68.7829 42.6373C68.6142 42.6561 68.4454 42.6748 68.2767 42.6935C67.6205 42.7497 66.9643 42.7871 66.2893 42.7871C66.1581 42.7871 66.0269 42.7871 65.8956 42.7871C65.1082 42.7871 64.302 42.7871 63.5146 42.7122C61.6022 42.5437 59.7086 42.1319 57.9087 41.4766L56.8963 41.1209C56.3901 40.8775 55.8277 40.7464 55.2277 40.7464C53.0341 40.7464 51.2343 42.525 51.2343 44.7342C51.2343 45.2958 51.3468 45.8388 51.5718 46.3255C51.6468 46.494 51.7217 46.6438 51.8155 46.7936C52.5092 47.9356 53.7841 48.7032 55.2277 48.7032H58.115C57.3463 49.995 56.8963 51.5114 56.8963 53.1215C56.8963 54.9562 57.4588 56.6412 58.4337 58.0453C56.9526 58.7193 55.9214 60.2357 55.9214 61.9769C55.9214 62.4075 55.9777 62.8381 56.1089 63.2312C56.1089 63.2312 56.8026 65.1221 58.0962 67.4062C58.34 67.8555 58.6212 68.3235 58.9212 68.7916C58.19 68.6044 57.4775 68.3984 56.7838 68.1363L55.7714 67.7806C55.2652 67.5372 54.7027 67.4062 54.1028 67.4062C51.9092 67.4062 50.1094 69.1847 50.1094 71.3939C50.1094 73.6031 51.8905 75.3816 54.1028 75.3816C54.684 75.3816 55.2465 75.2506 55.7527 75.0259L56.7838 74.6515C59.1837 73.7903 61.7147 73.341 64.2458 73.341C64.527 73.341 64.8082 73.341 65.0894 73.341L67.283 73.4158H67.9955L70.189 73.341C70.489 73.341 70.789 73.341 71.1077 73.341C73.62 73.341 76.1323 73.809 78.4946 74.6515L78.4571 74.6327ZM69.5329 53.2338C69.4954 54.4695 68.4642 55.443 67.2268 55.443C65.9894 55.443 64.9582 54.4507 64.9207 53.1964V53.0841C64.9582 51.8297 65.9706 50.8375 67.2268 50.8375C68.4829 50.8375 69.4954 51.8297 69.5329 53.0466C69.5329 53.0841 69.5329 53.1028 69.5329 53.1402C69.5329 53.1777 69.5329 53.1964 69.5329 53.2338ZM64.1708 63.7929C64.4333 63.2499 64.5645 62.6321 64.5645 61.9769C64.5645 61.8833 64.5645 61.7896 64.5645 61.7148C64.8832 61.7522 65.2207 61.7709 65.5581 61.7709C66.0081 61.7709 66.4581 61.7335 66.908 61.6586C67.058 62.3887 67.358 63.0814 67.733 63.6993C68.0892 64.2796 68.8579 65.6276 69.2141 66.676C69.3079 66.9007 69.3641 67.1441 69.3829 67.3874C69.4204 67.9491 69.4391 68.698 69.4391 69.3907L67.733 69.3345H67.658L65.1082 69.4281C64.6582 69.4281 64.2083 69.4281 63.7583 69.4281C63.6646 68.8477 63.6083 68.155 63.6083 67.3874C63.6083 66.3016 63.777 65.0847 64.2082 63.7742" fill="black"/>
<path d="M57.4818 33.445C57.4818 33.445 57.4068 33.445 57.3693 33.445C57.2568 33.445 57.1443 33.4262 57.0131 33.4262C55.7382 33.4262 54.707 34.4559 54.707 35.729C54.707 37.0021 55.7382 38.0318 57.0131 38.0318C57.1631 38.0318 57.3318 38.0318 57.4818 37.9943C59.0004 37.7322 60.5378 37.6199 62.094 37.6761C62.094 37.6761 63.4813 37.7509 65.2437 37.9007L65.4124 38.9304H65.4312V39.0615L65.5437 39.7167L65.7124 40.7651H65.7499C65.9186 41.5702 66.5748 42.188 67.4185 42.2816H67.4748C67.4748 42.2816 67.5685 42.2816 67.6248 42.2816C67.6998 42.2816 67.756 42.2816 67.831 42.2816C68.6559 42.188 69.3309 41.5702 69.4996 40.7651V40.6903C69.4996 40.6903 69.5184 40.5967 69.5371 40.5405C69.5371 40.6154 69.5371 40.6903 69.5184 40.7651L69.6871 39.7167L69.8933 38.5185C70.6058 38.6496 71.2432 38.8181 71.7494 38.9866L72.7806 39.361C73.2868 39.5857 73.8492 39.7167 74.4492 39.7167C76.6428 39.7167 78.4426 37.9382 78.4426 35.729C78.4426 33.5198 76.6615 31.7413 74.4492 31.7413C73.8492 31.7413 73.2868 31.8723 72.7806 32.1157L71.7682 32.4714C71.5057 32.565 71.2057 32.6586 70.887 32.7335L71.0557 31.7413L71.9182 26.5928C71.9744 26.3307 71.9932 26.0686 71.9932 25.8065C71.9932 23.4288 70.0621 21.5005 67.681 21.5005C65.2999 21.5005 63.3688 23.4288 63.3688 25.8065C63.3688 26.1622 63.4063 26.4992 63.4813 26.8175L64.3063 31.7413L64.625 33.6134C63.2189 33.7258 62.1877 33.7819 62.1877 33.7819C60.6316 33.8381 59.0942 33.7258 57.5756 33.4637" fill="black"/>
<path d="M60.1805 76.9734C59.5243 76.9734 58.9056 77.1419 58.3806 77.4227C57.8744 77.7036 50.2813 81.7287 44.338 78.5461C43.6818 78.1903 43.0443 77.7597 42.4444 77.2168C42.7631 76.7862 43.0818 76.3743 43.3631 75.9625C44.0005 75.0638 44.563 74.2213 45.0317 73.4725C45.6316 72.5177 46.1004 71.7126 46.4191 71.151C46.944 70.4395 47.244 69.5596 47.244 68.6235C47.244 66.2459 45.3129 64.3175 42.9319 64.2988L42.0507 64.3924L35.5449 65.0664C35.9011 64.2052 36.2199 63.3815 36.4824 62.5764C36.7261 61.8276 36.9323 61.0974 37.1198 60.4234C39.7633 60.049 42.4631 60.1426 45.0879 60.723L46.1566 60.9664C46.6816 61.1348 47.2628 61.191 47.844 61.1161C50.0375 60.8353 51.5749 58.8508 51.2937 56.6604C51.1437 55.4434 50.4312 54.4137 49.4751 53.7959C48.7251 53.3279 47.8065 53.0845 46.8503 53.2156H46.8316C46.2503 53.2904 45.7066 53.4964 45.2379 53.7959L44.8817 53.9832L44.2817 54.2827C42.2757 55.3124 40.1383 56.0238 37.926 56.3982C37.926 56.2859 37.9447 56.1736 37.9635 56.0613C38.001 55.7992 38.0197 55.5745 38.0197 55.4247C38.0197 55.3873 38.0197 55.3686 38.0197 55.3311C38.0197 54.9941 37.9822 54.6758 37.9072 54.3576C37.776 53.8146 37.551 53.2904 37.2323 52.8411C37.1948 52.785 37.1573 52.7288 37.1011 52.6726C36.6886 52.1484 36.1636 51.7178 35.5637 51.4183C35.0012 51.1562 34.3638 50.9877 33.6888 50.9877C33.0139 50.9877 32.4327 51.1374 31.889 51.3808C31.2515 51.6804 30.7078 52.111 30.2953 52.6539C29.7329 53.3841 29.3767 54.3014 29.3767 55.2937C29.3767 55.3311 29.3767 55.3686 29.3767 55.4247C29.3204 56.08 29.2454 56.754 29.1517 57.4841C26.9956 57.6339 24.8395 57.4841 22.7209 57.0161L21.671 56.7914C21.1461 56.6229 20.5649 56.5667 19.9649 56.6416C17.7901 56.9225 16.234 58.9257 16.5152 61.0974C16.7964 63.2878 18.7837 64.823 20.9773 64.5422C21.5585 64.4673 22.1022 64.2614 22.5709 63.9806L23.5459 63.4751C24.1083 63.1942 24.6708 62.9321 25.252 62.6887C25.9082 62.4266 26.5644 62.1833 27.2393 61.9773C27.633 61.8463 28.0455 61.7527 28.4392 61.6403C28.383 61.8837 28.3267 62.1271 28.2705 62.3705C28.1767 62.7824 28.0643 63.213 27.933 63.6248C27.858 63.8682 27.8018 64.0929 27.7268 64.3363C27.5581 64.8605 27.3893 65.3847 27.2018 65.8902C27.1081 66.1148 27.0331 66.3395 26.9394 66.5641C26.5644 67.4815 26.1332 68.3802 25.627 69.2039C25.5332 69.3724 25.4207 69.5222 25.327 69.6907C25.2332 69.8405 25.1395 69.9715 25.0457 70.1026C24.652 70.6642 24.2771 71.151 23.8833 71.6003C21.1086 74.7643 18.315 75.2323 16.3089 74.9889C16.009 74.9515 15.7465 74.8953 15.484 74.8392C15.3153 74.8017 15.1653 74.7643 15.0153 74.7081C14.8278 74.6332 14.6403 74.5583 14.4341 74.5022C14.0966 74.4086 13.7216 74.3711 13.3467 74.3711C12.2968 74.3711 11.3406 74.7455 10.6094 75.3821C11.2656 76.4118 12.053 77.3666 12.9342 78.2465C14.0591 79.3698 15.3152 80.3246 16.6651 81.0922C16.8526 81.2045 17.0589 81.2981 17.2464 81.4105C18.0338 81.036 18.8775 80.8863 19.7024 80.9424C24.3708 79.0141 27.8393 76.2994 30.4266 73.3227C30.5578 73.5661 30.7266 73.772 30.914 73.978C30.914 73.978 32.8639 76.6739 35.0387 78.9767C33.2951 81.3918 31.2703 82.4776 29.6766 82.9644C28.4955 83.3201 27.558 83.3575 27.1268 83.3388C26.9768 83.3388 26.8831 83.3388 26.8831 83.3388C26.2269 83.3388 25.6269 83.6196 25.1957 84.069C24.952 84.3123 24.7833 84.6306 24.6708 84.9676C24.7833 85.005 24.877 85.0425 24.9708 85.0799C25.552 85.3233 26.0957 85.679 26.5644 86.1471C26.9956 86.5777 27.3331 87.0644 27.5768 87.5886C27.6143 87.6635 27.6518 87.7384 27.6705 87.832C27.5768 87.8695 27.4831 87.8882 27.3706 87.9256C27.4831 87.9256 27.5768 87.9069 27.6893 87.8882C28.7205 87.7384 29.7329 87.4576 30.7265 87.0832C33.5763 85.9786 36.1824 84.0502 38.4134 81.8785L38.5072 81.9347C41.5257 83.5073 45.6879 87.5699 60.8742 84.7429V84.7055C62.6928 84.406 64.0802 82.8146 64.0802 80.905C64.0802 78.7707 62.3553 77.0483 60.218 77.0483L60.1805 76.9734ZM34.42 71.1884L37.5885 71.8811C37.4948 72.63 37.1948 73.3227 36.7261 73.8843C35.9574 73.1916 35.1699 72.293 34.42 71.1884Z" fill="black"/>
<path d="M44.4849 42.2628C45.0474 42.2628 45.5723 42.1505 46.041 41.9258C46.7535 41.6076 47.3347 41.0646 47.7284 40.4094C47.8596 40.1847 47.9721 39.9413 48.0659 39.6792C48.1971 39.3048 48.2534 38.9116 48.2534 38.481C48.2534 36.9646 47.3534 35.6541 46.0598 35.0737C45.8723 34.9801 45.6661 34.9052 45.4411 34.849C45.2161 34.7929 44.9724 34.7554 44.7286 34.7367C44.6536 34.7367 44.5599 34.7367 44.4849 34.7367C43.0038 34.7367 41.7289 35.5792 41.1102 36.8148C41.1102 36.8522 41.0727 36.871 41.0727 36.9084C41.0727 36.9646 41.0352 37.0207 41.0352 37.0769C41.0352 37.1331 41.0352 37.1892 41.0727 37.2454C41.1102 37.339 41.1664 37.4139 41.2414 37.4701C41.5601 37.7134 41.8226 38.0317 41.9913 38.4061C41.9913 38.4061 42.0663 39.155 41.6539 39.8103C41.6164 39.8852 41.5601 39.9601 41.5039 40.0162C41.3914 40.1285 41.2976 40.2409 41.2414 40.3907C41.2414 40.4094 41.2227 40.4468 41.2039 40.4655C41.1664 40.5966 41.1289 40.7276 41.1289 40.8587C41.1289 40.9897 41.1477 41.1208 41.1851 41.2331V41.2706C41.3164 41.6263 41.6164 41.8884 41.9913 41.982C43.5662 42.3752 44.4474 42.2628 44.4849 42.2628Z" fill="black"/>
<path d="M39.2186 94.0846C39.0874 94.1407 38.9186 94.1594 38.7499 94.1594C38.5437 94.1594 38.3749 94.122 38.2062 94.0471C38.0374 93.9722 37.9249 93.8786 37.8499 93.7663C37.7749 93.654 37.7187 93.5042 37.6999 93.3357L37.25 93.3731C37.25 93.6165 37.325 93.8224 37.4375 94.0097C37.5687 94.1969 37.7375 94.3467 37.9437 94.4403C38.1687 94.5339 38.4312 94.5713 38.7499 94.5713C39.0124 94.5713 39.2373 94.5339 39.4248 94.4403C39.631 94.3467 39.781 94.2156 39.8935 94.0471C40.006 93.8786 40.0623 93.7101 40.0623 93.5229C40.0623 93.3357 40.006 93.1672 39.9123 93.0174C39.8185 92.8676 39.6685 92.7553 39.4623 92.6617C39.3123 92.6055 39.0498 92.5306 38.6749 92.437C38.2999 92.3434 38.0562 92.2685 37.9624 92.1749C37.8687 92.1 37.8312 91.9877 37.8312 91.8567C37.8312 91.7069 37.8874 91.5758 38.0187 91.4822C38.1499 91.3699 38.3561 91.3325 38.6374 91.3325C38.9186 91.3325 39.1248 91.3886 39.2561 91.501C39.3873 91.6133 39.4811 91.7818 39.4998 92.0064L39.9498 91.969C39.9498 91.7631 39.8748 91.5758 39.781 91.4073C39.6685 91.2388 39.5186 91.1265 39.3123 91.0329C39.1061 90.9393 38.8811 90.9019 38.6186 90.9019C38.3749 90.9019 38.1687 90.9393 37.9624 91.0142C37.7749 91.0891 37.625 91.2201 37.5125 91.3699C37.4187 91.5197 37.3625 91.6882 37.3625 91.8754C37.3625 92.0439 37.4 92.1937 37.4937 92.3247C37.5687 92.4558 37.7 92.5681 37.8687 92.6617C37.9999 92.7366 38.2249 92.8115 38.5624 92.8864C38.8811 92.9613 39.1061 93.0174 39.1998 93.0549C39.3498 93.111 39.4623 93.1859 39.5186 93.2608C39.5748 93.3357 39.6123 93.448 39.6123 93.5603C39.6123 93.6727 39.5748 93.7663 39.5186 93.8599C39.4436 93.9535 39.3498 94.0284 39.2186 94.0846Z" fill="black"/>
<path d="M41.9741 90.9769H41.5039V94.5153H41.9741V90.9769Z" fill="black"/>
<path d="M43.8703 90.9769H43.3828V94.5341H43.8328V91.7445L45.6889 94.5341H46.1764V90.9769H45.7264V93.7665L43.8703 90.9769Z" fill="black"/>
<path d="M48.5726 91.5199C48.7601 91.3888 48.9851 91.3326 49.2475 91.3326C49.4913 91.3326 49.6788 91.3888 49.8475 91.5011C49.9975 91.6135 50.1287 91.8007 50.2037 92.0628L50.6724 91.9505C50.5787 91.6322 50.41 91.3701 50.1662 91.1829C49.9225 90.9957 49.6225 90.9208 49.2663 90.9208C48.9475 90.9208 48.6663 90.9957 48.4039 91.1267C48.1414 91.2765 47.9351 91.4824 47.8039 91.7445C47.6539 92.0254 47.5977 92.3436 47.5977 92.7181C47.5977 93.0551 47.6539 93.3733 47.7852 93.6729C47.9164 93.9724 48.0851 94.1971 48.3288 94.3468C48.5726 94.4966 48.8726 94.5715 49.2663 94.5715C49.66 94.5715 49.9412 94.4779 50.2037 94.272C50.4662 94.066 50.6349 93.7852 50.7287 93.392L50.26 93.2797C50.2037 93.5793 50.0725 93.8039 49.885 93.9537C49.6975 94.1035 49.4725 94.1784 49.21 94.1784C48.985 94.1784 48.7976 94.1222 48.6101 94.0099C48.4226 93.8975 48.2914 93.729 48.1976 93.5044C48.1039 93.2797 48.0664 93.0176 48.0664 92.7181C48.0664 92.4934 48.1039 92.25 48.1789 92.0441C48.2539 91.8194 48.3851 91.6509 48.5726 91.5199Z" fill="black"/>
<path d="M52.6015 92.9053H54.5701V92.4934H52.6015V91.4075H54.7014V90.9769H52.1328V94.5341H54.7763V94.1035H52.6015V92.9053Z" fill="black"/>
<path d="M58.1148 93.2233C57.871 93.4293 57.6836 93.5978 57.5523 93.7662C57.4211 93.916 57.3273 94.0845 57.2711 94.2343C57.2336 94.3279 57.2148 94.4402 57.2148 94.5338H59.5584V94.122H57.8148C57.8148 94.122 57.9273 93.9722 58.0023 93.8786C58.0773 93.8037 58.246 93.6539 58.5085 93.4293C58.8272 93.1671 59.0522 92.9612 59.1834 92.8114C59.3147 92.6617 59.4084 92.5119 59.4647 92.3808C59.5209 92.2498 59.5584 92.1 59.5584 91.969C59.5584 91.6881 59.4647 91.4635 59.2584 91.2763C59.0522 91.089 58.7897 90.9954 58.4523 90.9954C58.1148 90.9954 57.8523 91.089 57.6461 91.2575C57.4398 91.426 57.3273 91.6881 57.3086 92.0251L57.7586 92.0626C57.7586 91.8379 57.8148 91.6694 57.946 91.5384C58.0773 91.4073 58.246 91.3511 58.4523 91.3511C58.6585 91.3511 58.8085 91.4073 58.9397 91.5196C59.0709 91.632 59.1272 91.7817 59.1272 91.9502C59.1272 92.1187 59.0522 92.2872 58.921 92.4744C58.7897 92.6617 58.5273 92.905 58.1335 93.2233" fill="black"/>
<path d="M62.6178 91.0893C62.4678 91.0144 62.2991 90.9769 62.1116 90.9769C61.8491 90.9769 61.6429 91.0518 61.4742 91.1829C61.3054 91.3139 61.1742 91.5199 61.0804 91.782C60.9867 92.0441 60.9492 92.3811 60.9492 92.7929C60.9492 93.4669 61.0617 93.935 61.3054 94.2345C61.4929 94.4779 61.7741 94.6089 62.1116 94.6089C62.3741 94.6089 62.5803 94.5341 62.7491 94.403C62.9178 94.272 63.0491 94.066 63.1241 93.8039C63.199 93.5418 63.2553 93.2048 63.2553 92.7929C63.2553 92.4372 63.2365 92.1564 63.1803 91.9505C63.1241 91.7445 63.049 91.576 62.9553 91.4263C62.8616 91.2765 62.7491 91.1641 62.5991 91.0893H62.6178ZM62.5991 93.9537C62.4678 94.1409 62.2991 94.2345 62.0929 94.2345C61.8866 94.2345 61.7179 94.1409 61.5867 93.9537C61.4554 93.7665 61.3804 93.3733 61.3804 92.7929C61.3804 92.2126 61.4554 91.8194 61.6054 91.5947C61.7179 91.4263 61.8866 91.3326 62.0929 91.3326C62.2991 91.3326 62.4678 91.4263 62.5991 91.6135C62.7303 91.8007 62.8053 92.1938 62.8053 92.7742C62.8053 93.3546 62.7303 93.7477 62.5991 93.935" fill="black"/>
<path d="M66.3444 91.0893C66.1944 91.0144 66.0257 90.9769 65.8382 90.9769C65.5757 90.9769 65.3695 91.0518 65.2007 91.1829C65.032 91.3139 64.9008 91.5199 64.807 91.782C64.7133 92.0441 64.6758 92.3811 64.6758 92.7929C64.6758 93.4669 64.7883 93.935 65.032 94.2345C65.2195 94.4779 65.5007 94.6089 65.8382 94.6089C66.1007 94.6089 66.3069 94.5341 66.4757 94.403C66.6444 94.272 66.7756 94.066 66.8506 93.8039C66.9256 93.5418 66.9819 93.2048 66.9819 92.7929C66.9819 92.4372 66.9631 92.1564 66.9069 91.9505C66.8506 91.7445 66.7756 91.576 66.6819 91.4263C66.5881 91.2765 66.4756 91.1641 66.3257 91.0893H66.3444ZM66.3257 93.9537C66.1944 94.1409 66.0257 94.2345 65.8194 94.2345C65.6132 94.2345 65.4445 94.1409 65.3133 93.9537C65.182 93.7665 65.107 93.3733 65.107 92.7929C65.107 92.2126 65.182 91.8194 65.332 91.5947C65.4445 91.4263 65.6132 91.3326 65.8194 91.3326C66.0257 91.3326 66.1944 91.4263 66.3257 91.6135C66.4569 91.8007 66.5319 92.1938 66.5319 92.7742C66.5319 93.3546 66.4569 93.7477 66.3257 93.935" fill="black"/>
<path d="M70.0811 93.8975C70.0249 93.9911 69.9311 94.0847 69.8374 94.1409C69.7436 94.1971 69.6124 94.2345 69.4812 94.2345C69.3312 94.2345 69.1999 94.1971 69.0875 94.1035C68.9937 94.0099 68.9187 93.8788 68.8812 93.6729L68.4687 93.7103C68.5062 93.9911 68.6187 94.1971 68.7875 94.3656C68.9562 94.5153 69.1812 94.5902 69.4624 94.5902C69.7249 94.5902 69.9499 94.5153 70.1374 94.3843C70.3249 94.2532 70.4748 94.0473 70.5686 93.7665C70.6623 93.5044 70.7186 93.1299 70.7186 92.6806C70.7186 92.2313 70.6623 91.913 70.5686 91.6884C70.4748 91.4637 70.3249 91.2765 70.1374 91.1641C69.9499 91.0331 69.7437 90.9769 69.4999 90.9769C69.1812 90.9769 68.9187 91.0893 68.6937 91.3139C68.4875 91.5386 68.375 91.8194 68.375 92.1751C68.375 92.5308 68.4687 92.8117 68.675 93.0176C68.8812 93.2235 69.1249 93.3359 69.4249 93.3359C69.5937 93.3359 69.7624 93.2984 69.9124 93.2048C70.0624 93.1112 70.1749 92.9989 70.2686 92.8678V92.9614C70.2686 93.1487 70.2499 93.3171 70.2124 93.4856C70.1749 93.6541 70.1186 93.8039 70.0436 93.8975H70.0811ZM70.0436 92.7368C69.9124 92.8865 69.7437 92.9427 69.5374 92.9427C69.3312 92.9427 69.1625 92.8678 69.0312 92.7368C68.9 92.587 68.825 92.4185 68.825 92.1938C68.825 91.9505 68.9 91.7445 69.0312 91.576C69.1812 91.4262 69.3499 91.3326 69.5374 91.3326C69.7249 91.3326 69.8936 91.4075 70.0249 91.5573C70.1561 91.7071 70.2311 91.8943 70.2311 92.1564C70.2311 92.4185 70.1749 92.6057 70.0436 92.7368Z" fill="black"/>
<path d="M57.8537 106.422C58.9974 106.853 60.1785 107.209 61.3597 107.471C62.3721 107.695 63.422 107.845 64.4532 107.92C66.3655 108.07 68.2779 108.014 70.1715 107.714C70.434 107.677 70.6965 107.62 70.9402 107.583C71.1464 107.546 71.3527 107.508 71.5589 107.452C74.3337 106.853 77.0147 105.748 79.452 104.157C79.6395 104.045 79.8082 103.932 79.977 103.801C80.202 103.651 80.4082 103.502 80.6332 103.333C81.5894 102.641 82.4893 101.854 83.3517 100.993C84.7578 99.5889 85.939 98.0724 86.9139 96.4436C87.2514 95.7322 87.6263 95.0208 88.0388 94.3468C88.8075 93.1111 89.7449 91.9317 90.8136 90.8645C91.9948 89.6851 93.2697 88.7115 94.6383 87.8878C95.1445 87.5882 95.6507 87.3261 96.157 87.0827C97.9006 86.0718 99.5504 84.8174 101.05 83.3197C101.894 82.4772 102.644 81.5973 103.338 80.6799C103.488 80.474 103.656 80.2493 103.806 80.0247C103.938 79.8562 104.05 79.6689 104.163 79.5005C105.794 77.0292 106.919 74.3145 107.519 71.5063C107.556 71.3003 107.612 71.0944 107.65 70.8885C107.706 70.6264 107.744 70.3643 107.781 70.1209C108.231 67.219 108.156 64.2422 107.537 61.3591C107.069 60.2171 106.712 59.0189 106.469 57.7833C106.225 56.5663 106.112 55.3307 106.112 54.0389C106.112 52.3914 106.319 50.7813 106.712 49.2461C106.862 48.6845 107.031 48.1416 107.219 47.5986C107.725 45.6516 108.006 43.5922 108.006 41.4766C108.006 40.2972 107.912 39.1364 107.762 37.9944C107.725 37.7323 107.687 37.4702 107.631 37.2081C107.594 37.0021 107.556 36.7962 107.5 36.5903C106.9 33.6884 105.756 30.9738 104.219 28.5586C104.106 28.3902 103.994 28.2029 103.863 28.0344C103.713 27.8098 103.563 27.6038 103.413 27.3979C102.588 26.2746 101.669 25.2262 100.657 24.2527C100.282 23.8969 99.9067 23.5412 99.513 23.223C98.7255 22.549 97.8818 21.9312 97.0194 21.3695C95.9882 20.6955 94.9008 20.1152 93.7571 19.6097C92.726 18.917 91.751 18.1307 90.8511 17.2133C89.6512 16.0151 88.6388 14.7046 87.8138 13.3004C87.5701 12.8698 87.3264 12.4392 87.1202 12.0086C86.464 10.8853 85.7141 9.79948 84.8704 8.76979C84.5329 8.35791 84.1767 7.94603 83.8017 7.55288C83.6329 7.38438 83.4642 7.21589 83.2954 7.02867C82.4518 6.18619 81.5706 5.4186 80.6332 4.7259C80.4269 4.5574 80.202 4.40763 79.977 4.25785C79.8082 4.1268 79.6208 4.01447 79.452 3.90214C76.9772 2.29207 74.2587 1.16877 71.4651 0.550953C71.2589 0.51351 71.0527 0.457345 70.8464 0.419902C70.584 0.363737 70.3215 0.326294 70.0777 0.28885C68.6904 0.0641898 67.303 -0.0294199 65.9156 0.00802353C65.3906 0.00802353 64.8844 0.0454669 64.3594 0.0829103C63.3283 0.176519 62.2971 0.326294 61.2847 0.532233C60.066 0.794337 58.8849 1.15005 57.7225 1.59937C56.5038 1.84275 55.2477 1.95508 53.9728 1.95508C52.3041 1.95508 50.6918 1.74914 49.1356 1.35599C48.6294 1.22494 48.1045 1.07516 47.617 0.887945C46.3796 0.550954 45.1047 0.326294 43.7923 0.195241C43.2486 0.139076 42.7236 0.101632 42.1612 0.101632C41.9175 0.101632 41.6925 0.101632 41.4487 0.101632C40.2488 0.101632 39.0864 0.195242 37.9428 0.363737C37.6803 0.401181 37.4178 0.438624 37.1553 0.494789C36.9491 0.532232 36.7429 0.569675 36.5179 0.62584C33.6494 1.22494 30.9683 2.32952 28.5685 3.8647C28.3998 3.97703 28.2123 4.08936 28.0435 4.20169C27.8186 4.35146 27.6123 4.50124 27.4061 4.65101C26.2812 5.47477 25.2313 6.37341 24.2563 7.36566C23.9001 7.74009 23.5439 8.11453 23.2252 8.50768C22.569 9.27528 21.969 10.0616 21.4253 10.9041C20.6941 12.0274 20.0379 13.2068 19.4942 14.4425C18.838 15.416 18.0693 16.3334 17.2069 17.1946C16.307 18.0932 15.332 18.8982 14.3009 19.5909C13.1572 20.0964 12.0698 20.6955 11.0386 21.3508C10.1574 21.9124 9.33252 22.5303 8.54508 23.2042C8.15136 23.5412 7.77639 23.8782 7.40142 24.2527C6.389 25.2262 5.47032 26.2746 4.64539 27.3979C4.4954 27.6038 4.3454 27.8285 4.19541 28.0344C4.08292 28.2029 3.97042 28.3902 3.83918 28.5586C2.28306 30.9738 1.15814 33.6884 0.558191 36.5903C0.520694 36.7962 0.483202 37.0021 0.445705 37.2081C0.408207 37.4702 0.351977 37.7323 0.31448 37.9944C0.145743 39.1364 0.0707396 40.2972 0.0707396 41.4766C0.0707396 43.5922 0.351964 45.6329 0.858175 47.5986C1.04566 48.1416 1.2144 48.6845 1.36439 49.2461C1.75811 50.7813 1.96433 52.3914 1.96433 54.0389C1.96433 55.312 1.83309 56.5663 1.6081 57.7833C1.15814 58.944 0.801932 60.1422 0.539453 61.3591C-0.0792486 64.2422 -0.173 67.219 0.295713 70.1396C0.33321 70.4017 0.389469 70.6638 0.426966 70.9072C0.464463 71.1131 0.501946 71.3191 0.558191 71.525C1.17689 74.4081 2.35805 77.1977 4.04542 79.7251C4.2704 80.0621 4.49537 80.3804 4.73911 80.6986C5.4328 81.616 6.18274 82.4959 7.02643 83.3384C8.43257 84.7425 9.98872 85.9407 11.6198 86.933C12.3323 87.27 13.026 87.6257 13.7197 88.0563C14.9758 88.8239 16.157 89.7599 17.2444 90.8458C18.1443 91.7445 18.9505 92.718 19.6442 93.7477C20.0379 94.328 20.3941 94.9271 20.7129 95.5262C20.7504 95.6011 20.7879 95.676 20.8253 95.7322C20.8628 95.8071 20.9004 95.882 20.9379 95.9381V95.9943C21.1253 96.3313 21.2941 96.6683 21.4253 97.024C23.0377 99.514 25.0813 101.667 27.4811 103.408C27.7998 103.633 28.1185 103.857 28.456 104.082C30.9121 105.692 33.6869 106.853 36.6679 107.471C36.8741 107.508 37.0803 107.546 37.2866 107.602C37.549 107.639 37.8115 107.695 38.074 107.733C39.2177 107.901 40.3801 107.976 41.5612 107.976C42.3487 107.976 43.1361 107.939 43.9235 107.864C45.086 107.752 46.2296 107.546 47.3358 107.283C48.0857 107.003 48.8732 106.759 49.6606 106.572C51.0855 106.235 52.5666 106.067 54.104 106.067C55.3789 106.067 56.635 106.198 57.8537 106.422H57.9099H57.8537ZM103.544 65.5902C103.563 66.1144 103.563 66.6199 103.544 67.1441C103.375 71.7122 101.575 76.2429 98.1818 79.8C98.0693 79.9123 97.9756 80.0247 97.8631 80.1183C97.5819 80.3991 97.3006 80.6612 97.0007 80.9233C96.0632 81.7471 95.0695 82.4772 94.0384 83.095C93.8134 83.2261 93.5697 83.3571 93.3447 83.4882C93.0635 83.6379 92.801 83.769 92.5197 83.9001C91.7698 84.3307 91.0574 84.8174 90.3637 85.3229C89.9324 85.6412 89.52 85.9782 89.1075 86.3152C88.6013 86.7458 88.1138 87.1951 87.6451 87.6631C87.4951 87.8129 87.3639 87.9439 87.2139 88.0937C86.7077 88.6179 86.239 89.1609 85.8078 89.7038C85.6578 89.891 85.5078 90.0969 85.3578 90.2842C84.8891 90.902 84.4766 91.5385 84.0829 92.1938C83.7454 92.9239 83.3704 93.6166 82.958 94.3093C82.358 95.2641 81.6831 96.1815 80.9144 97.024C80.6894 97.2861 80.4457 97.5295 80.1832 97.7916C80.052 97.9226 79.9207 98.0537 79.7895 98.1847C76.246 101.517 71.7651 103.277 67.228 103.464C66.703 103.483 66.1968 103.483 65.6718 103.464C64.6782 103.427 63.6845 103.314 62.7096 103.109C62.1284 102.996 61.5659 102.865 61.0035 102.697C60.4035 102.528 59.7848 102.303 59.2036 102.079C58.6786 101.967 58.1537 101.873 57.6287 101.798C57.1038 101.723 56.5601 101.667 56.0163 101.611C55.3976 101.555 54.7789 101.536 54.1415 101.536C53.8978 101.536 53.654 101.536 53.4103 101.536C52.7166 101.555 52.0417 101.611 51.3667 101.686C51.0292 101.723 50.7105 101.761 50.3731 101.817C49.6606 101.929 48.9482 102.079 48.2545 102.247C48.1607 102.266 48.0857 102.285 47.992 102.304C47.4483 102.491 46.9046 102.659 46.3421 102.809C45.1797 103.109 43.961 103.296 42.7049 103.371C42.3112 103.389 41.9175 103.408 41.5237 103.408C41.3738 103.408 41.2238 103.408 41.0738 103.408C35.6367 103.277 30.7621 100.937 27.3124 97.2486C26.6187 96.4998 25.9812 95.6947 25.4 94.8523C25.1563 94.3093 24.8938 93.7851 24.6313 93.2609C24.3313 92.6993 23.9939 92.1376 23.6376 91.576C23.3564 91.1454 23.0564 90.7148 22.7377 90.2842C22.419 89.8536 22.0815 89.423 21.7253 89.0298C21.3128 88.5618 20.9003 88.0937 20.4504 87.6631C20.2816 87.4946 20.1129 87.3261 19.9254 87.1576C19.3442 86.6147 18.763 86.1092 18.1443 85.6412C17.9568 85.4914 17.7693 85.3604 17.5819 85.2106C17.0007 84.78 16.4007 84.3868 15.782 84.0311C15.707 83.9937 15.632 83.9375 15.557 83.9001C15.0321 83.6567 14.5259 83.3758 14.0197 83.0763C12.951 82.4398 11.9385 81.7096 10.9824 80.8484C10.7199 80.605 10.4574 80.3616 10.1949 80.0995C6.59522 76.505 4.70162 71.8433 4.51413 67.1254C4.49538 66.6012 4.49538 66.0957 4.51413 65.5715C4.55163 64.5792 4.66413 63.6057 4.85162 62.6322C5.05785 62.0892 5.24532 61.5463 5.41405 60.9847C5.60154 60.3481 5.77028 59.7116 5.92027 59.0563C6.03276 58.5321 6.12652 58.0266 6.20152 57.4837C6.27651 56.9782 6.33275 56.454 6.37025 55.9298C6.42649 55.2933 6.44523 54.6567 6.44523 54.0015C6.44523 53.7768 6.44523 53.5521 6.44523 53.3275C6.42648 52.6348 6.37023 51.9421 6.29524 51.2494C6.25774 50.9311 6.22026 50.5941 6.16401 50.2758C6.05152 49.5644 5.92029 48.8717 5.7328 48.179C5.71406 48.0854 5.67654 47.9731 5.65779 47.8795C5.47031 47.3365 5.30156 46.7936 5.15158 46.232C4.8516 45.0712 4.66414 43.8543 4.58914 42.6187C4.57039 42.2255 4.55164 41.8324 4.55164 41.4392C4.55164 41.2894 4.55164 41.1396 4.55164 40.9899C4.66413 36.0848 6.59522 31.6103 9.72622 28.2591C10.0824 27.8847 10.4387 27.5102 10.8324 27.1545C11.5636 26.4805 12.3323 25.8814 13.1572 25.3198C13.9634 24.7769 14.8071 24.2901 15.6883 23.8782C15.932 23.7659 16.1945 23.6536 16.4382 23.5412C16.7944 23.3166 17.1319 23.0732 17.4881 22.8298C17.6943 22.68 17.9006 22.5303 18.1068 22.3805C18.7255 21.9124 19.3067 21.4069 19.8879 20.864C20.0567 20.6955 20.2254 20.5458 20.3941 20.3773C20.8441 19.9279 21.2753 19.4599 21.6691 18.9918C22.0815 18.5238 22.4565 18.037 22.8127 17.5503C23.0377 17.2507 23.2627 16.9325 23.4689 16.6142C23.8626 16.0151 24.2376 15.3973 24.5751 14.7795C24.875 14.2178 25.1563 13.6562 25.4 13.0758C25.9437 12.2895 26.5437 11.5406 27.1999 10.8479C27.5561 10.4735 27.9123 10.1178 28.2873 9.76204C31.6433 6.69168 36.0679 4.78206 40.9425 4.66973C41.0925 4.66973 41.2613 4.66973 41.4113 4.66973C41.805 4.66973 42.1799 4.66973 42.5737 4.70718C43.8298 4.78206 45.0672 4.96928 46.2484 5.28755C46.7546 5.4186 47.2795 5.56838 47.767 5.75559C47.8982 5.79304 48.0295 5.83048 48.1607 5.8492C48.8357 6.0177 49.5106 6.14875 50.2043 6.26108C50.523 6.31724 50.8605 6.35469 51.1792 6.39213C51.8729 6.46702 52.5854 6.52318 53.3166 6.54191C53.5228 6.54191 53.729 6.54191 53.9353 6.54191C54.6102 6.54191 55.2664 6.52318 55.9039 6.46702C56.4101 6.42957 56.935 6.37341 57.4412 6.29852C57.9662 6.22364 58.4724 6.13003 58.9974 6.0177C59.6536 5.86792 60.3098 5.69943 60.9472 5.51221C61.4909 5.34371 62.0346 5.1565 62.5596 4.95056C63.5345 4.76334 64.5094 4.65101 65.5031 4.61357C66.0281 4.59485 66.5343 4.59485 67.0592 4.61357C71.6339 4.78206 76.171 6.56063 79.7145 9.94926C79.827 10.0616 79.9395 10.1552 80.052 10.2675C80.3332 10.5484 80.5957 10.8292 80.8581 11.11C81.7206 12.0648 82.4518 13.0945 83.0892 14.1616C83.333 14.5922 83.5767 15.0228 83.7829 15.4534C83.8579 15.5845 83.9329 15.7155 84.0267 15.8466C84.3829 16.4457 84.7766 17.0073 85.1891 17.5877C85.4328 17.9247 85.6953 18.2804 85.9765 18.5987C86.3515 19.0667 86.7639 19.5348 87.1952 19.9654C87.3452 20.1152 87.4764 20.2649 87.6264 20.4147C88.0951 20.8827 88.5826 21.3321 89.0888 21.7439C89.4825 22.0809 89.8762 22.3992 90.2887 22.6988C90.7199 23.017 91.1511 23.3166 91.5823 23.5974C92.1448 23.9718 92.726 24.3088 93.3259 24.6271C93.8321 24.8892 94.3383 25.1513 94.8633 25.376C95.6882 25.9189 96.4569 26.5367 97.1881 27.2107C97.5631 27.5664 97.938 27.9221 98.2943 28.3153C101.407 31.6665 103.356 36.1409 103.469 41.046C103.469 41.1958 103.469 41.3456 103.469 41.4954C103.469 41.8885 103.469 42.2817 103.431 42.6748C103.356 43.9105 103.169 45.1274 102.869 46.3068C102.719 46.8685 102.55 47.4114 102.363 47.9544C102.344 48.048 102.306 48.1603 102.288 48.2539C102.119 48.9466 101.969 49.6393 101.857 50.3507C101.8 50.669 101.763 51.006 101.725 51.3243C101.65 51.9982 101.594 52.6909 101.575 53.4024C101.575 53.627 101.575 53.8517 101.575 54.0764C101.575 54.7316 101.594 55.3682 101.65 56.0047C101.688 56.5289 101.744 57.0531 101.819 57.5586C101.894 58.0828 101.988 58.607 102.1 59.1312C102.231 59.7865 102.4 60.423 102.606 61.0596C102.775 61.6212 102.963 62.1641 103.169 62.7071C103.356 63.6806 103.469 64.6541 103.506 65.6464" fill="black"/>
<path d="M102.062 62.4453C101.912 62.0521 101.762 61.659 101.631 61.2471C101.387 60.4982 101.181 59.7306 101.012 58.9443C100.975 58.7945 100.937 58.626 100.918 58.4763C100.768 57.7274 100.656 56.9598 100.6 56.1735C100.525 56.0799 100.45 55.9863 100.356 55.9114C100.093 55.6493 99.7747 55.4246 99.456 55.2374C99.2497 55.1251 99.0247 55.0315 98.7998 54.9566C98.6498 54.9004 98.4998 54.863 98.331 54.8255C98.2748 54.8255 98.2186 54.8068 98.1623 54.7881C98.1248 54.7881 98.0873 54.7881 98.0311 54.7881C97.9373 54.9004 97.8435 55.0315 97.7686 55.1625V55.2C97.7686 55.2 97.7311 55.2561 97.6936 55.2936C97.3561 55.8927 97.1499 56.5666 97.1499 57.2968C97.1499 58.5699 97.7498 59.7119 98.6873 60.442C99.0435 60.7229 99.4559 60.9475 99.9059 61.0973C99.9997 61.0973 100.093 61.1347 100.187 61.1722C100.412 61.2658 100.618 61.4343 100.731 61.659V61.6964C100.787 61.8087 100.825 61.9211 100.843 62.0521C100.843 62.1083 100.843 62.1832 100.843 62.258V62.3329C101.068 63.5124 101.2 64.7293 101.2 65.9649C101.2 72.4614 97.8436 78.1715 92.7815 81.4853L92.6689 81.5414H92.6127C92.2752 81.6912 91.9003 81.6725 91.6003 81.4853C91.1504 81.2419 90.6816 81.0921 90.1942 81.0172C88.9943 80.8487 87.7569 81.2231 86.8382 82.1405C86.3695 82.6086 86.032 83.1702 85.8445 83.7693C85.807 83.9191 85.7695 84.0689 85.732 84.1999C85.7133 84.3122 85.6945 84.4246 85.6758 84.5369C85.732 84.5743 85.7695 84.6118 85.8257 84.6492C85.8445 84.6679 85.882 84.6867 85.9008 84.7054C85.9757 84.7616 86.0508 84.799 86.1445 84.8552C86.4257 85.0237 86.7069 85.136 87.0069 85.2296C87.3631 85.3232 87.7194 85.3794 88.0944 85.3794C88.2631 85.3419 88.4318 85.3045 88.6193 85.267C89.1818 84.799 89.763 84.3684 90.3629 83.9752C90.7754 83.6944 91.1879 83.451 91.6003 83.2076C91.994 82.983 92.3877 82.7583 92.8002 82.5524C92.8939 82.4962 92.9877 82.4588 93.0814 82.4213C94.0938 81.8222 95.0688 81.1108 95.9687 80.3058C96.2499 80.0624 96.5312 79.8003 96.8124 79.5195C100.712 75.6254 102.568 70.4394 102.343 65.3284C102.306 64.3736 102.193 63.4001 102.006 62.464" fill="black"/>
<path d="M85.9437 23.3351C85.9437 23.3351 85.85 23.3913 85.8125 23.4287C85.775 23.4474 85.7375 23.4849 85.7188 23.5036C85.7188 23.6159 85.7375 23.7283 85.775 23.8406C85.775 23.9342 85.8125 24.0091 85.8312 24.1027C86 24.758 86.3562 25.3945 86.8624 25.9187C87.7624 26.8173 88.9997 27.1918 90.1621 27.0607C90.6684 27.0046 91.1746 26.8361 91.6433 26.574C91.9058 26.4242 92.2432 26.3867 92.5245 26.4616C92.5995 26.4616 92.6557 26.4991 92.7307 26.5365C92.7869 26.5552 92.8245 26.5927 92.8807 26.6114C92.9182 26.6301 92.9369 26.6488 92.9744 26.6863C97.9615 30 101.243 35.6727 101.243 42.0943C101.243 43.5546 101.074 44.9774 100.755 46.3441C100.624 46.7185 100.493 47.093 100.38 47.4861C100.38 47.5423 100.361 47.5797 100.343 47.6359C100.23 47.9542 99.9676 48.2163 99.6489 48.3286C98.1865 48.9277 97.1554 50.3505 97.1554 52.0355C97.1554 52.4474 97.2116 52.8405 97.3241 53.215C97.3428 53.2899 97.3616 53.346 97.3991 53.4209C97.4928 53.683 97.6241 53.9264 97.7553 54.1511C97.8678 54.3383 98.0178 54.5255 98.1678 54.694L98.2053 54.7501C98.2053 54.7501 98.2615 54.7501 98.2803 54.7501C98.374 54.7501 98.4678 54.7127 98.5615 54.694C98.8427 54.6191 99.1239 54.5255 99.3677 54.3944L99.4239 54.357C99.8364 54.1323 100.193 53.8515 100.511 53.5145V53.4396C100.511 52.8593 100.568 52.2602 100.624 51.6985C100.699 50.9684 100.811 50.2382 100.961 49.5081C101.055 49.04 101.168 48.5907 101.28 48.1227C101.43 47.561 101.58 47.0181 101.767 46.4939C102.049 45.3518 102.236 44.1724 102.311 42.9555C102.33 42.581 102.349 42.1879 102.349 41.8134C102.349 36.2905 99.9864 31.3293 96.2179 27.8658C95.5055 27.2105 94.7556 26.6114 93.9494 26.0685C93.6119 25.8438 93.2744 25.6379 92.9369 25.4319C92.2245 25.0201 91.4933 24.6456 90.7433 24.3274C90.6121 24.2525 90.4809 24.1589 90.3684 24.084C89.7497 23.6721 89.1497 23.2228 88.5498 22.736C88.4186 22.736 88.2686 22.7173 88.1373 22.7173C87.7811 22.7173 87.4061 22.7735 87.0499 22.8671C86.8436 22.9232 86.6374 22.9981 86.4312 23.0917C86.2625 23.1666 86.0937 23.2602 85.9437 23.3725" fill="black"/>
<path d="M86.2601 85.6597C86.1663 85.3976 86.035 85.1355 85.8851 84.8734H85.8476V84.8173C85.8476 84.8173 85.7914 84.7237 85.7539 84.6862C85.7351 84.6862 85.7164 84.6862 85.6789 84.6862C85.4726 84.6862 85.2664 84.7237 85.0601 84.7798C84.8164 84.836 84.5727 84.9109 84.3477 85.0045C84.3102 85.0045 84.2727 85.0419 84.2539 85.0419C83.879 85.2104 83.5415 85.4351 83.2228 85.7346C83.1853 85.7721 83.1478 85.8095 83.1103 85.847C81.9292 87.0264 81.6479 88.7676 82.2666 90.2278C82.3978 90.4712 82.4353 90.7521 82.3791 91.0329C82.2666 91.2201 82.1729 91.4073 82.0791 91.5945C81.9291 91.8754 81.7979 92.1562 81.6479 92.437C80.9167 93.6165 80.0356 94.7398 79.0044 95.7695C74.4672 100.3 68.1677 101.985 62.3182 100.843C62.2432 100.824 62.1869 100.787 62.1119 100.768C61.9807 100.749 61.8495 100.693 61.737 100.637C61.512 100.506 61.3433 100.319 61.2495 100.094C61.2495 100.094 61.1933 99.907 61.1745 99.8134C61.0433 99.3828 60.8183 98.9896 60.5558 98.6339C59.8246 97.6791 58.6809 97.0613 57.3873 97.0613C56.7123 97.0613 56.0749 97.2298 55.5312 97.5106C55.4 97.5855 55.2687 97.6604 55.1375 97.7353C55.0437 97.7914 54.95 97.8663 54.875 97.9412C54.875 97.9974 54.875 98.0723 54.8937 98.1284C54.8937 98.1659 54.8938 98.2033 54.9125 98.222C54.95 98.3718 54.9875 98.5403 55.025 98.6901C55.1 98.9335 55.1937 99.1581 55.325 99.3641C55.5125 99.6823 55.7374 99.9819 55.9812 100.244C56.0749 100.338 56.1687 100.431 56.2624 100.506C57.0498 100.581 57.8373 100.693 58.606 100.843C58.7747 100.881 58.9247 100.899 59.0934 100.937C59.8246 101.236 60.5558 101.48 61.3245 101.686C61.7182 101.798 62.1307 101.891 62.5244 101.966C63.4806 102.154 64.4555 102.266 65.4117 102.303C70.53 102.509 75.7046 100.675 79.6043 96.7617C79.848 96.5184 80.0918 96.275 80.3167 96.0129C81.0854 95.1704 81.7416 94.2717 82.3229 93.3357C82.6041 92.7366 82.904 92.1562 83.2415 91.5945C83.2978 91.5009 83.3541 91.3886 83.4103 91.295C83.6165 90.958 83.8228 90.6397 84.0477 90.3027C84.4602 89.7036 84.8914 89.1045 85.3789 88.5429C85.7351 88.1123 86.1101 87.7004 86.5038 87.2885L86.5413 87.2511C86.5788 86.783 86.5225 86.315 86.3913 85.8657C86.3726 85.7908 86.3538 85.7159 86.3163 85.6597" fill="black"/>
<path d="M55.3203 10.4361C55.9202 10.7731 56.5952 10.9791 57.3264 10.9791C58.6013 10.9791 59.7449 10.38 60.4761 9.44387C60.7761 9.06944 61.0011 8.63884 61.1511 8.1708C61.1511 8.1708 61.1886 8.0023 61.226 7.92741C61.3198 7.70275 61.4885 7.49681 61.6948 7.36576C61.826 7.29087 61.976 7.23471 62.126 7.21599L62.2385 7.17854C68.088 6.03652 74.3875 7.72148 78.9247 12.2521C80.0683 13.3942 81.0433 14.6485 81.812 15.9965C82.0369 16.3896 82.2619 16.7828 82.4682 17.1947C82.4682 17.2321 82.5057 17.2508 82.5244 17.2883L82.4682 17.1947C82.4682 17.1947 82.3556 17.0075 82.3181 16.9326C82.3931 17.1572 82.4119 17.4193 82.3181 17.644C82.3181 17.644 82.2619 17.8125 82.2057 17.8874C81.6432 19.3289 81.9244 21.0139 83.0868 22.1746C83.3493 22.4367 83.6305 22.6614 83.9493 22.8299C84.0243 22.8673 84.0993 22.9235 84.193 22.961C84.4555 23.092 84.7367 23.1856 85.0179 23.2418C85.2429 23.2979 85.4679 23.3167 85.6929 23.3354C85.7116 23.3354 85.7304 23.3354 85.7679 23.3354C85.7679 23.3167 85.8054 23.2979 85.8054 23.2792C85.8616 23.1856 85.9366 23.092 85.9741 22.9984C86.1241 22.755 86.2366 22.4742 86.3116 22.2121V22.1746C86.4616 21.7253 86.5178 21.2573 86.4803 20.7892L86.4428 20.7518C86.0304 20.3212 85.6366 19.8719 85.2617 19.4038C84.793 18.8235 84.343 18.2244 83.9493 17.6253C83.6868 17.2321 83.4431 16.839 83.2181 16.4458L83.1618 16.3335C82.9181 15.9216 82.6931 15.491 82.4682 15.0604C81.8495 14.012 81.137 13.0197 80.312 12.0836C80.0683 11.8028 79.8059 11.522 79.5246 11.2599C75.6249 7.36576 70.4316 5.51231 65.3132 5.73697C64.3571 5.77442 63.3821 5.88675 62.4447 6.07396C62.051 6.14885 61.6573 6.24246 61.2823 6.33607C60.4949 6.54201 59.7074 6.80411 58.9575 7.10366C58.8075 7.1411 58.6575 7.15982 58.5075 7.19727C57.7763 7.34704 57.0264 7.44065 56.2577 7.51553C56.1452 7.60914 56.0515 7.68403 55.9577 7.79636C55.6952 8.05846 55.4702 8.35801 55.3015 8.67628C55.189 8.8635 55.0953 9.06944 55.039 9.27538C54.9828 9.44387 54.9265 9.63109 54.889 9.81831C54.889 9.87447 54.8703 9.93064 54.8516 9.9868C54.8516 10.0242 54.8516 10.0617 54.8516 10.1179C54.9266 10.174 55.0015 10.2302 55.0765 10.2863C55.1703 10.3425 55.264 10.3987 55.3578 10.4548" fill="black"/>
<path d="M54.1788 97.6791C53.935 97.5293 53.6726 97.3982 53.4101 97.2859C53.3351 97.2672 53.2788 97.2298 53.2038 97.211C52.8289 97.0987 52.4352 97.0425 52.0227 97.0425C50.3353 97.0425 48.8729 98.091 48.3105 99.5887C48.198 99.8695 47.9918 100.094 47.7293 100.225C47.8605 100.188 47.1856 100.431 46.6794 100.562C45.217 100.937 43.6796 101.124 42.1047 101.124C35.5802 101.124 29.8619 97.7727 26.5434 92.6804C26.356 92.3434 26.3372 91.9315 26.5059 91.5945C26.5059 91.5945 26.5434 91.5009 26.5809 91.4635C26.8059 91.0329 26.9559 90.5648 27.0121 90.0968C27.1059 89.3666 27.0122 88.599 26.6934 87.9251C26.5059 87.4945 26.2247 87.1013 25.8873 86.7456C25.5123 86.3712 25.0623 86.0716 24.5936 85.8844C24.4811 85.8282 24.3499 85.7908 24.2374 85.7533C24.0874 85.7159 23.9562 85.6785 23.8062 85.641C23.6937 85.6223 23.5812 85.6036 23.4687 85.5848C23.4312 85.641 23.3937 85.6785 23.3562 85.7346C23.3374 85.7721 23.3187 85.7908 23.2999 85.8282C23.2062 85.9593 23.1312 86.1091 23.0562 86.2401C22.775 86.8018 22.625 87.4009 22.625 88.0187C22.625 88.2433 22.625 88.468 22.6812 88.6926C23.1125 89.2169 23.5249 89.7411 23.8999 90.3027C24.1624 90.6771 24.4249 91.0703 24.6498 91.4447C24.8748 91.9128 25.1185 92.3621 25.3623 92.7927C25.4935 93.0361 25.6435 93.2607 25.7935 93.5041C29.1682 98.7649 35.0553 102.247 41.7672 102.247C42.161 102.247 42.5359 102.247 42.9109 102.21C44.1295 102.135 45.3107 101.948 46.4544 101.667C46.9606 101.498 47.4855 101.33 48.0105 101.199C48.0292 101.199 48.048 101.199 48.0855 101.199C48.5355 101.086 48.9667 100.974 49.4354 100.88C50.1666 100.731 50.9165 100.618 51.6665 100.543C52.2289 100.487 52.7914 100.45 53.3538 100.431H53.4101C53.7663 100.113 54.0475 99.7572 54.2725 99.3453C54.2725 99.3266 54.31 99.2891 54.31 99.2704C54.4412 99.0083 54.535 98.7462 54.61 98.4654C54.61 98.4092 54.6475 98.3343 54.6475 98.2782C54.6475 98.222 54.6662 98.1658 54.685 98.1284L54.6287 98.091C54.4787 97.9599 54.31 97.8288 54.1225 97.7165" fill="black"/>
<path d="M23.2978 85.604C23.2978 85.3981 23.2603 85.1922 23.2041 84.9862C23.1478 84.7054 23.0541 84.4246 22.9228 84.1625C22.8854 84.1063 22.8666 84.0314 22.8291 83.9752C22.6416 83.6383 22.4166 83.3013 22.1166 83.0204C20.7855 81.6912 18.7232 81.504 17.1858 82.4588C15.3859 81.5789 13.6986 80.3994 12.1987 78.9017C7.66154 74.371 5.97416 68.0805 7.11782 62.2393C7.15532 62.1644 7.17408 62.0896 7.19283 62.0147C7.21158 61.8836 7.26781 61.7526 7.32406 61.6402C7.4553 61.4156 7.6428 61.2471 7.86778 61.1535C7.86778 61.1535 8.03651 61.0973 8.149 61.0786C8.59896 60.9288 9.01142 60.7041 9.36764 60.4233C10.3051 59.6932 10.905 58.5699 10.905 57.2781C10.905 56.5479 10.6988 55.8552 10.3613 55.2748C10.3051 55.2187 10.2301 55.1438 10.1738 55.0876C10.0801 54.994 9.9676 54.8817 9.87386 54.7881C9.81761 54.7881 9.76137 54.7881 9.70513 54.8255C9.55514 54.863 9.3864 54.9004 9.23642 54.9566C9.01143 55.0315 8.78644 55.1251 8.58021 55.2374C8.24273 55.4246 7.94276 55.6493 7.68028 55.9114C7.58654 55.9863 7.51154 56.0799 7.43654 56.1735C7.36155 56.9598 7.24906 57.7274 7.11782 58.4763C7.08033 58.626 7.06157 58.7945 7.02407 58.9443C6.7241 59.6932 6.46164 60.442 6.25541 61.2284C6.14291 61.6215 6.04915 62.0334 5.97416 62.4265C5.78668 63.3814 5.6742 64.3362 5.6367 65.291C5.43047 70.402 7.26782 75.5692 11.1675 79.482C12.7049 81.0172 14.4485 82.2528 16.3234 83.1515C16.3046 83.1702 16.2671 83.2077 16.2484 83.2264C16.6608 83.4698 17.0733 83.7506 17.4858 84.0127C18.0107 84.3684 18.5169 84.7616 19.0232 85.1547C20.0356 85.4168 21.0667 85.5853 22.0979 85.6789H22.1354C22.3979 85.6228 22.6604 85.5853 22.9228 85.5853C23.0353 85.5853 23.1478 85.5853 23.2416 85.5853" fill="black"/>
<path d="M22.8875 21.3322C22.925 21.4445 22.9812 21.5568 23.0375 21.6692C23.0937 21.8002 23.1687 21.9313 23.2624 22.0623C23.2624 22.0998 23.2999 22.1185 23.3187 22.1559C23.3749 22.2308 23.4312 22.3057 23.4874 22.3993C23.5812 22.3993 23.6749 22.3806 23.7687 22.3619C24.5561 22.2308 25.2873 21.8564 25.906 21.2573C26.9372 20.2276 27.2746 18.786 26.9559 17.4755C26.8809 17.1759 26.7872 16.8951 26.6372 16.633C26.6372 16.633 26.5247 16.4645 26.5059 16.3709C26.4122 16.1275 26.3935 15.8654 26.4685 15.622C26.506 15.5097 26.5435 15.3974 26.6184 15.285C26.6747 15.1727 26.7309 15.0417 26.7872 14.9293C30.1244 10.0804 35.7302 6.89772 42.0672 6.89772C43.6608 6.89772 45.1982 7.10366 46.6794 7.47809C47.1856 7.60914 47.673 7.75892 48.1418 7.92741C48.0105 7.88997 47.8793 7.85253 47.7668 7.81508C47.973 7.90869 48.1417 8.03974 48.273 8.22696C48.3667 8.35801 48.4417 8.52651 48.4605 8.695C49.0979 10.043 50.4666 10.9791 52.0602 10.9791C52.4352 10.9791 52.7914 10.9229 53.1289 10.8293C53.2226 10.8106 53.2976 10.7731 53.3913 10.7544C53.6726 10.6608 53.9351 10.5297 54.1788 10.38C54.3663 10.2676 54.5537 10.1179 54.7225 9.96808L54.7787 9.93064C54.7787 9.93064 54.7787 9.87447 54.7787 9.85575C54.76 9.74342 54.7412 9.63109 54.7037 9.53748C54.6287 9.25665 54.5163 8.99455 54.385 8.73245V8.695C54.1413 8.28313 53.8601 7.90869 53.5038 7.60914H53.4476C52.8476 7.60914 52.2477 7.55298 51.6665 7.49681C50.9165 7.42193 50.1853 7.3096 49.4541 7.15982C49.0042 7.06621 48.5355 6.97261 48.1042 6.84155H48.0293C47.5231 6.69178 47.0356 6.54201 46.5481 6.37351C45.3857 6.07396 44.1858 5.88675 42.9484 5.81186C42.5734 5.79314 42.1985 5.77441 41.8047 5.77441C36.3114 5.77441 31.3806 8.09591 27.9121 11.8215C27.2746 12.5142 26.6934 13.2444 26.1497 14.012C25.8873 14.3864 25.6435 14.7796 25.4185 15.1727C24.9873 15.9029 24.6124 16.6705 24.2749 17.4568C24.2749 17.4568 24.2186 17.5317 24.1999 17.5878C23.7499 18.2618 23.2437 18.9358 22.7188 19.5723C22.7188 19.7034 22.7188 19.8344 22.7188 19.9655C22.7188 20.3399 22.775 20.6956 22.8687 21.0513C22.8875 21.1449 22.925 21.2198 22.9625 21.3134" fill="black"/>
<path d="M6.81789 48.0478C6.93038 48.4971 7.0429 48.9651 7.13664 49.4332C7.28663 50.1446 7.38036 50.8748 7.4741 51.6236C7.53034 52.204 7.56784 52.7844 7.58658 53.3835V53.4583C7.90531 53.7953 8.26154 54.0949 8.674 54.3008L8.73025 54.3383C8.99273 54.4693 9.25522 54.5629 9.53645 54.6378C9.63019 54.6565 9.72392 54.6753 9.81766 54.694C9.83641 54.694 9.8739 54.694 9.89265 54.694L9.93015 54.6378C10.0801 54.4693 10.2114 54.2821 10.3426 54.0949C10.3614 54.0574 10.3801 54.02 10.3989 54.0013C10.4551 53.9077 10.4926 53.8141 10.5489 53.7205C10.5864 53.6268 10.6426 53.5145 10.6801 53.4209C10.6801 53.3835 10.6988 53.346 10.7176 53.3086C10.7176 53.2524 10.7551 53.215 10.7738 53.1588C10.8863 52.7844 10.9426 52.3912 10.9426 51.9793C10.9426 51.8857 10.9426 51.8108 10.9426 51.7172C10.8676 50.4442 10.1739 49.3396 9.18022 48.6656C9.14272 48.6281 9.08646 48.6094 9.04897 48.5907C8.97397 48.5533 8.89899 48.4971 8.82399 48.4597H8.76775C8.76775 48.4597 8.61777 48.366 8.54278 48.3286H8.48651C8.48651 48.3286 8.31779 48.235 8.24279 48.2163H8.20529C8.20529 48.2163 8.01781 48.1414 7.94281 48.1227C7.88657 47.9916 7.84908 47.8606 7.81159 47.7295C7.73659 47.5985 7.69908 47.4674 7.68033 47.3176C7.60534 47.093 7.54908 46.8496 7.49284 46.6062C7.11787 45.1459 6.91164 43.6107 6.91164 42.0194C6.91164 35.6165 10.1739 29.9813 15.1235 26.6488C15.6485 26.4242 16.1734 26.1621 16.6796 25.8813C16.7171 25.8625 16.7546 25.8251 16.8109 25.8064C17.1108 25.6753 17.4483 25.6566 17.7483 25.8064C19.2107 26.4616 20.9918 26.1808 22.1917 24.9826C22.4542 24.7205 22.6791 24.4397 22.8479 24.1214C22.9416 23.9716 23.0166 23.8219 23.0729 23.6534C23.0916 23.5972 23.1291 23.5223 23.1479 23.4662V23.4287C23.1479 23.4287 23.2041 23.3164 23.2228 23.2415C23.2416 23.1666 23.2604 23.0917 23.2791 23.0168C23.2791 22.9607 23.3166 22.8858 23.3166 22.8296C23.3353 22.6798 23.3541 22.5301 23.3728 22.3803C23.3728 22.3616 23.3728 22.3428 23.3728 22.3054C23.2603 22.2305 23.1479 22.1556 23.0354 22.0807V22.1556C23.0354 22.1556 23.0166 22.0995 23.0166 22.062C23.0166 22.062 22.9791 22.062 22.9791 22.0433C22.7542 21.9122 22.5104 21.8186 22.2479 21.7438H22.2104C21.7605 21.594 21.2918 21.5378 20.823 21.5753L20.7856 21.6127C20.4668 21.9123 20.1294 22.2118 19.7919 22.4926C19.0982 23.073 18.3857 23.6159 17.6358 24.1027C17.5608 24.1401 17.5046 24.1963 17.4296 24.2337C17.0733 24.3835 16.7171 24.552 16.3609 24.7205C15.611 25.0949 14.8985 25.5068 14.2236 25.9561C13.4174 26.4991 12.6674 27.0982 11.955 27.7534C8.18654 31.2169 5.82422 36.1782 5.82422 41.7011C5.82422 42.0943 5.82423 42.4687 5.86172 42.8431C5.93672 44.06 6.12422 45.2395 6.40545 46.3815C6.59293 46.9057 6.74291 47.43 6.8929 47.9729" fill="black"/>
<path d="M11.8842 51.9982C11.8842 51.9982 11.8842 52.1293 11.8842 52.2042C12.2966 52.354 12.7466 52.4476 13.2341 52.4663C13.2716 52.4663 13.3091 52.4663 13.3466 52.4663C13.4216 52.4663 13.4778 52.4663 13.5528 52.4663C19.2523 52.4101 24.6707 51.0996 29.5265 48.8156C30.164 48.516 30.8014 48.1977 31.4201 47.8607C31.4389 48.2165 31.5514 48.5535 31.7201 48.8343C32.1138 49.5083 32.845 49.9576 33.6887 49.9763L35.9948 50.4069L37.9446 50.7439L43.3817 51.6987L46.4752 52.2416L46.6814 52.2791C46.8877 52.3165 47.0939 52.3352 47.3189 52.3352H47.3564C48.1251 52.3352 48.8375 52.1293 49.475 51.7923C49.9062 51.5489 50.2999 51.2307 50.6374 50.8562C51.0874 50.332 51.4248 49.7142 51.5748 49.0215C51.5936 48.9092 51.6123 48.8156 51.6311 48.7032C51.6686 48.4786 51.6873 48.2539 51.6873 48.0292C51.6873 47.5799 51.6123 47.1306 51.4811 46.7374C51.4436 46.6251 51.4061 46.5128 51.3686 46.4192C50.7311 44.8465 49.175 43.7232 47.3564 43.7232C47.2064 43.7232 47.0377 43.7232 46.8877 43.742L37.8134 43.9666H37.2697L36.1635 44.0041H35.9385C35.9385 44.0041 35.826 44.0041 35.7698 44.0041C35.3761 43.9292 35.0386 43.6484 34.9074 43.2739V43.2365C34.9074 43.2365 34.8699 43.1803 34.8511 43.1616C35.1136 42.9182 35.4698 42.5812 35.9198 42.1319C36.0323 42.0196 36.1635 41.8885 36.2947 41.7575C36.6135 41.4392 36.951 41.0835 37.3259 40.6903C37.4759 40.5406 37.6259 40.3721 37.7759 40.2036C38.5821 39.3236 39.482 38.2939 40.4382 37.0958C41.0006 36.3843 41.5818 35.6167 42.1818 34.793C42.5755 34.2501 42.9692 33.6884 43.3629 33.108C44.1129 33.1829 44.8816 33.2765 45.6128 33.4263C45.8003 33.4637 46.0065 33.5012 46.194 33.5386H46.3065L47.2814 33.782C47.8063 33.9505 48.3688 34.0067 48.95 33.9318C50.2812 33.7633 51.3686 32.9583 51.9685 31.8537C51.9873 31.8162 52.006 31.7788 52.0248 31.7413C52.3622 31.0674 52.5122 30.281 52.3998 29.476C52.1935 27.9034 51.0873 26.649 49.6625 26.1997C49.4562 26.1248 49.2312 26.0874 49.0062 26.0499C48.6688 25.9938 48.2938 25.9938 47.9376 26.0499H47.9189C47.7314 26.0687 47.5626 26.1061 47.3751 26.1623V26.1248C47.5814 25.7317 47.7876 25.3385 47.9751 24.9266C49.0438 22.6239 50.0187 20.1339 50.8061 17.4567C50.8999 17.1571 50.9936 16.8389 51.0686 16.5393C51.3873 15.9777 51.5748 15.3411 51.5936 14.6671C51.5936 14.6671 51.5936 14.5174 51.5936 14.4612C51.5936 14.4238 51.5936 14.3676 51.5936 14.3301C51.5748 13.5064 51.3123 12.7575 50.8999 12.1023C50.8249 11.9712 50.7311 11.8589 50.6374 11.7465C49.7375 11.4844 48.95 10.9602 48.3313 10.2675C47.9938 10.1739 47.6376 10.1365 47.2814 10.1365C46.8502 10.1365 46.4377 10.1926 46.044 10.3237C44.4129 10.8105 43.1942 12.2146 42.988 13.937V14.068C42.988 14.1804 42.988 14.274 42.988 14.3863C42.988 14.4799 42.988 14.5922 42.988 14.6859C43.0067 14.9105 43.0442 15.1352 43.063 15.3598C43.1942 16.7452 43.213 18.0932 43.1567 19.3663C43.1567 19.4037 43.1567 19.4599 43.1567 19.4973C43.1005 20.8079 42.9505 22.0622 42.7442 23.2604C42.7442 23.354 42.7067 23.4663 42.688 23.5599C42.463 24.702 42.1818 25.8066 41.8631 26.8363C41.6568 27.4915 41.4318 28.1468 41.1881 28.7646C40.4194 28.9705 39.6508 29.1577 38.8633 29.2701C38.3384 29.3637 37.8321 29.4198 37.3072 29.476L34.7574 29.7194L34.0262 29.8317C34.0637 29.1577 34.1012 28.4838 34.1387 27.8285C34.2324 26.3869 34.3262 25.0015 34.4387 23.691C34.8886 23.6348 35.3386 23.5787 35.7698 23.5225H35.9385C37.7384 23.3353 39.9695 23.2417 40.4944 23.2417C41.0006 23.223 41.4506 22.9983 41.7693 22.6613C41.9006 22.5115 42.0131 22.3618 42.0881 22.1745C42.1818 21.9686 42.2193 21.7439 42.2193 21.5006C42.2193 21.3695 42.2193 21.2572 42.1818 21.1448C42.163 21.0325 42.1256 20.9389 42.0881 20.8453C41.8256 20.2275 41.2256 19.7969 40.5132 19.7969V19.7594C40.2882 19.7594 37.6634 19.7033 34.8511 19.385C34.9824 18.1868 35.0761 17.2882 35.1323 16.8014C35.1698 16.5393 35.1699 16.4083 35.1699 16.4083C35.1699 15.4534 34.4012 14.6859 33.445 14.6859C32.4888 14.6859 31.7201 15.4534 31.7201 16.4083C31.6264 17.2507 31.5514 18.0558 31.4576 18.8608C30.3702 18.6174 29.414 18.3366 28.7204 17.9622C28.7204 17.9622 28.6453 17.9247 28.5891 17.906C28.3829 17.8124 28.1766 17.7375 27.9517 17.6813C27.9517 17.7188 27.9517 17.7375 27.9517 17.7749C27.9517 17.8498 27.9704 17.906 27.9704 17.9809C27.9704 18.1868 27.9892 18.3553 27.9892 18.5238C27.9892 18.5238 27.9892 18.5612 27.9892 18.58C27.9892 18.6361 27.9892 18.711 27.9892 18.7672C27.9892 18.8046 27.9892 18.8421 27.9892 18.8795C27.9892 18.9357 27.9892 18.9918 27.9892 19.048C27.9892 19.0855 27.9892 19.1416 27.9892 19.1791C27.9892 19.2352 27.9892 19.2914 27.9704 19.3476C27.9704 19.385 27.9704 19.4412 27.9517 19.4786C27.9517 19.5348 27.9329 19.5909 27.9142 19.6284C27.9142 19.6658 27.8954 19.722 27.8767 19.7594C27.8767 19.8156 27.8579 19.8531 27.8392 19.9092C27.8392 19.9654 27.8017 20.0028 27.8017 20.059C27.8017 20.1152 27.7642 20.1526 27.7454 20.2088C27.7454 20.2649 27.7079 20.3024 27.6892 20.3585C27.6892 20.396 27.6517 20.4521 27.6329 20.4896C27.6142 20.5458 27.5954 20.5832 27.5767 20.6394C27.5579 20.6768 27.5392 20.733 27.5204 20.7704C27.5017 20.8266 27.4642 20.864 27.4454 20.9202C27.4267 20.9576 27.408 20.9951 27.3705 21.0512C27.333 21.1074 27.3142 21.1448 27.2767 21.201C27.258 21.2385 27.2205 21.2759 27.2017 21.3133C27.1642 21.3695 27.1267 21.407 27.0892 21.4631C27.0705 21.5006 27.033 21.538 27.0142 21.5567C26.9767 21.6129 26.9205 21.6691 26.883 21.7065C26.8643 21.7252 26.8455 21.7627 26.808 21.7814C26.733 21.8563 26.6768 21.9312 26.6018 22.006C25.9268 22.68 25.1019 23.1294 24.1832 23.3166V23.354C24.127 23.6161 24.0332 23.8782 23.9395 24.1216V24.159C24.6519 25.0015 25.7393 25.5257 26.9392 25.5257C27.5205 25.5257 28.0829 25.3947 28.5891 25.17L29.6203 24.7956C29.9765 24.6645 30.4265 24.5335 30.9139 24.4024C30.7827 25.7878 30.6702 27.0796 30.5577 28.3153C30.5015 29.0267 30.4452 29.7194 30.389 30.3747C28.1954 30.5432 26.0018 30.3747 23.8457 29.9066L22.7958 29.682C22.2709 29.5135 21.6896 29.4573 21.0897 29.5322C18.9149 29.813 17.3587 31.8162 17.64 33.9879C17.9212 36.1784 19.9085 37.7136 22.1021 37.4327C22.6833 37.3579 23.227 37.1519 23.6957 36.8711L24.6707 36.3656C26.3768 35.4857 28.1954 34.8491 30.0702 34.4373C30.014 35.1487 29.9765 35.8227 29.9203 36.4405C29.864 37.3579 29.8078 38.2003 29.7515 38.9305C29.6578 40.4844 29.6015 41.6077 29.564 42.263C26.2643 43.7607 20.8085 45.7452 16.3276 44.9776C16.3088 44.9776 16.2713 44.9776 16.2526 44.9776H16.1401C15.4464 44.3785 14.5652 44.0228 13.609 43.9666C13.609 43.9666 13.4778 43.9666 13.4028 43.9666H13.3653C13.3653 43.9666 13.2153 43.9666 13.1403 43.9666H13.1028C11.2842 44.079 9.76558 45.3333 9.25937 46.9995C9.20312 47.2242 9.14687 47.4301 9.10938 47.6735C9.31561 47.7859 9.54059 47.8982 9.72808 48.0292C11.0967 48.9466 11.9029 50.4631 11.9029 52.1106L11.8842 51.9982ZM33.8762 33.9692V33.9318L34.9074 33.8382L35.2636 33.8007L35.6011 33.7633H35.6386L37.7759 33.4076C38.1696 33.3514 38.5821 33.2952 38.9758 33.2391C38.4883 34.0628 37.9821 34.8117 37.4759 35.4857C36.4447 36.8898 35.4323 38.0318 34.6074 38.8743C34.4012 39.0803 34.2137 39.2675 34.0262 39.4547C34.0074 39.2488 33.9887 39.0241 33.9699 38.7994C33.9137 37.9195 33.8762 36.9647 33.8575 35.9537C33.8575 35.8414 33.8575 35.7291 33.8575 35.6167C33.8575 35.0738 33.8575 34.5309 33.8575 33.9879" fill="black"/>
</svg>
