<svg width="166" height="25" viewBox="0 0 166 25" fill="none" xmlns="http://www.w3.org/2000/svg">
<path d="M28.3777 14.9264H35.3032L34.6138 23.7717H41.017L42.8136 0.751099H36.4105L35.7628 9.05395H28.8374L29.485 0.751099H23.0714L21.2852 23.7717H27.6883L28.3777 14.9264Z" fill="black"/>
<path d="M9.10694 18.7752C7.655 18.7752 6.4433 17.9721 6.5791 16.3344H0.0296749C-0.356814 21.3516 3.05891 24.3348 8.69956 24.3348C14.3402 24.3348 18.132 21.7271 18.5185 16.6995C18.9258 11.4424 14.5805 10.3159 11.2483 9.43974C9.11739 8.89734 7.41475 8.45925 7.5192 7.15541C7.60277 6.08105 8.7309 5.59081 9.85903 5.59081C11.1752 5.59081 12.2093 6.27923 12.0944 7.7291H18.4662C18.8318 3.04571 15.8862 0.208557 10.35 0.208557C4.81378 0.208557 1.37716 2.8058 1.02201 7.34316C0.614632 12.5898 4.79289 13.6016 8.06238 14.4361C10.2142 14.968 11.9795 15.3852 11.8646 16.8351C11.7706 18.0868 10.444 18.7961 9.10694 18.7961V18.7752Z" fill="black"/>
<path d="M107.704 18.2643H98.9927L99.2643 14.8221H106.837L107.234 9.6172H99.6612L99.9328 6.22722H108.362L108.791 0.751099H94.031L92.2344 23.7717H107.276L107.704 18.2643Z" fill="black"/>
<path d="M161.999 23.8029C164.193 23.8029 165.906 22.0818 165.906 19.8705C165.906 17.6592 164.234 15.9903 162.02 15.9903C159.805 15.9903 158.113 17.7218 158.113 19.8914C158.113 22.061 159.805 23.7925 161.999 23.7925V23.8029ZM162.02 16.71C163.837 16.71 165.154 18.066 165.154 19.8705C165.154 21.675 163.796 23.0832 161.999 23.0832C160.202 23.0832 158.876 21.6855 158.876 19.8914C158.876 18.0973 160.202 16.71 162.02 16.71Z" fill="black"/>
<path d="M51.5974 20.027H59.7659L60.7478 23.7716H67.7464L60.2882 0.740601H54.0835L43.2305 23.7716H50.041L51.6079 20.027H51.5974ZM56.6113 7.92736L58.6065 15.062H53.5299L56.6113 7.92736Z" fill="black"/>
<path d="M161.464 20.8093H162.227L163.031 22.0506H164.18L163.24 20.6111C163.762 20.3712 164.044 19.9123 164.044 19.2864C164.044 18.3581 163.344 17.7635 162.174 17.7635H160.305V22.0506H161.454V20.8093H161.464ZM161.454 18.6084H162.101C162.624 18.6084 162.916 18.8483 162.916 19.2864C162.916 19.7245 162.613 19.954 162.101 19.954H161.454V18.6189V18.6084Z" fill="black"/>
<path d="M28.3777 14.9264H35.3032L34.6138 23.7716H41.017L42.8136 0.740601H36.4105L35.7628 9.05388H28.8374L29.485 0.740601H23.0714L21.2852 23.7716H27.6883L28.3777 14.9264Z" fill="black"/>
<path d="M76.8707 16.7205H79.1792L82.3755 23.7717H89.4681L85.5406 15.3958C87.9222 14.0294 89.489 11.7138 89.7084 8.89748C90.0844 4.08893 86.7418 0.751099 81.7697 0.751099H71.7732L69.9766 23.7821H76.3275L76.8811 16.7309L76.8707 16.7205ZM77.675 6.38368H80.5789C82.3546 6.38368 83.2948 7.43718 83.1799 8.87662C83.065 10.3161 81.9577 11.38 80.182 11.38H77.2781L77.6646 6.38368H77.675Z" fill="black"/>
<path d="M143.24 24.168C150.594 24.168 156.433 19.057 156.986 12.0893C157.529 5.11112 152.484 0.010498 145.13 0.010498C137.777 0.010498 131.927 5.15284 131.384 12.0893C130.841 19.0361 135.855 24.168 143.24 24.168ZM144.765 4.61044C148.943 4.61044 151.847 7.64578 151.502 12.0893C151.158 16.5223 147.773 19.5681 143.595 19.5681C139.417 19.5681 136.513 16.5327 136.857 12.0893C137.202 7.65621 140.587 4.61044 144.754 4.61044H144.765Z" fill="black"/>
<path d="M9.10694 18.7752C7.655 18.7752 6.4433 17.9721 6.5791 16.3344H0.0296749C-0.356814 21.3516 3.05891 24.3348 8.69956 24.3348C14.3402 24.3348 18.132 21.7271 18.5185 16.6995C18.9258 11.4424 14.5805 10.3159 11.2483 9.43974C9.11739 8.89734 7.41475 8.45925 7.5192 7.15541C7.60277 6.08105 8.7309 5.59081 9.85903 5.59081C11.1752 5.59081 12.2093 6.2688 12.0944 7.7291H18.4662C18.8318 3.04571 15.8862 0.208557 10.35 0.208557C4.81378 0.208557 1.37716 2.8058 1.02201 7.34316C0.614632 12.5898 4.79289 13.6016 8.06238 14.4361C10.2142 14.968 11.9795 15.3852 11.8646 16.8351C11.7706 18.0868 10.444 18.7961 9.10694 18.7961V18.7752Z" fill="black"/>
<path d="M122.617 24.168C126.085 24.168 129.114 23.0936 131.433 21.1222C130.483 19.8392 129.783 18.3789 129.355 16.8143C127.641 18.6397 125.605 19.568 123.275 19.568C118.898 19.568 116.026 16.491 116.371 12.0892C116.715 7.68744 120.058 4.61037 124.445 4.61037C126.743 4.61037 128.613 5.51785 130.034 7.24935C130.692 5.65345 131.611 4.20358 132.749 2.94146C130.744 1.04307 127.923 0 124.539 0C117.258 0 111.451 5.03803 110.897 12.0788C110.343 19.1195 115.368 24.1575 122.617 24.1575V24.168Z" fill="black"/>
<path d="M107.704 18.2642H98.9927L99.2643 14.8221H106.837L107.234 9.61713H99.6612L99.9328 6.22715H108.362L108.791 0.740601H94.031L92.2344 23.7716H107.276L107.704 18.2642Z" fill="black"/>
</svg>
