<svg width="148" height="148" viewBox="0 0 148 148" fill="none" xmlns="http://www.w3.org/2000/svg">
<path d="M51.8166 56.0654L59.9492 47.9328C60.7987 47.0833 60.7987 45.7069 59.9492 44.8588C59.0997 44.0093 57.7233 44.0093 56.8752 44.8588L48.7426 52.9914C47.8931 53.8409 47.8931 55.2173 48.7426 56.0654C49.5921 56.9149 50.9685 56.9149 51.8166 56.0654Z" fill="black"/>
<path d="M61.5742 55.8774C60.7246 55.0279 59.3482 55.0279 58.5002 55.8774L50.3676 64.01C49.5181 64.8595 49.5181 66.2359 50.3676 67.0839C51.2171 67.9335 52.5935 67.9335 53.4416 67.0839L61.5742 58.9513C62.4237 58.1018 62.4237 56.7254 61.5742 55.8774Z" fill="black"/>
<path d="M67.926 59.6263L59.7934 67.7589C58.9439 68.6084 58.9439 69.9848 59.7934 70.8328C60.6429 71.6824 62.0193 71.6824 62.8673 70.8328L71 62.7002C71.8495 61.8507 71.8495 60.4743 71 59.6263C70.1504 58.7768 68.774 58.7768 67.926 59.6263Z" fill="black"/>
<path d="M81.4171 60.0436H81.3964C81.059 60.0376 80.7363 59.897 80.504 59.6514L58.19 36.1771C57.7194 35.6813 57.7297 34.8998 58.2137 34.4159L73.3866 19.2666C73.6264 19.0268 73.9816 18.8966 74.2909 18.8981C74.6298 18.9025 74.9525 19.0416 75.1878 19.2873L97.6853 42.8134C98.1618 43.3122 98.15 44.101 97.6572 44.5835L82.3022 59.681C82.0654 59.9133 81.7486 60.0421 81.4186 60.0421L81.4171 60.0436ZM60.8644 35.3305L81.4467 56.9844L95.0006 43.6585L74.2524 21.9617L60.8629 35.3305H60.8644Z" fill="black"/>
<path d="M81.4143 60.0436C80.7409 60.0436 80.1815 59.5108 80.1563 58.8314C80.1282 58.1358 80.6714 57.5498 81.3685 57.5231L91.9016 57.1161L102.968 43.2855L81.0414 20.3929L77.6833 23.6962C77.1889 24.1861 76.3912 24.1787 75.9013 23.6829C75.4129 23.1871 75.4189 22.3879 75.9161 21.8995L80.1845 17.6978C80.4242 17.461 80.7173 17.3485 81.0873 17.3352C81.4247 17.3411 81.7473 17.4802 81.9797 17.723L105.555 42.3368C105.993 42.7927 106.024 43.5031 105.629 43.9974L93.5133 59.1408C93.2854 59.4264 92.9421 59.5981 92.5765 59.6129L81.4676 60.0421C81.4513 60.0421 81.4351 60.0421 81.4173 60.0421L81.4143 60.0436Z" fill="black"/>
<path d="M86.0976 42.0689C85.7483 42.0689 85.4005 41.9357 85.1341 41.6693C84.6013 41.1365 84.6013 40.2737 85.1341 39.7409L93.1808 31.6986C94.3796 30.5013 95.1063 28.9872 95.2262 27.4377C95.3416 25.968 94.8888 24.6419 93.9534 23.7066C93.0166 22.7697 91.6698 22.3183 90.2223 22.4308C88.6713 22.5507 87.1572 23.2774 85.9599 24.4747L78.1352 32.295C77.6024 32.8263 76.741 32.8278 76.2082 32.295C75.6754 31.7622 75.6754 30.8994 76.2082 30.3666L84.033 22.5463C85.6906 20.8887 87.8144 19.8837 90.0122 19.7135C92.2825 19.53 94.3737 20.27 95.8818 21.7796C97.39 23.2877 98.1226 25.3731 97.9464 27.6508C97.7748 29.8486 96.7669 31.9709 95.1093 33.627L87.0625 41.6708C86.7961 41.9372 86.4468 42.0704 86.099 42.0704L86.0976 42.0689Z" fill="black"/>
<path d="M23.9755 128.066C23.9755 128.537 23.8541 128.96 23.6114 129.335C23.3701 129.709 23.0135 130.003 22.5473 130.215C22.0796 130.427 21.5246 130.533 20.8852 130.533C20.1156 130.533 19.4837 130.388 18.9849 130.098C18.6312 129.89 18.3426 129.611 18.1206 129.262C17.9001 128.914 17.7891 128.575 17.7891 128.245C17.7891 128.054 17.8557 127.89 17.9874 127.754C18.1206 127.618 18.2908 127.55 18.495 127.55C18.6623 127.55 18.8014 127.603 18.9168 127.709C19.0323 127.815 19.1299 127.973 19.2113 128.182C19.3105 128.43 19.4185 128.636 19.5325 128.803C19.6479 128.969 19.8093 129.107 20.0194 129.215C20.2281 129.323 20.5019 129.376 20.8408 129.376C21.3085 129.376 21.6889 129.266 21.9804 129.05C22.272 128.833 22.4185 128.56 22.4185 128.236C22.4185 127.977 22.3401 127.767 22.1832 127.607C22.0248 127.446 21.8206 127.323 21.5734 127.239C21.3233 127.154 20.9903 127.063 20.5715 126.968C20.012 126.838 19.5443 126.684 19.1684 126.509C18.7925 126.333 18.4921 126.095 18.2715 125.793C18.051 125.491 17.94 125.115 17.94 124.665C17.94 124.215 18.0569 123.857 18.2908 123.524C18.5231 123.191 18.8606 122.935 19.3031 122.756C19.7456 122.577 20.2666 122.488 20.863 122.488C21.3425 122.488 21.754 122.547 22.1033 122.666C22.4525 122.784 22.7411 122.942 22.972 123.138C23.2014 123.335 23.3687 123.54 23.4752 123.756C23.5833 123.972 23.6351 124.183 23.6351 124.388C23.6351 124.576 23.5685 124.745 23.4367 124.895C23.3035 125.045 23.1378 125.121 22.9395 125.121C22.7589 125.121 22.6227 125.077 22.528 124.986C22.4333 124.896 22.3327 124.748 22.2231 124.544C22.0811 124.249 21.9109 124.021 21.7125 123.857C21.5157 123.691 21.196 123.61 20.7579 123.61C20.3509 123.61 20.0224 123.699 19.7737 123.878C19.5236 124.057 19.3993 124.271 19.3993 124.523C19.3993 124.68 19.4407 124.813 19.5266 124.927C19.6124 125.04 19.7279 125.137 19.8773 125.219C20.0268 125.3 20.1763 125.364 20.3287 125.41C20.4812 125.455 20.7328 125.522 21.0821 125.611C21.5216 125.713 21.9183 125.827 22.2735 125.951C22.6287 126.074 22.9321 126.225 23.1822 126.403C23.4308 126.58 23.6262 126.804 23.7653 127.075C23.9044 127.345 23.9755 127.677 23.9755 128.071V128.066Z" fill="black"/>
<path d="M27.1694 127.185V123.442C27.1694 123.124 27.2405 122.884 27.384 122.726C27.5261 122.566 27.7156 122.486 27.9494 122.486C28.1832 122.486 28.3875 122.566 28.531 122.726C28.6731 122.884 28.7456 123.124 28.7456 123.442V127.27C28.7456 127.705 28.793 128.069 28.8922 128.36C28.9898 128.653 29.1615 128.878 29.4102 129.04C29.6573 129.201 30.0051 129.281 30.4506 129.281C31.0663 129.281 31.5014 129.118 31.756 128.79C32.0105 128.462 32.1393 127.967 32.1393 127.301V123.442C32.1393 123.12 32.2103 122.881 32.3509 122.723C32.493 122.566 32.6824 122.486 32.9192 122.486C33.156 122.486 33.3485 122.566 33.495 122.723C33.643 122.881 33.7155 123.12 33.7155 123.442V127.185C33.7155 127.793 33.6563 128.301 33.5379 128.708C33.4195 129.115 33.1945 129.472 32.866 129.781C32.5818 130.043 32.2518 130.234 31.8773 130.354C31.5029 130.474 31.0633 130.534 30.5616 130.534C29.9622 130.534 29.4486 130.469 29.0165 130.341C28.5843 130.212 28.2321 130.012 27.9583 129.741C27.686 129.47 27.4862 129.124 27.3589 128.701C27.2301 128.279 27.168 127.773 27.168 127.185H27.1694Z" fill="black"/>
<path d="M40.2887 127.37H38.8457V129.574C38.8457 129.889 38.7717 130.129 38.6237 130.29C38.4743 130.453 38.2878 130.535 38.0613 130.535C37.8245 130.535 37.6321 130.453 37.4871 130.293C37.3406 130.132 37.2695 129.897 37.2695 129.584V123.586C37.2695 123.24 37.3494 122.991 37.5078 122.843C37.6676 122.695 37.9192 122.621 38.2671 122.621H40.2887C40.8867 122.621 41.3484 122.667 41.6696 122.759C41.9863 122.847 42.2631 122.994 42.4954 123.2C42.7263 123.405 42.9024 123.657 43.0223 123.953C43.1437 124.25 43.2029 124.585 43.2029 124.956C43.2029 125.748 42.9587 126.349 42.4703 126.758C41.9819 127.166 41.2537 127.37 40.2887 127.37ZM39.9069 123.803H38.8442V126.182H39.9069C40.2784 126.182 40.5877 126.143 40.8378 126.065C41.0879 125.986 41.2789 125.859 41.4076 125.683C41.5393 125.507 41.6044 125.275 41.6044 124.987C41.6044 124.644 41.5038 124.364 41.3011 124.148C41.0746 123.919 40.6084 123.803 39.9054 123.803H39.9069Z" fill="black"/>
<path d="M51.4954 123.836H47.9449V125.747H51.2157C51.4554 125.747 51.636 125.8 51.7544 125.908C51.8728 126.016 51.932 126.158 51.932 126.336C51.932 126.513 51.8743 126.657 51.7574 126.768C51.6404 126.88 51.4599 126.935 51.2157 126.935H47.9449V129.149H51.6182C51.8654 129.149 52.0519 129.207 52.1777 129.322C52.305 129.436 52.3671 129.59 52.3671 129.781C52.3671 129.972 52.305 130.114 52.1777 130.23C52.0533 130.344 51.8654 130.401 51.6182 130.401H47.3336C46.9903 130.401 46.7446 130.326 46.5936 130.173C46.4427 130.021 46.3672 129.775 46.3672 129.435V123.584C46.3672 123.358 46.4012 123.173 46.4678 123.029C46.5344 122.886 46.641 122.781 46.7831 122.716C46.9266 122.65 47.1101 122.616 47.3321 122.616H51.4924C51.744 122.616 51.932 122.673 52.0534 122.784C52.1747 122.895 52.2354 123.041 52.2354 123.222C52.2354 123.402 52.1747 123.553 52.0534 123.664C51.932 123.775 51.744 123.832 51.4924 123.832L51.4954 123.836Z" fill="black"/>
<path d="M57.5853 127.073H57.0332V129.572C57.0332 129.901 56.9607 130.144 56.8172 130.299C56.6706 130.455 56.4827 130.533 56.2488 130.533C55.9972 130.533 55.8033 130.452 55.6657 130.289C55.5281 130.126 55.457 129.888 55.457 129.572V123.584C55.457 123.244 55.534 122.998 55.6864 122.846C55.8389 122.693 56.0831 122.618 56.4235 122.618H58.9883C59.3405 122.618 59.6439 122.633 59.8955 122.662C60.1471 122.693 60.3736 122.754 60.5749 122.846C60.8205 122.948 61.0351 123.094 61.2216 123.287C61.4081 123.479 61.5517 123.7 61.6494 123.953C61.747 124.206 61.7959 124.474 61.7959 124.757C61.7959 125.337 61.6331 125.801 61.306 126.148C60.9774 126.494 60.4831 126.741 59.8156 126.886C60.0953 127.034 60.3632 127.253 60.6178 127.543C60.8724 127.833 61.1003 128.143 61.2986 128.47C61.4984 128.797 61.6538 129.093 61.7663 129.356C61.8787 129.62 61.9335 129.802 61.9335 129.901C61.9335 130 61.9009 130.105 61.8358 130.206C61.7707 130.307 61.6804 130.386 61.5679 130.444C61.454 130.503 61.3223 130.533 61.1757 130.533C60.9981 130.533 60.8487 130.492 60.7288 130.409C60.6089 130.326 60.5068 130.221 60.4195 130.093C60.3307 129.966 60.2137 129.778 60.0657 129.53L59.4338 128.479C59.2074 128.094 59.0046 127.799 58.827 127.598C58.6479 127.397 58.4659 127.258 58.2824 127.185C58.0988 127.111 57.8665 127.073 57.5867 127.073H57.5853ZM58.4866 123.803H57.0317V125.942H58.4452C58.8226 125.942 59.1422 125.909 59.3997 125.843C59.6573 125.778 59.8541 125.667 59.9903 125.508C60.1264 125.351 60.196 125.134 60.196 124.857C60.196 124.641 60.1412 124.452 60.0302 124.287C59.9207 124.123 59.7698 124 59.5729 123.919C59.3909 123.84 59.0268 123.802 58.4851 123.802L58.4866 123.803Z" fill="black"/>
<path d="M71.2442 123.442V129.106H74.441C74.6955 129.106 74.8909 129.168 75.027 129.293C75.1632 129.417 75.2298 129.572 75.2298 129.76C75.2298 129.948 75.1632 130.107 75.0285 130.225C74.8938 130.344 74.6985 130.403 74.441 130.403H70.6344C70.291 130.403 70.0454 130.327 69.8944 130.175C69.7434 130.022 69.668 129.777 69.668 129.436V123.444C69.668 123.126 69.7405 122.886 69.8826 122.727C70.0261 122.568 70.2141 122.488 70.4479 122.488C70.6818 122.488 70.8771 122.568 71.0251 122.724C71.1717 122.883 71.2442 123.121 71.2442 123.444V123.442Z" fill="black"/>
<path d="M82.9507 129.521L82.5793 128.544H79.415L79.0435 129.541C78.9 129.931 78.7742 130.194 78.6721 130.33C78.5699 130.466 78.4012 130.535 78.1689 130.535C77.9705 130.535 77.7959 130.462 77.6435 130.317C77.491 130.172 77.4141 130.008 77.4141 129.824C77.4141 129.718 77.4318 129.608 77.4673 129.496C77.5029 129.383 77.5621 129.225 77.6435 129.023L79.6341 123.971C79.6903 123.826 79.7584 123.653 79.8398 123.448C79.9182 123.246 80.0026 123.077 80.0943 122.942C80.1846 122.807 80.303 122.698 80.4495 122.615C80.5961 122.532 80.7766 122.491 80.9927 122.491C81.2088 122.491 81.3953 122.532 81.5418 122.615C81.6898 122.698 81.8082 122.806 81.897 122.936C81.9873 123.068 82.0642 123.207 82.1264 123.358C82.1871 123.509 82.2655 123.709 82.3617 123.96L84.3952 128.982C84.5536 129.364 84.6335 129.642 84.6335 129.815C84.6335 129.988 84.558 130.16 84.4071 130.311C84.2561 130.462 84.0755 130.537 83.8639 130.537C83.7396 130.537 83.633 130.515 83.5457 130.471C83.4569 130.426 83.3829 130.367 83.3237 130.29C83.263 130.215 83.1994 130.098 83.1298 129.94C83.0603 129.783 83.0011 129.644 82.9522 129.524L82.9507 129.521ZM79.8294 127.36H82.1545L80.9823 124.148L79.8309 127.36H79.8294Z" fill="black"/>
<path d="M89.6922 123.432L92.7232 128.018V123.389C92.7232 123.087 92.7869 122.862 92.9171 122.713C93.0474 122.562 93.2205 122.486 93.4396 122.486C93.6586 122.486 93.8451 122.562 93.9768 122.713C94.1085 122.864 94.1722 123.089 94.1722 123.389V129.509C94.1722 130.191 93.8895 130.533 93.3226 130.533C93.182 130.533 93.0533 130.512 92.9408 130.471C92.8268 130.431 92.7218 130.366 92.6226 130.278C92.5234 130.19 92.4317 130.086 92.3473 129.968C92.263 129.849 92.1771 129.728 92.0928 129.604L89.1357 125.07V129.63C89.1357 129.928 89.0662 130.153 88.9285 130.305C88.7909 130.457 88.6148 130.533 88.3987 130.533C88.1826 130.533 87.9961 130.456 87.8614 130.302C87.7268 130.148 87.6602 129.925 87.6602 129.63V123.627C87.6602 123.373 87.6883 123.173 87.7445 123.028C87.8111 122.87 87.9236 122.739 88.079 122.637C88.2344 122.537 88.4031 122.486 88.5837 122.486C88.7243 122.486 88.8471 122.51 88.9478 122.556C89.0484 122.602 89.1372 122.664 89.2127 122.742C89.2896 122.821 89.3666 122.921 89.4465 123.044C89.5264 123.168 89.6078 123.297 89.6937 123.432H89.6922Z" fill="black"/>
<path d="M98.7252 122.619H100.779C101.314 122.619 101.771 122.67 102.154 122.769C102.536 122.868 102.884 123.053 103.195 123.325C104.006 124.019 104.411 125.075 104.411 126.49C104.411 126.957 104.371 127.384 104.29 127.768C104.209 128.155 104.083 128.502 103.914 128.812C103.744 129.121 103.526 129.399 103.26 129.642C103.051 129.83 102.822 129.979 102.576 130.093C102.328 130.206 102.061 130.286 101.777 130.332C101.493 130.378 101.172 130.401 100.813 130.401H98.7592C98.4721 130.401 98.256 130.358 98.111 130.271C97.9674 130.184 97.8727 130.062 97.8268 129.904C97.7824 129.747 97.7617 129.543 97.7617 129.291V123.584C97.7617 123.244 97.8372 122.998 97.9896 122.846C98.1421 122.693 98.3892 122.618 98.7282 122.618L98.7252 122.619ZM99.335 123.867V129.149H100.529C100.793 129.149 100.997 129.142 101.145 129.128C101.294 129.114 101.448 129.078 101.608 129.022C101.767 128.966 101.904 128.886 102.021 128.784C102.548 128.337 102.813 127.57 102.813 126.479C102.813 125.711 102.696 125.137 102.465 124.755C102.233 124.373 101.947 124.129 101.608 124.025C101.268 123.92 100.856 123.869 100.375 123.869H99.335V123.867Z" fill="black"/>
<path d="M107.707 129.572V123.441C107.707 123.123 107.78 122.883 107.925 122.725C108.068 122.565 108.256 122.485 108.487 122.485C108.718 122.485 108.916 122.565 109.063 122.722C109.211 122.88 109.283 123.118 109.283 123.441V129.572C109.283 129.895 109.209 130.136 109.063 130.295C108.916 130.455 108.725 130.534 108.487 130.534C108.249 130.534 108.074 130.453 107.926 130.293C107.78 130.132 107.707 129.892 107.707 129.574V129.572Z" fill="black"/>
<path d="M114.946 123.432L117.977 128.018V123.389C117.977 123.087 118.041 122.862 118.171 122.713C118.301 122.562 118.474 122.486 118.693 122.486C118.913 122.486 119.099 122.562 119.231 122.713C119.362 122.864 119.426 123.089 119.426 123.389V129.509C119.426 130.191 119.143 130.533 118.577 130.533C118.436 130.533 118.307 130.512 118.195 130.471C118.081 130.431 117.976 130.366 117.877 130.278C117.777 130.19 117.686 130.086 117.601 129.968C117.517 129.849 117.431 129.728 117.347 129.604L114.39 125.07V129.63C114.39 129.928 114.32 130.153 114.182 130.305C114.045 130.457 113.869 130.533 113.653 130.533C113.437 130.533 113.25 130.456 113.115 130.302C112.981 130.148 112.914 129.925 112.914 129.63V123.627C112.914 123.373 112.942 123.173 112.998 123.028C113.065 122.87 113.178 122.739 113.333 122.637C113.488 122.537 113.657 122.486 113.838 122.486C113.978 122.486 114.101 122.51 114.202 122.556C114.302 122.602 114.391 122.664 114.467 122.742C114.544 122.821 114.621 122.921 114.7 123.044C114.78 123.168 114.862 123.297 114.948 123.432H114.946Z" fill="black"/>
<path d="M130.105 127.237V128.729C130.105 128.927 130.086 129.086 130.047 129.204C130.007 129.322 129.936 129.429 129.833 129.525C129.727 129.62 129.594 129.713 129.431 129.8C128.961 130.055 128.506 130.241 128.071 130.358C127.638 130.475 127.163 130.534 126.649 130.534C126.051 130.534 125.506 130.443 125.015 130.258C124.524 130.074 124.103 129.806 123.757 129.457C123.409 129.106 123.143 128.681 122.958 128.183C122.771 127.684 122.68 127.127 122.68 126.51C122.68 125.893 122.771 125.351 122.951 124.848C123.131 124.347 123.397 123.92 123.747 123.57C124.098 123.219 124.524 122.951 125.027 122.766C125.529 122.579 126.098 122.488 126.735 122.488C127.259 122.488 127.724 122.559 128.126 122.698C128.53 122.838 128.859 123.013 129.109 123.226C129.36 123.438 129.55 123.663 129.677 123.9C129.804 124.136 129.868 124.348 129.868 124.532C129.868 124.73 129.794 124.899 129.649 125.038C129.501 125.178 129.325 125.248 129.121 125.248C129.007 125.248 128.899 125.221 128.794 125.168C128.69 125.115 128.601 125.041 128.53 124.944C128.336 124.64 128.172 124.41 128.037 124.255C127.903 124.099 127.722 123.968 127.494 123.863C127.265 123.756 126.973 123.703 126.621 123.703C126.269 123.703 125.93 123.765 125.644 123.891C125.357 124.017 125.113 124.199 124.909 124.438C124.706 124.677 124.55 124.97 124.442 125.316C124.333 125.662 124.281 126.047 124.281 126.467C124.281 127.381 124.49 128.084 124.909 128.575C125.329 129.066 125.913 129.313 126.662 129.313C127.028 129.313 127.368 129.266 127.689 129.17C128.011 129.074 128.335 128.938 128.663 128.761V127.497H127.442C127.149 127.497 126.926 127.453 126.776 127.364C126.625 127.275 126.551 127.126 126.551 126.913C126.551 126.74 126.614 126.596 126.739 126.482C126.867 126.37 127.035 126.312 127.251 126.312H129.039C129.258 126.312 129.445 126.331 129.597 126.371C129.75 126.41 129.872 126.497 129.966 126.63C130.06 126.765 130.106 126.966 130.106 127.236L130.105 127.237Z" fill="black"/>
<path d="M117.288 90.9741C117.185 90.4531 117.106 89.9928 116.997 89.5399C116.901 89.1433 116.91 88.7911 117.265 88.5247C117.636 88.2479 118.054 88.0955 118.487 88.316C119.279 88.72 119.751 89.4215 120.118 90.2059C120.247 90.4812 120.154 90.721 120.059 90.9711C120.263 90.9844 120.487 91.0125 120.71 91.0125C123.584 91.0155 126.457 91.0125 129.331 91.0155C130.267 91.0155 130.641 91.5557 130.29 92.4437C130.221 92.6213 129.988 92.7945 129.796 92.8492C129.538 92.9247 110.479 92.8892 110.301 92.8936C109.379 92.9188 109.205 93.0979 109.199 94.0332C109.181 96.9266 109.221 99.82 109.134 102.712C109.033 106.033 108.478 109.283 107.251 112.394C107.091 112.798 106.909 113.198 106.69 113.572C106.363 114.133 105.961 114.256 105.386 114.029C104.784 113.791 104.679 113.547 104.853 112.86C105.16 111.654 105.565 110.46 105.73 109.233C106.029 107 106.291 104.75 106.366 102.5C106.473 99.3523 106.394 96.1999 106.397 93.049C106.397 91.5468 106.933 91.017 108.445 91.017C111.141 91.017 113.836 91.017 116.531 91.0155C116.763 91.0155 116.995 90.9933 117.29 90.977L117.288 90.9741Z" fill="black"/>
<path d="M18.929 101.587C17.4875 101.605 17.4505 100.893 17.6888 99.7165C17.7302 99.5138 17.9167 99.1941 18.2763 99.1852C18.4599 99.1808 18.7559 99.1823 18.9527 99.1823C26.7567 99.1808 34.5623 99.1808 42.3663 99.1823C43.3623 99.1823 43.6435 99.4294 43.6598 100.306C43.6776 101.3 43.4141 101.569 42.4018 101.569C38.4591 101.571 22.8096 101.537 18.929 101.587Z" fill="black"/>
<path d="M88.3177 103.818C89.7237 103.818 91.1312 103.815 92.5372 103.818C93.7168 103.821 94.3177 104.43 94.3206 105.62C94.3236 106.889 94.3265 108.155 94.3191 109.424C94.3132 110.418 93.813 111.044 92.8421 111.074C90.8041 111.138 88.7632 111.136 86.7238 111.141C85.7144 111.142 84.7036 111.129 83.6972 111.067C82.8935 111.016 82.3519 110.507 82.3208 109.698C82.266 108.237 82.2527 106.77 82.3134 105.309C82.3519 104.367 83.0179 103.831 83.9784 103.822C85.4243 103.809 86.8703 103.819 88.3177 103.819V103.818ZM88.3118 109.371C89.2427 109.371 90.1737 109.371 91.1046 109.371C91.6655 109.371 91.9452 109.098 91.9408 108.531C91.9363 107.818 91.9408 107.106 91.9393 106.393C91.9393 105.887 91.6877 105.608 91.1801 105.607C89.2797 105.601 87.3779 105.601 85.4776 105.607C84.9374 105.607 84.6947 105.904 84.7021 106.437C84.711 107.111 84.6977 107.784 84.7051 108.457C84.7139 109.169 84.9063 109.362 85.6389 109.372C86.5299 109.384 87.4209 109.375 88.3118 109.372V109.371Z" fill="black"/>
<path d="M72.2093 112.294C72.0287 113.523 70.6864 114.244 69.7599 113.596C68.3509 112.61 66.9731 111.58 65.5863 110.565C65.2207 110.297 64.9854 109.965 65.2385 109.502C65.4827 109.052 65.8941 108.897 66.347 109.095C68.0979 109.866 69.8443 110.649 71.567 111.48C71.8467 111.614 72.1738 111.774 72.2093 112.294Z" fill="black"/>
<path d="M58.7109 93.1808L58.9788 92.9055C58.8871 92.9958 58.7968 93.0861 58.7109 93.1808Z" fill="black"/>
<path d="M54.5909 93.6293C54.7019 93.6322 54.8055 93.6293 54.9017 93.6174H54.0078C54.2017 93.6204 54.3971 93.6234 54.5909 93.6293Z" fill="black"/>
<path d="M66.5421 104.13C64.9955 104.137 63.4489 104.14 61.9023 104.143H66.7923C66.7183 104.134 66.6354 104.13 66.5421 104.13Z" fill="black"/>
<path d="M71.0185 88.8711C63.4497 88.8711 55.881 88.8711 48.3108 88.8711C48.1125 88.8711 47.8875 88.8637 47.7011 88.8711C47.2926 88.8874 47.2289 89.1316 47.1934 89.2973C47.0084 90.1528 47.0188 90.8617 48.2043 90.8469C50.9778 90.8129 56.9259 90.8587 57.2411 90.8765C56.6891 91.6698 56.1829 92.3299 55.7552 93.0388C55.736 93.0698 55.7167 93.0994 55.6975 93.1276L55.3897 93.6189C55.3897 93.6189 52.0153 93.616 51.1406 93.6219C49.9758 93.6293 49.2891 94.3056 49.2876 95.4704C49.2817 99.2548 49.2802 103.039 49.2876 106.823C49.2906 107.959 50.0069 108.662 51.1495 108.684C51.5964 108.693 52.0419 108.684 52.4889 108.684C52.5051 108.742 52.5214 108.798 52.5377 108.856C52.3675 109.014 52.2136 109.197 52.0227 109.328C50.5885 110.315 49.1574 111.305 47.7055 112.265C47.2778 112.548 46.9729 112.847 47.2038 113.372C47.4213 113.867 47.8224 113.978 48.3389 113.831C50.4746 113.227 52.4474 112.28 54.2515 110.994C55.2461 110.285 55.2861 109.782 54.5194 108.86C54.5031 108.841 54.5253 108.789 54.5372 108.684C54.7385 108.684 54.9486 108.684 55.1588 108.684C59.399 108.684 63.6392 108.684 67.8794 108.684C69.2528 108.684 69.9558 108.086 69.9676 106.742C70.0017 102.998 70.0002 99.2518 69.9676 95.5074C69.9573 94.2065 69.2735 93.6174 67.9697 93.616C65.5351 93.616 63.1005 93.616 60.6659 93.616H60.6673H58.2845L58.7078 93.1794C58.7937 93.0847 58.8839 92.9944 58.9757 92.9041C59.6062 92.2884 60.3047 91.7393 59.8504 90.841C60.8538 90.841 68.3841 90.835 71.1368 90.8336C71.5749 90.8336 71.9597 90.7773 72.0914 90.2445C72.3297 89.2751 72.0249 88.8696 71.014 88.8696L71.0185 88.8711ZM67.237 106.137C67.1675 106.674 66.9159 106.874 66.318 106.881C65.2287 106.895 64.1379 106.886 63.0487 106.886C59.7601 106.886 56.4701 106.886 53.1815 106.886C52.3468 106.886 52.1144 106.775 52.0597 106.138L52.0434 105.597C52.0419 105.135 52.0434 104.669 52.0434 104.145H61.9046C63.4512 104.143 64.9978 104.14 66.5444 104.131C66.6376 104.131 67.2652 104.145 67.2652 104.145V104.498C67.2859 104.595 67.24 106.138 67.24 106.138L67.237 106.137ZM67.2622 100.569V101.569C67.2622 101.569 67.2622 101.572 67.2622 101.574C67.2622 101.58 67.2622 101.586 67.2622 101.592V102.369H56.6447C56.5589 102.369 56.4715 102.369 56.3857 102.369C55.1765 102.369 53.9674 102.369 52.7582 102.369H52.0819V99.7328H67.2622C67.2622 99.7328 67.2652 100.528 67.2622 100.569ZM65.9672 95.3594C67.0373 95.3594 67.2533 95.577 67.2622 96.6426C67.2637 96.8335 67.2622 97.9672 67.2622 97.9672H52.0552C52.0552 97.2701 52.0345 96.6352 52.0833 96.0935C52.107 95.8345 52.2609 95.6554 52.5051 95.4778C52.6398 95.3801 53.0646 95.3609 53.2614 95.3609C57.4972 95.3594 61.7329 95.3594 65.9687 95.3609L65.9672 95.3594Z" fill="black"/>
<path d="M100.274 92.1626C101.02 92.1567 101.227 91.9273 101.218 91.1917C101.209 90.4606 101.005 90.2578 100.244 90.2564C96.9944 90.2534 89.9259 90.2401 89.9259 90.2401C89.9599 90.1054 89.7705 89.7472 89.698 89.6185C89.4419 89.176 89.1045 88.7675 88.7552 88.393C88.3778 87.9875 87.6349 88.0245 87.1021 88.3619C86.6018 88.6787 86.7735 89.102 86.8934 89.5238C86.9555 89.7428 87.0118 89.9618 87.0902 90.2564C86.7839 90.2564 79.9329 90.246 76.7228 90.2741C76.4194 90.2771 75.9651 90.4502 75.8437 90.6826C75.4189 91.4951 75.8526 92.1522 76.7598 92.1626C78.0874 92.1774 81.5225 92.167 81.7297 92.167C82.3172 93.4694 82.8411 94.6312 83.4154 95.9026C81.8999 95.9026 80.4939 95.8774 79.0908 95.9085C77.303 95.9499 76.674 96.6129 76.6695 98.3993C76.6636 100.599 76.6547 110.112 76.6843 112.668C76.6888 113.008 76.8042 113.489 77.0425 113.655C77.5457 114.004 78.1629 113.96 78.7445 113.704C79.2803 113.467 79.2418 113.001 79.2418 112.541C79.2418 108.141 79.2418 103.741 79.2418 99.3421C79.2418 99.0653 79.2684 98.7886 79.2832 98.5118C79.3069 98.0323 79.5985 97.7599 80.038 97.7526C81.4603 97.7259 82.8841 97.7422 84.3581 97.7422C84.2619 98.6154 83.8964 99.2992 83.3902 99.9208C82.628 100.858 81.6068 101.414 80.5161 101.861C80.0854 102.037 79.8959 102.264 80.0336 102.768C80.1919 103.351 80.5782 103.517 81.0607 103.366C81.8688 103.115 82.7035 102.866 83.4272 102.446C85.0656 101.497 86.4982 100.34 86.9467 98.3875C86.9615 98.2898 87.0192 97.8932 86.9955 97.6993H89.9881C89.9881 97.6993 89.9881 99.7579 90.0236 100.334C90.1183 101.888 90.9412 102.792 92.4967 102.941C93.5963 103.048 94.7093 103.033 95.8178 103.051C96.5933 103.063 96.8168 102.79 96.8109 101.923C96.8049 101.103 96.58 100.865 95.8237 100.849C95.0334 100.831 94.2416 100.809 93.4513 100.772C92.9451 100.748 92.6328 100.48 92.6017 99.9607C92.5647 99.3302 92.5337 98.6968 92.5485 98.0663V97.7422L93.4453 97.7363C94.5923 97.723 95.7393 97.7244 96.8863 97.7363C97.3303 97.7407 97.6441 97.9627 97.7196 98.4274C97.761 98.6805 97.7906 98.938 97.7906 99.1926C97.7951 102.918 97.7906 110.728 97.7773 110.905C97.7285 111.49 97.4221 111.814 96.8212 111.814C96.3062 111.814 95.7911 111.801 95.2761 111.784C94.6382 111.765 94.4739 111.94 94.4162 112.56C94.357 113.192 94.7374 113.449 95.2347 113.52C96.1508 113.652 97.0787 113.772 98.0023 113.779C99.3298 113.79 100.093 113.045 100.237 111.734C100.267 111.459 100.287 102.739 100.28 98.6568C100.28 98.2424 100.252 97.8236 100.181 97.4151C100.062 96.7373 99.6776 96.243 98.9939 96.0728C98.575 95.9692 98.1369 95.91 97.7048 95.904C96.2381 95.8833 94.7714 95.8981 93.3047 95.8952C93.1049 95.8952 92.9066 95.87 92.6328 95.8508C93.324 95.1996 93.9337 94.6371 94.5287 94.0599C95.0467 93.5597 95.6091 93.0654 95.1177 92.1996C95.3827 92.1833 98.7467 92.17 100.273 92.1596L100.274 92.1626ZM92.3575 92.5829C91.7137 93.6056 91.067 94.6253 90.4025 95.6347C90.3196 95.759 90.1272 95.8833 89.9851 95.8848C88.5214 95.9026 87.0562 95.8966 85.3838 95.8966C86.1312 95.1626 85.8159 94.5913 85.4045 94.0422C84.9679 93.4591 84.5135 92.8893 84.0015 92.2292H92.5929C92.5573 92.3476 92.4212 92.4823 92.3575 92.5829Z" fill="black"/>
<path d="M129.383 98.4289C130.185 98.4289 130.403 98.1995 130.378 97.3988C130.358 96.7654 130.142 96.5789 129.347 96.576C126.732 96.5686 120.516 96.573 119.933 96.573C119.933 96.0728 119.936 95.6228 119.933 95.1729C119.926 93.8764 119.656 93.6204 118.345 93.6559C118.246 93.6589 118.147 93.6663 118.049 93.6766C117.207 93.764 117.038 93.946 117.037 94.8059C117.034 97.0244 117.046 102.107 117.046 102.107C117.046 102.107 114.01 102.127 112.822 102.133C111.476 102.139 110.495 103.101 110.488 104.447C110.476 106.665 110.513 108.885 110.473 111.104C110.449 112.416 111.679 113.481 112.845 113.467C117.62 113.411 122.394 113.445 127.17 113.444C128.544 113.444 129.503 112.556 129.524 111.166C129.559 108.928 129.558 106.687 129.527 104.45C129.507 103.041 128.536 102.135 127.136 102.133C124.937 102.13 119.924 102.113 119.924 102.113L119.933 98.4171C119.933 98.4171 126.735 98.4319 129.383 98.4304V98.4289ZM125.747 104.041C126.324 104.044 126.605 104.339 126.609 104.87C126.626 106.791 126.635 108.712 126.606 110.632C126.596 111.311 126.33 111.514 125.61 111.518C123.729 111.525 121.848 111.521 119.966 111.521C118.144 111.521 116.322 111.525 114.5 111.521C113.649 111.518 113.445 111.317 113.442 110.47C113.436 108.648 113.436 106.826 113.442 105.005C113.445 104.191 113.686 103.946 114.519 103.952C118.261 103.977 122.004 104.019 125.745 104.043L125.747 104.041Z" fill="black"/>
</svg>
