<svg width="142" height="141" viewBox="0 0 142 141" fill="none" xmlns="http://www.w3.org/2000/svg">
<path d="M92.6228 91.0629C90.3903 83.1316 88.8628 80.8403 82.9878 80.8403H79.5215H79.4628H59.2528C53.3778 80.8403 51.8503 83.1316 49.559 91.1216L47.3265 101.109C46.8565 103.283 47.5615 105.574 49.2065 107.043L57.4903 114.739V128.722C57.4903 129.662 58.254 130.367 59.1353 130.367C60.0165 130.367 60.7803 129.603 60.7803 128.722V90.0054C60.7803 89.0654 60.0165 88.3603 59.1353 88.3603C58.254 88.3603 57.4903 89.1242 57.4903 90.0054V97.1141L56.844 96.4679C56.1978 95.8216 55.1403 95.8216 54.494 96.4679C53.8478 97.1141 53.8478 98.1717 54.494 98.8179L57.4903 101.814V110.215L51.439 104.575C50.6753 103.87 50.3228 102.813 50.5578 101.755L52.7315 91.8266C54.9053 84.0129 55.8453 84.0129 59.194 84.0129H79.404H79.4628H82.929C86.2778 84.0129 87.2178 84.0129 89.3915 91.7091L91.624 101.697C91.859 102.695 91.5065 103.812 90.7428 104.517L84.6915 110.157V101.638L87.5703 98.7591C88.2165 98.1129 88.2165 97.0554 87.5703 96.4091C86.924 95.7629 85.8665 95.7629 85.2203 96.4091L84.6915 96.9379V89.9466C84.6915 89.0066 83.9278 88.3016 83.0465 88.3016C82.1653 88.3016 81.4015 89.0653 81.4015 89.9466V128.663C81.4015 129.603 82.1653 130.308 83.0465 130.308C83.9278 130.308 84.6915 129.544 84.6915 128.663V114.68L92.9753 106.984C94.6203 105.457 95.3253 103.224 94.8553 101.05L92.6228 91.0629Z" fill="#333333"/>
<path d="M71.0005 115.385C70.0605 115.385 69.3555 116.149 69.3555 117.03V128.428C69.3555 129.368 70.1192 130.073 71.0005 130.073C71.8817 130.073 72.6455 129.309 72.6455 128.428V117.03C72.6455 116.09 71.9405 115.385 71.0005 115.385Z" fill="#333333"/>
<path d="M123.758 10.5752H18.2434C14.7184 10.5752 11.8984 13.454 11.8984 16.9202V63.9202C11.8984 67.4452 14.7772 70.2652 18.2434 70.2652H29.9347L41.7434 82.0739C42.2722 82.6027 42.9772 82.8964 43.6822 82.8964C44.0347 82.8964 44.3872 82.8377 44.7397 82.6615C45.7384 82.2502 46.3847 81.2514 46.3847 80.1352V70.2064H61.0722C62.8934 73.9077 66.6534 76.4339 71.0597 76.4339C75.4659 76.4339 79.2259 73.9077 81.0472 70.2064H123.876C127.401 70.2064 130.221 67.3276 130.221 63.8614V16.8614C130.162 13.4539 127.283 10.5752 123.758 10.5752ZM71.0009 73.2027C66.7122 73.2027 63.1872 69.6777 63.1872 65.389C63.1872 61.1002 66.7122 57.5752 71.0009 57.5752C75.2897 57.5752 78.8147 61.1002 78.8147 65.389C78.8147 69.6777 75.2897 73.2027 71.0009 73.2027ZM126.813 63.9202C126.813 65.624 125.462 66.9751 123.758 66.9751H81.9872C82.0459 66.4464 82.1047 65.9177 82.1047 65.389C82.1047 59.279 77.1109 54.2852 71.0009 54.2852C64.8909 54.2852 59.8972 59.279 59.8972 65.389C59.8972 65.9177 59.9559 66.4464 60.0147 66.9751H46.3259C44.5047 66.9751 43.0359 68.444 43.0359 70.2652V78.7251L32.2259 67.9152C31.5797 67.2689 30.7572 66.9751 29.8759 66.9751H18.1847C16.4809 66.9751 15.1297 65.624 15.1297 63.9202V16.9202C15.1297 15.2165 16.4809 13.8652 18.1847 13.8652H123.758C125.462 13.8652 126.813 15.2165 126.813 16.9202V63.9202Z" fill="#333333"/>
<path d="M32.5201 40.2441H26.5276C24.8239 40.2441 23.4727 41.5953 23.4727 43.2991V47.8229C23.4727 49.5266 24.8239 50.8779 26.5276 50.8779H32.5201C34.2239 50.8779 35.5751 49.5266 35.5751 47.8229V43.2991C35.5751 41.6541 34.2239 40.2441 32.5201 40.2441ZM32.2852 47.5879H26.7626V43.5341H32.2852V47.5879Z" fill="#333333"/>
<path d="M53.3756 37.0127H47.3832C45.6794 37.0127 44.3281 38.364 44.3281 40.0677V47.764C44.3281 49.4677 45.6794 50.8189 47.3832 50.8189H53.3756C55.0794 50.8189 56.4306 49.4677 56.4306 47.764V40.0677C56.4306 38.4227 55.0794 37.0127 53.3756 37.0127ZM53.1406 47.5877H47.6181V40.3027H53.1406V47.5877Z" fill="#333333"/>
<path d="M74.1725 33.4878H68.18C66.4762 33.4878 65.125 34.8391 65.125 36.5428V47.7641C65.125 49.4678 66.4762 50.819 68.18 50.819H74.1725C75.8763 50.819 77.2275 49.4678 77.2275 47.7641V36.5428C77.2862 34.8978 75.8763 33.4878 74.1725 33.4878ZM73.9375 47.5878H68.415V36.7778H73.9375V47.5878Z" fill="#333333"/>
<path d="M95.0279 26.4375H89.0354C87.3317 26.4375 85.9805 27.7888 85.9805 29.4925V47.7638C85.9805 49.4675 87.3317 50.8187 89.0354 50.8187H95.0279C96.7317 50.8187 98.083 49.4675 98.083 47.7638V29.4925C98.083 27.8475 96.7317 26.4375 95.0279 26.4375ZM94.793 47.5875H89.2705V29.7275H94.793V47.5875Z" fill="#333333"/>
<path d="M115.887 19.3877H109.895C108.191 19.3877 106.84 20.739 106.84 22.4427V47.764C106.84 49.4677 108.191 50.8189 109.895 50.8189H115.887C117.591 50.8189 118.942 49.4677 118.942 47.764V22.4427C118.942 20.7977 117.591 19.3877 115.887 19.3877ZM115.652 47.5877H110.13V22.6777H115.652V47.5877Z" fill="#333333"/>
</svg>
