<svg width="142" height="141" viewBox="0 0 142 141" fill="none" xmlns="http://www.w3.org/2000/svg">
<path d="M70.7067 56.0477C77.9329 56.0477 83.8079 50.1727 83.8079 42.9464C83.8079 35.7202 77.9329 29.8452 70.7067 29.8452C63.4804 29.8452 57.6055 35.7202 57.6055 42.9464C57.6055 50.1727 63.4804 56.0477 70.7067 56.0477ZM70.7067 33.194C76.1117 33.194 80.4592 37.6002 80.4592 42.9464C80.4592 48.2927 76.0529 52.699 70.7067 52.699C65.3604 52.699 60.9542 48.2927 60.9542 42.9464C60.9542 37.6002 65.3017 33.194 70.7067 33.194Z" fill="#333333"/>
<path d="M85.2153 80.605C86.1553 80.605 86.8603 79.8413 86.8603 78.96V73.79C86.8603 72.85 86.0966 72.145 85.2153 72.145C84.3341 72.145 83.5703 72.9088 83.5703 73.79V78.96C83.5703 79.8413 84.3341 80.605 85.2153 80.605Z" fill="#333333"/>
<path d="M58.1924 78.96V73.79C58.1924 72.85 57.4286 72.145 56.5473 72.145C55.6661 72.145 54.9023 72.9088 54.9023 73.79V78.96C54.9023 79.9 55.6661 80.605 56.5473 80.605C57.4286 80.605 58.1924 79.8413 58.1924 78.96Z" fill="#333333"/>
<path d="M29.9333 43.7689C37.1595 43.7689 43.0346 37.8939 43.0346 30.6677C43.0346 23.4414 37.1595 17.5664 29.9333 17.5664C22.707 17.5664 16.832 23.4414 16.832 30.6677C16.832 37.8939 22.707 43.7689 29.9333 43.7689ZM29.9333 20.9152C35.3383 20.9152 39.6858 25.3214 39.6858 30.6677C39.6858 36.0139 35.2795 40.4202 29.9333 40.4202C24.587 40.4202 20.1808 36.0139 20.1808 30.6677C20.1808 25.3214 24.5283 20.9152 29.9333 20.9152Z" fill="#333333"/>
<path d="M111.715 43.7689C118.941 43.7689 124.816 37.8939 124.816 30.6677C124.816 23.4414 118.941 17.5664 111.715 17.5664C104.488 17.5664 98.6133 23.4414 98.6133 30.6677C98.6133 37.8939 104.488 43.7689 111.715 43.7689ZM111.715 20.9152C117.12 20.9152 121.467 25.3214 121.467 30.6677C121.467 36.0139 117.061 40.4202 111.715 40.4202C106.368 40.4202 101.962 36.0139 101.962 30.6677C101.962 25.3214 106.31 20.9152 111.715 20.9152Z" fill="#333333"/>
<path d="M137.504 57.5752C134.86 48.2339 133.039 45.5314 126.165 45.5314H97.6128C90.7391 45.5314 88.9179 48.2339 86.2741 57.5752C86.2741 57.6339 86.2153 57.7514 86.2153 57.8101C85.8628 57.8101 85.5103 57.7514 85.099 57.7514H56.5465C56.2528 57.7514 55.9591 57.7514 55.6653 57.7514C55.6653 57.6927 55.6654 57.5752 55.6066 57.5164C52.9629 48.1752 51.1416 45.4727 44.2678 45.4727H15.7153C8.84155 45.4727 7.02034 48.1752 4.37659 57.5164C4.14159 58.3977 4.61161 59.2789 5.49286 59.5727C6.37411 59.8077 7.31405 59.3376 7.54905 58.4564C10.2516 48.8214 11.5441 48.8214 15.6566 48.8214H44.2091C48.3216 48.8214 49.6141 48.8214 52.3166 58.3389C48.6741 59.5139 47.1466 62.7452 45.0903 69.9127L42.8579 78.5489C42.6229 79.4302 43.1516 80.3114 44.0328 80.5464C44.1503 80.6052 44.3265 80.6052 44.444 80.6052C45.2078 80.6052 45.8541 80.1352 46.0303 79.3714L48.2629 70.7939C50.9654 61.1589 52.2578 61.1589 56.3703 61.1589H84.9228C89.094 61.1589 90.3278 61.1589 93.0303 70.7352L94.9104 79.3714C95.0866 80.2527 95.9678 80.8402 96.9078 80.6052C97.7891 80.4289 98.3765 79.5476 98.1415 78.6076L96.2028 69.9127C94.264 62.9214 92.7366 59.6901 89.2703 58.4564C91.9728 48.8802 93.2066 48.8802 97.3779 48.8802H125.93C130.102 48.8802 131.335 48.8802 134.038 58.5152C134.214 59.2202 134.919 59.6902 135.624 59.6902C135.8 59.6902 135.918 59.6902 136.094 59.6314C137.21 59.3964 137.739 58.4564 137.504 57.5752Z" fill="#333333"/>
<path d="M103.957 102.343L109.89 97.9952C110.889 97.2902 111.3 96.0564 110.889 94.8814C110.537 93.7064 109.479 92.9427 108.245 92.9427H100.902L98.6104 85.9514C98.2579 84.7764 97.2004 84.0127 95.9667 84.0127C94.7329 84.0127 93.6755 84.7764 93.323 85.9514L91.0317 92.9427H83.688C82.748 92.9427 82.043 93.7064 82.043 94.5877C82.043 95.4689 82.8067 96.2327 83.688 96.2327H91.4429C92.6767 96.2327 93.7341 95.4689 94.0866 94.2939L95.9667 88.4777L97.8467 94.2939C98.1992 95.4689 99.2567 96.2327 100.49 96.2327H106.6L101.665 99.8164C100.667 100.521 100.255 101.755 100.667 102.93L102.547 108.746L97.6117 105.163C96.6129 104.458 95.3204 104.458 94.3217 105.163L88.0354 109.686C87.2717 110.215 87.1542 111.273 87.6829 111.978C88.2117 112.741 89.2692 112.859 89.9742 112.33L95.908 107.983L101.842 112.33C102.312 112.683 102.899 112.859 103.487 112.859C104.074 112.859 104.662 112.683 105.132 112.33C106.13 111.625 106.542 110.391 106.13 109.216L103.957 102.343Z" fill="#333333"/>
<path d="M128.808 85.5403H121.464L119.173 78.5491C118.82 77.3741 117.763 76.6104 116.529 76.6104C115.295 76.6104 114.238 77.3741 113.885 78.5491L111.594 85.5403H104.25C103.31 85.5403 102.605 86.3041 102.605 87.1853C102.605 88.0666 103.369 88.8304 104.25 88.8304H112.005C113.239 88.8304 114.297 88.0666 114.649 86.8916L116.529 81.0754L118.409 86.8916C118.762 88.0666 119.819 88.8304 121.053 88.8304H127.163L122.228 92.4141C121.229 93.1191 120.818 94.3529 121.229 95.5279L123.109 101.344L118.174 97.7603C117.175 97.0553 115.883 97.0553 114.884 97.7603L108.598 102.284C107.834 102.813 107.717 103.87 108.245 104.575C108.774 105.339 109.832 105.457 110.537 104.928L116.47 100.58L122.404 104.928C122.874 105.28 123.462 105.457 124.049 105.457C124.637 105.457 125.165 105.28 125.694 104.928C126.693 104.223 127.104 102.989 126.693 101.814L124.402 94.8228L130.335 90.4754C131.334 89.7704 131.745 88.5366 131.334 87.3616C131.04 86.3041 129.983 85.5403 128.808 85.5403Z" fill="#333333"/>
<path d="M31.8148 102.343L25.5285 97.8189C24.5297 97.1139 23.2372 97.1139 22.2385 97.8189L17.3035 101.403L19.1835 95.5864C19.536 94.4114 19.1247 93.1777 18.1847 92.4727L13.2497 88.8889H19.3598C20.5935 88.8889 21.651 88.1252 22.0035 86.9502L23.8835 81.1339L25.7635 86.9502C26.116 88.1252 27.1735 88.8889 28.4072 88.8889H36.1623C37.1023 88.8889 37.8073 88.1252 37.8073 87.2439C37.8073 86.3627 37.0435 85.5989 36.1623 85.5989H28.8185L26.5272 78.6077C26.1747 77.4327 25.1172 76.6689 23.8835 76.6689C22.6497 76.6689 21.5922 77.4327 21.2397 78.6077L18.9485 85.5989H11.6047C10.371 85.5989 9.31351 86.3627 8.96101 87.5377C8.60851 88.7127 9.01975 89.9464 9.95975 90.6514L15.8935 94.9989L13.6022 101.99C13.2497 103.165 13.661 104.399 14.601 105.104C15.071 105.456 15.6585 105.633 16.246 105.633C16.8335 105.633 17.421 105.456 17.891 105.104L23.8248 100.756L29.7585 105.104C30.5222 105.633 31.521 105.456 32.0497 104.751C32.696 103.929 32.5785 102.871 31.8148 102.343Z" fill="#333333"/>
<path d="M52.7874 109.745L46.5012 105.221C45.5025 104.516 44.21 104.516 43.2112 105.221L38.2762 108.805L40.1562 102.989C40.5087 101.814 40.0975 100.58 39.1575 99.8751L34.2225 96.2913H40.3324C41.5662 96.2913 42.6237 95.5275 42.9762 94.3525L44.8562 88.5363L46.7362 94.3525C47.0887 95.5275 48.1462 96.2913 49.38 96.2913H57.1349C58.0749 96.2913 58.7799 95.5276 58.7799 94.6463C58.7799 93.7651 58.0162 93.0013 57.1349 93.0013H49.7912L47.5 86.01C47.1475 84.835 46.09 84.0713 44.8562 84.0713C43.6225 84.0713 42.565 84.835 42.2125 86.01L39.9212 93.0013H32.5775C31.3437 93.0013 30.2862 93.7651 29.9337 94.9401C29.5812 96.1151 29.9924 97.3488 30.9324 98.0538L36.8662 102.401L34.575 109.393C34.2225 110.568 34.6337 111.801 35.5737 112.506C36.0437 112.859 36.6312 113.035 37.2187 113.035C37.8062 113.035 38.3937 112.859 38.8637 112.506L44.7974 108.159L50.7312 112.506C51.495 113.035 52.4937 112.859 53.0225 112.154C53.7275 111.331 53.5512 110.274 52.7874 109.745Z" fill="#333333"/>
<path d="M80.1049 110.332L87.8011 104.751C88.8586 103.988 89.3286 102.577 88.9174 101.344C88.5061 100.051 87.3311 99.2287 85.9799 99.2287H76.5211L73.5836 90.24C73.1724 88.9475 71.9974 88.125 70.6461 88.125C69.2949 88.125 68.1199 88.9475 67.7086 90.24L64.7711 99.2287H55.3124C53.9611 99.2287 52.7861 100.051 52.3749 101.344C51.9636 102.636 52.3749 103.988 53.4911 104.751L61.1874 110.332L58.2499 119.321C57.8386 120.614 58.3086 121.965 59.3661 122.729C60.4236 123.492 61.8924 123.492 62.9499 122.729L70.6461 117.148L78.3423 122.729C78.8711 123.14 79.5173 123.316 80.1636 123.316C80.8098 123.316 81.3973 123.14 81.9848 122.729C83.0423 121.965 83.5123 120.555 83.1011 119.321L80.1049 110.332ZM72.4673 114.445C71.4098 113.681 69.9411 113.681 68.8836 114.445L61.6574 119.674L64.4186 111.214C64.8299 109.921 64.3599 108.57 63.3024 107.806L56.0761 102.577H65.0061C66.3573 102.577 67.5323 101.755 67.9436 100.462L70.7048 92.0025L73.4661 100.462C73.8773 101.755 75.0523 102.577 76.4036 102.577H85.3336L78.1074 107.806C77.0499 108.57 76.5799 109.98 76.9911 111.214L79.7524 119.674L72.4673 114.445Z" fill="#333333"/>
</svg>
