<svg width="132" height="131" viewBox="0 0 132 131" fill="none" xmlns="http://www.w3.org/2000/svg">
<path d="M115.478 67.02L93.9184 74.68C93.9184 74.68 99.9784 89.59 63.3684 91.87C31.3484 93.86 25.7284 80.15 25.7284 80.15H6.14844C6.14844 80.15 6.14844 87.06 13.7684 98.9C13.7684 98.9 23.7684 121.87 89.8584 112.02C128.928 106.2 115.478 67.02 115.478 67.02Z" stroke="#333333" stroke-width="4" stroke-linecap="round" stroke-linejoin="round"/>
<path d="M115.477 67.02L125.847 63.27" stroke="#333333" stroke-width="4" stroke-linecap="round" stroke-linejoin="round"/>
<path d="M73.4486 122.17C73.4486 122.17 49.4086 125.29 32.0586 118.73" stroke="#333333" stroke-width="4" stroke-linecap="round" stroke-linejoin="round"/>
<path d="M93.9198 120.29C93.9198 120.29 89.3898 122.01 82.5898 122.01" stroke="#333333" stroke-width="4" stroke-linecap="round" stroke-linejoin="round"/>
<path d="M120.66 56.9399L106.34 61.9799" stroke="#333333" stroke-width="4" stroke-linecap="round" stroke-linejoin="round"/>
<path fill-rule="evenodd" clip-rule="evenodd" d="M54.4587 53.5903C54.4587 53.5903 55.2587 49.9203 56.8987 51.7903C59.1987 55.3503 63.8087 59.6503 68.3287 60.1203C68.3287 60.1203 71.6787 59.0003 71.9587 61.9603C71.9587 61.9603 72.1587 64.3003 70.1187 63.2803C70.1187 63.2803 69.3187 66.9503 67.6787 65.0803C65.3787 61.5203 60.7687 57.2203 56.2487 56.7503C56.2487 56.7503 52.8987 57.8703 52.6187 54.9103C52.6187 54.9103 52.4187 52.5703 54.4587 53.5903Z" fill="#333333"/>
<path fill-rule="evenodd" clip-rule="evenodd" d="M70.1187 53.5903C70.1187 53.5903 69.3187 49.9203 67.6787 51.7903C65.3787 55.3503 60.7687 59.6503 56.2487 60.1203C56.2487 60.1203 52.8987 59.0003 52.6187 61.9603C52.6187 61.9603 52.4187 64.3003 54.4587 63.2803C54.4587 63.2803 55.2587 66.9503 56.8987 65.0803C59.1987 61.5203 63.8087 57.2203 68.3287 56.7503C68.3287 56.7503 71.6787 57.8703 71.9587 54.9103C71.9587 54.9103 72.1587 52.5703 70.1187 53.5903Z" fill="#333333"/>
<path fill-rule="evenodd" clip-rule="evenodd" d="M56.9168 46.4101C59.1068 48.3401 58.6368 52.0401 58.6368 52.0401H59.6768V50.5201C59.6768 50.2301 59.9068 50.0001 60.1968 50.0001C60.4868 50.0001 60.7168 50.2301 60.7168 50.5201V52.0401H61.7568V50.5201C61.7568 50.2301 61.9868 50.0001 62.2768 50.0001C62.5668 50.0001 62.7968 50.2301 62.7968 50.5201V52.0401H63.8368V50.5201C63.8368 50.2301 64.0668 50.0001 64.3568 50.0001C64.6468 50.0001 64.8768 50.2301 64.8768 50.5201V52.0401H65.9168C65.9168 52.0401 65.4468 48.3401 67.6368 46.4101C75.7768 33.6101 48.7468 33.6101 56.8868 46.4101H56.9168ZM59.0568 40.8301C60.0168 40.8301 60.7968 41.6101 60.7968 42.5701C60.7968 43.5301 60.0168 44.3101 59.0568 44.3101C58.0968 44.3101 57.3168 43.5301 57.3168 42.5701C57.3168 41.6101 58.0968 40.8301 59.0568 40.8301ZM65.5168 40.8301C66.4768 40.8301 67.2568 41.6101 67.2568 42.5701C67.2568 43.5301 66.4768 44.3101 65.5168 44.3101C64.5568 44.3101 63.7768 43.5301 63.7768 42.5701C63.7768 41.6101 64.5568 40.8301 65.5168 40.8301Z" fill="#333333"/>
<path fill-rule="evenodd" clip-rule="evenodd" d="M36.0016 27.6899H81.9016C81.9016 27.6899 101.782 60.5199 82.9516 73.9899H32.6016C32.6016 73.9899 41.1016 69.9399 40.3216 52.2799C40.3216 52.2799 39.0116 37.6299 36.0016 27.6899V27.6899Z" stroke="#333333" stroke-width="4" stroke-linecap="round" stroke-linejoin="round"/>
<path d="M61.7695 73.9902V91.3802" stroke="#333333" stroke-width="4" stroke-linecap="round" stroke-linejoin="round"/>
<path d="M62.1602 27.3V8.72998L73.5402 13.96L62.8102 18.67" stroke="#333333" stroke-width="4" stroke-linecap="round" stroke-linejoin="round"/>
</svg>
