<svg width="152" height="152" viewBox="0 0 152 152" fill="none" xmlns="http://www.w3.org/2000/svg">
<path d="M113.713 43.8976L108.683 25.1211C108.545 24.6043 108.137 24.1954 107.617 24.0555L88.8408 19.0259C88.3209 18.886 87.7661 19.035 87.3846 19.4165L80.1023 26.6988L73.0236 33.7775C72.6421 34.159 72.4947 34.7138 72.633 35.2336L77.6657 54.0071C77.804 54.527 78.2114 54.9343 78.7312 55.0727L97.5048 60.1054C97.634 60.1388 97.7677 60.154 97.8954 60.154C98.2891 60.154 98.6752 60.002 98.9609 59.7132L106.246 52.4309L113.323 45.3523C113.705 44.9707 113.855 44.4159 113.714 43.8961M104.729 49.6827L89.318 45.5544L93.9358 40.9367L109.344 45.068L104.728 49.6843L104.729 49.6827ZM87.6719 23.3943L91.8032 38.8056L87.187 43.4219L83.0556 28.0106L87.6719 23.3943ZM110.127 42.1542L94.7156 38.0259L90.5842 22.6131L105.995 26.7444L110.127 42.1557V42.1542ZM80.388 30.6767L84.5164 46.0879L79.9001 50.7042L75.7688 35.2959L80.3865 30.6782L80.388 30.6767ZM97.4455 56.9681L82.0342 52.8367L86.6504 48.2235L102.062 52.3503L97.4455 56.9681Z" fill="black"/>
<path d="M62.5493 59.5552L71.5842 50.5233C72.5281 49.5779 72.5281 48.0503 71.5842 47.1064C70.6402 46.1625 69.1141 46.1625 68.1702 47.1064L59.1353 56.1413C58.1945 57.0821 58.1945 58.6143 59.1353 59.5552C60.0762 60.4961 61.6084 60.4961 62.5493 59.5552Z" fill="black"/>
<path d="M73.3911 59.3469C72.4502 58.406 70.9181 58.406 69.9772 59.3469L60.9423 68.3818C59.9984 69.3257 59.9984 70.8518 60.9423 71.7957C61.8862 72.7396 63.4123 72.7396 64.3593 71.7957L73.3911 62.7608C74.332 61.8199 74.332 60.2878 73.3911 59.3469Z" fill="black"/>
<path d="M79.6061 63.761L70.5712 72.7958C69.6273 73.7398 69.6273 75.2689 70.5712 76.2098C71.5151 77.1537 73.0412 77.1537 73.9882 76.2098L83.02 67.1749C83.9609 66.234 83.9609 64.7049 83.02 63.761C82.0791 62.8201 80.547 62.8201 79.6061 63.761Z" fill="black"/>
<path d="M43.4041 116.611C40.5161 114.743 37.8029 112.673 35.7646 109.859C34.8085 108.542 33.9315 107.165 33.0058 105.792C33.2064 105.667 33.2885 105.605 33.3782 105.567C35.6658 104.652 37.6965 103.301 39.5767 101.737C40.4811 100.987 41.3217 100.154 42.1075 99.2803C42.7839 98.5279 42.6502 97.8728 41.8385 97.2526C41.6652 97.1219 41.4737 97.0048 41.2791 96.9091C40.5739 96.5595 40.0966 96.6826 39.5889 97.2784C38.683 98.3409 37.7999 99.4308 36.8377 100.445C35.5031 101.848 34.1078 103.229 32.2367 104.322C31.8931 104.397 32.0406 103.72 32.0907 103.208C32.2169 100.401 32.3643 97.5946 32.4814 94.7872C32.5148 94.0591 32.2959 93.8083 31.5937 93.6654C31.2502 93.597 30.8747 93.5651 30.5282 93.6122C29.5797 93.7368 29.4019 93.9892 29.376 94.9422C29.3076 97.2952 29.2453 99.6466 29.1465 101.998C28.9504 106.702 27.0763 110.674 23.6122 113.822C21.9827 115.303 20.0782 116.487 18.3271 117.838C18.0596 118.045 17.7465 118.463 17.7891 118.727C17.8483 119.078 18.1751 119.504 18.4989 119.653C18.7983 119.787 19.2954 119.688 19.6207 119.524C20.7257 118.969 21.8429 118.411 22.8659 117.722C26.8194 115.059 29.8275 111.633 31.3247 107.032C31.3505 106.955 31.4067 106.889 31.4721 106.775C31.7883 107.497 32.0603 108.16 32.3598 108.806C34.3966 113.194 37.2861 116.862 41.4418 119.457C42.4207 120.068 43.2597 119.867 43.9361 118.846C44.5456 117.923 44.3997 117.256 43.4041 116.614" fill="black"/>
<path d="M19.8388 98.6921C21.1172 101.01 22.4 103.327 23.6723 105.652C23.8927 106.059 24.1845 106.303 24.6025 106.256C26.1696 106.253 27.068 104.805 26.2563 103.577C25.2804 102.1 24.2164 100.679 23.1342 99.2757C22.5368 98.5051 21.8437 97.8074 21.1582 97.1113C20.7554 96.7009 20.2538 96.7389 19.7902 97.0581C19.3038 97.3909 19.3783 97.8241 19.6124 98.271C19.6868 98.4139 19.7628 98.5522 19.8388 98.6921Z" fill="black"/>
<path d="M96.7583 110.229C96.2217 109.812 95.7627 109.835 95.3538 110.212C94.8689 110.662 95.1379 111.1 95.4131 111.494C97.2416 114.105 99.0763 116.716 100.937 119.306C101.133 119.578 101.414 120.009 101.799 119.926C102.635 119.765 103.233 119.449 103.626 118.805C103.989 118.206 103.699 117.695 103.354 117.206C101.49 114.572 99.3164 112.22 96.7598 110.229" fill="black"/>
<path d="M80.2756 99.4673C79.733 99.4673 79.4579 99.7044 79.353 100.261C78.8559 102.878 78.3361 105.493 77.7889 108.101C77.532 109.326 77.8543 109.765 79.1174 109.752C79.7497 109.744 79.9883 109.534 80.2133 108.709C80.8988 106.18 81.1055 103.585 81.256 100.981C81.256 100.782 81.2651 100.583 81.253 100.387C81.2059 99.6938 80.9596 99.4688 80.2771 99.4673" fill="black"/>
<path d="M85.0113 103.021C85.0721 103.013 85.1329 103.007 85.1937 103C85.487 103.675 85.7561 104.359 86.0859 105.014C86.2105 105.26 86.4279 105.529 86.6711 105.629C87.1606 105.833 88.0133 105.496 88.3294 105.041C88.6684 104.555 88.524 104.074 88.2033 103.656C87.5147 102.757 86.8033 101.869 86.0768 100.996C85.9506 100.841 85.7728 100.68 85.5919 100.603C85.1845 100.521 85.0812 100.667 85.0812 100.667C85.025 100.711 85.0082 100.74 85.0082 100.74C85.0082 100.74 85.0158 96.555 85.0082 94.8587C85.0052 93.9543 84.6617 93.5408 83.7968 93.6062C82.8225 93.6837 82.479 93.629 82.4805 94.8115C82.4987 102.726 82.4896 110.644 82.4896 118.562C82.4896 118.721 82.4896 118.885 82.5063 119.037C82.5322 119.262 82.6006 119.501 82.8696 119.565C83.4335 119.698 84.0081 119.664 84.5644 119.539C85.0918 119.417 85.0098 118.858 85.0098 118.42V103.021H85.0113Z" fill="black"/>
<path d="M92.1067 97.2739L91.9258 97.2785C91.9911 97.2815 92.0519 97.2785 92.1067 97.2739Z" fill="black"/>
<path d="M103.349 106.642C102.817 106.637 102.287 106.642 101.703 106.642V105.844C101.7 103.626 101.707 101.413 101.698 99.1998C101.694 98.005 101.069 97.3454 99.8667 97.2937C98.9061 97.2557 95.9178 97.2678 95.3265 97.2678V95.3359C95.331 93.7171 95.2672 93.6548 93.6469 93.6852C92.8443 93.7019 92.5859 93.9573 92.5692 94.7766C92.5555 95.3967 92.5297 96.0154 92.5646 96.631C92.5692 96.6994 92.5692 96.7617 92.5646 96.8179C92.5677 96.9775 92.5677 97.1599 92.557 97.2633L92.1056 97.2724C92.0524 97.277 91.9916 97.28 91.9247 97.277C90.882 97.2496 89.8423 97.28 88.8026 97.2861C88.2874 97.2906 88.0502 97.5642 88.0092 98.0628C87.9408 98.9216 88.2007 99.2408 89.0519 99.2834C89.3331 99.3001 91.607 99.2879 92.595 99.2879C92.7455 101.775 92.7075 104.07 92.3655 106.642C92.0068 106.642 89.0094 106.614 87.7295 106.664C87.4316 106.677 86.9285 106.921 86.8905 107.127C86.7248 108.049 86.7689 108.729 87.9636 108.639C88.5822 108.592 91.2954 108.63 92.1877 108.63C91.9916 109.366 91.8761 109.974 91.6678 110.545C90.6023 113.456 88.8254 115.882 86.5439 117.96C86.1685 118.302 85.8538 118.656 86.2004 119.194C86.5774 119.778 87.0501 119.913 87.6915 119.592C88.0122 119.431 88.333 119.25 88.605 119.024C91.5979 116.508 93.7001 113.435 94.6486 109.647H94.6455L94.9541 108.621C94.9541 108.621 100.764 108.633 103.369 108.63C104.152 108.63 104.392 108.4 104.413 107.66C104.436 106.908 104.165 106.648 103.348 106.642M94.6486 109.636C94.682 109.516 94.7078 109.394 94.7352 109.271C94.7686 109.131 94.8082 109.016 94.8598 108.925C94.7899 109.142 94.7033 109.432 94.6486 109.636ZM98.9319 106.585H95.0909C95.1866 104.161 95.2809 101.778 95.3766 99.3122C96.3646 99.3122 97.377 99.2697 98.3817 99.3457C98.5823 99.3624 98.9015 99.8184 98.9091 100.078C98.9517 102.228 98.9319 104.38 98.9319 106.585Z" fill="black"/>
<path d="M94.6523 109.636C94.7055 109.432 94.7952 109.142 94.8636 108.925C94.812 109.016 94.7724 109.131 94.739 109.274C94.7116 109.396 94.6858 109.517 94.6523 109.638" fill="black"/>
<path d="M95.3795 99.3108C95.2838 101.779 95.1895 104.161 95.0938 106.584C95.3354 104.09 95.419 101.82 95.3795 99.3108Z" fill="black"/>
<path d="M115.324 115.193C115.858 115.383 116.296 115.242 116.521 114.731C116.753 114.204 116.958 113.661 117.101 113.102C117.772 110.46 117.997 107.757 118.089 105.049C118.176 102.598 118.179 100.145 118.219 97.6934C118.231 96.982 118.41 96.8133 119.097 96.7875C120.617 96.7221 124.647 96.5093 124.647 96.5093V96.6294C124.513 96.6415 124.425 96.672 124.373 96.6811C123.783 96.8513 123.646 97.2359 123.645 97.8408C123.64 98.578 123.633 99.3183 123.659 100.054C123.672 100.487 123.545 100.673 123.083 100.647C122.458 100.613 121.827 100.609 121.204 100.65C120.939 100.668 120.681 100.715 120.436 100.806C119.495 101.162 119.129 101.867 119.153 102.776C119.257 106.769 119.283 110.755 118.234 114.661C118.065 115.29 118.557 115.804 119.19 115.652C119.483 115.582 119.804 115.263 119.948 114.976C120.801 113.26 121.196 111.405 121.301 109.505C121.411 107.499 121.401 105.485 121.435 103.471C121.453 102.398 121.611 102.24 122.707 102.24H130.392C131.379 102.24 131.401 102.27 131.225 103.266C131.16 103.641 131.177 103.985 131.579 104.184C131.991 104.383 132.382 104.421 132.75 104.094C133.329 103.586 133.691 102.332 133.443 101.677C133.187 100.992 132.551 100.645 131.525 100.642C129.904 100.639 128.281 100.642 126.664 100.639C126.452 100.639 126.243 100.621 126.034 100.612V99.5341H126.714C128.196 99.5341 129.676 99.5372 131.158 99.5311C131.851 99.528 132.116 99.3137 132.137 98.7589C132.158 98.1692 131.885 97.9062 131.181 97.9001C129.818 97.891 128.457 97.8971 127.097 97.8971H125.984C125.996 97.1994 125.808 96.7449 125.287 96.6537C125.277 96.6537 125.013 96.6279 125.013 96.6279V96.5108C125.013 96.5108 130.172 96.2296 131.743 96.0944C132.411 96.0351 132.715 95.7174 132.683 95.2356C132.624 94.3433 132.212 93.7931 131.547 93.8204C130.974 93.8432 130.403 93.9755 129.828 94.0424C125.782 94.5288 121.736 95.0091 117.688 95.494C116.402 95.646 115.817 96.292 115.812 97.59C115.805 99.5052 115.808 101.42 115.817 103.337C115.835 106.985 115.686 110.623 114.856 114.198C114.744 114.682 114.83 115.021 115.324 115.198" fill="black"/>
<path d="M132.864 116.792C130.063 116.81 127.258 116.856 124.462 116.779C121.872 116.706 119.277 116.541 116.696 116.301C115.565 116.196 114.462 115.798 113.369 115.54C113.689 114.93 113.816 114.222 113.867 113.603C113.998 111.939 114.066 110.264 114.113 108.595C114.153 107.262 113.489 106.604 112.159 106.584C111.647 106.572 111.133 106.581 110.47 106.581C111.099 105.806 111.666 105.208 112.119 104.533C112.834 103.459 113.548 102.372 114.115 101.217C114.504 100.42 113.834 99.4962 112.958 99.4749C111.58 99.4445 110.198 99.4718 108.816 99.4627C108.266 99.4582 108.21 99.8625 108.189 100.233C108.17 100.618 108.249 101.01 108.792 101.01C109.335 101.01 109.871 101.01 110.411 101.024C111.233 101.04 111.443 101.293 111.066 102C110.347 103.352 109.544 104.66 108.771 105.988C108.611 106.262 108.401 106.511 108.26 106.794C107.854 107.622 108.337 108.391 109.251 108.397C109.71 108.402 110.171 108.388 110.63 108.402C111.356 108.425 111.599 108.671 111.604 109.385C111.612 110.3 111.56 111.221 111.616 112.136C111.59 114.099 111.154 115.198 110.09 116.412C109.608 116.962 109.025 117.431 108.467 117.911C107.913 118.384 107.79 118.733 108.085 119.177C108.398 119.644 108.888 119.784 109.441 119.434C110.415 118.814 111.368 118.156 112.279 117.449C112.668 117.146 112.989 117.063 113.417 117.254C116.427 118.593 119.623 119.086 122.876 119.163C126.316 119.242 129.759 119.182 133.202 119.191C133.729 119.194 134.047 118.934 134.138 118.449C134.39 117.09 134.035 116.782 132.866 116.789" fill="black"/>
<path d="M132.166 112.369C132.105 112.602 132.056 112.836 131.988 113.065C131.751 113.836 131.463 114.011 130.667 113.945C129.96 113.884 129.927 113.343 129.899 112.857C129.855 112.042 129.878 111.224 129.876 110.405C129.873 109.332 129.483 109.036 128.385 109.185C127.77 109.267 127.51 109.545 127.542 110.167C127.575 110.721 127.549 111.281 127.549 111.839C127.549 112.22 127.545 112.597 127.549 112.977C127.583 115.239 128.256 115.915 130.544 115.979C133.147 116.049 133.923 115.246 133.754 112.64C133.751 112.602 133.749 112.561 133.746 112.52C133.728 112.1 133.514 111.839 133.093 111.804C132.656 111.766 132.296 111.893 132.166 112.371" fill="black"/>
<path d="M123.219 110.496C123.125 111.212 122.936 111.957 122.599 112.592C122.222 113.299 121.602 113.874 121.149 114.55C120.975 114.815 120.828 115.295 120.953 115.5C121.109 115.746 121.562 115.903 121.893 115.92C122.176 115.933 122.497 115.734 122.763 115.566C124.582 114.391 125.51 112.69 125.718 110.554C125.814 109.572 125.535 109.233 124.54 109.245C123.486 109.259 123.362 109.446 123.219 110.496Z" fill="black"/>
<path d="M111.479 98.0263C111.593 98.1601 111.828 98.2649 112.003 98.2604C112.626 98.2421 113.009 97.8302 113.284 97.3286C113.532 96.8741 113.366 96.4577 112.994 96.1552C112.179 95.4879 111.343 94.8434 110.503 94.2065C110.369 94.1062 110.194 94.0424 109.949 93.9937C109.881 93.9801 109.816 93.9816 109.759 94.0165C109.547 94.1518 109.273 94.2765 109.167 94.4847C109.057 94.7005 109.089 95.1125 109.237 95.304C109.948 96.2388 110.713 97.1356 111.477 98.0248" fill="black"/>
<path d="M126.523 103.778L126.301 103.792C126.331 103.792 126.362 103.789 126.39 103.787C126.438 103.784 126.48 103.779 126.524 103.778" fill="black"/>
<path d="M131.357 108.403C131.828 108.408 132.053 108.183 132.125 107.748C132.275 106.861 132 106.537 131.073 106.535C129.633 106.528 128.192 106.54 126.753 106.526C125.982 106.522 125.795 106.288 125.879 105.433C126.359 105.394 126.85 105.344 127.344 105.309C128.3 105.234 129.258 105.169 130.211 105.091C130.621 105.058 130.799 104.828 130.805 104.416C130.817 103.726 130.64 103.521 129.921 103.559C128.785 103.615 127.654 103.697 126.525 103.776H126.52C126.476 103.78 126.431 103.784 126.387 103.786C126.356 103.789 126.327 103.79 126.297 103.79L125.8 103.824L125.812 103.313C125.821 102.872 125.505 102.668 125.075 102.671C124.775 102.674 124.465 102.671 124.186 102.706C123.832 102.758 123.607 103.079 123.613 103.269C123.613 103.295 123.61 103.32 123.61 103.348L123.613 103.345L123.599 103.98C123.599 103.98 123.005 104.027 122.681 104.041C122.023 104.071 121.827 104.278 121.845 104.859C121.859 105.439 122.084 105.642 122.723 105.652C122.962 105.657 123.26 105.645 123.581 105.645C123.602 105.914 123.553 106.137 123.576 106.351C123.705 107.531 124.585 108.374 125.776 108.388C127.638 108.414 129.497 108.391 131.359 108.402" fill="black"/>
<path d="M55.913 109.495C55.0694 109.495 54.2273 109.486 53.3867 109.498C54.2273 109.486 55.0709 109.495 55.913 109.495Z" fill="black"/>
<path d="M59.4122 108.628C59.4091 108.724 59.4091 108.818 59.4152 108.914C59.4106 108.818 59.4106 108.724 59.4122 108.628Z" fill="black"/>
<path d="M58.4835 109.498C57.6262 109.486 56.769 109.495 55.9102 109.495C56.769 109.495 57.6262 109.486 58.4835 109.498Z" fill="black"/>
<path d="M72.7611 102.22C70.7988 102.194 68.838 102.211 66.8757 102.208C66.675 102.208 66.4698 102.19 66.2251 102.177C66.8103 101.649 67.356 101.211 67.8287 100.702C68.2969 100.194 68.2057 99.6923 67.6387 99.2773C67.435 99.1253 67.2055 98.99 66.9638 98.8958C66.3604 98.6541 65.8603 98.835 65.5563 99.4126C65.3131 99.8686 65.114 100.349 64.8845 100.813C64.6367 101.31 64.5637 101.763 65.266 102.156H55.7918C56.7753 101.393 56.8193 101.027 56.0897 100.103C55.9195 99.8823 55.7097 99.6907 55.5349 99.4749C55.1291 98.9824 54.6503 99.0037 54.132 99.2499C53.6076 99.4962 53.6547 99.9522 53.7596 100.385C53.907 100.978 54.1137 101.556 54.3144 102.205C54.1031 102.205 50.7576 102.184 49.2771 102.226C48.9609 102.234 48.4897 102.386 48.3712 102.617C47.9653 103.4 48.4046 104.036 49.2771 104.071C49.4762 104.081 49.6769 104.076 49.876 104.076H69.7485C70.7881 104.076 71.8309 104.093 72.8705 104.067C73.7293 104.049 73.9497 103.746 73.8753 102.901C73.8069 102.149 73.2262 102.225 72.7611 102.217" fill="black"/>
<path d="M72.1225 105.389C70.3943 105.26 70.0644 105.417 70.0644 106.85C70.0614 109.901 70.069 112.95 70.0599 116.003C70.0553 117.017 69.727 117.367 68.7071 117.428C68.2313 117.453 67.7495 117.394 67.2722 117.393C66.7311 117.393 66.3404 117.57 66.2796 118.191C66.2158 118.832 66.3541 119.139 67.0244 119.265C67.9988 119.448 68.9913 119.612 69.9793 119.638C71.3321 119.671 72.2973 118.815 72.5481 117.502C72.6348 117.052 72.6728 116.592 72.6773 116.137C72.691 114.579 72.6865 111.471 72.6895 111.471C72.6895 109.755 72.6849 108.04 72.6925 106.324C72.6925 105.891 72.6196 105.424 72.1256 105.389" fill="black"/>
<path d="M66.8794 115.002C66.8824 112.527 66.8824 110.056 66.8824 107.581C66.8824 106.268 66.5663 105.984 65.2697 106.143C64.4595 106.242 64.3425 106.365 64.3379 107.212C64.3303 108.528 64.3288 113.834 64.341 115.169C64.3455 115.946 64.4975 116.095 65.2864 116.157C65.4475 116.171 65.6071 116.18 65.7637 116.171C66.6894 116.117 66.8809 115.918 66.8809 115.002" fill="black"/>
<path d="M59.4141 109.166C59.4172 109.156 59.4172 109.142 59.4172 109.127C59.4172 109.139 59.4172 109.153 59.4141 109.166Z" fill="black"/>
<path d="M59.0118 109.498H58.4844C58.606 109.501 58.9617 109.502 59.0118 109.498Z" fill="black"/>
<path d="M59.4141 109.165C59.4171 109.153 59.4171 109.139 59.4171 109.127C59.4217 109.052 59.4141 108.926 59.4141 108.914V109.165Z" fill="black"/>
<path d="M53.0352 109.502C53.1522 109.499 53.2692 109.499 53.3848 109.498C53.2708 109.501 53.1522 109.501 53.0352 109.502Z" fill="black"/>
<path d="M52.8711 109.498H52.8741C52.9258 109.502 52.979 109.505 53.0353 109.502C53.1523 109.499 53.2693 109.499 53.3864 109.498H52.8711Z" fill="black"/>
<path d="M59.4141 108.525C59.4141 108.491 59.4171 108.46 59.4141 108.429C59.4171 108.46 59.4141 108.491 59.4141 108.525Z" fill="black"/>
<path d="M59.4141 108.525C59.4141 108.491 59.4171 108.46 59.4141 108.429V108.525Z" fill="black"/>
<path d="M59.3945 108.052C59.3945 108.052 59.3978 108.06 59.3978 108.065C59.3978 108.06 59.3978 108.056 59.3945 108.052Z" fill="black"/>
<path d="M59.3555 107.798C59.3555 107.798 59.3587 107.806 59.3587 107.811C59.3587 107.806 59.3555 107.803 59.3555 107.798Z" fill="black"/>
<path d="M58.4883 107.256C58.5053 107.256 58.5239 107.259 58.5379 107.259C58.5239 107.259 58.5038 107.256 58.4883 107.256Z" fill="black"/>
<path d="M59.4062 108.203C59.4062 108.203 59.4097 108.208 59.4097 108.213C59.4097 108.208 59.4062 108.204 59.4062 108.203Z" fill="black"/>
<path d="M58.207 107.247C58.2678 107.247 58.3286 107.25 58.3834 107.25C58.3302 107.25 58.2694 107.247 58.207 107.247Z" fill="black"/>
<path d="M59.3203 107.695C59.3203 107.695 59.3237 107.7 59.3255 107.705C59.322 107.7 59.322 107.697 59.3203 107.695Z" fill="black"/>
<path d="M59.168 107.459C59.168 107.459 59.1715 107.463 59.1733 107.465C59.1698 107.461 59.168 107.461 59.168 107.459Z" fill="black"/>
<path d="M58.793 107.292C58.793 107.292 58.8024 107.292 58.8102 107.295C58.8024 107.292 58.7977 107.292 58.793 107.292Z" fill="black"/>
<path d="M59.0938 107.405C59.0938 107.405 59.0987 107.408 59.102 107.408C59.0987 107.408 59.097 107.405 59.0938 107.405Z" fill="black"/>
<path d="M59.0078 107.356C59.0078 107.356 59.0164 107.36 59.0181 107.361C59.0147 107.358 59.0095 107.358 59.0078 107.356Z" fill="black"/>
<path d="M59.2773 107.604C59.2773 107.604 59.2808 107.609 59.2825 107.614C59.2791 107.609 59.2791 107.606 59.2773 107.604Z" fill="black"/>
<path d="M59.2266 107.526C59.2266 107.526 59.2299 107.531 59.2315 107.535C59.2282 107.531 59.2266 107.53 59.2266 107.526Z" fill="black"/>
<path d="M58.6523 107.269C58.6615 107.272 58.6707 107.272 58.6799 107.272C58.6707 107.272 58.6615 107.272 58.6523 107.269Z" fill="black"/>
<path d="M58.9062 107.32C58.9062 107.32 58.9148 107.323 58.9165 107.323C58.9131 107.323 58.908 107.323 58.9062 107.32Z" fill="black"/>
<path d="M52.3349 108.376C52.3303 108.549 52.3319 108.745 52.3349 108.975V108.376Z" fill="black"/>
<path d="M61.9748 107.253C61.9702 106.348 61.42 105.759 60.5353 105.616C60.2784 105.573 60.0185 105.552 59.7601 105.55C57.1989 105.546 54.6362 105.546 52.075 105.553C51.7756 105.553 51.4761 105.587 51.1797 105.64C50.5763 105.748 50.1628 106.111 49.9941 106.693C49.8984 107.031 49.8649 107.399 49.8588 107.751C49.7844 111.408 50.1492 115.09 49.1657 118.692C49.0441 119.142 49.266 119.454 49.7236 119.601C50.3832 119.809 50.9502 119.615 51.2086 118.869C51.5597 117.859 51.8668 116.821 52.0324 115.766C52.0887 115.394 52.1191 115.23 52.1844 115.177C52.2103 115.155 52.2498 115.146 52.2939 115.132C52.338 115.12 52.3896 115.114 52.4535 115.114C54.732 115.111 57.0135 115.114 59.3877 115.114C59.3877 115.683 59.4272 116.18 59.3786 116.669C59.3087 117.396 58.9454 117.742 58.2173 117.788C57.702 117.823 57.1792 117.802 56.6593 117.78C56.2337 117.762 56.0361 117.972 55.989 118.37C55.9464 118.747 55.9404 119.127 56.4298 119.206C57.4482 119.366 58.4712 119.613 59.4956 119.621C60.9077 119.635 61.9611 118.625 61.9702 117.365C61.993 113.992 61.9884 110.624 61.9748 107.254M52.338 108.379V108.376C52.3653 107.294 52.6404 107.245 54.1924 107.247C55.5315 107.247 56.8691 107.242 58.2067 107.247C58.2705 107.247 58.3283 107.25 58.3845 107.25C58.4195 107.253 58.4544 107.254 58.4924 107.257C58.5061 107.257 58.5259 107.257 58.5411 107.26C58.5836 107.263 58.6186 107.268 58.6551 107.273C58.6642 107.276 58.6733 107.276 58.6824 107.276C58.7204 107.283 58.7569 107.288 58.7904 107.294C58.7949 107.297 58.7995 107.297 58.804 107.298C58.842 107.306 58.877 107.315 58.9074 107.321C58.9104 107.324 58.915 107.324 58.9165 107.324C58.95 107.336 58.9804 107.347 59.0062 107.359C59.0092 107.362 59.0138 107.362 59.0153 107.364C59.0427 107.376 59.0685 107.391 59.0928 107.408C59.0959 107.408 59.0974 107.411 59.1004 107.411C59.1232 107.425 59.1476 107.444 59.1688 107.463C59.1688 107.466 59.1719 107.466 59.1734 107.467C59.1916 107.485 59.2114 107.507 59.2296 107.528C59.2296 107.531 59.2327 107.532 59.2342 107.535C59.2509 107.557 59.2676 107.583 59.2783 107.608C59.2813 107.611 59.2813 107.613 59.2828 107.616C59.2965 107.642 59.3087 107.669 59.3208 107.7C59.3239 107.703 59.3239 107.704 59.3254 107.709C59.3376 107.736 59.3467 107.77 59.3558 107.803C59.3558 107.808 59.3588 107.811 59.3588 107.812C59.368 107.847 59.3725 107.885 59.3801 107.92V107.932C59.3877 107.972 59.3923 108.011 59.3968 108.057C59.3968 108.06 59.3999 108.064 59.3999 108.069C59.4044 108.112 59.4075 108.16 59.409 108.207C59.409 108.21 59.412 108.212 59.412 108.216C59.4151 108.268 59.4166 108.321 59.4166 108.381V108.397C59.4166 108.409 59.4166 108.42 59.4196 108.435C59.4196 108.466 59.4166 108.496 59.4166 108.53V108.92C59.4196 108.937 59.4196 108.955 59.4196 108.973C59.4242 109.007 59.4242 109.039 59.4242 109.069V109.086C59.4242 109.116 59.4212 109.145 59.4166 109.173V109.502H59.0138C58.988 109.505 58.9652 109.507 58.9393 109.507H58.9363C58.9089 109.51 58.8831 109.51 58.8527 109.507C58.7311 109.504 58.6095 109.504 58.4894 109.502H53.3883C53.2712 109.505 53.1542 109.505 53.0372 109.507C52.9779 109.51 52.9277 109.507 52.876 109.502H52.3395V108.983C52.3364 108.753 52.3349 108.557 52.3395 108.384M59.4227 113.327H52.3395V111.229H59.4227V113.327Z" fill="black"/>
<path d="M59.4141 109.166C59.4187 109.138 59.4218 109.112 59.4218 109.081C59.4218 109.098 59.4187 109.115 59.4171 109.129C59.4171 109.143 59.4171 109.157 59.4141 109.167" fill="black"/>
<path d="M59.1016 107.406C59.1245 107.423 59.1489 107.441 59.1673 107.458C59.1489 107.441 59.1245 107.423 59.1016 107.406Z" fill="black"/>
<path d="M59.0156 107.361C59.0433 107.373 59.068 107.388 59.0941 107.405C59.068 107.388 59.0449 107.371 59.0156 107.361Z" fill="black"/>
<path d="M58.9336 109.502C58.9596 109.502 58.9825 109.499 59.0085 109.498C58.9825 109.501 58.9596 109.502 58.9336 109.502Z" fill="black"/>
<path d="M58.2072 107.247C56.8696 107.242 55.5305 107.247 54.1914 107.247C55.5305 107.247 56.8696 107.242 58.2072 107.247Z" fill="black"/>
<path d="M59.1719 107.464C59.1933 107.482 59.2116 107.504 59.2284 107.525C59.2116 107.504 59.1933 107.482 59.1719 107.464Z" fill="black"/>
<path d="M58.8086 107.295C58.844 107.303 58.8778 107.312 58.9102 107.321C58.8763 107.312 58.844 107.303 58.8086 107.295Z" fill="black"/>
<path d="M58.3828 107.25C58.4213 107.253 58.4536 107.254 58.4921 107.257C58.4536 107.254 58.4213 107.253 58.3828 107.25Z" fill="black"/>
<path d="M59.2344 107.532C59.2512 107.554 59.268 107.58 59.2818 107.603C59.268 107.58 59.2512 107.554 59.2344 107.532Z" fill="black"/>
<path d="M58.6797 107.272C58.7197 107.28 58.7551 107.285 58.7905 107.294C58.7551 107.285 58.7197 107.28 58.6797 107.272Z" fill="black"/>
<path d="M58.5391 107.259C58.5822 107.262 58.6176 107.266 58.6545 107.271C58.616 107.266 58.5806 107.262 58.5391 107.259Z" fill="black"/>
<path d="M58.918 107.323C58.9518 107.335 58.9795 107.346 59.0088 107.358C58.9811 107.346 58.9518 107.335 58.918 107.323Z" fill="black"/>
<path d="M59.4102 108.212C59.4132 108.26 59.4147 108.317 59.4147 108.373C59.4147 108.317 59.4117 108.26 59.4102 108.212Z" fill="black"/>
<path d="M59.3984 108.063C59.4031 108.108 59.4061 108.155 59.4077 108.204C59.4046 108.155 59.4031 108.108 59.3984 108.063Z" fill="black"/>
<path d="M58.4844 109.498C58.606 109.501 58.7276 109.501 58.8477 109.502C58.7276 109.499 58.606 109.499 58.4844 109.498Z" fill="black"/>
<path d="M53.0361 109.502C52.9799 109.505 52.9267 109.502 52.875 109.498C52.9236 109.502 52.9784 109.505 53.0361 109.502Z" fill="black"/>
<path d="M59.3555 107.809C59.3647 107.844 59.3724 107.88 59.3786 107.918C59.3709 107.88 59.3647 107.844 59.3555 107.809Z" fill="black"/>
<path d="M59.4141 108.967C59.4187 109.003 59.4187 109.033 59.4187 109.064C59.4187 109.033 59.4187 109.003 59.4141 108.967Z" fill="black"/>
<path d="M58.9362 109.502C58.9085 109.505 58.8823 109.505 58.8516 109.502C58.8823 109.505 58.9085 109.505 58.9362 109.502Z" fill="black"/>
<path d="M59.3789 107.928C59.3866 107.968 59.3912 108.008 59.3958 108.054C59.3912 108.009 59.3866 107.969 59.3789 107.928Z" fill="black"/>
<path d="M59.3242 107.704C59.3365 107.735 59.3458 107.766 59.355 107.8C59.3458 107.766 59.3365 107.735 59.3242 107.704Z" fill="black"/>
<path d="M59.2812 107.613C59.2951 107.639 59.3074 107.665 59.3197 107.696C59.3074 107.665 59.2966 107.639 59.2812 107.613Z" fill="black"/>
<path d="M58.4844 109.498C58.606 109.501 58.7276 109.501 58.8477 109.502C58.8781 109.505 58.9069 109.505 58.9313 109.502H58.9343C58.9601 109.502 58.986 109.499 59.0118 109.498C58.9601 109.502 58.606 109.501 58.4844 109.498Z" fill="black"/>
<path d="M59.4171 108.968C59.4171 108.949 59.4171 108.929 59.4141 108.916C59.4171 108.929 59.4171 108.949 59.4171 108.968Z" fill="black"/>
<path d="M59.4171 109.128C59.4201 109.112 59.4217 109.095 59.4217 109.08V109.063C59.4217 109.033 59.4217 108.999 59.4171 108.967C59.4171 108.949 59.4171 108.929 59.4141 108.914C59.4141 108.928 59.4217 109.054 59.4171 109.13" fill="black"/>
<path d="M55.913 109.495C55.0694 109.495 54.2273 109.486 53.3867 109.498H58.4878C57.629 109.486 56.7718 109.495 55.9145 109.495" fill="black"/>
<path d="M59.4122 108.628C59.4091 108.724 59.4091 108.818 59.4152 108.914V108.523C59.4152 108.558 59.4152 108.592 59.4122 108.628Z" fill="black"/>
<path d="M59.4132 108.523C59.4132 108.559 59.4132 108.593 59.4102 108.63C59.4132 108.591 59.4132 108.559 59.4132 108.523Z" fill="black"/>
<path d="M72.5881 95.0319C70.4997 95.0289 65.5885 95.0228 65.5885 95.0228C65.6281 94.9544 65.6357 94.9331 65.6265 94.8586C65.6235 94.8313 65.6129 94.7887 65.6083 94.7766C65.4381 94.161 64.941 93.9542 64.4303 93.7749C63.6855 93.5104 63.3982 93.67 63.0577 94.3631C62.4543 95.5943 61.822 96.8179 61.1836 98.0324C60.9632 98.4519 60.7078 98.8593 61.1273 99.2788C61.4876 99.6421 61.9983 99.6512 62.4741 99.1967C63.1337 98.5674 63.7098 97.8485 64.3406 97.1827C64.4911 97.0216 64.6993 96.8103 64.8863 96.8012C65.7314 96.7632 66.5841 96.7799 67.5296 96.783H67.8488V96.8225C67.8488 96.8225 67.7272 96.8134 67.6679 96.8711C67.0189 97.581 67.0097 97.7162 67.5068 98.4793C67.6801 98.7468 67.8716 99.0022 68.0661 99.256C68.3443 99.6162 68.6772 99.9522 69.1742 99.7728C69.7625 99.5661 70.2321 99.1587 70.3705 98.534C70.4845 98.0172 70.0406 97.7618 69.6773 97.5156C69.3566 97.2998 68.6164 96.8559 68.6164 96.8559V96.7906H69.5481C69.7807 96.7814 70.0102 96.7814 70.2382 96.7814C71.0393 96.7784 71.8403 96.7936 72.6383 96.7678C73.111 96.751 73.488 96.6021 73.5017 96.0047C73.5184 95.2432 73.3512 95.0349 72.5866 95.0334" fill="black"/>
<path d="M60.0295 95.0319C58.1554 95.0289 53.6744 95.0228 53.6744 95.0228C53.7261 94.9392 53.7215 94.8404 53.6972 94.7507C53.4327 94.0363 52.8384 93.8235 52.1848 93.6928C51.747 93.6062 51.4005 93.7536 51.2242 94.2035C50.6299 95.6992 49.7422 97.0201 48.7329 98.2665C48.4289 98.6435 48.2206 99.0599 48.6508 99.4886C49.0673 99.9081 49.5096 99.7667 49.882 99.4415C50.715 98.7043 51.5267 97.9351 52.3505 97.1858C52.5055 97.0429 52.6712 96.8134 52.843 96.8043C53.6623 96.7663 55.5622 96.786 55.5622 96.786V96.8453C55.5622 96.8453 55.4011 96.8407 55.3191 96.9441C54.7825 97.6251 54.7901 97.7968 55.3236 98.569C55.5303 98.8639 55.7446 99.1542 55.9818 99.4217C56.5016 100.007 57.0914 99.9491 57.7176 99.2712C58.3195 98.6131 58.3195 98.1419 57.669 97.6691C57.2753 97.3819 56.7935 97.1067 56.3739 96.8514C56.3815 96.8134 56.3739 96.8286 56.3785 96.7875C56.605 96.7875 59.2756 96.7541 60.3548 96.7313C60.7105 96.7222 60.9278 96.558 60.9917 96.1598C61.1254 95.3162 60.9051 95.0304 60.0311 95.0304" fill="black"/>
<path d="M36.9106 133.723L38.616 131.237L37.1812 129.024C37.0474 128.808 36.9471 128.625 36.8787 128.47C36.8103 128.315 36.7753 128.168 36.7753 128.025C36.7753 127.882 36.8437 127.748 36.9699 127.634C37.1006 127.52 37.2602 127.458 37.4472 127.458C37.66 127.458 37.8287 127.523 37.9457 127.648C38.0673 127.777 38.2315 128.011 38.4428 128.353L39.5873 130.203L40.8079 128.353C40.9067 128.198 40.9933 128.066 41.0632 127.954C41.1362 127.844 41.2031 127.753 41.27 127.68C41.3353 127.607 41.4098 127.551 41.4904 127.516C41.5724 127.481 41.6667 127.46 41.7731 127.46C41.9676 127.46 42.1272 127.52 42.2488 127.636C42.3704 127.75 42.4312 127.891 42.4312 128.048C42.4312 128.282 42.3005 128.596 42.036 128.992L40.5328 131.237L42.1455 133.723C42.2929 133.944 42.3978 134.123 42.4647 134.266C42.53 134.409 42.5635 134.547 42.5635 134.673C42.5635 134.8 42.5331 134.906 42.4738 135.006C42.4176 135.107 42.3309 135.187 42.2276 135.245C42.1196 135.304 41.998 135.332 41.8628 135.332C41.7168 135.332 41.5937 135.304 41.4934 135.24C41.3931 135.181 41.3125 135.107 41.2517 135.018C41.1864 134.927 41.0708 134.751 40.9006 134.491L39.5615 132.383L38.1372 134.553C38.0293 134.727 37.9472 134.847 37.9032 134.918C37.856 134.987 37.7998 135.052 37.7344 135.119C37.666 135.184 37.5885 135.236 37.5004 135.274C37.4107 135.313 37.3043 135.33 37.1812 135.33C36.9957 135.33 36.8422 135.274 36.7176 135.16C36.5929 135.046 36.5352 134.882 36.5352 134.661C36.5352 134.406 36.6613 134.093 36.9121 133.722" fill="black"/>
<path d="M47.1789 133.065H45.5404C45.2896 133.065 45.0996 133.009 44.9719 132.892C44.8412 132.775 44.7773 132.628 44.7773 132.441C44.7773 132.254 44.8381 132.103 44.9673 131.989C45.092 131.872 45.2805 131.816 45.5404 131.816H47.1789C47.4343 131.816 47.6258 131.872 47.752 131.989C47.8781 132.103 47.942 132.257 47.942 132.441C47.942 132.625 47.8812 132.775 47.755 132.892C47.6304 133.009 47.4389 133.065 47.1789 133.065Z" fill="black"/>
<path d="M51.7102 127.592H53.7212C54.241 127.592 54.6909 127.64 55.0648 127.738C55.4372 127.833 55.7762 128.016 56.0817 128.28C56.8752 128.96 57.2719 129.992 57.2719 131.378C57.2719 131.834 57.2339 132.252 57.1518 132.629C57.0728 133.006 56.9481 133.348 56.784 133.647C56.6183 133.951 56.404 134.224 56.144 134.462C55.9404 134.645 55.7154 134.792 55.4737 134.905C55.2305 135.012 54.9706 135.091 54.6909 135.137C54.4128 135.184 54.0981 135.202 53.747 135.202H51.7376C51.4594 135.202 51.2451 135.163 51.1022 135.078C50.9624 134.994 50.8696 134.871 50.8256 134.718C50.783 134.566 50.7617 134.363 50.7617 134.12V128.537C50.7617 128.203 50.8347 127.964 50.9836 127.814C51.1311 127.666 51.3728 127.592 51.7056 127.592M52.303 128.812V133.98H53.4719C53.7272 133.98 53.9279 133.973 54.0738 133.958C54.2197 133.944 54.3717 133.91 54.5252 133.854C54.6818 133.801 54.8156 133.723 54.9311 133.622C55.4479 133.184 55.7032 132.435 55.7032 131.366C55.7032 130.617 55.5908 130.053 55.3658 129.677C55.1363 129.305 54.8581 129.066 54.5252 128.963C54.1954 128.859 53.7926 128.811 53.3214 128.811H52.303V128.812Z" fill="black"/>
<path d="M65.4379 128.78H61.9647V130.652H65.1643C65.3984 130.652 65.5762 130.703 65.6917 130.808C65.8057 130.913 65.868 131.054 65.868 131.228C65.868 131.401 65.8088 131.541 65.6948 131.652C65.5823 131.76 65.4014 131.816 65.1658 131.816H61.9662V133.982H65.561C65.8027 133.982 65.9851 134.035 66.1067 134.148C66.2313 134.262 66.2921 134.411 66.2921 134.597C66.2921 134.784 66.2313 134.923 66.1067 135.038C65.9851 135.151 65.8027 135.204 65.561 135.204H61.3688C61.0314 135.204 60.7928 135.131 60.6423 134.982C60.4964 134.835 60.4219 134.591 60.4219 134.26V128.537C60.4219 128.317 60.4553 128.137 60.5207 127.995C60.586 127.855 60.6909 127.753 60.8292 127.688C60.9691 127.624 61.15 127.592 61.3673 127.592H65.4379C65.6841 127.592 65.868 127.648 65.9866 127.757C66.1067 127.865 66.1675 128.008 66.1675 128.183C66.1675 128.358 66.1067 128.508 65.9866 128.619C65.8696 128.729 65.6841 128.78 65.4379 128.78Z" fill="black"/>
<path d="M70.828 128.396V133.936H73.9546C74.2024 133.936 74.3924 134 74.5276 134.119C74.6614 134.24 74.7268 134.395 74.7268 134.578C74.7268 134.76 74.6614 134.915 74.5307 135.029C74.3969 135.146 74.2054 135.202 73.9546 135.202H70.2306C69.8962 135.202 69.6515 135.13 69.5071 134.982C69.3566 134.832 69.2852 134.591 69.2852 134.259V128.394C69.2852 128.083 69.3551 127.852 69.4964 127.694C69.6348 127.539 69.8202 127.46 70.0497 127.46C70.2792 127.46 70.4708 127.537 70.6121 127.692C70.758 127.847 70.8295 128.081 70.8295 128.394" fill="black"/>
<path d="M77.5992 134.394V128.394C77.5992 128.086 77.6691 127.852 77.812 127.697C77.9518 127.54 78.1373 127.46 78.3622 127.46C78.5872 127.46 78.7833 127.537 78.9246 127.694C79.0705 127.846 79.142 128.083 79.142 128.394V134.394C79.142 134.71 79.069 134.944 78.9246 135.101C78.7848 135.256 78.5948 135.333 78.3622 135.333C78.1297 135.333 77.9564 135.256 77.8135 135.099C77.6706 134.94 77.5977 134.708 77.5977 134.394" fill="black"/>
<path d="M83.7916 128.473L85.5152 133.581L87.248 128.435C87.3377 128.166 87.4031 127.979 87.4487 127.873C87.4928 127.768 87.5657 127.672 87.6706 127.587C87.774 127.504 87.9168 127.458 88.0962 127.458C88.2269 127.458 88.3485 127.493 88.461 127.558C88.5735 127.627 88.6616 127.713 88.7255 127.821C88.7908 127.931 88.8212 128.039 88.8212 128.151C88.8212 128.229 88.8121 128.311 88.7908 128.397C88.7696 128.487 88.7437 128.574 88.7133 128.657C88.6829 128.741 88.6495 128.828 88.6191 128.92L86.7738 133.894C86.7084 134.084 86.6446 134.269 86.5777 134.439C86.5124 134.61 86.4379 134.76 86.3512 134.889C86.2646 135.02 86.1506 135.126 86.0047 135.21C85.8618 135.292 85.6855 135.335 85.4772 135.335C85.269 135.335 85.0957 135.292 84.9498 135.213C84.8069 135.131 84.6899 135.023 84.6032 134.889C84.5136 134.759 84.4345 134.607 84.3707 134.435C84.3053 134.266 84.2369 134.084 84.1716 133.894L82.3612 128.961C82.3278 128.872 82.2959 128.783 82.2655 128.697C82.2305 128.61 82.2016 128.516 82.1788 128.416C82.1606 128.317 82.1484 128.23 82.1484 128.16C82.1484 127.984 82.2184 127.826 82.3612 127.678C82.5011 127.532 82.6804 127.458 82.8948 127.458C83.1577 127.458 83.3447 127.542 83.4526 127.701C83.5605 127.862 83.673 128.121 83.787 128.472" fill="black"/>
<path d="M96.7964 128.78H93.3232V130.652H96.5228C96.7569 130.652 96.9332 130.703 97.0472 130.808C97.1642 130.913 97.2235 131.054 97.2235 131.228C97.2235 131.401 97.1642 131.541 97.0502 131.652C96.9377 131.76 96.7599 131.816 96.5228 131.816H93.3232V133.982H96.915C97.1566 133.982 97.339 134.035 97.4637 134.148C97.5883 134.262 97.6491 134.411 97.6491 134.597C97.6491 134.784 97.5883 134.923 97.4637 135.038C97.339 135.151 97.1566 135.204 96.915 135.204H92.7258C92.3884 135.204 92.1467 135.131 91.9993 134.982C91.8533 134.835 91.7773 134.591 91.7773 134.26V128.537C91.7773 128.317 91.8123 128.137 91.8777 127.995C91.943 127.855 92.0464 127.753 92.1862 127.688C92.3261 127.624 92.5054 127.592 92.7243 127.592H96.7949C97.0411 127.592 97.2235 127.648 97.3436 127.757C97.4637 127.865 97.5245 128.008 97.5245 128.183C97.5245 128.358 97.4637 128.508 97.3436 128.619C97.2235 128.729 97.0411 128.78 96.7949 128.78" fill="black"/>
<path d="M102.744 131.947H102.203V134.394C102.203 134.718 102.13 134.953 101.99 135.105C101.847 135.257 101.662 135.335 101.432 135.335C101.189 135.335 100.999 135.253 100.861 135.096C100.727 134.936 100.66 134.702 100.66 134.394V128.537C100.66 128.204 100.735 127.964 100.885 127.815C101.036 127.665 101.274 127.59 101.607 127.59H104.115C104.462 127.59 104.757 127.607 105.003 127.634C105.249 127.665 105.471 127.726 105.669 127.815C105.91 127.916 106.118 128.058 106.304 128.244C106.486 128.431 106.625 128.65 106.72 128.894C106.816 129.145 106.866 129.405 106.866 129.682C106.866 130.253 106.702 130.705 106.384 131.045C106.064 131.384 105.579 131.626 104.928 131.767C105.202 131.915 105.462 132.128 105.713 132.412C105.96 132.698 106.185 132.997 106.38 133.318C106.576 133.638 106.726 133.929 106.836 134.184C106.945 134.444 107 134.622 107 134.718C107 134.813 106.967 134.917 106.901 135.017C106.837 135.116 106.751 135.193 106.641 135.25C106.529 135.309 106.403 135.336 106.257 135.336C106.084 135.336 105.938 135.294 105.821 135.215C105.704 135.133 105.6 135.029 105.517 134.906C105.433 134.78 105.317 134.598 105.17 134.356L104.554 133.325C104.332 132.948 104.133 132.663 103.96 132.463C103.782 132.267 103.606 132.131 103.427 132.058C103.246 131.988 103.019 131.948 102.747 131.948M103.63 128.752H102.206V130.845H103.585C103.957 130.845 104.269 130.811 104.521 130.749C104.773 130.684 104.966 130.573 105.102 130.421C105.235 130.266 105.301 130.056 105.301 129.784C105.301 129.572 105.244 129.385 105.14 129.224C105.032 129.065 104.883 128.946 104.693 128.866C104.512 128.791 104.159 128.752 103.63 128.752Z" fill="black"/>
<path d="M111.408 134.394V131.98L109.549 129.097C109.388 128.837 109.271 128.635 109.206 128.49C109.136 128.344 109.105 128.217 109.105 128.109C109.105 127.932 109.171 127.783 109.309 127.654C109.444 127.525 109.613 127.46 109.815 127.46C110.017 127.46 110.188 127.52 110.296 127.64C110.405 127.761 110.569 127.999 110.785 128.355L112.211 130.667L113.649 128.355C113.735 128.212 113.805 128.095 113.866 127.999C113.925 127.9 113.991 127.808 114.061 127.723C114.131 127.639 114.211 127.575 114.298 127.528C114.387 127.484 114.489 127.46 114.614 127.46C114.809 127.46 114.973 127.523 115.099 127.65C115.23 127.779 115.295 127.923 115.295 128.09C115.295 128.224 115.261 128.359 115.195 128.493C115.131 128.628 115.017 128.817 114.86 129.057L112.954 131.98V134.394C112.954 134.71 112.881 134.944 112.734 135.101C112.591 135.256 112.404 135.333 112.179 135.333C111.954 135.333 111.764 135.259 111.624 135.104C111.481 134.949 111.411 134.715 111.411 134.394" fill="black"/>
</svg>
