<svg width="130" height="130" viewBox="0 0 130 130" fill="none" xmlns="http://www.w3.org/2000/svg">
<path d="M64.9999 126.195C31.2607 126.195 3.80469 98.7392 3.80469 65C3.80469 31.2608 31.2607 3.80481 64.9999 3.80481C98.7391 3.80481 126.195 31.2608 126.195 65C126.195 98.7392 98.7523 126.195 64.9999 126.195ZM64.9999 4.28001C31.5115 4.28001 4.27989 31.5248 4.27989 65C4.27989 98.4752 31.5247 125.72 64.9999 125.72C98.4751 125.72 125.72 98.4752 125.72 65C125.72 31.5248 98.4883 4.28001 64.9999 4.28001Z" fill="black"/>
<path d="M67.2437 76.6424C67.2437 77.738 67.3493 78.4112 67.5473 78.6356C67.7453 78.8732 68.3525 78.992 69.3689 78.992H70.2929C74.4245 78.992 77.4077 78.3848 79.2161 77.1704C81.0377 75.956 81.9353 73.9892 81.9353 71.2436C81.9353 68.498 81.0905 66.584 79.3877 65.4356C77.6981 64.274 74.6621 63.7064 70.2797 63.7064C69.0257 63.7064 68.2073 63.8648 67.8245 64.1948C67.4285 64.5248 67.2305 65.33 67.2305 66.6104V76.6424H67.2437Z" fill="black"/>
<path d="M65.0005 19.394C39.8149 19.394 19.3945 39.8144 19.3945 65C19.3945 90.1856 39.8149 110.606 65.0005 110.606C90.1861 110.606 110.607 90.1856 110.607 65C110.607 39.8144 90.1861 19.394 65.0005 19.394ZM85.7641 96.9176C82.9789 98.6996 78.6889 99.584 72.9205 99.584H55.3513V98.4356C57.6481 98.396 59.1661 98.0396 59.9053 97.3796C60.6445 96.7064 61.0273 95.3864 61.0273 93.4196V68.0756C61.0273 66.0824 60.5389 64.8812 59.9449 64.1156C59.2321 63.1916 58.8757 62.5976 55.6813 61.304C55.6813 61.304 50.3617 59.7596 48.5797 58.334C45.8737 56.1824 44.5273 53.054 44.5273 48.9224V42.2696C44.5273 39.5636 44.2765 37.8212 43.7881 37.0688C43.2997 36.3164 42.4153 35.9336 41.1349 35.9336H40.0525V34.4948C40.5013 34.4156 40.9897 34.3628 41.5045 34.3232C42.0193 34.2836 42.5869 34.2572 43.1941 34.2572C46.0057 34.2572 48.0121 34.9964 49.2133 36.5012C50.4145 37.9928 51.0217 40.5668 51.0217 44.2232V49.556C51.0217 53.4896 51.7081 56.1692 53.0809 57.608C54.4537 59.0468 57.0013 59.8652 60.7369 60.0632V41.0816C60.7369 39.0224 60.3541 37.6364 59.5885 36.95C58.8229 36.2504 57.2389 35.8544 54.8233 35.762V34.5608H73.1449V35.762C70.7689 35.8676 69.1981 36.2636 68.4193 36.95C67.6405 37.6496 67.2577 39.0224 67.2577 41.0816V60.0764C70.9537 59.8652 73.4881 59.0204 74.8741 57.5684C76.2601 56.1164 76.9465 53.45 76.9465 49.556V44.1968C76.9465 40.5272 77.5405 37.9532 78.7285 36.4616C79.9165 34.97 81.9229 34.244 84.7477 34.244C85.3417 34.244 85.8961 34.2572 86.4109 34.31C86.9257 34.3496 87.4405 34.4156 87.9289 34.4816V35.9204H86.8465C85.5925 35.9204 84.7213 36.3032 84.2329 37.0556C83.7445 37.808 83.4937 39.5372 83.4937 42.2564V48.9092C83.4937 53.0276 82.1341 56.1692 79.4281 58.3208C76.7353 60.4592 72.6961 61.6208 67.3369 61.8056H73.8445C78.4117 61.8056 81.9361 62.6108 84.4441 64.2212C86.9521 65.8316 88.2061 68.0756 88.2061 70.9664C88.2061 72.9464 87.5329 74.6756 86.1997 76.1672C84.8665 77.6588 82.9657 78.7676 80.5237 79.4936C83.6521 80.0876 86.0017 81.17 87.5857 82.7276C89.1697 84.2852 89.9617 86.3048 89.9617 88.7732C89.9617 92.4296 88.5625 95.162 85.7641 96.9176Z" fill="black"/>
<path d="M80.3009 82.82C78.3473 81.4736 75.2849 80.8136 71.1401 80.8136H69.5429C68.5001 80.8136 67.8533 80.9192 67.6157 81.1172C67.3781 81.3152 67.2461 81.8696 67.2461 82.7672V94.6736C67.2461 95.7692 67.4837 96.5084 67.9721 96.8648C68.4605 97.2212 69.7409 97.406 71.8265 97.406H72.7505C76.1561 97.406 78.7565 96.6932 80.5385 95.2808C82.3205 93.8684 83.2181 91.7828 83.2181 89.0504C83.2181 86.318 82.2545 84.1532 80.3009 82.82Z" fill="black"/>
<path d="M15.9104 36.1185L16.148 36.2636C16.0952 36.3428 16.0688 36.4221 16.0424 36.5145C16.016 36.5937 16.0556 36.6728 16.148 36.7256C16.2008 36.752 16.3592 36.7785 16.6496 36.7652C16.9268 36.7652 17.2436 36.752 17.6 36.7388C17.9564 36.7256 18.326 36.6992 18.7088 36.686C19.0916 36.6728 19.4084 36.6596 19.6592 36.6596L18.4844 33.782C18.4184 33.65 18.3788 33.5312 18.3392 33.452C18.2996 33.3728 18.26 33.3069 18.2072 33.2805C18.1412 33.2409 18.0752 33.2541 18.0092 33.3333C17.9432 33.4125 17.8772 33.4785 17.8376 33.5445L17.6 33.3993L19.0388 31.076L19.2764 31.2213C19.2368 31.2873 19.1972 31.3664 19.1708 31.4324C19.1444 31.4984 19.1444 31.5909 19.1444 31.6833C19.1576 31.7757 19.184 31.8944 19.2236 32.0264C19.2632 32.1584 19.3424 32.33 19.4348 32.528L21.23 36.7652L23.5928 38.2305C23.7512 38.3361 23.8964 38.2832 24.0152 38.072L24.2528 38.2172L22.946 40.316L22.7084 40.1708C22.7612 40.0916 22.7744 40.0124 22.7744 39.9332C22.7744 39.854 22.7216 39.788 22.6424 39.7352L20.2796 38.27L15.1052 38.6C14.9732 38.6 14.8412 38.6528 14.696 38.7452C14.5508 38.8376 14.4584 38.93 14.4056 39.0092L14.168 38.864L15.9104 36.1185Z" fill="black"/>
<path d="M24.5688 24.7929C24.978 24.3837 25.44 24.0273 25.9812 23.7369C26.5224 23.4333 27.09 23.2353 27.6708 23.1297C28.2516 23.0241 28.8456 23.0505 29.4396 23.1957C30.0336 23.3409 30.588 23.6709 31.0896 24.1725C31.6044 24.6741 31.9344 25.2285 32.0796 25.8225C32.2248 26.4165 32.2512 27.0105 32.1588 27.5913C32.0532 28.1853 31.8552 28.7397 31.5516 29.2677C31.248 29.7957 30.8916 30.2709 30.4824 30.6669C30.0732 31.0629 29.6112 31.4325 29.0832 31.7361C28.5552 32.0529 28.0008 32.2509 27.4068 32.3565C26.826 32.4621 26.232 32.4357 25.638 32.2905C25.044 32.1453 24.4896 31.8153 23.988 31.3005C23.4732 30.7989 23.1432 30.2445 22.998 29.6505C22.8396 29.0565 22.8132 28.4625 22.9188 27.8817C23.0244 27.2877 23.2224 26.7201 23.5128 26.1789C23.8032 25.6641 24.1596 25.1889 24.5688 24.7929ZM25.5852 25.7961C25.308 26.0733 25.0704 26.4033 24.8856 26.7729C24.7008 27.1425 24.5688 27.5253 24.516 27.9081C24.4632 28.2909 24.4764 28.6869 24.582 29.0697C24.6876 29.4525 24.8988 29.7957 25.2024 30.1125C25.506 30.4293 25.8624 30.6273 26.2452 30.7329C26.628 30.8385 27.0108 30.8517 27.4068 30.7989C27.7896 30.7461 28.1724 30.6141 28.542 30.4161C28.9116 30.2181 29.2284 29.9937 29.5188 29.7033C29.796 29.4261 30.0336 29.0961 30.2184 28.7265C30.4032 28.3569 30.5352 27.9741 30.588 27.5913C30.6408 27.1953 30.6276 26.8125 30.522 26.4297C30.4164 26.0469 30.2052 25.7037 29.9016 25.3869C29.598 25.0833 29.2416 24.8721 28.8588 24.7665C28.476 24.6609 28.0932 24.6477 27.6972 24.7005C27.3144 24.7665 26.9316 24.8853 26.562 25.0833C26.1792 25.2813 25.8624 25.5189 25.5852 25.7961Z" fill="black"/>
<path d="M33.9145 17.5856C33.7165 17.7044 33.6637 17.8496 33.7693 18.008L36.1981 22.0208C36.5413 22.5752 36.9505 22.8524 37.4389 22.8524C37.9273 22.8392 38.5213 22.628 39.2077 22.2056C39.9073 21.7832 40.3693 21.3608 40.5937 20.9384C40.8181 20.516 40.7785 20.0144 40.4353 19.46L38.0065 15.4604C37.9141 15.302 37.7293 15.302 37.4653 15.4604L37.3201 15.2228L39.4585 13.9292L39.6037 14.1668C39.3925 14.2988 39.3265 14.444 39.4321 14.6024L41.8213 18.536C42.1381 19.064 42.3229 19.5392 42.3889 19.9748C42.4417 20.4104 42.3889 20.8196 42.2041 21.2156C42.0193 21.5984 41.7289 21.968 41.3329 22.3112C40.9237 22.6544 40.4221 23.0108 39.8413 23.3672C39.2473 23.7236 38.7193 24.0008 38.2177 24.1988C37.7293 24.3968 37.2673 24.4892 36.8317 24.476C36.3961 24.4628 36.0133 24.3176 35.6569 24.0668C35.3005 23.816 34.9573 23.4332 34.6405 22.9052L32.2381 18.932C32.1457 18.7736 31.9741 18.7736 31.7233 18.9188L31.5781 18.6812L33.7693 17.348L33.9145 17.5856Z" fill="black"/>
<path d="M46.0723 19.5525C46.2571 19.4997 46.3231 19.3809 46.2703 19.1961L44.1715 12.4245C44.1187 12.2529 43.9999 12.1869 43.8019 12.2397L43.7227 11.9757L46.2703 11.1837L46.3495 11.4477C46.2703 11.4741 46.2439 11.5401 46.2703 11.6325C46.2967 11.7117 46.4419 11.8173 46.6927 11.9625L52.3555 15.0909L50.8903 10.3521C50.8375 10.1673 50.6791 10.1277 50.4151 10.2069L50.3359 9.94289L52.5931 9.24329L52.6723 9.50729C52.4875 9.56009 52.4215 9.67889 52.4743 9.86369L54.5731 16.6353C54.6259 16.8201 54.7447 16.8729 54.9427 16.8201L55.0219 17.0841L52.6063 17.8365L52.5271 17.5725C52.6591 17.5329 52.7119 17.4669 52.6855 17.3745C52.6591 17.3085 52.5535 17.2161 52.3423 17.1105L46.3231 13.7709L47.8543 18.7209C47.9071 18.9057 48.0523 18.9585 48.2767 18.8793L48.3559 19.1433L46.1515 19.8297L46.0723 19.5525Z" fill="black"/>
<path d="M65.1186 10.4973L64.8018 10.4181C64.815 10.3521 64.8282 10.2861 64.8282 10.2333C64.815 10.0749 64.7094 9.94286 64.5114 9.82406C64.3134 9.70526 64.0626 9.61286 63.759 9.54686C63.4554 9.48086 63.1254 9.42806 62.7822 9.40166C62.4258 9.37526 62.0958 9.37525 61.7923 9.38845C61.4095 9.41485 61.0266 9.48086 60.657 9.61286C60.2874 9.74486 59.9574 9.92965 59.667 10.1805C59.3898 10.4313 59.1654 10.7349 58.9938 11.1045C58.8354 11.4741 58.7694 11.9229 58.7958 12.4509C58.8222 12.9657 58.941 13.4013 59.139 13.7577C59.337 14.1141 59.601 14.4045 59.9046 14.6157C60.2082 14.8269 60.5646 14.9853 60.9474 15.0645C61.3302 15.1569 61.713 15.1833 62.109 15.1701C62.703 15.1437 63.231 15.0645 63.693 14.9325C64.155 14.8005 64.551 14.6817 64.881 14.5497L64.8018 13.2033L62.8086 13.3089C62.6634 13.3221 62.5578 13.3485 62.4786 13.4145C62.4126 13.4805 62.373 13.6257 62.3598 13.8237L62.0826 13.8369L61.977 11.8437L62.2543 11.8305C62.2807 12.0021 62.3334 12.1209 62.4126 12.1605C62.4918 12.2001 62.5974 12.2265 62.7426 12.2133L66.6367 12.0021L66.6498 12.2793C66.4386 12.3189 66.3198 12.3717 66.267 12.4113C66.2142 12.4509 66.201 12.5433 66.201 12.6753L66.2934 14.4309C66.2934 14.5365 66.333 14.6025 66.399 14.6289C66.465 14.6553 66.531 14.6949 66.6234 14.7213L66.6367 14.9721C66.3067 15.2361 65.9634 15.4473 65.5806 15.6189C65.211 15.7905 64.8282 15.9357 64.4454 16.0545C64.0626 16.1601 63.6798 16.2393 63.2838 16.2789C62.8878 16.3185 62.5182 16.3581 62.1354 16.3713C61.4094 16.4109 60.7362 16.3581 60.129 16.2129C59.5218 16.0677 58.9938 15.8169 58.5451 15.4869C58.0963 15.1569 57.7399 14.7345 57.4891 14.2329C57.2251 13.7313 57.0799 13.1505 57.0403 12.5037C57.0007 11.8437 57.0931 11.2629 57.2911 10.7349C57.4891 10.2069 57.8058 9.74486 58.2018 9.36206C58.611 8.97926 59.0994 8.67566 59.6934 8.43806C60.2874 8.21366 60.9342 8.08166 61.6734 8.04206C62.1354 8.01566 62.571 8.02885 62.9934 8.06845C63.4158 8.10805 63.7854 8.16086 64.1154 8.21366C64.4454 8.27966 64.7094 8.33246 64.9338 8.38526C65.145 8.43806 65.2902 8.46445 65.3298 8.46445C65.4222 8.46445 65.4882 8.43806 65.541 8.38526C65.5938 8.34566 65.6466 8.30605 65.6862 8.26645L65.8842 8.37206L65.1186 10.4973Z" fill="black"/>
<path d="M81.6723 10.5501C82.1343 10.6821 82.5699 10.8537 82.9659 11.0517C83.3751 11.2497 83.7183 11.4873 83.9955 11.7513C84.2727 12.0153 84.4839 12.3057 84.6027 12.6357C84.7215 12.9525 84.7215 13.3221 84.6159 13.7049C84.4839 14.1801 84.2199 14.4969 83.8635 14.6685C83.4939 14.8401 83.0979 14.9325 82.6491 14.9589L82.6359 14.9853C83.0583 15.2625 83.4015 15.6057 83.6259 16.0017C83.8635 16.3977 83.8899 16.8861 83.7315 17.4537C83.6391 17.7573 83.4939 18.0081 83.2959 18.2325C83.0979 18.4569 82.8339 18.6153 82.5171 18.7341C82.2135 18.8529 81.8571 18.9057 81.4479 18.8925C81.0387 18.8793 80.6163 18.8133 80.1411 18.6813L74.6367 17.0577L74.7159 16.7937C74.9931 16.8729 75.1647 16.8201 75.2175 16.6485L77.2371 9.82406C77.2899 9.63926 77.1711 9.52046 76.8939 9.42806L76.9731 9.16406C76.9863 9.16406 81.6723 10.5501 81.6723 10.5501ZM80.0487 17.1369C80.6823 17.3217 81.1575 17.3613 81.4875 17.2425C81.8175 17.1237 82.0287 16.9125 82.1343 16.5957C82.2267 16.2789 82.1607 15.9753 81.9495 15.6981C81.7251 15.4209 81.3159 15.1965 80.6823 15.0117L77.8179 14.1669L77.1843 16.2921L80.0487 17.1369ZM81.0651 13.7181C81.5139 13.8501 81.9099 13.9029 82.2267 13.8765C82.5567 13.8501 82.7811 13.6521 82.8867 13.2825C82.9923 12.9129 82.9131 12.6225 82.6623 12.4245C82.4115 12.2265 82.0419 12.0549 81.5931 11.9229L78.7287 11.0781L78.2007 12.8733L81.0651 13.7181Z" fill="black"/>
<path d="M93.9091 15.83C94.3975 16.1204 94.8595 16.49 95.2819 16.9388C95.7043 17.3876 96.0475 17.8892 96.2851 18.4304C96.5227 18.9716 96.6547 19.5524 96.6547 20.1596C96.6547 20.7668 96.4831 21.3872 96.1135 22.0076C95.7439 22.628 95.2951 23.0768 94.7671 23.3804C94.2391 23.684 93.6715 23.8424 93.0643 23.8952C92.4703 23.948 91.8763 23.882 91.2823 23.7104C90.6883 23.5388 90.1471 23.3144 89.6587 23.024C89.1703 22.7336 88.7083 22.3772 88.2727 21.9284C87.8371 21.4928 87.5071 21.0044 87.2563 20.4632C87.0055 19.922 86.8867 19.3412 86.8867 18.734C86.8867 18.1268 87.0715 17.5064 87.4279 16.886C87.7975 16.2656 88.2463 15.8168 88.7743 15.5132C89.3155 15.2228 89.8699 15.0512 90.4771 14.9984C91.0711 14.9456 91.6651 14.9984 92.2723 15.1568C92.8663 15.3152 93.4075 15.5396 93.9091 15.83ZM93.1831 17.0708C92.8399 16.8728 92.4703 16.7276 92.0611 16.6352C91.6519 16.5428 91.2559 16.5164 90.8599 16.556C90.4639 16.5956 90.0943 16.7144 89.7511 16.9124C89.4079 17.1104 89.1175 17.3876 88.9063 17.7704C88.6819 18.1532 88.5763 18.536 88.5631 18.932C88.5631 19.328 88.6291 19.7108 88.7875 20.0672C88.9459 20.4368 89.1571 20.7668 89.4343 21.0704C89.7115 21.374 90.0283 21.638 90.3583 21.836C90.7015 22.034 91.0711 22.1792 91.4803 22.2716C91.8895 22.364 92.2855 22.3904 92.6683 22.3508C93.0643 22.3112 93.4339 22.1924 93.7771 21.9944C94.1203 21.7964 94.4107 21.5192 94.6219 21.1364C94.8331 20.7536 94.9519 20.3708 94.9651 19.9748C94.9651 19.5788 94.8991 19.196 94.7407 18.8396C94.5823 18.4832 94.3711 18.14 94.0939 17.8364C93.8299 17.5196 93.5131 17.2688 93.1831 17.0708Z" fill="black"/>
<path d="M98.2524 25.7961L98.3184 25.9545C98.2524 26.0205 98.2128 26.0997 98.1864 26.1789C98.16 26.3241 98.1732 26.5089 98.2392 26.7465C98.3052 26.9841 98.4108 27.2217 98.5428 27.4857C98.6748 27.7497 98.8332 28.0005 99.0048 28.2513C99.1764 28.5021 99.3612 28.7133 99.5328 28.8717C99.6648 28.9905 99.8364 29.1489 100.061 29.3205C100.285 29.4921 100.523 29.6505 100.774 29.7825C101.024 29.9145 101.275 29.9937 101.513 30.0201C101.75 30.0465 101.962 29.9805 102.133 29.8089C102.305 29.6373 102.358 29.4393 102.305 29.2413C102.252 29.0301 102.133 28.8057 101.962 28.5681C101.79 28.3173 101.566 28.0665 101.302 27.7893C101.038 27.5121 100.774 27.2349 100.51 26.9313C100.246 26.6409 100.008 26.3241 99.7836 26.0073C99.5592 25.6905 99.4008 25.3737 99.3084 25.0437C99.216 24.7137 99.2028 24.3837 99.282 24.0405C99.3612 23.6973 99.5592 23.3541 99.8892 23.0109C100.114 22.7733 100.391 22.6017 100.708 22.4829C101.038 22.3641 101.394 22.3245 101.79 22.3641C102.186 22.4037 102.608 22.5489 103.044 22.7601C103.493 22.9845 103.955 23.3145 104.417 23.7633C104.813 24.1461 105.13 24.5025 105.367 24.8457C105.605 25.1889 105.79 25.4925 105.948 25.7697C106.106 26.0469 106.212 26.2845 106.304 26.4825C106.397 26.6805 106.489 26.8257 106.582 26.9313C106.687 27.0369 106.78 27.0765 106.872 27.0765L106.925 27.3009L104.8 27.9609L104.734 27.8025C104.826 27.6837 104.879 27.5649 104.892 27.4593C104.918 27.3141 104.905 27.1293 104.852 26.9049C104.8 26.6805 104.707 26.4561 104.588 26.2053C104.47 25.9545 104.311 25.7037 104.14 25.4529C103.968 25.2021 103.77 24.9777 103.546 24.7665C103.387 24.6081 103.202 24.4497 102.991 24.3177C102.793 24.1725 102.595 24.0669 102.397 23.9745C102.199 23.8953 102.014 23.8425 101.843 23.8425C101.671 23.8425 101.513 23.8953 101.394 24.0273C101.222 24.2121 101.156 24.4101 101.196 24.6213C101.236 24.8325 101.354 25.0701 101.513 25.3209C101.671 25.5717 101.896 25.8357 102.16 26.1129C102.424 26.3901 102.688 26.6805 102.938 26.9709C103.189 27.2613 103.44 27.5781 103.664 27.8949C103.889 28.2117 104.034 28.5417 104.14 28.8717C104.245 29.2017 104.245 29.5317 104.179 29.8749C104.113 30.2181 103.915 30.5481 103.585 30.8781C103.216 31.2741 102.793 31.4853 102.358 31.5381C101.909 31.5909 101.473 31.5381 101.024 31.3797C100.576 31.2213 100.153 30.9969 99.7572 30.7065C99.3612 30.4161 98.9916 30.1125 98.688 29.8221C98.2656 29.4129 97.9224 29.0433 97.6848 28.7133C97.4472 28.3833 97.2624 28.0929 97.1436 27.8421C97.0248 27.5913 96.9324 27.3801 96.8664 27.2085C96.8136 27.0501 96.7344 26.9181 96.6552 26.8389C96.6024 26.7861 96.5232 26.7729 96.4176 26.7861L96.3516 26.5485L98.2524 25.7961Z" fill="black"/>
<path d="M105.974 33.9668L106 34.1384C105.921 34.1912 105.868 34.2572 105.828 34.3232C105.762 34.4552 105.736 34.64 105.762 34.8776C105.776 35.1284 105.828 35.3792 105.908 35.6696C105.987 35.9468 106.079 36.2372 106.198 36.5144C106.317 36.7916 106.449 37.0424 106.581 37.2404C106.673 37.3856 106.818 37.5704 106.99 37.7948C107.162 38.0192 107.36 38.2172 107.584 38.3888C107.808 38.5736 108.033 38.7056 108.257 38.7848C108.495 38.864 108.706 38.8508 108.904 38.7188C109.102 38.5868 109.194 38.4152 109.194 38.1908C109.194 37.9664 109.128 37.7288 109.01 37.4516C108.891 37.1744 108.732 36.8708 108.534 36.554C108.336 36.2372 108.138 35.894 107.954 35.5508C107.769 35.2076 107.584 34.8512 107.439 34.4948C107.294 34.1384 107.201 33.782 107.188 33.452C107.162 33.1088 107.228 32.7788 107.373 32.462C107.518 32.1452 107.795 31.8548 108.191 31.5908C108.455 31.406 108.772 31.3004 109.115 31.2476C109.458 31.1948 109.815 31.2344 110.184 31.3664C110.554 31.4984 110.937 31.7096 111.333 32.0264C111.729 32.3432 112.098 32.7656 112.455 33.3068C112.758 33.7688 112.983 34.1912 113.141 34.574C113.3 34.9568 113.418 35.3 113.498 35.6036C113.59 35.9072 113.643 36.158 113.696 36.3692C113.735 36.5804 113.801 36.752 113.867 36.8576C113.946 36.9764 114.026 37.0556 114.118 37.0688V37.2932L111.9 37.478L111.861 37.3196C111.966 37.2272 112.046 37.1216 112.098 37.016C112.164 36.884 112.178 36.6992 112.178 36.4748C112.178 36.2504 112.138 35.9996 112.072 35.7356C112.006 35.4716 111.914 35.1944 111.795 34.904C111.676 34.6268 111.531 34.3496 111.372 34.0988C111.24 33.9008 111.095 33.716 110.937 33.5312C110.778 33.3464 110.607 33.188 110.435 33.0692C110.264 32.9504 110.092 32.858 109.92 32.8184C109.749 32.7788 109.59 32.8052 109.445 32.8976C109.234 33.0296 109.128 33.2144 109.128 33.4388C109.128 33.6632 109.181 33.914 109.287 34.1912C109.392 34.4684 109.551 34.7852 109.749 35.102C109.947 35.4188 110.132 35.762 110.33 36.1184C110.528 36.4748 110.686 36.818 110.831 37.1744C110.976 37.5308 111.056 37.8872 111.082 38.2304C111.108 38.5736 111.042 38.9036 110.897 39.2204C110.752 39.5372 110.488 39.8144 110.105 40.0784C109.656 40.382 109.208 40.5008 108.759 40.4612C108.31 40.4084 107.888 40.2632 107.492 40.0124C107.096 39.7616 106.726 39.458 106.396 39.0752C106.066 38.6924 105.789 38.336 105.551 37.9796C105.221 37.478 104.97 37.0556 104.812 36.686C104.654 36.3164 104.535 35.9864 104.469 35.7092C104.403 35.432 104.363 35.2076 104.337 35.036C104.31 34.8644 104.271 34.7324 104.205 34.64C104.165 34.574 104.086 34.5476 103.994 34.5344L103.98 34.2836L105.974 33.9668Z" fill="black"/>
<path d="M45.1599 113.154L44.9355 112.942C44.9751 112.903 45.0147 112.85 45.0411 112.797C45.1071 112.665 45.0807 112.507 44.9751 112.322C44.8563 112.137 44.6979 111.952 44.4867 111.754C44.2755 111.556 44.0247 111.372 43.7475 111.2C43.4703 111.028 43.1931 110.87 42.9291 110.738C42.5991 110.58 42.2559 110.474 41.8863 110.408C41.5167 110.342 41.1603 110.355 40.8171 110.421C40.4739 110.5 40.1439 110.646 39.8403 110.883C39.5367 111.121 39.2859 111.451 39.0615 111.9C38.8503 112.335 38.7447 112.744 38.7579 113.127C38.7579 113.51 38.8371 113.866 38.9955 114.183C39.1539 114.5 39.3651 114.777 39.6423 115.028C39.9195 115.279 40.2231 115.477 40.5531 115.635C41.0547 115.873 41.5299 116.058 41.9655 116.163C42.4011 116.269 42.7971 116.348 43.1271 116.388L43.6683 115.252L41.9787 114.434C41.8599 114.368 41.7543 114.355 41.6619 114.381C41.5695 114.408 41.4771 114.5 41.3715 114.672L41.1339 114.553L41.9523 112.863L42.1899 112.982C42.1371 113.14 42.1239 113.259 42.1767 113.325C42.2163 113.391 42.3087 113.457 42.4275 113.523L45.7275 115.12L45.6087 115.358C45.4239 115.305 45.2919 115.279 45.2391 115.292C45.1731 115.305 45.1203 115.371 45.0675 115.49L44.3415 116.982C44.3019 117.074 44.3019 117.14 44.3415 117.193C44.3811 117.246 44.4339 117.298 44.4867 117.378L44.3811 117.589C43.9983 117.655 43.6023 117.668 43.2195 117.655C42.8367 117.628 42.4539 117.576 42.0975 117.496C41.7279 117.417 41.3715 117.298 41.0415 117.153C40.6983 117.008 40.3683 116.863 40.0515 116.718C39.4311 116.427 38.9031 116.071 38.4807 115.675C38.0451 115.279 37.7283 114.843 37.5039 114.355C37.2927 113.88 37.1871 113.365 37.2003 112.837C37.2135 112.309 37.3455 111.754 37.6227 111.213C37.8867 110.659 38.2299 110.21 38.6391 109.867C39.0483 109.524 39.5103 109.286 40.0119 109.154C40.5267 109.022 41.0679 108.996 41.6619 109.075C42.2427 109.154 42.8499 109.339 43.4703 109.642C43.8531 109.827 44.2095 110.038 44.5395 110.263C44.8695 110.487 45.1467 110.698 45.3975 110.896C45.6351 111.094 45.8331 111.266 45.9915 111.411C46.1499 111.556 46.2423 111.636 46.2819 111.662C46.3611 111.702 46.4271 111.715 46.4931 111.702C46.5591 111.688 46.6119 111.675 46.6647 111.675L46.7835 111.847L45.1599 113.154Z" fill="black"/>
<path d="M54.8359 113.563C55.2979 113.668 55.6939 113.8 56.0503 113.972C56.4067 114.144 56.6971 114.342 56.9215 114.579C57.1459 114.817 57.3043 115.094 57.3835 115.411C57.4627 115.728 57.4495 116.084 57.3571 116.493C57.2119 117.127 56.9215 117.562 56.4727 117.813C56.0239 118.064 55.4695 118.17 54.8227 118.143L56.1031 121.298C56.1559 121.404 56.2087 121.483 56.3011 121.522C56.3803 121.562 56.4727 121.588 56.5519 121.615L56.4859 121.879L53.8063 121.272L53.8723 121.008C53.9515 121.034 54.0307 121.034 54.1099 121.021C54.1891 121.008 54.2155 120.981 54.2287 120.928C54.2419 120.876 54.2287 120.823 54.2023 120.757C54.1759 120.691 54.1363 120.585 54.0835 120.466L53.0143 117.879L50.9683 117.417L50.3875 119.965C50.3743 120.057 50.3875 120.123 50.4403 120.176C50.4931 120.229 50.5987 120.282 50.7703 120.321L50.7043 120.585L48.2227 120.018L48.2887 119.754C48.5659 119.82 48.7243 119.767 48.7639 119.595L50.2423 113.101C50.2819 112.929 50.1631 112.81 49.8859 112.744L49.9519 112.48L54.8359 113.563ZM53.7139 116.823C54.0571 116.902 54.3475 116.942 54.5851 116.942C54.8227 116.942 55.0207 116.916 55.1791 116.85C55.3375 116.784 55.4563 116.691 55.5355 116.572C55.6279 116.454 55.6807 116.322 55.7203 116.176C55.7467 116.018 55.7599 115.873 55.7335 115.741C55.7071 115.596 55.6411 115.464 55.5223 115.345C55.4167 115.213 55.2451 115.107 55.0339 115.002C54.8227 114.896 54.5323 114.804 54.1891 114.724L51.7075 114.157L51.2323 116.269L53.7139 116.823Z" fill="black"/>
<path d="M65.3555 114.513C65.8967 114.513 66.4379 114.592 67.0055 114.751C67.5599 114.909 68.0746 115.147 68.5366 115.464C68.9986 115.78 69.3815 116.19 69.6719 116.678C69.9623 117.166 70.1206 117.76 70.1206 118.434C70.1206 119.107 69.9886 119.688 69.6982 120.189C69.4078 120.691 69.0382 121.1 68.5762 121.417C68.1142 121.747 67.6126 121.984 67.0582 122.13C66.5038 122.275 65.9495 122.354 65.4215 122.367C64.8935 122.38 64.3391 122.301 63.7715 122.156C63.2171 122.011 62.7023 121.786 62.2403 121.456C61.7783 121.126 61.3954 120.73 61.105 120.242C60.8146 119.754 60.6562 119.16 60.6562 118.486C60.6562 117.813 60.7882 117.232 61.0786 116.731C61.369 116.229 61.7386 115.82 62.2006 115.503C62.6626 115.173 63.1642 114.936 63.7186 114.764C64.273 114.592 64.8143 114.513 65.3555 114.513ZM65.3686 115.86C64.999 115.86 64.6294 115.926 64.2598 116.044C63.8902 116.163 63.5602 116.335 63.2566 116.559C62.953 116.784 62.7154 117.061 62.5306 117.378C62.3458 117.708 62.2535 118.064 62.2535 118.473C62.2535 118.882 62.3458 119.252 62.5438 119.569C62.7286 119.886 62.9794 120.163 63.2698 120.374C63.5602 120.585 63.9034 120.757 64.273 120.876C64.6426 120.994 65.0122 121.047 65.395 121.047C65.7646 121.047 66.1342 120.981 66.5038 120.862C66.8734 120.744 67.2034 120.572 67.5071 120.348C67.7975 120.123 68.0483 119.846 68.233 119.529C68.4179 119.199 68.5103 118.843 68.497 118.434C68.497 118.024 68.4046 117.655 68.2066 117.338C68.0218 117.021 67.771 116.744 67.4806 116.533C67.177 116.308 66.8471 116.15 66.4775 116.031C66.1079 115.912 65.7382 115.86 65.3686 115.86Z" fill="black"/>
<path d="M74.9649 113.906C74.7537 113.959 74.6745 114.064 74.7141 114.236L75.7569 118.513C75.9021 119.107 76.1925 119.476 76.6413 119.608C77.0769 119.74 77.6709 119.714 78.4101 119.529C79.1493 119.344 79.6905 119.094 80.0205 118.777C80.3505 118.46 80.4429 117.998 80.2977 117.404L79.2549 113.127C79.2153 112.956 79.0437 112.903 78.7665 112.969L78.7005 112.705L80.9841 112.15L81.0501 112.401C80.8257 112.454 80.7333 112.573 80.7729 112.744L81.8025 116.955C81.9345 117.51 81.9741 117.998 81.8949 118.407C81.8157 118.816 81.6573 119.16 81.3801 119.463C81.1029 119.754 80.7465 120.004 80.2845 120.202C79.8225 120.4 79.2813 120.572 78.6477 120.717C78.0273 120.876 77.4597 120.968 76.9581 121.008C76.4565 121.047 76.0209 120.994 75.6381 120.862C75.2685 120.717 74.9517 120.493 74.7009 120.163C74.4501 119.833 74.2521 119.397 74.1201 118.83L73.0905 114.619C73.0509 114.447 72.8925 114.394 72.6285 114.46L72.5625 114.196L74.8989 113.629L74.9649 113.906Z" fill="black"/>
<path d="M86.8197 118.156L86.7009 117.919C87.0309 117.76 87.1497 117.602 87.0705 117.444L84.1401 111.451C84.0609 111.292 83.8629 111.292 83.5329 111.451L83.4141 111.213L88.0473 108.943C88.8921 108.534 89.6313 108.362 90.2649 108.441C90.8985 108.52 91.4001 108.93 91.7697 109.669C92.1393 110.421 92.1525 111.068 91.8225 111.609C91.4925 112.15 90.9117 112.639 90.0669 113.048L87.4137 114.342L88.5621 116.691C88.6413 116.85 88.8261 116.863 89.1033 116.718L89.2221 116.955L86.8197 118.156ZM89.6445 111.768C89.9349 111.622 90.1593 111.451 90.3045 111.226C90.4497 111.015 90.4497 110.738 90.2781 110.408C90.1197 110.078 89.9085 109.906 89.6445 109.893C89.3805 109.88 89.1033 109.946 88.8129 110.091L86.0013 111.464L86.8329 113.154L89.6445 111.768Z" fill="black"/>
<path d="M65.0011 129.548C29.4139 129.548 0.453125 100.587 0.453125 65C0.453125 29.4128 29.4139 0.452026 65.0011 0.452026C100.588 0.452026 129.549 29.4128 129.549 65C129.549 100.587 100.588 129.548 65.0011 129.548ZM65.0011 2.36603C30.4699 2.36603 2.36713 30.4688 2.36713 65C2.36713 99.5312 30.4699 127.634 65.0011 127.634C99.5323 127.634 127.635 99.5312 127.635 65C127.635 30.4688 99.5323 2.36603 65.0011 2.36603Z" fill="black"/>
<path d="M95.1631 102.224L101.776 110.567L100.984 111.2L94.3711 102.858L95.1631 102.224Z" fill="black"/>
<path d="M98.4228 99.3333L105.762 107.042L105.023 107.742L97.6836 100.033L98.4228 99.3333Z" fill="black"/>
<path d="M101.435 96.1389L109.447 103.148L108.774 103.914L100.762 96.9045L101.435 96.1389Z" fill="black"/>
<path d="M104.141 92.6672L112.76 98.9108L112.166 99.7292L103.547 93.4856L104.141 92.6672Z" fill="black"/>
<path d="M106.487 88.9845L115.648 94.4097L115.133 95.2809L105.973 89.8557L106.487 88.9845Z" fill="black"/>
<path d="M108.494 85.0905L118.117 89.6445L117.681 90.5685L108.059 86.0145L108.494 85.0905Z" fill="black"/>
<path d="M110.145 81.0513L120.151 84.7077L119.795 85.6581L109.789 82.0017L110.145 81.0513Z" fill="black"/>
<path d="M111.424 76.8668L121.694 79.6916L121.43 80.6684L111.16 77.8436L111.424 76.8668Z" fill="black"/>
<path d="M112.308 72.5505L122.802 74.3457L122.631 75.3489L112.137 73.5537L112.308 72.5505Z" fill="black"/>
<path d="M112.81 68.1945L123.422 69.0261L123.343 70.0425L112.73 69.2109L112.81 68.1945Z" fill="black"/>
<path d="M112.902 63.8253L123.555 63.6801L123.568 64.6965L112.916 64.8417L112.902 63.8253Z" fill="black"/>
<path d="M112.602 59.4429L123.188 58.3209L123.294 59.3373L112.707 60.4593L112.602 59.4429Z" fill="black"/>
<path d="M111.887 55.1265L122.328 53.0409L122.526 54.0441L112.085 56.1297L111.887 55.1265Z" fill="black"/>
<path d="M110.793 50.8893L120.983 47.8533L121.274 48.8301L111.083 51.8661L110.793 50.8893Z" fill="black"/>
<path d="M109.312 46.7841L119.199 42.8373L119.582 43.7877L109.695 47.7345L109.312 46.7841Z" fill="black"/>
<path d="M35.6332 102.858L29.02 111.2L28.2148 110.566L34.828 102.224L35.6332 102.858Z" fill="black"/>
<path d="M32.305 100.033L24.9658 107.742L24.2266 107.042L31.5658 99.3331L32.305 100.033Z" fill="black"/>
<path d="M29.2442 96.9044L21.2318 103.914L20.5586 103.148L28.571 96.1388L29.2442 96.9044Z" fill="black"/>
<path d="M26.4729 93.4856L17.8401 99.7292L17.2461 98.9108L25.8789 92.6672L26.4729 93.4856Z" fill="black"/>
<path d="M24.0311 89.8556L14.8703 95.2808L14.3555 94.4096L23.5163 88.9844L24.0311 89.8556Z" fill="black"/>
<path d="M21.9451 86.0143L12.3223 90.5683L11.8867 89.6443L21.5095 85.0903L21.9451 86.0143Z" fill="black"/>
<path d="M20.2018 82.0015L10.1962 85.6579L9.83984 84.7075L19.8454 81.0511L20.2018 82.0015Z" fill="black"/>
<path d="M18.8539 77.8568L8.58431 80.6816L8.32031 79.7048L18.5899 76.88L18.8539 77.8568Z" fill="black"/>
<path d="M17.8648 73.5536L7.37082 75.3488L7.19922 74.3456L17.6932 72.5504L17.8648 73.5536Z" fill="black"/>
<path d="M17.2701 69.2107L6.65732 70.0423L6.57812 69.0259L17.1909 68.1943L17.2701 69.2107Z" fill="black"/>
<path d="M17.086 64.8415L6.43359 64.6963L6.44679 63.6799L17.0992 63.8251L17.086 64.8415Z" fill="black"/>
<path d="M17.2973 60.4724L6.71094 59.3504L6.81654 58.334L17.4029 59.456L17.2973 60.4724Z" fill="black"/>
<path d="M17.9178 56.1296L7.47656 54.044L7.67456 53.0408L18.1158 55.1264L17.9178 56.1296Z" fill="black"/>
<path d="M18.9209 51.8659L8.73047 48.8299L9.02087 47.8531L19.2113 50.8891L18.9209 51.8659Z" fill="black"/>
<path d="M20.3087 47.7212L10.4219 43.7744L10.8047 42.824L20.6915 46.7708L20.3087 47.7212Z" fill="black"/>
</svg>
